%TF.GenerationSoftware,KiCad,Pcbnew,7.0.10-7.0.10~ubuntu22.04.1*%
%TF.CreationDate,2024-04-10T21:13:45+02:00*%
%TF.ProjectId,STM32_watch_NFC,53544d33-325f-4776-9174-63685f4e4643,rev?*%
%TF.SameCoordinates,Original*%
%TF.FileFunction,Copper,L3,Inr*%
%TF.FilePolarity,Positive*%
%FSLAX46Y46*%
G04 Gerber Fmt 4.6, Leading zero omitted, Abs format (unit mm)*
G04 Created by KiCad (PCBNEW 7.0.10-7.0.10~ubuntu22.04.1) date 2024-04-10 21:13:45*
%MOMM*%
%LPD*%
G01*
G04 APERTURE LIST*
%TA.AperFunction,ViaPad*%
%ADD10C,0.500000*%
%TD*%
%TA.AperFunction,ViaPad*%
%ADD11C,0.800000*%
%TD*%
%TA.AperFunction,Conductor*%
%ADD12C,0.300000*%
%TD*%
%TA.AperFunction,Conductor*%
%ADD13C,0.200000*%
%TD*%
G04 APERTURE END LIST*
D10*
%TO.N,+3.3V*%
X136850000Y-92900000D03*
X140950000Y-118900000D03*
%TO.N,+5V*%
X154460624Y-120050000D03*
X139700000Y-113700000D03*
X136400000Y-102000000D03*
%TO.N,/NRST*%
X159250000Y-113950000D03*
%TO.N,+3.3V*%
X158550000Y-114500000D03*
X153450000Y-118600000D03*
%TO.N,GND*%
X145250000Y-107650000D03*
X151500000Y-115750000D03*
%TO.N,BATT_STM*%
X150500000Y-116200000D03*
%TO.N,GND*%
X151000000Y-108400000D03*
D11*
X159800000Y-107500000D03*
D10*
%TO.N,+3.3V*%
X159500000Y-105800000D03*
%TO.N,GND*%
X144200000Y-93800000D03*
X153500000Y-94500000D03*
D11*
X144100000Y-98500000D03*
D10*
%TO.N,+BATT*%
X137499990Y-110800000D03*
X142900000Y-116000000D03*
D11*
%TO.N,GND*%
X139800000Y-105100000D03*
D10*
%TO.N,+5V*%
X151600000Y-99300002D03*
%TO.N,Net-(U3-RFO2)*%
X147600000Y-95000000D03*
%TO.N,Net-(U3-RFO1)*%
X149900000Y-95000000D03*
%TO.N,DIN_STM*%
X152700000Y-117900000D03*
%TO.N,/SWCLK*%
X157700000Y-118500000D03*
%TO.N,/SWDIO*%
X158200000Y-116000000D03*
%TO.N,Button_R*%
X161300000Y-108800000D03*
%TO.N,CHRG_STM*%
X141600000Y-113300000D03*
%TO.N,DONE_STM*%
X139900000Y-108400000D03*
%TO.N,Button_LT*%
X142900000Y-89500000D03*
%TO.N,Button_LB*%
X136000000Y-115000000D03*
%TO.N,Net-(U3-VDD_DR)*%
X152841590Y-100178612D03*
X154300000Y-96500000D03*
%TO.N,Net-(U3-RFO2)*%
X155900000Y-96300000D03*
%TO.N,Net-(U3-RFO1)*%
X153400000Y-96500000D03*
%TO.N,+5V*%
X149600000Y-97600000D03*
X152146795Y-100410819D03*
%TO.N,SPI_MOSI_STM*%
X157884846Y-103808385D03*
%TO.N,SPI_MISO_STM*%
X157340901Y-104249911D03*
%TO.N,SPI_SCL_STM*%
X158394578Y-103328618D03*
%TO.N,SPI_CS_STM*%
X158889045Y-102800000D03*
%TO.N,SPI_IRQ_STM*%
X159350000Y-102250000D03*
%TO.N,CHRG_STM*%
X148408159Y-104500000D03*
%TO.N,DONE_STM*%
X149213312Y-105060802D03*
%TO.N,Button_R*%
X151300000Y-103600000D03*
%TO.N,/SWDIO*%
X151800000Y-104100000D03*
%TO.N,/SWCLK*%
X151487548Y-106235757D03*
%TO.N,DIN_STM*%
X151021805Y-106823623D03*
%TO.N,Button_LT*%
X147200000Y-105000000D03*
%TO.N,Button_LB*%
X145100000Y-105500000D03*
%TO.N,BATT_STM*%
X149000000Y-101300000D03*
%TO.N,SPI_MOSI_STM*%
X147440191Y-101817276D03*
%TO.N,SPI_MISO_STM*%
X146910559Y-102301725D03*
%TO.N,SPI_SCL_STM*%
X146350000Y-102850016D03*
%TO.N,SPI_CS_STM*%
X145850000Y-103400000D03*
%TO.N,SPI_IRQ_STM*%
X145348275Y-103907472D03*
D11*
%TO.N,/NRST*%
X148100000Y-105500000D03*
X149000000Y-112200000D03*
%TO.N,+3.3V*%
X150500000Y-111700000D03*
X150940546Y-102829742D03*
X147800000Y-98800000D03*
D10*
%TO.N,GND*%
X136800000Y-95900000D03*
X155900000Y-115000000D03*
X141900000Y-90800000D03*
X136800000Y-109900000D03*
X148900000Y-88900000D03*
X155900000Y-90800000D03*
X161000000Y-95900000D03*
X161000000Y-109900000D03*
X162900000Y-102900000D03*
%TO.N,/NFC_RFID/A2*%
X149550000Y-88500000D03*
%TO.N,/NFC_RFID/A1*%
X148575000Y-85850000D03*
%TO.N,Net-(D7-DIN)*%
X148900000Y-119900000D03*
%TD*%
D12*
%TO.N,+3.3V*%
X140950000Y-118900000D02*
X138250000Y-118900000D01*
X138250000Y-118900000D02*
X132300000Y-112950000D01*
X132300000Y-112950000D02*
X132300000Y-97450000D01*
X132300000Y-97450000D02*
X136800000Y-92950000D01*
D13*
%TO.N,SPI_MISO_STM*%
X157340901Y-104249911D02*
X157290990Y-104200000D01*
X157290990Y-104200000D02*
X153500000Y-104200000D01*
X146550000Y-101450000D02*
X146550000Y-101941166D01*
X153500000Y-104200000D02*
X149900000Y-100600000D01*
X149900000Y-100600000D02*
X147400000Y-100600000D01*
X147400000Y-100600000D02*
X146550000Y-101450000D01*
X146550000Y-101941166D02*
X146910559Y-102301725D01*
%TO.N,SPI_MOSI_STM*%
X152400000Y-104800000D02*
X152300000Y-104700000D01*
X157884846Y-103808385D02*
X158100000Y-104023539D01*
X152300000Y-104700000D02*
X151131370Y-104700000D01*
X158100000Y-104023539D02*
X158100000Y-104268630D01*
X158100000Y-104268630D02*
X157568630Y-104800000D01*
X151131370Y-104700000D02*
X148248646Y-101817276D01*
X157568630Y-104800000D02*
X152400000Y-104800000D01*
X148248646Y-101817276D02*
X147440191Y-101817276D01*
%TO.N,SPI_SCL_STM*%
X150865685Y-105100000D02*
X148965685Y-103200000D01*
X158394578Y-103328618D02*
X158700000Y-103634040D01*
X151895294Y-105300000D02*
X151695294Y-105100000D01*
X158700000Y-103634040D02*
X158700000Y-104234315D01*
X151695294Y-105100000D02*
X150865685Y-105100000D01*
X148965685Y-103200000D02*
X146699984Y-103200000D01*
X157634315Y-105300000D02*
X151895294Y-105300000D01*
X158700000Y-104234315D02*
X157634315Y-105300000D01*
X146699984Y-103200000D02*
X146350000Y-102850016D01*
%TO.N,SPI_CS_STM*%
X151829609Y-105800000D02*
X151529609Y-105500000D01*
X151529609Y-105500000D02*
X150700000Y-105500000D01*
X150700000Y-105500000D02*
X148800000Y-103600000D01*
X158889045Y-102800000D02*
X159200000Y-103110955D01*
X159200000Y-104800000D02*
X158200000Y-105800000D01*
X159200000Y-103110955D02*
X159200000Y-104800000D01*
X158200000Y-105800000D02*
X151829609Y-105800000D01*
X146050000Y-103600000D02*
X145850000Y-103400000D01*
X148800000Y-103600000D02*
X146050000Y-103600000D01*
%TO.N,SPI_IRQ_STM*%
X150200000Y-100200000D02*
X152250000Y-102250000D01*
X147200000Y-100200000D02*
X150200000Y-100200000D01*
X145100000Y-102300000D02*
X147200000Y-100200000D01*
X145100000Y-103659197D02*
X145100000Y-102300000D01*
X152250000Y-102250000D02*
X159350000Y-102250000D01*
X145348275Y-103907472D02*
X145100000Y-103659197D01*
%TO.N,Button_LT*%
X147200000Y-105000000D02*
X145592274Y-105000000D01*
X142900000Y-102307726D02*
X142900000Y-89500000D01*
X145592274Y-105000000D02*
X142900000Y-102307726D01*
D12*
%TO.N,+5V*%
X148450000Y-122450000D02*
X152060624Y-122450000D01*
X139700000Y-113700000D02*
X148450000Y-122450000D01*
X152060624Y-122450000D02*
X154460624Y-120050000D01*
D13*
%TO.N,/NRST*%
X159250000Y-115750000D02*
X159250000Y-113950000D01*
X155650000Y-119350000D02*
X159250000Y-115750000D01*
X149000000Y-112200000D02*
X149000000Y-116350000D01*
X149000000Y-116350000D02*
X152000000Y-119350000D01*
X152000000Y-119350000D02*
X155650000Y-119350000D01*
D12*
%TO.N,+5V*%
X136400000Y-102000000D02*
X135950000Y-102450000D01*
X135950000Y-102450000D02*
X135950000Y-112000000D01*
X135950000Y-112000000D02*
X137650000Y-113700000D01*
X137650000Y-113700000D02*
X139700000Y-113700000D01*
D13*
%TO.N,+3.3V*%
X150500000Y-111700000D02*
X153700000Y-114900000D01*
X153700000Y-114900000D02*
X153700000Y-118350000D01*
X153700000Y-118350000D02*
X153450000Y-118600000D01*
X150500000Y-111700000D02*
X155750000Y-111700000D01*
X155750000Y-111700000D02*
X158550000Y-114500000D01*
X150500000Y-111700000D02*
X153600000Y-111700000D01*
X153600000Y-111700000D02*
X159500000Y-105800000D01*
D12*
%TO.N,GND*%
X145250000Y-107650000D02*
X142700000Y-105100000D01*
X142700000Y-105100000D02*
X139800000Y-105100000D01*
X159800000Y-107500000D02*
X162900000Y-104400000D01*
X162900000Y-104400000D02*
X162900000Y-102900000D01*
X144200000Y-93800000D02*
X144200000Y-93600000D01*
X144200000Y-93600000D02*
X148900000Y-88900000D01*
X153500000Y-94500000D02*
X153500000Y-93200000D01*
X153500000Y-93200000D02*
X155900000Y-90800000D01*
%TO.N,+BATT*%
X138100000Y-110800000D02*
X137499990Y-110800000D01*
X142900000Y-116000000D02*
X142900000Y-115600000D01*
X142900000Y-115600000D02*
X138100000Y-110800000D01*
%TD*%
M02*
