%TF.GenerationSoftware,KiCad,Pcbnew,7.0.10-7.0.10~ubuntu22.04.1*%
%TF.CreationDate,2024-04-10T21:56:47+02:00*%
%TF.ProjectId,STM32_watch_NFC,53544d33-325f-4776-9174-63685f4e4643,rev?*%
%TF.SameCoordinates,Original*%
%TF.FileFunction,Copper,L3,Inr*%
%TF.FilePolarity,Positive*%
%FSLAX46Y46*%
G04 Gerber Fmt 4.6, Leading zero omitted, Abs format (unit mm)*
G04 Created by KiCad (PCBNEW 7.0.10-7.0.10~ubuntu22.04.1) date 2024-04-10 21:56:47*
%MOMM*%
%LPD*%
G01*
G04 APERTURE LIST*
%TA.AperFunction,ViaPad*%
%ADD10C,0.500000*%
%TD*%
%TA.AperFunction,Conductor*%
%ADD11C,0.300000*%
%TD*%
%TA.AperFunction,Conductor*%
%ADD12C,0.200000*%
%TD*%
G04 APERTURE END LIST*
D10*
%TO.N,+3.3V*%
X137200000Y-93250000D03*
X140950000Y-118900000D03*
%TO.N,+5V*%
X154460624Y-120050000D03*
X139700000Y-113700000D03*
X136400000Y-102000000D03*
%TO.N,/NRST*%
X159250000Y-113950000D03*
%TO.N,+3.3V*%
X158550000Y-114500000D03*
X153450000Y-118600000D03*
%TO.N,GND*%
X145250000Y-107650000D03*
X151500000Y-115750000D03*
%TO.N,BATT_STM*%
X150500000Y-116200000D03*
%TO.N,GND*%
X151000000Y-108400000D03*
X159800000Y-107500000D03*
%TO.N,+3.3V*%
X159500000Y-105800000D03*
%TO.N,GND*%
X144200000Y-93800000D03*
X153500000Y-94500000D03*
X144100000Y-98500000D03*
%TO.N,+BATT*%
X137599982Y-110700008D03*
X143450000Y-115890380D03*
%TO.N,GND*%
X139800000Y-105100000D03*
%TO.N,+5V*%
X151600000Y-99300002D03*
%TO.N,Net-(U3-RFO2)*%
X147600000Y-95000000D03*
%TO.N,Net-(U3-RFO1)*%
X149900000Y-95000000D03*
%TO.N,DIN_STM*%
X152700000Y-117900000D03*
%TO.N,/SWCLK*%
X157700000Y-118500000D03*
%TO.N,/SWDIO*%
X158200000Y-116000000D03*
%TO.N,Button_R*%
X161300000Y-108800000D03*
%TO.N,CHRG_STM*%
X141600000Y-113300000D03*
%TO.N,DONE_STM*%
X139900000Y-108400000D03*
%TO.N,Button_LT*%
X142900000Y-89500000D03*
%TO.N,Button_LB*%
X136000000Y-115000000D03*
%TO.N,Net-(U3-VDD_DR)*%
X152841590Y-100178612D03*
X154300000Y-96500000D03*
%TO.N,Net-(U3-RFO2)*%
X155900000Y-96300000D03*
%TO.N,Net-(U3-RFO1)*%
X153400000Y-96500000D03*
%TO.N,+5V*%
X149600000Y-97600000D03*
X152146795Y-100410819D03*
%TO.N,SPI_MOSI_STM*%
X157884846Y-103808385D03*
%TO.N,SPI_MISO_STM*%
X157340901Y-104249911D03*
%TO.N,SPI_SCL_STM*%
X158394578Y-103328618D03*
%TO.N,SPI_CS_STM*%
X158889045Y-102800000D03*
%TO.N,SPI_IRQ_STM*%
X159350000Y-102250000D03*
%TO.N,CHRG_STM*%
X148408159Y-104500000D03*
%TO.N,DONE_STM*%
X149213312Y-105060802D03*
%TO.N,Button_R*%
X151300000Y-103600000D03*
%TO.N,/SWDIO*%
X151800000Y-104100000D03*
%TO.N,/SWCLK*%
X151487548Y-106235757D03*
%TO.N,DIN_STM*%
X151021805Y-106823623D03*
%TO.N,Button_LT*%
X147200000Y-105000000D03*
%TO.N,Button_LB*%
X145100000Y-105500000D03*
%TO.N,BATT_STM*%
X149000000Y-101300000D03*
%TO.N,SPI_MOSI_STM*%
X147433947Y-101949274D03*
%TO.N,SPI_MISO_STM*%
X146811849Y-102368196D03*
%TO.N,SPI_SCL_STM*%
X146292857Y-102909630D03*
%TO.N,SPI_CS_STM*%
X145790177Y-103466242D03*
%TO.N,SPI_IRQ_STM*%
X145259442Y-103996170D03*
%TO.N,/NRST*%
X148100000Y-105500000D03*
X149000000Y-112200000D03*
%TO.N,+3.3V*%
X150500000Y-111700000D03*
X150940546Y-102829742D03*
X147800000Y-98800000D03*
%TO.N,GND*%
X156900000Y-117600000D03*
X142815380Y-117684620D03*
X136800000Y-95900000D03*
X155900000Y-115000000D03*
X141900000Y-90800000D03*
X137800000Y-98500000D03*
X162299999Y-98399999D03*
X136800000Y-109900000D03*
X148900000Y-88900000D03*
X155900000Y-90800000D03*
X161000000Y-95900000D03*
X161000000Y-109900000D03*
X135400000Y-103050000D03*
X135300000Y-107149984D03*
X149720000Y-91099996D03*
X137880000Y-112521316D03*
X156900000Y-93400000D03*
X142950002Y-114599998D03*
X163900000Y-105500000D03*
X142900000Y-93300000D03*
X162900000Y-102900000D03*
X162000000Y-112500000D03*
X149900000Y-119500000D03*
X149400000Y-116500000D03*
%TO.N,/NFC_RFID/A2*%
X149550000Y-88500000D03*
%TO.N,/NFC_RFID/A1*%
X148575000Y-85850000D03*
%TO.N,Net-(D7-DIN)*%
X149900000Y-118600000D03*
X148999992Y-120150000D03*
%TO.N,Net-(D1-DOUT)*%
X156900000Y-92500000D03*
X147100000Y-91100000D03*
%TO.N,Net-(D1-DIN)*%
X149300000Y-89750000D03*
X140100000Y-93300000D03*
%TO.N,Net-(D2-DOUT)*%
X162000000Y-97600000D03*
X154100000Y-93400000D03*
%TO.N,Net-(D3-DOUT)*%
X163900000Y-104600000D03*
X160100000Y-100000000D03*
%TO.N,Net-(D4-DOUT)*%
X162100000Y-111600000D03*
X160850000Y-105350000D03*
%TO.N,Net-(D5-DOUT)*%
X159200000Y-112500000D03*
X156900000Y-116700000D03*
%TO.N,Net-(D7-DOUT)*%
X147100000Y-119500000D03*
X143585121Y-116614880D03*
%TO.N,Net-(D8-DOUT)*%
X137742707Y-111500427D03*
X140100000Y-117600000D03*
%TO.N,Net-(D10-DIN)*%
X136800000Y-103650000D03*
X134570000Y-112450000D03*
%TO.N,Net-(D10-DOUT)*%
X133100000Y-105500000D03*
X137800000Y-97500000D03*
%TO.N,Net-(D11-DOUT)*%
X135000000Y-98500000D03*
X142900000Y-92400000D03*
%TD*%
D11*
%TO.N,GND*%
X144200000Y-93800000D02*
X144200000Y-93150000D01*
X144200000Y-93150000D02*
X148450000Y-88900000D01*
X148450000Y-88900000D02*
X148900000Y-88900000D01*
%TO.N,+5V*%
X136400000Y-102000000D02*
X136000000Y-102400000D01*
X139500000Y-113900000D02*
X139700000Y-113700000D01*
X136000000Y-102400000D02*
X136000000Y-112369239D01*
X136000000Y-112369239D02*
X137530761Y-113900000D01*
X137530761Y-113900000D02*
X139500000Y-113900000D01*
D12*
%TO.N,/NRST*%
X159250000Y-116100000D02*
X159250000Y-113950000D01*
X156000000Y-119350000D02*
X159250000Y-116100000D01*
X148800000Y-116700000D02*
X151450000Y-119350000D01*
X148800000Y-112400000D02*
X148800000Y-116700000D01*
X151450000Y-119350000D02*
X156000000Y-119350000D01*
X149000000Y-112200000D02*
X148800000Y-112400000D01*
D11*
%TO.N,+BATT*%
X137599982Y-110700008D02*
X137861527Y-110700008D01*
X137861527Y-110700008D02*
X143051899Y-115890380D01*
X143051899Y-115890380D02*
X143450000Y-115890380D01*
%TO.N,+5V*%
X139700000Y-113700000D02*
X139850000Y-113700000D01*
X148600000Y-122450000D02*
X152060624Y-122450000D01*
X139850000Y-113700000D02*
X148600000Y-122450000D01*
X152060624Y-122450000D02*
X154460624Y-120050000D01*
%TO.N,+3.3V*%
X140950000Y-118900000D02*
X138250000Y-118900000D01*
X138250000Y-118900000D02*
X132300000Y-112950000D01*
X132300000Y-112950000D02*
X132300000Y-97450000D01*
X132300000Y-97450000D02*
X136500000Y-93250000D01*
X136500000Y-93250000D02*
X137200000Y-93250000D01*
D12*
%TO.N,SPI_MOSI_STM*%
X148380644Y-101949274D02*
X147433947Y-101949274D01*
X151131370Y-104700000D02*
X148380644Y-101949274D01*
X157568630Y-104800000D02*
X152400000Y-104800000D01*
X157884846Y-104483784D02*
X157568630Y-104800000D01*
X152400000Y-104800000D02*
X152300000Y-104700000D01*
X157884846Y-103808385D02*
X157884846Y-104483784D01*
X152300000Y-104700000D02*
X151131370Y-104700000D01*
%TO.N,Button_LT*%
X142500000Y-91400000D02*
X142050000Y-91850000D01*
%TO.N,SPI_CS_STM*%
X151529609Y-105500000D02*
X150700000Y-105500000D01*
%TO.N,SPI_SCL_STM*%
X151695294Y-105100000D02*
X150865685Y-105100000D01*
%TO.N,SPI_MISO_STM*%
X153500000Y-104200000D02*
X149900000Y-100600000D01*
%TO.N,SPI_CS_STM*%
X151829609Y-105800000D02*
X151529609Y-105500000D01*
%TO.N,Button_LT*%
X142500000Y-89900000D02*
X142500000Y-91400000D01*
%TO.N,SPI_SCL_STM*%
X151895294Y-105300000D02*
X151695294Y-105100000D01*
%TO.N,SPI_IRQ_STM*%
X145100000Y-102300000D02*
X145100000Y-103836728D01*
X159350000Y-102250000D02*
X152250000Y-102250000D01*
%TO.N,SPI_SCL_STM*%
X158700000Y-103634040D02*
X158700000Y-104234315D01*
X158394578Y-103328618D02*
X158700000Y-103634040D01*
%TO.N,SPI_CS_STM*%
X159200000Y-104800000D02*
X158200000Y-105800000D01*
%TO.N,Button_LT*%
X142050000Y-91850000D02*
X142050000Y-101635257D01*
%TO.N,SPI_CS_STM*%
X150700000Y-105500000D02*
X148800000Y-103600000D01*
%TO.N,SPI_MISO_STM*%
X149900000Y-100600000D02*
X147400000Y-100600000D01*
%TO.N,SPI_SCL_STM*%
X150865685Y-105100000D02*
X148965685Y-103200000D01*
%TO.N,SPI_MISO_STM*%
X146550000Y-101450000D02*
X146550000Y-102106347D01*
%TO.N,SPI_SCL_STM*%
X148965685Y-103200000D02*
X146583227Y-103200000D01*
%TO.N,SPI_CS_STM*%
X148800000Y-103600000D02*
X145923935Y-103600000D01*
%TO.N,Button_LT*%
X142050000Y-101635257D02*
X145414743Y-105000000D01*
%TO.N,SPI_CS_STM*%
X158889045Y-102800000D02*
X159200000Y-103110955D01*
%TO.N,Button_LT*%
X145414743Y-105000000D02*
X147200000Y-105000000D01*
%TO.N,SPI_CS_STM*%
X145923935Y-103600000D02*
X145790177Y-103466242D01*
X158200000Y-105800000D02*
X151829609Y-105800000D01*
%TO.N,SPI_MISO_STM*%
X157340901Y-104249911D02*
X157290990Y-104200000D01*
%TO.N,SPI_SCL_STM*%
X158700000Y-104234315D02*
X157634315Y-105300000D01*
%TO.N,Button_LT*%
X142900000Y-89500000D02*
X142500000Y-89900000D01*
%TO.N,SPI_CS_STM*%
X159200000Y-103110955D02*
X159200000Y-104800000D01*
%TO.N,SPI_IRQ_STM*%
X152250000Y-102250000D02*
X150200000Y-100200000D01*
X147200000Y-100200000D02*
X145100000Y-102300000D01*
%TO.N,SPI_MISO_STM*%
X147400000Y-100600000D02*
X146550000Y-101450000D01*
%TO.N,SPI_SCL_STM*%
X157634315Y-105300000D02*
X151895294Y-105300000D01*
%TO.N,SPI_MISO_STM*%
X146550000Y-102106347D02*
X146811849Y-102368196D01*
%TO.N,SPI_SCL_STM*%
X146583227Y-103200000D02*
X146292857Y-102909630D01*
%TO.N,SPI_MISO_STM*%
X157290990Y-104200000D02*
X153500000Y-104200000D01*
%TO.N,SPI_IRQ_STM*%
X150200000Y-100200000D02*
X147200000Y-100200000D01*
X145100000Y-103836728D02*
X145259442Y-103996170D01*
D11*
%TO.N,GND*%
X153500000Y-94500000D02*
X153500000Y-92900000D01*
X153500000Y-92900000D02*
X155600000Y-90800000D01*
X155600000Y-90800000D02*
X155900000Y-90800000D01*
D12*
%TO.N,+3.3V*%
X150500000Y-111700000D02*
X153700000Y-114900000D01*
X153700000Y-114900000D02*
X153700000Y-118350000D01*
X153700000Y-118350000D02*
X153450000Y-118600000D01*
X150500000Y-111700000D02*
X155750000Y-111700000D01*
X155750000Y-111700000D02*
X158550000Y-114500000D01*
X150500000Y-111700000D02*
X153600000Y-111700000D01*
X153600000Y-111700000D02*
X159500000Y-105800000D01*
D11*
%TO.N,GND*%
X145250000Y-107650000D02*
X142700000Y-105100000D01*
X142700000Y-105100000D02*
X139800000Y-105100000D01*
X159800000Y-107500000D02*
X162900000Y-104400000D01*
X162900000Y-104400000D02*
X162900000Y-102900000D01*
%TD*%
M02*
