%TF.GenerationSoftware,KiCad,Pcbnew,7.0.10-7.0.10~ubuntu22.04.1*%
%TF.CreationDate,2024-04-13T21:42:07+02:00*%
%TF.ProjectId,STM32_watch_NFC,53544d33-325f-4776-9174-63685f4e4643,rev?*%
%TF.SameCoordinates,PX6c3df60PY1312d00*%
%TF.FileFunction,Copper,L3,Inr*%
%TF.FilePolarity,Positive*%
%FSLAX46Y46*%
G04 Gerber Fmt 4.6, Leading zero omitted, Abs format (unit mm)*
G04 Created by KiCad (PCBNEW 7.0.10-7.0.10~ubuntu22.04.1) date 2024-04-13 21:42:07*
%MOMM*%
%LPD*%
G01*
G04 APERTURE LIST*
%TA.AperFunction,ViaPad*%
%ADD10C,0.500000*%
%TD*%
%TA.AperFunction,Conductor*%
%ADD11C,0.200000*%
%TD*%
%TA.AperFunction,Conductor*%
%ADD12C,0.300000*%
%TD*%
G04 APERTURE END LIST*
D10*
%TO.N,Board_0-+3.3V*%
X19789897Y-23126470D03*
X36291635Y-26001659D03*
X45304420Y-25076245D03*
X31742291Y-23676725D03*
X39641098Y-34227026D03*
X47809106Y-33287003D03*
X34028710Y-44788446D03*
X45230772Y-39233826D03*
%TO.N,Board_0-+5V*%
X35397571Y-22523931D03*
X46759505Y-40120864D03*
X36362587Y-23299587D03*
X32866503Y-21828442D03*
X22762761Y-31394758D03*
X30698210Y-40603918D03*
%TO.N,Board_0-+BATT*%
X35022559Y-41004258D03*
X27527096Y-38772508D03*
%TO.N,Board_0-/NFC_RFID/A1*%
X26971773Y-11612510D03*
%TO.N,Board_0-/NFC_RFID/A2*%
X28975362Y-13602172D03*
%TO.N,Board_0-/NRST*%
X38492945Y-35314107D03*
X48078174Y-32444339D03*
X34845726Y-29622201D03*
%TO.N,Board_0-/SWCLK*%
X47269964Y-38282934D03*
X38226831Y-28857384D03*
%TO.N,Board_0-/SWDIO*%
X37607399Y-26789683D03*
X47552003Y-34510271D03*
%TO.N,Board_0-BATT_STM*%
X41542880Y-38305411D03*
X40075686Y-35513934D03*
X33886406Y-25435352D03*
%TO.N,Board_0-Button_LB*%
X32126803Y-30890056D03*
X27894275Y-43345806D03*
%TO.N,Board_0-Button_LT*%
X23371033Y-17318892D03*
X33818740Y-29549404D03*
%TO.N,Board_0-Button_R*%
X48203629Y-27034456D03*
X36942936Y-26547838D03*
%TO.N,Board_0-CHRG_STM*%
X34702395Y-28585660D03*
X32251148Y-39438421D03*
%TO.N,Board_0-DIN_STM*%
X47565553Y-39744997D03*
X44255208Y-38916374D03*
X38053168Y-29587003D03*
X44100209Y-42133278D03*
%TO.N,Board_0-DONE_STM*%
X35669116Y-28753647D03*
X28639595Y-35715964D03*
%TO.N,Board_0-GND*%
X20547313Y-25697233D03*
X37707554Y-14936836D03*
X38699612Y-31024901D03*
X48444986Y-28025287D03*
X34024068Y-40046083D03*
X30228240Y-15886724D03*
X22300202Y-32768999D03*
X25042711Y-21065910D03*
X46294764Y-26490183D03*
X35090987Y-17370677D03*
X26366492Y-20666611D03*
X24475948Y-19451768D03*
X42479961Y-15469871D03*
X47160274Y-21011051D03*
X33171378Y-32775225D03*
X47934916Y-36869485D03*
X22552428Y-27631015D03*
X28555309Y-14239397D03*
X44714706Y-17186236D03*
X50561863Y-29962123D03*
X26463968Y-38385542D03*
X35702438Y-13003054D03*
X28262167Y-24968520D03*
X49165389Y-22944833D03*
X42124897Y-41564821D03*
X23942300Y-36527108D03*
X45929800Y-34935703D03*
X34908268Y-42888741D03*
X40672727Y-39042183D03*
X27154324Y-32767410D03*
X28550597Y-40304833D03*
X42259010Y-37474954D03*
%TO.N,Board_0-Net-(D1-DIN)*%
X22439321Y-21946192D03*
X29277058Y-14840712D03*
%TO.N,Board_0-Net-(D1-DOUT)*%
X37327197Y-14121159D03*
X27571652Y-17098960D03*
%TO.N,Board_0-Net-(D10-DIN)*%
X23822604Y-32721118D03*
X25520579Y-41639065D03*
%TO.N,Board_0-Net-(D10-DOUT)*%
X21251109Y-35961475D03*
X22129810Y-26724707D03*
%TO.N,Board_0-Net-(D11-DOUT)*%
X20014766Y-28814346D03*
X24918170Y-20326319D03*
%TO.N,Board_0-Net-(D2-DOUT)*%
X34789423Y-15739693D03*
X44104720Y-16587976D03*
%TO.N,Board_0-Net-(D3-DOUT)*%
X43397019Y-19566089D03*
X48785033Y-22129156D03*
%TO.N,Board_0-Net-(D4-DOUT)*%
X46337758Y-24097872D03*
X50112006Y-29234023D03*
%TO.N,Board_0-Net-(D5-DOUT)*%
X47864070Y-31275293D03*
X47146979Y-35416344D03*
%TO.N,Board_0-Net-(D7-DIN)*%
X41834479Y-40669006D03*
X41852753Y-42519257D03*
%TO.N,Board_0-Net-(D7-DOUT)*%
X35451207Y-41603774D03*
X39856074Y-42733128D03*
%TO.N,Board_0-Net-(D8-DOUT)*%
X32708945Y-43969472D03*
X27994721Y-39437616D03*
%TO.N,Board_0-Net-(U3-RFO1)*%
X35845593Y-19225554D03*
X32039588Y-19345257D03*
%TO.N,Board_0-Net-(U3-RFO2)*%
X29955080Y-20317279D03*
X38026839Y-17987747D03*
%TO.N,Board_0-Net-(U3-VDD_DR)*%
X36661270Y-18845198D03*
X36894150Y-22795503D03*
%TO.N,Board_0-SPI_CS_STM*%
X31892812Y-28755164D03*
X43482852Y-22615523D03*
%TO.N,Board_0-SPI_IRQ_STM*%
X31635760Y-29459740D03*
X43668179Y-21922245D03*
%TO.N,Board_0-SPI_MISO_STM*%
X32354707Y-27328219D03*
X42692516Y-24583862D03*
%TO.N,Board_0-SPI_MOSI_STM*%
X32741475Y-26685637D03*
X42998901Y-23953823D03*
%TO.N,Board_0-SPI_SCL_STM*%
X32113161Y-28038260D03*
X43258117Y-23303584D03*
%TO.N,Board_1-+3.3V*%
X34028710Y-86788446D03*
X47809106Y-75287003D03*
X45304420Y-67076245D03*
X45230772Y-81233826D03*
X36291635Y-68001659D03*
X19789897Y-65126470D03*
X39641098Y-76227026D03*
X31742291Y-65676725D03*
%TO.N,Board_1-+5V*%
X32866503Y-63828442D03*
X36362587Y-65299587D03*
X35397571Y-64523931D03*
X30698210Y-82603918D03*
X46759505Y-82120864D03*
X22762761Y-73394758D03*
%TO.N,Board_1-+BATT*%
X27527096Y-80772508D03*
X35022559Y-83004258D03*
%TO.N,Board_1-/NFC_RFID/A1*%
X26971773Y-53612510D03*
%TO.N,Board_1-/NFC_RFID/A2*%
X28975362Y-55602172D03*
%TO.N,Board_1-/NRST*%
X48078174Y-74444339D03*
X38492945Y-77314107D03*
X34845726Y-71622201D03*
%TO.N,Board_1-/SWCLK*%
X47269964Y-80282934D03*
X38226831Y-70857384D03*
%TO.N,Board_1-/SWDIO*%
X47552003Y-76510271D03*
X37607399Y-68789683D03*
%TO.N,Board_1-BATT_STM*%
X40075686Y-77513934D03*
X33886406Y-67435352D03*
X41542880Y-80305411D03*
%TO.N,Board_1-Button_LB*%
X32126803Y-72890056D03*
X27894275Y-85345806D03*
%TO.N,Board_1-Button_LT*%
X23371033Y-59318892D03*
X33818740Y-71549404D03*
%TO.N,Board_1-Button_R*%
X36942936Y-68547838D03*
X48203629Y-69034456D03*
%TO.N,Board_1-CHRG_STM*%
X32251148Y-81438421D03*
X34702395Y-70585660D03*
%TO.N,Board_1-DIN_STM*%
X47565553Y-81744997D03*
X38053168Y-71587003D03*
X44255208Y-80916374D03*
X44100209Y-84133278D03*
%TO.N,Board_1-DONE_STM*%
X28639595Y-77715964D03*
X35669116Y-70753647D03*
%TO.N,Board_1-GND*%
X46294764Y-68490183D03*
X34908268Y-84888741D03*
X27154324Y-74767410D03*
X40672727Y-81042183D03*
X42259010Y-79474954D03*
X44714706Y-59186236D03*
X42479961Y-57469871D03*
X28555309Y-56239397D03*
X42124897Y-83564821D03*
X48444986Y-70025287D03*
X45929800Y-76935703D03*
X35090987Y-59370677D03*
X35702438Y-55003054D03*
X28550597Y-82304833D03*
X50561863Y-71962123D03*
X22552428Y-69631015D03*
X33171378Y-74775225D03*
X25042711Y-63065910D03*
X34024068Y-82046083D03*
X49165389Y-64944833D03*
X28262167Y-66968520D03*
X26463968Y-80385542D03*
X30228240Y-57886724D03*
X37707554Y-56936836D03*
X26366492Y-62666611D03*
X38699612Y-73024901D03*
X23942300Y-78527108D03*
X20547313Y-67697233D03*
X47160274Y-63011051D03*
X22300202Y-74768999D03*
X24475948Y-61451768D03*
X47934916Y-78869485D03*
%TO.N,Board_1-Net-(D1-DIN)*%
X22439321Y-63946192D03*
X29277058Y-56840712D03*
%TO.N,Board_1-Net-(D1-DOUT)*%
X27615415Y-59192812D03*
X37327197Y-56121159D03*
%TO.N,Board_1-Net-(D10-DIN)*%
X23822604Y-74721118D03*
X25520579Y-83639065D03*
%TO.N,Board_1-Net-(D10-DOUT)*%
X21251109Y-77961475D03*
X22129810Y-68724707D03*
%TO.N,Board_1-Net-(D11-DOUT)*%
X20014766Y-70814346D03*
X24918170Y-62326319D03*
%TO.N,Board_1-Net-(D2-DOUT)*%
X34789423Y-57739693D03*
X44104720Y-58587976D03*
%TO.N,Board_1-Net-(D3-DOUT)*%
X48785033Y-64129156D03*
X43397019Y-61566089D03*
%TO.N,Board_1-Net-(D4-DOUT)*%
X50112006Y-71234023D03*
X46337758Y-66097872D03*
%TO.N,Board_1-Net-(D5-DOUT)*%
X47146979Y-77416344D03*
X47864070Y-73275293D03*
%TO.N,Board_1-Net-(D7-DIN)*%
X41834479Y-82669006D03*
X41852753Y-84519257D03*
%TO.N,Board_1-Net-(D7-DOUT)*%
X39856074Y-84733128D03*
X35451207Y-83603774D03*
%TO.N,Board_1-Net-(D8-DOUT)*%
X27994721Y-81437616D03*
X32708945Y-85969472D03*
%TO.N,Board_1-Net-(U3-RFO1)*%
X35845593Y-61225554D03*
X32039588Y-61345257D03*
%TO.N,Board_1-Net-(U3-RFO2)*%
X38026839Y-59987747D03*
X29955080Y-62317279D03*
%TO.N,Board_1-Net-(U3-VDD_DR)*%
X36661270Y-60845198D03*
X36894150Y-64795503D03*
%TO.N,Board_1-SPI_CS_STM*%
X31892812Y-70755164D03*
X43482852Y-64615523D03*
%TO.N,Board_1-SPI_IRQ_STM*%
X43668179Y-63922245D03*
X31635760Y-71459740D03*
%TO.N,Board_1-SPI_MISO_STM*%
X32354707Y-69328219D03*
X42692516Y-66583862D03*
%TO.N,Board_1-SPI_MOSI_STM*%
X42998901Y-65953823D03*
X32741475Y-68685637D03*
%TO.N,Board_1-SPI_SCL_STM*%
X32113161Y-70038260D03*
X43258117Y-65303584D03*
%TD*%
D11*
%TO.N,Board_0-+3.3V*%
X42450652Y-32916909D02*
X45304420Y-25076245D01*
D12*
X34028710Y-44788446D02*
X31581679Y-45929515D01*
D11*
X39641098Y-34227026D02*
X44399211Y-32008281D01*
D12*
X17123986Y-29003792D02*
X19155482Y-23422303D01*
X19155482Y-23422303D02*
X19789897Y-23126470D01*
D11*
X39641098Y-34227026D02*
X43893661Y-35774832D01*
X45351694Y-38901594D02*
X45230772Y-39233826D01*
X43893661Y-35774832D02*
X45351694Y-38901594D01*
X44399211Y-32008281D02*
X47787977Y-33241691D01*
X39641098Y-34227026D02*
X42450652Y-32916909D01*
X47787977Y-33241691D02*
X47809106Y-33287003D01*
D12*
X23674569Y-43051563D02*
X17123986Y-29003792D01*
X31581679Y-45929515D02*
X23674569Y-43051563D01*
%TO.N,Board_0-+5V*%
X42462259Y-44772809D02*
X45598650Y-43310286D01*
X26782468Y-40961527D02*
X28816736Y-41701940D01*
X22762761Y-31394758D02*
X22569285Y-31926328D01*
X30698210Y-40603918D02*
X30834157Y-40540526D01*
X30601472Y-40869704D02*
X30698210Y-40603918D01*
X45598650Y-43310286D02*
X46759505Y-40120864D01*
X28816736Y-41701940D02*
X30601472Y-40869704D01*
X22569285Y-31926328D02*
X26782468Y-40961527D01*
X30834157Y-40540526D02*
X42462259Y-44772809D01*
%TO.N,Board_0-+BATT*%
X27764137Y-38661975D02*
X34661757Y-41172503D01*
X34661757Y-41172503D02*
X35022559Y-41004258D01*
X27527096Y-38772508D02*
X27764137Y-38661975D01*
D11*
%TO.N,Board_0-/NRST*%
X43735120Y-40758793D02*
X47858820Y-38835880D01*
X47858820Y-38835880D02*
X49261512Y-34982016D01*
X49261512Y-34982016D02*
X48078174Y-32444339D01*
X38396207Y-35579892D02*
X40213466Y-39477016D01*
X38492945Y-35314107D02*
X38396207Y-35579892D01*
X40213466Y-39477016D02*
X43735120Y-40758793D01*
%TO.N,Board_0-Button_LT*%
X23371033Y-17318892D02*
X22959897Y-18448479D01*
X27729253Y-28676395D02*
X32200748Y-30303886D01*
X32200748Y-30303886D02*
X33818740Y-29549404D01*
X22959897Y-18448479D02*
X27729253Y-28676395D01*
D12*
%TO.N,Board_0-GND*%
X35430546Y-13129840D02*
X35702438Y-13003054D01*
X46294764Y-26490183D02*
X47794201Y-22370512D01*
X34717218Y-15089693D02*
X35430546Y-13129840D01*
X26366492Y-20666611D02*
X25305263Y-21161471D01*
X28147471Y-14429576D02*
X28555309Y-14239397D01*
X47794201Y-22370512D02*
X47160274Y-21011051D01*
X26366492Y-20666611D02*
X26366492Y-16210555D01*
X35090987Y-17370677D02*
X34633547Y-16389693D01*
X34633547Y-16389693D02*
X34520184Y-16389693D01*
X34139423Y-16008932D02*
X34139423Y-15470454D01*
X29782617Y-31541817D02*
X27154324Y-32767410D01*
X26366492Y-16210555D02*
X28147471Y-14429576D01*
X34520184Y-15089693D02*
X34717218Y-15089693D01*
X34139423Y-15470454D02*
X34520184Y-15089693D01*
X34520184Y-16389693D02*
X34139423Y-16008932D01*
X33171378Y-32775225D02*
X29782617Y-31541817D01*
X25305263Y-21161471D02*
X25042711Y-21065910D01*
D11*
%TO.N,Board_0-SPI_CS_STM*%
X44609910Y-24296723D02*
X44126220Y-25625649D01*
X38352685Y-28317893D02*
X37954007Y-28172786D01*
X34677167Y-27604384D02*
X32070567Y-28819861D01*
X44126220Y-25625649D02*
X38352685Y-28317893D01*
X32070567Y-28819861D02*
X31892812Y-28755164D01*
X43482852Y-22615523D02*
X43896088Y-22765928D01*
X37202126Y-28523394D02*
X34677167Y-27604384D01*
X43896088Y-22765928D02*
X44609910Y-24296723D01*
X37954007Y-28172786D02*
X37202126Y-28523394D01*
%TO.N,Board_0-SPI_IRQ_STM*%
X37233394Y-24922835D02*
X34509096Y-23931272D01*
X31423874Y-29382620D02*
X31635760Y-29459740D01*
X31790172Y-25199126D02*
X30774424Y-27989871D01*
X30774424Y-27989871D02*
X31423874Y-29382620D01*
X34509096Y-23931272D02*
X31790172Y-25199126D01*
X43668179Y-21922245D02*
X37233394Y-24922835D01*
%TO.N,Board_0-SPI_MISO_STM*%
X32006729Y-27201565D02*
X32354707Y-27328219D01*
X31729345Y-26606713D02*
X32006729Y-27201565D01*
X42692516Y-24583862D02*
X42626188Y-24559721D01*
X42626188Y-24559721D02*
X39190384Y-26161862D01*
X34406251Y-24420580D02*
X32140481Y-25477126D01*
X32140481Y-25477126D02*
X31729345Y-26606713D01*
X39190384Y-26161862D02*
X34406251Y-24420580D01*
%TO.N,Board_0-SPI_MOSI_STM*%
X42998901Y-23953823D02*
X43284337Y-24565942D01*
X38314124Y-27122158D02*
X37254986Y-27616043D01*
X33599474Y-26285545D02*
X32741475Y-26685637D01*
X38447017Y-27170527D02*
X38314124Y-27122158D01*
X43131386Y-24986170D02*
X38447017Y-27170527D01*
X37254986Y-27616043D02*
X33599474Y-26285545D01*
X43284337Y-24565942D02*
X43131386Y-24986170D01*
%TO.N,Board_0-SPI_SCL_STM*%
X43917687Y-23995347D02*
X43402226Y-25411564D01*
X38200907Y-27836979D02*
X37935122Y-27740241D01*
X37183241Y-28090849D02*
X34658281Y-27171839D01*
X37935122Y-27740241D02*
X37183241Y-28090849D01*
X43664000Y-23451314D02*
X43917687Y-23995347D01*
X34658281Y-27171839D02*
X32499041Y-28178709D01*
X32499041Y-28178709D02*
X32113161Y-28038260D01*
X43402226Y-25411564D02*
X38200907Y-27836979D01*
X43258117Y-23303584D02*
X43664000Y-23451314D01*
%TO.N,Board_1-+3.3V*%
X39641098Y-76227026D02*
X43893661Y-77774832D01*
X43893661Y-77774832D02*
X45351694Y-80901594D01*
X42450652Y-74916909D02*
X45304420Y-67076245D01*
D12*
X19155482Y-65422303D02*
X19789897Y-65126470D01*
X17123986Y-71003792D02*
X19155482Y-65422303D01*
D11*
X45351694Y-80901594D02*
X45230772Y-81233826D01*
D12*
X31581679Y-87929515D02*
X23674569Y-85051563D01*
D11*
X47787977Y-75241691D02*
X47809106Y-75287003D01*
X39641098Y-76227026D02*
X42450652Y-74916909D01*
X39641098Y-76227026D02*
X44399211Y-74008281D01*
D12*
X34028710Y-86788446D02*
X31581679Y-87929515D01*
X23674569Y-85051563D02*
X17123986Y-71003792D01*
D11*
X44399211Y-74008281D02*
X47787977Y-75241691D01*
D12*
%TO.N,Board_1-+5V*%
X30834157Y-82540526D02*
X42462259Y-86772809D01*
X30698210Y-82603918D02*
X30834157Y-82540526D01*
X45598650Y-85310286D02*
X46759505Y-82120864D01*
X22569285Y-73926328D02*
X26782468Y-82961527D01*
X28816736Y-83701940D02*
X30601472Y-82869704D01*
X42462259Y-86772809D02*
X45598650Y-85310286D01*
X22762761Y-73394758D02*
X22569285Y-73926328D01*
X30601472Y-82869704D02*
X30698210Y-82603918D01*
X26782468Y-82961527D02*
X28816736Y-83701940D01*
%TO.N,Board_1-+BATT*%
X27527096Y-80772508D02*
X27764137Y-80661975D01*
X34661757Y-83172503D02*
X35022559Y-83004258D01*
X27764137Y-80661975D02*
X34661757Y-83172503D01*
D11*
%TO.N,Board_1-/NRST*%
X38396207Y-77579892D02*
X40213466Y-81477016D01*
X40213466Y-81477016D02*
X43735120Y-82758793D01*
X49261512Y-76982016D02*
X48078174Y-74444339D01*
X43735120Y-82758793D02*
X47858820Y-80835880D01*
X47858820Y-80835880D02*
X49261512Y-76982016D01*
X38492945Y-77314107D02*
X38396207Y-77579892D01*
%TO.N,Board_1-Button_LT*%
X27729253Y-70676395D02*
X32200748Y-72303886D01*
X23371033Y-59318892D02*
X22959897Y-60448479D01*
X22959897Y-60448479D02*
X27729253Y-70676395D01*
X32200748Y-72303886D02*
X33818740Y-71549404D01*
D12*
%TO.N,Board_1-GND*%
X26366492Y-62666611D02*
X26366492Y-58210555D01*
X35090987Y-59370677D02*
X34633547Y-58389693D01*
X34139423Y-58008932D02*
X34139423Y-57470454D01*
X34633547Y-58389693D02*
X34520184Y-58389693D01*
X34520184Y-58389693D02*
X34139423Y-58008932D01*
X26366492Y-58210555D02*
X28147471Y-56429576D01*
X34520184Y-57089693D02*
X34717218Y-57089693D01*
X46294764Y-68490183D02*
X47794201Y-64370512D01*
X29782617Y-73541817D02*
X27154324Y-74767410D01*
X34717218Y-57089693D02*
X35430546Y-55129840D01*
X26366492Y-62666611D02*
X25305263Y-63161471D01*
X35430546Y-55129840D02*
X35702438Y-55003054D01*
X28147471Y-56429576D02*
X28555309Y-56239397D01*
X25305263Y-63161471D02*
X25042711Y-63065910D01*
X34139423Y-57470454D02*
X34520184Y-57089693D01*
X33171378Y-74775225D02*
X29782617Y-73541817D01*
X47794201Y-64370512D02*
X47160274Y-63011051D01*
D11*
%TO.N,Board_1-SPI_CS_STM*%
X34677167Y-69604384D02*
X32070567Y-70819861D01*
X37954007Y-70172786D02*
X37202126Y-70523394D01*
X37202126Y-70523394D02*
X34677167Y-69604384D01*
X32070567Y-70819861D02*
X31892812Y-70755164D01*
X44609910Y-66296723D02*
X44126220Y-67625649D01*
X43482852Y-64615523D02*
X43896088Y-64765928D01*
X38352685Y-70317893D02*
X37954007Y-70172786D01*
X44126220Y-67625649D02*
X38352685Y-70317893D01*
X43896088Y-64765928D02*
X44609910Y-66296723D01*
%TO.N,Board_1-SPI_IRQ_STM*%
X31423874Y-71382620D02*
X31635760Y-71459740D01*
X37233394Y-66922835D02*
X34509096Y-65931272D01*
X30774424Y-69989871D02*
X31423874Y-71382620D01*
X43668179Y-63922245D02*
X37233394Y-66922835D01*
X31790172Y-67199126D02*
X30774424Y-69989871D01*
X34509096Y-65931272D02*
X31790172Y-67199126D01*
%TO.N,Board_1-SPI_MISO_STM*%
X42626188Y-66559721D02*
X39190384Y-68161862D01*
X31729345Y-68606713D02*
X32006729Y-69201565D01*
X32140481Y-67477126D02*
X31729345Y-68606713D01*
X34406251Y-66420580D02*
X32140481Y-67477126D01*
X32006729Y-69201565D02*
X32354707Y-69328219D01*
X42692516Y-66583862D02*
X42626188Y-66559721D01*
X39190384Y-68161862D02*
X34406251Y-66420580D01*
%TO.N,Board_1-SPI_MOSI_STM*%
X38314124Y-69122158D02*
X37254986Y-69616043D01*
X43284337Y-66565942D02*
X43131386Y-66986170D01*
X33599474Y-68285545D02*
X32741475Y-68685637D01*
X38447017Y-69170527D02*
X38314124Y-69122158D01*
X43131386Y-66986170D02*
X38447017Y-69170527D01*
X37254986Y-69616043D02*
X33599474Y-68285545D01*
X42998901Y-65953823D02*
X43284337Y-66565942D01*
%TO.N,Board_1-SPI_SCL_STM*%
X37183241Y-70090849D02*
X34658281Y-69171839D01*
X32499041Y-70178709D02*
X32113161Y-70038260D01*
X34658281Y-69171839D02*
X32499041Y-70178709D01*
X38200907Y-69836979D02*
X37935122Y-69740241D01*
X43258117Y-65303584D02*
X43664000Y-65451314D01*
X43917687Y-65995347D02*
X43402226Y-67411564D01*
X43664000Y-65451314D02*
X43917687Y-65995347D01*
X37935122Y-69740241D02*
X37183241Y-70090849D01*
X43402226Y-67411564D02*
X38200907Y-69836979D01*
%TD*%
M02*
