M48
; DRILL file {KiCad 7.0.10-7.0.10~ubuntu22.04.1} date St 10. dubna 2024, 21:14:15
; FORMAT={-:-/ absolute / metric / decimal}
; #@! TF.CreationDate,2024-04-10T21:14:15+02:00
; #@! TF.GenerationSoftware,Kicad,Pcbnew,7.0.10-7.0.10~ubuntu22.04.1
; #@! TF.FileFunction,Plated,1,2,Blind
FMAT,2
METRIC
; #@! TA.AperFunction,Plated,Buried,ViaDrill
T1C0.300
%
G90
G05
T1
X133.1Y-105.5
X134.9Y-102.9
X135.0Y-98.5
X135.0Y-112.5
X135.9Y-104.6
X135.9Y-105.5
X137.8Y-97.5
X137.8Y-98.5
X137.8Y-111.6
X137.8Y-112.5
X140.1Y-93.3
X140.1Y-117.6
X141.9Y-115.0
X142.9Y-92.4
X142.9Y-93.3
X142.9Y-116.7
X142.9Y-117.6
X147.1Y-119.5
X147.15Y-91.5
X148.9Y-116.9
X149.9Y-90.55
X149.9Y-91.45
X149.9Y-118.6
X149.9Y-119.5
X154.1Y-93.4
X156.9Y-92.5
X156.9Y-93.4
X156.9Y-116.7
X156.9Y-117.6
X159.2Y-98.5
X159.2Y-112.5
X161.1Y-105.5
X162.0Y-97.6
X162.0Y-98.5
X162.0Y-112.5
X162.1Y-111.6
X163.9Y-104.6
X163.9Y-105.5
M30
