%TF.GenerationSoftware,KiCad,Pcbnew,7.0.10-7.0.10~ubuntu22.04.1*%
%TF.CreationDate,2024-04-13T21:42:14+02:00*%
%TF.ProjectId,STM32_watch_NFC,53544d33-325f-4776-9174-63685f4e4643,rev?*%
%TF.SameCoordinates,PX6c3df60PY1312d00*%
%TF.FileFunction,Drillmap*%
%TF.FilePolarity,Positive*%
%FSLAX45Y45*%
G04 Gerber Fmt 4.5, Leading zero omitted, Abs format (unit mm)*
G04 Created by KiCad (PCBNEW 7.0.10-7.0.10~ubuntu22.04.1) date 2024-04-13 21:42:14*
%MOMM*%
%LPD*%
G01*
G04 APERTURE LIST*
%ADD10C,0.100000*%
%ADD11C,0.200000*%
G04 APERTURE END LIST*
D10*
X5260440Y-8048501D02*
X5304127Y-7962497D01*
X5663133Y-522852D02*
X5666850Y-526058D01*
X5676995Y-3086561D02*
X5680015Y-3090430D01*
X5682841Y-2705557D02*
X5680015Y-2709570D01*
X3345694Y-571124D02*
X3347003Y-575855D01*
X3706336Y-9094520D02*
X3710762Y-9092503D01*
X3296388Y-4896197D02*
X3300712Y-4898599D01*
X4905993Y-4322042D02*
X4972926Y-4252578D01*
X1870849Y-1739507D02*
X1869415Y-1741522D01*
X3338192Y-9446987D02*
X3335773Y-9451257D01*
X5487877Y-6876999D02*
X5486650Y-6872163D01*
X5659264Y-7269679D02*
X5663133Y-7272699D01*
X3650473Y-9174769D02*
X3651063Y-9169941D01*
X1717146Y-3806865D02*
X1762948Y-3891762D01*
X3655743Y-848916D02*
X3654230Y-844293D01*
X1673470Y-3715344D02*
X1674480Y-3717601D01*
X3672311Y-5078480D02*
X3669341Y-5074628D01*
X5527798Y-7267399D02*
X5531988Y-7264690D01*
X4758636Y-8654009D02*
X4832104Y-8591497D01*
X5559471Y-2746904D02*
X5554668Y-2745551D01*
X5676995Y-7286561D02*
X5680015Y-7290430D01*
X1302227Y-3130491D02*
X1303303Y-3125702D01*
X3264673Y-9498765D02*
X3259802Y-9499365D01*
X5693848Y-566464D02*
X5695388Y-571124D01*
X5512539Y-7280215D02*
X5516109Y-7276729D01*
X1300306Y-3150000D02*
X1300426Y-3145093D01*
X3259802Y-9499365D02*
X3254907Y-9499727D01*
X1485486Y-3079260D02*
X1488870Y-3082812D01*
X5305192Y-2039735D02*
X5304127Y-2037503D01*
X1485486Y-2720740D02*
X1481932Y-2724121D01*
X4059806Y-5180064D02*
X3966577Y-5155289D01*
X1515155Y-3147962D02*
X1529420Y-3243366D01*
X3657612Y-9438115D02*
X3655845Y-9433536D01*
X1309907Y-6892755D02*
X1307918Y-6888268D01*
X3268446Y-4886503D02*
X3273284Y-4887535D01*
X5693848Y-3116311D02*
X5695388Y-3120971D01*
X2281535Y-1313820D02*
X2279575Y-1315327D01*
X1928701Y-1662316D02*
X1870849Y-1739507D01*
X1573642Y-3438705D02*
X1601858Y-3530950D01*
X3320272Y-5086360D02*
X3316667Y-5089748D01*
X4246730Y-1044786D02*
X4156405Y-1010923D01*
X1400306Y-500153D02*
X3250000Y-500153D01*
X1424601Y-7250481D02*
X1429470Y-7251081D01*
X5495142Y-7304445D02*
X5497525Y-7300061D01*
X3669679Y-9459417D02*
X3666853Y-9455404D01*
X5100819Y-1701552D02*
X5099336Y-1699573D01*
X1317159Y-6905557D02*
X1314533Y-6901410D01*
X3287410Y-5107952D02*
X3282778Y-5109689D01*
X2444187Y-1201241D02*
X2442087Y-1202547D01*
X3340250Y-4941717D02*
X3342269Y-4946233D01*
X4339808Y-5285038D02*
X4337563Y-5284000D01*
X1492076Y-2713475D02*
X1488870Y-2717188D01*
X4832104Y-8591497D02*
X4833947Y-8589848D01*
X2130801Y-4358084D02*
X2202700Y-4422394D01*
X2527326Y-5352321D02*
X2444187Y-5401241D01*
X1362037Y-7257612D02*
X1366617Y-7255845D01*
X1301388Y-7335327D02*
X1302227Y-7330491D01*
X1340736Y-2730321D02*
X1336867Y-2727301D01*
X1716026Y-1995340D02*
X1674480Y-2082398D01*
X3330321Y-540583D02*
X3333147Y-544596D01*
X2984852Y-9032567D02*
X2987242Y-9033203D01*
X1319985Y-6909570D02*
X1317159Y-6905557D01*
X5569249Y-3051118D02*
X5574200Y-3050497D01*
X2984852Y-967432D02*
X2892265Y-994505D01*
X1312114Y-6897140D02*
X1309907Y-6892755D01*
X5545295Y-6942137D02*
X5540748Y-6940084D01*
X3326956Y-4920930D02*
X3330020Y-4924814D01*
X5692082Y-7311731D02*
X5693848Y-7316311D01*
X5604601Y-500273D02*
X5609496Y-500634D01*
X3678795Y-4914271D02*
X3682294Y-4910891D01*
X5158128Y-5982200D02*
X5156745Y-5980151D01*
X3672699Y-536714D02*
X3675905Y-532997D01*
X1362037Y-507765D02*
X1366617Y-505998D01*
X5540748Y-3059916D02*
X5545295Y-3057863D01*
X3268446Y-5113497D02*
X3263563Y-5114289D01*
X3666562Y-870635D02*
X3663980Y-866512D01*
X3291950Y-9094011D02*
X3296388Y-9096197D01*
X4154068Y-8989887D02*
X4156405Y-8989077D01*
X3725702Y-9496850D02*
X3720971Y-9495541D01*
X3178282Y-9073974D02*
X3180723Y-9074370D01*
X1390504Y-7250481D02*
X1395399Y-7250120D01*
X3719883Y-9089127D02*
X3724556Y-9087775D01*
X3666562Y-9129365D02*
X3669341Y-9125372D01*
X5438481Y-2409100D02*
X5412556Y-2316185D01*
X3689763Y-5095338D02*
X3685953Y-5092315D01*
X5438481Y-7590900D02*
X5439087Y-7588502D01*
X5673789Y-9467003D02*
X5670405Y-9470558D01*
X5659264Y-6930321D02*
X5655251Y-6933147D01*
X3659601Y-557397D02*
X3661808Y-553013D01*
X1508937Y-3116250D02*
X1510479Y-3120907D01*
X1514850Y-7345508D02*
X1515155Y-7347962D01*
X1474348Y-7269659D02*
X1478216Y-7272676D01*
X3178282Y-5126026D02*
X3083473Y-5143820D01*
X5099336Y-1699573D02*
X5039593Y-1623837D01*
X3669341Y-874628D02*
X3666562Y-870635D01*
X5484927Y-6862337D02*
X5477858Y-6805473D01*
X3650473Y-4974769D02*
X3651063Y-4969941D01*
X1300306Y-6850000D02*
X1300306Y-3150000D01*
X5642449Y-3059601D02*
X5646834Y-3061808D01*
X1385633Y-6948918D02*
X1380797Y-6948078D01*
X1414805Y-3050000D02*
X1419709Y-3050120D01*
X1357550Y-3059601D02*
X1362037Y-3057612D01*
X3332888Y-5071156D02*
X3330020Y-5075186D01*
X3264673Y-501235D02*
X3269509Y-502074D01*
X3740198Y-9499365D02*
X3735327Y-9498765D01*
X1326211Y-9467003D02*
X1323005Y-9463286D01*
X3335553Y-5066988D02*
X3332888Y-5071156D01*
X3083473Y-9056180D02*
X3178282Y-9073974D01*
X3345626Y-844464D02*
X3344063Y-849157D01*
X3666562Y-4929365D02*
X3669341Y-4925372D01*
X3344063Y-849157D02*
X3342269Y-853767D01*
X3964172Y-9045286D02*
X3966577Y-9044711D01*
X3650481Y-590351D02*
X3651082Y-585480D01*
X3651082Y-585480D02*
X3651921Y-580644D01*
X4156405Y-8989077D02*
X4246730Y-8955213D01*
X5696697Y-575855D02*
X5697772Y-580644D01*
X3327301Y-536714D02*
X3330321Y-540583D01*
X3650000Y-815516D02*
X3650000Y-600153D01*
X1303303Y-9424145D02*
X1302227Y-9419356D01*
X1434303Y-6948080D02*
X1429470Y-6948919D01*
X4598963Y-4570774D02*
X4678247Y-4515826D01*
X1869415Y-5941522D02*
X1815451Y-6021479D01*
X5663133Y-3072699D02*
X5666850Y-3075905D01*
X5500124Y-3095802D02*
X5502932Y-3091678D01*
X4428536Y-1128805D02*
X4426345Y-1127658D01*
X1500550Y-6901457D02*
X1497923Y-6905600D01*
X3678795Y-885729D02*
X3675465Y-882184D01*
X1357550Y-7259601D02*
X1362037Y-7257612D01*
X1514850Y-3145508D02*
X1515155Y-3147962D01*
X5156745Y-1780151D02*
X5100819Y-1701552D01*
X4680244Y-1285633D02*
X4678247Y-1284174D01*
X1635383Y-3624033D02*
X1636280Y-3626337D01*
X4062179Y-980758D02*
X4059806Y-980064D01*
X3335773Y-548743D02*
X3338192Y-553013D01*
X5492981Y-7308942D02*
X5495142Y-7304445D01*
X3308978Y-4904031D02*
X3312900Y-4907046D01*
X5304127Y-3762497D02*
X5305192Y-3760265D01*
X3350000Y-5015213D02*
X3349877Y-5020159D01*
X1510479Y-3120907D02*
X1511791Y-3125634D01*
X4756713Y-1344435D02*
X4680244Y-1285633D01*
X3661808Y-9446987D02*
X3659601Y-9442603D01*
X4904233Y-4323779D02*
X4905993Y-4322042D01*
X1366617Y-505998D02*
X1371277Y-504459D01*
X1353166Y-6938192D02*
X1348896Y-6935773D01*
X1930233Y-4139625D02*
X1991831Y-4213861D01*
X3317156Y-9473942D02*
X3313439Y-9477148D01*
X1366617Y-2744154D02*
X1362037Y-2742388D01*
X1300787Y-3140198D02*
X1301388Y-3135327D01*
X5666850Y-3075905D02*
X5670405Y-3079289D01*
X5637962Y-6942388D02*
X5633383Y-6944154D01*
X5614367Y-2748918D02*
X5609496Y-2749518D01*
X5519848Y-7273426D02*
X5523748Y-7270313D01*
X3964172Y-954714D02*
X3869833Y-934580D01*
X3682844Y-9473942D02*
X3679289Y-9470558D01*
X3724556Y-4887775D02*
X3729289Y-4886652D01*
X5210098Y-6063468D02*
X5158128Y-5982200D01*
X1636280Y-7826337D02*
X1673470Y-7915344D01*
X1309907Y-557397D02*
X1312114Y-553013D01*
X1991831Y-8413861D02*
X1993457Y-8415724D01*
X3279028Y-504459D02*
X3283689Y-505998D01*
X3180723Y-5125630D02*
X3178282Y-5126026D01*
X3344154Y-566464D02*
X3345694Y-571124D01*
X5489344Y-2681769D02*
X5487877Y-2676999D01*
X3250000Y-500153D02*
X3254907Y-500273D01*
X3291950Y-905989D02*
X3287410Y-907952D01*
X1300787Y-9409649D02*
X1300426Y-9404754D01*
X3345626Y-5044464D02*
X3344063Y-5049157D01*
X3346956Y-5039699D02*
X3345626Y-5044464D01*
X3769732Y-9081655D02*
X3772183Y-9081320D01*
X1529420Y-3243366D02*
X1529846Y-3245802D01*
X3348078Y-9419356D02*
X3347003Y-9424145D01*
X1869415Y-4058478D02*
X1870849Y-4060493D01*
X3697803Y-9099188D02*
X3702012Y-9096750D01*
X5502932Y-3091678D02*
X5505942Y-3087699D01*
X1312114Y-2697140D02*
X1309907Y-2692756D01*
X3682294Y-889109D02*
X3678795Y-885729D01*
X4680244Y-4514367D02*
X4756713Y-4455565D01*
X5673789Y-532997D02*
X5676995Y-536714D01*
X5038013Y-4178066D02*
X5039593Y-4176163D01*
X5666850Y-2724095D02*
X5663133Y-2727301D01*
X1514315Y-3140121D02*
X1514850Y-3145508D01*
X3966577Y-5155289D02*
X3964172Y-5154714D01*
X3719883Y-910873D02*
X3715282Y-909296D01*
X1762948Y-8091762D02*
X1764175Y-8093909D01*
X1300306Y-600153D02*
X1300426Y-595246D01*
X3282778Y-9090311D02*
X3287410Y-9092048D01*
X2060368Y-8488603D02*
X2128999Y-8556391D01*
X5345526Y-6330076D02*
X5344573Y-6327794D01*
X3651063Y-4969941D02*
X3651887Y-4965147D01*
X3304913Y-898787D02*
X3300712Y-901401D01*
X1300426Y-6854907D02*
X1300306Y-6850000D01*
X3650473Y-5025231D02*
X3650118Y-5020379D01*
X5663133Y-6927301D02*
X5659264Y-6930321D01*
X3312900Y-5092954D02*
X3308978Y-5095969D01*
X4680244Y-5485633D02*
X4678247Y-5484174D01*
X5540748Y-2740084D02*
X5536308Y-2737806D01*
X5687886Y-553013D02*
X5690093Y-557397D01*
X2058652Y-5713177D02*
X1993457Y-5784276D01*
X3345626Y-9155536D02*
X3346956Y-9160301D01*
X5380504Y-2219975D02*
X5345526Y-2130076D01*
X5697772Y-580644D02*
X5698612Y-585480D01*
X3320272Y-9113640D02*
X3323704Y-9117202D01*
X5489344Y-6881768D02*
X5487877Y-6876999D01*
X1448477Y-7255839D02*
X1453054Y-7257604D01*
X3663980Y-866512D02*
X3661602Y-862269D01*
X3338009Y-9137306D02*
X3340250Y-9141717D01*
X4756713Y-5544435D02*
X4680244Y-5485633D01*
X3178282Y-926026D02*
X3083473Y-943820D01*
X4596896Y-4572132D02*
X4598963Y-4570774D01*
X3675465Y-5082184D02*
X3672311Y-5078480D01*
X3273284Y-4887535D02*
X3278065Y-4888806D01*
X5536308Y-3062194D02*
X5540748Y-3059916D01*
X1453054Y-2742396D02*
X1448477Y-2744160D01*
X2704729Y-4735187D02*
X2706999Y-4736168D01*
X4249023Y-1045712D02*
X4246730Y-1044786D01*
X1513711Y-7335253D02*
X1514315Y-7340121D01*
X1329595Y-7279289D02*
X1333150Y-7275905D01*
X1400306Y-3050000D02*
X1414805Y-3050000D01*
X2984852Y-5167433D02*
X2892265Y-5194505D01*
X5516109Y-7276729D02*
X5519848Y-7273426D01*
X4156405Y-5210923D02*
X4154068Y-5210113D01*
X3278065Y-9088806D02*
X3282778Y-9090311D01*
X3672699Y-9463286D02*
X3669679Y-9459417D01*
X1497923Y-6905600D02*
X1495096Y-6909609D01*
X3348900Y-4969999D02*
X3349511Y-4974908D01*
X5609496Y-6949518D02*
X5604601Y-6949879D01*
X5646834Y-9488039D02*
X5642449Y-9490246D01*
X2128999Y-5643609D02*
X2060368Y-5711397D01*
X3663980Y-5066513D02*
X3661602Y-5062269D01*
X5696697Y-6874298D02*
X5695388Y-6879028D01*
X4426345Y-1127658D02*
X4339808Y-1085038D01*
X4598963Y-5429226D02*
X4596896Y-5427868D01*
X3297140Y-511961D02*
X3301410Y-514380D01*
X1993457Y-1584276D02*
X1991831Y-1586139D01*
X1457539Y-6940409D02*
X1453054Y-6942396D01*
X5699573Y-2654907D02*
X5699212Y-2659802D01*
X3651921Y-580644D02*
X3652997Y-575855D01*
X1227Y0D02*
X29Y-29D01*
X3263563Y-4885711D02*
X3268446Y-4886503D01*
X1340736Y-3069679D02*
X1344749Y-3066853D01*
X1227Y-10000000D02*
X6998773Y-10000000D01*
X1326211Y-532997D02*
X1329595Y-529442D01*
X5599694Y-6950000D02*
X5584163Y-6950000D01*
X1400306Y-9499847D02*
X1395399Y-9499727D01*
X3678795Y-9114271D02*
X3682294Y-9110891D01*
X1344749Y-2733147D02*
X1340736Y-2730321D01*
X3350000Y-4984787D02*
X3350000Y-5015213D01*
X3651887Y-834853D02*
X3651063Y-830059D01*
X2128999Y-1443609D02*
X2060368Y-1511397D01*
X3279028Y-9495541D02*
X3274298Y-9496850D01*
X3348048Y-834874D02*
X3346956Y-839699D01*
X3734071Y-4885761D02*
X3738891Y-4885103D01*
X5536308Y-7262194D02*
X5540748Y-7259916D01*
X5699212Y-3140198D02*
X5699573Y-3145093D01*
X5637962Y-9492235D02*
X5633383Y-9494001D01*
X1814119Y-6023563D02*
X1764175Y-6106091D01*
X3263563Y-914289D02*
X3180723Y-925630D01*
X5604601Y-7250120D02*
X5609496Y-7250481D01*
X5492981Y-2691058D02*
X5491046Y-2686459D01*
X1470336Y-7266836D02*
X1474348Y-7269659D01*
X1635383Y-6375967D02*
X1602640Y-6466704D01*
X3964172Y-4845286D02*
X3966577Y-4844711D01*
X5486650Y-3127837D02*
X5487877Y-3123001D01*
X1319985Y-3090430D02*
X1323005Y-3086561D01*
X1362037Y-2742388D02*
X1357550Y-2740399D01*
X3669679Y-540583D02*
X3672699Y-536714D01*
X3349877Y-4979841D02*
X3350000Y-4984787D01*
X3313439Y-522852D02*
X3317156Y-526058D01*
X5549939Y-2743961D02*
X5545295Y-2742137D01*
X3655845Y-566464D02*
X3657612Y-561885D01*
X1478216Y-2727324D02*
X1474348Y-2730341D01*
X4678247Y-8715826D02*
X4680244Y-8714367D01*
X1601858Y-3530950D02*
X1602640Y-3533296D01*
X5477858Y-3194527D02*
X5484927Y-3137663D01*
X3769732Y-918344D02*
X3738891Y-914897D01*
X5628722Y-3054306D02*
X5633383Y-3055845D01*
X3313439Y-9477148D02*
X3309570Y-9480168D01*
X3305557Y-9482994D02*
X3301410Y-9485620D01*
X5491046Y-2686459D02*
X5489344Y-2681769D01*
X3292755Y-509754D02*
X3297140Y-511961D01*
X3323704Y-5082798D02*
X3320272Y-5086360D01*
X1300306Y-7350000D02*
X1300426Y-7345093D01*
X1529846Y-6754198D02*
X1529420Y-6756634D01*
X3180723Y-4874370D02*
X3263563Y-4885711D01*
X5381343Y-3577699D02*
X5411832Y-3486180D01*
X1457539Y-2740409D02*
X1453054Y-2742396D01*
X5651104Y-9485620D02*
X5646834Y-9488039D01*
X1636280Y-3626337D02*
X1673470Y-3715344D01*
X5604601Y-6949879D02*
X5599694Y-6950000D01*
X1333150Y-2724095D02*
X1329595Y-2720711D01*
X3707244Y-509754D02*
X3711731Y-507765D01*
X5487877Y-2676999D02*
X5486650Y-2672163D01*
X5210098Y-8136532D02*
X5211378Y-8134416D01*
X1323005Y-2713439D02*
X1319985Y-2709570D01*
X5666850Y-7275905D02*
X5670405Y-7279289D01*
X1635383Y-7824033D02*
X1636280Y-7826337D01*
X1762948Y-3891762D02*
X1764175Y-3893909D01*
X3729289Y-5113348D02*
X3724556Y-5112225D01*
X4426345Y-5327658D02*
X4339808Y-5285038D01*
X1673470Y-7915344D02*
X1674480Y-7917601D01*
X5505942Y-2712301D02*
X5502932Y-2708322D01*
X1514315Y-7340121D02*
X1514850Y-7345508D01*
X1312114Y-9446987D02*
X1309907Y-9442603D01*
X1764175Y-3893909D02*
X1814119Y-3976437D01*
X1513711Y-6864747D02*
X1512869Y-6869580D01*
X5411832Y-2313820D02*
X5381343Y-2222301D01*
X1353166Y-7261808D02*
X1357550Y-7259601D01*
X5697772Y-2669509D02*
X5696697Y-2674298D01*
X1303303Y-3125702D02*
X1304612Y-3120971D01*
X3715282Y-9090704D02*
X3719883Y-9089127D01*
X5491046Y-3113541D02*
X5492981Y-3108942D01*
X5584163Y-7250000D02*
X5599694Y-7250000D01*
X3716311Y-9494001D02*
X3711731Y-9492235D01*
X3333147Y-9455404D02*
X3330321Y-9459417D01*
X1717146Y-8006865D02*
X1762948Y-8091762D01*
X1400306Y-6950000D02*
X1395399Y-6949879D01*
X1301388Y-9414520D02*
X1300787Y-9409649D01*
X5685467Y-7298590D02*
X5687886Y-7302860D01*
X1300787Y-2659802D02*
X1300426Y-2654907D01*
X1385633Y-3051082D02*
X1390504Y-3050481D01*
X3316667Y-5089748D02*
X3312900Y-5092954D01*
X2892265Y-4805495D02*
X2984852Y-4832567D01*
X5545295Y-7257863D02*
X5549939Y-7256039D01*
X5344573Y-3672206D02*
X5345526Y-3669924D01*
X4512860Y-1175653D02*
X4428536Y-1128805D01*
X5599694Y-3050000D02*
X5604601Y-3050120D01*
X5619203Y-2748079D02*
X5614367Y-2748918D01*
X5628722Y-7254306D02*
X5633383Y-7255845D01*
X1300426Y-7345093D02*
X1300787Y-7340198D01*
X2706999Y-4736168D02*
X2796459Y-4772255D01*
X5619203Y-502074D02*
X5623992Y-503150D01*
X5699694Y-600153D02*
X5699694Y-2650000D01*
X1716026Y-8004660D02*
X1717146Y-8006865D01*
X1601858Y-7730950D02*
X1602640Y-7733296D01*
X1340736Y-6930321D02*
X1336867Y-6927301D01*
X3283689Y-9494001D02*
X3279028Y-9495541D01*
X3719883Y-5110873D02*
X3715282Y-5109296D01*
X3652944Y-9160398D02*
X3654230Y-9155707D01*
X5670405Y-2720711D02*
X5666850Y-2724095D01*
X3697803Y-900812D02*
X3693716Y-898173D01*
X3349877Y-9179841D02*
X3350000Y-9184787D01*
X1502970Y-7302810D02*
X1505178Y-7307191D01*
X3702012Y-5103250D02*
X3697803Y-5100812D01*
X3340399Y-9442603D02*
X3338192Y-9446987D01*
X3348078Y-580644D02*
X3348917Y-585480D01*
X2892265Y-994505D02*
X2889909Y-995258D01*
X5646834Y-2738192D02*
X5642449Y-2740399D01*
X1376008Y-9496850D02*
X1371277Y-9495541D01*
X3312900Y-892954D02*
X3308978Y-895969D01*
X3348048Y-9165126D02*
X3348900Y-9169999D01*
X1307918Y-9438115D02*
X1306151Y-9433536D01*
X3654230Y-4955707D02*
X3655743Y-4951084D01*
X3666853Y-9455404D02*
X3664227Y-9451257D01*
X2798775Y-4773123D02*
X2889909Y-4804742D01*
X1485486Y-6920740D02*
X1481932Y-6924121D01*
X1353166Y-2738192D02*
X1348896Y-2735773D01*
X4428536Y-4671195D02*
X4512860Y-4624347D01*
X1376008Y-2747003D02*
X1371277Y-2745694D01*
X1307918Y-2688268D02*
X1306151Y-2683689D01*
X4974598Y-4250755D02*
X5038013Y-4178066D01*
X3651921Y-9419356D02*
X3651082Y-9414520D01*
X1502970Y-3102810D02*
X1505178Y-3107191D01*
X5699694Y-7350000D02*
X5699694Y-9399847D01*
X5211378Y-3934416D02*
X5259265Y-3850678D01*
X1573642Y-6561295D02*
X1572977Y-6563677D01*
X5344573Y-7872206D02*
X5345526Y-7869924D01*
X3672311Y-9121520D02*
X3675465Y-9117816D01*
X1549358Y-6657205D02*
X1548812Y-6659617D01*
X3305557Y-517006D02*
X3309570Y-519832D01*
X2060368Y-5711397D02*
X2058652Y-5713177D01*
X3693716Y-5098173D02*
X3689763Y-5095338D01*
X3326956Y-879070D02*
X3323704Y-882798D01*
X1301388Y-6864673D02*
X1300787Y-6859802D01*
X3769732Y-5118345D02*
X3738891Y-5114897D01*
X3346956Y-4960301D02*
X3348048Y-4965126D01*
X1602640Y-2266704D02*
X1601858Y-2269050D01*
X5100819Y-5901552D02*
X5099336Y-5899573D01*
X5698612Y-3135327D02*
X5699212Y-3140198D01*
X2984852Y-4832567D02*
X2987242Y-4833203D01*
X5642449Y-6940399D02*
X5637962Y-6942388D01*
X5516109Y-3076729D02*
X5519848Y-3073426D01*
X2279575Y-5515327D02*
X2204583Y-5576003D01*
X5628722Y-504459D02*
X5633383Y-505998D01*
X1673470Y-6284656D02*
X1636280Y-6373662D01*
X4154068Y-4789887D02*
X4156405Y-4789077D01*
X5380504Y-6419975D02*
X5345526Y-6330076D01*
X2279575Y-4484673D02*
X2281535Y-4486180D01*
X3867402Y-5134124D02*
X3772183Y-5118680D01*
X2361468Y-8744482D02*
X2442087Y-8797453D01*
X1333150Y-7275905D02*
X1336867Y-7272699D01*
X5695388Y-2679029D02*
X5693848Y-2683689D01*
X5477492Y-2603027D02*
X5460872Y-2508006D01*
X1448477Y-6944160D02*
X1443818Y-6945698D01*
X1478216Y-3072676D02*
X1481932Y-3075879D01*
X1572977Y-7636323D02*
X1573642Y-7638705D01*
X5642449Y-7259601D02*
X5646834Y-7261808D01*
X1572977Y-3436323D02*
X1573642Y-3438705D01*
X5545295Y-2742137D02*
X5540748Y-2740084D01*
X5210098Y-3936532D02*
X5211378Y-3934416D01*
X1466190Y-6935787D02*
X1461921Y-6938204D01*
X1376008Y-3052997D02*
X1380797Y-3051921D01*
X1304612Y-9428876D02*
X1303303Y-9424145D01*
X1507169Y-2688326D02*
X1505178Y-2692809D01*
X1991831Y-5786139D02*
X1930233Y-5860375D01*
X1385633Y-9498765D02*
X1380797Y-9497926D01*
X5484927Y-3137663D02*
X5485666Y-3132728D01*
X1764175Y-8093909D02*
X1814119Y-8176437D01*
X5527798Y-6932601D02*
X5523748Y-6929687D01*
X4059806Y-980064D02*
X3966577Y-955289D01*
X5211378Y-1865584D02*
X5210098Y-1863468D01*
X4972926Y-1547422D02*
X4905993Y-1477958D01*
X3278065Y-5111194D02*
X3273284Y-5112465D01*
X3655743Y-4951084D02*
X3657478Y-4946540D01*
X5699212Y-6859802D02*
X5698612Y-6864673D01*
X5646834Y-511961D02*
X5651104Y-514380D01*
X1400306Y-7250000D02*
X1414805Y-7250000D01*
X1380797Y-3051921D02*
X1385633Y-3051082D01*
X5495142Y-6895555D02*
X5492981Y-6891058D01*
X3690430Y-9480168D02*
X3686560Y-9477148D01*
X2987242Y-966797D02*
X2984852Y-967432D01*
X1317159Y-544596D02*
X1319985Y-540583D01*
X5676995Y-2713439D02*
X5673789Y-2717156D01*
X3715282Y-4890704D02*
X3719883Y-4889127D01*
X3348900Y-830001D02*
X3348048Y-834874D01*
X1323005Y-3086561D02*
X1326211Y-3082844D01*
X1333150Y-9473942D02*
X1329595Y-9470558D01*
X3349511Y-4974908D02*
X3349877Y-4979841D01*
X1380797Y-6948078D02*
X1376008Y-6947003D01*
X3324095Y-532997D02*
X3327301Y-536714D01*
X3720971Y-504459D02*
X3725702Y-503150D01*
X5523748Y-6929687D02*
X5519848Y-6926574D01*
X5495142Y-3104445D02*
X5497525Y-3100061D01*
X1362037Y-3057612D02*
X1366617Y-3055845D01*
X5619203Y-6948078D02*
X5614367Y-6948918D01*
X5549939Y-6943961D02*
X5545295Y-6942137D01*
X3661602Y-4937731D02*
X3663980Y-4933487D01*
X4059806Y-9019936D02*
X4062179Y-9019242D01*
X1870849Y-4060493D02*
X1928701Y-4137684D01*
X3654230Y-5044293D02*
X3652944Y-5039602D01*
X1307918Y-7311731D02*
X1309907Y-7307244D01*
X3652944Y-839602D02*
X3651887Y-834853D01*
X1513711Y-3135253D02*
X1514315Y-3140121D01*
X3650118Y-9179621D02*
X3650473Y-9174769D01*
X3669341Y-5074628D02*
X3666562Y-5070635D01*
X1488870Y-3082812D02*
X1492076Y-3086525D01*
X1301388Y-2664673D02*
X1300787Y-2659802D01*
X3702860Y-511961D02*
X3707244Y-509754D01*
X1478216Y-7272676D02*
X1481932Y-7275879D01*
X5642449Y-2740399D02*
X5637962Y-2742388D01*
X5477858Y-2605473D02*
X5477492Y-2603027D01*
X5698612Y-2664673D02*
X5697772Y-2669509D01*
X3738891Y-5114897D02*
X3734071Y-5114239D01*
X1306151Y-7316311D02*
X1307918Y-7311731D01*
X5531988Y-2735310D02*
X5527798Y-2732601D01*
X3273284Y-9087535D02*
X3278065Y-9088806D01*
X5599694Y-7250000D02*
X5604601Y-7250120D01*
X5305192Y-6239735D02*
X5304127Y-6237503D01*
X3346956Y-839699D02*
X3345626Y-844464D01*
X5692082Y-6888268D02*
X5690093Y-6892755D01*
X3724556Y-9087775D02*
X3729289Y-9086652D01*
X4758636Y-4454009D02*
X4832104Y-4391497D01*
X5609496Y-9499365D02*
X5604601Y-9499727D01*
X1510479Y-7320907D02*
X1511791Y-7325634D01*
X1636280Y-6373662D02*
X1635383Y-6375967D01*
X3666562Y-5070635D02*
X3663980Y-5066513D01*
X5509147Y-2716125D02*
X5505942Y-2712301D01*
X1717146Y-1993135D02*
X1716026Y-1995340D01*
X3716311Y-505998D02*
X3720971Y-504459D01*
X1419709Y-3050120D02*
X1424601Y-3050481D01*
X1457539Y-7259591D02*
X1461921Y-7261796D01*
X3706336Y-5105480D02*
X3702012Y-5103250D01*
X1300787Y-590351D02*
X1301388Y-585480D01*
X3312900Y-9107046D02*
X3316667Y-9110252D01*
X3867402Y-9065876D02*
X3869833Y-9065420D01*
X3268446Y-913497D02*
X3263563Y-914289D01*
X4904233Y-8523779D02*
X4905993Y-8522042D01*
X3326956Y-9120930D02*
X3330020Y-9124814D01*
X3350000Y-9399847D02*
X3349879Y-9404754D01*
X3707244Y-9490246D02*
X3702860Y-9488039D01*
X5609496Y-2749518D02*
X5604601Y-2749880D01*
X5260440Y-1951499D02*
X5259265Y-1949322D01*
X5156745Y-8219849D02*
X5158128Y-8217799D01*
X5584163Y-6950000D02*
X5579175Y-6949875D01*
X3661602Y-5062269D02*
X3659433Y-5057915D01*
X5699694Y-3150000D02*
X5699694Y-6850000D01*
X1507169Y-7311674D02*
X1508937Y-7316250D01*
X3867402Y-934124D02*
X3772183Y-918680D01*
X1474348Y-6930341D02*
X1470336Y-6933164D01*
X1395399Y-500273D02*
X1400306Y-500153D01*
X1529846Y-2554198D02*
X1529420Y-2556634D01*
X5687886Y-9446987D02*
X5685467Y-9451257D01*
X3769732Y-4881655D02*
X3772183Y-4881320D01*
X1674480Y-2082398D02*
X1673470Y-2084656D01*
X3675465Y-4917816D02*
X3678795Y-4914271D01*
X1306151Y-9433536D02*
X1304612Y-9428876D01*
X3282778Y-909689D02*
X3278065Y-911194D01*
X3300712Y-9098599D02*
X3304913Y-9101213D01*
X5574200Y-2749502D02*
X5569249Y-2748882D01*
X3349879Y-595246D02*
X3350000Y-600153D01*
X3345626Y-4955536D02*
X3346956Y-4960301D01*
X5523748Y-7270313D02*
X5527798Y-7267399D01*
X5699212Y-7340198D02*
X5699573Y-7345093D01*
X5682841Y-9455404D02*
X5680015Y-9459417D01*
X1344749Y-9482994D02*
X1340736Y-9480168D01*
X3693716Y-4901827D02*
X3697803Y-4899188D01*
X1414805Y-7250000D02*
X1419709Y-7250120D01*
X3663980Y-4933487D02*
X3666562Y-4929365D01*
X3682294Y-4910891D02*
X3685953Y-4907685D01*
X3291950Y-5105989D02*
X3287410Y-5107952D01*
X1434303Y-2748081D02*
X1429470Y-2748919D01*
X1514315Y-2659879D02*
X1513711Y-2664747D01*
X5623992Y-9496850D02*
X5619203Y-9497926D01*
X5698612Y-9414520D02*
X5697772Y-9419356D01*
X3324095Y-9467003D02*
X3320711Y-9470558D01*
X3287410Y-907952D02*
X3282778Y-909689D01*
X3288268Y-507765D02*
X3292755Y-509754D01*
X5579175Y-3050124D02*
X5584163Y-3050000D01*
X5670405Y-529442D02*
X5673789Y-532997D01*
X3738891Y-9085103D02*
X3769732Y-9081655D01*
X3323704Y-4917202D02*
X3326956Y-4920930D01*
X1453054Y-6942396D02*
X1448477Y-6944160D01*
X2361468Y-4544482D02*
X2442087Y-4597453D01*
X2060368Y-4288603D02*
X2128999Y-4356391D01*
X4596896Y-5427868D02*
X4514992Y-5376907D01*
X4833947Y-1410152D02*
X4832104Y-1408503D01*
X5460872Y-3291994D02*
X5477492Y-3196973D01*
X2130801Y-8558084D02*
X2202700Y-8622394D01*
X1478216Y-6927324D02*
X1474348Y-6930341D01*
X5519848Y-6926574D02*
X5516109Y-6923271D01*
X1548812Y-6659617D02*
X1529846Y-6754198D01*
X1371277Y-9495541D02*
X1366617Y-9494001D01*
X1333150Y-526058D02*
X1336867Y-522852D01*
X4904233Y-1476220D02*
X4833947Y-1410152D01*
X1302227Y-9419356D02*
X1301388Y-9414520D01*
X1514850Y-6854491D02*
X1514315Y-6859879D01*
X3350000Y-815213D02*
X3349877Y-820159D01*
X5699573Y-595246D02*
X5699694Y-600153D01*
X5633383Y-2744154D02*
X5628722Y-2745694D01*
X1510479Y-2679093D02*
X1508937Y-2683750D01*
X5633383Y-9494001D02*
X5628722Y-9495541D01*
X5666850Y-6924095D02*
X5663133Y-6927301D01*
X2617164Y-4694720D02*
X2704729Y-4735187D01*
X1434303Y-3051919D02*
X1439090Y-3052994D01*
X1301388Y-585480D02*
X1302227Y-580644D01*
X6999970Y-29D02*
X6998773Y0D01*
X3651082Y-9414520D02*
X3650481Y-9409649D01*
X5663133Y-9477148D02*
X5659264Y-9480168D01*
X4678247Y-5484174D02*
X4598963Y-5429226D01*
X3663980Y-9133487D02*
X3666562Y-9129365D01*
X1993457Y-4215724D02*
X2058652Y-4286823D01*
X3679289Y-9470558D02*
X3675905Y-9467003D01*
X2202700Y-4422395D02*
X2204583Y-4423997D01*
X5628722Y-9495541D02*
X5623992Y-9496850D01*
X3698590Y-9485620D02*
X3694443Y-9482994D01*
X3666853Y-544596D02*
X3669679Y-540583D01*
X3869833Y-9065420D02*
X3964172Y-9045286D01*
X3685953Y-5092315D02*
X3682294Y-5089109D01*
X2796459Y-5227745D02*
X2706999Y-5263832D01*
X3288268Y-9492235D02*
X3283689Y-9494001D01*
X3729289Y-4886652D02*
X3734071Y-4885761D01*
X1461921Y-3061796D02*
X1466190Y-3064212D01*
X1448477Y-3055839D02*
X1453054Y-3057604D01*
X5695388Y-6879028D02*
X5693848Y-6883689D01*
X5609496Y-3050481D02*
X5614367Y-3051082D01*
X2361468Y-1255518D02*
X2359436Y-1256927D01*
X1439090Y-6947006D02*
X1434303Y-6948080D01*
X5699573Y-6854907D02*
X5699212Y-6859802D01*
X1319985Y-9459417D02*
X1317159Y-9455404D01*
X5554668Y-7254449D02*
X5559471Y-7253096D01*
X5304127Y-6237503D02*
X5260440Y-6151499D01*
X5259265Y-1949322D02*
X5211378Y-1865584D01*
X5614367Y-7251082D02*
X5619203Y-7251921D01*
X3335553Y-9133012D02*
X3338009Y-9137306D01*
X1500550Y-2701457D02*
X1497923Y-2705600D01*
X5489344Y-3118231D02*
X5491046Y-3113541D01*
X1991831Y-4213861D02*
X1993457Y-4215724D01*
X5574200Y-3050497D02*
X5579175Y-3050124D01*
X1362037Y-9492235D02*
X1357550Y-9490246D01*
X1390504Y-3050481D02*
X1395399Y-3050120D01*
X3655743Y-9151084D02*
X3657478Y-9146540D01*
X1371277Y-504459D02*
X1376008Y-503150D01*
X1340736Y-7269679D02*
X1344749Y-7266853D01*
X1304612Y-2679029D02*
X1303303Y-2674298D01*
X3330321Y-9459417D02*
X3327301Y-9463286D01*
X5655251Y-7266853D02*
X5659264Y-7269679D01*
X3650000Y-9399847D02*
X3650000Y-9184484D01*
X5569249Y-2748882D02*
X5564335Y-2748015D01*
X3772183Y-4881320D02*
X3867402Y-4865876D01*
X5633383Y-7255845D02*
X5637962Y-7257612D01*
X3323704Y-9117202D02*
X3326956Y-9120930D01*
X3735327Y-9498765D02*
X3730491Y-9497926D01*
X3651887Y-4965147D02*
X3652944Y-4960398D01*
X1993457Y-8415724D02*
X2058652Y-8486823D01*
X2444187Y-5401241D02*
X2442087Y-5402547D01*
X1993457Y-5784276D02*
X1991831Y-5786139D01*
X2798775Y-1026877D02*
X2796459Y-1027745D01*
X3710762Y-9092503D02*
X3715282Y-9090704D01*
X1515155Y-7347962D02*
X1529420Y-7443366D01*
X5439087Y-6611498D02*
X5438481Y-6609100D01*
X2704729Y-5264813D02*
X2617164Y-5305280D01*
X1474348Y-2730341D02*
X1470336Y-2733164D01*
X3772183Y-5118680D02*
X3769732Y-5118345D01*
X5637962Y-7257612D02*
X5642449Y-7259601D01*
X5554668Y-6945551D02*
X5549939Y-6943961D01*
X3340250Y-9141717D02*
X3342269Y-9146233D01*
X3342269Y-9146233D02*
X3344063Y-9150843D01*
X2796459Y-8972255D02*
X2798775Y-8973123D01*
X3349511Y-9174908D02*
X3349877Y-9179841D01*
X3083473Y-5143820D02*
X3081055Y-5144336D01*
X5623992Y-2747003D02*
X5619203Y-2748079D01*
X3348917Y-9414520D02*
X3348078Y-9419356D01*
X1323005Y-536714D02*
X1326211Y-532997D01*
X3650120Y-595246D02*
X3650481Y-590351D01*
X5158128Y-8217799D02*
X5210098Y-8136532D01*
X3730491Y-502074D02*
X3735327Y-501235D01*
X5663133Y-2727301D02*
X5659264Y-2730321D01*
X1507169Y-6888325D02*
X1505178Y-6892809D01*
X3652997Y-9424145D02*
X3651921Y-9419356D01*
X1515155Y-6852037D02*
X1514850Y-6854491D01*
X5411832Y-7686180D02*
X5412556Y-7683815D01*
X5685467Y-2701410D02*
X5682841Y-2705557D01*
X3349518Y-9409649D02*
X3348917Y-9414520D01*
X5698612Y-6864673D02*
X5697772Y-6869509D01*
X2130801Y-5641916D02*
X2128999Y-5643609D01*
X5259265Y-6149322D02*
X5211378Y-6065584D01*
X6999970Y-9999970D02*
X7000000Y-9998773D01*
X5487877Y-7323001D02*
X5489344Y-7318231D01*
X5477492Y-6803027D02*
X5460872Y-6708005D01*
X1548812Y-3340383D02*
X1549358Y-3342795D01*
X1716026Y-3804660D02*
X1717146Y-3806865D01*
X3344154Y-9433536D02*
X3342388Y-9438115D01*
X1326211Y-2717156D02*
X1323005Y-2713439D01*
X3734071Y-914239D02*
X3729289Y-913348D01*
X1470336Y-6933164D02*
X1466190Y-6935787D01*
X3296388Y-903803D02*
X3291950Y-905989D01*
X5659264Y-519832D02*
X5663133Y-522852D01*
X3669341Y-4925372D02*
X3672311Y-4921520D01*
X5666850Y-526058D02*
X5670405Y-529442D01*
X3710762Y-5107497D02*
X3706336Y-5105480D01*
X5659264Y-3069679D02*
X5663133Y-3072699D01*
X1385633Y-7251082D02*
X1390504Y-7250481D01*
X1762948Y-6108238D02*
X1717146Y-6193135D01*
X3304913Y-4901213D02*
X3308978Y-4904031D01*
X4339808Y-4714962D02*
X4426345Y-4672342D01*
X1323005Y-6913439D02*
X1319985Y-6909570D01*
X3654306Y-571124D02*
X3655845Y-566464D01*
X5412556Y-3483815D02*
X5438481Y-3390900D01*
X3651887Y-9165147D02*
X3652944Y-9160398D01*
X1928701Y-5862316D02*
X1870849Y-5939507D01*
X3338192Y-553013D02*
X3340399Y-557397D01*
X2892265Y-5194505D02*
X2889909Y-5195258D01*
X1481932Y-3075879D02*
X1485486Y-3079260D01*
X5516109Y-6923271D02*
X5512539Y-6919785D01*
X1572977Y-2363677D02*
X1549358Y-2457205D01*
X5692082Y-3111731D02*
X5693848Y-3116311D01*
X1870849Y-5939507D02*
X1869415Y-5941522D01*
X5260440Y-3848501D02*
X5304127Y-3762497D01*
X2281535Y-4486180D02*
X2359436Y-4543073D01*
X4339808Y-1085038D02*
X4337563Y-1084000D01*
X3675465Y-882184D02*
X3672311Y-878480D01*
X1502970Y-6897190D02*
X1500550Y-6901457D01*
X1371277Y-6945694D02*
X1366617Y-6944154D01*
X5659264Y-9480168D02*
X5655251Y-9482994D01*
X3657478Y-9146540D02*
X3659433Y-9142085D01*
X5497525Y-3100061D02*
X5500124Y-3095802D01*
X1466190Y-7264212D02*
X1470336Y-7266836D01*
X1312114Y-3102860D02*
X1314533Y-3098590D01*
X2889909Y-9004742D02*
X2892265Y-9005495D01*
X3273284Y-5112465D02*
X3268446Y-5113497D01*
X3081055Y-9055664D02*
X3083473Y-9056180D01*
X3263563Y-5114289D02*
X3180723Y-5125630D01*
X2704729Y-1064813D02*
X2617164Y-1105280D01*
X3657478Y-4946540D02*
X3659433Y-4942085D01*
X3689763Y-895338D02*
X3685953Y-892314D01*
X1814119Y-3976437D02*
X1815451Y-3978520D01*
X3964172Y-5154714D02*
X3869833Y-5134580D01*
X1395399Y-7250120D02*
X1400306Y-7250000D01*
X4974598Y-5749245D02*
X4972926Y-5747422D01*
X1336867Y-7272699D02*
X1340736Y-7269679D01*
X5477858Y-6805473D02*
X5477492Y-6803027D01*
X5680015Y-3090430D02*
X5682841Y-3094443D01*
X29Y-9999971D02*
X1227Y-10000000D01*
X1548812Y-7540383D02*
X1549358Y-7542795D01*
X5695388Y-9428876D02*
X5693848Y-9433536D01*
X1448477Y-2744160D02*
X1443818Y-2745699D01*
X4905993Y-8522042D02*
X4972926Y-8452578D01*
X3730491Y-9497926D02*
X3725702Y-9496850D01*
X3338009Y-5062694D02*
X3335553Y-5066988D01*
X2444187Y-8798759D02*
X2527326Y-8847679D01*
X5655251Y-517006D02*
X5659264Y-519832D01*
X5038013Y-5821934D02*
X4974598Y-5749245D01*
X3693716Y-9101827D02*
X3697803Y-9099188D01*
X3083473Y-943820D02*
X3081055Y-944336D01*
X3678795Y-5085729D02*
X3675465Y-5082184D01*
X2706999Y-1063832D02*
X2704729Y-1064813D01*
X5680015Y-7290430D02*
X5682841Y-7294443D01*
X3304913Y-5098787D02*
X3300712Y-5101401D01*
X5531988Y-3064690D02*
X5536308Y-3062194D01*
X5038013Y-8378066D02*
X5039593Y-8376163D01*
X1326211Y-7282844D02*
X1329595Y-7279289D01*
X1344749Y-517006D02*
X1348896Y-514380D01*
X1510479Y-6879093D02*
X1508937Y-6883750D01*
X2128999Y-4356391D02*
X2130801Y-4358084D01*
X3349518Y-590351D02*
X3349879Y-595246D01*
X4905993Y-1477958D02*
X4904233Y-1476220D01*
X2279575Y-1315327D02*
X2204583Y-1376003D01*
X1488870Y-6917188D02*
X1485486Y-6920740D01*
X3689763Y-9104662D02*
X3693716Y-9101827D01*
X3340250Y-5058283D02*
X3338009Y-5062694D01*
X4059806Y-4819936D02*
X4062179Y-4819242D01*
X3706336Y-4894520D02*
X3710762Y-4892503D01*
X5540748Y-6940084D02*
X5536308Y-6937806D01*
X3083473Y-4856180D02*
X3178282Y-4873974D01*
X5460386Y-7494419D02*
X5460872Y-7491994D01*
X2279575Y-8684673D02*
X2281535Y-8686180D01*
X1439090Y-3052994D02*
X1443818Y-3054301D01*
X3287410Y-4892048D02*
X3291950Y-4894011D01*
X1515155Y-2652037D02*
X1514850Y-2654492D01*
X4514992Y-1176907D02*
X4512860Y-1175653D01*
X5599694Y-2750000D02*
X5584163Y-2750000D01*
X1481932Y-7275879D02*
X1485486Y-7279260D01*
X3320272Y-886360D02*
X3316667Y-889748D01*
X5439087Y-7588502D02*
X5460386Y-7494419D01*
X3679289Y-529442D02*
X3682844Y-526058D01*
X5509147Y-3083874D02*
X5512539Y-3080215D01*
X6998773Y0D02*
X1227Y0D01*
X5477492Y-3196973D02*
X5477858Y-3194527D01*
X3292755Y-9490246D02*
X3288268Y-9492235D01*
X3689763Y-4904662D02*
X3693716Y-4901827D01*
X5345526Y-3669924D02*
X5380504Y-3580025D01*
X2987242Y-5166797D02*
X2984852Y-5167433D01*
X1366617Y-3055845D02*
X1371277Y-3054306D01*
X5100819Y-4098447D02*
X5156745Y-4019849D01*
X5500124Y-7295802D02*
X5502932Y-7291678D01*
X5411832Y-3486180D02*
X5412556Y-3483815D01*
X1870849Y-8260493D02*
X1928701Y-8337684D01*
X5492981Y-6891058D02*
X5491046Y-6886458D01*
X5412556Y-7683815D02*
X5438481Y-7590900D01*
X3274298Y-503150D02*
X3279028Y-504459D01*
X5697772Y-9419356D02*
X5696697Y-9424145D01*
X3309570Y-519832D02*
X3313439Y-522852D01*
X1869415Y-8258478D02*
X1870849Y-8260493D01*
X4972926Y-8452578D02*
X4974598Y-8450755D01*
X4598963Y-1229226D02*
X4596896Y-1227868D01*
X3296388Y-5103803D02*
X3291950Y-5105989D01*
X2060368Y-1511397D02*
X2058652Y-1513177D01*
X3346956Y-9160301D02*
X3348048Y-9165126D01*
X5651104Y-3064227D02*
X5655251Y-3066853D01*
X1492076Y-6913475D02*
X1488870Y-6917188D01*
X3348917Y-585480D02*
X3349518Y-590351D01*
X1930233Y-5860375D02*
X1928701Y-5862316D01*
X3711731Y-507765D02*
X3716311Y-505998D01*
X1309907Y-3107244D02*
X1312114Y-3102860D01*
X1302227Y-2669509D02*
X1301388Y-2664673D01*
X1508937Y-2683750D02*
X1507169Y-2688326D01*
X1419709Y-2749880D02*
X1414805Y-2750000D01*
X2796459Y-4772255D02*
X2798775Y-4773123D01*
X5500124Y-6904198D02*
X5497525Y-6899938D01*
X2614945Y-1106373D02*
X2529488Y-1151120D01*
X5693848Y-6883689D02*
X5692082Y-6888268D01*
X1505178Y-6892809D02*
X1502970Y-6897190D01*
X1764175Y-6106091D02*
X1762948Y-6108238D01*
X3320711Y-529442D02*
X3324095Y-532997D01*
X2617164Y-8894720D02*
X2704729Y-8935187D01*
X1329595Y-9470558D02*
X1326211Y-9467003D01*
X4249023Y-8954288D02*
X4337563Y-8916000D01*
X4904233Y-5676220D02*
X4833947Y-5610152D01*
X5523748Y-2729687D02*
X5519848Y-2726574D01*
X5699573Y-7345093D02*
X5699694Y-7350000D01*
X5696697Y-3125702D02*
X5697772Y-3130491D01*
X3287410Y-9092048D02*
X3291950Y-9094011D01*
X5492981Y-3108942D02*
X5495142Y-3104445D01*
X1549358Y-7542795D02*
X1572977Y-7636323D01*
X5682841Y-7294443D02*
X5685467Y-7298590D01*
X1814119Y-8176437D02*
X1815451Y-8178520D01*
X3350000Y-600153D02*
X3350000Y-815213D01*
X5633383Y-6944154D02*
X5628722Y-6945694D01*
X5579175Y-2749876D02*
X5574200Y-2749502D01*
X2796459Y-1027745D02*
X2706999Y-1063832D01*
X5502932Y-7291678D02*
X5505942Y-7287699D01*
X5039593Y-1623837D02*
X5038013Y-1621934D01*
X1303303Y-6874298D02*
X1302227Y-6869509D01*
X3349511Y-5025092D02*
X3348900Y-5030001D01*
X5460872Y-6708005D02*
X5460386Y-6705581D01*
X1424601Y-2749519D02*
X1419709Y-2749880D01*
X1572977Y-6563677D02*
X1549358Y-6657205D01*
X5381343Y-7777699D02*
X5411832Y-7686180D01*
X4512860Y-4624347D02*
X4514992Y-4623093D01*
X3966577Y-9044711D02*
X4059806Y-9019936D01*
X5477492Y-7396973D02*
X5477858Y-7394527D01*
X3685953Y-4907685D02*
X3689763Y-4904662D01*
X3715282Y-909296D02*
X3710762Y-907497D01*
X4512860Y-5375653D02*
X4428536Y-5328805D01*
X4514992Y-5376907D02*
X4512860Y-5375653D01*
X1306151Y-3116311D02*
X1307918Y-3111731D01*
X2529488Y-8848880D02*
X2614945Y-8893627D01*
X3296388Y-9096197D02*
X3300712Y-9098599D01*
X5156745Y-5980151D02*
X5100819Y-5901552D01*
X4337563Y-8916000D02*
X4339808Y-8914962D01*
X3664227Y-548743D02*
X3666853Y-544596D01*
X1357550Y-2740399D02*
X1353166Y-2738192D01*
X2987242Y-4833203D02*
X3081055Y-4855664D01*
X3650481Y-9409649D02*
X3650120Y-9404754D01*
X3335553Y-866988D02*
X3332888Y-871155D01*
X5623992Y-3052997D02*
X5628722Y-3054306D01*
X3698590Y-514380D02*
X3702860Y-511961D01*
X5554668Y-2745551D02*
X5549939Y-2743961D01*
X3332888Y-871155D02*
X3330020Y-875186D01*
X5531988Y-6935310D02*
X5527798Y-6932601D01*
X2281535Y-5513820D02*
X2279575Y-5515327D01*
X1602640Y-3533296D02*
X1635383Y-3624033D01*
X1303303Y-575855D02*
X1304612Y-571124D01*
X1488870Y-7282812D02*
X1492076Y-7286525D01*
X3342388Y-9438115D02*
X3340399Y-9442603D01*
X5628722Y-2745694D02*
X5623992Y-2747003D01*
X5604601Y-2749880D02*
X5599694Y-2750000D01*
X1635383Y-2175967D02*
X1602640Y-2266704D01*
X5619203Y-9497926D02*
X5614367Y-9498765D01*
X4598963Y-8770774D02*
X4678247Y-8715826D01*
X4062179Y-5180758D02*
X4059806Y-5180064D01*
X1466190Y-3064212D02*
X1470336Y-3066836D01*
X5637962Y-2742388D02*
X5633383Y-2744154D01*
X3745093Y-9499727D02*
X3740198Y-9499365D01*
X1928701Y-4137684D02*
X1930233Y-4139625D01*
X1303303Y-7325702D02*
X1304612Y-7320971D01*
X5345526Y-2130076D02*
X5344573Y-2127794D01*
X5380504Y-7780025D02*
X5381343Y-7777699D01*
X1300426Y-595246D02*
X1300787Y-590351D01*
X5438481Y-3390900D02*
X5439087Y-3388502D01*
X5512539Y-3080215D02*
X5516109Y-3076729D01*
X5670405Y-9470558D02*
X5666850Y-9473942D01*
X1366617Y-9494001D02*
X1362037Y-9492235D01*
X3651063Y-5030059D02*
X3650473Y-5025231D01*
X1357550Y-6940399D02*
X1353166Y-6938192D01*
X3652944Y-4960398D02*
X3654230Y-4955707D01*
X3711731Y-9492235D02*
X3707244Y-9490246D01*
X5527798Y-2732601D02*
X5523748Y-2729687D01*
X3867402Y-4865876D02*
X3869833Y-4865420D01*
X2527326Y-1152321D02*
X2444187Y-1201241D01*
X5438481Y-6609100D02*
X5412556Y-6516185D01*
X1336867Y-6927301D02*
X1333150Y-6924095D01*
X5673789Y-2717156D02*
X5670405Y-2720711D01*
X5500124Y-2704198D02*
X5497525Y-2699938D01*
X1507169Y-3111674D02*
X1508937Y-3116250D01*
X1319985Y-540583D02*
X1323005Y-536714D01*
X1385633Y-501235D02*
X1390504Y-500634D01*
X3750000Y-9499847D02*
X3745093Y-9499727D01*
X5651104Y-514380D02*
X5655251Y-517006D01*
X5699694Y-2650000D02*
X5699573Y-2654907D01*
X4249023Y-4754288D02*
X4337563Y-4716000D01*
X3327301Y-9463286D02*
X3324095Y-9467003D01*
X1602640Y-7733296D02*
X1635383Y-7824033D01*
X2128999Y-8556391D02*
X2130801Y-8558084D01*
X3702012Y-903250D02*
X3697803Y-900812D01*
X5682841Y-544596D02*
X5685467Y-548743D01*
X1492076Y-7286525D02*
X1495096Y-7290391D01*
X1340736Y-519832D02*
X1344749Y-517006D01*
X5512539Y-2719785D02*
X5509147Y-2716125D01*
X4833947Y-5610152D02*
X4832104Y-5608503D01*
X5519848Y-3073426D02*
X5523748Y-3070313D01*
X2204583Y-1376003D02*
X2202700Y-1377605D01*
X1601858Y-6469050D02*
X1573642Y-6561295D01*
X1371277Y-3054306D02*
X1376008Y-3052997D01*
X5039593Y-4176163D02*
X5099336Y-4100426D01*
X3675465Y-9117816D02*
X3678795Y-9114271D01*
X5619203Y-7251921D02*
X5623992Y-7252997D01*
X4974598Y-1549245D02*
X4972926Y-1547422D01*
X4678247Y-1284174D02*
X4598963Y-1229226D01*
X5100819Y-8298447D02*
X5156745Y-8219849D01*
X2442087Y-5402547D02*
X2361468Y-5455518D01*
X1461921Y-2738204D02*
X1457539Y-2740409D01*
X1336867Y-522852D02*
X1340736Y-519832D01*
X5670405Y-3079289D02*
X5673789Y-3082844D01*
X1548812Y-2459617D02*
X1529846Y-2554198D01*
X4972926Y-4252578D02*
X4974598Y-4250755D01*
X1434303Y-7251919D02*
X1439090Y-7252994D01*
X5699573Y-3145093D02*
X5699694Y-3150000D01*
X5614367Y-9498765D02*
X5609496Y-9499365D01*
X1326211Y-6917156D02*
X1323005Y-6913439D01*
X3657612Y-561885D02*
X3659601Y-557397D01*
X5698612Y-585480D02*
X5699212Y-590351D01*
X2281535Y-8686180D02*
X2359436Y-8743073D01*
X1514850Y-2654492D02*
X1514315Y-2659879D01*
X2202700Y-8622395D02*
X2204583Y-8623997D01*
X1461921Y-6938204D02*
X1457539Y-6940409D01*
X5680015Y-2709570D02*
X5676995Y-2713439D01*
X1309907Y-7307244D02*
X1312114Y-7302860D01*
X1395399Y-9499727D02*
X1390504Y-9499365D01*
X3682294Y-9110891D02*
X3685953Y-9107685D01*
X4156405Y-4789077D02*
X4246730Y-4755213D01*
X3734071Y-5114239D02*
X3729289Y-5113348D01*
X3332888Y-4928844D02*
X3335553Y-4933012D01*
X1928701Y-8337684D02*
X1930233Y-8339625D01*
X5305192Y-3760265D02*
X5344573Y-3672206D01*
X5509147Y-6916125D02*
X5505942Y-6912301D01*
X3348900Y-9169999D02*
X3349511Y-9174908D01*
X2889909Y-4804742D02*
X2892265Y-4805495D01*
X5545295Y-3057863D02*
X5549939Y-3056039D01*
X5549939Y-3056039D02*
X5554668Y-3054449D01*
X1495096Y-2709609D02*
X1492076Y-2713475D01*
X5158128Y-4017799D02*
X5210098Y-3936532D01*
X4512860Y-8824347D02*
X4514992Y-8823093D01*
X3661602Y-862269D02*
X3659433Y-857915D01*
X1317159Y-3094443D02*
X1319985Y-3090430D01*
X1512869Y-2669580D02*
X1511791Y-2674366D01*
X5646834Y-3061808D02*
X5651104Y-3064227D01*
X5666850Y-9473942D02*
X5663133Y-9477148D01*
X5651104Y-2735773D02*
X5646834Y-2738192D01*
X1314533Y-548743D02*
X1317159Y-544596D01*
X5690093Y-7307244D02*
X5692082Y-7311731D01*
X3273284Y-912465D02*
X3268446Y-913497D01*
X3301410Y-9485620D02*
X3297140Y-9488039D01*
X3335773Y-9451257D02*
X3333147Y-9455404D01*
X3338009Y-4937306D02*
X3340250Y-4941717D01*
X1716026Y-6195340D02*
X1674480Y-6282398D01*
X1314533Y-3098590D02*
X1317159Y-3094443D01*
X1326211Y-3082844D02*
X1329595Y-3079289D01*
X4833947Y-4389848D02*
X4904233Y-4323779D01*
X4678247Y-4515826D02*
X4680244Y-4514367D01*
X5695388Y-7320971D02*
X5696697Y-7325702D01*
X5099336Y-5899573D02*
X5039593Y-5823837D01*
X3278065Y-911194D02*
X3273284Y-912465D01*
X3650118Y-820379D02*
X3650000Y-815516D01*
X5697772Y-6869509D02*
X5696697Y-6874298D01*
X5604601Y-3050120D02*
X5609496Y-3050481D01*
X1497923Y-3094400D02*
X1500550Y-3098543D01*
X5486650Y-7327837D02*
X5487877Y-7323001D01*
X4062179Y-9019242D02*
X4154068Y-8989887D01*
X4246730Y-5244787D02*
X4156405Y-5210923D01*
X3330020Y-5075186D02*
X3326956Y-5079070D01*
X1329595Y-529442D02*
X1333150Y-526058D01*
X3304913Y-9101213D02*
X3308978Y-9104031D01*
X1529420Y-2556634D02*
X1515155Y-2652037D01*
X2202700Y-5577606D02*
X2130801Y-5641916D01*
X4337563Y-5284000D02*
X4249023Y-5245712D01*
X2204583Y-4423997D02*
X2279575Y-4484673D01*
X1353166Y-9488039D02*
X1348896Y-9485620D01*
X1336867Y-2727301D02*
X1333150Y-2724095D01*
X1429470Y-3051081D02*
X1434303Y-3051919D01*
X5623992Y-6947003D02*
X5619203Y-6948078D01*
X1815451Y-8178520D02*
X1869415Y-8258478D01*
X2202700Y-1377606D02*
X2130801Y-1441916D01*
X3869833Y-934580D02*
X3867402Y-934124D01*
X5527798Y-3067399D02*
X5531988Y-3064690D01*
X5604601Y-9499727D02*
X5599694Y-9499847D01*
X3719883Y-4889127D02*
X3724556Y-4887775D01*
X3254907Y-9499727D02*
X3250000Y-9499847D01*
X0Y-1227D02*
X0Y-9998773D01*
X3651063Y-830059D02*
X3650473Y-825231D01*
X5637962Y-507765D02*
X5642449Y-509754D01*
X5512539Y-6919785D02*
X5509147Y-6916125D01*
X5690093Y-6892755D02*
X5687886Y-6897140D01*
X1492076Y-3086525D02*
X1495096Y-3090391D01*
X5673789Y-7282844D02*
X5676995Y-7286561D01*
X3690430Y-519832D02*
X3694443Y-517006D01*
X1390504Y-500634D02*
X1395399Y-500273D01*
X3724556Y-912225D02*
X3719883Y-910873D01*
X5497525Y-7300061D02*
X5500124Y-7295802D01*
X1306151Y-6883689D02*
X1304612Y-6879028D01*
X5564335Y-6948014D02*
X5559471Y-6946903D01*
X5523748Y-3070313D02*
X5527798Y-3067399D01*
X3349511Y-825092D02*
X3348900Y-830001D01*
X3340399Y-557397D02*
X3342388Y-561885D01*
X3332888Y-9128844D02*
X3335553Y-9133012D01*
X3342269Y-853767D02*
X3340250Y-858283D01*
X5039593Y-8376163D02*
X5099336Y-8300426D01*
X3650120Y-9404754D02*
X3650000Y-9399847D01*
X3659433Y-4942085D02*
X3661602Y-4937731D01*
X3650000Y-5015516D02*
X3650000Y-4984484D01*
X5614367Y-3051082D02*
X5619203Y-3051921D01*
X4249023Y-5245712D02*
X4246730Y-5244787D01*
X5579175Y-7250124D02*
X5584163Y-7250000D01*
X3347003Y-575855D02*
X3348078Y-580644D01*
X5699212Y-2659802D02*
X5698612Y-2664673D01*
X5687886Y-2697140D02*
X5685467Y-2701410D01*
X5549939Y-7256039D02*
X5554668Y-7254449D01*
X1300306Y-2650000D02*
X1300306Y-600153D01*
X5536308Y-6937806D02*
X5531988Y-6935310D01*
X3345694Y-9428876D02*
X3344154Y-9433536D01*
X3317156Y-526058D02*
X3320711Y-529442D01*
X5584163Y-3050000D02*
X5599694Y-3050000D01*
X1395399Y-3050120D02*
X1400306Y-3050000D01*
X1319985Y-7290430D02*
X1323005Y-7286561D01*
X5484927Y-7337663D02*
X5485666Y-7332728D01*
X3650000Y-4984484D02*
X3650118Y-4979621D01*
X1307918Y-6888268D02*
X1306151Y-6883689D01*
X5687886Y-3102860D02*
X5690093Y-3107244D01*
X5696697Y-2674298D02*
X5695388Y-2679029D01*
X1511791Y-2674366D02*
X1510479Y-2679093D01*
X5693848Y-2683689D02*
X5692082Y-2688268D01*
X3326956Y-5079070D02*
X3323704Y-5082798D01*
X3180723Y-9074370D02*
X3263563Y-9085711D01*
X5259265Y-8050678D02*
X5260440Y-8048501D01*
X5680015Y-9459417D02*
X5676995Y-9463286D01*
X4246730Y-8955213D02*
X4249023Y-8954288D01*
X1300426Y-3145093D02*
X1300787Y-3140198D01*
X4972926Y-5747422D02*
X4905993Y-5677958D01*
X1414805Y-2750000D02*
X1400306Y-2750000D01*
X3685953Y-892314D02*
X3682294Y-889109D01*
X5699212Y-9409649D02*
X5698612Y-9414520D01*
X3259802Y-500634D02*
X3264673Y-501235D01*
X5509147Y-7283874D02*
X5512539Y-7280215D01*
X3330020Y-4924814D02*
X3332888Y-4928844D01*
X3735327Y-501235D02*
X3740198Y-500634D01*
X5477858Y-7394527D02*
X5484927Y-7337663D01*
X1815451Y-6021479D02*
X1814119Y-6023563D01*
X1376008Y-6947003D02*
X1371277Y-6945694D01*
X3316667Y-889748D02*
X3312900Y-892954D01*
X2527326Y-4647679D02*
X2529488Y-4648880D01*
X1400306Y-2750000D02*
X1395399Y-2749880D01*
X1495096Y-3090391D02*
X1497923Y-3094400D01*
X1348896Y-9485620D02*
X1344749Y-9482994D01*
X5692082Y-9438115D02*
X5690093Y-9442603D01*
X3702012Y-4896750D02*
X3706336Y-4894520D01*
X5516109Y-2723271D02*
X5512539Y-2719785D01*
X5485666Y-2667272D02*
X5484927Y-2662337D01*
X4758636Y-1345991D02*
X4756713Y-1344435D01*
X3291950Y-4894011D02*
X3296388Y-4896197D01*
X1376008Y-503150D02*
X1380797Y-502074D01*
X5699212Y-590351D02*
X5699573Y-595246D01*
X1329595Y-2720711D02*
X1326211Y-2717156D01*
X4680244Y-8714367D02*
X4756713Y-8655565D01*
X2617164Y-5305280D02*
X2614945Y-5306373D01*
X3694443Y-517006D02*
X3698590Y-514380D01*
X5210098Y-1863468D02*
X5158128Y-1782200D01*
X5699573Y-9404754D02*
X5699212Y-9409649D01*
X2892265Y-9005495D02*
X2984852Y-9032567D01*
X3657478Y-853460D02*
X3655743Y-848916D01*
X1336867Y-9477148D02*
X1333150Y-9473942D01*
X1317159Y-7294443D02*
X1319985Y-7290430D01*
X3308978Y-5095969D02*
X3304913Y-5098787D01*
X1336867Y-3072699D02*
X1340736Y-3069679D01*
X5633383Y-505998D02*
X5637962Y-507765D01*
X1390504Y-2749518D02*
X1385633Y-2748918D01*
X1529420Y-6756634D02*
X1515155Y-6852037D01*
X1306151Y-2683689D02*
X1304612Y-2679029D01*
X4154068Y-1010113D02*
X4062179Y-980758D01*
X5505942Y-3087699D02*
X5509147Y-3083874D01*
X3710762Y-907497D02*
X3706336Y-905480D01*
X5670405Y-7279289D02*
X5673789Y-7282844D01*
X5633383Y-3055845D02*
X5637962Y-3057612D01*
X5559471Y-6946903D02*
X5554668Y-6945551D01*
X4337563Y-1084000D02*
X4249023Y-1045712D01*
X1457539Y-3059591D02*
X1461921Y-3061796D01*
X1512869Y-3130420D02*
X1513711Y-3135253D01*
X4756713Y-4455565D02*
X4758636Y-4454009D01*
X5687886Y-7302860D02*
X5690093Y-7307244D01*
X5495142Y-2695555D02*
X5492981Y-2691058D01*
X5690093Y-3107244D02*
X5692082Y-3111731D01*
X5651104Y-7264227D02*
X5655251Y-7266853D01*
X1674480Y-3717601D02*
X1716026Y-3804660D01*
X3282778Y-4890311D02*
X3287410Y-4892048D01*
X3348048Y-5034874D02*
X3346956Y-5039699D01*
X2442087Y-1202547D02*
X2361468Y-1255518D01*
X1323005Y-7286561D02*
X1326211Y-7282844D01*
X1443818Y-7254301D02*
X1448477Y-7255839D01*
X5344573Y-6327794D02*
X5305192Y-6239735D01*
X5099336Y-8300426D02*
X5100819Y-8298447D01*
X4832104Y-5608503D02*
X4758636Y-5545991D01*
X3081055Y-5144336D02*
X2987242Y-5166797D01*
X1302227Y-6869509D02*
X1301388Y-6864673D01*
X2359436Y-5456927D02*
X2281535Y-5513820D01*
X2527326Y-8847679D02*
X2529488Y-8848880D01*
X5646834Y-7261808D02*
X5651104Y-7264227D01*
X1309907Y-9442603D02*
X1307918Y-9438115D01*
X6998773Y-10000000D02*
X6999970Y-9999971D01*
X3301410Y-514380D02*
X3305557Y-517006D01*
X3710762Y-4892503D02*
X3715282Y-4890704D01*
X1529846Y-7445802D02*
X1548812Y-7540383D01*
X1500550Y-3098543D02*
X1502970Y-3102810D01*
X3675905Y-532997D02*
X3679289Y-529442D01*
X3738891Y-914897D02*
X3734071Y-914239D01*
X3338009Y-862694D02*
X3335553Y-866988D01*
X3349877Y-5020159D02*
X3349511Y-5025092D01*
X3316667Y-9110252D02*
X3320272Y-9113640D01*
X3300712Y-901401D02*
X3296388Y-903803D01*
X1529420Y-7443366D02*
X1529846Y-7445802D01*
X1314533Y-7298590D02*
X1317159Y-7294443D01*
X3347003Y-9424145D02*
X3345694Y-9428876D01*
X3672311Y-4921520D02*
X3675465Y-4917816D01*
X3254907Y-500273D02*
X3259802Y-500634D01*
X1481932Y-2724121D02*
X1478216Y-2727324D01*
X5460386Y-6705581D02*
X5439087Y-6611498D01*
X1301388Y-3135327D02*
X1302227Y-3130491D01*
X7000000Y-1227D02*
X6999970Y-29D01*
X2442087Y-4597453D02*
X2444187Y-4598759D01*
X5502932Y-2708322D02*
X5500124Y-2704198D01*
X3669341Y-9125372D02*
X3672311Y-9121520D01*
X1439090Y-7252994D02*
X1443818Y-7254301D01*
X1429470Y-7251081D02*
X1434303Y-7251919D01*
X2058652Y-8486823D02*
X2060368Y-8488603D01*
X2359436Y-1256927D02*
X2281535Y-1313820D01*
X5659264Y-2730321D02*
X5655251Y-2733147D01*
X5519848Y-2726574D02*
X5516109Y-2723271D01*
X1348896Y-2735773D02*
X1344749Y-2733147D01*
X3348048Y-4965126D02*
X3348900Y-4969999D01*
X1495096Y-6909609D02*
X1492076Y-6913475D01*
X1344749Y-3066853D02*
X1348896Y-3064227D01*
X1304612Y-7320971D02*
X1306151Y-7316311D01*
X5655251Y-2733147D02*
X5651104Y-2735773D01*
X1674480Y-7917601D02*
X1716026Y-8004660D01*
X2130801Y-1441916D02*
X2128999Y-1443609D01*
X5676995Y-9463286D02*
X5673789Y-9467003D01*
X1312114Y-553013D02*
X1314533Y-548743D01*
X1414805Y-6950000D02*
X1400306Y-6950000D01*
X2614945Y-8893627D02*
X2617164Y-8894720D01*
X5505942Y-7287699D02*
X5509147Y-7283874D01*
X5486650Y-6872163D02*
X5485666Y-6867271D01*
X1508937Y-6883750D02*
X1507169Y-6888325D01*
X1329595Y-6920711D02*
X1326211Y-6917156D01*
X3654230Y-844293D02*
X3652944Y-839602D01*
X1380797Y-7251921D02*
X1385633Y-7251082D01*
X1815451Y-1821479D02*
X1814119Y-1823563D01*
X2204583Y-5576003D02*
X2202700Y-5577605D01*
X2706999Y-8936168D02*
X2796459Y-8972255D01*
X5491046Y-7313541D02*
X5492981Y-7308942D01*
X7000000Y-9998773D02*
X7000000Y-1227D01*
X1348896Y-7264227D02*
X1353166Y-7261808D01*
X5698612Y-7335327D02*
X5699212Y-7340198D01*
X5559471Y-7253096D02*
X5564335Y-7251985D01*
X5695388Y-571124D02*
X5696697Y-575855D01*
X3694443Y-9482994D02*
X3690430Y-9480168D01*
X3729289Y-9086652D02*
X3734071Y-9085761D01*
X1333150Y-3075905D02*
X1336867Y-3072699D01*
X3283689Y-505998D02*
X3288268Y-507765D01*
X5460386Y-2505581D02*
X5439087Y-2411498D01*
X1764175Y-1906091D02*
X1762948Y-1908238D01*
X5569249Y-7251118D02*
X5574200Y-7250497D01*
X1470336Y-3066836D02*
X1474348Y-3069659D01*
X1466190Y-2735787D02*
X1461921Y-2738204D01*
X3263563Y-9085711D02*
X3268446Y-9086503D01*
X5655251Y-9482994D02*
X5651104Y-9485620D01*
X1419709Y-7250120D02*
X1424601Y-7250481D01*
X4426345Y-4672342D02*
X4428536Y-4671195D01*
X5623992Y-503150D02*
X5628722Y-504459D01*
X1419709Y-6949880D02*
X1414805Y-6950000D01*
X1309907Y-2692756D02*
X1307918Y-2688268D01*
X4337563Y-4716000D02*
X4339808Y-4714962D01*
X5460872Y-7491994D02*
X5477492Y-7396973D01*
X1481932Y-6924121D02*
X1478216Y-6927324D01*
X5460386Y-3294419D02*
X5460872Y-3291994D01*
X5685467Y-6901410D02*
X5682841Y-6905557D01*
X5156745Y-4019849D02*
X5158128Y-4017799D01*
X1602640Y-6466704D02*
X1601858Y-6469050D01*
X1500550Y-7298543D02*
X1502970Y-7302810D01*
X1505178Y-7307191D02*
X1507169Y-7311674D01*
X5305192Y-7960265D02*
X5344573Y-7872206D01*
X3738891Y-4885103D02*
X3769732Y-4881655D01*
X1307918Y-561885D02*
X1309907Y-557397D01*
X5505942Y-6912301D02*
X5502932Y-6908322D01*
X1573642Y-7638705D02*
X1601858Y-7730950D01*
X1353166Y-511961D02*
X1357550Y-509754D01*
X2617164Y-1105280D02*
X2614945Y-1106373D01*
X1512869Y-7330420D02*
X1513711Y-7335253D01*
X3966577Y-955289D02*
X3964172Y-954714D01*
X3344063Y-4950843D02*
X3345626Y-4955536D01*
X1429470Y-2748919D02*
X1424601Y-2749519D01*
X5381343Y-2222301D02*
X5380504Y-2219975D01*
X5673789Y-3082844D02*
X5676995Y-3086561D01*
X5676995Y-6913439D02*
X5673789Y-6917156D01*
X5502932Y-6908322D02*
X5500124Y-6904198D01*
X3652944Y-5039602D02*
X3651887Y-5034853D01*
X3697803Y-4899188D02*
X3702012Y-4896750D01*
X1869415Y-1741522D02*
X1815451Y-1821479D01*
X1497923Y-2705600D02*
X1495096Y-2709609D01*
X1395399Y-2749880D02*
X1390504Y-2749518D01*
X2359436Y-8743073D02*
X2361468Y-8744482D01*
X5695388Y-3120971D02*
X5696697Y-3125702D01*
X2058652Y-1513177D02*
X1993457Y-1584276D01*
X4428536Y-8871195D02*
X4512860Y-8824347D01*
X3655845Y-9433536D02*
X3654306Y-9428876D01*
X5540748Y-7259916D02*
X5545295Y-7257863D01*
X3344063Y-9150843D02*
X3345626Y-9155536D01*
X1573642Y-2361295D02*
X1572977Y-2363677D01*
X5655251Y-3066853D02*
X5659264Y-3069679D01*
X3659433Y-5057915D02*
X3657478Y-5053460D01*
X5412556Y-2316185D02*
X5411832Y-2313820D01*
X3323704Y-882798D02*
X3320272Y-886360D01*
X5158128Y-1782200D02*
X5156745Y-1780151D01*
X1333150Y-6924095D02*
X1329595Y-6920711D01*
X3686560Y-522852D02*
X3690430Y-519832D01*
X1453054Y-7257604D02*
X1457539Y-7259591D01*
X5685467Y-3098590D02*
X5687886Y-3102860D01*
X3654230Y-9155707D02*
X3655743Y-9151084D01*
X3772183Y-9081320D02*
X3867402Y-9065876D01*
X1380797Y-9497926D02*
X1376008Y-9496850D01*
X5693848Y-9433536D02*
X5692082Y-9438115D01*
X1717146Y-6193135D02*
X1716026Y-6195340D01*
X5485666Y-3132728D02*
X5486650Y-3127837D01*
X5531988Y-7264690D02*
X5536308Y-7262194D01*
X3330020Y-875186D02*
X3326956Y-879070D01*
X3672311Y-878480D02*
X3669341Y-874628D01*
X1302227Y-7330491D02*
X1303303Y-7325702D01*
X3180723Y-925630D02*
X3178282Y-926026D01*
X3706336Y-905480D02*
X3702012Y-903250D01*
X5670405Y-6920711D02*
X5666850Y-6924095D01*
X1357550Y-509754D02*
X1362037Y-507765D01*
X4156405Y-1010923D02*
X4154068Y-1010113D01*
X5460872Y-2508006D02*
X5460386Y-2505581D01*
X5614367Y-501235D02*
X5619203Y-502074D01*
X5690093Y-9442603D02*
X5687886Y-9446987D01*
X2704729Y-8935187D02*
X2706999Y-8936168D01*
X2889909Y-995258D02*
X2798775Y-1026877D01*
X5584163Y-2750000D02*
X5579175Y-2749876D01*
X1424601Y-6949519D02*
X1419709Y-6949880D01*
X2614945Y-4693627D02*
X2617164Y-4694720D01*
X4596896Y-8772132D02*
X4598963Y-8770774D01*
X5554668Y-3054449D02*
X5559471Y-3053096D01*
X3282778Y-5109689D02*
X3278065Y-5111194D01*
X1300426Y-2654907D02*
X1300306Y-2650000D01*
X1439090Y-2747006D02*
X1434303Y-2748081D01*
X4062179Y-4819242D02*
X4154068Y-4789887D01*
X5038013Y-1621934D02*
X4974598Y-1549245D01*
X5039593Y-5823837D02*
X5038013Y-5821934D01*
X3659433Y-9142085D02*
X3661602Y-9137731D01*
X3659601Y-9442603D02*
X3657612Y-9438115D01*
X2529488Y-1151120D02*
X2527326Y-1152321D01*
X5697772Y-7330491D02*
X5698612Y-7335327D01*
X5491046Y-6886458D02*
X5489344Y-6881768D01*
X1474348Y-3069659D02*
X1478216Y-3072676D01*
X3650118Y-4979621D02*
X3650473Y-4974769D01*
X3720971Y-9495541D02*
X3716311Y-9494001D01*
X3297140Y-9488039D02*
X3292755Y-9490246D01*
X3772183Y-918680D02*
X3769732Y-918344D01*
X1762948Y-1908238D02*
X1717146Y-1993135D01*
X3320711Y-9470558D02*
X3317156Y-9473942D01*
X3340250Y-858283D02*
X3338009Y-862694D01*
X5345526Y-7869924D02*
X5380504Y-7780025D01*
X3685953Y-9107685D02*
X3689763Y-9104662D01*
X3342269Y-4946233D02*
X3344063Y-4950843D01*
X1362037Y-6942388D02*
X1357550Y-6940399D01*
X2706999Y-5263832D02*
X2704729Y-5264813D01*
X1317159Y-9455404D02*
X1314533Y-9451257D01*
X1549358Y-2457205D02*
X1548812Y-2459617D01*
X1511791Y-7325634D02*
X1512869Y-7330420D01*
X3659433Y-857915D02*
X3657478Y-853460D01*
X1512869Y-6869580D02*
X1511791Y-6874365D01*
X1366617Y-7255845D02*
X1371277Y-7254306D01*
X1302227Y-580644D02*
X1303303Y-575855D01*
X5655251Y-6933147D02*
X5651104Y-6935773D01*
X2987242Y-9033203D02*
X3081055Y-9055664D01*
X1314533Y-9451257D02*
X1312114Y-9446987D01*
X5693848Y-7316311D02*
X5695388Y-7320971D01*
X3316667Y-4910252D02*
X3320272Y-4913640D01*
X4832104Y-4391497D02*
X4833947Y-4389848D01*
X2204583Y-8623997D02*
X2279575Y-8684673D01*
X3300712Y-5101401D02*
X3296388Y-5103803D01*
X3715282Y-5109296D02*
X3710762Y-5107497D01*
X5685467Y-548743D02*
X5687886Y-553013D01*
X4154068Y-5210113D02*
X4062179Y-5180758D01*
X1385633Y-2748918D02*
X1380797Y-2748079D01*
X3269509Y-9497926D02*
X3264673Y-9498765D01*
X3729289Y-913348D02*
X3724556Y-912225D01*
X5304127Y-2037503D02*
X5260440Y-1951499D01*
X1511791Y-3125634D02*
X1512869Y-3130420D01*
X3330020Y-9124814D02*
X3332888Y-9128844D01*
X1505178Y-2692809D02*
X1502970Y-2697190D01*
X3344063Y-5049157D02*
X3342269Y-5053767D01*
X3342388Y-561885D02*
X3344154Y-566464D01*
X1390504Y-6949518D02*
X1385633Y-6948918D01*
X3269509Y-502074D02*
X3274298Y-503150D01*
X3697803Y-5100812D02*
X3693716Y-5098173D01*
X5680015Y-6909570D02*
X5676995Y-6913439D01*
X2442087Y-8797453D02*
X2444187Y-8798759D01*
X3745093Y-500273D02*
X3750000Y-500153D01*
X5696697Y-7325702D02*
X5697772Y-7330491D01*
X3675905Y-9467003D02*
X3672699Y-9463286D01*
X4428536Y-5328805D02*
X4426345Y-5327658D01*
X3335553Y-4933012D02*
X3338009Y-4937306D01*
X1312114Y-7302860D02*
X1314533Y-7298590D01*
X5697772Y-3130491D02*
X5698612Y-3135327D01*
X5260440Y-6151499D02*
X5259265Y-6149322D01*
X3966577Y-4844711D02*
X4059806Y-4819936D01*
X1497923Y-7294400D02*
X1500550Y-7298543D01*
X3300712Y-4898599D02*
X3304913Y-4901213D01*
X3312900Y-4907046D02*
X3316667Y-4910252D01*
X1443818Y-6945698D02*
X1439090Y-6947006D01*
X1353166Y-3061808D02*
X1357550Y-3059601D01*
X1376008Y-7252997D02*
X1380797Y-7251921D01*
X5609496Y-500634D02*
X5614367Y-501235D01*
X5673789Y-6917156D02*
X5670405Y-6920711D01*
X2359436Y-4543073D02*
X2361468Y-4544482D01*
X3349877Y-820159D02*
X3349511Y-825092D01*
X1307918Y-3111731D02*
X1309907Y-3107244D01*
X1303303Y-2674298D02*
X1302227Y-2669509D01*
X3869833Y-5134580D02*
X3867402Y-5134124D01*
X5599694Y-9499847D02*
X3750000Y-9499847D01*
X1366617Y-6944154D02*
X1362037Y-6942388D01*
X5574200Y-6949502D02*
X5569249Y-6948881D01*
X5609496Y-7250481D02*
X5614367Y-7251082D01*
X5381343Y-6422301D02*
X5380504Y-6419975D01*
X5682841Y-3094443D02*
X5685467Y-3098590D01*
X1348896Y-6935773D02*
X1344749Y-6933147D01*
X3348900Y-5030001D02*
X3348048Y-5034874D01*
X5211378Y-6065584D02*
X5210098Y-6063468D01*
X5614367Y-6948918D02*
X5609496Y-6949518D01*
X1529846Y-3245802D02*
X1548812Y-3340383D01*
X5564335Y-2748015D02*
X5559471Y-2746904D01*
X2798775Y-5226877D02*
X2796459Y-5227745D01*
X3650000Y-600153D02*
X3650120Y-595246D01*
X4339808Y-8914962D02*
X4426345Y-8872342D01*
X5411832Y-6513820D02*
X5381343Y-6422301D01*
X1636280Y-2173662D02*
X1635383Y-2175967D01*
X3740198Y-500634D02*
X3745093Y-500273D01*
X29Y-29D02*
X0Y-1227D01*
X1549358Y-3342795D02*
X1572977Y-3436323D01*
X5485666Y-7332728D02*
X5486650Y-7327837D01*
X5628722Y-6945694D02*
X5623992Y-6947003D01*
X5259265Y-3850678D02*
X5260440Y-3848501D01*
X1314533Y-2701410D02*
X1312114Y-2697140D01*
X4426345Y-8872342D02*
X4428536Y-8871195D01*
X3686560Y-9477148D02*
X3682844Y-9473942D01*
X1319985Y-2709570D02*
X1317159Y-2705557D01*
X3664227Y-9451257D02*
X3661808Y-9446987D01*
X3650118Y-5020379D02*
X3650000Y-5015516D01*
X5623992Y-7252997D02*
X5628722Y-7254306D01*
X5579175Y-6949875D02*
X5574200Y-6949502D01*
X3309570Y-9480168D02*
X3305557Y-9482994D01*
X5687886Y-6897140D02*
X5685467Y-6901410D01*
X3268446Y-9086503D02*
X3273284Y-9087535D01*
X1488870Y-2717188D02*
X1485486Y-2720740D01*
X3682844Y-526058D02*
X3686560Y-522852D01*
X1601858Y-2269050D02*
X1573642Y-2361295D01*
X2529488Y-5351120D02*
X2527326Y-5352321D01*
X5642449Y-9490246D02*
X5637962Y-9492235D01*
X5439087Y-3388502D02*
X5460386Y-3294419D01*
X3724556Y-5112225D02*
X3719883Y-5110873D01*
X5489344Y-7318231D02*
X5491046Y-7313541D01*
X1815451Y-3978520D02*
X1869415Y-4058478D01*
X1317159Y-2705557D02*
X1314533Y-2701410D01*
X5487877Y-3123001D02*
X5489344Y-3118231D01*
X2614945Y-5306373D02*
X2529488Y-5351120D01*
X1371277Y-7254306D02*
X1376008Y-7252997D01*
X5559471Y-3053096D02*
X5564335Y-3051985D01*
X1300426Y-9404754D02*
X1300306Y-9399847D01*
X1424601Y-3050481D02*
X1429470Y-3051081D01*
X4833947Y-8589848D02*
X4904233Y-8523779D01*
X5439087Y-2411498D02*
X5438481Y-2409100D01*
X5099336Y-4100426D02*
X5100819Y-4098447D01*
X5637962Y-3057612D02*
X5642449Y-3059601D01*
X5536308Y-2737806D02*
X5531988Y-2735310D01*
X2798775Y-8973123D02*
X2889909Y-9004742D01*
X3654306Y-9428876D02*
X3652997Y-9424145D01*
X3702860Y-9488039D02*
X3698590Y-9485620D01*
X3682294Y-5089109D02*
X3678795Y-5085729D01*
X5304127Y-7962497D02*
X5305192Y-7960265D01*
X3308978Y-895969D02*
X3304913Y-898787D01*
X3650473Y-825231D02*
X3650118Y-820379D01*
X3651063Y-9169941D02*
X3651887Y-9165147D01*
X3661808Y-553013D02*
X3664227Y-548743D01*
X3657478Y-5053460D02*
X3655743Y-5048916D01*
X2058652Y-4286823D02*
X2060368Y-4288603D01*
X4974598Y-8450755D02*
X5038013Y-8378066D01*
X5486650Y-2672163D02*
X5485666Y-2667272D01*
X1991831Y-1586139D02*
X1930233Y-1660375D01*
X5497525Y-6899938D02*
X5495142Y-6895555D01*
X5569249Y-6948881D02*
X5564335Y-6948014D01*
X5651104Y-6935773D02*
X5646834Y-6938192D01*
X3693716Y-898173D02*
X3689763Y-895338D01*
X5484927Y-2662337D02*
X5477858Y-2605473D01*
X1470336Y-2733164D02*
X1466190Y-2735787D01*
X5564335Y-3051985D02*
X5569249Y-3051118D01*
X3651887Y-5034853D02*
X3651063Y-5030059D01*
X1344749Y-7266853D02*
X1348896Y-7264227D01*
X3349879Y-9404754D02*
X3349518Y-9409649D01*
X1314533Y-6901410D02*
X1312114Y-6897140D01*
X3702012Y-9096750D02*
X3706336Y-9094520D01*
X4905993Y-5677958D02*
X4904233Y-5676220D01*
X3250000Y-9499847D02*
X1400306Y-9499847D01*
X3734071Y-9085761D02*
X3738891Y-9085103D01*
X3725702Y-503150D02*
X3730491Y-502074D01*
X1304612Y-6879028D02*
X1303303Y-6874298D01*
X3333147Y-544596D02*
X3335773Y-548743D01*
X0Y-9998773D02*
X29Y-9999970D01*
X4514992Y-8823093D02*
X4596896Y-8772132D01*
X1306151Y-566464D02*
X1307918Y-561885D01*
X1461921Y-7261796D02*
X1466190Y-7264212D01*
X1300787Y-6859802D02*
X1300426Y-6854907D01*
X3655743Y-5048916D02*
X3654230Y-5044293D01*
X3650000Y-9184484D02*
X3650118Y-9179621D01*
X5599694Y-500153D02*
X5604601Y-500273D01*
X1329595Y-3079289D02*
X1333150Y-3075905D01*
X5412556Y-6516185D02*
X5411832Y-6513820D01*
X3178282Y-4873974D02*
X3180723Y-4874370D01*
X5699694Y-6850000D02*
X5699573Y-6854907D01*
X1323005Y-9463286D02*
X1319985Y-9459417D01*
X3308978Y-9104031D02*
X3312900Y-9107046D01*
X3869833Y-4865420D02*
X3964172Y-4845286D01*
X1443818Y-3054301D02*
X1448477Y-3055839D01*
X1674480Y-6282398D02*
X1673470Y-6284656D01*
X1348896Y-514380D02*
X1353166Y-511961D01*
X1514315Y-6859879D02*
X1513711Y-6864747D01*
X4514992Y-4623093D02*
X4596896Y-4572132D01*
X3652997Y-575855D02*
X3654306Y-571124D01*
X1300306Y-9399847D02*
X1300306Y-7350000D01*
X5699694Y-9399847D02*
X5699573Y-9404754D01*
X2444187Y-4598759D02*
X2527326Y-4647679D01*
X5619203Y-3051921D02*
X5623992Y-3052997D01*
X1485486Y-7279260D02*
X1488870Y-7282812D01*
X2889909Y-5195258D02*
X2798775Y-5226877D01*
X3320272Y-4913640D02*
X3323704Y-4917202D01*
X1395399Y-6949879D02*
X1390504Y-6949518D01*
X1304612Y-571124D02*
X1306151Y-566464D01*
X5676995Y-536714D02*
X5680015Y-540583D01*
X1348896Y-3064227D02*
X1353166Y-3061808D01*
X3274298Y-9496850D02*
X3269509Y-9497926D01*
X1505178Y-3107191D02*
X1507169Y-3111674D01*
X3661602Y-9137731D02*
X3663980Y-9133487D01*
X1380797Y-2748079D02*
X1376008Y-2747003D01*
X1814119Y-1823563D02*
X1764175Y-1906091D01*
X1453054Y-3057604D02*
X1457539Y-3059591D01*
X1513711Y-2664747D02*
X1512869Y-2669580D01*
X5380504Y-3580025D02*
X5381343Y-3577699D01*
X1495096Y-7290391D02*
X1497923Y-7294400D01*
X5646834Y-6938192D02*
X5642449Y-6940399D01*
X4596896Y-1227868D02*
X4514992Y-1176907D01*
X1344749Y-6933147D02*
X1340736Y-6930321D01*
X1673470Y-2084656D02*
X1636280Y-2173662D01*
X1502970Y-2697190D02*
X1500550Y-2701457D01*
X4246730Y-4755213D02*
X4249023Y-4754288D01*
X5574200Y-7250497D02*
X5579175Y-7250124D01*
X3278065Y-4888806D02*
X3282778Y-4890311D01*
X4758636Y-5545991D02*
X4756713Y-5544435D01*
X1930233Y-1660375D02*
X1928701Y-1662316D01*
X3081055Y-944336D02*
X2987242Y-966797D01*
X5485666Y-6867271D02*
X5484927Y-6862337D01*
X5696697Y-9424145D02*
X5695388Y-9428876D01*
X1443818Y-2745699D02*
X1439090Y-2747006D01*
X4832104Y-1408503D02*
X4758636Y-1345991D01*
X3750000Y-500153D02*
X5599694Y-500153D01*
X5682841Y-6905557D02*
X5680015Y-6909570D01*
X5685467Y-9451257D02*
X5682841Y-9455404D01*
X5690093Y-557397D02*
X5692082Y-561885D01*
X4756713Y-8655565D02*
X4758636Y-8654009D01*
X5344573Y-2127794D02*
X5305192Y-2039735D01*
X5642449Y-509754D02*
X5646834Y-511961D01*
X5564335Y-7251985D02*
X5569249Y-7251118D01*
X3342269Y-5053767D02*
X3340250Y-5058283D01*
X1511791Y-6874365D02*
X1510479Y-6879093D01*
X1508937Y-7316250D02*
X1510479Y-7320907D01*
X1371277Y-2745694D02*
X1366617Y-2744154D01*
X2361468Y-5455518D02*
X2359436Y-5456927D01*
X1357550Y-9490246D02*
X1353166Y-9488039D01*
X5692082Y-2688268D02*
X5690093Y-2692756D01*
X5690093Y-2692756D02*
X5687886Y-2697140D01*
X1340736Y-9480168D02*
X1336867Y-9477148D01*
X5680015Y-540583D02*
X5682841Y-544596D01*
X1429470Y-6948919D02*
X1424601Y-6949519D01*
X3350000Y-9184787D02*
X3350000Y-9399847D01*
X5692082Y-561885D02*
X5693848Y-566464D01*
X1390504Y-9499365D02*
X1385633Y-9498765D01*
X2529488Y-4648880D02*
X2614945Y-4693627D01*
X5663133Y-7272699D02*
X5666850Y-7275905D01*
X1930233Y-8339625D02*
X1991831Y-8413861D01*
X5211378Y-8134416D02*
X5259265Y-8050678D01*
X1304612Y-3120971D02*
X1306151Y-3116311D01*
X1300787Y-7340198D02*
X1301388Y-7335327D01*
X5497525Y-2699938D02*
X5495142Y-2695555D01*
X1380797Y-502074D02*
X1385633Y-501235D01*
X3081055Y-4855664D02*
X3083473Y-4856180D01*
D11*
D10*
X1455331Y-2824622D02*
X1505331Y-2874622D01*
X1505331Y-2824622D02*
X1455331Y-2874622D01*
X1455331Y-7024622D02*
X1505331Y-7074622D01*
X1505331Y-7024622D02*
X1455331Y-7074622D01*
X1455351Y-2925377D02*
X1505351Y-2975377D01*
X1505351Y-2925377D02*
X1455351Y-2975377D01*
X1455351Y-7125377D02*
X1505351Y-7175377D01*
X1505351Y-7125377D02*
X1455351Y-7175377D01*
X1460394Y-2723994D02*
X1510394Y-2773994D01*
X1510394Y-2723994D02*
X1460394Y-2773994D01*
X1460394Y-3026006D02*
X1510394Y-3076006D01*
X1510394Y-3026006D02*
X1460394Y-3076006D01*
X1460394Y-6923994D02*
X1510394Y-6973994D01*
X1510394Y-6923994D02*
X1460394Y-6973994D01*
X1460394Y-7226006D02*
X1510394Y-7276006D01*
X1510394Y-7226006D02*
X1460394Y-7276006D01*
X3323271Y-861163D02*
X3373271Y-911163D01*
X3373271Y-861163D02*
X3323271Y-911163D01*
X3323271Y-4888837D02*
X3373271Y-4938837D01*
X3373271Y-4888837D02*
X3323271Y-4938837D01*
X3323271Y-5061163D02*
X3373271Y-5111163D01*
X3373271Y-5061163D02*
X3323271Y-5111163D01*
X3323271Y-9088837D02*
X3373271Y-9138837D01*
X3373271Y-9088837D02*
X3323271Y-9138837D01*
X3424216Y-856113D02*
X3474216Y-906113D01*
X3474216Y-856113D02*
X3424216Y-906113D01*
X3424216Y-4893887D02*
X3474216Y-4943887D01*
X3474216Y-4893887D02*
X3424216Y-4943887D01*
X3424216Y-5056113D02*
X3474216Y-5106113D01*
X3474216Y-5056113D02*
X3424216Y-5106113D01*
X3424216Y-9093887D02*
X3474216Y-9143887D01*
X3474216Y-9093887D02*
X3424216Y-9143887D01*
X3525288Y-856083D02*
X3575288Y-906083D01*
X3575288Y-856083D02*
X3525288Y-906083D01*
X3525288Y-4893917D02*
X3575288Y-4943917D01*
X3575288Y-4893917D02*
X3525288Y-4943917D01*
X3525288Y-5056083D02*
X3575288Y-5106083D01*
X3575288Y-5056083D02*
X3525288Y-5106083D01*
X3525288Y-9093917D02*
X3575288Y-9143917D01*
X3575288Y-9093917D02*
X3525288Y-9143917D01*
X3626236Y-861128D02*
X3676236Y-911128D01*
X3676236Y-861128D02*
X3626236Y-911128D01*
X3626236Y-4888872D02*
X3676236Y-4938872D01*
X3676236Y-4888872D02*
X3626236Y-4938872D01*
X3626236Y-5061128D02*
X3676236Y-5111128D01*
X3676236Y-5061128D02*
X3626236Y-5111128D01*
X3626236Y-9088872D02*
X3676236Y-9138872D01*
X3676236Y-9088872D02*
X3626236Y-9138872D01*
X5488393Y-2723517D02*
X5538393Y-2773517D01*
X5538393Y-2723517D02*
X5488393Y-2773517D01*
X5488393Y-3026483D02*
X5538393Y-3076483D01*
X5538393Y-3026483D02*
X5488393Y-3076483D01*
X5488393Y-6923517D02*
X5538393Y-6973517D01*
X5538393Y-6923517D02*
X5488393Y-6973517D01*
X5488393Y-7226483D02*
X5538393Y-7276483D01*
X5538393Y-7226483D02*
X5488393Y-7276483D01*
X5493438Y-2925536D02*
X5543438Y-2975536D01*
X5543438Y-2925536D02*
X5493438Y-2975536D01*
X5493438Y-7125536D02*
X5543438Y-7175536D01*
X5543438Y-7125536D02*
X5493438Y-7175536D01*
X5493450Y-2824464D02*
X5543450Y-2874464D01*
X5543450Y-2824464D02*
X5493450Y-2874464D01*
X5493450Y-7024463D02*
X5543450Y-7074463D01*
X5543450Y-7024463D02*
X5493450Y-7074463D01*
D11*
X100000Y0D02*
G75*
G03*
X-100000Y0I-100000J0D01*
G01*
X-100000Y0D02*
G75*
G03*
X100000Y0I100000J0D01*
G01*
X100000Y-10000000D02*
G75*
G03*
X-100000Y-10000000I-100000J0D01*
G01*
X-100000Y-10000000D02*
G75*
G03*
X100000Y-10000000I100000J0D01*
G01*
X7100000Y0D02*
G75*
G03*
X6900000Y0I-100000J0D01*
G01*
X6900000Y0D02*
G75*
G03*
X7100000Y0I100000J0D01*
G01*
X255777Y-10316484D02*
X255777Y-10116484D01*
X255777Y-10116484D02*
X303396Y-10116484D01*
X303396Y-10116484D02*
X331967Y-10126008D01*
X331967Y-10126008D02*
X351015Y-10145055D01*
X351015Y-10145055D02*
X360539Y-10164103D01*
X360539Y-10164103D02*
X370062Y-10202198D01*
X370062Y-10202198D02*
X370062Y-10230770D01*
X370062Y-10230770D02*
X360539Y-10268865D01*
X360539Y-10268865D02*
X351015Y-10287912D01*
X351015Y-10287912D02*
X331967Y-10306960D01*
X331967Y-10306960D02*
X303396Y-10316484D01*
X303396Y-10316484D02*
X255777Y-10316484D01*
X455777Y-10316484D02*
X455777Y-10183150D01*
X455777Y-10221246D02*
X465301Y-10202198D01*
X465301Y-10202198D02*
X474824Y-10192674D01*
X474824Y-10192674D02*
X493872Y-10183150D01*
X493872Y-10183150D02*
X512920Y-10183150D01*
X579586Y-10316484D02*
X579586Y-10183150D01*
X579586Y-10116484D02*
X570063Y-10126008D01*
X570063Y-10126008D02*
X579586Y-10135531D01*
X579586Y-10135531D02*
X589110Y-10126008D01*
X589110Y-10126008D02*
X579586Y-10116484D01*
X579586Y-10116484D02*
X579586Y-10135531D01*
X703396Y-10316484D02*
X684348Y-10306960D01*
X684348Y-10306960D02*
X674824Y-10287912D01*
X674824Y-10287912D02*
X674824Y-10116484D01*
X808158Y-10316484D02*
X789110Y-10306960D01*
X789110Y-10306960D02*
X779586Y-10287912D01*
X779586Y-10287912D02*
X779586Y-10116484D01*
X1036729Y-10316484D02*
X1036729Y-10116484D01*
X1036729Y-10116484D02*
X1103396Y-10259341D01*
X1103396Y-10259341D02*
X1170063Y-10116484D01*
X1170063Y-10116484D02*
X1170063Y-10316484D01*
X1351015Y-10316484D02*
X1351015Y-10211722D01*
X1351015Y-10211722D02*
X1341491Y-10192674D01*
X1341491Y-10192674D02*
X1322444Y-10183150D01*
X1322444Y-10183150D02*
X1284348Y-10183150D01*
X1284348Y-10183150D02*
X1265301Y-10192674D01*
X1351015Y-10306960D02*
X1331967Y-10316484D01*
X1331967Y-10316484D02*
X1284348Y-10316484D01*
X1284348Y-10316484D02*
X1265301Y-10306960D01*
X1265301Y-10306960D02*
X1255777Y-10287912D01*
X1255777Y-10287912D02*
X1255777Y-10268865D01*
X1255777Y-10268865D02*
X1265301Y-10249817D01*
X1265301Y-10249817D02*
X1284348Y-10240293D01*
X1284348Y-10240293D02*
X1331967Y-10240293D01*
X1331967Y-10240293D02*
X1351015Y-10230770D01*
X1446253Y-10183150D02*
X1446253Y-10383150D01*
X1446253Y-10192674D02*
X1465301Y-10183150D01*
X1465301Y-10183150D02*
X1503396Y-10183150D01*
X1503396Y-10183150D02*
X1522443Y-10192674D01*
X1522443Y-10192674D02*
X1531967Y-10202198D01*
X1531967Y-10202198D02*
X1541491Y-10221246D01*
X1541491Y-10221246D02*
X1541491Y-10278389D01*
X1541491Y-10278389D02*
X1531967Y-10297436D01*
X1531967Y-10297436D02*
X1522443Y-10306960D01*
X1522443Y-10306960D02*
X1503396Y-10316484D01*
X1503396Y-10316484D02*
X1465301Y-10316484D01*
X1465301Y-10316484D02*
X1446253Y-10306960D01*
X1627205Y-10297436D02*
X1636729Y-10306960D01*
X1636729Y-10306960D02*
X1627205Y-10316484D01*
X1627205Y-10316484D02*
X1617682Y-10306960D01*
X1617682Y-10306960D02*
X1627205Y-10297436D01*
X1627205Y-10297436D02*
X1627205Y-10316484D01*
X1627205Y-10192674D02*
X1636729Y-10202198D01*
X1636729Y-10202198D02*
X1627205Y-10211722D01*
X1627205Y-10211722D02*
X1617682Y-10202198D01*
X1617682Y-10202198D02*
X1627205Y-10192674D01*
X1627205Y-10192674D02*
X1627205Y-10211722D01*
D10*
X-55000Y-10620000D02*
X-5000Y-10670000D01*
X-5000Y-10620000D02*
X-55000Y-10670000D01*
D11*
X293872Y-10536484D02*
X312920Y-10536484D01*
X312920Y-10536484D02*
X331967Y-10546008D01*
X331967Y-10546008D02*
X341491Y-10555531D01*
X341491Y-10555531D02*
X351015Y-10574579D01*
X351015Y-10574579D02*
X360539Y-10612674D01*
X360539Y-10612674D02*
X360539Y-10660293D01*
X360539Y-10660293D02*
X351015Y-10698389D01*
X351015Y-10698389D02*
X341491Y-10717436D01*
X341491Y-10717436D02*
X331967Y-10726960D01*
X331967Y-10726960D02*
X312920Y-10736484D01*
X312920Y-10736484D02*
X293872Y-10736484D01*
X293872Y-10736484D02*
X274824Y-10726960D01*
X274824Y-10726960D02*
X265301Y-10717436D01*
X265301Y-10717436D02*
X255777Y-10698389D01*
X255777Y-10698389D02*
X246253Y-10660293D01*
X246253Y-10660293D02*
X246253Y-10612674D01*
X246253Y-10612674D02*
X255777Y-10574579D01*
X255777Y-10574579D02*
X265301Y-10555531D01*
X265301Y-10555531D02*
X274824Y-10546008D01*
X274824Y-10546008D02*
X293872Y-10536484D01*
X446253Y-10717436D02*
X455777Y-10726960D01*
X455777Y-10726960D02*
X446253Y-10736484D01*
X446253Y-10736484D02*
X436729Y-10726960D01*
X436729Y-10726960D02*
X446253Y-10717436D01*
X446253Y-10717436D02*
X446253Y-10736484D01*
X636729Y-10536484D02*
X541491Y-10536484D01*
X541491Y-10536484D02*
X531967Y-10631722D01*
X531967Y-10631722D02*
X541491Y-10622198D01*
X541491Y-10622198D02*
X560539Y-10612674D01*
X560539Y-10612674D02*
X608158Y-10612674D01*
X608158Y-10612674D02*
X627205Y-10622198D01*
X627205Y-10622198D02*
X636729Y-10631722D01*
X636729Y-10631722D02*
X646253Y-10650770D01*
X646253Y-10650770D02*
X646253Y-10698389D01*
X646253Y-10698389D02*
X636729Y-10717436D01*
X636729Y-10717436D02*
X627205Y-10726960D01*
X627205Y-10726960D02*
X608158Y-10736484D01*
X608158Y-10736484D02*
X560539Y-10736484D01*
X560539Y-10736484D02*
X541491Y-10726960D01*
X541491Y-10726960D02*
X531967Y-10717436D01*
X770062Y-10536484D02*
X789110Y-10536484D01*
X789110Y-10536484D02*
X808158Y-10546008D01*
X808158Y-10546008D02*
X817682Y-10555531D01*
X817682Y-10555531D02*
X827205Y-10574579D01*
X827205Y-10574579D02*
X836729Y-10612674D01*
X836729Y-10612674D02*
X836729Y-10660293D01*
X836729Y-10660293D02*
X827205Y-10698389D01*
X827205Y-10698389D02*
X817682Y-10717436D01*
X817682Y-10717436D02*
X808158Y-10726960D01*
X808158Y-10726960D02*
X789110Y-10736484D01*
X789110Y-10736484D02*
X770062Y-10736484D01*
X770062Y-10736484D02*
X751015Y-10726960D01*
X751015Y-10726960D02*
X741491Y-10717436D01*
X741491Y-10717436D02*
X731967Y-10698389D01*
X731967Y-10698389D02*
X722443Y-10660293D01*
X722443Y-10660293D02*
X722443Y-10612674D01*
X722443Y-10612674D02*
X731967Y-10574579D01*
X731967Y-10574579D02*
X741491Y-10555531D01*
X741491Y-10555531D02*
X751015Y-10546008D01*
X751015Y-10546008D02*
X770062Y-10536484D01*
X960539Y-10536484D02*
X979586Y-10536484D01*
X979586Y-10536484D02*
X998634Y-10546008D01*
X998634Y-10546008D02*
X1008158Y-10555531D01*
X1008158Y-10555531D02*
X1017682Y-10574579D01*
X1017682Y-10574579D02*
X1027205Y-10612674D01*
X1027205Y-10612674D02*
X1027205Y-10660293D01*
X1027205Y-10660293D02*
X1017682Y-10698389D01*
X1017682Y-10698389D02*
X1008158Y-10717436D01*
X1008158Y-10717436D02*
X998634Y-10726960D01*
X998634Y-10726960D02*
X979586Y-10736484D01*
X979586Y-10736484D02*
X960539Y-10736484D01*
X960539Y-10736484D02*
X941491Y-10726960D01*
X941491Y-10726960D02*
X931967Y-10717436D01*
X931967Y-10717436D02*
X922443Y-10698389D01*
X922443Y-10698389D02*
X912920Y-10660293D01*
X912920Y-10660293D02*
X912920Y-10612674D01*
X912920Y-10612674D02*
X922443Y-10574579D01*
X922443Y-10574579D02*
X931967Y-10555531D01*
X931967Y-10555531D02*
X941491Y-10546008D01*
X941491Y-10546008D02*
X960539Y-10536484D01*
X1112920Y-10736484D02*
X1112920Y-10603150D01*
X1112920Y-10622198D02*
X1122444Y-10612674D01*
X1122444Y-10612674D02*
X1141491Y-10603150D01*
X1141491Y-10603150D02*
X1170063Y-10603150D01*
X1170063Y-10603150D02*
X1189110Y-10612674D01*
X1189110Y-10612674D02*
X1198634Y-10631722D01*
X1198634Y-10631722D02*
X1198634Y-10736484D01*
X1198634Y-10631722D02*
X1208158Y-10612674D01*
X1208158Y-10612674D02*
X1227205Y-10603150D01*
X1227205Y-10603150D02*
X1255777Y-10603150D01*
X1255777Y-10603150D02*
X1274825Y-10612674D01*
X1274825Y-10612674D02*
X1284348Y-10631722D01*
X1284348Y-10631722D02*
X1284348Y-10736484D01*
X1379586Y-10736484D02*
X1379586Y-10603150D01*
X1379586Y-10622198D02*
X1389110Y-10612674D01*
X1389110Y-10612674D02*
X1408158Y-10603150D01*
X1408158Y-10603150D02*
X1436729Y-10603150D01*
X1436729Y-10603150D02*
X1455777Y-10612674D01*
X1455777Y-10612674D02*
X1465301Y-10631722D01*
X1465301Y-10631722D02*
X1465301Y-10736484D01*
X1465301Y-10631722D02*
X1474824Y-10612674D01*
X1474824Y-10612674D02*
X1493872Y-10603150D01*
X1493872Y-10603150D02*
X1522443Y-10603150D01*
X1522443Y-10603150D02*
X1541491Y-10612674D01*
X1541491Y-10612674D02*
X1551015Y-10631722D01*
X1551015Y-10631722D02*
X1551015Y-10736484D01*
X1941491Y-10526960D02*
X1770063Y-10784103D01*
X2198634Y-10536484D02*
X2217682Y-10536484D01*
X2217682Y-10536484D02*
X2236729Y-10546008D01*
X2236729Y-10546008D02*
X2246253Y-10555531D01*
X2246253Y-10555531D02*
X2255777Y-10574579D01*
X2255777Y-10574579D02*
X2265301Y-10612674D01*
X2265301Y-10612674D02*
X2265301Y-10660293D01*
X2265301Y-10660293D02*
X2255777Y-10698389D01*
X2255777Y-10698389D02*
X2246253Y-10717436D01*
X2246253Y-10717436D02*
X2236729Y-10726960D01*
X2236729Y-10726960D02*
X2217682Y-10736484D01*
X2217682Y-10736484D02*
X2198634Y-10736484D01*
X2198634Y-10736484D02*
X2179587Y-10726960D01*
X2179587Y-10726960D02*
X2170063Y-10717436D01*
X2170063Y-10717436D02*
X2160539Y-10698389D01*
X2160539Y-10698389D02*
X2151015Y-10660293D01*
X2151015Y-10660293D02*
X2151015Y-10612674D01*
X2151015Y-10612674D02*
X2160539Y-10574579D01*
X2160539Y-10574579D02*
X2170063Y-10555531D01*
X2170063Y-10555531D02*
X2179587Y-10546008D01*
X2179587Y-10546008D02*
X2198634Y-10536484D01*
X2351015Y-10717436D02*
X2360539Y-10726960D01*
X2360539Y-10726960D02*
X2351015Y-10736484D01*
X2351015Y-10736484D02*
X2341491Y-10726960D01*
X2341491Y-10726960D02*
X2351015Y-10717436D01*
X2351015Y-10717436D02*
X2351015Y-10736484D01*
X2484348Y-10536484D02*
X2503396Y-10536484D01*
X2503396Y-10536484D02*
X2522444Y-10546008D01*
X2522444Y-10546008D02*
X2531968Y-10555531D01*
X2531968Y-10555531D02*
X2541491Y-10574579D01*
X2541491Y-10574579D02*
X2551015Y-10612674D01*
X2551015Y-10612674D02*
X2551015Y-10660293D01*
X2551015Y-10660293D02*
X2541491Y-10698389D01*
X2541491Y-10698389D02*
X2531968Y-10717436D01*
X2531968Y-10717436D02*
X2522444Y-10726960D01*
X2522444Y-10726960D02*
X2503396Y-10736484D01*
X2503396Y-10736484D02*
X2484348Y-10736484D01*
X2484348Y-10736484D02*
X2465301Y-10726960D01*
X2465301Y-10726960D02*
X2455777Y-10717436D01*
X2455777Y-10717436D02*
X2446253Y-10698389D01*
X2446253Y-10698389D02*
X2436729Y-10660293D01*
X2436729Y-10660293D02*
X2436729Y-10612674D01*
X2436729Y-10612674D02*
X2446253Y-10574579D01*
X2446253Y-10574579D02*
X2455777Y-10555531D01*
X2455777Y-10555531D02*
X2465301Y-10546008D01*
X2465301Y-10546008D02*
X2484348Y-10536484D01*
X2741491Y-10736484D02*
X2627206Y-10736484D01*
X2684348Y-10736484D02*
X2684348Y-10536484D01*
X2684348Y-10536484D02*
X2665301Y-10565055D01*
X2665301Y-10565055D02*
X2646253Y-10584103D01*
X2646253Y-10584103D02*
X2627206Y-10593627D01*
X2836729Y-10736484D02*
X2874825Y-10736484D01*
X2874825Y-10736484D02*
X2893872Y-10726960D01*
X2893872Y-10726960D02*
X2903396Y-10717436D01*
X2903396Y-10717436D02*
X2922444Y-10688865D01*
X2922444Y-10688865D02*
X2931967Y-10650770D01*
X2931967Y-10650770D02*
X2931967Y-10574579D01*
X2931967Y-10574579D02*
X2922444Y-10555531D01*
X2922444Y-10555531D02*
X2912920Y-10546008D01*
X2912920Y-10546008D02*
X2893872Y-10536484D01*
X2893872Y-10536484D02*
X2855777Y-10536484D01*
X2855777Y-10536484D02*
X2836729Y-10546008D01*
X2836729Y-10546008D02*
X2827206Y-10555531D01*
X2827206Y-10555531D02*
X2817682Y-10574579D01*
X2817682Y-10574579D02*
X2817682Y-10622198D01*
X2817682Y-10622198D02*
X2827206Y-10641246D01*
X2827206Y-10641246D02*
X2836729Y-10650770D01*
X2836729Y-10650770D02*
X2855777Y-10660293D01*
X2855777Y-10660293D02*
X2893872Y-10660293D01*
X2893872Y-10660293D02*
X2912920Y-10650770D01*
X2912920Y-10650770D02*
X2922444Y-10641246D01*
X2922444Y-10641246D02*
X2931967Y-10622198D01*
X2998634Y-10536484D02*
X3131967Y-10536484D01*
X3131967Y-10536484D02*
X3046253Y-10736484D01*
X3198634Y-10536484D02*
X3198634Y-10574579D01*
X3274825Y-10536484D02*
X3274825Y-10574579D01*
X3570063Y-10812674D02*
X3560539Y-10803150D01*
X3560539Y-10803150D02*
X3541491Y-10774579D01*
X3541491Y-10774579D02*
X3531968Y-10755531D01*
X3531968Y-10755531D02*
X3522444Y-10726960D01*
X3522444Y-10726960D02*
X3512920Y-10679341D01*
X3512920Y-10679341D02*
X3512920Y-10641246D01*
X3512920Y-10641246D02*
X3522444Y-10593627D01*
X3522444Y-10593627D02*
X3531968Y-10565055D01*
X3531968Y-10565055D02*
X3541491Y-10546008D01*
X3541491Y-10546008D02*
X3560539Y-10517436D01*
X3560539Y-10517436D02*
X3570063Y-10507912D01*
X3627206Y-10536484D02*
X3751015Y-10536484D01*
X3751015Y-10536484D02*
X3684348Y-10612674D01*
X3684348Y-10612674D02*
X3712920Y-10612674D01*
X3712920Y-10612674D02*
X3731968Y-10622198D01*
X3731968Y-10622198D02*
X3741491Y-10631722D01*
X3741491Y-10631722D02*
X3751015Y-10650770D01*
X3751015Y-10650770D02*
X3751015Y-10698389D01*
X3751015Y-10698389D02*
X3741491Y-10717436D01*
X3741491Y-10717436D02*
X3731968Y-10726960D01*
X3731968Y-10726960D02*
X3712920Y-10736484D01*
X3712920Y-10736484D02*
X3655777Y-10736484D01*
X3655777Y-10736484D02*
X3636729Y-10726960D01*
X3636729Y-10726960D02*
X3627206Y-10717436D01*
X3827206Y-10555531D02*
X3836729Y-10546008D01*
X3836729Y-10546008D02*
X3855777Y-10536484D01*
X3855777Y-10536484D02*
X3903396Y-10536484D01*
X3903396Y-10536484D02*
X3922444Y-10546008D01*
X3922444Y-10546008D02*
X3931968Y-10555531D01*
X3931968Y-10555531D02*
X3941491Y-10574579D01*
X3941491Y-10574579D02*
X3941491Y-10593627D01*
X3941491Y-10593627D02*
X3931968Y-10622198D01*
X3931968Y-10622198D02*
X3817682Y-10736484D01*
X3817682Y-10736484D02*
X3941491Y-10736484D01*
X4179587Y-10736484D02*
X4179587Y-10536484D01*
X4265301Y-10736484D02*
X4265301Y-10631722D01*
X4265301Y-10631722D02*
X4255777Y-10612674D01*
X4255777Y-10612674D02*
X4236730Y-10603150D01*
X4236730Y-10603150D02*
X4208158Y-10603150D01*
X4208158Y-10603150D02*
X4189110Y-10612674D01*
X4189110Y-10612674D02*
X4179587Y-10622198D01*
X4389111Y-10736484D02*
X4370063Y-10726960D01*
X4370063Y-10726960D02*
X4360539Y-10717436D01*
X4360539Y-10717436D02*
X4351015Y-10698389D01*
X4351015Y-10698389D02*
X4351015Y-10641246D01*
X4351015Y-10641246D02*
X4360539Y-10622198D01*
X4360539Y-10622198D02*
X4370063Y-10612674D01*
X4370063Y-10612674D02*
X4389111Y-10603150D01*
X4389111Y-10603150D02*
X4417682Y-10603150D01*
X4417682Y-10603150D02*
X4436730Y-10612674D01*
X4436730Y-10612674D02*
X4446253Y-10622198D01*
X4446253Y-10622198D02*
X4455777Y-10641246D01*
X4455777Y-10641246D02*
X4455777Y-10698389D01*
X4455777Y-10698389D02*
X4446253Y-10717436D01*
X4446253Y-10717436D02*
X4436730Y-10726960D01*
X4436730Y-10726960D02*
X4417682Y-10736484D01*
X4417682Y-10736484D02*
X4389111Y-10736484D01*
X4570063Y-10736484D02*
X4551015Y-10726960D01*
X4551015Y-10726960D02*
X4541492Y-10707912D01*
X4541492Y-10707912D02*
X4541492Y-10536484D01*
X4722444Y-10726960D02*
X4703396Y-10736484D01*
X4703396Y-10736484D02*
X4665301Y-10736484D01*
X4665301Y-10736484D02*
X4646253Y-10726960D01*
X4646253Y-10726960D02*
X4636730Y-10707912D01*
X4636730Y-10707912D02*
X4636730Y-10631722D01*
X4636730Y-10631722D02*
X4646253Y-10612674D01*
X4646253Y-10612674D02*
X4665301Y-10603150D01*
X4665301Y-10603150D02*
X4703396Y-10603150D01*
X4703396Y-10603150D02*
X4722444Y-10612674D01*
X4722444Y-10612674D02*
X4731968Y-10631722D01*
X4731968Y-10631722D02*
X4731968Y-10650770D01*
X4731968Y-10650770D02*
X4636730Y-10669817D01*
X4808158Y-10726960D02*
X4827206Y-10736484D01*
X4827206Y-10736484D02*
X4865301Y-10736484D01*
X4865301Y-10736484D02*
X4884349Y-10726960D01*
X4884349Y-10726960D02*
X4893873Y-10707912D01*
X4893873Y-10707912D02*
X4893873Y-10698389D01*
X4893873Y-10698389D02*
X4884349Y-10679341D01*
X4884349Y-10679341D02*
X4865301Y-10669817D01*
X4865301Y-10669817D02*
X4836730Y-10669817D01*
X4836730Y-10669817D02*
X4817682Y-10660293D01*
X4817682Y-10660293D02*
X4808158Y-10641246D01*
X4808158Y-10641246D02*
X4808158Y-10631722D01*
X4808158Y-10631722D02*
X4817682Y-10612674D01*
X4817682Y-10612674D02*
X4836730Y-10603150D01*
X4836730Y-10603150D02*
X4865301Y-10603150D01*
X4865301Y-10603150D02*
X4884349Y-10612674D01*
X4960539Y-10812674D02*
X4970063Y-10803150D01*
X4970063Y-10803150D02*
X4989111Y-10774579D01*
X4989111Y-10774579D02*
X4998634Y-10755531D01*
X4998634Y-10755531D02*
X5008158Y-10726960D01*
X5008158Y-10726960D02*
X5017682Y-10679341D01*
X5017682Y-10679341D02*
X5017682Y-10641246D01*
X5017682Y-10641246D02*
X5008158Y-10593627D01*
X5008158Y-10593627D02*
X4998634Y-10565055D01*
X4998634Y-10565055D02*
X4989111Y-10546008D01*
X4989111Y-10546008D02*
X4970063Y-10517436D01*
X4970063Y-10517436D02*
X4960539Y-10507912D01*
X5322444Y-10812674D02*
X5312920Y-10803150D01*
X5312920Y-10803150D02*
X5293873Y-10774579D01*
X5293873Y-10774579D02*
X5284349Y-10755531D01*
X5284349Y-10755531D02*
X5274825Y-10726960D01*
X5274825Y-10726960D02*
X5265301Y-10679341D01*
X5265301Y-10679341D02*
X5265301Y-10641246D01*
X5265301Y-10641246D02*
X5274825Y-10593627D01*
X5274825Y-10593627D02*
X5284349Y-10565055D01*
X5284349Y-10565055D02*
X5293873Y-10546008D01*
X5293873Y-10546008D02*
X5312920Y-10517436D01*
X5312920Y-10517436D02*
X5322444Y-10507912D01*
X5398634Y-10603150D02*
X5398634Y-10736484D01*
X5398634Y-10622198D02*
X5408158Y-10612674D01*
X5408158Y-10612674D02*
X5427206Y-10603150D01*
X5427206Y-10603150D02*
X5455777Y-10603150D01*
X5455777Y-10603150D02*
X5474825Y-10612674D01*
X5474825Y-10612674D02*
X5484349Y-10631722D01*
X5484349Y-10631722D02*
X5484349Y-10736484D01*
X5608158Y-10736484D02*
X5589111Y-10726960D01*
X5589111Y-10726960D02*
X5579587Y-10717436D01*
X5579587Y-10717436D02*
X5570063Y-10698389D01*
X5570063Y-10698389D02*
X5570063Y-10641246D01*
X5570063Y-10641246D02*
X5579587Y-10622198D01*
X5579587Y-10622198D02*
X5589111Y-10612674D01*
X5589111Y-10612674D02*
X5608158Y-10603150D01*
X5608158Y-10603150D02*
X5636730Y-10603150D01*
X5636730Y-10603150D02*
X5655777Y-10612674D01*
X5655777Y-10612674D02*
X5665301Y-10622198D01*
X5665301Y-10622198D02*
X5674825Y-10641246D01*
X5674825Y-10641246D02*
X5674825Y-10698389D01*
X5674825Y-10698389D02*
X5665301Y-10717436D01*
X5665301Y-10717436D02*
X5655777Y-10726960D01*
X5655777Y-10726960D02*
X5636730Y-10736484D01*
X5636730Y-10736484D02*
X5608158Y-10736484D01*
X5731968Y-10603150D02*
X5808158Y-10603150D01*
X5760539Y-10536484D02*
X5760539Y-10707912D01*
X5760539Y-10707912D02*
X5770063Y-10726960D01*
X5770063Y-10726960D02*
X5789111Y-10736484D01*
X5789111Y-10736484D02*
X5808158Y-10736484D01*
X6027206Y-10603150D02*
X6027206Y-10803150D01*
X6027206Y-10612674D02*
X6046253Y-10603150D01*
X6046253Y-10603150D02*
X6084349Y-10603150D01*
X6084349Y-10603150D02*
X6103396Y-10612674D01*
X6103396Y-10612674D02*
X6112920Y-10622198D01*
X6112920Y-10622198D02*
X6122444Y-10641246D01*
X6122444Y-10641246D02*
X6122444Y-10698389D01*
X6122444Y-10698389D02*
X6112920Y-10717436D01*
X6112920Y-10717436D02*
X6103396Y-10726960D01*
X6103396Y-10726960D02*
X6084349Y-10736484D01*
X6084349Y-10736484D02*
X6046253Y-10736484D01*
X6046253Y-10736484D02*
X6027206Y-10726960D01*
X6236730Y-10736484D02*
X6217682Y-10726960D01*
X6217682Y-10726960D02*
X6208158Y-10707912D01*
X6208158Y-10707912D02*
X6208158Y-10536484D01*
X6398634Y-10736484D02*
X6398634Y-10631722D01*
X6398634Y-10631722D02*
X6389111Y-10612674D01*
X6389111Y-10612674D02*
X6370063Y-10603150D01*
X6370063Y-10603150D02*
X6331968Y-10603150D01*
X6331968Y-10603150D02*
X6312920Y-10612674D01*
X6398634Y-10726960D02*
X6379587Y-10736484D01*
X6379587Y-10736484D02*
X6331968Y-10736484D01*
X6331968Y-10736484D02*
X6312920Y-10726960D01*
X6312920Y-10726960D02*
X6303396Y-10707912D01*
X6303396Y-10707912D02*
X6303396Y-10688865D01*
X6303396Y-10688865D02*
X6312920Y-10669817D01*
X6312920Y-10669817D02*
X6331968Y-10660293D01*
X6331968Y-10660293D02*
X6379587Y-10660293D01*
X6379587Y-10660293D02*
X6398634Y-10650770D01*
X6465301Y-10603150D02*
X6541492Y-10603150D01*
X6493873Y-10536484D02*
X6493873Y-10707912D01*
X6493873Y-10707912D02*
X6503396Y-10726960D01*
X6503396Y-10726960D02*
X6522444Y-10736484D01*
X6522444Y-10736484D02*
X6541492Y-10736484D01*
X6684349Y-10726960D02*
X6665301Y-10736484D01*
X6665301Y-10736484D02*
X6627206Y-10736484D01*
X6627206Y-10736484D02*
X6608158Y-10726960D01*
X6608158Y-10726960D02*
X6598634Y-10707912D01*
X6598634Y-10707912D02*
X6598634Y-10631722D01*
X6598634Y-10631722D02*
X6608158Y-10612674D01*
X6608158Y-10612674D02*
X6627206Y-10603150D01*
X6627206Y-10603150D02*
X6665301Y-10603150D01*
X6665301Y-10603150D02*
X6684349Y-10612674D01*
X6684349Y-10612674D02*
X6693873Y-10631722D01*
X6693873Y-10631722D02*
X6693873Y-10650770D01*
X6693873Y-10650770D02*
X6598634Y-10669817D01*
X6865301Y-10736484D02*
X6865301Y-10536484D01*
X6865301Y-10726960D02*
X6846254Y-10736484D01*
X6846254Y-10736484D02*
X6808158Y-10736484D01*
X6808158Y-10736484D02*
X6789111Y-10726960D01*
X6789111Y-10726960D02*
X6779587Y-10717436D01*
X6779587Y-10717436D02*
X6770063Y-10698389D01*
X6770063Y-10698389D02*
X6770063Y-10641246D01*
X6770063Y-10641246D02*
X6779587Y-10622198D01*
X6779587Y-10622198D02*
X6789111Y-10612674D01*
X6789111Y-10612674D02*
X6808158Y-10603150D01*
X6808158Y-10603150D02*
X6846254Y-10603150D01*
X6846254Y-10603150D02*
X6865301Y-10612674D01*
X6941492Y-10812674D02*
X6951015Y-10803150D01*
X6951015Y-10803150D02*
X6970063Y-10774579D01*
X6970063Y-10774579D02*
X6979587Y-10755531D01*
X6979587Y-10755531D02*
X6989111Y-10726960D01*
X6989111Y-10726960D02*
X6998634Y-10679341D01*
X6998634Y-10679341D02*
X6998634Y-10641246D01*
X6998634Y-10641246D02*
X6989111Y-10593627D01*
X6989111Y-10593627D02*
X6979587Y-10565055D01*
X6979587Y-10565055D02*
X6970063Y-10546008D01*
X6970063Y-10546008D02*
X6951015Y-10517436D01*
X6951015Y-10517436D02*
X6941492Y-10507912D01*
X-5000Y-10909000D02*
G75*
G03*
X-205000Y-10909000I-100000J0D01*
G01*
X-205000Y-10909000D02*
G75*
G03*
X-5000Y-10909000I100000J0D01*
G01*
X246253Y-10819531D02*
X255777Y-10810008D01*
X255777Y-10810008D02*
X274824Y-10800484D01*
X274824Y-10800484D02*
X322444Y-10800484D01*
X322444Y-10800484D02*
X341491Y-10810008D01*
X341491Y-10810008D02*
X351015Y-10819531D01*
X351015Y-10819531D02*
X360539Y-10838579D01*
X360539Y-10838579D02*
X360539Y-10857627D01*
X360539Y-10857627D02*
X351015Y-10886198D01*
X351015Y-10886198D02*
X236729Y-11000484D01*
X236729Y-11000484D02*
X360539Y-11000484D01*
X446253Y-10981436D02*
X455777Y-10990960D01*
X455777Y-10990960D02*
X446253Y-11000484D01*
X446253Y-11000484D02*
X436729Y-10990960D01*
X436729Y-10990960D02*
X446253Y-10981436D01*
X446253Y-10981436D02*
X446253Y-11000484D01*
X579586Y-10800484D02*
X598634Y-10800484D01*
X598634Y-10800484D02*
X617682Y-10810008D01*
X617682Y-10810008D02*
X627205Y-10819531D01*
X627205Y-10819531D02*
X636729Y-10838579D01*
X636729Y-10838579D02*
X646253Y-10876674D01*
X646253Y-10876674D02*
X646253Y-10924293D01*
X646253Y-10924293D02*
X636729Y-10962389D01*
X636729Y-10962389D02*
X627205Y-10981436D01*
X627205Y-10981436D02*
X617682Y-10990960D01*
X617682Y-10990960D02*
X598634Y-11000484D01*
X598634Y-11000484D02*
X579586Y-11000484D01*
X579586Y-11000484D02*
X560539Y-10990960D01*
X560539Y-10990960D02*
X551015Y-10981436D01*
X551015Y-10981436D02*
X541491Y-10962389D01*
X541491Y-10962389D02*
X531967Y-10924293D01*
X531967Y-10924293D02*
X531967Y-10876674D01*
X531967Y-10876674D02*
X541491Y-10838579D01*
X541491Y-10838579D02*
X551015Y-10819531D01*
X551015Y-10819531D02*
X560539Y-10810008D01*
X560539Y-10810008D02*
X579586Y-10800484D01*
X770062Y-10800484D02*
X789110Y-10800484D01*
X789110Y-10800484D02*
X808158Y-10810008D01*
X808158Y-10810008D02*
X817682Y-10819531D01*
X817682Y-10819531D02*
X827205Y-10838579D01*
X827205Y-10838579D02*
X836729Y-10876674D01*
X836729Y-10876674D02*
X836729Y-10924293D01*
X836729Y-10924293D02*
X827205Y-10962389D01*
X827205Y-10962389D02*
X817682Y-10981436D01*
X817682Y-10981436D02*
X808158Y-10990960D01*
X808158Y-10990960D02*
X789110Y-11000484D01*
X789110Y-11000484D02*
X770062Y-11000484D01*
X770062Y-11000484D02*
X751015Y-10990960D01*
X751015Y-10990960D02*
X741491Y-10981436D01*
X741491Y-10981436D02*
X731967Y-10962389D01*
X731967Y-10962389D02*
X722443Y-10924293D01*
X722443Y-10924293D02*
X722443Y-10876674D01*
X722443Y-10876674D02*
X731967Y-10838579D01*
X731967Y-10838579D02*
X741491Y-10819531D01*
X741491Y-10819531D02*
X751015Y-10810008D01*
X751015Y-10810008D02*
X770062Y-10800484D01*
X960539Y-10800484D02*
X979586Y-10800484D01*
X979586Y-10800484D02*
X998634Y-10810008D01*
X998634Y-10810008D02*
X1008158Y-10819531D01*
X1008158Y-10819531D02*
X1017682Y-10838579D01*
X1017682Y-10838579D02*
X1027205Y-10876674D01*
X1027205Y-10876674D02*
X1027205Y-10924293D01*
X1027205Y-10924293D02*
X1017682Y-10962389D01*
X1017682Y-10962389D02*
X1008158Y-10981436D01*
X1008158Y-10981436D02*
X998634Y-10990960D01*
X998634Y-10990960D02*
X979586Y-11000484D01*
X979586Y-11000484D02*
X960539Y-11000484D01*
X960539Y-11000484D02*
X941491Y-10990960D01*
X941491Y-10990960D02*
X931967Y-10981436D01*
X931967Y-10981436D02*
X922443Y-10962389D01*
X922443Y-10962389D02*
X912920Y-10924293D01*
X912920Y-10924293D02*
X912920Y-10876674D01*
X912920Y-10876674D02*
X922443Y-10838579D01*
X922443Y-10838579D02*
X931967Y-10819531D01*
X931967Y-10819531D02*
X941491Y-10810008D01*
X941491Y-10810008D02*
X960539Y-10800484D01*
X1112920Y-11000484D02*
X1112920Y-10867150D01*
X1112920Y-10886198D02*
X1122444Y-10876674D01*
X1122444Y-10876674D02*
X1141491Y-10867150D01*
X1141491Y-10867150D02*
X1170063Y-10867150D01*
X1170063Y-10867150D02*
X1189110Y-10876674D01*
X1189110Y-10876674D02*
X1198634Y-10895722D01*
X1198634Y-10895722D02*
X1198634Y-11000484D01*
X1198634Y-10895722D02*
X1208158Y-10876674D01*
X1208158Y-10876674D02*
X1227205Y-10867150D01*
X1227205Y-10867150D02*
X1255777Y-10867150D01*
X1255777Y-10867150D02*
X1274825Y-10876674D01*
X1274825Y-10876674D02*
X1284348Y-10895722D01*
X1284348Y-10895722D02*
X1284348Y-11000484D01*
X1379586Y-11000484D02*
X1379586Y-10867150D01*
X1379586Y-10886198D02*
X1389110Y-10876674D01*
X1389110Y-10876674D02*
X1408158Y-10867150D01*
X1408158Y-10867150D02*
X1436729Y-10867150D01*
X1436729Y-10867150D02*
X1455777Y-10876674D01*
X1455777Y-10876674D02*
X1465301Y-10895722D01*
X1465301Y-10895722D02*
X1465301Y-11000484D01*
X1465301Y-10895722D02*
X1474824Y-10876674D01*
X1474824Y-10876674D02*
X1493872Y-10867150D01*
X1493872Y-10867150D02*
X1522443Y-10867150D01*
X1522443Y-10867150D02*
X1541491Y-10876674D01*
X1541491Y-10876674D02*
X1551015Y-10895722D01*
X1551015Y-10895722D02*
X1551015Y-11000484D01*
X1941491Y-10790960D02*
X1770063Y-11048103D01*
X2198634Y-10800484D02*
X2217682Y-10800484D01*
X2217682Y-10800484D02*
X2236729Y-10810008D01*
X2236729Y-10810008D02*
X2246253Y-10819531D01*
X2246253Y-10819531D02*
X2255777Y-10838579D01*
X2255777Y-10838579D02*
X2265301Y-10876674D01*
X2265301Y-10876674D02*
X2265301Y-10924293D01*
X2265301Y-10924293D02*
X2255777Y-10962389D01*
X2255777Y-10962389D02*
X2246253Y-10981436D01*
X2246253Y-10981436D02*
X2236729Y-10990960D01*
X2236729Y-10990960D02*
X2217682Y-11000484D01*
X2217682Y-11000484D02*
X2198634Y-11000484D01*
X2198634Y-11000484D02*
X2179587Y-10990960D01*
X2179587Y-10990960D02*
X2170063Y-10981436D01*
X2170063Y-10981436D02*
X2160539Y-10962389D01*
X2160539Y-10962389D02*
X2151015Y-10924293D01*
X2151015Y-10924293D02*
X2151015Y-10876674D01*
X2151015Y-10876674D02*
X2160539Y-10838579D01*
X2160539Y-10838579D02*
X2170063Y-10819531D01*
X2170063Y-10819531D02*
X2179587Y-10810008D01*
X2179587Y-10810008D02*
X2198634Y-10800484D01*
X2351015Y-10981436D02*
X2360539Y-10990960D01*
X2360539Y-10990960D02*
X2351015Y-11000484D01*
X2351015Y-11000484D02*
X2341491Y-10990960D01*
X2341491Y-10990960D02*
X2351015Y-10981436D01*
X2351015Y-10981436D02*
X2351015Y-11000484D01*
X2484348Y-10800484D02*
X2503396Y-10800484D01*
X2503396Y-10800484D02*
X2522444Y-10810008D01*
X2522444Y-10810008D02*
X2531968Y-10819531D01*
X2531968Y-10819531D02*
X2541491Y-10838579D01*
X2541491Y-10838579D02*
X2551015Y-10876674D01*
X2551015Y-10876674D02*
X2551015Y-10924293D01*
X2551015Y-10924293D02*
X2541491Y-10962389D01*
X2541491Y-10962389D02*
X2531968Y-10981436D01*
X2531968Y-10981436D02*
X2522444Y-10990960D01*
X2522444Y-10990960D02*
X2503396Y-11000484D01*
X2503396Y-11000484D02*
X2484348Y-11000484D01*
X2484348Y-11000484D02*
X2465301Y-10990960D01*
X2465301Y-10990960D02*
X2455777Y-10981436D01*
X2455777Y-10981436D02*
X2446253Y-10962389D01*
X2446253Y-10962389D02*
X2436729Y-10924293D01*
X2436729Y-10924293D02*
X2436729Y-10876674D01*
X2436729Y-10876674D02*
X2446253Y-10838579D01*
X2446253Y-10838579D02*
X2455777Y-10819531D01*
X2455777Y-10819531D02*
X2465301Y-10810008D01*
X2465301Y-10810008D02*
X2484348Y-10800484D01*
X2617682Y-10800484D02*
X2751015Y-10800484D01*
X2751015Y-10800484D02*
X2665301Y-11000484D01*
X2855777Y-10886198D02*
X2836729Y-10876674D01*
X2836729Y-10876674D02*
X2827206Y-10867150D01*
X2827206Y-10867150D02*
X2817682Y-10848103D01*
X2817682Y-10848103D02*
X2817682Y-10838579D01*
X2817682Y-10838579D02*
X2827206Y-10819531D01*
X2827206Y-10819531D02*
X2836729Y-10810008D01*
X2836729Y-10810008D02*
X2855777Y-10800484D01*
X2855777Y-10800484D02*
X2893872Y-10800484D01*
X2893872Y-10800484D02*
X2912920Y-10810008D01*
X2912920Y-10810008D02*
X2922444Y-10819531D01*
X2922444Y-10819531D02*
X2931967Y-10838579D01*
X2931967Y-10838579D02*
X2931967Y-10848103D01*
X2931967Y-10848103D02*
X2922444Y-10867150D01*
X2922444Y-10867150D02*
X2912920Y-10876674D01*
X2912920Y-10876674D02*
X2893872Y-10886198D01*
X2893872Y-10886198D02*
X2855777Y-10886198D01*
X2855777Y-10886198D02*
X2836729Y-10895722D01*
X2836729Y-10895722D02*
X2827206Y-10905246D01*
X2827206Y-10905246D02*
X2817682Y-10924293D01*
X2817682Y-10924293D02*
X2817682Y-10962389D01*
X2817682Y-10962389D02*
X2827206Y-10981436D01*
X2827206Y-10981436D02*
X2836729Y-10990960D01*
X2836729Y-10990960D02*
X2855777Y-11000484D01*
X2855777Y-11000484D02*
X2893872Y-11000484D01*
X2893872Y-11000484D02*
X2912920Y-10990960D01*
X2912920Y-10990960D02*
X2922444Y-10981436D01*
X2922444Y-10981436D02*
X2931967Y-10962389D01*
X2931967Y-10962389D02*
X2931967Y-10924293D01*
X2931967Y-10924293D02*
X2922444Y-10905246D01*
X2922444Y-10905246D02*
X2912920Y-10895722D01*
X2912920Y-10895722D02*
X2893872Y-10886198D01*
X2998634Y-10800484D02*
X3131967Y-10800484D01*
X3131967Y-10800484D02*
X3046253Y-11000484D01*
X3198634Y-10800484D02*
X3198634Y-10838579D01*
X3274825Y-10800484D02*
X3274825Y-10838579D01*
X3570063Y-11076674D02*
X3560539Y-11067150D01*
X3560539Y-11067150D02*
X3541491Y-11038579D01*
X3541491Y-11038579D02*
X3531968Y-11019531D01*
X3531968Y-11019531D02*
X3522444Y-10990960D01*
X3522444Y-10990960D02*
X3512920Y-10943341D01*
X3512920Y-10943341D02*
X3512920Y-10905246D01*
X3512920Y-10905246D02*
X3522444Y-10857627D01*
X3522444Y-10857627D02*
X3531968Y-10829055D01*
X3531968Y-10829055D02*
X3541491Y-10810008D01*
X3541491Y-10810008D02*
X3560539Y-10781436D01*
X3560539Y-10781436D02*
X3570063Y-10771912D01*
X3627206Y-10800484D02*
X3751015Y-10800484D01*
X3751015Y-10800484D02*
X3684348Y-10876674D01*
X3684348Y-10876674D02*
X3712920Y-10876674D01*
X3712920Y-10876674D02*
X3731968Y-10886198D01*
X3731968Y-10886198D02*
X3741491Y-10895722D01*
X3741491Y-10895722D02*
X3751015Y-10914770D01*
X3751015Y-10914770D02*
X3751015Y-10962389D01*
X3751015Y-10962389D02*
X3741491Y-10981436D01*
X3741491Y-10981436D02*
X3731968Y-10990960D01*
X3731968Y-10990960D02*
X3712920Y-11000484D01*
X3712920Y-11000484D02*
X3655777Y-11000484D01*
X3655777Y-11000484D02*
X3636729Y-10990960D01*
X3636729Y-10990960D02*
X3627206Y-10981436D01*
X3989110Y-11000484D02*
X3989110Y-10800484D01*
X4074825Y-11000484D02*
X4074825Y-10895722D01*
X4074825Y-10895722D02*
X4065301Y-10876674D01*
X4065301Y-10876674D02*
X4046253Y-10867150D01*
X4046253Y-10867150D02*
X4017682Y-10867150D01*
X4017682Y-10867150D02*
X3998634Y-10876674D01*
X3998634Y-10876674D02*
X3989110Y-10886198D01*
X4198634Y-11000484D02*
X4179587Y-10990960D01*
X4179587Y-10990960D02*
X4170063Y-10981436D01*
X4170063Y-10981436D02*
X4160539Y-10962389D01*
X4160539Y-10962389D02*
X4160539Y-10905246D01*
X4160539Y-10905246D02*
X4170063Y-10886198D01*
X4170063Y-10886198D02*
X4179587Y-10876674D01*
X4179587Y-10876674D02*
X4198634Y-10867150D01*
X4198634Y-10867150D02*
X4227206Y-10867150D01*
X4227206Y-10867150D02*
X4246253Y-10876674D01*
X4246253Y-10876674D02*
X4255777Y-10886198D01*
X4255777Y-10886198D02*
X4265301Y-10905246D01*
X4265301Y-10905246D02*
X4265301Y-10962389D01*
X4265301Y-10962389D02*
X4255777Y-10981436D01*
X4255777Y-10981436D02*
X4246253Y-10990960D01*
X4246253Y-10990960D02*
X4227206Y-11000484D01*
X4227206Y-11000484D02*
X4198634Y-11000484D01*
X4379587Y-11000484D02*
X4360539Y-10990960D01*
X4360539Y-10990960D02*
X4351015Y-10971912D01*
X4351015Y-10971912D02*
X4351015Y-10800484D01*
X4531968Y-10990960D02*
X4512920Y-11000484D01*
X4512920Y-11000484D02*
X4474825Y-11000484D01*
X4474825Y-11000484D02*
X4455777Y-10990960D01*
X4455777Y-10990960D02*
X4446253Y-10971912D01*
X4446253Y-10971912D02*
X4446253Y-10895722D01*
X4446253Y-10895722D02*
X4455777Y-10876674D01*
X4455777Y-10876674D02*
X4474825Y-10867150D01*
X4474825Y-10867150D02*
X4512920Y-10867150D01*
X4512920Y-10867150D02*
X4531968Y-10876674D01*
X4531968Y-10876674D02*
X4541492Y-10895722D01*
X4541492Y-10895722D02*
X4541492Y-10914770D01*
X4541492Y-10914770D02*
X4446253Y-10933817D01*
X4617682Y-10990960D02*
X4636730Y-11000484D01*
X4636730Y-11000484D02*
X4674825Y-11000484D01*
X4674825Y-11000484D02*
X4693873Y-10990960D01*
X4693873Y-10990960D02*
X4703396Y-10971912D01*
X4703396Y-10971912D02*
X4703396Y-10962389D01*
X4703396Y-10962389D02*
X4693873Y-10943341D01*
X4693873Y-10943341D02*
X4674825Y-10933817D01*
X4674825Y-10933817D02*
X4646253Y-10933817D01*
X4646253Y-10933817D02*
X4627206Y-10924293D01*
X4627206Y-10924293D02*
X4617682Y-10905246D01*
X4617682Y-10905246D02*
X4617682Y-10895722D01*
X4617682Y-10895722D02*
X4627206Y-10876674D01*
X4627206Y-10876674D02*
X4646253Y-10867150D01*
X4646253Y-10867150D02*
X4674825Y-10867150D01*
X4674825Y-10867150D02*
X4693873Y-10876674D01*
X4770063Y-11076674D02*
X4779587Y-11067150D01*
X4779587Y-11067150D02*
X4798634Y-11038579D01*
X4798634Y-11038579D02*
X4808158Y-11019531D01*
X4808158Y-11019531D02*
X4817682Y-10990960D01*
X4817682Y-10990960D02*
X4827206Y-10943341D01*
X4827206Y-10943341D02*
X4827206Y-10905246D01*
X4827206Y-10905246D02*
X4817682Y-10857627D01*
X4817682Y-10857627D02*
X4808158Y-10829055D01*
X4808158Y-10829055D02*
X4798634Y-10810008D01*
X4798634Y-10810008D02*
X4779587Y-10781436D01*
X4779587Y-10781436D02*
X4770063Y-10771912D01*
X5131968Y-11076674D02*
X5122444Y-11067150D01*
X5122444Y-11067150D02*
X5103396Y-11038579D01*
X5103396Y-11038579D02*
X5093873Y-11019531D01*
X5093873Y-11019531D02*
X5084349Y-10990960D01*
X5084349Y-10990960D02*
X5074825Y-10943341D01*
X5074825Y-10943341D02*
X5074825Y-10905246D01*
X5074825Y-10905246D02*
X5084349Y-10857627D01*
X5084349Y-10857627D02*
X5093873Y-10829055D01*
X5093873Y-10829055D02*
X5103396Y-10810008D01*
X5103396Y-10810008D02*
X5122444Y-10781436D01*
X5122444Y-10781436D02*
X5131968Y-10771912D01*
X5208158Y-10867150D02*
X5208158Y-11000484D01*
X5208158Y-10886198D02*
X5217682Y-10876674D01*
X5217682Y-10876674D02*
X5236730Y-10867150D01*
X5236730Y-10867150D02*
X5265301Y-10867150D01*
X5265301Y-10867150D02*
X5284349Y-10876674D01*
X5284349Y-10876674D02*
X5293873Y-10895722D01*
X5293873Y-10895722D02*
X5293873Y-11000484D01*
X5417682Y-11000484D02*
X5398634Y-10990960D01*
X5398634Y-10990960D02*
X5389111Y-10981436D01*
X5389111Y-10981436D02*
X5379587Y-10962389D01*
X5379587Y-10962389D02*
X5379587Y-10905246D01*
X5379587Y-10905246D02*
X5389111Y-10886198D01*
X5389111Y-10886198D02*
X5398634Y-10876674D01*
X5398634Y-10876674D02*
X5417682Y-10867150D01*
X5417682Y-10867150D02*
X5446254Y-10867150D01*
X5446254Y-10867150D02*
X5465301Y-10876674D01*
X5465301Y-10876674D02*
X5474825Y-10886198D01*
X5474825Y-10886198D02*
X5484349Y-10905246D01*
X5484349Y-10905246D02*
X5484349Y-10962389D01*
X5484349Y-10962389D02*
X5474825Y-10981436D01*
X5474825Y-10981436D02*
X5465301Y-10990960D01*
X5465301Y-10990960D02*
X5446254Y-11000484D01*
X5446254Y-11000484D02*
X5417682Y-11000484D01*
X5541492Y-10867150D02*
X5617682Y-10867150D01*
X5570063Y-10800484D02*
X5570063Y-10971912D01*
X5570063Y-10971912D02*
X5579587Y-10990960D01*
X5579587Y-10990960D02*
X5598634Y-11000484D01*
X5598634Y-11000484D02*
X5617682Y-11000484D01*
X5836730Y-10867150D02*
X5836730Y-11067150D01*
X5836730Y-10876674D02*
X5855777Y-10867150D01*
X5855777Y-10867150D02*
X5893873Y-10867150D01*
X5893873Y-10867150D02*
X5912920Y-10876674D01*
X5912920Y-10876674D02*
X5922444Y-10886198D01*
X5922444Y-10886198D02*
X5931968Y-10905246D01*
X5931968Y-10905246D02*
X5931968Y-10962389D01*
X5931968Y-10962389D02*
X5922444Y-10981436D01*
X5922444Y-10981436D02*
X5912920Y-10990960D01*
X5912920Y-10990960D02*
X5893873Y-11000484D01*
X5893873Y-11000484D02*
X5855777Y-11000484D01*
X5855777Y-11000484D02*
X5836730Y-10990960D01*
X6046253Y-11000484D02*
X6027206Y-10990960D01*
X6027206Y-10990960D02*
X6017682Y-10971912D01*
X6017682Y-10971912D02*
X6017682Y-10800484D01*
X6208158Y-11000484D02*
X6208158Y-10895722D01*
X6208158Y-10895722D02*
X6198634Y-10876674D01*
X6198634Y-10876674D02*
X6179587Y-10867150D01*
X6179587Y-10867150D02*
X6141492Y-10867150D01*
X6141492Y-10867150D02*
X6122444Y-10876674D01*
X6208158Y-10990960D02*
X6189111Y-11000484D01*
X6189111Y-11000484D02*
X6141492Y-11000484D01*
X6141492Y-11000484D02*
X6122444Y-10990960D01*
X6122444Y-10990960D02*
X6112920Y-10971912D01*
X6112920Y-10971912D02*
X6112920Y-10952865D01*
X6112920Y-10952865D02*
X6122444Y-10933817D01*
X6122444Y-10933817D02*
X6141492Y-10924293D01*
X6141492Y-10924293D02*
X6189111Y-10924293D01*
X6189111Y-10924293D02*
X6208158Y-10914770D01*
X6274825Y-10867150D02*
X6351015Y-10867150D01*
X6303396Y-10800484D02*
X6303396Y-10971912D01*
X6303396Y-10971912D02*
X6312920Y-10990960D01*
X6312920Y-10990960D02*
X6331968Y-11000484D01*
X6331968Y-11000484D02*
X6351015Y-11000484D01*
X6493873Y-10990960D02*
X6474825Y-11000484D01*
X6474825Y-11000484D02*
X6436730Y-11000484D01*
X6436730Y-11000484D02*
X6417682Y-10990960D01*
X6417682Y-10990960D02*
X6408158Y-10971912D01*
X6408158Y-10971912D02*
X6408158Y-10895722D01*
X6408158Y-10895722D02*
X6417682Y-10876674D01*
X6417682Y-10876674D02*
X6436730Y-10867150D01*
X6436730Y-10867150D02*
X6474825Y-10867150D01*
X6474825Y-10867150D02*
X6493873Y-10876674D01*
X6493873Y-10876674D02*
X6503396Y-10895722D01*
X6503396Y-10895722D02*
X6503396Y-10914770D01*
X6503396Y-10914770D02*
X6408158Y-10933817D01*
X6674825Y-11000484D02*
X6674825Y-10800484D01*
X6674825Y-10990960D02*
X6655777Y-11000484D01*
X6655777Y-11000484D02*
X6617682Y-11000484D01*
X6617682Y-11000484D02*
X6598634Y-10990960D01*
X6598634Y-10990960D02*
X6589111Y-10981436D01*
X6589111Y-10981436D02*
X6579587Y-10962389D01*
X6579587Y-10962389D02*
X6579587Y-10905246D01*
X6579587Y-10905246D02*
X6589111Y-10886198D01*
X6589111Y-10886198D02*
X6598634Y-10876674D01*
X6598634Y-10876674D02*
X6617682Y-10867150D01*
X6617682Y-10867150D02*
X6655777Y-10867150D01*
X6655777Y-10867150D02*
X6674825Y-10876674D01*
X6751015Y-11076674D02*
X6760539Y-11067150D01*
X6760539Y-11067150D02*
X6779587Y-11038579D01*
X6779587Y-11038579D02*
X6789111Y-11019531D01*
X6789111Y-11019531D02*
X6798634Y-10990960D01*
X6798634Y-10990960D02*
X6808158Y-10943341D01*
X6808158Y-10943341D02*
X6808158Y-10905246D01*
X6808158Y-10905246D02*
X6798634Y-10857627D01*
X6798634Y-10857627D02*
X6789111Y-10829055D01*
X6789111Y-10829055D02*
X6779587Y-10810008D01*
X6779587Y-10810008D02*
X6760539Y-10781436D01*
X6760539Y-10781436D02*
X6751015Y-10771912D01*
M02*
