%TF.GenerationSoftware,KiCad,Pcbnew,8.0.9-8.0.9-0~ubuntu24.04.1*%
%TF.CreationDate,2025-04-15T15:37:02+02:00*%
%TF.ProjectId,STM32_watch_NFC,53544d33-325f-4776-9174-63685f4e4643,rev?*%
%TF.SameCoordinates,Original*%
%TF.FileFunction,Legend,Top*%
%TF.FilePolarity,Positive*%
%FSLAX46Y46*%
G04 Gerber Fmt 4.6, Leading zero omitted, Abs format (unit mm)*
G04 Created by KiCad (PCBNEW 8.0.9-8.0.9-0~ubuntu24.04.1) date 2025-04-15 15:37:02*
%MOMM*%
%LPD*%
G01*
G04 APERTURE LIST*
G04 Aperture macros list*
%AMRoundRect*
0 Rectangle with rounded corners*
0 $1 Rounding radius*
0 $2 $3 $4 $5 $6 $7 $8 $9 X,Y pos of 4 corners*
0 Add a 4 corners polygon primitive as box body*
4,1,4,$2,$3,$4,$5,$6,$7,$8,$9,$2,$3,0*
0 Add four circle primitives for the rounded corners*
1,1,$1+$1,$2,$3*
1,1,$1+$1,$4,$5*
1,1,$1+$1,$6,$7*
1,1,$1+$1,$8,$9*
0 Add four rect primitives between the rounded corners*
20,1,$1+$1,$2,$3,$4,$5,0*
20,1,$1+$1,$4,$5,$6,$7,0*
20,1,$1+$1,$6,$7,$8,$9,0*
20,1,$1+$1,$8,$9,$2,$3,0*%
G04 Aperture macros list end*
%ADD10C,0.150000*%
%ADD11C,0.300000*%
%ADD12C,0.700000*%
%ADD13C,0.075000*%
%ADD14C,0.100000*%
%ADD15C,0.120000*%
%ADD16C,0.000000*%
%ADD17C,0.127000*%
%ADD18C,0.200000*%
%ADD19RoundRect,0.147500X-0.147500X-0.172500X0.147500X-0.172500X0.147500X0.172500X-0.147500X0.172500X0*%
%ADD20RoundRect,0.100000X0.130000X0.100000X-0.130000X0.100000X-0.130000X-0.100000X0.130000X-0.100000X0*%
%ADD21RoundRect,0.147500X0.172500X-0.147500X0.172500X0.147500X-0.172500X0.147500X-0.172500X-0.147500X0*%
%ADD22RoundRect,0.125000X0.125000X-0.125000X0.125000X0.125000X-0.125000X0.125000X-0.125000X-0.125000X0*%
%ADD23RoundRect,0.102000X-0.275000X-0.125000X0.275000X-0.125000X0.275000X0.125000X-0.275000X0.125000X0*%
G04 APERTURE END LIST*
D10*
X148500000Y-103200000D02*
X148600000Y-103200000D01*
X148600000Y-103800000D01*
X148500000Y-103800000D01*
X148500000Y-103200000D01*
X148500000Y-106200000D02*
X148600000Y-106200000D01*
X148600000Y-106800000D01*
X148500000Y-106800000D01*
X148500000Y-106200000D01*
X142900223Y-117125000D02*
G75*
G02*
X140099777Y-117125000I-1400223J0D01*
G01*
X140099777Y-117125000D02*
G75*
G02*
X142900223Y-117125000I1400223J0D01*
G01*
D11*
X163900000Y-105000000D02*
G75*
G02*
X161100000Y-105000000I-1400000J0D01*
G01*
X161100000Y-105000000D02*
G75*
G02*
X163900000Y-105000000I1400000J0D01*
G01*
D10*
X156900000Y-92875000D02*
G75*
G02*
X154100000Y-92875000I-1400000J0D01*
G01*
X154100000Y-92875000D02*
G75*
G02*
X156900000Y-92875000I1400000J0D01*
G01*
D11*
X149900000Y-119000000D02*
G75*
G02*
X147100000Y-119000000I-1400000J0D01*
G01*
X147100000Y-119000000D02*
G75*
G02*
X149900000Y-119000000I1400000J0D01*
G01*
D10*
X142900000Y-92900000D02*
G75*
G02*
X140100000Y-92900000I-1400000J0D01*
G01*
X140100000Y-92900000D02*
G75*
G02*
X142900000Y-92900000I1400000J0D01*
G01*
X156900000Y-117125000D02*
G75*
G02*
X154100000Y-117125000I-1400000J0D01*
G01*
X154100000Y-117125000D02*
G75*
G02*
X156900000Y-117125000I1400000J0D01*
G01*
X162025223Y-112000000D02*
G75*
G02*
X159224777Y-112000000I-1400223J0D01*
G01*
X159224777Y-112000000D02*
G75*
G02*
X162025223Y-112000000I1400223J0D01*
G01*
D11*
X135900000Y-105000000D02*
G75*
G02*
X133100000Y-105000000I-1400000J0D01*
G01*
X133100000Y-105000000D02*
G75*
G02*
X135900000Y-105000000I1400000J0D01*
G01*
D10*
X137750223Y-112000000D02*
G75*
G02*
X134949777Y-112000000I-1400223J0D01*
G01*
X134949777Y-112000000D02*
G75*
G02*
X137750223Y-112000000I1400223J0D01*
G01*
X162025000Y-98000000D02*
G75*
G02*
X159225000Y-98000000I-1400000J0D01*
G01*
X159225000Y-98000000D02*
G75*
G02*
X162025000Y-98000000I1400000J0D01*
G01*
X137775223Y-98000000D02*
G75*
G02*
X134974777Y-98000000I-1400223J0D01*
G01*
X134974777Y-98000000D02*
G75*
G02*
X137775223Y-98000000I1400223J0D01*
G01*
D12*
X149900000Y-91000000D02*
G75*
G02*
X147100000Y-91000000I-1400000J0D01*
G01*
X147100000Y-91000000D02*
G75*
G02*
X149900000Y-91000000I1400000J0D01*
G01*
D13*
X161692857Y-105907409D02*
X161407143Y-105907409D01*
X161550000Y-105907409D02*
X161550000Y-105407409D01*
X161550000Y-105407409D02*
X161502381Y-105478838D01*
X161502381Y-105478838D02*
X161454762Y-105526457D01*
X161454762Y-105526457D02*
X161407143Y-105550266D01*
X135568501Y-112907409D02*
X135282787Y-112907409D01*
X135425644Y-112907409D02*
X135425644Y-112407409D01*
X135425644Y-112407409D02*
X135378025Y-112478838D01*
X135378025Y-112478838D02*
X135330406Y-112526457D01*
X135330406Y-112526457D02*
X135282787Y-112550266D01*
X133692857Y-105907409D02*
X133407143Y-105907409D01*
X133550000Y-105907409D02*
X133550000Y-105407409D01*
X133550000Y-105407409D02*
X133502381Y-105478838D01*
X133502381Y-105478838D02*
X133454762Y-105526457D01*
X133454762Y-105526457D02*
X133407143Y-105550266D01*
X154692857Y-93783053D02*
X154407143Y-93783053D01*
X154550000Y-93783053D02*
X154550000Y-93283053D01*
X154550000Y-93283053D02*
X154502381Y-93354482D01*
X154502381Y-93354482D02*
X154454762Y-93402101D01*
X154454762Y-93402101D02*
X154407143Y-93425910D01*
X140692857Y-93783053D02*
X140407143Y-93783053D01*
X140550000Y-93783053D02*
X140550000Y-93283053D01*
X140550000Y-93283053D02*
X140502381Y-93354482D01*
X140502381Y-93354482D02*
X140454762Y-93402101D01*
X140454762Y-93402101D02*
X140407143Y-93425910D01*
X140692857Y-118031765D02*
X140407143Y-118031765D01*
X140550000Y-118031765D02*
X140550000Y-117531765D01*
X140550000Y-117531765D02*
X140502381Y-117603194D01*
X140502381Y-117603194D02*
X140454762Y-117650813D01*
X140454762Y-117650813D02*
X140407143Y-117674622D01*
X147692857Y-91907409D02*
X147407143Y-91907409D01*
X147550000Y-91907409D02*
X147550000Y-91407409D01*
X147550000Y-91407409D02*
X147502381Y-91478838D01*
X147502381Y-91478838D02*
X147454762Y-91526457D01*
X147454762Y-91526457D02*
X147407143Y-91550266D01*
X159817213Y-112907409D02*
X159531499Y-112907409D01*
X159674356Y-112907409D02*
X159674356Y-112407409D01*
X159674356Y-112407409D02*
X159626737Y-112478838D01*
X159626737Y-112478838D02*
X159579118Y-112526457D01*
X159579118Y-112526457D02*
X159531499Y-112550266D01*
X135568501Y-98907409D02*
X135282787Y-98907409D01*
X135425644Y-98907409D02*
X135425644Y-98407409D01*
X135425644Y-98407409D02*
X135378025Y-98478838D01*
X135378025Y-98478838D02*
X135330406Y-98526457D01*
X135330406Y-98526457D02*
X135282787Y-98550266D01*
X159817213Y-98907409D02*
X159531499Y-98907409D01*
X159674356Y-98907409D02*
X159674356Y-98407409D01*
X159674356Y-98407409D02*
X159626737Y-98478838D01*
X159626737Y-98478838D02*
X159579118Y-98526457D01*
X159579118Y-98526457D02*
X159531499Y-98550266D01*
X154692857Y-118031765D02*
X154407143Y-118031765D01*
X154550000Y-118031765D02*
X154550000Y-117531765D01*
X154550000Y-117531765D02*
X154502381Y-117603194D01*
X154502381Y-117603194D02*
X154454762Y-117650813D01*
X154454762Y-117650813D02*
X154407143Y-117674622D01*
X147692857Y-119907409D02*
X147407143Y-119907409D01*
X147550000Y-119907409D02*
X147550000Y-119407409D01*
X147550000Y-119407409D02*
X147502381Y-119478838D01*
X147502381Y-119478838D02*
X147454762Y-119526457D01*
X147454762Y-119526457D02*
X147407143Y-119550266D01*
D14*
%TO.C,D26*%
X144460000Y-105000000D02*
G75*
G02*
X144360000Y-105000000I-50000J0D01*
G01*
X144360000Y-105000000D02*
G75*
G02*
X144460000Y-105000000I50000J0D01*
G01*
%TO.C,D29*%
X153050000Y-107575000D02*
G75*
G02*
X152950000Y-107575000I-50000J0D01*
G01*
X152950000Y-107575000D02*
G75*
G02*
X153050000Y-107575000I50000J0D01*
G01*
%TO.C,D33*%
X150460000Y-105000000D02*
G75*
G02*
X150360000Y-105000000I-50000J0D01*
G01*
X150360000Y-105000000D02*
G75*
G02*
X150460000Y-105000000I50000J0D01*
G01*
%TO.C,D40*%
X154960000Y-105000000D02*
G75*
G02*
X154860000Y-105000000I-50000J0D01*
G01*
X154860000Y-105000000D02*
G75*
G02*
X154960000Y-105000000I50000J0D01*
G01*
%TO.C,D19*%
X139960000Y-105000000D02*
G75*
G02*
X139860000Y-105000000I-50000J0D01*
G01*
X139860000Y-105000000D02*
G75*
G02*
X139960000Y-105000000I50000J0D01*
G01*
%TO.C,D15*%
X142550000Y-107575000D02*
G75*
G02*
X142450000Y-107575000I-50000J0D01*
G01*
X142450000Y-107575000D02*
G75*
G02*
X142550000Y-107575000I50000J0D01*
G01*
%TO.C,D36*%
X157550000Y-107575000D02*
G75*
G02*
X157450000Y-107575000I-50000J0D01*
G01*
X157450000Y-107575000D02*
G75*
G02*
X157550000Y-107575000I50000J0D01*
G01*
D15*
%TO.C,D4*%
X161540000Y-104040000D02*
X161540000Y-104690000D01*
X162190000Y-104040000D02*
X161540000Y-104040000D01*
D14*
%TO.C,D18*%
X139550000Y-104575000D02*
G75*
G02*
X139450000Y-104575000I-50000J0D01*
G01*
X139450000Y-104575000D02*
G75*
G02*
X139550000Y-104575000I50000J0D01*
G01*
D15*
%TO.C,D9*%
X135415644Y-111040000D02*
X135415644Y-111690000D01*
X136065644Y-111040000D02*
X135415644Y-111040000D01*
%TO.C,D10*%
X133540000Y-104040000D02*
X133540000Y-104690000D01*
X134190000Y-104040000D02*
X133540000Y-104040000D01*
D14*
%TO.C,D30*%
X150460000Y-108000000D02*
G75*
G02*
X150360000Y-108000000I-50000J0D01*
G01*
X150360000Y-108000000D02*
G75*
G02*
X150460000Y-108000000I50000J0D01*
G01*
%TO.C,D37*%
X154960000Y-108000000D02*
G75*
G02*
X154860000Y-108000000I-50000J0D01*
G01*
X154860000Y-108000000D02*
G75*
G02*
X154960000Y-108000000I50000J0D01*
G01*
%TO.C,D27*%
X150460000Y-102000000D02*
G75*
G02*
X150360000Y-102000000I-50000J0D01*
G01*
X150360000Y-102000000D02*
G75*
G02*
X150460000Y-102000000I50000J0D01*
G01*
D15*
%TO.C,D2*%
X154540000Y-91915644D02*
X154540000Y-92565644D01*
X155190000Y-91915644D02*
X154540000Y-91915644D01*
D14*
%TO.C,D25*%
X144050000Y-104605000D02*
G75*
G02*
X143950000Y-104605000I-50000J0D01*
G01*
X143950000Y-104605000D02*
G75*
G02*
X144050000Y-104605000I50000J0D01*
G01*
D16*
%TO.C,G\u002A\u002A\u002A*%
G36*
X149489747Y-98344489D02*
G01*
X149494291Y-98345151D01*
X149514279Y-98350812D01*
X149532179Y-98360158D01*
X149547508Y-98372768D01*
X149559784Y-98388220D01*
X149568526Y-98406092D01*
X149570362Y-98411777D01*
X149570901Y-98413988D01*
X149571382Y-98416833D01*
X149571809Y-98420550D01*
X149572184Y-98425382D01*
X149572509Y-98431570D01*
X149572787Y-98439354D01*
X149573020Y-98448974D01*
X149573211Y-98460673D01*
X149573362Y-98474691D01*
X149573476Y-98491269D01*
X149573555Y-98510647D01*
X149573601Y-98533067D01*
X149573617Y-98558770D01*
X149573605Y-98587996D01*
X149573568Y-98620986D01*
X149573508Y-98657982D01*
X149573427Y-98699224D01*
X149573399Y-98712827D01*
X149572786Y-99001173D01*
X149566542Y-99014507D01*
X149555779Y-99032458D01*
X149542039Y-99047285D01*
X149525852Y-99058729D01*
X149507747Y-99066530D01*
X149488256Y-99070428D01*
X149467909Y-99070164D01*
X149456739Y-99068197D01*
X149444307Y-99063833D01*
X149431131Y-99056854D01*
X149419092Y-99048381D01*
X149411517Y-99041251D01*
X149405500Y-99033436D01*
X149399306Y-99023741D01*
X149395144Y-99015998D01*
X149388050Y-99001173D01*
X149388050Y-98706965D01*
X149388050Y-98412756D01*
X149395387Y-98397764D01*
X149405798Y-98381251D01*
X149419274Y-98367292D01*
X149435111Y-98356262D01*
X149452605Y-98348535D01*
X149471051Y-98344486D01*
X149489747Y-98344489D01*
G37*
G36*
X149118253Y-98561366D02*
G01*
X149130025Y-98561603D01*
X149139325Y-98562122D01*
X149147199Y-98563020D01*
X149154689Y-98564399D01*
X149162840Y-98566357D01*
X149166823Y-98567406D01*
X149198700Y-98578253D01*
X149228890Y-98593164D01*
X149256958Y-98611814D01*
X149282471Y-98633880D01*
X149304992Y-98659038D01*
X149321273Y-98682311D01*
X149336642Y-98711346D01*
X149347954Y-98741982D01*
X149355205Y-98773730D01*
X149358392Y-98806104D01*
X149357511Y-98838616D01*
X149352559Y-98870778D01*
X149343533Y-98902104D01*
X149330430Y-98932105D01*
X149323088Y-98945234D01*
X149303348Y-98973817D01*
X149280551Y-98999095D01*
X149254913Y-99020906D01*
X149226649Y-99039089D01*
X149195975Y-99053480D01*
X149166316Y-99063101D01*
X149149640Y-99066462D01*
X149130182Y-99068786D01*
X149109442Y-99070017D01*
X149088917Y-99070097D01*
X149070107Y-99068970D01*
X149057705Y-99067238D01*
X149024915Y-99058867D01*
X148994350Y-99046750D01*
X148966183Y-99031210D01*
X148940584Y-99012567D01*
X148917725Y-98991143D01*
X148897776Y-98967260D01*
X148880910Y-98941240D01*
X148867296Y-98913404D01*
X148857107Y-98884074D01*
X148850514Y-98853571D01*
X148847688Y-98822217D01*
X148848111Y-98810084D01*
X149037327Y-98810084D01*
X149037357Y-98822381D01*
X149038692Y-98833608D01*
X149040796Y-98840817D01*
X149046873Y-98850972D01*
X149055782Y-98861259D01*
X149066082Y-98870220D01*
X149075596Y-98876059D01*
X149089862Y-98880473D01*
X149105574Y-98881574D01*
X149121047Y-98879365D01*
X149130518Y-98875996D01*
X149144698Y-98867002D01*
X149156642Y-98854627D01*
X149163905Y-98842956D01*
X149167012Y-98835179D01*
X149168628Y-98826718D01*
X149169104Y-98815697D01*
X149169104Y-98815297D01*
X149167643Y-98799200D01*
X149162935Y-98785514D01*
X149154491Y-98773019D01*
X149150406Y-98768540D01*
X149137715Y-98758569D01*
X149122865Y-98751999D01*
X149106866Y-98749021D01*
X149090731Y-98749823D01*
X149075596Y-98754536D01*
X149064799Y-98761314D01*
X149054275Y-98770875D01*
X149045523Y-98781701D01*
X149041133Y-98789485D01*
X149038589Y-98798518D01*
X149037327Y-98810084D01*
X148848111Y-98810084D01*
X148848800Y-98790334D01*
X148854021Y-98758243D01*
X148863523Y-98726266D01*
X148868945Y-98712682D01*
X148883854Y-98683765D01*
X148902546Y-98657011D01*
X148924625Y-98632758D01*
X148949694Y-98611344D01*
X148977357Y-98593105D01*
X149007217Y-98578382D01*
X149038877Y-98567510D01*
X149039613Y-98567311D01*
X149048205Y-98565105D01*
X149055756Y-98563512D01*
X149063304Y-98562435D01*
X149071884Y-98561776D01*
X149082532Y-98561436D01*
X149096286Y-98561316D01*
X149102964Y-98561308D01*
X149118253Y-98561366D01*
G37*
G36*
X150781513Y-98561188D02*
G01*
X150813920Y-98567845D01*
X150845373Y-98578775D01*
X150875563Y-98593929D01*
X150904181Y-98613259D01*
X150912667Y-98620076D01*
X150928526Y-98634850D01*
X150940278Y-98649515D01*
X150948299Y-98664808D01*
X150952966Y-98681467D01*
X150954655Y-98700227D01*
X150954675Y-98702403D01*
X150954518Y-98713004D01*
X150953758Y-98720807D01*
X150952042Y-98727568D01*
X150949021Y-98735042D01*
X150947500Y-98738343D01*
X150936608Y-98756771D01*
X150923111Y-98771749D01*
X150907504Y-98783178D01*
X150890278Y-98790957D01*
X150871927Y-98794984D01*
X150852944Y-98795161D01*
X150833821Y-98791386D01*
X150815053Y-98783559D01*
X150797131Y-98771579D01*
X150794642Y-98769500D01*
X150778738Y-98758280D01*
X150762459Y-98751553D01*
X150745893Y-98749340D01*
X150729133Y-98751660D01*
X150722794Y-98753711D01*
X150710125Y-98760497D01*
X150698413Y-98770484D01*
X150689094Y-98782335D01*
X150686058Y-98787929D01*
X150682493Y-98799653D01*
X150681118Y-98813500D01*
X150681933Y-98827590D01*
X150684940Y-98840044D01*
X150686027Y-98842665D01*
X150695009Y-98856946D01*
X150707081Y-98868287D01*
X150721531Y-98876269D01*
X150737647Y-98880471D01*
X150750760Y-98880865D01*
X150762409Y-98879234D01*
X150772900Y-98875703D01*
X150783490Y-98869695D01*
X150795435Y-98860630D01*
X150796374Y-98859850D01*
X150814577Y-98847255D01*
X150833689Y-98839053D01*
X150853546Y-98835293D01*
X150873985Y-98836025D01*
X150875057Y-98836186D01*
X150894238Y-98841342D01*
X150911515Y-98850206D01*
X150926489Y-98862235D01*
X150938763Y-98876884D01*
X150947938Y-98893609D01*
X150953617Y-98911867D01*
X150955400Y-98931113D01*
X150954212Y-98944321D01*
X150949780Y-98961951D01*
X150942377Y-98977601D01*
X150931409Y-98992367D01*
X150923629Y-99000518D01*
X150898797Y-99021617D01*
X150871144Y-99039343D01*
X150841145Y-99053479D01*
X150809273Y-99063806D01*
X150776003Y-99070107D01*
X150770913Y-99070693D01*
X150760408Y-99071760D01*
X150752454Y-99072374D01*
X150745556Y-99072533D01*
X150738216Y-99072234D01*
X150728939Y-99071475D01*
X150719971Y-99070618D01*
X150687558Y-99065226D01*
X150656352Y-99055647D01*
X150626724Y-99042179D01*
X150599048Y-99025117D01*
X150573694Y-99004760D01*
X150551036Y-98981405D01*
X150531444Y-98955350D01*
X150515292Y-98926890D01*
X150503353Y-98897544D01*
X150496457Y-98873166D01*
X150492295Y-98848996D01*
X150490576Y-98823162D01*
X150490492Y-98815297D01*
X150491574Y-98788653D01*
X150495015Y-98764203D01*
X150501109Y-98740073D01*
X150503353Y-98733050D01*
X150515752Y-98702828D01*
X150532041Y-98674427D01*
X150551815Y-98648278D01*
X150574670Y-98624811D01*
X150600202Y-98604459D01*
X150628005Y-98587652D01*
X150648504Y-98578267D01*
X150681646Y-98567344D01*
X150715068Y-98560888D01*
X150748459Y-98558853D01*
X150781513Y-98561188D01*
G37*
G36*
X149894517Y-98343199D02*
G01*
X149922194Y-98343217D01*
X149945975Y-98343257D01*
X149966194Y-98343327D01*
X149983184Y-98343435D01*
X149997278Y-98343590D01*
X150008809Y-98343799D01*
X150018109Y-98344071D01*
X150025512Y-98344414D01*
X150031350Y-98344836D01*
X150035958Y-98345345D01*
X150039667Y-98345950D01*
X150042811Y-98346658D01*
X150045722Y-98347478D01*
X150046455Y-98347702D01*
X150065789Y-98355918D01*
X150082287Y-98367587D01*
X150095663Y-98382376D01*
X150105629Y-98399957D01*
X150111899Y-98419997D01*
X150112643Y-98424017D01*
X150113668Y-98443532D01*
X150110518Y-98462555D01*
X150103577Y-98480478D01*
X150093231Y-98496695D01*
X150079864Y-98510598D01*
X150063861Y-98521581D01*
X150046184Y-98528870D01*
X150039651Y-98530353D01*
X150031297Y-98531407D01*
X150020390Y-98532080D01*
X150006201Y-98532422D01*
X149993158Y-98532492D01*
X149952520Y-98532492D01*
X149952475Y-98753148D01*
X149952443Y-98789839D01*
X149952367Y-98824202D01*
X149952247Y-98856002D01*
X149952086Y-98885006D01*
X149951886Y-98910981D01*
X149951650Y-98933691D01*
X149951380Y-98952904D01*
X149951078Y-98968386D01*
X149950746Y-98979903D01*
X149950387Y-98987221D01*
X149950179Y-98989373D01*
X149945082Y-99009802D01*
X149936137Y-99027875D01*
X149923528Y-99043337D01*
X149907438Y-99055933D01*
X149898541Y-99060882D01*
X149889220Y-99065231D01*
X149881680Y-99067855D01*
X149873935Y-99069244D01*
X149864001Y-99069887D01*
X149861658Y-99069967D01*
X149850151Y-99069896D01*
X149839546Y-99069068D01*
X149831656Y-99067624D01*
X149831630Y-99067617D01*
X149813003Y-99059934D01*
X149796559Y-99048520D01*
X149782821Y-99033891D01*
X149772310Y-99016566D01*
X149767442Y-99004058D01*
X149766751Y-99001655D01*
X149766140Y-98998960D01*
X149765604Y-98995697D01*
X149765137Y-98991587D01*
X149764736Y-98986350D01*
X149764395Y-98979710D01*
X149764109Y-98971388D01*
X149763873Y-98961104D01*
X149763683Y-98948582D01*
X149763534Y-98933542D01*
X149763420Y-98915707D01*
X149763338Y-98894797D01*
X149763282Y-98870535D01*
X149763248Y-98842642D01*
X149763230Y-98810840D01*
X149763223Y-98774850D01*
X149763223Y-98761498D01*
X149763223Y-98532492D01*
X149723514Y-98532492D01*
X149704815Y-98532264D01*
X149689773Y-98531471D01*
X149677501Y-98529946D01*
X149667114Y-98527526D01*
X149657723Y-98524043D01*
X149648443Y-98519334D01*
X149646288Y-98518093D01*
X149631663Y-98506990D01*
X149619507Y-98492693D01*
X149610214Y-98476070D01*
X149604177Y-98457991D01*
X149601789Y-98439323D01*
X149603082Y-98422763D01*
X149608994Y-98402719D01*
X149618633Y-98384946D01*
X149631593Y-98369851D01*
X149647471Y-98357841D01*
X149665860Y-98349322D01*
X149679827Y-98345689D01*
X149685372Y-98345123D01*
X149695473Y-98344630D01*
X149710125Y-98344210D01*
X149729322Y-98343862D01*
X149753060Y-98343587D01*
X149781334Y-98343384D01*
X149814139Y-98343255D01*
X149851469Y-98343198D01*
X149862611Y-98343195D01*
X149894517Y-98343199D01*
G37*
G36*
X150095964Y-98562953D02*
G01*
X150114076Y-98569573D01*
X150130862Y-98579986D01*
X150145645Y-98594071D01*
X150148798Y-98597987D01*
X150154241Y-98605002D01*
X150161544Y-98614550D01*
X150170278Y-98626069D01*
X150180014Y-98638993D01*
X150190322Y-98652758D01*
X150190777Y-98653368D01*
X150200845Y-98666831D01*
X150210119Y-98679187D01*
X150218224Y-98689935D01*
X150224781Y-98698578D01*
X150229412Y-98704616D01*
X150231741Y-98707550D01*
X150231843Y-98707665D01*
X150233152Y-98707900D01*
X150235429Y-98706423D01*
X150238944Y-98702916D01*
X150243965Y-98697061D01*
X150250762Y-98688540D01*
X150259603Y-98677035D01*
X150270758Y-98662228D01*
X150274301Y-98657489D01*
X150289216Y-98637615D01*
X150301844Y-98621086D01*
X150312550Y-98607539D01*
X150321697Y-98596609D01*
X150329652Y-98587931D01*
X150336779Y-98581140D01*
X150343444Y-98575871D01*
X150350010Y-98571761D01*
X150356844Y-98568444D01*
X150364309Y-98565556D01*
X150367353Y-98564506D01*
X150386423Y-98560290D01*
X150405186Y-98560230D01*
X150423185Y-98563941D01*
X150439962Y-98571034D01*
X150455062Y-98581123D01*
X150468024Y-98593820D01*
X150478394Y-98608739D01*
X150485712Y-98625492D01*
X150489522Y-98643692D01*
X150489366Y-98662951D01*
X150488758Y-98667266D01*
X150486206Y-98678154D01*
X150482339Y-98689740D01*
X150479046Y-98697319D01*
X150476621Y-98701249D01*
X150471666Y-98708527D01*
X150464394Y-98718861D01*
X150455022Y-98731955D01*
X150443763Y-98747515D01*
X150430830Y-98765247D01*
X150416440Y-98784857D01*
X150400806Y-98806051D01*
X150384142Y-98828533D01*
X150366663Y-98852011D01*
X150354132Y-98868781D01*
X150333672Y-98896128D01*
X150311991Y-98925120D01*
X150289536Y-98955161D01*
X150266753Y-98985653D01*
X150244087Y-99015999D01*
X150221984Y-99045602D01*
X150200890Y-99073864D01*
X150181252Y-99100190D01*
X150163514Y-99123982D01*
X150149971Y-99142161D01*
X150131393Y-99167085D01*
X150115283Y-99188610D01*
X150101399Y-99207009D01*
X150089502Y-99222552D01*
X150079349Y-99235512D01*
X150070701Y-99246160D01*
X150063316Y-99254768D01*
X150056954Y-99261607D01*
X150051372Y-99266949D01*
X150046332Y-99271066D01*
X150041590Y-99274228D01*
X150036908Y-99276709D01*
X150032043Y-99278779D01*
X150027229Y-99280543D01*
X150008269Y-99285142D01*
X149988701Y-99286143D01*
X149971211Y-99283721D01*
X149953908Y-99277239D01*
X149937782Y-99266942D01*
X149923653Y-99253566D01*
X149912339Y-99237842D01*
X149906529Y-99225821D01*
X149902925Y-99212217D01*
X149901416Y-99196407D01*
X149902001Y-99180203D01*
X149904680Y-99165419D01*
X149906580Y-99159681D01*
X149907630Y-99157004D01*
X149908630Y-99154557D01*
X149909763Y-99152083D01*
X149911211Y-99149325D01*
X149913159Y-99146026D01*
X149915789Y-99141928D01*
X149919284Y-99136775D01*
X149923828Y-99130310D01*
X149929604Y-99122275D01*
X149936795Y-99112413D01*
X149945585Y-99100468D01*
X149956156Y-99086182D01*
X149968692Y-99069298D01*
X149983377Y-99049559D01*
X150000392Y-99026708D01*
X150019923Y-99000489D01*
X150022704Y-98996755D01*
X150116835Y-98870377D01*
X150053199Y-98784910D01*
X150040109Y-98767225D01*
X150027762Y-98750348D01*
X150016452Y-98734692D01*
X150006469Y-98720670D01*
X149998107Y-98708696D01*
X149991657Y-98699182D01*
X149987412Y-98692543D01*
X149985749Y-98689455D01*
X149980481Y-98669662D01*
X149979425Y-98649609D01*
X149982442Y-98629985D01*
X149989390Y-98611478D01*
X150000131Y-98594777D01*
X150006492Y-98587704D01*
X150022245Y-98574949D01*
X150039667Y-98566124D01*
X150058161Y-98561201D01*
X150077126Y-98560154D01*
X150095964Y-98562953D01*
G37*
G36*
X148741768Y-98344738D02*
G01*
X148760505Y-98349832D01*
X148777624Y-98358590D01*
X148792616Y-98370713D01*
X148804972Y-98385903D01*
X148814183Y-98403862D01*
X148817760Y-98414946D01*
X148818300Y-98417434D01*
X148818783Y-98420688D01*
X148819212Y-98424955D01*
X148819590Y-98430481D01*
X148819920Y-98437515D01*
X148820204Y-98446304D01*
X148820447Y-98457095D01*
X148820650Y-98470135D01*
X148820818Y-98485671D01*
X148820952Y-98503952D01*
X148821056Y-98525224D01*
X148821134Y-98549735D01*
X148821187Y-98577732D01*
X148821219Y-98609462D01*
X148821233Y-98645173D01*
X148821232Y-98685112D01*
X148821229Y-98700031D01*
X148821201Y-98737789D01*
X148821139Y-98773911D01*
X148821044Y-98808135D01*
X148820919Y-98840200D01*
X148820765Y-98869844D01*
X148820585Y-98896805D01*
X148820381Y-98920822D01*
X148820154Y-98941633D01*
X148819907Y-98958976D01*
X148819641Y-98972589D01*
X148819360Y-98982211D01*
X148819064Y-98987580D01*
X148819009Y-98988071D01*
X148814220Y-99008652D01*
X148805586Y-99026833D01*
X148793247Y-99042417D01*
X148777345Y-99055207D01*
X148767078Y-99061005D01*
X148758572Y-99065062D01*
X148751953Y-99067590D01*
X148745581Y-99068948D01*
X148737813Y-99069496D01*
X148727915Y-99069594D01*
X148712928Y-99069132D01*
X148700968Y-99067479D01*
X148690569Y-99064231D01*
X148680265Y-99058988D01*
X148673379Y-99054623D01*
X148658176Y-99041812D01*
X148645721Y-99025775D01*
X148638029Y-99010796D01*
X148636842Y-99007727D01*
X148635856Y-99004532D01*
X148635046Y-99000759D01*
X148634388Y-98995955D01*
X148633857Y-98989668D01*
X148633427Y-98981443D01*
X148633075Y-98970829D01*
X148632775Y-98957373D01*
X148632502Y-98940621D01*
X148632232Y-98920122D01*
X148632003Y-98900823D01*
X148630862Y-98802753D01*
X148564152Y-98802149D01*
X148497442Y-98801544D01*
X148497442Y-98891354D01*
X148497383Y-98912583D01*
X148497215Y-98932482D01*
X148496949Y-98950514D01*
X148496598Y-98966142D01*
X148496174Y-98978829D01*
X148495688Y-98988038D01*
X148495153Y-98993232D01*
X148495144Y-98993283D01*
X148489339Y-99012593D01*
X148479982Y-99029696D01*
X148467607Y-99044270D01*
X148452748Y-99055990D01*
X148435939Y-99064534D01*
X148417713Y-99069578D01*
X148398604Y-99070799D01*
X148379146Y-99067874D01*
X148374285Y-99066456D01*
X148364001Y-99062861D01*
X148356144Y-99059161D01*
X148349063Y-99054362D01*
X148341106Y-99047471D01*
X148338170Y-99044723D01*
X148325169Y-99029416D01*
X148315598Y-99011664D01*
X148310712Y-98995929D01*
X148310285Y-98992271D01*
X148309900Y-98985436D01*
X148309557Y-98975300D01*
X148309254Y-98961740D01*
X148308990Y-98944632D01*
X148308765Y-98923852D01*
X148308576Y-98899276D01*
X148308422Y-98870782D01*
X148308304Y-98838244D01*
X148308219Y-98801539D01*
X148308167Y-98760543D01*
X148308146Y-98715133D01*
X148308145Y-98706191D01*
X148308144Y-98663705D01*
X148308145Y-98625531D01*
X148308161Y-98591422D01*
X148308201Y-98561127D01*
X148308275Y-98534399D01*
X148308394Y-98510988D01*
X148308568Y-98490647D01*
X148308808Y-98473125D01*
X148309123Y-98458175D01*
X148309524Y-98445547D01*
X148310021Y-98434994D01*
X148310625Y-98426265D01*
X148311345Y-98419113D01*
X148312193Y-98413289D01*
X148313179Y-98408543D01*
X148314312Y-98404628D01*
X148315603Y-98401294D01*
X148317062Y-98398293D01*
X148318701Y-98395376D01*
X148320528Y-98392294D01*
X148321194Y-98391165D01*
X148332980Y-98375260D01*
X148347652Y-98362268D01*
X148364502Y-98352529D01*
X148382822Y-98346381D01*
X148401904Y-98344161D01*
X148416978Y-98345396D01*
X148437189Y-98351071D01*
X148455088Y-98360447D01*
X148470288Y-98373146D01*
X148482403Y-98388788D01*
X148491045Y-98406995D01*
X148494946Y-98421728D01*
X148495622Y-98427843D01*
X148496205Y-98438149D01*
X148496686Y-98452275D01*
X148497057Y-98469851D01*
X148497309Y-98490506D01*
X148497431Y-98513870D01*
X148497442Y-98523788D01*
X148497442Y-98612316D01*
X148563582Y-98612316D01*
X148629722Y-98612316D01*
X148629767Y-98527361D01*
X148629839Y-98507355D01*
X148630025Y-98488145D01*
X148630310Y-98470367D01*
X148630679Y-98454652D01*
X148631117Y-98441635D01*
X148631610Y-98431949D01*
X148632110Y-98426440D01*
X148637160Y-98406060D01*
X148645925Y-98387818D01*
X148658033Y-98372142D01*
X148673109Y-98359462D01*
X148690779Y-98350209D01*
X148701473Y-98346735D01*
X148721921Y-98343606D01*
X148741768Y-98344738D01*
G37*
G36*
X148081073Y-95517643D02*
G01*
X148115364Y-95525400D01*
X148148742Y-95537105D01*
X148180853Y-95552734D01*
X148211345Y-95572263D01*
X148239863Y-95595668D01*
X148247772Y-95603235D01*
X148272043Y-95630375D01*
X148292828Y-95660304D01*
X148310186Y-95693129D01*
X148324177Y-95728957D01*
X148331670Y-95754592D01*
X148336654Y-95774002D01*
X148337794Y-96182245D01*
X148338934Y-96590488D01*
X148568659Y-96591069D01*
X148798384Y-96591650D01*
X148799089Y-96186247D01*
X148799794Y-95780844D01*
X148804746Y-95759875D01*
X148814903Y-95724039D01*
X148827793Y-95691486D01*
X148843734Y-95661632D01*
X148863047Y-95633890D01*
X148886051Y-95607673D01*
X148889648Y-95604028D01*
X148916212Y-95579997D01*
X148943927Y-95560049D01*
X148973530Y-95543725D01*
X149005759Y-95530565D01*
X149009823Y-95529182D01*
X149030166Y-95522989D01*
X149049090Y-95518647D01*
X149068168Y-95515915D01*
X149088974Y-95514548D01*
X149106385Y-95514274D01*
X149144582Y-95516349D01*
X149180930Y-95522589D01*
X149215489Y-95533020D01*
X149248319Y-95547665D01*
X149279478Y-95566548D01*
X149309025Y-95589695D01*
X149324307Y-95603950D01*
X149348367Y-95630636D01*
X149368770Y-95659620D01*
X149385680Y-95691196D01*
X149399262Y-95725662D01*
X149407023Y-95752235D01*
X149413138Y-95776283D01*
X149413138Y-96897240D01*
X149413137Y-96982682D01*
X149413135Y-97063683D01*
X149413132Y-97140364D01*
X149413127Y-97212845D01*
X149413118Y-97281247D01*
X149413107Y-97345690D01*
X149413093Y-97406294D01*
X149413075Y-97463181D01*
X149413052Y-97516471D01*
X149413025Y-97566283D01*
X149412993Y-97612740D01*
X149412955Y-97655961D01*
X149412911Y-97696066D01*
X149412860Y-97733177D01*
X149412803Y-97767414D01*
X149412738Y-97798896D01*
X149412665Y-97827746D01*
X149412585Y-97854083D01*
X149412496Y-97878028D01*
X149412397Y-97899701D01*
X149412289Y-97919223D01*
X149412171Y-97936715D01*
X149412043Y-97952296D01*
X149411904Y-97966088D01*
X149411754Y-97978211D01*
X149411592Y-97988785D01*
X149411418Y-97997931D01*
X149411231Y-98005769D01*
X149411032Y-98012421D01*
X149410819Y-98018006D01*
X149410592Y-98022645D01*
X149410351Y-98026458D01*
X149410095Y-98029566D01*
X149409824Y-98032090D01*
X149409537Y-98034150D01*
X149409234Y-98035867D01*
X149409022Y-98036888D01*
X149398994Y-98073544D01*
X149385611Y-98107291D01*
X149368659Y-98138525D01*
X149347922Y-98167645D01*
X149324267Y-98193968D01*
X149296125Y-98219093D01*
X149265694Y-98240275D01*
X149232959Y-98257522D01*
X149197902Y-98270845D01*
X149170245Y-98278229D01*
X149156199Y-98280576D01*
X149138981Y-98282251D01*
X149119934Y-98283224D01*
X149100401Y-98283464D01*
X149081725Y-98282941D01*
X149065251Y-98281624D01*
X149058998Y-98280777D01*
X149022564Y-98272779D01*
X148988000Y-98260745D01*
X148955537Y-98244898D01*
X148925407Y-98225460D01*
X148897844Y-98202652D01*
X148873077Y-98176697D01*
X148851341Y-98147816D01*
X148832867Y-98116232D01*
X148817888Y-98082167D01*
X148806635Y-98045842D01*
X148804685Y-98037583D01*
X148804083Y-98034840D01*
X148803533Y-98032108D01*
X148803032Y-98029180D01*
X148802577Y-98025847D01*
X148802165Y-98021901D01*
X148801795Y-98017133D01*
X148801463Y-98011335D01*
X148801166Y-98004298D01*
X148800902Y-97995813D01*
X148800668Y-97985673D01*
X148800461Y-97973668D01*
X148800278Y-97959591D01*
X148800118Y-97943232D01*
X148799976Y-97924384D01*
X148799851Y-97902837D01*
X148799740Y-97878384D01*
X148799639Y-97850815D01*
X148799547Y-97819923D01*
X148799460Y-97785498D01*
X148799375Y-97747333D01*
X148799291Y-97705219D01*
X148799204Y-97658947D01*
X148799118Y-97611665D01*
X148798383Y-97207414D01*
X148568137Y-97207414D01*
X148337891Y-97207414D01*
X148337235Y-97616226D01*
X148336579Y-98025039D01*
X148330472Y-98048038D01*
X148319452Y-98083078D01*
X148305737Y-98114880D01*
X148288949Y-98144134D01*
X148268713Y-98171529D01*
X148254050Y-98188116D01*
X148227097Y-98213458D01*
X148197393Y-98235243D01*
X148165218Y-98253322D01*
X148130851Y-98267544D01*
X148094573Y-98277763D01*
X148080379Y-98280559D01*
X148066943Y-98282221D01*
X148050401Y-98283229D01*
X148032159Y-98283586D01*
X148013625Y-98283296D01*
X147996204Y-98282361D01*
X147981305Y-98280786D01*
X147978259Y-98280313D01*
X147956476Y-98275547D01*
X147933181Y-98268529D01*
X147910373Y-98259919D01*
X147894235Y-98252539D01*
X147861347Y-98233583D01*
X147831530Y-98211354D01*
X147804953Y-98186094D01*
X147781783Y-98158048D01*
X147762188Y-98127458D01*
X147746337Y-98094570D01*
X147734397Y-98059626D01*
X147726535Y-98022871D01*
X147724391Y-98005982D01*
X147724044Y-98000143D01*
X147723724Y-97989791D01*
X147723430Y-97974977D01*
X147723162Y-97955749D01*
X147722922Y-97932157D01*
X147722709Y-97904250D01*
X147722524Y-97872078D01*
X147722367Y-97835689D01*
X147722238Y-97795134D01*
X147722137Y-97750461D01*
X147722065Y-97701719D01*
X147722022Y-97648958D01*
X147722009Y-97594888D01*
X147722009Y-97207414D01*
X147330241Y-97207414D01*
X147275909Y-97207400D01*
X147225061Y-97207358D01*
X147177784Y-97207290D01*
X147134166Y-97207195D01*
X147094293Y-97207074D01*
X147058252Y-97206928D01*
X147026130Y-97206757D01*
X146998015Y-97206561D01*
X146973992Y-97206341D01*
X146954149Y-97206098D01*
X146938572Y-97205831D01*
X146927350Y-97205542D01*
X146920568Y-97205231D01*
X146919148Y-97205105D01*
X146890526Y-97200591D01*
X146864093Y-97193945D01*
X146838095Y-97184648D01*
X146815318Y-97174415D01*
X146783187Y-97156339D01*
X146753882Y-97134780D01*
X146727578Y-97109967D01*
X146704452Y-97082128D01*
X146684677Y-97051492D01*
X146668431Y-97018289D01*
X146655889Y-96982748D01*
X146649819Y-96958562D01*
X146646577Y-96937924D01*
X146644838Y-96914593D01*
X146644601Y-96890181D01*
X146645867Y-96866301D01*
X146648635Y-96844567D01*
X146649799Y-96838512D01*
X146659827Y-96801655D01*
X146673850Y-96766901D01*
X146691743Y-96734442D01*
X146713382Y-96704468D01*
X146738642Y-96677172D01*
X146767400Y-96652745D01*
X146773155Y-96648511D01*
X146798882Y-96631873D01*
X146826110Y-96618043D01*
X146855846Y-96606561D01*
X146881414Y-96598944D01*
X146904383Y-96592843D01*
X147313130Y-96592187D01*
X147721876Y-96591532D01*
X147722653Y-96188469D01*
X147722748Y-96137283D01*
X147722830Y-96090447D01*
X147722909Y-96047746D01*
X147722990Y-96008969D01*
X147723083Y-95973904D01*
X147723193Y-95942336D01*
X147723329Y-95914054D01*
X147723498Y-95888846D01*
X147723708Y-95866498D01*
X147723966Y-95846798D01*
X147724280Y-95829533D01*
X147724658Y-95814492D01*
X147725106Y-95801460D01*
X147725632Y-95790227D01*
X147726244Y-95780578D01*
X147726949Y-95772302D01*
X147727755Y-95765185D01*
X147728670Y-95759017D01*
X147729700Y-95753582D01*
X147730854Y-95748670D01*
X147732138Y-95744068D01*
X147733561Y-95739562D01*
X147735130Y-95734941D01*
X147736852Y-95729991D01*
X147738735Y-95724501D01*
X147739083Y-95723462D01*
X147753010Y-95688540D01*
X147770523Y-95656417D01*
X147791703Y-95626984D01*
X147816629Y-95600129D01*
X147845166Y-95575905D01*
X147875950Y-95555354D01*
X147908296Y-95538919D01*
X147941850Y-95526575D01*
X147976258Y-95518300D01*
X148011167Y-95514069D01*
X148046223Y-95513858D01*
X148081073Y-95517643D01*
G37*
D14*
%TO.C,D24*%
X144050000Y-107575000D02*
G75*
G02*
X143950000Y-107575000I-50000J0D01*
G01*
X143950000Y-107575000D02*
G75*
G02*
X144050000Y-107575000I50000J0D01*
G01*
%TO.C,D17*%
X139550000Y-107575000D02*
G75*
G02*
X139450000Y-107575000I-50000J0D01*
G01*
X139450000Y-107575000D02*
G75*
G02*
X139550000Y-107575000I50000J0D01*
G01*
D17*
%TO.C,U1*%
X147720000Y-110800000D02*
X149280000Y-110800000D01*
X149280000Y-109200000D02*
X147720000Y-109200000D01*
D18*
X146500000Y-109500000D02*
G75*
G02*
X146300000Y-109500000I-100000J0D01*
G01*
X146300000Y-109500000D02*
G75*
G02*
X146500000Y-109500000I100000J0D01*
G01*
D14*
%TO.C,D31*%
X150050000Y-107575000D02*
G75*
G02*
X149950000Y-107575000I-50000J0D01*
G01*
X149950000Y-107575000D02*
G75*
G02*
X150050000Y-107575000I50000J0D01*
G01*
%TO.C,D20*%
X144460000Y-102000000D02*
G75*
G02*
X144360000Y-102000000I-50000J0D01*
G01*
X144360000Y-102000000D02*
G75*
G02*
X144460000Y-102000000I50000J0D01*
G01*
%TO.C,D34*%
X154960000Y-102000000D02*
G75*
G02*
X154860000Y-102000000I-50000J0D01*
G01*
X154860000Y-102000000D02*
G75*
G02*
X154960000Y-102000000I50000J0D01*
G01*
%TO.C,D14*%
X142550000Y-104575000D02*
G75*
G02*
X142450000Y-104575000I-50000J0D01*
G01*
X142450000Y-104575000D02*
G75*
G02*
X142550000Y-104575000I50000J0D01*
G01*
D15*
%TO.C,D12*%
X140540000Y-91915644D02*
X140540000Y-92565644D01*
X141190000Y-91915644D02*
X140540000Y-91915644D01*
%TO.C,D8*%
X140540000Y-116164356D02*
X140540000Y-116814356D01*
X141190000Y-116164356D02*
X140540000Y-116164356D01*
%TO.C,D1*%
X147540000Y-90040000D02*
X147540000Y-90690000D01*
X148190000Y-90040000D02*
X147540000Y-90040000D01*
D14*
%TO.C,D35*%
X157550000Y-104575000D02*
G75*
G02*
X157450000Y-104575000I-50000J0D01*
G01*
X157450000Y-104575000D02*
G75*
G02*
X157550000Y-104575000I50000J0D01*
G01*
D15*
%TO.C,D5*%
X159664356Y-111040000D02*
X159664356Y-111690000D01*
X160314356Y-111040000D02*
X159664356Y-111040000D01*
D14*
%TO.C,D22*%
X147050000Y-107575000D02*
G75*
G02*
X146950000Y-107575000I-50000J0D01*
G01*
X146950000Y-107575000D02*
G75*
G02*
X147050000Y-107575000I50000J0D01*
G01*
D15*
%TO.C,D11*%
X135415644Y-97040000D02*
X135415644Y-97690000D01*
X136065644Y-97040000D02*
X135415644Y-97040000D01*
%TO.C,D3*%
X159664356Y-97040000D02*
X159664356Y-97690000D01*
X160314356Y-97040000D02*
X159664356Y-97040000D01*
D14*
%TO.C,D16*%
X139960000Y-108000000D02*
G75*
G02*
X139860000Y-108000000I-50000J0D01*
G01*
X139860000Y-108000000D02*
G75*
G02*
X139960000Y-108000000I50000J0D01*
G01*
%TO.C,D13*%
X139960000Y-102000000D02*
G75*
G02*
X139860000Y-102000000I-50000J0D01*
G01*
X139860000Y-102000000D02*
G75*
G02*
X139960000Y-102000000I50000J0D01*
G01*
%TO.C,D32*%
X150050000Y-104605000D02*
G75*
G02*
X149950000Y-104605000I-50000J0D01*
G01*
X149950000Y-104605000D02*
G75*
G02*
X150050000Y-104605000I50000J0D01*
G01*
%TO.C,D23*%
X144460000Y-108000000D02*
G75*
G02*
X144360000Y-108000000I-50000J0D01*
G01*
X144360000Y-108000000D02*
G75*
G02*
X144460000Y-108000000I50000J0D01*
G01*
D15*
%TO.C,D6*%
X154540000Y-116164356D02*
X154540000Y-116814356D01*
X155190000Y-116164356D02*
X154540000Y-116164356D01*
%TO.C,D7*%
X147540000Y-118040000D02*
X147540000Y-118690000D01*
X148190000Y-118040000D02*
X147540000Y-118040000D01*
D14*
%TO.C,D38*%
X154550000Y-107575000D02*
G75*
G02*
X154450000Y-107575000I-50000J0D01*
G01*
X154450000Y-107575000D02*
G75*
G02*
X154550000Y-107575000I50000J0D01*
G01*
%TO.C,D28*%
X153050000Y-104575000D02*
G75*
G02*
X152950000Y-104575000I-50000J0D01*
G01*
X152950000Y-104575000D02*
G75*
G02*
X153050000Y-104575000I50000J0D01*
G01*
%TO.C,D39*%
X154550000Y-104605000D02*
G75*
G02*
X154450000Y-104605000I-50000J0D01*
G01*
X154450000Y-104605000D02*
G75*
G02*
X154550000Y-104605000I50000J0D01*
G01*
%TO.C,D21*%
X147050000Y-104575000D02*
G75*
G02*
X146950000Y-104575000I-50000J0D01*
G01*
X146950000Y-104575000D02*
G75*
G02*
X147050000Y-104575000I50000J0D01*
G01*
%TD*%
%LPC*%
D19*
%TO.C,D26*%
X145015000Y-105000000D03*
X145985000Y-105000000D03*
%TD*%
D20*
%TO.C,C17*%
X162861025Y-103553975D03*
X162221025Y-103553975D03*
%TD*%
D21*
%TO.C,D29*%
X153000000Y-106970000D03*
X153000000Y-106000000D03*
%TD*%
D19*
%TO.C,D33*%
X151015000Y-105000000D03*
X151985000Y-105000000D03*
%TD*%
D20*
%TO.C,C20*%
X148815000Y-117600000D03*
X148175000Y-117600000D03*
%TD*%
D19*
%TO.C,D40*%
X155515000Y-105000000D03*
X156485000Y-105000000D03*
%TD*%
%TO.C,D19*%
X140515000Y-105000000D03*
X141485000Y-105000000D03*
%TD*%
D21*
%TO.C,D15*%
X142500000Y-106970000D03*
X142500000Y-106000000D03*
%TD*%
%TO.C,D36*%
X157500000Y-106970000D03*
X157500000Y-106000000D03*
%TD*%
D22*
%TO.C,D4*%
X162050000Y-105450000D03*
X162950000Y-105450000D03*
X162950000Y-104550000D03*
X162050000Y-104550000D03*
%TD*%
D21*
%TO.C,D18*%
X139500000Y-103970000D03*
X139500000Y-103000000D03*
%TD*%
D22*
%TO.C,D9*%
X135925644Y-112450000D03*
X136825644Y-112450000D03*
X136825644Y-111550000D03*
X135925644Y-111550000D03*
%TD*%
%TO.C,D10*%
X134050000Y-105450000D03*
X134950000Y-105450000D03*
X134950000Y-104550000D03*
X134050000Y-104550000D03*
%TD*%
D20*
%TO.C,C23*%
X134768975Y-103553975D03*
X134128975Y-103553975D03*
%TD*%
D19*
%TO.C,D30*%
X151015000Y-108000000D03*
X151985000Y-108000000D03*
%TD*%
%TO.C,D37*%
X155515000Y-108000000D03*
X156485000Y-108000000D03*
%TD*%
D20*
%TO.C,C24*%
X136650786Y-96530962D03*
X136010786Y-96530962D03*
%TD*%
D19*
%TO.C,D27*%
X151015000Y-102000000D03*
X151985000Y-102000000D03*
%TD*%
D22*
%TO.C,D2*%
X155050000Y-93325644D03*
X155950000Y-93325644D03*
X155950000Y-92425644D03*
X155050000Y-92425644D03*
%TD*%
D21*
%TO.C,D25*%
X144000000Y-104000000D03*
X144000000Y-103030000D03*
%TD*%
D20*
%TO.C,C22*%
X136650786Y-110576988D03*
X136010786Y-110576988D03*
%TD*%
%TO.C,C15*%
X155838012Y-91389761D03*
X155198012Y-91389761D03*
%TD*%
D21*
%TO.C,D24*%
X144000000Y-106970000D03*
X144000000Y-106000000D03*
%TD*%
%TO.C,D17*%
X139500000Y-106970000D03*
X139500000Y-106000000D03*
%TD*%
D23*
%TO.C,U1*%
X147125000Y-109500000D03*
X147125000Y-110000000D03*
X147125000Y-110500000D03*
X149875000Y-110500000D03*
X149875000Y-110000000D03*
X149875000Y-109500000D03*
%TD*%
D20*
%TO.C,C16*%
X160979214Y-96530963D03*
X160339214Y-96530963D03*
%TD*%
D21*
%TO.C,D31*%
X150000000Y-106970000D03*
X150000000Y-106000000D03*
%TD*%
D20*
%TO.C,C14*%
X148815000Y-89507950D03*
X148175000Y-89507950D03*
%TD*%
D19*
%TO.C,D20*%
X145015000Y-102000000D03*
X145985000Y-102000000D03*
%TD*%
%TO.C,D34*%
X155515000Y-102000000D03*
X156485000Y-102000000D03*
%TD*%
D21*
%TO.C,D14*%
X142500000Y-103970000D03*
X142500000Y-103000000D03*
%TD*%
D22*
%TO.C,D12*%
X141050000Y-93325644D03*
X141950000Y-93325644D03*
X141950000Y-92425644D03*
X141050000Y-92425644D03*
%TD*%
%TO.C,D8*%
X141050000Y-117574356D03*
X141950000Y-117574356D03*
X141950000Y-116674356D03*
X141050000Y-116674356D03*
%TD*%
%TO.C,D1*%
X148050000Y-91450000D03*
X148950000Y-91450000D03*
X148950000Y-90550000D03*
X148050000Y-90550000D03*
%TD*%
D20*
%TO.C,C25*%
X141791987Y-91389761D03*
X141151987Y-91389761D03*
%TD*%
%TO.C,C21*%
X141791987Y-115718189D03*
X141151987Y-115718189D03*
%TD*%
D21*
%TO.C,D35*%
X157500000Y-103970000D03*
X157500000Y-103000000D03*
%TD*%
D22*
%TO.C,D5*%
X160174356Y-112450000D03*
X161074356Y-112450000D03*
X161074356Y-111550000D03*
X160174356Y-111550000D03*
%TD*%
D21*
%TO.C,D22*%
X147000000Y-106970000D03*
X147000000Y-106000000D03*
%TD*%
D22*
%TO.C,D11*%
X135925644Y-98450000D03*
X136825644Y-98450000D03*
X136825644Y-97550000D03*
X135925644Y-97550000D03*
%TD*%
%TO.C,D3*%
X160174356Y-98450000D03*
X161074356Y-98450000D03*
X161074356Y-97550000D03*
X160174356Y-97550000D03*
%TD*%
D19*
%TO.C,D16*%
X140515000Y-108000000D03*
X141485000Y-108000000D03*
%TD*%
%TO.C,D13*%
X140515000Y-102000000D03*
X141485000Y-102000000D03*
%TD*%
D21*
%TO.C,D32*%
X150000000Y-104000000D03*
X150000000Y-103030000D03*
%TD*%
D19*
%TO.C,D23*%
X145015000Y-108000000D03*
X145985000Y-108000000D03*
%TD*%
D22*
%TO.C,D6*%
X155050000Y-117574356D03*
X155950000Y-117574356D03*
X155950000Y-116674356D03*
X155050000Y-116674356D03*
%TD*%
D20*
%TO.C,C18*%
X160979214Y-110576988D03*
X160339214Y-110576988D03*
%TD*%
D22*
%TO.C,D7*%
X148050000Y-119450000D03*
X148950000Y-119450000D03*
X148950000Y-118550000D03*
X148050000Y-118550000D03*
%TD*%
D21*
%TO.C,D38*%
X154500000Y-106970000D03*
X154500000Y-106000000D03*
%TD*%
D20*
%TO.C,C19*%
X155838012Y-115718189D03*
X155198012Y-115718189D03*
%TD*%
D21*
%TO.C,D28*%
X153000000Y-103970000D03*
X153000000Y-103000000D03*
%TD*%
%TO.C,D39*%
X154500000Y-104000000D03*
X154500000Y-103030000D03*
%TD*%
%TO.C,D21*%
X147000000Y-103970000D03*
X147000000Y-103000000D03*
%TD*%
%LPD*%
M02*
