%TF.GenerationSoftware,KiCad,Pcbnew,7.0.10-7.0.10~ubuntu22.04.1*%
%TF.CreationDate,2024-04-10T21:13:45+02:00*%
%TF.ProjectId,STM32_watch_NFC,53544d33-325f-4776-9174-63685f4e4643,rev?*%
%TF.SameCoordinates,Original*%
%TF.FileFunction,Copper,L2,Inr*%
%TF.FilePolarity,Positive*%
%FSLAX46Y46*%
G04 Gerber Fmt 4.6, Leading zero omitted, Abs format (unit mm)*
G04 Created by KiCad (PCBNEW 7.0.10-7.0.10~ubuntu22.04.1) date 2024-04-10 21:13:45*
%MOMM*%
%LPD*%
G01*
G04 APERTURE LIST*
%TA.AperFunction,ViaPad*%
%ADD10C,0.500000*%
%TD*%
%TA.AperFunction,ViaPad*%
%ADD11C,0.800000*%
%TD*%
%TA.AperFunction,Conductor*%
%ADD12C,0.200000*%
%TD*%
%TA.AperFunction,Conductor*%
%ADD13C,0.300000*%
%TD*%
G04 APERTURE END LIST*
D10*
%TO.N,+3.3V*%
X136850000Y-92900000D03*
X140950000Y-118900000D03*
%TO.N,+5V*%
X154460624Y-120050000D03*
X139700000Y-113700000D03*
X136400000Y-102000000D03*
%TO.N,/NRST*%
X159250000Y-113950000D03*
%TO.N,+3.3V*%
X158550000Y-114500000D03*
X153450000Y-118600000D03*
%TO.N,GND*%
X145250000Y-107650000D03*
X151500000Y-115750000D03*
%TO.N,BATT_STM*%
X150500000Y-116200000D03*
%TO.N,GND*%
X151000000Y-108400000D03*
D11*
X159800000Y-107500000D03*
D10*
%TO.N,+3.3V*%
X159500000Y-105800000D03*
%TO.N,GND*%
X144200000Y-93800000D03*
X153500000Y-94500000D03*
D11*
X144100000Y-98500000D03*
D10*
%TO.N,+BATT*%
X137499990Y-110800000D03*
X142900000Y-116000000D03*
D11*
%TO.N,GND*%
X139800000Y-105100000D03*
D10*
%TO.N,+5V*%
X151600000Y-99300002D03*
%TO.N,Net-(U3-RFO2)*%
X147600000Y-95000000D03*
%TO.N,Net-(U3-RFO1)*%
X149900000Y-95000000D03*
%TO.N,DIN_STM*%
X152700000Y-117900000D03*
%TO.N,/SWCLK*%
X157700000Y-118500000D03*
%TO.N,/SWDIO*%
X158200000Y-116000000D03*
%TO.N,Button_R*%
X161300000Y-108800000D03*
%TO.N,CHRG_STM*%
X141600000Y-113300000D03*
%TO.N,DONE_STM*%
X139900000Y-108400000D03*
%TO.N,Button_LT*%
X142900000Y-89500000D03*
%TO.N,Button_LB*%
X136000000Y-115000000D03*
%TO.N,Net-(U3-VDD_DR)*%
X152841590Y-100178612D03*
X154300000Y-96500000D03*
%TO.N,Net-(U3-RFO2)*%
X155900000Y-96300000D03*
%TO.N,Net-(U3-RFO1)*%
X153400000Y-96500000D03*
%TO.N,+5V*%
X149600000Y-97600000D03*
X152146795Y-100410819D03*
%TO.N,SPI_MOSI_STM*%
X157884846Y-103808385D03*
%TO.N,SPI_MISO_STM*%
X157340901Y-104249911D03*
%TO.N,SPI_SCL_STM*%
X158394578Y-103328618D03*
%TO.N,SPI_CS_STM*%
X158889045Y-102800000D03*
%TO.N,SPI_IRQ_STM*%
X159350000Y-102250000D03*
%TO.N,CHRG_STM*%
X148408159Y-104500000D03*
%TO.N,DONE_STM*%
X149213312Y-105060802D03*
%TO.N,Button_R*%
X151300000Y-103600000D03*
%TO.N,/SWDIO*%
X151800000Y-104100000D03*
%TO.N,/SWCLK*%
X151487548Y-106235757D03*
%TO.N,DIN_STM*%
X151021805Y-106823623D03*
%TO.N,Button_LT*%
X147200000Y-105000000D03*
%TO.N,Button_LB*%
X145100000Y-105500000D03*
%TO.N,BATT_STM*%
X149000000Y-101300000D03*
%TO.N,SPI_MOSI_STM*%
X147440191Y-101817276D03*
%TO.N,SPI_MISO_STM*%
X146910559Y-102301725D03*
%TO.N,SPI_SCL_STM*%
X146350000Y-102850016D03*
%TO.N,SPI_CS_STM*%
X145850000Y-103400000D03*
%TO.N,SPI_IRQ_STM*%
X145348275Y-103907472D03*
D11*
%TO.N,/NRST*%
X148100000Y-105500000D03*
X149000000Y-112200000D03*
%TO.N,+3.3V*%
X150500000Y-111700000D03*
X150940546Y-102829742D03*
X147800000Y-98800000D03*
D10*
%TO.N,GND*%
X156900000Y-117600000D03*
X142900000Y-117600000D03*
X136800000Y-95900000D03*
X155900000Y-115000000D03*
X141900000Y-90800000D03*
X137800000Y-98500000D03*
X162000000Y-98500000D03*
X136800000Y-109900000D03*
X148900000Y-88900000D03*
X155900000Y-90800000D03*
X161000000Y-95900000D03*
X161000000Y-109900000D03*
X134900000Y-102900000D03*
X135900000Y-105500000D03*
X149900000Y-91450000D03*
X137800000Y-112500000D03*
X156900000Y-93400000D03*
X141900000Y-115000000D03*
X163900000Y-105500000D03*
X142900000Y-93300000D03*
X162900000Y-102900000D03*
X162000000Y-112500000D03*
X149900000Y-119500000D03*
X148900000Y-116900000D03*
%TO.N,/NFC_RFID/A2*%
X149550000Y-88500000D03*
%TO.N,/NFC_RFID/A1*%
X148575000Y-85850000D03*
%TO.N,Net-(D7-DIN)*%
X149900000Y-118600000D03*
X148900000Y-119900000D03*
%TO.N,Net-(D1-DOUT)*%
X156900000Y-92500000D03*
X147150000Y-91500000D03*
%TO.N,Net-(D1-DIN)*%
X149900000Y-90550000D03*
X140100000Y-93300000D03*
%TO.N,Net-(D2-DOUT)*%
X162000000Y-97600000D03*
X154100000Y-93400000D03*
%TO.N,Net-(D3-DOUT)*%
X163900000Y-104600000D03*
X159200000Y-98500000D03*
%TO.N,Net-(D4-DOUT)*%
X162100000Y-111600000D03*
X161100000Y-105500000D03*
%TO.N,Net-(D5-DOUT)*%
X159200000Y-112500000D03*
X156900000Y-116700000D03*
%TO.N,Net-(D7-DOUT)*%
X147100000Y-119500000D03*
X142900000Y-116700000D03*
%TO.N,Net-(D8-DOUT)*%
X137800000Y-111600000D03*
X140100000Y-117600000D03*
%TO.N,Net-(D10-DIN)*%
X135900000Y-104600000D03*
X135000000Y-112500000D03*
%TO.N,Net-(D10-DOUT)*%
X133100000Y-105500000D03*
X137800000Y-97500000D03*
%TO.N,Net-(D11-DOUT)*%
X135000000Y-98500000D03*
X142900000Y-92400000D03*
%TD*%
D12*
%TO.N,Button_LB*%
X143100000Y-107500000D02*
X145100000Y-105500000D01*
X137900000Y-107500000D02*
X143100000Y-107500000D01*
X136000000Y-115000000D02*
X136000000Y-109400000D01*
X136000000Y-109400000D02*
X137900000Y-107500000D01*
D13*
%TO.N,+3.3V*%
X150940546Y-102829742D02*
X150350000Y-103420288D01*
X150350000Y-103420288D02*
X150350000Y-111550000D01*
X150350000Y-111550000D02*
X150500000Y-111700000D01*
X150940546Y-102829742D02*
X150940546Y-101940546D01*
X150940546Y-101940546D02*
X147800000Y-98800000D01*
%TO.N,Net-(D11-DOUT)*%
X142900000Y-92400000D02*
X143200000Y-92400000D01*
X143200000Y-92400000D02*
X143600000Y-92800000D01*
X143600000Y-92800000D02*
X143600000Y-97200000D01*
X143600000Y-97200000D02*
X140600000Y-100200000D01*
X140600000Y-100200000D02*
X136400000Y-100200000D01*
X136400000Y-100200000D02*
X135000000Y-98800000D01*
X135000000Y-98800000D02*
X135000000Y-98500000D01*
%TO.N,GND*%
X151500000Y-119500000D02*
X151600000Y-119400000D01*
X158400000Y-119000000D02*
X158400000Y-118200000D01*
X151600000Y-119400000D02*
X158000000Y-119400000D01*
X158000000Y-119400000D02*
X158400000Y-119000000D01*
X158400000Y-118200000D02*
X157800000Y-117600000D01*
X157800000Y-117600000D02*
X156900000Y-117600000D01*
D12*
%TO.N,/SWDIO*%
X158398531Y-116000000D02*
X158200000Y-116000000D01*
X151800000Y-104100000D02*
X160050001Y-112350001D01*
X160050001Y-112350001D02*
X160050001Y-114348530D01*
X160050001Y-114348530D02*
X158398531Y-116000000D01*
%TO.N,DONE_STM*%
X148600000Y-103700000D02*
X146800000Y-103700000D01*
X145398529Y-108400000D02*
X139900000Y-108400000D01*
X146800000Y-103700000D02*
X145900000Y-104600000D01*
X145900000Y-104600000D02*
X145900000Y-107898529D01*
X149213312Y-104313312D02*
X148600000Y-103700000D01*
X145900000Y-107898529D02*
X145398529Y-108400000D01*
X149213312Y-105060802D02*
X149213312Y-104313312D01*
D13*
%TO.N,GND*%
X151500000Y-108900000D02*
X151000000Y-108400000D01*
X149900000Y-119500000D02*
X151500000Y-119500000D01*
X151500000Y-119500000D02*
X151500000Y-108900000D01*
%TO.N,Net-(U3-RFO2)*%
X155900000Y-96300000D02*
X155000000Y-95400000D01*
X155000000Y-95400000D02*
X153000000Y-95400000D01*
X153000000Y-95400000D02*
X152000000Y-94400000D01*
X152000000Y-94400000D02*
X148200000Y-94400000D01*
X148200000Y-94400000D02*
X147600000Y-95000000D01*
%TO.N,GND*%
X144100000Y-98500000D02*
X144100000Y-100800000D01*
X144100000Y-100800000D02*
X139800000Y-105100000D01*
X139800000Y-105100000D02*
X137600000Y-102900000D01*
X137600000Y-102900000D02*
X134900000Y-102900000D01*
X136800000Y-95900000D02*
X135500000Y-95900000D01*
X135500000Y-95900000D02*
X132100000Y-99300000D01*
X132100000Y-99300000D02*
X132100000Y-107100000D01*
X132100000Y-107100000D02*
X133200000Y-108200000D01*
%TO.N,+5V*%
X149600000Y-97600000D02*
X151200000Y-99200000D01*
X151200000Y-99200000D02*
X152146795Y-100146795D01*
X151600000Y-99300002D02*
X151300002Y-99300002D01*
X151300002Y-99300002D02*
X151200000Y-99200000D01*
X152146795Y-100410819D02*
X152146795Y-99846797D01*
X152146795Y-99846797D02*
X151600000Y-99300002D01*
X152146795Y-100146795D02*
X152146795Y-100410819D01*
%TO.N,Net-(U3-VDD_DR)*%
X154300000Y-96500000D02*
X152841590Y-97958410D01*
X152841590Y-97958410D02*
X152841590Y-100178612D01*
%TO.N,Net-(U3-RFO1)*%
X153400000Y-96500000D02*
X151400000Y-96500000D01*
X151400000Y-96500000D02*
X149900000Y-95000000D01*
%TO.N,GND*%
X149900000Y-91450000D02*
X155250000Y-91450000D01*
X155250000Y-91450000D02*
X155900000Y-90800000D01*
X142900000Y-93300000D02*
X140300000Y-95900000D01*
X140300000Y-95900000D02*
X137600000Y-95900000D01*
X137800000Y-98500000D02*
X138500000Y-97800000D01*
X138500000Y-97800000D02*
X138500000Y-96800000D01*
X138500000Y-96800000D02*
X137600000Y-95900000D01*
X137600000Y-95900000D02*
X136800000Y-95900000D01*
X136700000Y-116200000D02*
X141300000Y-120800000D01*
X141300000Y-120800000D02*
X146100000Y-120800000D01*
X135900000Y-105500000D02*
X133200000Y-108200000D01*
X133200000Y-108200000D02*
X133200000Y-113500000D01*
X133200000Y-113500000D02*
X135900000Y-116200000D01*
X135900000Y-116200000D02*
X136700000Y-116200000D01*
X136700000Y-116200000D02*
X137800000Y-115100000D01*
X137800000Y-115100000D02*
X137800000Y-112500000D01*
X135900000Y-105500000D02*
X134900000Y-104500000D01*
X134900000Y-104500000D02*
X134900000Y-102900000D01*
X137800000Y-112500000D02*
X136800000Y-111500000D01*
X136800000Y-111500000D02*
X136800000Y-109900000D01*
X141900000Y-115000000D02*
X141900000Y-116600000D01*
X141900000Y-116600000D02*
X142900000Y-117600000D01*
X142900000Y-117600000D02*
X146100000Y-120800000D01*
X146100000Y-120800000D02*
X149300000Y-120800000D01*
X149300000Y-120800000D02*
X149900000Y-120200000D01*
X149900000Y-120200000D02*
X149900000Y-119500000D01*
X149900000Y-119500000D02*
X150700000Y-118700000D01*
X150700000Y-118700000D02*
X150700000Y-118300000D01*
X150700000Y-118300000D02*
X149300000Y-116900000D01*
X149300000Y-116900000D02*
X148900000Y-116900000D01*
X156900000Y-117600000D02*
X155900000Y-116600000D01*
X155900000Y-116600000D02*
X155900000Y-115000000D01*
X162000000Y-112500000D02*
X161200000Y-112500000D01*
X161200000Y-112500000D02*
X161000000Y-112300000D01*
X161000000Y-112300000D02*
X161000000Y-109900000D01*
X163900000Y-105500000D02*
X162900000Y-104500000D01*
X162900000Y-104500000D02*
X162900000Y-102900000D01*
X162000000Y-98500000D02*
X162600000Y-97900000D01*
X162600000Y-97900000D02*
X162600000Y-97000000D01*
X162600000Y-97000000D02*
X161500000Y-95900000D01*
X161500000Y-95900000D02*
X161000000Y-95900000D01*
X156900000Y-93400000D02*
X157700000Y-92600000D01*
X157700000Y-92600000D02*
X157700000Y-92200000D01*
X157700000Y-92200000D02*
X156300000Y-90800000D01*
X156300000Y-90800000D02*
X155900000Y-90800000D01*
D12*
%TO.N,DIN_STM*%
X152500000Y-108301818D02*
X152500000Y-117300000D01*
X152700000Y-117900000D02*
X152500000Y-117700000D01*
X152500000Y-117700000D02*
X152500000Y-117300000D01*
%TO.N,Button_R*%
X151300000Y-103600000D02*
X151600000Y-103300000D01*
X151600000Y-103300000D02*
X151700000Y-103300000D01*
X151700000Y-103300000D02*
X151900000Y-103300000D01*
X151900000Y-103300000D02*
X155100000Y-106500000D01*
X155100000Y-106500000D02*
X157400000Y-108800000D01*
X157400000Y-108800000D02*
X161300000Y-108800000D01*
%TO.N,/SWCLK*%
X151487548Y-106235757D02*
X153000000Y-107748209D01*
X153000000Y-117100000D02*
X154500000Y-118600000D01*
X153000000Y-107748209D02*
X153000000Y-117100000D01*
X154500000Y-118600000D02*
X157500000Y-118600000D01*
X157500000Y-118600000D02*
X157600000Y-118500000D01*
%TO.N,DIN_STM*%
X151021805Y-106823623D02*
X152500000Y-108301818D01*
%TO.N,BATT_STM*%
X149000000Y-101300000D02*
X149000000Y-103300000D01*
X149000000Y-103300000D02*
X149900000Y-104200000D01*
X149900000Y-104200000D02*
X149900000Y-110500000D01*
X149900000Y-110500000D02*
X149700000Y-110700000D01*
X149700000Y-110700000D02*
X149700000Y-112400000D01*
X149700000Y-112400000D02*
X150500000Y-113200000D01*
X150500000Y-113200000D02*
X150500000Y-116200000D01*
%TO.N,/NRST*%
X148100000Y-105500000D02*
X148100000Y-111300000D01*
X148100000Y-111300000D02*
X149000000Y-112200000D01*
%TO.N,CHRG_STM*%
X148408159Y-104500000D02*
X148108159Y-104200000D01*
X148108159Y-104200000D02*
X147100000Y-104200000D01*
X147100000Y-104200000D02*
X146300000Y-105000000D01*
X146300000Y-105000000D02*
X146300000Y-110900000D01*
X146300000Y-110900000D02*
X143900000Y-113300000D01*
X143900000Y-113300000D02*
X141600000Y-113300000D01*
D13*
%TO.N,Net-(D7-DIN)*%
X148900000Y-119100000D02*
X148900000Y-119900000D01*
X149400000Y-118600000D02*
X148900000Y-119100000D01*
X149900000Y-118600000D02*
X149400000Y-118600000D01*
%TO.N,Net-(D1-DOUT)*%
X148150000Y-92500000D02*
X156900000Y-92500000D01*
X147150000Y-91500000D02*
X148150000Y-92500000D01*
%TO.N,Net-(D1-DIN)*%
X145950000Y-90550000D02*
X149900000Y-90550000D01*
X140100000Y-93300000D02*
X141800000Y-91600000D01*
X141800000Y-91600000D02*
X144900000Y-91600000D01*
X144900000Y-91600000D02*
X145950000Y-90550000D01*
%TO.N,Net-(D2-DOUT)*%
X154100000Y-93400000D02*
X158300000Y-97600000D01*
X158300000Y-97600000D02*
X162000000Y-97600000D01*
%TO.N,Net-(D3-DOUT)*%
X162600000Y-101900000D02*
X163500000Y-101900000D01*
X163900000Y-102300000D02*
X163900000Y-104600000D01*
X163500000Y-101900000D02*
X163900000Y-102300000D01*
X159200000Y-98500000D02*
X162600000Y-101900000D01*
%TO.N,Net-(D4-DOUT)*%
X161100000Y-107300000D02*
X162100000Y-108300000D01*
X162100000Y-108300000D02*
X162100000Y-111600000D01*
X161100000Y-105500000D02*
X161100000Y-107300000D01*
%TO.N,Net-(D5-DOUT)*%
X159200000Y-112500000D02*
X156900000Y-114800000D01*
X156900000Y-114800000D02*
X156900000Y-116700000D01*
%TO.N,Net-(D7-DOUT)*%
X144300000Y-116700000D02*
X142900000Y-116700000D01*
X147100000Y-119500000D02*
X144300000Y-116700000D01*
%TO.N,Net-(D8-DOUT)*%
X140100000Y-117600000D02*
X139000000Y-116500000D01*
X139000000Y-112800000D02*
X137800000Y-111600000D01*
X139000000Y-116500000D02*
X139000000Y-112800000D01*
%TO.N,Net-(D10-DIN)*%
X135900000Y-104600000D02*
X136800000Y-104600000D01*
X134000000Y-109500000D02*
X134000000Y-111500000D01*
X137300000Y-106200000D02*
X134000000Y-109500000D01*
X136800000Y-104600000D02*
X137300000Y-105100000D01*
X134000000Y-111500000D02*
X135000000Y-112500000D01*
X137300000Y-105100000D02*
X137300000Y-106200000D01*
%TO.N,Net-(D10-DOUT)*%
X137800000Y-97500000D02*
X137100000Y-96800000D01*
X135600000Y-96800000D02*
X133100000Y-99300000D01*
X133100000Y-99300000D02*
X133100000Y-105500000D01*
X137100000Y-96800000D02*
X135600000Y-96800000D01*
%TD*%
M02*
