%TF.GenerationSoftware,KiCad,Pcbnew,7.0.10-7.0.10~ubuntu22.04.1*%
%TF.CreationDate,2024-04-10T21:14:16+02:00*%
%TF.ProjectId,STM32_watch_NFC,53544d33-325f-4776-9174-63685f4e4643,rev?*%
%TF.SameCoordinates,Original*%
%TF.FileFunction,Drillmap*%
%TF.FilePolarity,Positive*%
%FSLAX45Y45*%
G04 Gerber Fmt 4.5, Leading zero omitted, Abs format (unit mm)*
G04 Created by KiCad (PCBNEW 7.0.10-7.0.10~ubuntu22.04.1) date 2024-04-10 21:14:16*
%MOMM*%
%LPD*%
G01*
G04 APERTURE LIST*
%ADD10C,0.100000*%
%ADD11C,0.200000*%
G04 APERTURE END LIST*
D10*
X16850000Y-10500000D02*
G75*
G03*
X12850000Y-10500000I-2000000J0D01*
G01*
X12850000Y-10500000D02*
G75*
G03*
X16850000Y-10500000I2000000J0D01*
G01*
D11*
D10*
X13665000Y-9575000D02*
X13695000Y-9605000D01*
X13695000Y-9575000D02*
X13665000Y-9605000D01*
X13665000Y-10975000D02*
X13695000Y-11005000D01*
X13695000Y-10975000D02*
X13665000Y-11005000D01*
X14175000Y-9065000D02*
X14205000Y-9095000D01*
X14205000Y-9065000D02*
X14175000Y-9095000D01*
X14842500Y-8570000D02*
X14872500Y-8600000D01*
X14872500Y-8570000D02*
X14842500Y-8600000D01*
X14875000Y-8875000D02*
X14905000Y-8905000D01*
X14905000Y-8875000D02*
X14875000Y-8905000D01*
X14940000Y-8835000D02*
X14970000Y-8865000D01*
X14970000Y-8835000D02*
X14940000Y-8865000D01*
X15431062Y-11990000D02*
X15461062Y-12020000D01*
X15461062Y-11990000D02*
X15431062Y-12020000D01*
X15575000Y-9065000D02*
X15605000Y-9095000D01*
X15605000Y-9065000D02*
X15575000Y-9095000D01*
X15575000Y-11485000D02*
X15605000Y-11515000D01*
X15605000Y-11485000D02*
X15575000Y-11515000D01*
X16085000Y-9575000D02*
X16115000Y-9605000D01*
X16115000Y-9575000D02*
X16085000Y-9605000D01*
X16085000Y-10975000D02*
X16115000Y-11005000D01*
X16115000Y-10975000D02*
X16085000Y-11005000D01*
X16275000Y-10275000D02*
X16305000Y-10305000D01*
X16305000Y-10275000D02*
X16275000Y-10305000D01*
D11*
X13105777Y-12816484D02*
X13105777Y-12616484D01*
X13105777Y-12616484D02*
X13153396Y-12616484D01*
X13153396Y-12616484D02*
X13181967Y-12626008D01*
X13181967Y-12626008D02*
X13201015Y-12645055D01*
X13201015Y-12645055D02*
X13210539Y-12664103D01*
X13210539Y-12664103D02*
X13220062Y-12702198D01*
X13220062Y-12702198D02*
X13220062Y-12730769D01*
X13220062Y-12730769D02*
X13210539Y-12768865D01*
X13210539Y-12768865D02*
X13201015Y-12787912D01*
X13201015Y-12787912D02*
X13181967Y-12806960D01*
X13181967Y-12806960D02*
X13153396Y-12816484D01*
X13153396Y-12816484D02*
X13105777Y-12816484D01*
X13305777Y-12816484D02*
X13305777Y-12683150D01*
X13305777Y-12721246D02*
X13315301Y-12702198D01*
X13315301Y-12702198D02*
X13324824Y-12692674D01*
X13324824Y-12692674D02*
X13343872Y-12683150D01*
X13343872Y-12683150D02*
X13362920Y-12683150D01*
X13429586Y-12816484D02*
X13429586Y-12683150D01*
X13429586Y-12616484D02*
X13420062Y-12626008D01*
X13420062Y-12626008D02*
X13429586Y-12635531D01*
X13429586Y-12635531D02*
X13439110Y-12626008D01*
X13439110Y-12626008D02*
X13429586Y-12616484D01*
X13429586Y-12616484D02*
X13429586Y-12635531D01*
X13553396Y-12816484D02*
X13534348Y-12806960D01*
X13534348Y-12806960D02*
X13524824Y-12787912D01*
X13524824Y-12787912D02*
X13524824Y-12616484D01*
X13658158Y-12816484D02*
X13639110Y-12806960D01*
X13639110Y-12806960D02*
X13629586Y-12787912D01*
X13629586Y-12787912D02*
X13629586Y-12616484D01*
X13886729Y-12816484D02*
X13886729Y-12616484D01*
X13886729Y-12616484D02*
X13953396Y-12759341D01*
X13953396Y-12759341D02*
X14020062Y-12616484D01*
X14020062Y-12616484D02*
X14020062Y-12816484D01*
X14201015Y-12816484D02*
X14201015Y-12711722D01*
X14201015Y-12711722D02*
X14191491Y-12692674D01*
X14191491Y-12692674D02*
X14172443Y-12683150D01*
X14172443Y-12683150D02*
X14134348Y-12683150D01*
X14134348Y-12683150D02*
X14115301Y-12692674D01*
X14201015Y-12806960D02*
X14181967Y-12816484D01*
X14181967Y-12816484D02*
X14134348Y-12816484D01*
X14134348Y-12816484D02*
X14115301Y-12806960D01*
X14115301Y-12806960D02*
X14105777Y-12787912D01*
X14105777Y-12787912D02*
X14105777Y-12768865D01*
X14105777Y-12768865D02*
X14115301Y-12749817D01*
X14115301Y-12749817D02*
X14134348Y-12740293D01*
X14134348Y-12740293D02*
X14181967Y-12740293D01*
X14181967Y-12740293D02*
X14201015Y-12730769D01*
X14296253Y-12683150D02*
X14296253Y-12883150D01*
X14296253Y-12692674D02*
X14315301Y-12683150D01*
X14315301Y-12683150D02*
X14353396Y-12683150D01*
X14353396Y-12683150D02*
X14372443Y-12692674D01*
X14372443Y-12692674D02*
X14381967Y-12702198D01*
X14381967Y-12702198D02*
X14391491Y-12721246D01*
X14391491Y-12721246D02*
X14391491Y-12778388D01*
X14391491Y-12778388D02*
X14381967Y-12797436D01*
X14381967Y-12797436D02*
X14372443Y-12806960D01*
X14372443Y-12806960D02*
X14353396Y-12816484D01*
X14353396Y-12816484D02*
X14315301Y-12816484D01*
X14315301Y-12816484D02*
X14296253Y-12806960D01*
X14477205Y-12797436D02*
X14486729Y-12806960D01*
X14486729Y-12806960D02*
X14477205Y-12816484D01*
X14477205Y-12816484D02*
X14467682Y-12806960D01*
X14467682Y-12806960D02*
X14477205Y-12797436D01*
X14477205Y-12797436D02*
X14477205Y-12816484D01*
X14477205Y-12692674D02*
X14486729Y-12702198D01*
X14486729Y-12702198D02*
X14477205Y-12711722D01*
X14477205Y-12711722D02*
X14467682Y-12702198D01*
X14467682Y-12702198D02*
X14477205Y-12692674D01*
X14477205Y-12692674D02*
X14477205Y-12711722D01*
D10*
X12815000Y-13130000D02*
X12845000Y-13160000D01*
X12845000Y-13130000D02*
X12815000Y-13160000D01*
D11*
X13143872Y-13036484D02*
X13162920Y-13036484D01*
X13162920Y-13036484D02*
X13181967Y-13046008D01*
X13181967Y-13046008D02*
X13191491Y-13055531D01*
X13191491Y-13055531D02*
X13201015Y-13074579D01*
X13201015Y-13074579D02*
X13210539Y-13112674D01*
X13210539Y-13112674D02*
X13210539Y-13160293D01*
X13210539Y-13160293D02*
X13201015Y-13198388D01*
X13201015Y-13198388D02*
X13191491Y-13217436D01*
X13191491Y-13217436D02*
X13181967Y-13226960D01*
X13181967Y-13226960D02*
X13162920Y-13236484D01*
X13162920Y-13236484D02*
X13143872Y-13236484D01*
X13143872Y-13236484D02*
X13124824Y-13226960D01*
X13124824Y-13226960D02*
X13115301Y-13217436D01*
X13115301Y-13217436D02*
X13105777Y-13198388D01*
X13105777Y-13198388D02*
X13096253Y-13160293D01*
X13096253Y-13160293D02*
X13096253Y-13112674D01*
X13096253Y-13112674D02*
X13105777Y-13074579D01*
X13105777Y-13074579D02*
X13115301Y-13055531D01*
X13115301Y-13055531D02*
X13124824Y-13046008D01*
X13124824Y-13046008D02*
X13143872Y-13036484D01*
X13296253Y-13217436D02*
X13305777Y-13226960D01*
X13305777Y-13226960D02*
X13296253Y-13236484D01*
X13296253Y-13236484D02*
X13286729Y-13226960D01*
X13286729Y-13226960D02*
X13296253Y-13217436D01*
X13296253Y-13217436D02*
X13296253Y-13236484D01*
X13372443Y-13036484D02*
X13496253Y-13036484D01*
X13496253Y-13036484D02*
X13429586Y-13112674D01*
X13429586Y-13112674D02*
X13458158Y-13112674D01*
X13458158Y-13112674D02*
X13477205Y-13122198D01*
X13477205Y-13122198D02*
X13486729Y-13131722D01*
X13486729Y-13131722D02*
X13496253Y-13150769D01*
X13496253Y-13150769D02*
X13496253Y-13198388D01*
X13496253Y-13198388D02*
X13486729Y-13217436D01*
X13486729Y-13217436D02*
X13477205Y-13226960D01*
X13477205Y-13226960D02*
X13458158Y-13236484D01*
X13458158Y-13236484D02*
X13401015Y-13236484D01*
X13401015Y-13236484D02*
X13381967Y-13226960D01*
X13381967Y-13226960D02*
X13372443Y-13217436D01*
X13620062Y-13036484D02*
X13639110Y-13036484D01*
X13639110Y-13036484D02*
X13658158Y-13046008D01*
X13658158Y-13046008D02*
X13667682Y-13055531D01*
X13667682Y-13055531D02*
X13677205Y-13074579D01*
X13677205Y-13074579D02*
X13686729Y-13112674D01*
X13686729Y-13112674D02*
X13686729Y-13160293D01*
X13686729Y-13160293D02*
X13677205Y-13198388D01*
X13677205Y-13198388D02*
X13667682Y-13217436D01*
X13667682Y-13217436D02*
X13658158Y-13226960D01*
X13658158Y-13226960D02*
X13639110Y-13236484D01*
X13639110Y-13236484D02*
X13620062Y-13236484D01*
X13620062Y-13236484D02*
X13601015Y-13226960D01*
X13601015Y-13226960D02*
X13591491Y-13217436D01*
X13591491Y-13217436D02*
X13581967Y-13198388D01*
X13581967Y-13198388D02*
X13572443Y-13160293D01*
X13572443Y-13160293D02*
X13572443Y-13112674D01*
X13572443Y-13112674D02*
X13581967Y-13074579D01*
X13581967Y-13074579D02*
X13591491Y-13055531D01*
X13591491Y-13055531D02*
X13601015Y-13046008D01*
X13601015Y-13046008D02*
X13620062Y-13036484D01*
X13810539Y-13036484D02*
X13829586Y-13036484D01*
X13829586Y-13036484D02*
X13848634Y-13046008D01*
X13848634Y-13046008D02*
X13858158Y-13055531D01*
X13858158Y-13055531D02*
X13867682Y-13074579D01*
X13867682Y-13074579D02*
X13877205Y-13112674D01*
X13877205Y-13112674D02*
X13877205Y-13160293D01*
X13877205Y-13160293D02*
X13867682Y-13198388D01*
X13867682Y-13198388D02*
X13858158Y-13217436D01*
X13858158Y-13217436D02*
X13848634Y-13226960D01*
X13848634Y-13226960D02*
X13829586Y-13236484D01*
X13829586Y-13236484D02*
X13810539Y-13236484D01*
X13810539Y-13236484D02*
X13791491Y-13226960D01*
X13791491Y-13226960D02*
X13781967Y-13217436D01*
X13781967Y-13217436D02*
X13772443Y-13198388D01*
X13772443Y-13198388D02*
X13762920Y-13160293D01*
X13762920Y-13160293D02*
X13762920Y-13112674D01*
X13762920Y-13112674D02*
X13772443Y-13074579D01*
X13772443Y-13074579D02*
X13781967Y-13055531D01*
X13781967Y-13055531D02*
X13791491Y-13046008D01*
X13791491Y-13046008D02*
X13810539Y-13036484D01*
X13962920Y-13236484D02*
X13962920Y-13103150D01*
X13962920Y-13122198D02*
X13972443Y-13112674D01*
X13972443Y-13112674D02*
X13991491Y-13103150D01*
X13991491Y-13103150D02*
X14020063Y-13103150D01*
X14020063Y-13103150D02*
X14039110Y-13112674D01*
X14039110Y-13112674D02*
X14048634Y-13131722D01*
X14048634Y-13131722D02*
X14048634Y-13236484D01*
X14048634Y-13131722D02*
X14058158Y-13112674D01*
X14058158Y-13112674D02*
X14077205Y-13103150D01*
X14077205Y-13103150D02*
X14105777Y-13103150D01*
X14105777Y-13103150D02*
X14124824Y-13112674D01*
X14124824Y-13112674D02*
X14134348Y-13131722D01*
X14134348Y-13131722D02*
X14134348Y-13236484D01*
X14229586Y-13236484D02*
X14229586Y-13103150D01*
X14229586Y-13122198D02*
X14239110Y-13112674D01*
X14239110Y-13112674D02*
X14258158Y-13103150D01*
X14258158Y-13103150D02*
X14286729Y-13103150D01*
X14286729Y-13103150D02*
X14305777Y-13112674D01*
X14305777Y-13112674D02*
X14315301Y-13131722D01*
X14315301Y-13131722D02*
X14315301Y-13236484D01*
X14315301Y-13131722D02*
X14324824Y-13112674D01*
X14324824Y-13112674D02*
X14343872Y-13103150D01*
X14343872Y-13103150D02*
X14372443Y-13103150D01*
X14372443Y-13103150D02*
X14391491Y-13112674D01*
X14391491Y-13112674D02*
X14401015Y-13131722D01*
X14401015Y-13131722D02*
X14401015Y-13236484D01*
X14791491Y-13026960D02*
X14620063Y-13284103D01*
X15048634Y-13036484D02*
X15067682Y-13036484D01*
X15067682Y-13036484D02*
X15086729Y-13046008D01*
X15086729Y-13046008D02*
X15096253Y-13055531D01*
X15096253Y-13055531D02*
X15105777Y-13074579D01*
X15105777Y-13074579D02*
X15115301Y-13112674D01*
X15115301Y-13112674D02*
X15115301Y-13160293D01*
X15115301Y-13160293D02*
X15105777Y-13198388D01*
X15105777Y-13198388D02*
X15096253Y-13217436D01*
X15096253Y-13217436D02*
X15086729Y-13226960D01*
X15086729Y-13226960D02*
X15067682Y-13236484D01*
X15067682Y-13236484D02*
X15048634Y-13236484D01*
X15048634Y-13236484D02*
X15029586Y-13226960D01*
X15029586Y-13226960D02*
X15020063Y-13217436D01*
X15020063Y-13217436D02*
X15010539Y-13198388D01*
X15010539Y-13198388D02*
X15001015Y-13160293D01*
X15001015Y-13160293D02*
X15001015Y-13112674D01*
X15001015Y-13112674D02*
X15010539Y-13074579D01*
X15010539Y-13074579D02*
X15020063Y-13055531D01*
X15020063Y-13055531D02*
X15029586Y-13046008D01*
X15029586Y-13046008D02*
X15048634Y-13036484D01*
X15201015Y-13217436D02*
X15210539Y-13226960D01*
X15210539Y-13226960D02*
X15201015Y-13236484D01*
X15201015Y-13236484D02*
X15191491Y-13226960D01*
X15191491Y-13226960D02*
X15201015Y-13217436D01*
X15201015Y-13217436D02*
X15201015Y-13236484D01*
X15334348Y-13036484D02*
X15353396Y-13036484D01*
X15353396Y-13036484D02*
X15372444Y-13046008D01*
X15372444Y-13046008D02*
X15381967Y-13055531D01*
X15381967Y-13055531D02*
X15391491Y-13074579D01*
X15391491Y-13074579D02*
X15401015Y-13112674D01*
X15401015Y-13112674D02*
X15401015Y-13160293D01*
X15401015Y-13160293D02*
X15391491Y-13198388D01*
X15391491Y-13198388D02*
X15381967Y-13217436D01*
X15381967Y-13217436D02*
X15372444Y-13226960D01*
X15372444Y-13226960D02*
X15353396Y-13236484D01*
X15353396Y-13236484D02*
X15334348Y-13236484D01*
X15334348Y-13236484D02*
X15315301Y-13226960D01*
X15315301Y-13226960D02*
X15305777Y-13217436D01*
X15305777Y-13217436D02*
X15296253Y-13198388D01*
X15296253Y-13198388D02*
X15286729Y-13160293D01*
X15286729Y-13160293D02*
X15286729Y-13112674D01*
X15286729Y-13112674D02*
X15296253Y-13074579D01*
X15296253Y-13074579D02*
X15305777Y-13055531D01*
X15305777Y-13055531D02*
X15315301Y-13046008D01*
X15315301Y-13046008D02*
X15334348Y-13036484D01*
X15591491Y-13236484D02*
X15477206Y-13236484D01*
X15534348Y-13236484D02*
X15534348Y-13036484D01*
X15534348Y-13036484D02*
X15515301Y-13065055D01*
X15515301Y-13065055D02*
X15496253Y-13084103D01*
X15496253Y-13084103D02*
X15477206Y-13093627D01*
X15781967Y-13236484D02*
X15667682Y-13236484D01*
X15724825Y-13236484D02*
X15724825Y-13036484D01*
X15724825Y-13036484D02*
X15705777Y-13065055D01*
X15705777Y-13065055D02*
X15686729Y-13084103D01*
X15686729Y-13084103D02*
X15667682Y-13093627D01*
X15896253Y-13122198D02*
X15877206Y-13112674D01*
X15877206Y-13112674D02*
X15867682Y-13103150D01*
X15867682Y-13103150D02*
X15858158Y-13084103D01*
X15858158Y-13084103D02*
X15858158Y-13074579D01*
X15858158Y-13074579D02*
X15867682Y-13055531D01*
X15867682Y-13055531D02*
X15877206Y-13046008D01*
X15877206Y-13046008D02*
X15896253Y-13036484D01*
X15896253Y-13036484D02*
X15934348Y-13036484D01*
X15934348Y-13036484D02*
X15953396Y-13046008D01*
X15953396Y-13046008D02*
X15962920Y-13055531D01*
X15962920Y-13055531D02*
X15972444Y-13074579D01*
X15972444Y-13074579D02*
X15972444Y-13084103D01*
X15972444Y-13084103D02*
X15962920Y-13103150D01*
X15962920Y-13103150D02*
X15953396Y-13112674D01*
X15953396Y-13112674D02*
X15934348Y-13122198D01*
X15934348Y-13122198D02*
X15896253Y-13122198D01*
X15896253Y-13122198D02*
X15877206Y-13131722D01*
X15877206Y-13131722D02*
X15867682Y-13141246D01*
X15867682Y-13141246D02*
X15858158Y-13160293D01*
X15858158Y-13160293D02*
X15858158Y-13198388D01*
X15858158Y-13198388D02*
X15867682Y-13217436D01*
X15867682Y-13217436D02*
X15877206Y-13226960D01*
X15877206Y-13226960D02*
X15896253Y-13236484D01*
X15896253Y-13236484D02*
X15934348Y-13236484D01*
X15934348Y-13236484D02*
X15953396Y-13226960D01*
X15953396Y-13226960D02*
X15962920Y-13217436D01*
X15962920Y-13217436D02*
X15972444Y-13198388D01*
X15972444Y-13198388D02*
X15972444Y-13160293D01*
X15972444Y-13160293D02*
X15962920Y-13141246D01*
X15962920Y-13141246D02*
X15953396Y-13131722D01*
X15953396Y-13131722D02*
X15934348Y-13122198D01*
X16048634Y-13036484D02*
X16048634Y-13074579D01*
X16124825Y-13036484D02*
X16124825Y-13074579D01*
X16420063Y-13312674D02*
X16410539Y-13303150D01*
X16410539Y-13303150D02*
X16391491Y-13274579D01*
X16391491Y-13274579D02*
X16381968Y-13255531D01*
X16381968Y-13255531D02*
X16372444Y-13226960D01*
X16372444Y-13226960D02*
X16362920Y-13179341D01*
X16362920Y-13179341D02*
X16362920Y-13141246D01*
X16362920Y-13141246D02*
X16372444Y-13093627D01*
X16372444Y-13093627D02*
X16381968Y-13065055D01*
X16381968Y-13065055D02*
X16391491Y-13046008D01*
X16391491Y-13046008D02*
X16410539Y-13017436D01*
X16410539Y-13017436D02*
X16420063Y-13007912D01*
X16601015Y-13236484D02*
X16486729Y-13236484D01*
X16543872Y-13236484D02*
X16543872Y-13036484D01*
X16543872Y-13036484D02*
X16524825Y-13065055D01*
X16524825Y-13065055D02*
X16505777Y-13084103D01*
X16505777Y-13084103D02*
X16486729Y-13093627D01*
X16677206Y-13055531D02*
X16686729Y-13046008D01*
X16686729Y-13046008D02*
X16705777Y-13036484D01*
X16705777Y-13036484D02*
X16753396Y-13036484D01*
X16753396Y-13036484D02*
X16772444Y-13046008D01*
X16772444Y-13046008D02*
X16781968Y-13055531D01*
X16781968Y-13055531D02*
X16791491Y-13074579D01*
X16791491Y-13074579D02*
X16791491Y-13093627D01*
X16791491Y-13093627D02*
X16781968Y-13122198D01*
X16781968Y-13122198D02*
X16667682Y-13236484D01*
X16667682Y-13236484D02*
X16791491Y-13236484D01*
X17029587Y-13236484D02*
X17029587Y-13036484D01*
X17115301Y-13236484D02*
X17115301Y-13131722D01*
X17115301Y-13131722D02*
X17105777Y-13112674D01*
X17105777Y-13112674D02*
X17086730Y-13103150D01*
X17086730Y-13103150D02*
X17058158Y-13103150D01*
X17058158Y-13103150D02*
X17039111Y-13112674D01*
X17039111Y-13112674D02*
X17029587Y-13122198D01*
X17239111Y-13236484D02*
X17220063Y-13226960D01*
X17220063Y-13226960D02*
X17210539Y-13217436D01*
X17210539Y-13217436D02*
X17201015Y-13198388D01*
X17201015Y-13198388D02*
X17201015Y-13141246D01*
X17201015Y-13141246D02*
X17210539Y-13122198D01*
X17210539Y-13122198D02*
X17220063Y-13112674D01*
X17220063Y-13112674D02*
X17239111Y-13103150D01*
X17239111Y-13103150D02*
X17267682Y-13103150D01*
X17267682Y-13103150D02*
X17286730Y-13112674D01*
X17286730Y-13112674D02*
X17296253Y-13122198D01*
X17296253Y-13122198D02*
X17305777Y-13141246D01*
X17305777Y-13141246D02*
X17305777Y-13198388D01*
X17305777Y-13198388D02*
X17296253Y-13217436D01*
X17296253Y-13217436D02*
X17286730Y-13226960D01*
X17286730Y-13226960D02*
X17267682Y-13236484D01*
X17267682Y-13236484D02*
X17239111Y-13236484D01*
X17420063Y-13236484D02*
X17401015Y-13226960D01*
X17401015Y-13226960D02*
X17391492Y-13207912D01*
X17391492Y-13207912D02*
X17391492Y-13036484D01*
X17572444Y-13226960D02*
X17553396Y-13236484D01*
X17553396Y-13236484D02*
X17515301Y-13236484D01*
X17515301Y-13236484D02*
X17496253Y-13226960D01*
X17496253Y-13226960D02*
X17486730Y-13207912D01*
X17486730Y-13207912D02*
X17486730Y-13131722D01*
X17486730Y-13131722D02*
X17496253Y-13112674D01*
X17496253Y-13112674D02*
X17515301Y-13103150D01*
X17515301Y-13103150D02*
X17553396Y-13103150D01*
X17553396Y-13103150D02*
X17572444Y-13112674D01*
X17572444Y-13112674D02*
X17581968Y-13131722D01*
X17581968Y-13131722D02*
X17581968Y-13150769D01*
X17581968Y-13150769D02*
X17486730Y-13169817D01*
X17658158Y-13226960D02*
X17677206Y-13236484D01*
X17677206Y-13236484D02*
X17715301Y-13236484D01*
X17715301Y-13236484D02*
X17734349Y-13226960D01*
X17734349Y-13226960D02*
X17743873Y-13207912D01*
X17743873Y-13207912D02*
X17743873Y-13198388D01*
X17743873Y-13198388D02*
X17734349Y-13179341D01*
X17734349Y-13179341D02*
X17715301Y-13169817D01*
X17715301Y-13169817D02*
X17686730Y-13169817D01*
X17686730Y-13169817D02*
X17667682Y-13160293D01*
X17667682Y-13160293D02*
X17658158Y-13141246D01*
X17658158Y-13141246D02*
X17658158Y-13131722D01*
X17658158Y-13131722D02*
X17667682Y-13112674D01*
X17667682Y-13112674D02*
X17686730Y-13103150D01*
X17686730Y-13103150D02*
X17715301Y-13103150D01*
X17715301Y-13103150D02*
X17734349Y-13112674D01*
X17810539Y-13312674D02*
X17820063Y-13303150D01*
X17820063Y-13303150D02*
X17839111Y-13274579D01*
X17839111Y-13274579D02*
X17848634Y-13255531D01*
X17848634Y-13255531D02*
X17858158Y-13226960D01*
X17858158Y-13226960D02*
X17867682Y-13179341D01*
X17867682Y-13179341D02*
X17867682Y-13141246D01*
X17867682Y-13141246D02*
X17858158Y-13093627D01*
X17858158Y-13093627D02*
X17848634Y-13065055D01*
X17848634Y-13065055D02*
X17839111Y-13046008D01*
X17839111Y-13046008D02*
X17820063Y-13017436D01*
X17820063Y-13017436D02*
X17810539Y-13007912D01*
M02*
