M48
; DRILL file {KiCad 7.0.10-7.0.10~ubuntu22.04.1} date St 10. dubna 2024, 21:56:49
; FORMAT={-:-/ absolute / metric / decimal}
; #@! TF.CreationDate,2024-04-10T21:56:49+02:00
; #@! TF.GenerationSoftware,Kicad,Pcbnew,7.0.10-7.0.10~ubuntu22.04.1
; #@! TF.FileFunction,Plated,1,4,PTH
FMAT,2
METRIC
; #@! TA.AperFunction,Plated,PTH,ViaDrill
T1C0.300
%
G90
G05
T1
X133.1Y-105.5
X134.57Y-112.45
X135.0Y-98.5
X135.3Y-107.15
X135.4Y-103.05
X136.0Y-115.0
X136.4Y-102.0
X136.8Y-95.9
X136.8Y-103.65
X136.8Y-109.9
X137.2Y-93.25
X137.6Y-110.7
X137.743Y-111.5
X137.8Y-97.5
X137.8Y-98.5
X137.88Y-112.521
X139.7Y-113.7
X139.8Y-105.1
X139.9Y-108.4
X140.1Y-93.3
X140.1Y-117.6
X140.95Y-118.9
X141.6Y-113.3
X141.9Y-90.8
X142.815Y-117.685
X142.9Y-89.5
X142.9Y-92.4
X142.9Y-93.3
X142.95Y-114.6
X143.45Y-115.89
X143.585Y-116.615
X144.1Y-98.5
X144.2Y-93.8
X145.1Y-105.5
X145.25Y-107.65
X145.259Y-103.996
X145.79Y-103.466
X146.293Y-102.91
X146.812Y-102.368
X147.1Y-91.1
X147.1Y-119.5
X147.2Y-105.0
X147.434Y-101.949
X147.6Y-95.0
X147.8Y-98.8
X148.1Y-105.5
X148.408Y-104.5
X148.575Y-85.85
X148.9Y-88.9
X149.0Y-120.15
X149.0Y-101.3
X149.0Y-112.2
X149.213Y-105.061
X149.3Y-89.75
X149.4Y-116.5
X149.55Y-88.5
X149.6Y-97.6
X149.72Y-91.1
X149.9Y-95.0
X149.9Y-118.6
X149.9Y-119.5
X150.5Y-111.7
X150.5Y-116.2
X150.941Y-102.83
X151.0Y-108.4
X151.022Y-106.824
X151.3Y-103.6
X151.488Y-106.236
X151.5Y-115.75
X151.6Y-99.3
X151.8Y-104.1
X152.147Y-100.411
X152.7Y-117.9
X152.842Y-100.179
X153.4Y-96.5
X153.45Y-118.6
X153.5Y-94.5
X154.1Y-93.4
X154.3Y-96.5
X154.461Y-120.05
X155.9Y-90.8
X155.9Y-96.3
X155.9Y-115.0
X156.9Y-92.5
X156.9Y-93.4
X156.9Y-116.7
X156.9Y-117.6
X157.341Y-104.25
X157.7Y-118.5
X157.885Y-103.808
X158.2Y-116.0
X158.395Y-103.329
X158.55Y-114.5
X158.889Y-102.8
X159.2Y-112.5
X159.25Y-113.95
X159.35Y-102.25
X159.5Y-105.8
X159.8Y-107.5
X160.1Y-100.0
X160.85Y-105.35
X161.0Y-95.9
X161.0Y-109.9
X161.3Y-108.8
X162.0Y-97.6
X162.0Y-112.5
X162.1Y-111.6
X162.3Y-98.4
X162.9Y-102.9
X163.9Y-104.6
X163.9Y-105.5
M30
