%TF.GenerationSoftware,KiCad,Pcbnew,8.0.9-8.0.9-0~ubuntu24.04.1*%
%TF.CreationDate,2025-06-26T14:03:13+02:00*%
%TF.ProjectId,STM32_watch_NFC,53544d33-325f-4776-9174-63685f4e4643,rev?*%
%TF.SameCoordinates,Original*%
%TF.FileFunction,Soldermask,Top*%
%TF.FilePolarity,Negative*%
%FSLAX46Y46*%
G04 Gerber Fmt 4.6, Leading zero omitted, Abs format (unit mm)*
G04 Created by KiCad (PCBNEW 8.0.9-8.0.9-0~ubuntu24.04.1) date 2025-06-26 14:03:13*
%MOMM*%
%LPD*%
G01*
G04 APERTURE LIST*
G04 Aperture macros list*
%AMRoundRect*
0 Rectangle with rounded corners*
0 $1 Rounding radius*
0 $2 $3 $4 $5 $6 $7 $8 $9 X,Y pos of 4 corners*
0 Add a 4 corners polygon primitive as box body*
4,1,4,$2,$3,$4,$5,$6,$7,$8,$9,$2,$3,0*
0 Add four circle primitives for the rounded corners*
1,1,$1+$1,$2,$3*
1,1,$1+$1,$4,$5*
1,1,$1+$1,$6,$7*
1,1,$1+$1,$8,$9*
0 Add four rect primitives between the rounded corners*
20,1,$1+$1,$2,$3,$4,$5,0*
20,1,$1+$1,$4,$5,$6,$7,0*
20,1,$1+$1,$6,$7,$8,$9,0*
20,1,$1+$1,$8,$9,$2,$3,0*%
G04 Aperture macros list end*
%ADD10RoundRect,0.125000X0.125000X0.125000X-0.125000X0.125000X-0.125000X-0.125000X0.125000X-0.125000X0*%
%ADD11RoundRect,0.147500X-0.147500X-0.172500X0.147500X-0.172500X0.147500X0.172500X-0.147500X0.172500X0*%
%ADD12RoundRect,0.100000X0.130000X0.100000X-0.130000X0.100000X-0.130000X-0.100000X0.130000X-0.100000X0*%
%ADD13RoundRect,0.147500X0.172500X-0.147500X0.172500X0.147500X-0.172500X0.147500X-0.172500X-0.147500X0*%
%ADD14RoundRect,0.125000X-0.125000X-0.125000X0.125000X-0.125000X0.125000X0.125000X-0.125000X0.125000X0*%
%ADD15RoundRect,0.140000X-0.170000X0.140000X-0.170000X-0.140000X0.170000X-0.140000X0.170000X0.140000X0*%
%ADD16RoundRect,0.102000X-0.275000X-0.125000X0.275000X-0.125000X0.275000X0.125000X-0.275000X0.125000X0*%
%ADD17RoundRect,0.135000X0.185000X-0.135000X0.185000X0.135000X-0.185000X0.135000X-0.185000X-0.135000X0*%
G04 APERTURE END LIST*
D10*
%TO.C,D11*%
X137750000Y-98250000D03*
X137750000Y-97350000D03*
X136850000Y-97350000D03*
X136850000Y-98250000D03*
%TD*%
D11*
%TO.C,D26*%
X144500000Y-105000000D03*
X145470000Y-105000000D03*
%TD*%
D12*
%TO.C,C17*%
X162846811Y-103500000D03*
X162206811Y-103500000D03*
%TD*%
D13*
%TO.C,D29*%
X153500000Y-106970000D03*
X153500000Y-106000000D03*
%TD*%
D11*
%TO.C,D33*%
X151215000Y-105000000D03*
X152185000Y-105000000D03*
%TD*%
D12*
%TO.C,C20*%
X148815000Y-115500000D03*
X148175000Y-115500000D03*
%TD*%
D11*
%TO.C,D40*%
X156250000Y-105000000D03*
X157220000Y-105000000D03*
%TD*%
%TO.C,D19*%
X139465000Y-105000000D03*
X140435000Y-105000000D03*
%TD*%
D13*
%TO.C,D15*%
X141750000Y-106970000D03*
X141750000Y-106000000D03*
%TD*%
%TO.C,D36*%
X158500000Y-106970000D03*
X158500000Y-106000000D03*
%TD*%
D14*
%TO.C,D4*%
X162035786Y-104550000D03*
X162035786Y-105450000D03*
X162935786Y-105450000D03*
X162935786Y-104550000D03*
%TD*%
D13*
%TO.C,D18*%
X138250000Y-103970000D03*
X138250000Y-103000000D03*
%TD*%
D14*
%TO.C,D9*%
X136850000Y-111750000D03*
X136850000Y-112650000D03*
X137750000Y-112650000D03*
X137750000Y-111750000D03*
%TD*%
D10*
%TO.C,D10*%
X134964214Y-105450000D03*
X134964214Y-104550000D03*
X134064214Y-104550000D03*
X134064214Y-105450000D03*
%TD*%
D12*
%TO.C,C23*%
X134783189Y-103500000D03*
X134143189Y-103500000D03*
%TD*%
D15*
%TO.C,C2*%
X151200000Y-109900000D03*
X151200000Y-110860000D03*
%TD*%
D11*
%TO.C,D30*%
X151215000Y-108250000D03*
X152185000Y-108250000D03*
%TD*%
%TO.C,D37*%
X156250000Y-108250000D03*
X157220000Y-108250000D03*
%TD*%
D12*
%TO.C,C24*%
X137575142Y-96330962D03*
X136935142Y-96330962D03*
%TD*%
D11*
%TO.C,D27*%
X151215000Y-101750000D03*
X152185000Y-101750000D03*
%TD*%
D10*
%TO.C,D2*%
X154836160Y-94550000D03*
X154836160Y-93650000D03*
X153936160Y-93650000D03*
X153936160Y-94550000D03*
%TD*%
D13*
%TO.C,D25*%
X143250000Y-103965000D03*
X143250000Y-102995000D03*
%TD*%
D12*
%TO.C,C22*%
X137575142Y-110700000D03*
X136935142Y-110700000D03*
%TD*%
%TO.C,C15*%
X154724172Y-92614117D03*
X154084172Y-92614117D03*
%TD*%
D13*
%TO.C,D24*%
X143250000Y-106970000D03*
X143250000Y-106000000D03*
%TD*%
%TO.C,D17*%
X138250000Y-106970000D03*
X138250000Y-106000000D03*
%TD*%
D16*
%TO.C,U1*%
X147125000Y-109800000D03*
X147125000Y-110300000D03*
X147125000Y-110800000D03*
X149875000Y-110800000D03*
X149875000Y-110300000D03*
X149875000Y-109800000D03*
%TD*%
D12*
%TO.C,C16*%
X160054858Y-96330963D03*
X159414858Y-96330963D03*
%TD*%
D13*
%TO.C,D31*%
X150000000Y-106970000D03*
X150000000Y-106000000D03*
%TD*%
D12*
%TO.C,C14*%
X148815000Y-91507950D03*
X148175000Y-91507950D03*
%TD*%
D11*
%TO.C,D20*%
X144500000Y-101750000D03*
X145470000Y-101750000D03*
%TD*%
%TO.C,D34*%
X156250000Y-101750000D03*
X157220000Y-101750000D03*
%TD*%
D13*
%TO.C,D14*%
X141750000Y-103970000D03*
X141750000Y-103000000D03*
%TD*%
D10*
%TO.C,D12*%
X143062440Y-94550000D03*
X143062440Y-93650000D03*
X142162440Y-93650000D03*
X142162440Y-94550000D03*
%TD*%
D14*
%TO.C,D8*%
X142162440Y-115450000D03*
X142162440Y-116350000D03*
X143062440Y-116350000D03*
X143062440Y-115450000D03*
%TD*%
D10*
%TO.C,D1*%
X148950000Y-93450000D03*
X148950000Y-92550000D03*
X148050000Y-92550000D03*
X148050000Y-93450000D03*
%TD*%
D12*
%TO.C,C25*%
X142904427Y-92614117D03*
X142264427Y-92614117D03*
%TD*%
%TO.C,C21*%
X142904427Y-114375644D03*
X142264427Y-114375644D03*
%TD*%
D13*
%TO.C,D35*%
X158500000Y-103970000D03*
X158500000Y-103000000D03*
%TD*%
D14*
%TO.C,D5*%
X159250000Y-111750000D03*
X159250000Y-112650000D03*
X160150000Y-112650000D03*
X160150000Y-111750000D03*
%TD*%
D13*
%TO.C,D22*%
X146750000Y-106970000D03*
X146750000Y-106000000D03*
%TD*%
D10*
%TO.C,D3*%
X160150000Y-98250000D03*
X160150000Y-97350000D03*
X159250000Y-97350000D03*
X159250000Y-98250000D03*
%TD*%
D11*
%TO.C,D16*%
X139465000Y-108250000D03*
X140435000Y-108250000D03*
%TD*%
%TO.C,D13*%
X139465000Y-101750000D03*
X140435000Y-101750000D03*
%TD*%
D13*
%TO.C,D32*%
X150000000Y-103975000D03*
X150000000Y-103005000D03*
%TD*%
D11*
%TO.C,D23*%
X144500000Y-108250000D03*
X145470000Y-108250000D03*
%TD*%
D17*
%TO.C,R23*%
X145700000Y-110910000D03*
X145700000Y-109890000D03*
%TD*%
D14*
%TO.C,D6*%
X153936160Y-115450000D03*
X153936160Y-116350000D03*
X154836160Y-116350000D03*
X154836160Y-115450000D03*
%TD*%
D12*
%TO.C,C18*%
X160054858Y-110700000D03*
X159414858Y-110700000D03*
%TD*%
D14*
%TO.C,D7*%
X148050000Y-116550000D03*
X148050000Y-117450000D03*
X148950000Y-117450000D03*
X148950000Y-116550000D03*
%TD*%
D13*
%TO.C,D38*%
X155000000Y-106970000D03*
X155000000Y-106000000D03*
%TD*%
D12*
%TO.C,C19*%
X154724172Y-114375644D03*
X154084172Y-114375644D03*
%TD*%
D13*
%TO.C,D28*%
X153500000Y-103970000D03*
X153500000Y-103000000D03*
%TD*%
%TO.C,D39*%
X155000000Y-103967500D03*
X155000000Y-102997500D03*
%TD*%
%TO.C,D21*%
X146750000Y-103970000D03*
X146750000Y-103000000D03*
%TD*%
M02*
