%TF.GenerationSoftware,KiCad,Pcbnew,7.0.10-7.0.10~ubuntu22.04.1*%
%TF.CreationDate,2024-04-10T21:13:45+02:00*%
%TF.ProjectId,STM32_watch_NFC,53544d33-325f-4776-9174-63685f4e4643,rev?*%
%TF.SameCoordinates,Original*%
%TF.FileFunction,Paste,Top*%
%TF.FilePolarity,Positive*%
%FSLAX46Y46*%
G04 Gerber Fmt 4.6, Leading zero omitted, Abs format (unit mm)*
G04 Created by KiCad (PCBNEW 7.0.10-7.0.10~ubuntu22.04.1) date 2024-04-10 21:13:45*
%MOMM*%
%LPD*%
G01*
G04 APERTURE LIST*
G04 Aperture macros list*
%AMRoundRect*
0 Rectangle with rounded corners*
0 $1 Rounding radius*
0 $2 $3 $4 $5 $6 $7 $8 $9 X,Y pos of 4 corners*
0 Add a 4 corners polygon primitive as box body*
4,1,4,$2,$3,$4,$5,$6,$7,$8,$9,$2,$3,0*
0 Add four circle primitives for the rounded corners*
1,1,$1+$1,$2,$3*
1,1,$1+$1,$4,$5*
1,1,$1+$1,$6,$7*
1,1,$1+$1,$8,$9*
0 Add four rect primitives between the rounded corners*
20,1,$1+$1,$2,$3,$4,$5,0*
20,1,$1+$1,$4,$5,$6,$7,0*
20,1,$1+$1,$6,$7,$8,$9,0*
20,1,$1+$1,$8,$9,$2,$3,0*%
G04 Aperture macros list end*
%ADD10RoundRect,0.079500X0.100500X-0.079500X0.100500X0.079500X-0.100500X0.079500X-0.100500X-0.079500X0*%
%ADD11RoundRect,0.125000X0.125000X-0.125000X0.125000X0.125000X-0.125000X0.125000X-0.125000X-0.125000X0*%
G04 APERTURE END LIST*
D10*
%TO.C,C21*%
X134050000Y-103545000D03*
X134050000Y-102855000D03*
%TD*%
%TO.C,C15*%
X162050000Y-103540000D03*
X162050000Y-102850000D03*
%TD*%
D11*
%TO.C,D5*%
X160174356Y-112450000D03*
X161074356Y-112450000D03*
X161074356Y-111550000D03*
X160174356Y-111550000D03*
%TD*%
%TO.C,D11*%
X135925644Y-98450000D03*
X136825644Y-98450000D03*
X136825644Y-97550000D03*
X135925644Y-97550000D03*
%TD*%
D10*
%TO.C,C20*%
X135925000Y-110545000D03*
X135925000Y-109855000D03*
%TD*%
%TO.C,C23*%
X141050000Y-91400000D03*
X141050000Y-90710000D03*
%TD*%
D11*
%TO.C,D6*%
X155050000Y-117574356D03*
X155950000Y-117574356D03*
X155950000Y-116674356D03*
X155050000Y-116674356D03*
%TD*%
%TO.C,D8*%
X141050000Y-117574356D03*
X141950000Y-117574356D03*
X141950000Y-116674356D03*
X141050000Y-116674356D03*
%TD*%
D10*
%TO.C,C22*%
X135925000Y-96550000D03*
X135925000Y-95860000D03*
%TD*%
%TO.C,C14*%
X160175000Y-96545000D03*
X160175000Y-95855000D03*
%TD*%
D11*
%TO.C,D2*%
X155050000Y-93325644D03*
X155950000Y-93325644D03*
X155950000Y-92425644D03*
X155050000Y-92425644D03*
%TD*%
%TO.C,D1*%
X148050000Y-91450000D03*
X148950000Y-91450000D03*
X148950000Y-90550000D03*
X148050000Y-90550000D03*
%TD*%
D10*
%TO.C,C17*%
X155050000Y-115645000D03*
X155050000Y-114955000D03*
%TD*%
D11*
%TO.C,D7*%
X148050000Y-119450000D03*
X148950000Y-119450000D03*
X148950000Y-118550000D03*
X148050000Y-118550000D03*
%TD*%
%TO.C,D12*%
X141050000Y-93325644D03*
X141950000Y-93325644D03*
X141950000Y-92425644D03*
X141050000Y-92425644D03*
%TD*%
D10*
%TO.C,C16*%
X160175000Y-110525000D03*
X160175000Y-109835000D03*
%TD*%
%TO.C,C18*%
X148050000Y-117550000D03*
X148050000Y-116860000D03*
%TD*%
D11*
%TO.C,D4*%
X162050000Y-105450000D03*
X162950000Y-105450000D03*
X162950000Y-104550000D03*
X162050000Y-104550000D03*
%TD*%
%TO.C,D3*%
X160174356Y-98450000D03*
X161074356Y-98450000D03*
X161074356Y-97550000D03*
X160174356Y-97550000D03*
%TD*%
%TO.C,D10*%
X134050000Y-105450000D03*
X134950000Y-105450000D03*
X134950000Y-104550000D03*
X134050000Y-104550000D03*
%TD*%
%TO.C,D9*%
X135925644Y-112450000D03*
X136825644Y-112450000D03*
X136825644Y-111550000D03*
X135925644Y-111550000D03*
%TD*%
D10*
%TO.C,C12*%
X148050000Y-89545000D03*
X148050000Y-88855000D03*
%TD*%
%TO.C,C13*%
X155050000Y-91440000D03*
X155050000Y-90750000D03*
%TD*%
%TO.C,C19*%
X141050000Y-115670000D03*
X141050000Y-114980000D03*
%TD*%
M02*
