%TF.GenerationSoftware,KiCad,Pcbnew,7.0.10-7.0.10~ubuntu22.04.1*%
%TF.CreationDate,2024-04-13T21:42:08+02:00*%
%TF.ProjectId,STM32_watch_NFC,53544d33-325f-4776-9174-63685f4e4643,rev?*%
%TF.SameCoordinates,PX6c3df60PY1312d00*%
%TF.FileFunction,Legend,Bot*%
%TF.FilePolarity,Positive*%
%FSLAX46Y46*%
G04 Gerber Fmt 4.6, Leading zero omitted, Abs format (unit mm)*
G04 Created by KiCad (PCBNEW 7.0.10-7.0.10~ubuntu22.04.1) date 2024-04-13 21:42:08*
%MOMM*%
%LPD*%
G01*
G04 APERTURE LIST*
G04 Aperture macros list*
%AMRoundRect*
0 Rectangle with rounded corners*
0 $1 Rounding radius*
0 $2 $3 $4 $5 $6 $7 $8 $9 X,Y pos of 4 corners*
0 Add a 4 corners polygon primitive as box body*
4,1,4,$2,$3,$4,$5,$6,$7,$8,$9,$2,$3,0*
0 Add four circle primitives for the rounded corners*
1,1,$1+$1,$2,$3*
1,1,$1+$1,$4,$5*
1,1,$1+$1,$6,$7*
1,1,$1+$1,$8,$9*
0 Add four rect primitives between the rounded corners*
20,1,$1+$1,$2,$3,$4,$5,0*
20,1,$1+$1,$4,$5,$6,$7,0*
20,1,$1+$1,$6,$7,$8,$9,0*
20,1,$1+$1,$8,$9,$2,$3,0*%
%AMRotRect*
0 Rectangle, with rotation*
0 The origin of the aperture is its center*
0 $1 length*
0 $2 width*
0 $3 Rotation angle, in degrees counterclockwise*
0 Add horizontal line*
21,1,$1,$2,0,0,$3*%
%AMFreePoly0*
4,1,6,1.000000,0.000000,0.500000,-0.750000,-0.500000,-0.750000,-0.500000,0.750000,0.500000,0.750000,1.000000,0.000000,1.000000,0.000000,$1*%
%AMFreePoly1*
4,1,6,0.500000,-0.750000,-0.650000,-0.750000,-0.150000,0.000000,-0.650000,0.750000,0.500000,0.750000,0.500000,-0.750000,0.500000,-0.750000,$1*%
%AMFreePoly2*
4,1,14,0.364320,0.111820,0.377500,0.080000,0.377501,0.053640,0.364318,0.021819,0.230680,-0.111820,0.198860,-0.125000,-0.332500,-0.125000,-0.364320,-0.111820,-0.377500,-0.080000,-0.377500,0.080000,-0.364320,0.111820,-0.332500,0.125000,0.332500,0.125000,0.364320,0.111820,0.364320,0.111820,$1*%
%AMFreePoly3*
4,1,14,0.230680,0.111820,0.364320,-0.021821,0.377500,-0.053642,0.377500,-0.080000,0.364320,-0.111820,0.332500,-0.125000,-0.332500,-0.125000,-0.364320,-0.111820,-0.377500,-0.080000,-0.377500,0.080000,-0.364320,0.111820,-0.332500,0.125000,0.198860,0.125000,0.230680,0.111820,0.230680,0.111820,$1*%
%AMFreePoly4*
4,1,14,0.111820,0.364320,0.125000,0.332500,0.125000,-0.332500,0.111820,-0.364320,0.080000,-0.377500,0.053640,-0.377501,0.021819,-0.364318,-0.111820,-0.230680,-0.125000,-0.198860,-0.125000,0.332500,-0.111820,0.364320,-0.080000,0.377500,0.080000,0.377500,0.111820,0.364320,0.111820,0.364320,$1*%
%AMFreePoly5*
4,1,14,0.111820,0.364320,0.125000,0.332500,0.125001,-0.198860,0.111818,-0.230680,-0.021820,-0.364320,-0.053640,-0.377500,-0.080000,-0.377500,-0.111820,-0.364320,-0.125000,-0.332500,-0.125000,0.332500,-0.111820,0.364320,-0.080000,0.377500,0.080000,0.377500,0.111820,0.364320,0.111820,0.364320,$1*%
%AMFreePoly6*
4,1,15,-0.198858,0.125000,0.332500,0.125000,0.364320,0.111820,0.377500,0.080000,0.377500,-0.080000,0.364320,-0.111820,0.332500,-0.125000,-0.332500,-0.125000,-0.364320,-0.111820,-0.377500,-0.080000,-0.377500,-0.053640,-0.364320,-0.021820,-0.230680,0.111820,-0.198860,0.125001,-0.198858,0.125000,-0.198858,0.125000,$1*%
%AMFreePoly7*
4,1,14,0.364320,0.111820,0.377500,0.080000,0.377500,-0.080000,0.364320,-0.111820,0.332500,-0.125000,-0.198860,-0.125001,-0.230680,-0.111818,-0.364320,0.021820,-0.377500,0.053640,-0.377500,0.080000,-0.364320,0.111820,-0.332500,0.125000,0.332500,0.125000,0.364320,0.111820,0.364320,0.111820,$1*%
%AMFreePoly8*
4,1,14,-0.021820,0.364320,0.111820,0.230679,0.125001,0.198860,0.125000,-0.332500,0.111820,-0.364320,0.080000,-0.377500,-0.080000,-0.377500,-0.111820,-0.364320,-0.125000,-0.332500,-0.125000,0.332500,-0.111820,0.364320,-0.080000,0.377500,-0.053640,0.377500,-0.021820,0.364320,-0.021820,0.364320,$1*%
%AMFreePoly9*
4,1,15,0.053642,0.377500,0.080000,0.377500,0.111820,0.364320,0.125000,0.332500,0.125000,-0.332500,0.111820,-0.364320,0.080000,-0.377500,-0.080000,-0.377500,-0.111820,-0.364320,-0.125000,-0.332500,-0.125000,0.198860,-0.111820,0.230680,0.021820,0.364320,0.053640,0.377501,0.053642,0.377500,0.053642,0.377500,$1*%
G04 Aperture macros list end*
%ADD10C,0.049000*%
%ADD11C,0.150000*%
%ADD12C,0.125000*%
%ADD13C,0.120000*%
%ADD14C,0.127000*%
%ADD15C,0.200000*%
%ADD16C,0.100000*%
%ADD17C,0.500000*%
%ADD18C,2.000000*%
%ADD19RoundRect,0.218750X-0.437978X0.037132X-0.253082X-0.359378X0.437978X-0.037132X0.253082X0.359378X0*%
%ADD20RoundRect,0.225000X0.296936X0.157969X-0.125926X0.311878X-0.296936X-0.157969X0.125926X-0.311878X0*%
%ADD21RoundRect,0.140000X0.111865X-0.189700X0.207631X0.073414X-0.111865X0.189700X-0.207631X-0.073414X0*%
%ADD22C,1.500000*%
%ADD23RoundRect,0.013920X0.031155X-0.552027X0.378702X0.402851X-0.031155X0.552027X-0.378702X-0.402851X0*%
%ADD24RoundRect,0.046400X0.383439X-0.337072X0.510397X0.011742X-0.383439X0.337072X-0.510397X-0.011742X0*%
%ADD25RoundRect,0.102000X1.045927X-2.242997X2.242997X1.045927X-1.045927X2.242997X-2.242997X-1.045927X0*%
%ADD26RoundRect,0.135000X0.127670X-0.190132X0.220016X0.063585X-0.127670X0.190132X-0.220016X-0.063585X0*%
%ADD27RoundRect,0.140000X0.189700X0.111865X-0.073414X0.207631X-0.189700X-0.111865X0.073414X-0.207631X0*%
%ADD28RoundRect,0.100000X0.049507X-0.156362X0.138432X0.087958X-0.049507X0.156362X-0.138432X-0.087958X0*%
%ADD29RoundRect,0.140000X0.213239X-0.055038X0.094906X0.198728X-0.213239X0.055038X-0.094906X-0.198728X0*%
%ADD30RoundRect,0.125000X-0.309632X0.245719X-0.395137X0.010796X0.309632X-0.245719X0.395137X-0.010796X0*%
%ADD31RoundRect,0.250000X-0.444109X0.534105X-0.683523X-0.123680X0.444109X-0.534105X0.683523X0.123680X0*%
%ADD32RoundRect,0.162500X0.000354X0.476091X-0.305754X-0.364934X-0.000354X-0.476091X0.305754X0.364934X0*%
%ADD33RoundRect,0.250000X-0.518776X0.047728X-0.296901X-0.428084X0.518776X-0.047728X0.296901X0.428084X0*%
%ADD34RoundRect,0.225000X-0.157969X0.296936X-0.311878X-0.125926X0.157969X-0.296936X0.311878X0.125926X0*%
%ADD35RoundRect,0.100000X-0.075558X-0.145571X0.160082X-0.035690X0.075558X0.145571X-0.160082X0.035690X0*%
%ADD36RoundRect,0.100000X-0.049507X0.156362X-0.138432X-0.087958X0.049507X-0.156362X0.138432X0.087958X0*%
%ADD37RoundRect,0.140000X0.055038X0.213239X-0.198728X0.094906X-0.055038X-0.213239X0.198728X-0.094906X0*%
%ADD38FreePoly0,205.000000*%
%ADD39FreePoly1,205.000000*%
%ADD40RoundRect,0.140000X-0.055038X-0.213239X0.198728X-0.094906X0.055038X0.213239X-0.198728X0.094906X0*%
%ADD41RoundRect,0.135000X0.190132X0.127670X-0.063585X0.220016X-0.190132X-0.127670X0.063585X-0.220016X0*%
%ADD42RoundRect,0.175000X0.459139X0.021009X0.311223X0.338217X-0.459139X-0.021009X-0.311223X-0.338217X0*%
%ADD43RoundRect,0.190000X-0.451884X-0.001075X-0.291289X-0.345472X0.451884X0.001075X0.291289X0.345472X0*%
%ADD44RoundRect,0.200000X-0.447047X0.012214X-0.277999X-0.350309X0.447047X-0.012214X0.277999X0.350309X0*%
%ADD45RoundRect,0.175000X-0.459139X-0.021009X-0.311223X-0.338217X0.459139X0.021009X0.311223X0.338217X0*%
%ADD46RoundRect,0.190000X0.451884X0.001075X0.291289X0.345472X-0.451884X-0.001075X-0.291289X-0.345472X0*%
%ADD47RoundRect,0.200000X0.447047X-0.012214X0.277999X0.350309X-0.447047X0.012214X-0.277999X-0.350309X0*%
%ADD48RoundRect,0.250000X0.727856X-0.377791X0.178452X0.800409X-0.727856X0.377791X-0.178452X-0.800409X0*%
%ADD49RoundRect,0.250000X0.659883X-0.409487X0.110479X0.768713X-0.659883X0.409487X-0.110479X-0.768713X0*%
%ADD50RoundRect,0.218750X-0.089959X-0.324689X0.306551X-0.139794X0.089959X0.324689X-0.306551X0.139794X0*%
%ADD51RoundRect,0.135000X-0.127670X0.190132X-0.220016X-0.063585X0.127670X-0.190132X0.220016X0.063585X0*%
%ADD52RoundRect,0.187500X0.187204X1.062552X-0.539589X-0.934295X-0.187204X-1.062552X0.539589X0.934295X0*%
%ADD53RoundRect,0.150000X0.352538X-0.401090X-0.080646X0.527875X-0.352538X0.401090X0.080646X-0.527875X0*%
%ADD54RoundRect,0.100000X0.156362X0.049507X-0.087958X0.138432X-0.156362X-0.049507X0.087958X-0.138432X0*%
%ADD55RoundRect,0.135000X-0.224720X0.044167X-0.110613X-0.200536X0.224720X-0.044167X0.110613X0.200536X0*%
%ADD56RoundRect,0.250000X0.400578X0.333081X-0.092760X0.512642X-0.400578X-0.333081X0.092760X-0.512642X0*%
%ADD57RoundRect,0.135000X0.044167X0.224720X-0.200536X0.110613X-0.044167X-0.224720X0.200536X-0.110613X0*%
%ADD58RotRect,1.550000X1.000000X295.000000*%
%ADD59RoundRect,0.150000X0.209358X0.136636X-0.072550X0.239242X-0.209358X-0.136636X0.072550X-0.239242X0*%
%ADD60RoundRect,0.100000X-0.145571X0.075558X-0.035690X-0.160082X0.145571X-0.075558X0.035690X0.160082X0*%
%ADD61RoundRect,0.140000X-0.189700X-0.111865X0.073414X-0.207631X0.189700X0.111865X-0.073414X0.207631X0*%
%ADD62RoundRect,0.225000X-0.098265X-0.321666X0.309574X-0.131488X0.098265X0.321666X-0.309574X0.131488X0*%
%ADD63RoundRect,0.140000X-0.213239X0.055038X-0.094906X-0.198728X0.213239X-0.055038X0.094906X0.198728X0*%
%ADD64RoundRect,0.250000X-0.333081X0.400578X-0.512642X-0.092760X0.333081X-0.400578X0.512642X0.092760X0*%
%ADD65C,1.000000*%
%ADD66RoundRect,0.140000X-0.111865X0.189700X-0.207631X-0.073414X0.111865X-0.189700X0.207631X0.073414X0*%
%ADD67FreePoly2,70.000000*%
%ADD68RoundRect,0.062500X-0.069527X-0.373761X0.186988X0.331008X0.069527X0.373761X-0.186988X-0.331008X0*%
%ADD69FreePoly3,70.000000*%
%ADD70FreePoly4,70.000000*%
%ADD71RoundRect,0.062500X0.331008X-0.186988X0.373761X-0.069527X-0.331008X0.186988X-0.373761X0.069527X0*%
%ADD72FreePoly5,70.000000*%
%ADD73FreePoly6,70.000000*%
%ADD74FreePoly7,70.000000*%
%ADD75FreePoly8,70.000000*%
%ADD76FreePoly9,70.000000*%
%ADD77RoundRect,0.225000X0.098265X0.321666X-0.309574X0.131488X-0.098265X-0.321666X0.309574X-0.131488X0*%
%ADD78RotRect,1.550000X1.000000X164.000000*%
%ADD79RoundRect,0.150000X0.034331X0.532895X-0.316239X-0.430289X-0.034331X-0.532895X0.316239X0.430289X0*%
%ADD80RoundRect,0.225000X-0.296936X-0.157969X0.125926X-0.311878X0.296936X0.157969X-0.125926X0.311878X0*%
%ADD81RoundRect,0.135000X-0.044167X-0.224720X0.200536X-0.110613X0.044167X0.224720X-0.200536X0.110613X0*%
%ADD82RotRect,1.400000X1.200000X205.000000*%
%ADD83RoundRect,0.100000X-0.152528X-0.060293X0.097400X-0.131959X0.152528X0.060293X-0.097400X0.131959X0*%
%ADD84RoundRect,0.250000X-0.376368X-0.360213X0.128294X-0.504923X0.376368X0.360213X-0.128294X0.504923X0*%
%ADD85RoundRect,0.218750X0.437978X-0.037132X0.253082X0.359378X-0.437978X0.037132X-0.253082X-0.359378X0*%
%ADD86RoundRect,0.100000X-0.156362X-0.049507X0.087958X-0.138432X0.156362X0.049507X-0.087958X0.138432X0*%
%ADD87RotRect,1.550000X1.000000X69.000000*%
%ADD88RotRect,1.200000X0.600000X160.000000*%
%ADD89RoundRect,0.218750X0.165979X-0.293200X0.315613X0.117915X-0.165979X0.293200X-0.315613X-0.117915X0*%
%ADD90RoundRect,0.100000X-0.161657X-0.185720X0.246181X0.004458X0.161657X0.185720X-0.246181X-0.004458X0*%
G04 APERTURE END LIST*
D10*
X35785301Y-11962738D02*
X35898134Y-11898453D01*
X36000603Y-54393621D02*
G75*
G03*
X36351995Y-54279341I39597J475621D01*
G01*
X34524138Y-14205103D02*
X34794632Y-13625029D01*
X35134731Y-12797382D02*
G75*
G03*
X35235317Y-12607763I-1144831J728782D01*
G01*
X35785301Y-53962738D02*
X35898134Y-53898453D01*
X34607991Y-12528062D02*
G75*
G03*
X34838809Y-12688575I291709J173262D01*
G01*
X33849424Y-11542642D02*
G75*
G03*
X33777806Y-11497189I-36624J21442D01*
G01*
X34372683Y-11909257D02*
X34365993Y-12079741D01*
X35689427Y-53074793D02*
G75*
G03*
X34324455Y-53711267I60673J-1912007D01*
G01*
X34821277Y-54400600D02*
X34943050Y-54355487D01*
X37255309Y-13439646D02*
X37311807Y-13560806D01*
X35344664Y-54219044D02*
G75*
G03*
X35348126Y-54124696I-169164J53444D01*
G01*
X35589175Y-12418158D02*
G75*
G03*
X35677162Y-12462299I243325J375258D01*
G01*
X34812748Y-55406129D02*
G75*
G03*
X36673841Y-54538266I773352J771029D01*
G01*
X35968270Y-52720119D02*
X36233817Y-52735633D01*
X34928502Y-54223614D02*
G75*
G03*
X35067723Y-53806196I-274902J323614D01*
G01*
X33690357Y-12591293D02*
X33563474Y-12650459D01*
X35988595Y-12177874D02*
G75*
G03*
X35640854Y-12154247I-203795J-428626D01*
G01*
X34524138Y-56205103D02*
X34598944Y-56365525D01*
X33719960Y-54482182D02*
X33526969Y-54572175D01*
X35689428Y-11074768D02*
G75*
G03*
X35810094Y-11238981I302672J95968D01*
G01*
X35790687Y-54348791D02*
G75*
G03*
X35983236Y-54490168I259113J151091D01*
G01*
X35677157Y-12462316D02*
G75*
G03*
X35983236Y-12490168I210443J616916D01*
G01*
X35171340Y-12080430D02*
G75*
G03*
X35172030Y-12177509I221360J-46970D01*
G01*
X35689427Y-11074793D02*
G75*
G03*
X34324455Y-11711267I60673J-1912007D01*
G01*
X34821277Y-54400600D02*
X34943050Y-54355487D01*
X33690357Y-54591293D02*
X33563474Y-54650459D01*
X36680583Y-55285648D02*
X37255309Y-55439646D01*
X33939806Y-53756091D02*
X33834521Y-53922015D01*
X37471460Y-12830744D02*
X37546266Y-12991166D01*
X36408223Y-12114938D02*
G75*
G03*
X36551711Y-12032221I-191923J498738D01*
G01*
X34503653Y-12987230D02*
G75*
G03*
X35588836Y-12640899I405147J603830D01*
G01*
X36855396Y-54771608D02*
X37382791Y-54912923D01*
X35689428Y-53074768D02*
G75*
G03*
X35810094Y-53238981I302672J95968D01*
G01*
X35785299Y-11962734D02*
G75*
G03*
X35640854Y-12154247I150401J-263666D01*
G01*
X34607991Y-54528062D02*
G75*
G03*
X34838809Y-54688575I291709J173262D01*
G01*
X33939806Y-11756091D02*
X33834521Y-11922015D01*
X34394846Y-54391981D02*
G75*
G03*
X34812786Y-55406090I1058554J-156919D01*
G01*
X35014674Y-14439781D02*
X35088289Y-14597649D01*
X34928502Y-12223614D02*
G75*
G03*
X35067723Y-11806196I-274902J323614D01*
G01*
X34697639Y-12404140D02*
G75*
G03*
X34557975Y-12310917I-228739J-191460D01*
G01*
X36673864Y-54538267D02*
G75*
G03*
X36165632Y-53566256I-1068164J60367D01*
G01*
X35383679Y-55885861D02*
G75*
G03*
X36680583Y-55285648I204921J1258461D01*
G01*
X34450117Y-13237093D02*
X34413104Y-13188570D01*
X33777806Y-11497189D02*
X33692957Y-11625706D01*
X33849424Y-53542642D02*
G75*
G03*
X33777806Y-53497189I-36624J21442D01*
G01*
X37141937Y-53617760D02*
G75*
G03*
X37098515Y-53524628I41763J76160D01*
G01*
X35998680Y-53639106D02*
X36025335Y-53496392D01*
X34598986Y-56365545D02*
G75*
G03*
X34703253Y-56316886I81714J-39055D01*
G01*
X36224843Y-52194740D02*
X36251576Y-52150733D01*
X36270929Y-52101544D01*
X36280625Y-52051305D01*
X36281842Y-52035914D01*
X36107434Y-12096972D02*
G75*
G03*
X36132911Y-11816985I-294734J167972D01*
G01*
X35588812Y-54640968D02*
G75*
G03*
X36551711Y-54032221I239888J686468D01*
G01*
X34821323Y-12993114D02*
G75*
G03*
X34977183Y-12649506I-321123J352814D01*
G01*
X33873537Y-53696908D02*
X33714733Y-53910302D01*
X34589740Y-13419764D02*
X33933629Y-13113815D01*
X35182584Y-12367903D02*
G75*
G03*
X34977184Y-12649506I253616J-400697D01*
G01*
X36025353Y-11496394D02*
G75*
G03*
X35944993Y-11343442I-152253J17594D01*
G01*
X34394846Y-54391981D02*
G75*
G03*
X34812786Y-55406090I1058554J-156919D01*
G01*
X35383674Y-55885889D02*
X35129524Y-56430916D01*
X34221971Y-12258013D02*
G75*
G03*
X34227493Y-12718849I1315729J-214687D01*
G01*
X34372683Y-53909257D02*
X34365993Y-54079741D01*
X33834521Y-53922015D02*
X33927128Y-54026499D01*
X36862927Y-54667688D02*
X37471460Y-54830744D01*
X36730279Y-55195083D02*
X37335924Y-55357364D01*
X34431517Y-54239601D02*
X34557975Y-54310917D01*
X36898045Y-11095516D02*
G75*
G03*
X36861533Y-11017243I45155J68716D01*
G01*
X36051451Y-52089973D02*
X36070395Y-52044051D01*
X36074378Y-51992771D01*
X36072235Y-51942494D01*
X36071478Y-51931119D01*
X36862937Y-12667688D02*
G75*
G03*
X36833759Y-12353531I-1274237J40088D01*
G01*
X35898125Y-53898431D02*
G75*
G03*
X35980303Y-53806020I-55425J132031D01*
G01*
X35556214Y-10222109D02*
X35521322Y-10175949D01*
X35486783Y-10120707D01*
X35455483Y-10070998D01*
X35419906Y-10017208D01*
X35380362Y-9962048D01*
X35337164Y-9908229D01*
X35290624Y-9858463D01*
X35241054Y-9815462D01*
X35188765Y-9781937D01*
X35170786Y-9773337D01*
X36107453Y-12097016D02*
G75*
G03*
X36408224Y-12114939I168047J287416D01*
G01*
X33670787Y-53164782D02*
X33470354Y-53501666D01*
X36107453Y-54097016D02*
G75*
G03*
X36408224Y-54114939I168047J287416D01*
G01*
X36029801Y-52536018D02*
X35987014Y-52432513D01*
X36898045Y-53095516D02*
G75*
G03*
X36861533Y-53017243I45155J68716D01*
G01*
X34883307Y-51798412D02*
X35170786Y-51773337D01*
X35898125Y-11898431D02*
G75*
G03*
X35980303Y-11806020I-55425J132031D01*
G01*
X34589739Y-13419765D02*
G75*
G03*
X34794633Y-13625028I999061J792365D01*
G01*
X35129524Y-14430916D02*
X35186022Y-14552076D01*
X34644087Y-14190002D02*
X34703253Y-14316885D01*
X37015057Y-53676921D02*
X37141940Y-53617755D01*
X33360522Y-54168077D02*
X33716918Y-54001887D01*
X34607991Y-54528062D02*
G75*
G03*
X34838809Y-54688575I291709J173262D01*
G01*
X34372696Y-53909258D02*
G75*
G03*
X34324453Y-53711266I-316896J27658D01*
G01*
X36764123Y-54092272D02*
X36778778Y-54147056D01*
X36249030Y-51872708D02*
X36220646Y-51827438D01*
X36184079Y-51788117D01*
X36140080Y-51756093D01*
X36130454Y-51750683D01*
X35240736Y-12295055D02*
G75*
G03*
X35344647Y-12219039I12564J91855D01*
G01*
X34883307Y-51798412D02*
X34941118Y-51813767D01*
X35001232Y-51824477D01*
X35054940Y-51838728D01*
X35113164Y-51861104D01*
X35173317Y-51894121D01*
X35213213Y-51923286D01*
X35252049Y-51959044D01*
X35289060Y-52002139D01*
X35323479Y-52053318D01*
X35354538Y-52113326D01*
X35368569Y-52146874D01*
X34431517Y-12239601D02*
X34557975Y-12310917D01*
X33714733Y-11910302D02*
X33334083Y-12087801D01*
X35785299Y-53962734D02*
G75*
G03*
X35640854Y-54154247I150401J-263666D01*
G01*
X35998658Y-11639097D02*
G75*
G03*
X35980303Y-11806020I274942J-114703D01*
G01*
X35898134Y-11898453D02*
X35785301Y-11962738D01*
X34878827Y-55686598D02*
X34644087Y-56190002D01*
X35915355Y-52133865D02*
X35965471Y-52133534D01*
X36014985Y-52119114D01*
X36051451Y-52089973D01*
X33834521Y-11922015D02*
X33927128Y-12026499D01*
X36083892Y-52187524D02*
X36076089Y-52238080D01*
X36099403Y-52282332D01*
X36104092Y-52284258D01*
X34697658Y-12404115D02*
G75*
G03*
X34821277Y-12400600I58142J130715D01*
G01*
X36233817Y-10735633D02*
X36614466Y-10558134D01*
X35427872Y-11960789D02*
G75*
G03*
X35234162Y-11845168I-336872J-344311D01*
G01*
X33686612Y-11820990D02*
X33849456Y-11542661D01*
X35240736Y-54295055D02*
G75*
G03*
X35344647Y-54219039I12564J91855D01*
G01*
X35589129Y-54418202D02*
G75*
G03*
X35472933Y-54392345I-76329J-68998D01*
G01*
X35677157Y-54462316D02*
G75*
G03*
X35983236Y-54490168I210443J616916D01*
G01*
X36309403Y-11874614D02*
G75*
G03*
X36165631Y-11566257I-399103J1614D01*
G01*
X33470354Y-11501666D02*
X33636994Y-11809450D01*
X34365979Y-12079738D02*
G75*
G03*
X34431517Y-12239600I150021J-31862D01*
G01*
X34503638Y-12987254D02*
G75*
G03*
X34659236Y-12930505I-103238J524754D01*
G01*
X34697639Y-54404140D02*
G75*
G03*
X34557975Y-54310917I-228739J-191460D01*
G01*
X35182612Y-12367914D02*
G75*
G03*
X34943050Y-12355487I-134212J-271986D01*
G01*
X35219859Y-54846144D02*
G75*
G03*
X35395245Y-54593759I-432159J487444D01*
G01*
X35182612Y-12367914D02*
G75*
G03*
X34943050Y-12355487I-134212J-271986D01*
G01*
X35987006Y-10432545D02*
G75*
G03*
X33641171Y-11526397I-492906J-2005255D01*
G01*
X36281842Y-10035914D02*
X36280673Y-9983994D01*
X36271352Y-9932094D01*
X36253611Y-9882250D01*
X36249030Y-9872708D01*
X36862927Y-12667688D02*
X37471460Y-12830744D01*
X33526964Y-54572182D02*
G75*
G03*
X33563474Y-54650459I-45164J-68718D01*
G01*
X36137974Y-10427643D02*
G75*
G03*
X35579092Y-9866657I-141774J417643D01*
G01*
X35898125Y-11898431D02*
G75*
G03*
X35980303Y-11806020I-55425J132031D01*
G01*
X33716896Y-54001900D02*
G75*
G03*
X34221958Y-54258010I459704J280500D01*
G01*
X37015057Y-11676921D02*
X37141940Y-11617755D01*
X35136300Y-10211451D02*
X35556214Y-10222109D01*
X33636963Y-53809467D02*
G75*
G03*
X33686612Y-53820990I29937J16267D01*
G01*
X35014674Y-56439781D02*
X35282607Y-55865198D01*
X34372683Y-53909257D02*
X34365993Y-54079741D01*
X35589129Y-12418202D02*
G75*
G03*
X35472933Y-12392345I-76329J-68998D01*
G01*
X34607935Y-12528077D02*
G75*
G03*
X34633547Y-12730781I259965J-70123D01*
G01*
X35944993Y-11343441D02*
X35810094Y-11238981D01*
X35998658Y-11639097D02*
G75*
G03*
X35980303Y-11806020I274942J-114703D01*
G01*
X35898125Y-53898431D02*
G75*
G03*
X35980303Y-53806020I-55425J132031D01*
G01*
X34394843Y-54391982D02*
G75*
G03*
X34538645Y-54700341I399257J-1518D01*
G01*
X34431517Y-12239601D02*
X34557975Y-12310917D01*
X36233817Y-52735633D02*
X36614466Y-52558134D01*
X35427872Y-53960789D02*
G75*
G03*
X35234162Y-53845168I-336872J-344311D01*
G01*
X35998680Y-11639106D02*
X36025335Y-11496392D01*
X34697639Y-54404140D02*
G75*
G03*
X34557975Y-54310917I-228739J-191460D01*
G01*
X35988597Y-12177873D02*
G75*
G03*
X36351995Y-12279341I299503J371173D01*
G01*
X35383679Y-13885861D02*
G75*
G03*
X36680583Y-13285648I204921J1258461D01*
G01*
X35136300Y-52211451D02*
X35368569Y-52146874D01*
X35067724Y-53806196D02*
G75*
G03*
X34501206Y-54118510I-247124J-221704D01*
G01*
X36658966Y-10629987D02*
X36302570Y-10796177D01*
X33720894Y-52607028D02*
X33670787Y-53164782D01*
X35915355Y-10133865D02*
X35965471Y-10133534D01*
X36014985Y-10119114D01*
X36051451Y-10089973D01*
X34598986Y-14365545D02*
G75*
G03*
X34703253Y-14316886I81714J-39055D01*
G01*
X34879502Y-11977073D02*
G75*
G03*
X34669500Y-11977073I-105001J0D01*
G01*
X34669500Y-11977073D02*
G75*
G03*
X34879502Y-11977073I105001J0D01*
G01*
X35790692Y-12348783D02*
G75*
G03*
X36000603Y-12393615I387708J1301483D01*
G01*
X34878827Y-13686598D02*
X34644087Y-14190002D01*
X33334086Y-54087798D02*
G75*
G03*
X33360522Y-54168077I-70786J-67802D01*
G01*
X35693630Y-11866804D02*
G75*
G03*
X35887779Y-11471941I-117030J302704D01*
G01*
X34589739Y-55419765D02*
G75*
G03*
X34794633Y-55625028I999061J792365D01*
G01*
X35547675Y-12151944D02*
G75*
G03*
X35501777Y-12023746I-115275J31044D01*
G01*
X36000603Y-12393621D02*
G75*
G03*
X36351995Y-12279341I39597J475621D01*
G01*
X36174110Y-11347664D02*
G75*
G03*
X36302570Y-10796177I-381910J379664D01*
G01*
X36771155Y-11154693D02*
X36898038Y-11095527D01*
X34659237Y-54930507D02*
G75*
G03*
X34838808Y-54688576I-148737J298007D01*
G01*
X36051451Y-10089973D02*
X36070395Y-10044051D01*
X36074378Y-9992771D01*
X36072235Y-9942494D01*
X36071478Y-9931119D01*
X37441977Y-13039815D02*
G75*
G03*
X37546266Y-12991167I81723J-39085D01*
G01*
X36029801Y-10536018D02*
X35987014Y-10432513D01*
X37015057Y-11676921D02*
X36833760Y-12353531D01*
X34883307Y-9798412D02*
X35170786Y-9773337D01*
X34330171Y-9667252D02*
X33720894Y-10607028D01*
X34221971Y-54258013D02*
G75*
G03*
X34227493Y-54718849I1315729J-214687D01*
G01*
X35344664Y-12219044D02*
G75*
G03*
X35348126Y-12124696I-169164J53444D01*
G01*
X36523605Y-11648154D02*
X36668543Y-11107235D01*
X36150239Y-51904396D02*
G75*
G03*
X36071479Y-51931119I-35939J-23504D01*
G01*
X36658965Y-10629988D02*
G75*
G03*
X36614467Y-10558134I52935J82488D01*
G01*
X36673864Y-12538267D02*
G75*
G03*
X36165632Y-11566256I-1068164J60367D01*
G01*
X34821323Y-54993114D02*
G75*
G03*
X34977183Y-54649506I-321123J352814D01*
G01*
X36778778Y-54147056D02*
X36923716Y-53606138D01*
X36730279Y-13195083D02*
X37335924Y-13357364D01*
X36673864Y-12538267D02*
G75*
G03*
X36165632Y-11566256I-1068164J60367D01*
G01*
X36855396Y-12771608D02*
X37382791Y-12912923D01*
X35971010Y-52808925D02*
X36165791Y-52834926D01*
X35971010Y-10808925D02*
X36165791Y-10834926D01*
X35987006Y-52432545D02*
G75*
G03*
X33641171Y-53526397I-492906J-2005255D01*
G01*
X35395244Y-12593758D02*
G75*
G03*
X35417993Y-12497984I-420444J150458D01*
G01*
X34503653Y-54987230D02*
G75*
G03*
X35588836Y-54640899I405147J603830D01*
G01*
X34812748Y-13406129D02*
G75*
G03*
X36673841Y-12538266I773352J771029D01*
G01*
X33763318Y-13079858D02*
G75*
G03*
X33806745Y-13172981I-41718J-76142D01*
G01*
X35968270Y-10720119D02*
X36233817Y-10735633D01*
X37255309Y-55439646D02*
X37311807Y-55560806D01*
X33714733Y-53910302D02*
X33334083Y-54087801D01*
X33692957Y-53625706D02*
X33641170Y-53526397D01*
X36730288Y-13195088D02*
G75*
G03*
X36855396Y-12771608I-1141288J567388D01*
G01*
X37382791Y-54912923D02*
X37441958Y-55039806D01*
X35207235Y-53857711D02*
G75*
G03*
X35171323Y-54080426I444265J-185889D01*
G01*
X35216851Y-51603056D02*
X35579092Y-51866657D01*
X33938119Y-12998345D02*
X33763320Y-13079855D01*
X33939803Y-11756091D02*
G75*
G03*
X33873537Y-11696909I-55103J4991D01*
G01*
X34372696Y-53909258D02*
G75*
G03*
X34324453Y-53711266I-316896J27658D01*
G01*
X33716896Y-12001900D02*
G75*
G03*
X34221958Y-12258010I459704J280500D01*
G01*
X34538657Y-12700327D02*
G75*
G03*
X34633547Y-12730780I83343J96627D01*
G01*
X34659237Y-54930507D02*
G75*
G03*
X34838808Y-54688576I-148737J298007D01*
G01*
X35395244Y-54593758D02*
G75*
G03*
X35417993Y-54497984I-420444J150458D01*
G01*
X36150259Y-9904383D02*
X36171304Y-9958237D01*
X36176975Y-10014504D01*
X36161978Y-10069292D01*
X36133657Y-10114486D01*
X36103089Y-10154637D01*
X36083892Y-10187524D01*
X35088254Y-14597631D02*
G75*
G03*
X35186022Y-14552076I78446J-40669D01*
G01*
X36923716Y-53606138D02*
X37098515Y-53524628D01*
X35129524Y-56430916D02*
X35186022Y-56552076D01*
X35988595Y-54177874D02*
G75*
G03*
X35640854Y-54154247I-203795J-428626D01*
G01*
X36104092Y-52284258D02*
X36155105Y-52267807D01*
X36191665Y-52235148D01*
X36224843Y-52194740D01*
X34607935Y-12528077D02*
G75*
G03*
X34633547Y-12730781I259965J-70123D01*
G01*
X35219841Y-12846131D02*
G75*
G03*
X35235317Y-12607763I-267141J137031D01*
G01*
X35689427Y-11074793D02*
G75*
G03*
X34324455Y-11711267I60673J-1912007D01*
G01*
X37335924Y-55357364D02*
X37409539Y-55515232D01*
X37335924Y-13357364D02*
X37409539Y-13515232D01*
X34227492Y-12718849D02*
X33719960Y-12482182D01*
X34501192Y-54118519D02*
G75*
G03*
X34928482Y-54223589I270608J179119D01*
G01*
X35014674Y-56439781D02*
X35088289Y-56597649D01*
X36249030Y-9872708D02*
X36220646Y-9827438D01*
X36184079Y-9788117D01*
X36140080Y-9756093D01*
X36130454Y-9750683D01*
X34697658Y-54404115D02*
G75*
G03*
X34821277Y-54400600I58142J130715D01*
G01*
X36224843Y-10194740D02*
X36251576Y-10150733D01*
X36270929Y-10101544D01*
X36280625Y-10051305D01*
X36281842Y-10035914D01*
X36183476Y-10656683D02*
X35865589Y-10602523D01*
X36608099Y-53763226D02*
X36771155Y-53154693D01*
X34607935Y-54528077D02*
G75*
G03*
X34633547Y-54730781I259965J-70123D01*
G01*
X35501778Y-54023744D02*
G75*
G03*
X35427861Y-53960802I-180378J-136956D01*
G01*
X33360522Y-12168077D02*
X33716918Y-12001887D01*
X36271748Y-53966876D02*
G75*
G03*
X36132912Y-53816986I-251948J-94124D01*
G01*
X34261330Y-12857542D02*
G75*
G03*
X34413105Y-13188570I1276670J385042D01*
G01*
X36130454Y-51750683D02*
X36081043Y-51729892D01*
X36027458Y-51718368D01*
X35977792Y-51716788D01*
X35940089Y-51721437D01*
X35284344Y-11705196D02*
G75*
G03*
X35693627Y-11866797I338056J257096D01*
G01*
X34538657Y-54700327D02*
G75*
G03*
X34633547Y-54730780I83343J96627D01*
G01*
X35790687Y-12348791D02*
G75*
G03*
X35983236Y-12490168I259113J151091D01*
G01*
X35556214Y-52222109D02*
X35521322Y-52175949D01*
X35486783Y-52120707D01*
X35455483Y-52070998D01*
X35419906Y-52017208D01*
X35380362Y-51962048D01*
X35337164Y-51908229D01*
X35290624Y-51858463D01*
X35241054Y-51815462D01*
X35188765Y-51781937D01*
X35170786Y-51773337D01*
X36271748Y-11966876D02*
G75*
G03*
X36132912Y-11816986I-251948J-94124D01*
G01*
X33933629Y-55113815D02*
X33806746Y-55172981D01*
X33939803Y-53756091D02*
G75*
G03*
X33873537Y-53696909I-55103J4991D01*
G01*
X34431517Y-54239601D02*
X34557975Y-54310917D01*
X36271737Y-11966879D02*
G75*
G03*
X36309420Y-11874614I-89737J90479D01*
G01*
X35472920Y-54392320D02*
G75*
G03*
X35417995Y-54497984I47080J-91580D01*
G01*
X33763318Y-55079858D02*
G75*
G03*
X33806745Y-55172981I-41718J-76142D01*
G01*
X35887721Y-11471980D02*
G75*
G03*
X35284381Y-11705167I-274721J-186320D01*
G01*
X36137974Y-52427643D02*
G75*
G03*
X35579092Y-51866657I-141774J417643D01*
G01*
X35588812Y-54640968D02*
G75*
G03*
X36551711Y-54032221I239888J686468D01*
G01*
X34878833Y-13686589D02*
G75*
G03*
X35282607Y-13865198I709967J1059289D01*
G01*
X36764112Y-12092276D02*
G75*
G03*
X36608098Y-11763226I-1270812J-401024D01*
G01*
X35207250Y-11857717D02*
X35234162Y-11845167D01*
X33933629Y-13113815D02*
X33806746Y-13172981D01*
X36271737Y-53966879D02*
G75*
G03*
X36309420Y-53874614I-89737J90479D01*
G01*
X34879502Y-53977073D02*
G75*
G03*
X34669500Y-53977073I-105001J0D01*
G01*
X34669500Y-53977073D02*
G75*
G03*
X34879502Y-53977073I105001J0D01*
G01*
X34812748Y-55406129D02*
G75*
G03*
X36673841Y-54538266I773352J771029D01*
G01*
X36523612Y-53648148D02*
G75*
G03*
X36174139Y-53347693I-1030412J-845052D01*
G01*
X34812748Y-13406129D02*
G75*
G03*
X36673841Y-12538266I773352J771029D01*
G01*
X35876804Y-10518476D02*
G75*
G03*
X35865589Y-10602523I-4104J-42224D01*
G01*
X34394843Y-12391982D02*
G75*
G03*
X34538645Y-12700341I399257J-1518D01*
G01*
X35689427Y-53074793D02*
G75*
G03*
X34324455Y-53711267I60673J-1912007D01*
G01*
X36104092Y-10284258D02*
X36155105Y-10267807D01*
X36191665Y-10235148D01*
X36224843Y-10194740D01*
X36107453Y-12097016D02*
G75*
G03*
X36408224Y-12114939I168047J287416D01*
G01*
X36165791Y-10834926D02*
X36186305Y-10973028D01*
X36025335Y-11496392D02*
X35998680Y-11639106D01*
X35968272Y-10720121D02*
G75*
G03*
X35971011Y-10808924I34528J-43379D01*
G01*
X34821277Y-12400600D02*
X34943050Y-12355487D01*
X36778778Y-12147056D02*
X36923716Y-11606138D01*
X34365979Y-54079738D02*
G75*
G03*
X34431517Y-54239600I150021J-31862D01*
G01*
X36658966Y-52629987D02*
X36302570Y-52796177D01*
X33719960Y-12482182D02*
X33526969Y-12572175D01*
X34524138Y-14205103D02*
X34598944Y-14365525D01*
X36271748Y-53966876D02*
G75*
G03*
X36132912Y-53816986I-251948J-94124D01*
G01*
X33938119Y-54998345D02*
X34450117Y-55237093D01*
X36206529Y-10611256D02*
X36137972Y-10427637D01*
X35207235Y-11857711D02*
G75*
G03*
X35171323Y-12080426I444265J-185889D01*
G01*
X36764123Y-12092272D02*
X36778778Y-12147056D01*
X34821319Y-54993116D02*
G75*
G03*
X35134727Y-54797379I-76219J470816D01*
G01*
X34607935Y-54528077D02*
G75*
G03*
X34633547Y-54730781I259965J-70123D01*
G01*
X33938119Y-12998345D02*
X34450117Y-13237093D01*
X35219859Y-12846144D02*
G75*
G03*
X35395245Y-12593759I-432159J487444D01*
G01*
X35767838Y-52041346D02*
X35799288Y-52081424D01*
X35840375Y-52110756D01*
X35887665Y-52128850D01*
X35915355Y-52133865D01*
X33873537Y-11696908D02*
X33714733Y-11910302D01*
X33636963Y-11809467D02*
G75*
G03*
X33686612Y-11820990I29937J16267D01*
G01*
X34524138Y-56205103D02*
X34794632Y-55625029D01*
X36668543Y-53107235D02*
X36861533Y-53017243D01*
X35182584Y-12367903D02*
G75*
G03*
X34977184Y-12649506I253616J-400697D01*
G01*
X34659237Y-12930507D02*
G75*
G03*
X34838808Y-12688576I-148737J298007D01*
G01*
X36150239Y-9904396D02*
G75*
G03*
X36071479Y-9931119I-35939J-23504D01*
G01*
X34365979Y-54079738D02*
G75*
G03*
X34431517Y-54239600I150021J-31862D01*
G01*
X35589175Y-12418158D02*
G75*
G03*
X35677162Y-12462299I243325J375258D01*
G01*
X34450117Y-55237093D02*
X34413104Y-55188570D01*
X35689428Y-53074768D02*
G75*
G03*
X35810094Y-53238981I302672J95968D01*
G01*
X35348118Y-12124703D02*
G75*
G03*
X35422635Y-12182673I141882J105503D01*
G01*
X35348118Y-54124703D02*
G75*
G03*
X35422635Y-54182673I141882J105503D01*
G01*
X34394846Y-12391981D02*
G75*
G03*
X34812786Y-13406090I1058554J-156919D01*
G01*
X35171967Y-12177504D02*
G75*
G03*
X35240734Y-12295072I119333J-9096D01*
G01*
X34503638Y-54987254D02*
G75*
G03*
X34659236Y-54930505I-103238J524754D01*
G01*
X34261331Y-12857542D02*
X33690357Y-12591293D01*
X35898134Y-53898453D02*
X35785301Y-53962738D01*
X35998658Y-53639097D02*
G75*
G03*
X35980303Y-53806020I274942J-114703D01*
G01*
X35171967Y-54177504D02*
G75*
G03*
X35240734Y-54295072I119333J-9096D01*
G01*
X36025335Y-53496392D02*
X35998680Y-53639106D01*
X36862937Y-54667688D02*
G75*
G03*
X36833759Y-54353531I-1274237J40088D01*
G01*
X35768092Y-9838408D02*
X35749380Y-9888075D01*
X35743214Y-9941354D01*
X35749423Y-9993894D01*
X35767838Y-10041346D01*
X35588812Y-12640968D02*
G75*
G03*
X36551711Y-12032221I239888J686468D01*
G01*
X35134731Y-12797382D02*
G75*
G03*
X35235317Y-12607763I-1144831J728782D01*
G01*
X34697658Y-54404115D02*
G75*
G03*
X34821277Y-54400600I58142J130715D01*
G01*
X35088254Y-56597631D02*
G75*
G03*
X35186022Y-56552076I78446J-40669D01*
G01*
X35768092Y-51838408D02*
X35749380Y-51888075D01*
X35743214Y-51941354D01*
X35749423Y-51993894D01*
X35767838Y-52041346D01*
X35219841Y-54846131D02*
G75*
G03*
X35235317Y-54607763I-267141J137031D01*
G01*
X35940089Y-9721437D02*
X35888593Y-9736573D01*
X35840655Y-9761469D01*
X35799435Y-9795591D01*
X35768092Y-9838408D01*
X33938119Y-54998345D02*
X33763320Y-55079855D01*
X35588812Y-12640968D02*
G75*
G03*
X36551711Y-12032221I239888J686468D01*
G01*
X35182584Y-54367903D02*
G75*
G03*
X34977184Y-54649506I253616J-400697D01*
G01*
X36186304Y-10973034D02*
G75*
G03*
X33927128Y-12026499I-452404J-1978966D01*
G01*
X34261331Y-54857542D02*
X33690357Y-54591293D01*
X36523612Y-11648148D02*
G75*
G03*
X36174139Y-11347693I-1030412J-845052D01*
G01*
X35708761Y-11590383D02*
G75*
G03*
X35498759Y-11590383I-105001J0D01*
G01*
X35498759Y-11590383D02*
G75*
G03*
X35708761Y-11590383I105001J0D01*
G01*
X37311832Y-55560819D02*
G75*
G03*
X37409539Y-55515232I78468J-40681D01*
G01*
X34589740Y-55419764D02*
X33933629Y-55113815D01*
X36608099Y-11763226D02*
X36771155Y-11154693D01*
X34372683Y-11909257D02*
X34365993Y-12079741D01*
X36523605Y-53648154D02*
X36668543Y-53107235D01*
X36309403Y-53874614D02*
G75*
G03*
X36165631Y-53566257I-399103J1614D01*
G01*
X33334086Y-12087798D02*
G75*
G03*
X33360522Y-12168077I-70786J-67802D01*
G01*
X34372696Y-11909258D02*
G75*
G03*
X34324453Y-11711266I-316896J27658D01*
G01*
X37382791Y-12912923D02*
X37441958Y-13039806D01*
X33686612Y-53820990D02*
X33849456Y-53542661D01*
X34503638Y-12987254D02*
G75*
G03*
X34659236Y-12930505I-103238J524754D01*
G01*
X37471460Y-54830744D02*
X37546266Y-54991166D01*
X34883307Y-9798412D02*
X34941118Y-9813767D01*
X35001232Y-9824477D01*
X35054940Y-9838728D01*
X35113164Y-9861104D01*
X35173317Y-9894121D01*
X35213213Y-9923286D01*
X35252049Y-9959044D01*
X35289060Y-10002139D01*
X35323479Y-10053318D01*
X35354538Y-10113326D01*
X35368569Y-10146874D01*
X34261330Y-54857542D02*
G75*
G03*
X34413105Y-55188570I1276670J385042D01*
G01*
X35067724Y-11806196D02*
G75*
G03*
X34501206Y-12118510I-247124J-221704D01*
G01*
X35383674Y-13885889D02*
X35129524Y-14430916D01*
X34503638Y-54987254D02*
G75*
G03*
X34659236Y-54930505I-103238J524754D01*
G01*
X35785299Y-53962734D02*
G75*
G03*
X35640854Y-54154247I150401J-263666D01*
G01*
X36764112Y-54092276D02*
G75*
G03*
X36608098Y-53763226I-1270812J-401024D01*
G01*
X37141937Y-11617760D02*
G75*
G03*
X37098515Y-11524628I41763J76160D01*
G01*
X35944993Y-53343441D02*
X35810094Y-53238981D01*
X36271748Y-11966876D02*
G75*
G03*
X36132912Y-11816986I-251948J-94124D01*
G01*
X36183470Y-10656658D02*
G75*
G03*
X36206528Y-10611256I-8470J32858D01*
G01*
X34394843Y-54391982D02*
G75*
G03*
X34538645Y-54700341I399257J-1518D01*
G01*
X34821319Y-12993116D02*
G75*
G03*
X35134727Y-12797379I-76219J470816D01*
G01*
X34330171Y-51667252D02*
X33720894Y-52607028D01*
X35547675Y-54151944D02*
G75*
G03*
X35501777Y-54023746I-115275J31044D01*
G01*
X36107453Y-54097016D02*
G75*
G03*
X36408224Y-54114939I168047J287416D01*
G01*
X36668543Y-11107235D02*
X36861533Y-11017243D01*
X36771155Y-53154693D02*
X36898038Y-53095527D01*
X35708761Y-53590383D02*
G75*
G03*
X35498759Y-53590383I-105001J0D01*
G01*
X35498759Y-53590383D02*
G75*
G03*
X35708761Y-53590383I105001J0D01*
G01*
X35876811Y-52518407D02*
X36029801Y-52536018D01*
X36673864Y-54538267D02*
G75*
G03*
X36165632Y-53566256I-1068164J60367D01*
G01*
X36025353Y-11496394D02*
G75*
G03*
X35944993Y-11343442I-152253J17594D01*
G01*
X35136300Y-52211451D02*
X35556214Y-52222109D01*
X36206529Y-52611256D02*
X36137972Y-52427637D01*
X35589129Y-54418202D02*
G75*
G03*
X35472933Y-54392345I-76329J-68998D01*
G01*
X36658965Y-52629988D02*
G75*
G03*
X36614467Y-52558134I52935J82488D01*
G01*
X35472920Y-12392320D02*
G75*
G03*
X35417995Y-12497984I47080J-91580D01*
G01*
X35876804Y-52518476D02*
G75*
G03*
X35865589Y-52602523I-4104J-42224D01*
G01*
X34501192Y-12118519D02*
G75*
G03*
X34928482Y-12223589I270608J179119D01*
G01*
X34607991Y-12528062D02*
G75*
G03*
X34838809Y-12688575I291709J173262D01*
G01*
X34394843Y-12391982D02*
G75*
G03*
X34538645Y-12700341I399257J-1518D01*
G01*
X36271737Y-11966879D02*
G75*
G03*
X36309420Y-11874614I-89737J90479D01*
G01*
X36107434Y-54096972D02*
G75*
G03*
X36132911Y-53816985I-294734J167972D01*
G01*
X34503653Y-12987230D02*
G75*
G03*
X35588836Y-12640899I405147J603830D01*
G01*
X36186304Y-52973034D02*
G75*
G03*
X33927128Y-54026499I-452404J-1978966D01*
G01*
X35136300Y-10211451D02*
X35368569Y-10146874D01*
X35940089Y-51721437D02*
X35888593Y-51736573D01*
X35840655Y-51761469D01*
X35799435Y-51795591D01*
X35768092Y-51838408D01*
X35422600Y-12182732D02*
G75*
G03*
X35547673Y-12151943I46600J80132D01*
G01*
X35589175Y-54418158D02*
G75*
G03*
X35677162Y-54462299I243325J375258D01*
G01*
X35998658Y-53639097D02*
G75*
G03*
X35980303Y-53806020I274942J-114703D01*
G01*
X35182612Y-54367914D02*
G75*
G03*
X34943050Y-54355487I-134212J-271986D01*
G01*
X34227492Y-54718849D02*
X33719960Y-54482182D01*
X37015057Y-53676921D02*
X36833760Y-54353531D01*
X36281842Y-52035914D02*
X36280673Y-51983994D01*
X36271352Y-51932094D01*
X36253611Y-51882250D01*
X36249030Y-51872708D01*
X36730288Y-55195088D02*
G75*
G03*
X36855396Y-54771608I-1141288J567388D01*
G01*
X34330171Y-9667252D02*
X35216851Y-9603056D01*
X36174110Y-53347664D02*
G75*
G03*
X36302570Y-52796177I-381910J379664D01*
G01*
X33720894Y-10607028D02*
X33670787Y-11164782D01*
X35785299Y-11962734D02*
G75*
G03*
X35640854Y-12154247I150401J-263666D01*
G01*
X35014674Y-14439781D02*
X35282607Y-13865198D01*
X35693630Y-53866804D02*
G75*
G03*
X35887779Y-53471941I-117030J302704D01*
G01*
X36309403Y-53874614D02*
G75*
G03*
X36165631Y-53566257I-399103J1614D01*
G01*
X36130454Y-9750683D02*
X36081043Y-9729892D01*
X36027458Y-9718368D01*
X35977792Y-9716788D01*
X35940089Y-9721437D01*
X34697639Y-12404140D02*
G75*
G03*
X34557975Y-12310917I-228739J-191460D01*
G01*
X34659237Y-12930507D02*
G75*
G03*
X34838808Y-12688576I-148737J298007D01*
G01*
X35968272Y-52720121D02*
G75*
G03*
X35971011Y-52808924I34528J-43379D01*
G01*
X36183476Y-52656683D02*
X35865589Y-52602523D01*
X35876811Y-10518407D02*
X36029801Y-10536018D01*
X35134731Y-54797382D02*
G75*
G03*
X35235317Y-54607763I-1144831J728782D01*
G01*
X35134731Y-54797382D02*
G75*
G03*
X35235317Y-54607763I-1144831J728782D01*
G01*
X37441977Y-55039815D02*
G75*
G03*
X37546266Y-54991167I81723J-39085D01*
G01*
X35422600Y-54182732D02*
G75*
G03*
X35547673Y-54151943I46600J80132D01*
G01*
X35182612Y-54367914D02*
G75*
G03*
X34943050Y-54355487I-134212J-271986D01*
G01*
X34821277Y-12400600D02*
X34943050Y-12355487D01*
X36107434Y-12096972D02*
G75*
G03*
X36132911Y-11816985I-294734J167972D01*
G01*
X35216851Y-9603056D02*
X35579092Y-9866657D01*
X33470354Y-53501666D02*
X33636994Y-53809450D01*
X34394846Y-12391981D02*
G75*
G03*
X34812786Y-13406090I1058554J-156919D01*
G01*
X36923716Y-11606138D02*
X37098515Y-11524628D01*
X36408223Y-54114938D02*
G75*
G03*
X36551711Y-54032221I-191923J498738D01*
G01*
X33692957Y-11625706D02*
X33641170Y-11526397D01*
X34644087Y-56190002D02*
X34703253Y-56316885D01*
X36309403Y-11874614D02*
G75*
G03*
X36165631Y-11566257I-399103J1614D01*
G01*
X37311832Y-13560819D02*
G75*
G03*
X37409539Y-13515232I78468J-40681D01*
G01*
X34697658Y-12404115D02*
G75*
G03*
X34821277Y-12400600I58142J130715D01*
G01*
X36150259Y-51904383D02*
X36171304Y-51958237D01*
X36176975Y-52014504D01*
X36161978Y-52069292D01*
X36133657Y-52114486D01*
X36103089Y-52154637D01*
X36083892Y-52187524D01*
X34365979Y-12079738D02*
G75*
G03*
X34431517Y-12239600I150021J-31862D01*
G01*
X35589175Y-54418158D02*
G75*
G03*
X35677162Y-54462299I243325J375258D01*
G01*
X36680583Y-13285648D02*
X37255309Y-13439646D01*
X36083892Y-10187524D02*
X36076089Y-10238080D01*
X36099403Y-10282332D01*
X36104092Y-10284258D01*
X34503653Y-54987230D02*
G75*
G03*
X35588836Y-54640899I405147J603830D01*
G01*
X36025353Y-53496394D02*
G75*
G03*
X35944993Y-53343442I-152253J17594D01*
G01*
X34878833Y-55686589D02*
G75*
G03*
X35282607Y-55865198I709967J1059289D01*
G01*
X34821323Y-12993114D02*
G75*
G03*
X34977183Y-12649506I-321123J352814D01*
G01*
X34372696Y-11909258D02*
G75*
G03*
X34324453Y-11711266I-316896J27658D01*
G01*
X35171340Y-54080430D02*
G75*
G03*
X35172030Y-54177509I221360J-46970D01*
G01*
X36025353Y-53496394D02*
G75*
G03*
X35944993Y-53343442I-152253J17594D01*
G01*
X35284344Y-53705196D02*
G75*
G03*
X35693627Y-53866797I338056J257096D01*
G01*
X33777806Y-53497189D02*
X33692957Y-53625706D01*
X35887721Y-53471980D02*
G75*
G03*
X35284381Y-53705167I-274721J-186320D01*
G01*
X33670787Y-11164782D02*
X33470354Y-11501666D01*
X35207250Y-53857717D02*
X35234162Y-53845167D01*
X35589129Y-12418202D02*
G75*
G03*
X35472933Y-12392345I-76329J-68998D01*
G01*
X35790692Y-54348783D02*
G75*
G03*
X36000603Y-54393615I387708J1301483D01*
G01*
X35501778Y-12023744D02*
G75*
G03*
X35427861Y-11960802I-180378J-136956D01*
G01*
X36271737Y-53966879D02*
G75*
G03*
X36309420Y-53874614I-89737J90479D01*
G01*
X36183470Y-52656658D02*
G75*
G03*
X36206528Y-52611256I-8470J32858D01*
G01*
X35182584Y-54367903D02*
G75*
G03*
X34977184Y-54649506I253616J-400697D01*
G01*
X35988597Y-54177873D02*
G75*
G03*
X36351995Y-54279341I299503J371173D01*
G01*
X34330171Y-51667252D02*
X35216851Y-51603056D01*
X35689428Y-11074768D02*
G75*
G03*
X35810094Y-11238981I302672J95968D01*
G01*
X36107434Y-54096972D02*
G75*
G03*
X36132911Y-53816985I-294734J167972D01*
G01*
X36165791Y-52834926D02*
X36186305Y-52973028D01*
X35767838Y-10041346D02*
X35799288Y-10081424D01*
X35840375Y-10110756D01*
X35887665Y-10128850D01*
X35915355Y-10133865D01*
X33526964Y-12572182D02*
G75*
G03*
X33563474Y-12650459I-45164J-68718D01*
G01*
X34821323Y-54993114D02*
G75*
G03*
X34977183Y-54649506I-321123J352814D01*
G01*
D11*
X48354911Y-62110683D02*
X47664390Y-62432678D01*
X48170648Y-62616941D02*
X47848653Y-61926421D01*
D12*
X39013486Y-56005237D02*
X38675391Y-55280191D01*
X38836389Y-55625451D02*
X38422077Y-55818648D01*
X38599174Y-56198434D02*
X38261079Y-55473387D01*
X37777715Y-55698784D02*
X37639611Y-55763183D01*
X37639611Y-55763183D02*
X37586659Y-55829908D01*
X37586659Y-55829908D02*
X37549806Y-55931160D01*
X37549806Y-55931160D02*
X37579679Y-56085364D01*
X37579679Y-56085364D02*
X37692378Y-56327046D01*
X37692378Y-56327046D02*
X37791303Y-56449050D01*
X37791303Y-56449050D02*
X37892554Y-56485902D01*
X37892554Y-56485902D02*
X37977706Y-56488229D01*
X37977706Y-56488229D02*
X38115810Y-56423830D01*
X38115810Y-56423830D02*
X38168762Y-56357105D01*
X38168762Y-56357105D02*
X38205615Y-56255853D01*
X38205615Y-56255853D02*
X38175742Y-56101649D01*
X38175742Y-56101649D02*
X38063044Y-55859967D01*
X38063044Y-55859967D02*
X37964119Y-55737963D01*
X37964119Y-55737963D02*
X37862867Y-55701110D01*
X37862867Y-55701110D02*
X37777715Y-55698784D01*
X38452985Y-57687753D02*
X38114891Y-56962707D01*
X38275888Y-57307967D02*
X37861576Y-57501164D01*
X38038673Y-57880950D02*
X37700579Y-57155903D01*
X37217215Y-57381300D02*
X37079111Y-57445699D01*
X37079111Y-57445699D02*
X37026158Y-57512424D01*
X37026158Y-57512424D02*
X36989306Y-57613676D01*
X36989306Y-57613676D02*
X37019179Y-57767880D01*
X37019179Y-57767880D02*
X37131877Y-58009562D01*
X37131877Y-58009562D02*
X37230802Y-58131566D01*
X37230802Y-58131566D02*
X37332053Y-58168418D01*
X37332053Y-58168418D02*
X37417205Y-58170745D01*
X37417205Y-58170745D02*
X37555309Y-58106346D01*
X37555309Y-58106346D02*
X37608261Y-58039620D01*
X37608261Y-58039620D02*
X37645114Y-57938369D01*
X37645114Y-57938369D02*
X37615241Y-57784165D01*
X37615241Y-57784165D02*
X37502543Y-57542483D01*
X37502543Y-57542483D02*
X37403618Y-57420479D01*
X37403618Y-57420479D02*
X37302366Y-57383626D01*
X37302366Y-57383626D02*
X37217215Y-57381300D01*
X39013486Y-14005237D02*
X38675391Y-13280191D01*
X38836389Y-13625451D02*
X38422077Y-13818648D01*
X38599174Y-14198434D02*
X38261079Y-13473387D01*
X37777715Y-13698784D02*
X37639611Y-13763183D01*
X37639611Y-13763183D02*
X37586659Y-13829908D01*
X37586659Y-13829908D02*
X37549806Y-13931160D01*
X37549806Y-13931160D02*
X37579679Y-14085364D01*
X37579679Y-14085364D02*
X37692378Y-14327046D01*
X37692378Y-14327046D02*
X37791303Y-14449050D01*
X37791303Y-14449050D02*
X37892554Y-14485902D01*
X37892554Y-14485902D02*
X37977706Y-14488229D01*
X37977706Y-14488229D02*
X38115810Y-14423830D01*
X38115810Y-14423830D02*
X38168762Y-14357105D01*
X38168762Y-14357105D02*
X38205615Y-14255853D01*
X38205615Y-14255853D02*
X38175742Y-14101649D01*
X38175742Y-14101649D02*
X38063044Y-13859967D01*
X38063044Y-13859967D02*
X37964119Y-13737963D01*
X37964119Y-13737963D02*
X37862867Y-13701110D01*
X37862867Y-13701110D02*
X37777715Y-13698784D01*
X38452985Y-15687753D02*
X38114891Y-14962707D01*
X38275888Y-15307967D02*
X37861576Y-15501164D01*
X38038673Y-15880950D02*
X37700579Y-15155903D01*
X37217215Y-15381300D02*
X37079111Y-15445699D01*
X37079111Y-15445699D02*
X37026158Y-15512424D01*
X37026158Y-15512424D02*
X36989306Y-15613676D01*
X36989306Y-15613676D02*
X37019179Y-15767880D01*
X37019179Y-15767880D02*
X37131877Y-16009562D01*
X37131877Y-16009562D02*
X37230802Y-16131566D01*
X37230802Y-16131566D02*
X37332053Y-16168418D01*
X37332053Y-16168418D02*
X37417205Y-16170745D01*
X37417205Y-16170745D02*
X37555309Y-16106346D01*
X37555309Y-16106346D02*
X37608261Y-16039620D01*
X37608261Y-16039620D02*
X37645114Y-15938369D01*
X37645114Y-15938369D02*
X37615241Y-15784165D01*
X37615241Y-15784165D02*
X37502543Y-15542483D01*
X37502543Y-15542483D02*
X37403618Y-15420479D01*
X37403618Y-15420479D02*
X37302366Y-15383626D01*
X37302366Y-15383626D02*
X37217215Y-15381300D01*
D11*
G36*
X41264432Y-15241230D02*
G01*
X41304841Y-15255937D01*
X41372263Y-15309443D01*
X41484921Y-15448384D01*
X41577741Y-15647436D01*
X41611760Y-15823042D01*
X41609409Y-15909086D01*
X41594701Y-15949495D01*
X41547082Y-16009499D01*
X41492860Y-16034784D01*
X41416285Y-16032691D01*
X41375876Y-16017984D01*
X41308454Y-15964478D01*
X41195796Y-15825537D01*
X41102977Y-15626487D01*
X41068957Y-15450879D01*
X41071308Y-15364836D01*
X41086016Y-15324427D01*
X41133635Y-15264422D01*
X41187856Y-15239137D01*
X41264432Y-15241230D01*
G37*
G36*
X42772270Y-15122934D02*
G01*
X42529310Y-15236228D01*
X42480849Y-14815141D01*
X42772270Y-15122934D01*
G37*
G36*
X44586135Y-14053756D02*
G01*
X44636092Y-14093400D01*
X44670445Y-14167070D01*
X44347244Y-14245798D01*
X44340462Y-14231254D01*
X44342204Y-14167503D01*
X44381848Y-14117548D01*
X44522385Y-14052014D01*
X44586135Y-14053756D01*
G37*
G36*
X45480187Y-13650044D02*
G01*
X45218947Y-13771863D01*
X45142371Y-13769771D01*
X45101962Y-13755063D01*
X45041957Y-13707444D01*
X44996549Y-13610065D01*
X44998641Y-13533490D01*
X45013350Y-13493079D01*
X45060967Y-13433076D01*
X45322209Y-13311258D01*
X45480187Y-13650044D01*
G37*
G36*
X46070620Y-14223272D02*
G01*
X41187348Y-16500379D01*
X40699886Y-15455013D01*
X40918789Y-15455013D01*
X40919912Y-15458382D01*
X40920130Y-15471325D01*
X40957471Y-15664079D01*
X40959254Y-15667051D01*
X40963129Y-15681511D01*
X41063753Y-15897300D01*
X41066204Y-15899751D01*
X41073470Y-15912839D01*
X41197126Y-16065344D01*
X41200172Y-16067171D01*
X41208760Y-16076856D01*
X41292167Y-16143047D01*
X41293715Y-16143563D01*
X41313138Y-16154776D01*
X41376420Y-16177808D01*
X41378055Y-16177807D01*
X41400022Y-16182303D01*
X41506462Y-16185212D01*
X41510715Y-16183794D01*
X41515048Y-16184955D01*
X41540208Y-16178213D01*
X41626522Y-16137963D01*
X41629691Y-16134793D01*
X41634086Y-16133894D01*
X41653575Y-16116612D01*
X41719765Y-16033205D01*
X41720282Y-16031651D01*
X41731493Y-16012235D01*
X41754526Y-15948953D01*
X41754526Y-15947315D01*
X41759021Y-15925349D01*
X41761929Y-15818909D01*
X41760805Y-15815539D01*
X41760588Y-15802597D01*
X41755869Y-15778235D01*
X42061887Y-15778235D01*
X42065271Y-15784096D01*
X42065271Y-15790863D01*
X42077794Y-15805789D01*
X42087538Y-15822665D01*
X42096105Y-15827611D01*
X42098247Y-15830164D01*
X42101528Y-15830742D01*
X42110096Y-15835689D01*
X42173378Y-15858722D01*
X42192862Y-15858722D01*
X42212053Y-15862106D01*
X42215023Y-15860390D01*
X42218441Y-15860690D01*
X42221252Y-15858722D01*
X42224681Y-15858722D01*
X42239607Y-15846198D01*
X42256483Y-15836455D01*
X42258810Y-15832422D01*
X42260466Y-15831264D01*
X42261319Y-15828077D01*
X42261429Y-15827887D01*
X42263982Y-15825746D01*
X42264560Y-15822464D01*
X42269507Y-15813897D01*
X42292540Y-15750615D01*
X42292540Y-15731127D01*
X42295923Y-15711940D01*
X42292540Y-15706080D01*
X42292540Y-15699312D01*
X42280012Y-15684382D01*
X42270272Y-15667510D01*
X42261706Y-15662564D01*
X42259564Y-15660011D01*
X42256280Y-15659432D01*
X42247714Y-15654486D01*
X42184433Y-15631453D01*
X42164946Y-15631453D01*
X42145758Y-15628070D01*
X42142788Y-15629784D01*
X42139370Y-15629485D01*
X42136559Y-15631453D01*
X42133130Y-15631453D01*
X42118200Y-15643980D01*
X42101328Y-15653721D01*
X42099000Y-15657751D01*
X42097345Y-15658911D01*
X42096490Y-15662099D01*
X42096382Y-15662286D01*
X42093829Y-15664429D01*
X42093250Y-15667712D01*
X42088304Y-15676279D01*
X42065271Y-15739560D01*
X42065271Y-15759043D01*
X42061887Y-15778235D01*
X41755869Y-15778235D01*
X41723247Y-15609843D01*
X41721463Y-15606870D01*
X41717589Y-15592411D01*
X41616965Y-15376623D01*
X41614514Y-15374172D01*
X41607248Y-15361083D01*
X41483592Y-15208578D01*
X41480545Y-15206750D01*
X41471958Y-15197066D01*
X41388551Y-15130875D01*
X41387002Y-15130358D01*
X41367580Y-15119146D01*
X41304298Y-15096114D01*
X41302662Y-15096114D01*
X41280696Y-15091619D01*
X41174256Y-15088710D01*
X41170002Y-15090127D01*
X41165670Y-15088967D01*
X41140510Y-15095709D01*
X41054195Y-15135959D01*
X41051025Y-15139129D01*
X41046632Y-15140028D01*
X41027143Y-15157311D01*
X40960953Y-15240717D01*
X40960434Y-15242273D01*
X40949225Y-15261688D01*
X40926192Y-15324969D01*
X40926192Y-15326606D01*
X40921697Y-15348572D01*
X40918789Y-15455013D01*
X40699886Y-15455013D01*
X40580589Y-15199180D01*
X41846734Y-14608767D01*
X42306109Y-14608767D01*
X42426625Y-15655947D01*
X42449569Y-15701834D01*
X42496639Y-15722238D01*
X42545813Y-15707611D01*
X42574081Y-15664798D01*
X42575641Y-15638797D01*
X42547388Y-15393305D01*
X42880978Y-15237749D01*
X43050877Y-15417192D01*
X43096764Y-15440135D01*
X43146663Y-15428216D01*
X43177226Y-15387010D01*
X43174152Y-15335800D01*
X43159800Y-15314062D01*
X43065765Y-15214744D01*
X43270297Y-15214744D01*
X43273681Y-15220605D01*
X43273681Y-15227372D01*
X43286204Y-15242298D01*
X43295948Y-15259174D01*
X43304515Y-15264120D01*
X43306657Y-15266673D01*
X43309938Y-15267251D01*
X43318506Y-15272198D01*
X43381788Y-15295231D01*
X43401272Y-15295231D01*
X43420463Y-15298615D01*
X43423433Y-15296899D01*
X43426851Y-15297199D01*
X43429662Y-15295231D01*
X43433091Y-15295231D01*
X43448017Y-15282707D01*
X43464893Y-15272964D01*
X43467220Y-15268931D01*
X43468876Y-15267773D01*
X43469729Y-15264586D01*
X43469839Y-15264396D01*
X43472392Y-15262255D01*
X43472970Y-15258973D01*
X43477917Y-15250406D01*
X43500950Y-15187124D01*
X43500950Y-15167636D01*
X43504333Y-15148449D01*
X43500950Y-15142589D01*
X43500950Y-15135821D01*
X43488422Y-15120891D01*
X43478682Y-15104019D01*
X43470116Y-15099073D01*
X43467974Y-15096520D01*
X43464690Y-15095941D01*
X43456124Y-15090995D01*
X43392843Y-15067962D01*
X43373356Y-15067962D01*
X43354168Y-15064579D01*
X43351198Y-15066293D01*
X43347780Y-15065994D01*
X43344969Y-15067962D01*
X43341540Y-15067962D01*
X43326610Y-15080489D01*
X43309738Y-15090230D01*
X43307410Y-15094260D01*
X43305755Y-15095420D01*
X43304900Y-15098608D01*
X43304792Y-15098795D01*
X43302239Y-15100938D01*
X43301660Y-15104221D01*
X43296714Y-15112788D01*
X43273681Y-15176069D01*
X43273681Y-15195552D01*
X43270297Y-15214744D01*
X43065765Y-15214744D01*
X42435079Y-14548627D01*
X42433146Y-14547660D01*
X42432181Y-14545730D01*
X42410408Y-14536291D01*
X42389192Y-14525684D01*
X42387093Y-14526185D01*
X42385111Y-14525326D01*
X42362363Y-14532092D01*
X42339293Y-14537603D01*
X42338006Y-14539337D01*
X42335937Y-14539953D01*
X42322860Y-14559757D01*
X42308730Y-14578809D01*
X42308859Y-14580963D01*
X42307669Y-14582766D01*
X42306109Y-14608767D01*
X41846734Y-14608767D01*
X42209295Y-14439702D01*
X43398629Y-14439702D01*
X43402791Y-14490836D01*
X43417603Y-14512263D01*
X43915135Y-15015845D01*
X43915571Y-15016051D01*
X43915777Y-15016485D01*
X43938703Y-15027008D01*
X43961500Y-15037806D01*
X43961963Y-15037684D01*
X43962402Y-15037886D01*
X43986719Y-15031212D01*
X44011134Y-15024829D01*
X44011413Y-15024435D01*
X44011877Y-15024308D01*
X44026197Y-15003590D01*
X44040814Y-14982982D01*
X44040774Y-14982501D01*
X44041048Y-14982106D01*
X44043162Y-14956145D01*
X43977204Y-14251317D01*
X43974143Y-14244856D01*
X44190035Y-14244856D01*
X44191452Y-14249108D01*
X44190292Y-14253440D01*
X44197034Y-14278600D01*
X44237283Y-14364915D01*
X44246044Y-14373676D01*
X44251024Y-14385026D01*
X44263624Y-14391256D01*
X44273560Y-14401192D01*
X44285902Y-14402272D01*
X44297012Y-14407765D01*
X44323006Y-14406088D01*
X44735093Y-14305708D01*
X44782124Y-14406567D01*
X44780382Y-14470318D01*
X44740739Y-14520272D01*
X44600201Y-14585807D01*
X44511459Y-14583383D01*
X44462789Y-14599607D01*
X44435933Y-14643319D01*
X44443459Y-14694067D01*
X44481844Y-14728105D01*
X44507363Y-14733327D01*
X44613803Y-14736235D01*
X44618055Y-14734817D01*
X44622387Y-14735978D01*
X44647547Y-14729236D01*
X44820177Y-14648737D01*
X44823347Y-14645566D01*
X44827740Y-14644668D01*
X44847229Y-14627386D01*
X44913420Y-14543979D01*
X44916970Y-14533326D01*
X44924422Y-14524924D01*
X44929644Y-14499405D01*
X44932552Y-14392966D01*
X44931134Y-14388712D01*
X44932295Y-14384381D01*
X44925553Y-14359221D01*
X44764555Y-14013961D01*
X44761385Y-14010791D01*
X44760486Y-14006397D01*
X44743203Y-13986908D01*
X44659797Y-13920718D01*
X44649143Y-13917166D01*
X44640742Y-13909717D01*
X44615224Y-13904495D01*
X44508784Y-13901587D01*
X44504530Y-13903004D01*
X44500199Y-13901844D01*
X44475039Y-13908586D01*
X44302410Y-13989085D01*
X44299239Y-13992255D01*
X44294847Y-13993154D01*
X44275358Y-14010436D01*
X44209167Y-14093843D01*
X44205616Y-14104495D01*
X44198165Y-14112898D01*
X44192943Y-14138416D01*
X44190035Y-14244856D01*
X43974143Y-14244856D01*
X43955241Y-14204953D01*
X43908615Y-14183552D01*
X43859141Y-14197130D01*
X43829970Y-14239331D01*
X43827856Y-14265293D01*
X43874247Y-14761034D01*
X43524307Y-14406839D01*
X43477943Y-14384878D01*
X43428309Y-14397855D01*
X43398629Y-14439702D01*
X42209295Y-14439702D01*
X43959287Y-13623667D01*
X44846122Y-13623667D01*
X44847539Y-13627919D01*
X44846379Y-13632251D01*
X44853121Y-13657411D01*
X44913495Y-13786885D01*
X44916665Y-13790054D01*
X44917564Y-13794448D01*
X44934846Y-13813937D01*
X45018253Y-13880127D01*
X45019806Y-13880644D01*
X45039223Y-13891855D01*
X45102505Y-13914888D01*
X45104143Y-13914888D01*
X45126109Y-13919383D01*
X45232549Y-13922291D01*
X45236801Y-13920873D01*
X45241133Y-13922034D01*
X45265253Y-13915570D01*
X45189352Y-14346380D01*
X45198268Y-14396902D01*
X45237572Y-14429874D01*
X45288875Y-14429866D01*
X45328171Y-14396884D01*
X45337076Y-14372406D01*
X45431156Y-13838414D01*
X45543580Y-13785990D01*
X45713131Y-14149593D01*
X45749408Y-14185870D01*
X45800515Y-14190342D01*
X45842540Y-14160915D01*
X45855819Y-14111361D01*
X45849077Y-14086201D01*
X45426459Y-13179893D01*
X45412681Y-13166115D01*
X45401504Y-13150153D01*
X45394967Y-13148401D01*
X45390182Y-13143616D01*
X45370771Y-13141917D01*
X45351950Y-13136874D01*
X45342394Y-13139434D01*
X45339075Y-13139144D01*
X45336345Y-13141055D01*
X45326790Y-13143616D01*
X44981530Y-13304613D01*
X44978359Y-13307783D01*
X44973967Y-13308682D01*
X44954478Y-13325964D01*
X44888287Y-13409371D01*
X44887769Y-13410923D01*
X44876558Y-13430342D01*
X44853525Y-13493623D01*
X44853525Y-13495260D01*
X44849030Y-13517226D01*
X44846122Y-13623667D01*
X43959287Y-13623667D01*
X45463860Y-12922073D01*
X46070620Y-14223272D01*
G37*
G36*
X41264432Y-57241230D02*
G01*
X41304841Y-57255937D01*
X41372263Y-57309443D01*
X41484921Y-57448384D01*
X41577741Y-57647436D01*
X41611760Y-57823042D01*
X41609409Y-57909086D01*
X41594701Y-57949495D01*
X41547082Y-58009499D01*
X41492860Y-58034784D01*
X41416285Y-58032691D01*
X41375876Y-58017984D01*
X41308454Y-57964478D01*
X41195796Y-57825537D01*
X41102977Y-57626487D01*
X41068957Y-57450879D01*
X41071308Y-57364836D01*
X41086016Y-57324427D01*
X41133635Y-57264422D01*
X41187856Y-57239137D01*
X41264432Y-57241230D01*
G37*
G36*
X42772270Y-57122934D02*
G01*
X42529310Y-57236228D01*
X42480849Y-56815141D01*
X42772270Y-57122934D01*
G37*
G36*
X44586135Y-56053756D02*
G01*
X44636092Y-56093400D01*
X44670445Y-56167070D01*
X44347244Y-56245798D01*
X44340462Y-56231254D01*
X44342204Y-56167503D01*
X44381848Y-56117548D01*
X44522385Y-56052014D01*
X44586135Y-56053756D01*
G37*
G36*
X45480187Y-55650044D02*
G01*
X45218947Y-55771863D01*
X45142371Y-55769771D01*
X45101962Y-55755063D01*
X45041957Y-55707444D01*
X44996549Y-55610065D01*
X44998641Y-55533490D01*
X45013350Y-55493079D01*
X45060967Y-55433076D01*
X45322209Y-55311258D01*
X45480187Y-55650044D01*
G37*
G36*
X46070620Y-56223272D02*
G01*
X41187348Y-58500379D01*
X40699886Y-57455013D01*
X40918789Y-57455013D01*
X40919912Y-57458382D01*
X40920130Y-57471325D01*
X40957471Y-57664079D01*
X40959254Y-57667051D01*
X40963129Y-57681511D01*
X41063753Y-57897300D01*
X41066204Y-57899751D01*
X41073470Y-57912839D01*
X41197126Y-58065344D01*
X41200172Y-58067171D01*
X41208760Y-58076856D01*
X41292167Y-58143047D01*
X41293715Y-58143563D01*
X41313138Y-58154776D01*
X41376420Y-58177808D01*
X41378055Y-58177807D01*
X41400022Y-58182303D01*
X41506462Y-58185212D01*
X41510715Y-58183794D01*
X41515048Y-58184955D01*
X41540208Y-58178213D01*
X41626522Y-58137963D01*
X41629691Y-58134793D01*
X41634086Y-58133894D01*
X41653575Y-58116612D01*
X41719765Y-58033205D01*
X41720282Y-58031651D01*
X41731493Y-58012235D01*
X41754526Y-57948953D01*
X41754526Y-57947315D01*
X41759021Y-57925349D01*
X41761929Y-57818909D01*
X41760805Y-57815539D01*
X41760588Y-57802597D01*
X41755869Y-57778235D01*
X42061887Y-57778235D01*
X42065271Y-57784096D01*
X42065271Y-57790863D01*
X42077794Y-57805789D01*
X42087538Y-57822665D01*
X42096105Y-57827611D01*
X42098247Y-57830164D01*
X42101528Y-57830742D01*
X42110096Y-57835689D01*
X42173378Y-57858722D01*
X42192862Y-57858722D01*
X42212053Y-57862106D01*
X42215023Y-57860390D01*
X42218441Y-57860690D01*
X42221252Y-57858722D01*
X42224681Y-57858722D01*
X42239607Y-57846198D01*
X42256483Y-57836455D01*
X42258810Y-57832422D01*
X42260466Y-57831264D01*
X42261319Y-57828077D01*
X42261429Y-57827887D01*
X42263982Y-57825746D01*
X42264560Y-57822464D01*
X42269507Y-57813897D01*
X42292540Y-57750615D01*
X42292540Y-57731127D01*
X42295923Y-57711940D01*
X42292540Y-57706080D01*
X42292540Y-57699312D01*
X42280012Y-57684382D01*
X42270272Y-57667510D01*
X42261706Y-57662564D01*
X42259564Y-57660011D01*
X42256280Y-57659432D01*
X42247714Y-57654486D01*
X42184433Y-57631453D01*
X42164946Y-57631453D01*
X42145758Y-57628070D01*
X42142788Y-57629784D01*
X42139370Y-57629485D01*
X42136559Y-57631453D01*
X42133130Y-57631453D01*
X42118200Y-57643980D01*
X42101328Y-57653721D01*
X42099000Y-57657751D01*
X42097345Y-57658911D01*
X42096490Y-57662099D01*
X42096382Y-57662286D01*
X42093829Y-57664429D01*
X42093250Y-57667712D01*
X42088304Y-57676279D01*
X42065271Y-57739560D01*
X42065271Y-57759043D01*
X42061887Y-57778235D01*
X41755869Y-57778235D01*
X41723247Y-57609843D01*
X41721463Y-57606870D01*
X41717589Y-57592411D01*
X41616965Y-57376623D01*
X41614514Y-57374172D01*
X41607248Y-57361083D01*
X41483592Y-57208578D01*
X41480545Y-57206750D01*
X41471958Y-57197066D01*
X41388551Y-57130875D01*
X41387002Y-57130358D01*
X41367580Y-57119146D01*
X41304298Y-57096114D01*
X41302662Y-57096114D01*
X41280696Y-57091619D01*
X41174256Y-57088710D01*
X41170002Y-57090127D01*
X41165670Y-57088967D01*
X41140510Y-57095709D01*
X41054195Y-57135959D01*
X41051025Y-57139129D01*
X41046632Y-57140028D01*
X41027143Y-57157311D01*
X40960953Y-57240717D01*
X40960434Y-57242273D01*
X40949225Y-57261688D01*
X40926192Y-57324969D01*
X40926192Y-57326606D01*
X40921697Y-57348572D01*
X40918789Y-57455013D01*
X40699886Y-57455013D01*
X40580589Y-57199180D01*
X41846734Y-56608767D01*
X42306109Y-56608767D01*
X42426625Y-57655947D01*
X42449569Y-57701834D01*
X42496639Y-57722238D01*
X42545813Y-57707611D01*
X42574081Y-57664798D01*
X42575641Y-57638797D01*
X42547388Y-57393305D01*
X42880978Y-57237749D01*
X43050877Y-57417192D01*
X43096764Y-57440135D01*
X43146663Y-57428216D01*
X43177226Y-57387010D01*
X43174152Y-57335800D01*
X43159800Y-57314062D01*
X43065765Y-57214744D01*
X43270297Y-57214744D01*
X43273681Y-57220605D01*
X43273681Y-57227372D01*
X43286204Y-57242298D01*
X43295948Y-57259174D01*
X43304515Y-57264120D01*
X43306657Y-57266673D01*
X43309938Y-57267251D01*
X43318506Y-57272198D01*
X43381788Y-57295231D01*
X43401272Y-57295231D01*
X43420463Y-57298615D01*
X43423433Y-57296899D01*
X43426851Y-57297199D01*
X43429662Y-57295231D01*
X43433091Y-57295231D01*
X43448017Y-57282707D01*
X43464893Y-57272964D01*
X43467220Y-57268931D01*
X43468876Y-57267773D01*
X43469729Y-57264586D01*
X43469839Y-57264396D01*
X43472392Y-57262255D01*
X43472970Y-57258973D01*
X43477917Y-57250406D01*
X43500950Y-57187124D01*
X43500950Y-57167636D01*
X43504333Y-57148449D01*
X43500950Y-57142589D01*
X43500950Y-57135821D01*
X43488422Y-57120891D01*
X43478682Y-57104019D01*
X43470116Y-57099073D01*
X43467974Y-57096520D01*
X43464690Y-57095941D01*
X43456124Y-57090995D01*
X43392843Y-57067962D01*
X43373356Y-57067962D01*
X43354168Y-57064579D01*
X43351198Y-57066293D01*
X43347780Y-57065994D01*
X43344969Y-57067962D01*
X43341540Y-57067962D01*
X43326610Y-57080489D01*
X43309738Y-57090230D01*
X43307410Y-57094260D01*
X43305755Y-57095420D01*
X43304900Y-57098608D01*
X43304792Y-57098795D01*
X43302239Y-57100938D01*
X43301660Y-57104221D01*
X43296714Y-57112788D01*
X43273681Y-57176069D01*
X43273681Y-57195552D01*
X43270297Y-57214744D01*
X43065765Y-57214744D01*
X42435079Y-56548627D01*
X42433146Y-56547660D01*
X42432181Y-56545730D01*
X42410408Y-56536291D01*
X42389192Y-56525684D01*
X42387093Y-56526185D01*
X42385111Y-56525326D01*
X42362363Y-56532092D01*
X42339293Y-56537603D01*
X42338006Y-56539337D01*
X42335937Y-56539953D01*
X42322860Y-56559757D01*
X42308730Y-56578809D01*
X42308859Y-56580963D01*
X42307669Y-56582766D01*
X42306109Y-56608767D01*
X41846734Y-56608767D01*
X42209295Y-56439702D01*
X43398629Y-56439702D01*
X43402791Y-56490836D01*
X43417603Y-56512263D01*
X43915135Y-57015845D01*
X43915571Y-57016051D01*
X43915777Y-57016485D01*
X43938703Y-57027008D01*
X43961500Y-57037806D01*
X43961963Y-57037684D01*
X43962402Y-57037886D01*
X43986719Y-57031212D01*
X44011134Y-57024829D01*
X44011413Y-57024435D01*
X44011877Y-57024308D01*
X44026197Y-57003590D01*
X44040814Y-56982982D01*
X44040774Y-56982501D01*
X44041048Y-56982106D01*
X44043162Y-56956145D01*
X43977204Y-56251317D01*
X43974143Y-56244856D01*
X44190035Y-56244856D01*
X44191452Y-56249108D01*
X44190292Y-56253440D01*
X44197034Y-56278600D01*
X44237283Y-56364915D01*
X44246044Y-56373676D01*
X44251024Y-56385026D01*
X44263624Y-56391256D01*
X44273560Y-56401192D01*
X44285902Y-56402272D01*
X44297012Y-56407765D01*
X44323006Y-56406088D01*
X44735093Y-56305708D01*
X44782124Y-56406567D01*
X44780382Y-56470318D01*
X44740739Y-56520272D01*
X44600201Y-56585807D01*
X44511459Y-56583383D01*
X44462789Y-56599607D01*
X44435933Y-56643319D01*
X44443459Y-56694067D01*
X44481844Y-56728105D01*
X44507363Y-56733327D01*
X44613803Y-56736235D01*
X44618055Y-56734817D01*
X44622387Y-56735978D01*
X44647547Y-56729236D01*
X44820177Y-56648737D01*
X44823347Y-56645566D01*
X44827740Y-56644668D01*
X44847229Y-56627386D01*
X44913420Y-56543979D01*
X44916970Y-56533326D01*
X44924422Y-56524924D01*
X44929644Y-56499405D01*
X44932552Y-56392966D01*
X44931134Y-56388712D01*
X44932295Y-56384381D01*
X44925553Y-56359221D01*
X44764555Y-56013961D01*
X44761385Y-56010791D01*
X44760486Y-56006397D01*
X44743203Y-55986908D01*
X44659797Y-55920718D01*
X44649143Y-55917166D01*
X44640742Y-55909717D01*
X44615224Y-55904495D01*
X44508784Y-55901587D01*
X44504530Y-55903004D01*
X44500199Y-55901844D01*
X44475039Y-55908586D01*
X44302410Y-55989085D01*
X44299239Y-55992255D01*
X44294847Y-55993154D01*
X44275358Y-56010436D01*
X44209167Y-56093843D01*
X44205616Y-56104495D01*
X44198165Y-56112898D01*
X44192943Y-56138416D01*
X44190035Y-56244856D01*
X43974143Y-56244856D01*
X43955241Y-56204953D01*
X43908615Y-56183552D01*
X43859141Y-56197130D01*
X43829970Y-56239331D01*
X43827856Y-56265293D01*
X43874247Y-56761034D01*
X43524307Y-56406839D01*
X43477943Y-56384878D01*
X43428309Y-56397855D01*
X43398629Y-56439702D01*
X42209295Y-56439702D01*
X43959287Y-55623667D01*
X44846122Y-55623667D01*
X44847539Y-55627919D01*
X44846379Y-55632251D01*
X44853121Y-55657411D01*
X44913495Y-55786885D01*
X44916665Y-55790054D01*
X44917564Y-55794448D01*
X44934846Y-55813937D01*
X45018253Y-55880127D01*
X45019806Y-55880644D01*
X45039223Y-55891855D01*
X45102505Y-55914888D01*
X45104143Y-55914888D01*
X45126109Y-55919383D01*
X45232549Y-55922291D01*
X45236801Y-55920873D01*
X45241133Y-55922034D01*
X45265253Y-55915570D01*
X45189352Y-56346380D01*
X45198268Y-56396902D01*
X45237572Y-56429874D01*
X45288875Y-56429866D01*
X45328171Y-56396884D01*
X45337076Y-56372406D01*
X45431156Y-55838414D01*
X45543580Y-55785990D01*
X45713131Y-56149593D01*
X45749408Y-56185870D01*
X45800515Y-56190342D01*
X45842540Y-56160915D01*
X45855819Y-56111361D01*
X45849077Y-56086201D01*
X45426459Y-55179893D01*
X45412681Y-55166115D01*
X45401504Y-55150153D01*
X45394967Y-55148401D01*
X45390182Y-55143616D01*
X45370771Y-55141917D01*
X45351950Y-55136874D01*
X45342394Y-55139434D01*
X45339075Y-55139144D01*
X45336345Y-55141055D01*
X45326790Y-55143616D01*
X44981530Y-55304613D01*
X44978359Y-55307783D01*
X44973967Y-55308682D01*
X44954478Y-55325964D01*
X44888287Y-55409371D01*
X44887769Y-55410923D01*
X44876558Y-55430342D01*
X44853525Y-55493623D01*
X44853525Y-55495260D01*
X44849030Y-55517226D01*
X44846122Y-55623667D01*
X43959287Y-55623667D01*
X45463860Y-54922073D01*
X46070620Y-56223272D01*
G37*
X48354911Y-20110683D02*
X47664390Y-20432678D01*
X48170648Y-20616941D02*
X47848653Y-19926421D01*
X24699147Y-21614930D02*
X24138099Y-21876551D01*
X24138099Y-21876551D02*
X24601199Y-22080938D01*
X24601199Y-22080938D02*
X24471727Y-22141312D01*
X24471727Y-22141312D02*
X24405537Y-22224719D01*
X24405537Y-22224719D02*
X24382504Y-22288002D01*
X24382504Y-22288002D02*
X24379596Y-22394441D01*
X24379596Y-22394441D02*
X24480219Y-22610229D01*
X24480219Y-22610229D02*
X24563626Y-22676419D01*
X24563626Y-22676419D02*
X24626908Y-22699452D01*
X24626908Y-22699452D02*
X24733348Y-22702360D01*
X24733348Y-22702360D02*
X24992293Y-22581612D01*
X24992293Y-22581612D02*
X25058483Y-22498205D01*
X25058483Y-22498205D02*
X25081516Y-22434923D01*
X23879154Y-21997299D02*
X23999670Y-23044480D01*
X23999670Y-23044480D02*
X23274949Y-22279045D01*
X23059161Y-22379668D02*
X22498114Y-22641289D01*
X22498114Y-22641289D02*
X22961214Y-22845676D01*
X22961214Y-22845676D02*
X22831741Y-22906050D01*
X22831741Y-22906050D02*
X22765551Y-22989457D01*
X22765551Y-22989457D02*
X22742518Y-23052739D01*
X22742518Y-23052739D02*
X22739610Y-23159179D01*
X22739610Y-23159179D02*
X22840233Y-23374967D01*
X22840233Y-23374967D02*
X22923640Y-23441157D01*
X22923640Y-23441157D02*
X22986922Y-23464190D01*
X22986922Y-23464190D02*
X23093362Y-23467098D01*
X23093362Y-23467098D02*
X23352307Y-23346350D01*
X23352307Y-23346350D02*
X23418497Y-23262943D01*
X23418497Y-23262943D02*
X23441530Y-23199661D01*
X25489255Y-65067070D02*
X25920830Y-64865823D01*
X25920830Y-64865823D02*
X26165235Y-65277274D01*
X26165235Y-65277274D02*
X26101952Y-65254241D01*
X26101952Y-65254241D02*
X25995513Y-65251333D01*
X25995513Y-65251333D02*
X25779725Y-65351956D01*
X25779725Y-65351956D02*
X25713535Y-65435363D01*
X25713535Y-65435363D02*
X25690502Y-65498645D01*
X25690502Y-65498645D02*
X25687594Y-65605085D01*
X25687594Y-65605085D02*
X25788217Y-65820872D01*
X25788217Y-65820872D02*
X25871624Y-65887063D01*
X25871624Y-65887063D02*
X25934906Y-65910096D01*
X25934906Y-65910096D02*
X26041346Y-65913004D01*
X26041346Y-65913004D02*
X26257134Y-65812380D01*
X26257134Y-65812380D02*
X26323324Y-65728973D01*
X26323324Y-65728973D02*
X26346357Y-65665691D01*
X25187153Y-65207943D02*
X25307668Y-66255123D01*
X25307668Y-66255123D02*
X24582947Y-65489688D01*
X47433020Y-14655099D02*
X47734890Y-15302462D01*
X47734890Y-15302462D02*
X47838421Y-15411809D01*
X47838421Y-15411809D02*
X47964986Y-15457875D01*
X47964986Y-15457875D02*
X48114583Y-15440659D01*
X48114583Y-15440659D02*
X48200898Y-15400409D01*
X47424063Y-15762653D02*
X47001444Y-14856346D01*
X47001444Y-14856346D02*
X46656184Y-15017343D01*
X46656184Y-15017343D02*
X46589994Y-15100750D01*
X46589994Y-15100750D02*
X46566961Y-15164032D01*
X46566961Y-15164032D02*
X46564053Y-15270472D01*
X46564053Y-15270472D02*
X46624427Y-15399944D01*
X46624427Y-15399944D02*
X46707834Y-15466135D01*
X46707834Y-15466135D02*
X46771116Y-15489168D01*
X46771116Y-15489168D02*
X46877556Y-15492076D01*
X46877556Y-15492076D02*
X47222816Y-15331078D01*
X46043022Y-16406643D02*
X46560912Y-16165147D01*
X46301967Y-16285895D02*
X45879349Y-15379587D01*
X45879349Y-15379587D02*
X46026038Y-15468811D01*
X46026038Y-15468811D02*
X46152602Y-15514876D01*
X46152602Y-15514876D02*
X46259042Y-15517784D01*
X40687580Y-11124692D02*
X40753771Y-11041285D01*
X40753771Y-11041285D02*
X40883243Y-10980911D01*
X40883243Y-10980911D02*
X41032841Y-10963694D01*
X41032841Y-10963694D02*
X41159405Y-11009760D01*
X41159405Y-11009760D02*
X41242812Y-11075950D01*
X41242812Y-11075950D02*
X41366468Y-11228456D01*
X41366468Y-11228456D02*
X41426842Y-11357928D01*
X41426842Y-11357928D02*
X41464183Y-11550683D01*
X41464183Y-11550683D02*
X41461275Y-11657123D01*
X41461275Y-11657123D02*
X41415210Y-11783687D01*
X41415210Y-11783687D02*
X41305862Y-11887219D01*
X41305862Y-11887219D02*
X41219547Y-11927468D01*
X41219547Y-11927468D02*
X41069949Y-11944684D01*
X41069949Y-11944684D02*
X41006667Y-11921652D01*
X41006667Y-11921652D02*
X40865794Y-11619549D01*
X40865794Y-11619549D02*
X41038425Y-11539050D01*
X40658499Y-12189089D02*
X40235881Y-11282781D01*
X40235881Y-11282781D02*
X40140609Y-12430585D01*
X40140609Y-12430585D02*
X39717991Y-11524277D01*
X39709034Y-12631832D02*
X39286415Y-11725524D01*
X39286415Y-11725524D02*
X39070628Y-11826147D01*
X39070628Y-11826147D02*
X38961280Y-11929679D01*
X38961280Y-11929679D02*
X38915214Y-12056243D01*
X38915214Y-12056243D02*
X38912306Y-12162683D01*
X38912306Y-12162683D02*
X38949647Y-12355438D01*
X38949647Y-12355438D02*
X39010021Y-12484910D01*
X39010021Y-12484910D02*
X39133678Y-12637416D01*
X39133678Y-12637416D02*
X39217085Y-12703606D01*
X39217085Y-12703606D02*
X39343649Y-12749672D01*
X39343649Y-12749672D02*
X39493246Y-12732455D01*
X39493246Y-12732455D02*
X39709034Y-12631832D01*
X33105304Y-10594049D02*
X32673729Y-10795296D01*
X33312367Y-10812745D02*
X32587646Y-10047310D01*
X32587646Y-10047310D02*
X32708162Y-11094490D01*
X32066848Y-10395246D02*
X32003566Y-10372213D01*
X32003566Y-10372213D02*
X31897126Y-10369305D01*
X31897126Y-10369305D02*
X31681338Y-10469928D01*
X31681338Y-10469928D02*
X31615148Y-10553335D01*
X31615148Y-10553335D02*
X31592115Y-10616617D01*
X31592115Y-10616617D02*
X31589207Y-10723057D01*
X31589207Y-10723057D02*
X31629456Y-10809372D01*
X31629456Y-10809372D02*
X31732988Y-10918720D01*
X31732988Y-10918720D02*
X32492374Y-11195114D01*
X32492374Y-11195114D02*
X31931327Y-11456735D01*
X24699147Y-63614930D02*
X24138099Y-63876551D01*
X24138099Y-63876551D02*
X24601199Y-64080938D01*
X24601199Y-64080938D02*
X24471727Y-64141312D01*
X24471727Y-64141312D02*
X24405537Y-64224719D01*
X24405537Y-64224719D02*
X24382504Y-64288002D01*
X24382504Y-64288002D02*
X24379596Y-64394441D01*
X24379596Y-64394441D02*
X24480219Y-64610229D01*
X24480219Y-64610229D02*
X24563626Y-64676419D01*
X24563626Y-64676419D02*
X24626908Y-64699452D01*
X24626908Y-64699452D02*
X24733348Y-64702360D01*
X24733348Y-64702360D02*
X24992293Y-64581612D01*
X24992293Y-64581612D02*
X25058483Y-64498205D01*
X25058483Y-64498205D02*
X25081516Y-64434923D01*
X23879154Y-63997299D02*
X23999670Y-65044480D01*
X23999670Y-65044480D02*
X23274949Y-64279045D01*
X23059161Y-64379668D02*
X22498114Y-64641289D01*
X22498114Y-64641289D02*
X22961214Y-64845676D01*
X22961214Y-64845676D02*
X22831741Y-64906050D01*
X22831741Y-64906050D02*
X22765551Y-64989457D01*
X22765551Y-64989457D02*
X22742518Y-65052739D01*
X22742518Y-65052739D02*
X22739610Y-65159179D01*
X22739610Y-65159179D02*
X22840233Y-65374967D01*
X22840233Y-65374967D02*
X22923640Y-65441157D01*
X22923640Y-65441157D02*
X22986922Y-65464190D01*
X22986922Y-65464190D02*
X23093362Y-65467098D01*
X23093362Y-65467098D02*
X23352307Y-65346350D01*
X23352307Y-65346350D02*
X23418497Y-65262943D01*
X23418497Y-65262943D02*
X23441530Y-65199661D01*
X44149055Y-87336630D02*
X43458535Y-87658624D01*
X43964793Y-87842887D02*
X43642798Y-87152367D01*
X42664483Y-87871271D02*
X42555136Y-87974803D01*
X42555136Y-87974803D02*
X42532103Y-88038085D01*
X42532103Y-88038085D02*
X42529195Y-88144525D01*
X42529195Y-88144525D02*
X42589569Y-88273997D01*
X42589569Y-88273997D02*
X42672976Y-88340188D01*
X42672976Y-88340188D02*
X42736258Y-88363220D01*
X42736258Y-88363220D02*
X42842697Y-88366129D01*
X42842697Y-88366129D02*
X43187958Y-88205131D01*
X43187958Y-88205131D02*
X42765339Y-87298823D01*
X42765339Y-87298823D02*
X42463237Y-87439696D01*
X42463237Y-87439696D02*
X42397046Y-87523103D01*
X42397046Y-87523103D02*
X42374014Y-87586385D01*
X42374014Y-87586385D02*
X42371105Y-87692825D01*
X42371105Y-87692825D02*
X42411355Y-87779140D01*
X42411355Y-87779140D02*
X42494762Y-87845330D01*
X42494762Y-87845330D02*
X42558044Y-87868363D01*
X42558044Y-87868363D02*
X42664483Y-87871271D01*
X42664483Y-87871271D02*
X42966586Y-87730399D01*
X42204059Y-88348680D02*
X41772484Y-88549926D01*
X42411122Y-88567375D02*
X41686401Y-87801940D01*
X41686401Y-87801940D02*
X41806917Y-88849121D01*
X41211669Y-88023312D02*
X40693778Y-88264808D01*
X41375342Y-89050368D02*
X40952724Y-88144060D01*
X42085972Y-34140488D02*
X41663354Y-33234180D01*
X41663354Y-33234180D02*
X41447566Y-33334803D01*
X41447566Y-33334803D02*
X41338219Y-33438335D01*
X41338219Y-33438335D02*
X41292153Y-33564899D01*
X41292153Y-33564899D02*
X41289245Y-33671339D01*
X41289245Y-33671339D02*
X41326586Y-33864094D01*
X41326586Y-33864094D02*
X41386960Y-33993566D01*
X41386960Y-33993566D02*
X41510616Y-34146072D01*
X41510616Y-34146072D02*
X41594023Y-34212262D01*
X41594023Y-34212262D02*
X41720587Y-34258328D01*
X41720587Y-34258328D02*
X41870185Y-34241111D01*
X41870185Y-34241111D02*
X42085972Y-34140488D01*
X41435701Y-34548798D02*
X40745181Y-34870793D01*
X39965670Y-34551241D02*
X39856322Y-34654773D01*
X39856322Y-34654773D02*
X39833289Y-34718055D01*
X39833289Y-34718055D02*
X39830381Y-34824495D01*
X39830381Y-34824495D02*
X39890755Y-34953967D01*
X39890755Y-34953967D02*
X39974162Y-35020157D01*
X39974162Y-35020157D02*
X40037444Y-35043190D01*
X40037444Y-35043190D02*
X40143884Y-35046098D01*
X40143884Y-35046098D02*
X40489144Y-34885101D01*
X40489144Y-34885101D02*
X40066526Y-33978793D01*
X40066526Y-33978793D02*
X39764423Y-34119666D01*
X39764423Y-34119666D02*
X39698233Y-34203073D01*
X39698233Y-34203073D02*
X39675200Y-34266355D01*
X39675200Y-34266355D02*
X39672292Y-34372795D01*
X39672292Y-34372795D02*
X39712541Y-34459110D01*
X39712541Y-34459110D02*
X39795948Y-34525300D01*
X39795948Y-34525300D02*
X39859230Y-34548333D01*
X39859230Y-34548333D02*
X39965670Y-34551241D01*
X39965670Y-34551241D02*
X40267773Y-34410368D01*
X39505246Y-35028650D02*
X39073671Y-35229896D01*
X39712309Y-35247345D02*
X38987588Y-34481910D01*
X38987588Y-34481910D02*
X39108104Y-35529091D01*
X38512855Y-34703282D02*
X37994965Y-34944778D01*
X38676528Y-35730338D02*
X38253910Y-34824030D01*
X50899066Y-40623303D02*
X50476448Y-39716995D01*
X50476448Y-39716995D02*
X50260660Y-39817619D01*
X50260660Y-39817619D02*
X50151312Y-39921150D01*
X50151312Y-39921150D02*
X50105246Y-40047715D01*
X50105246Y-40047715D02*
X50102338Y-40154155D01*
X50102338Y-40154155D02*
X50139679Y-40346909D01*
X50139679Y-40346909D02*
X50200054Y-40476382D01*
X50200054Y-40476382D02*
X50323710Y-40628887D01*
X50323710Y-40628887D02*
X50407117Y-40695078D01*
X50407117Y-40695078D02*
X50533681Y-40741143D01*
X50533681Y-40741143D02*
X50683278Y-40723927D01*
X50683278Y-40723927D02*
X50899066Y-40623303D01*
X49992758Y-41045922D02*
X49570140Y-40139614D01*
X49561183Y-41247168D02*
X49138565Y-40340860D01*
X49138565Y-40340860D02*
X49043293Y-41488664D01*
X49043293Y-41488664D02*
X48620675Y-40582356D01*
X48634751Y-41626629D02*
X48525403Y-41730160D01*
X48525403Y-41730160D02*
X48309615Y-41830784D01*
X48309615Y-41830784D02*
X48203176Y-41827876D01*
X48203176Y-41827876D02*
X48139894Y-41804843D01*
X48139894Y-41804843D02*
X48056487Y-41738652D01*
X48056487Y-41738652D02*
X48016237Y-41652337D01*
X48016237Y-41652337D02*
X48019145Y-41545898D01*
X48019145Y-41545898D02*
X48042178Y-41482616D01*
X48042178Y-41482616D02*
X48108369Y-41399209D01*
X48108369Y-41399209D02*
X48260874Y-41275552D01*
X48260874Y-41275552D02*
X48327064Y-41192146D01*
X48327064Y-41192146D02*
X48350097Y-41128863D01*
X48350097Y-41128863D02*
X48353005Y-41022424D01*
X48353005Y-41022424D02*
X48312756Y-40936109D01*
X48312756Y-40936109D02*
X48229349Y-40869918D01*
X48229349Y-40869918D02*
X48166067Y-40846885D01*
X48166067Y-40846885D02*
X48059627Y-40843977D01*
X48059627Y-40843977D02*
X47843840Y-40944601D01*
X47843840Y-40944601D02*
X47734492Y-41048132D01*
X49316563Y-69900024D02*
X48893945Y-68993716D01*
X48893945Y-68993716D02*
X48798673Y-70141520D01*
X48798673Y-70141520D02*
X48376055Y-69235213D01*
X47849208Y-70584263D02*
X47950064Y-70011815D01*
X48367098Y-70342767D02*
X47944480Y-69436459D01*
X47944480Y-69436459D02*
X47599220Y-69597457D01*
X47599220Y-69597457D02*
X47533029Y-69680864D01*
X47533029Y-69680864D02*
X47509996Y-69744146D01*
X47509996Y-69744146D02*
X47507088Y-69850586D01*
X47507088Y-69850586D02*
X47567462Y-69980058D01*
X47567462Y-69980058D02*
X47650869Y-70046249D01*
X47650869Y-70046249D02*
X47714151Y-70069281D01*
X47714151Y-70069281D02*
X47820591Y-70072189D01*
X47820591Y-70072189D02*
X48165851Y-69911192D01*
X47483823Y-70702103D02*
X47374475Y-70805635D01*
X47374475Y-70805635D02*
X47158688Y-70906258D01*
X47158688Y-70906258D02*
X47052248Y-70903350D01*
X47052248Y-70903350D02*
X46988966Y-70880317D01*
X46988966Y-70880317D02*
X46905559Y-70814127D01*
X46905559Y-70814127D02*
X46865309Y-70727812D01*
X46865309Y-70727812D02*
X46868218Y-70621372D01*
X46868218Y-70621372D02*
X46891250Y-70558090D01*
X46891250Y-70558090D02*
X46957441Y-70474683D01*
X46957441Y-70474683D02*
X47109946Y-70351027D01*
X47109946Y-70351027D02*
X47176137Y-70267620D01*
X47176137Y-70267620D02*
X47199169Y-70204338D01*
X47199169Y-70204338D02*
X47202077Y-70097898D01*
X47202077Y-70097898D02*
X47161828Y-70011583D01*
X47161828Y-70011583D02*
X47078421Y-69945393D01*
X47078421Y-69945393D02*
X47015139Y-69922360D01*
X47015139Y-69922360D02*
X46908699Y-69919452D01*
X46908699Y-69919452D02*
X46692912Y-70020075D01*
X46692912Y-70020075D02*
X46583564Y-70123607D01*
X46304494Y-70201197D02*
X45786604Y-70442693D01*
X46468167Y-71228253D02*
X46045549Y-70321945D01*
X23214578Y-14819988D02*
X22783003Y-15021235D01*
X23421641Y-15038684D02*
X22696920Y-14273249D01*
X22696920Y-14273249D02*
X22817436Y-15320429D01*
X22040601Y-15682674D02*
X22558491Y-15441178D01*
X22299546Y-15561926D02*
X21876927Y-14655618D01*
X21876927Y-14655618D02*
X22023616Y-14744841D01*
X22023616Y-14744841D02*
X22150181Y-14790907D01*
X22150181Y-14790907D02*
X22256621Y-14793815D01*
X46416949Y-72245177D02*
X45994331Y-71338869D01*
X45994331Y-71338869D02*
X45778543Y-71439493D01*
X45778543Y-71439493D02*
X45669195Y-71543024D01*
X45669195Y-71543024D02*
X45623130Y-71669589D01*
X45623130Y-71669589D02*
X45620222Y-71776029D01*
X45620222Y-71776029D02*
X45657563Y-71968783D01*
X45657563Y-71968783D02*
X45717937Y-72098256D01*
X45717937Y-72098256D02*
X45841593Y-72250761D01*
X45841593Y-72250761D02*
X45925000Y-72316952D01*
X45925000Y-72316952D02*
X46051564Y-72363017D01*
X46051564Y-72363017D02*
X46201162Y-72345801D01*
X46201162Y-72345801D02*
X46416949Y-72245177D01*
X45510641Y-72667796D02*
X45088023Y-71761488D01*
X44483818Y-72043233D02*
X44311188Y-72123732D01*
X44311188Y-72123732D02*
X44244998Y-72207139D01*
X44244998Y-72207139D02*
X44198932Y-72333703D01*
X44198932Y-72333703D02*
X44236274Y-72526458D01*
X44236274Y-72526458D02*
X44377146Y-72828560D01*
X44377146Y-72828560D02*
X44500802Y-72981066D01*
X44500802Y-72981066D02*
X44627367Y-73027131D01*
X44627367Y-73027131D02*
X44733807Y-73030040D01*
X44733807Y-73030040D02*
X44906437Y-72949541D01*
X44906437Y-72949541D02*
X44972627Y-72866134D01*
X44972627Y-72866134D02*
X45018693Y-72739570D01*
X45018693Y-72739570D02*
X44981351Y-72546815D01*
X44981351Y-72546815D02*
X44840479Y-72244712D01*
X44840479Y-72244712D02*
X44716822Y-72092207D01*
X44716822Y-72092207D02*
X44590258Y-72046141D01*
X44590258Y-72046141D02*
X44483818Y-72043233D01*
X46416949Y-30245177D02*
X45994331Y-29338869D01*
X45994331Y-29338869D02*
X45778543Y-29439493D01*
X45778543Y-29439493D02*
X45669195Y-29543024D01*
X45669195Y-29543024D02*
X45623130Y-29669589D01*
X45623130Y-29669589D02*
X45620222Y-29776029D01*
X45620222Y-29776029D02*
X45657563Y-29968783D01*
X45657563Y-29968783D02*
X45717937Y-30098256D01*
X45717937Y-30098256D02*
X45841593Y-30250761D01*
X45841593Y-30250761D02*
X45925000Y-30316952D01*
X45925000Y-30316952D02*
X46051564Y-30363017D01*
X46051564Y-30363017D02*
X46201162Y-30345801D01*
X46201162Y-30345801D02*
X46416949Y-30245177D01*
X45510641Y-30667796D02*
X45088023Y-29761488D01*
X44483818Y-30043233D02*
X44311188Y-30123732D01*
X44311188Y-30123732D02*
X44244998Y-30207139D01*
X44244998Y-30207139D02*
X44198932Y-30333703D01*
X44198932Y-30333703D02*
X44236274Y-30526458D01*
X44236274Y-30526458D02*
X44377146Y-30828560D01*
X44377146Y-30828560D02*
X44500802Y-30981066D01*
X44500802Y-30981066D02*
X44627367Y-31027131D01*
X44627367Y-31027131D02*
X44733807Y-31030040D01*
X44733807Y-31030040D02*
X44906437Y-30949541D01*
X44906437Y-30949541D02*
X44972627Y-30866134D01*
X44972627Y-30866134D02*
X45018693Y-30739570D01*
X45018693Y-30739570D02*
X44981351Y-30546815D01*
X44981351Y-30546815D02*
X44840479Y-30244712D01*
X44840479Y-30244712D02*
X44716822Y-30092207D01*
X44716822Y-30092207D02*
X44590258Y-30046141D01*
X44590258Y-30046141D02*
X44483818Y-30043233D01*
X44149055Y-45336630D02*
X43458535Y-45658624D01*
X43964793Y-45842887D02*
X43642798Y-45152367D01*
X42664483Y-45871271D02*
X42555136Y-45974803D01*
X42555136Y-45974803D02*
X42532103Y-46038085D01*
X42532103Y-46038085D02*
X42529195Y-46144525D01*
X42529195Y-46144525D02*
X42589569Y-46273997D01*
X42589569Y-46273997D02*
X42672976Y-46340188D01*
X42672976Y-46340188D02*
X42736258Y-46363220D01*
X42736258Y-46363220D02*
X42842697Y-46366129D01*
X42842697Y-46366129D02*
X43187958Y-46205131D01*
X43187958Y-46205131D02*
X42765339Y-45298823D01*
X42765339Y-45298823D02*
X42463237Y-45439696D01*
X42463237Y-45439696D02*
X42397046Y-45523103D01*
X42397046Y-45523103D02*
X42374014Y-45586385D01*
X42374014Y-45586385D02*
X42371105Y-45692825D01*
X42371105Y-45692825D02*
X42411355Y-45779140D01*
X42411355Y-45779140D02*
X42494762Y-45845330D01*
X42494762Y-45845330D02*
X42558044Y-45868363D01*
X42558044Y-45868363D02*
X42664483Y-45871271D01*
X42664483Y-45871271D02*
X42966586Y-45730399D01*
X42204059Y-46348680D02*
X41772484Y-46549926D01*
X42411122Y-46567375D02*
X41686401Y-45801940D01*
X41686401Y-45801940D02*
X41806917Y-46849121D01*
X41211669Y-46023312D02*
X40693778Y-46264808D01*
X41375342Y-47050368D02*
X40952724Y-46144060D01*
X44942487Y-32593051D02*
X45005769Y-32616084D01*
X45005769Y-32616084D02*
X45155366Y-32598867D01*
X45155366Y-32598867D02*
X45241681Y-32558618D01*
X45241681Y-32558618D02*
X45351029Y-32455086D01*
X45351029Y-32455086D02*
X45397095Y-32328522D01*
X45397095Y-32328522D02*
X45400003Y-32222082D01*
X45400003Y-32222082D02*
X45362662Y-32029328D01*
X45362662Y-32029328D02*
X45302288Y-31899855D01*
X45302288Y-31899855D02*
X45178632Y-31747350D01*
X45178632Y-31747350D02*
X45095225Y-31681159D01*
X45095225Y-31681159D02*
X44968660Y-31635094D01*
X44968660Y-31635094D02*
X44819063Y-31652310D01*
X44819063Y-31652310D02*
X44732748Y-31692560D01*
X44732748Y-31692560D02*
X44623400Y-31796091D01*
X44623400Y-31796091D02*
X44600367Y-31859373D01*
X44162744Y-33061735D02*
X44594319Y-32860488D01*
X44594319Y-32860488D02*
X44171700Y-31954180D01*
X43860641Y-33202608D02*
X43438023Y-32296300D01*
X43342751Y-33444104D02*
X43489672Y-32745092D01*
X42920132Y-32537796D02*
X43679519Y-32814190D01*
X23214578Y-56819988D02*
X22783003Y-57021235D01*
X23421641Y-57038684D02*
X22696920Y-56273249D01*
X22696920Y-56273249D02*
X22817436Y-57320429D01*
X22040601Y-57682674D02*
X22558491Y-57441178D01*
X22299546Y-57561926D02*
X21876927Y-56655618D01*
X21876927Y-56655618D02*
X22023616Y-56744841D01*
X22023616Y-56744841D02*
X22150181Y-56790907D01*
X22150181Y-56790907D02*
X22256621Y-56793815D01*
X42085972Y-76140488D02*
X41663354Y-75234180D01*
X41663354Y-75234180D02*
X41447566Y-75334803D01*
X41447566Y-75334803D02*
X41338219Y-75438335D01*
X41338219Y-75438335D02*
X41292153Y-75564899D01*
X41292153Y-75564899D02*
X41289245Y-75671339D01*
X41289245Y-75671339D02*
X41326586Y-75864094D01*
X41326586Y-75864094D02*
X41386960Y-75993566D01*
X41386960Y-75993566D02*
X41510616Y-76146072D01*
X41510616Y-76146072D02*
X41594023Y-76212262D01*
X41594023Y-76212262D02*
X41720587Y-76258328D01*
X41720587Y-76258328D02*
X41870185Y-76241111D01*
X41870185Y-76241111D02*
X42085972Y-76140488D01*
X41435701Y-76548798D02*
X40745181Y-76870793D01*
X39965670Y-76551241D02*
X39856322Y-76654773D01*
X39856322Y-76654773D02*
X39833289Y-76718055D01*
X39833289Y-76718055D02*
X39830381Y-76824495D01*
X39830381Y-76824495D02*
X39890755Y-76953967D01*
X39890755Y-76953967D02*
X39974162Y-77020157D01*
X39974162Y-77020157D02*
X40037444Y-77043190D01*
X40037444Y-77043190D02*
X40143884Y-77046098D01*
X40143884Y-77046098D02*
X40489144Y-76885101D01*
X40489144Y-76885101D02*
X40066526Y-75978793D01*
X40066526Y-75978793D02*
X39764423Y-76119666D01*
X39764423Y-76119666D02*
X39698233Y-76203073D01*
X39698233Y-76203073D02*
X39675200Y-76266355D01*
X39675200Y-76266355D02*
X39672292Y-76372795D01*
X39672292Y-76372795D02*
X39712541Y-76459110D01*
X39712541Y-76459110D02*
X39795948Y-76525300D01*
X39795948Y-76525300D02*
X39859230Y-76548333D01*
X39859230Y-76548333D02*
X39965670Y-76551241D01*
X39965670Y-76551241D02*
X40267773Y-76410368D01*
X39505246Y-77028650D02*
X39073671Y-77229896D01*
X39712309Y-77247345D02*
X38987588Y-76481910D01*
X38987588Y-76481910D02*
X39108104Y-77529091D01*
X38512855Y-76703282D02*
X37994965Y-76944778D01*
X38676528Y-77730338D02*
X38253910Y-76824030D01*
X50899066Y-82623303D02*
X50476448Y-81716995D01*
X50476448Y-81716995D02*
X50260660Y-81817619D01*
X50260660Y-81817619D02*
X50151312Y-81921150D01*
X50151312Y-81921150D02*
X50105246Y-82047715D01*
X50105246Y-82047715D02*
X50102338Y-82154155D01*
X50102338Y-82154155D02*
X50139679Y-82346909D01*
X50139679Y-82346909D02*
X50200054Y-82476382D01*
X50200054Y-82476382D02*
X50323710Y-82628887D01*
X50323710Y-82628887D02*
X50407117Y-82695078D01*
X50407117Y-82695078D02*
X50533681Y-82741143D01*
X50533681Y-82741143D02*
X50683278Y-82723927D01*
X50683278Y-82723927D02*
X50899066Y-82623303D01*
X49992758Y-83045922D02*
X49570140Y-82139614D01*
X49561183Y-83247168D02*
X49138565Y-82340860D01*
X49138565Y-82340860D02*
X49043293Y-83488664D01*
X49043293Y-83488664D02*
X48620675Y-82582356D01*
X48634751Y-83626629D02*
X48525403Y-83730160D01*
X48525403Y-83730160D02*
X48309615Y-83830784D01*
X48309615Y-83830784D02*
X48203176Y-83827876D01*
X48203176Y-83827876D02*
X48139894Y-83804843D01*
X48139894Y-83804843D02*
X48056487Y-83738652D01*
X48056487Y-83738652D02*
X48016237Y-83652337D01*
X48016237Y-83652337D02*
X48019145Y-83545898D01*
X48019145Y-83545898D02*
X48042178Y-83482616D01*
X48042178Y-83482616D02*
X48108369Y-83399209D01*
X48108369Y-83399209D02*
X48260874Y-83275552D01*
X48260874Y-83275552D02*
X48327064Y-83192146D01*
X48327064Y-83192146D02*
X48350097Y-83128863D01*
X48350097Y-83128863D02*
X48353005Y-83022424D01*
X48353005Y-83022424D02*
X48312756Y-82936109D01*
X48312756Y-82936109D02*
X48229349Y-82869918D01*
X48229349Y-82869918D02*
X48166067Y-82846885D01*
X48166067Y-82846885D02*
X48059627Y-82843977D01*
X48059627Y-82843977D02*
X47843840Y-82944601D01*
X47843840Y-82944601D02*
X47734492Y-83048132D01*
X47433020Y-56655099D02*
X47734890Y-57302462D01*
X47734890Y-57302462D02*
X47838421Y-57411809D01*
X47838421Y-57411809D02*
X47964986Y-57457875D01*
X47964986Y-57457875D02*
X48114583Y-57440659D01*
X48114583Y-57440659D02*
X48200898Y-57400409D01*
X47424063Y-57762653D02*
X47001444Y-56856346D01*
X47001444Y-56856346D02*
X46656184Y-57017343D01*
X46656184Y-57017343D02*
X46589994Y-57100750D01*
X46589994Y-57100750D02*
X46566961Y-57164032D01*
X46566961Y-57164032D02*
X46564053Y-57270472D01*
X46564053Y-57270472D02*
X46624427Y-57399944D01*
X46624427Y-57399944D02*
X46707834Y-57466135D01*
X46707834Y-57466135D02*
X46771116Y-57489168D01*
X46771116Y-57489168D02*
X46877556Y-57492076D01*
X46877556Y-57492076D02*
X47222816Y-57331078D01*
X46043022Y-58406643D02*
X46560912Y-58165147D01*
X46301967Y-58285895D02*
X45879349Y-57379587D01*
X45879349Y-57379587D02*
X46026038Y-57468811D01*
X46026038Y-57468811D02*
X46152602Y-57514876D01*
X46152602Y-57514876D02*
X46259042Y-57517784D01*
X49316563Y-27900024D02*
X48893945Y-26993716D01*
X48893945Y-26993716D02*
X48798673Y-28141520D01*
X48798673Y-28141520D02*
X48376055Y-27235213D01*
X47849208Y-28584263D02*
X47950064Y-28011815D01*
X48367098Y-28342767D02*
X47944480Y-27436459D01*
X47944480Y-27436459D02*
X47599220Y-27597457D01*
X47599220Y-27597457D02*
X47533029Y-27680864D01*
X47533029Y-27680864D02*
X47509996Y-27744146D01*
X47509996Y-27744146D02*
X47507088Y-27850586D01*
X47507088Y-27850586D02*
X47567462Y-27980058D01*
X47567462Y-27980058D02*
X47650869Y-28046249D01*
X47650869Y-28046249D02*
X47714151Y-28069281D01*
X47714151Y-28069281D02*
X47820591Y-28072189D01*
X47820591Y-28072189D02*
X48165851Y-27911192D01*
X47483823Y-28702103D02*
X47374475Y-28805635D01*
X47374475Y-28805635D02*
X47158688Y-28906258D01*
X47158688Y-28906258D02*
X47052248Y-28903350D01*
X47052248Y-28903350D02*
X46988966Y-28880317D01*
X46988966Y-28880317D02*
X46905559Y-28814127D01*
X46905559Y-28814127D02*
X46865309Y-28727812D01*
X46865309Y-28727812D02*
X46868218Y-28621372D01*
X46868218Y-28621372D02*
X46891250Y-28558090D01*
X46891250Y-28558090D02*
X46957441Y-28474683D01*
X46957441Y-28474683D02*
X47109946Y-28351027D01*
X47109946Y-28351027D02*
X47176137Y-28267620D01*
X47176137Y-28267620D02*
X47199169Y-28204338D01*
X47199169Y-28204338D02*
X47202077Y-28097898D01*
X47202077Y-28097898D02*
X47161828Y-28011583D01*
X47161828Y-28011583D02*
X47078421Y-27945393D01*
X47078421Y-27945393D02*
X47015139Y-27922360D01*
X47015139Y-27922360D02*
X46908699Y-27919452D01*
X46908699Y-27919452D02*
X46692912Y-28020075D01*
X46692912Y-28020075D02*
X46583564Y-28123607D01*
X46304494Y-28201197D02*
X45786604Y-28442693D01*
X46468167Y-29228253D02*
X46045549Y-28321945D01*
X25489255Y-23067070D02*
X25920830Y-22865823D01*
X25920830Y-22865823D02*
X26165235Y-23277274D01*
X26165235Y-23277274D02*
X26101952Y-23254241D01*
X26101952Y-23254241D02*
X25995513Y-23251333D01*
X25995513Y-23251333D02*
X25779725Y-23351956D01*
X25779725Y-23351956D02*
X25713535Y-23435363D01*
X25713535Y-23435363D02*
X25690502Y-23498645D01*
X25690502Y-23498645D02*
X25687594Y-23605085D01*
X25687594Y-23605085D02*
X25788217Y-23820872D01*
X25788217Y-23820872D02*
X25871624Y-23887063D01*
X25871624Y-23887063D02*
X25934906Y-23910096D01*
X25934906Y-23910096D02*
X26041346Y-23913004D01*
X26041346Y-23913004D02*
X26257134Y-23812380D01*
X26257134Y-23812380D02*
X26323324Y-23728973D01*
X26323324Y-23728973D02*
X26346357Y-23665691D01*
X25187153Y-23207943D02*
X25307668Y-24255123D01*
X25307668Y-24255123D02*
X24582947Y-23489688D01*
X44942487Y-74593051D02*
X45005769Y-74616084D01*
X45005769Y-74616084D02*
X45155366Y-74598867D01*
X45155366Y-74598867D02*
X45241681Y-74558618D01*
X45241681Y-74558618D02*
X45351029Y-74455086D01*
X45351029Y-74455086D02*
X45397095Y-74328522D01*
X45397095Y-74328522D02*
X45400003Y-74222082D01*
X45400003Y-74222082D02*
X45362662Y-74029328D01*
X45362662Y-74029328D02*
X45302288Y-73899855D01*
X45302288Y-73899855D02*
X45178632Y-73747350D01*
X45178632Y-73747350D02*
X45095225Y-73681159D01*
X45095225Y-73681159D02*
X44968660Y-73635094D01*
X44968660Y-73635094D02*
X44819063Y-73652310D01*
X44819063Y-73652310D02*
X44732748Y-73692560D01*
X44732748Y-73692560D02*
X44623400Y-73796091D01*
X44623400Y-73796091D02*
X44600367Y-73859373D01*
X44162744Y-75061735D02*
X44594319Y-74860488D01*
X44594319Y-74860488D02*
X44171700Y-73954180D01*
X43860641Y-75202608D02*
X43438023Y-74296300D01*
X43342751Y-75444104D02*
X43489672Y-74745092D01*
X42920132Y-74537796D02*
X43679519Y-74814190D01*
X33105304Y-52594049D02*
X32673729Y-52795296D01*
X33312367Y-52812745D02*
X32587646Y-52047310D01*
X32587646Y-52047310D02*
X32708162Y-53094490D01*
X32066848Y-52395246D02*
X32003566Y-52372213D01*
X32003566Y-52372213D02*
X31897126Y-52369305D01*
X31897126Y-52369305D02*
X31681338Y-52469928D01*
X31681338Y-52469928D02*
X31615148Y-52553335D01*
X31615148Y-52553335D02*
X31592115Y-52616617D01*
X31592115Y-52616617D02*
X31589207Y-52723057D01*
X31589207Y-52723057D02*
X31629456Y-52809372D01*
X31629456Y-52809372D02*
X31732988Y-52918720D01*
X31732988Y-52918720D02*
X32492374Y-53195114D01*
X32492374Y-53195114D02*
X31931327Y-53456735D01*
X40687580Y-53124692D02*
X40753771Y-53041285D01*
X40753771Y-53041285D02*
X40883243Y-52980911D01*
X40883243Y-52980911D02*
X41032841Y-52963694D01*
X41032841Y-52963694D02*
X41159405Y-53009760D01*
X41159405Y-53009760D02*
X41242812Y-53075950D01*
X41242812Y-53075950D02*
X41366468Y-53228456D01*
X41366468Y-53228456D02*
X41426842Y-53357928D01*
X41426842Y-53357928D02*
X41464183Y-53550683D01*
X41464183Y-53550683D02*
X41461275Y-53657123D01*
X41461275Y-53657123D02*
X41415210Y-53783687D01*
X41415210Y-53783687D02*
X41305862Y-53887219D01*
X41305862Y-53887219D02*
X41219547Y-53927468D01*
X41219547Y-53927468D02*
X41069949Y-53944684D01*
X41069949Y-53944684D02*
X41006667Y-53921652D01*
X41006667Y-53921652D02*
X40865794Y-53619549D01*
X40865794Y-53619549D02*
X41038425Y-53539050D01*
X40658499Y-54189089D02*
X40235881Y-53282781D01*
X40235881Y-53282781D02*
X40140609Y-54430585D01*
X40140609Y-54430585D02*
X39717991Y-53524277D01*
X39709034Y-54631832D02*
X39286415Y-53725524D01*
X39286415Y-53725524D02*
X39070628Y-53826147D01*
X39070628Y-53826147D02*
X38961280Y-53929679D01*
X38961280Y-53929679D02*
X38915214Y-54056243D01*
X38915214Y-54056243D02*
X38912306Y-54162683D01*
X38912306Y-54162683D02*
X38949647Y-54355438D01*
X38949647Y-54355438D02*
X39010021Y-54484910D01*
X39010021Y-54484910D02*
X39133678Y-54637416D01*
X39133678Y-54637416D02*
X39217085Y-54703606D01*
X39217085Y-54703606D02*
X39343649Y-54749672D01*
X39343649Y-54749672D02*
X39493246Y-54732455D01*
X39493246Y-54732455D02*
X39709034Y-54631832D01*
D13*
%TO.C,L3*%
X29464337Y-59939803D02*
X29802112Y-60664164D01*
X28449272Y-60413136D02*
X28787047Y-61137497D01*
%TO.C,TC27*%
X44814439Y-37894302D02*
X44550235Y-37798140D01*
X45163299Y-36935816D02*
X44899095Y-36839654D01*
%TO.C,C41*%
X34012505Y-64795865D02*
X34086269Y-64593200D01*
X34689083Y-65042120D02*
X34762847Y-64839455D01*
%TO.C,3V3*%
X22841994Y-23966819D02*
G75*
G03*
X20941996Y-23966819I-949999J0D01*
G01*
X20941996Y-23966819D02*
G75*
G03*
X22841994Y-23966819I949999J0D01*
G01*
%TO.C,5V*%
X25227953Y-67060984D02*
G75*
G03*
X23327955Y-67060984I-949999J0D01*
G01*
X23327955Y-67060984D02*
G75*
G03*
X25227953Y-67060984I949999J0D01*
G01*
D14*
%TO.C,U3*%
X36833291Y-64847481D02*
X37115199Y-64950087D01*
X36833291Y-64847481D02*
X36935897Y-64565573D01*
X41531754Y-66557582D02*
X41249846Y-66454976D01*
X41531754Y-66557582D02*
X41634360Y-66275674D01*
X38543392Y-60149018D02*
X38440786Y-60430926D01*
X38543392Y-60149018D02*
X38825300Y-60251624D01*
X43241855Y-61859119D02*
X43139249Y-62141027D01*
X43241855Y-61859119D02*
X42959947Y-61756513D01*
D15*
X41392254Y-67507984D02*
G75*
G03*
X41192254Y-67507984I-100000J0D01*
G01*
X41192254Y-67507984D02*
G75*
G03*
X41392254Y-67507984I100000J0D01*
G01*
D13*
%TO.C,TR17*%
X42546698Y-38984770D02*
X42651795Y-38696019D01*
X43260865Y-39244705D02*
X43365962Y-38955954D01*
%TO.C,TC8*%
X30605570Y-35384898D02*
X30402905Y-35311134D01*
X30851825Y-34708320D02*
X30649160Y-34634556D01*
%TO.C,TC51*%
X27247138Y-16071769D02*
X27155991Y-15876304D01*
X27899679Y-15767484D02*
X27808532Y-15572019D01*
%TO.C,TLi-po1*%
X37059022Y-42172169D02*
X36213298Y-41864350D01*
X36213298Y-41864350D02*
X35922581Y-42663089D01*
X35922581Y-42663089D02*
X35640674Y-42560483D01*
X35640674Y-42560483D02*
X35555168Y-42795406D01*
X35555168Y-42795406D02*
X35423612Y-42747523D01*
X38275130Y-43859884D02*
X37700536Y-45438567D01*
X34532609Y-42699911D02*
X34779335Y-43055757D01*
X34779335Y-43055757D02*
X34361599Y-43169758D01*
X34361599Y-43169758D02*
X34532609Y-42699911D01*
X35129095Y-44843176D02*
X34847187Y-44740570D01*
X34847187Y-44740570D02*
X34932692Y-44505647D01*
X35684101Y-45949733D02*
X34838377Y-45641915D01*
X34838377Y-45641915D02*
X35129095Y-44843176D01*
%TO.C,Q1*%
X45231422Y-85851649D02*
X45864160Y-84113218D01*
X44395096Y-85547251D02*
X45231422Y-85851649D01*
X42294451Y-84798642D02*
X42927188Y-83060211D01*
X42294451Y-84798642D02*
X43130777Y-85103040D01*
X43051179Y-82690310D02*
X42658996Y-82802970D01*
X42823165Y-82351917D01*
X43051179Y-82690310D01*
G36*
X43051179Y-82690310D02*
G01*
X42658996Y-82802970D01*
X42823165Y-82351917D01*
X43051179Y-82690310D01*
G37*
%TO.C,TC9*%
X31585163Y-32279999D02*
X31382498Y-32206235D01*
X31831418Y-31603421D02*
X31628753Y-31529657D01*
%TO.C,TR14*%
X50694884Y-26615268D02*
X50886807Y-27026847D01*
X49362611Y-27236517D02*
X49554534Y-27648096D01*
%TO.C,C50*%
X29966061Y-56803915D02*
X29874914Y-56608450D01*
X30618602Y-56499630D02*
X30527455Y-56304165D01*
%TO.C,TL3*%
X29464337Y-17939803D02*
X29802112Y-18664164D01*
X28449272Y-18413136D02*
X28787047Y-19137497D01*
%TO.C,C4*%
X32389806Y-67869763D02*
X32293644Y-68133967D01*
X31431320Y-67520903D02*
X31335158Y-67785107D01*
%TO.C,TC55*%
X28072371Y-20709713D02*
X27876906Y-20800860D01*
X27768086Y-20057172D02*
X27572621Y-20148319D01*
%TO.C,JP1*%
X49360329Y-17447379D02*
X48515093Y-15634764D01*
X48515093Y-15634764D02*
X45977431Y-16818095D01*
X46822667Y-18630710D02*
X49360329Y-17447379D01*
X45977431Y-16818095D02*
X46822667Y-18630710D01*
%TO.C,C53*%
X27089615Y-61159833D02*
X27285080Y-61068686D01*
X27393900Y-61812374D02*
X27589365Y-61721227D01*
%TO.C,C46*%
X43528540Y-60943580D02*
X43325875Y-60869816D01*
X43774795Y-60267002D02*
X43572130Y-60193238D01*
%TO.C,GND*%
X41853814Y-13391226D02*
G75*
G03*
X39953816Y-13391226I-949999J0D01*
G01*
X39953816Y-13391226D02*
G75*
G03*
X41853814Y-13391226I949999J0D01*
G01*
%TO.C,R9*%
X41980882Y-78310762D02*
X41692131Y-78205665D01*
X42240817Y-77596595D02*
X41952066Y-77491498D01*
%TO.C,C60*%
X30963000Y-56339034D02*
X30871853Y-56143569D01*
X31615541Y-56034749D02*
X31524394Y-55839284D01*
%TO.C,J2*%
X23248939Y-81553722D02*
X21771657Y-82242589D01*
X19360851Y-73215690D02*
X17883569Y-73904558D01*
%TO.C,TD14*%
X44473987Y-20183820D02*
X46544900Y-19218137D01*
X45095235Y-21516092D02*
X44473987Y-20183820D01*
X47166149Y-20550410D02*
X45095235Y-21516092D01*
%TO.C,R18*%
X45464023Y-64750997D02*
X45358926Y-65039748D01*
X44749856Y-64491062D02*
X44644759Y-64779813D01*
%TO.C,C27*%
X44814439Y-79894302D02*
X44550235Y-79798140D01*
X45163299Y-78935816D02*
X44899095Y-78839654D01*
D16*
%TO.C,TL1*%
X32456347Y-40037079D02*
X35463363Y-41131543D01*
X35463363Y-41131543D02*
X36489423Y-38312465D01*
X36489423Y-38312465D02*
X33482407Y-37218001D01*
X33482407Y-37218001D02*
X32456347Y-40037079D01*
D13*
%TO.C,TME4055A1*%
X28010408Y-38767802D02*
X28348502Y-39492849D01*
X28010408Y-38767802D02*
X27672313Y-38042756D01*
X30838088Y-37449234D02*
X31176183Y-38174280D01*
X30838088Y-37449234D02*
X30499994Y-36724187D01*
X31742686Y-38726614D02*
X31342176Y-38648565D01*
X31539830Y-38291587D01*
X31742686Y-38726614D01*
G36*
X31742686Y-38726614D02*
G01*
X31342176Y-38648565D01*
X31539830Y-38291587D01*
X31742686Y-38726614D01*
G37*
%TO.C,A2*%
X31523858Y-11587896D02*
G75*
G03*
X29623860Y-11587896I-949999J0D01*
G01*
X29623860Y-11587896D02*
G75*
G03*
X31523858Y-11587896I949999J0D01*
G01*
%TO.C,TC50*%
X29966061Y-14803915D02*
X29874914Y-14608450D01*
X30618602Y-14499630D02*
X30527455Y-14304165D01*
%TO.C,TR3*%
X39480111Y-32036153D02*
X39609974Y-32314645D01*
X38791318Y-32357343D02*
X38921181Y-32635835D01*
%TO.C,R6*%
X40720892Y-85587642D02*
X40825989Y-85298891D01*
X41435059Y-85847577D02*
X41540156Y-85558826D01*
%TO.C,3V3*%
X22841994Y-65966819D02*
G75*
G03*
X20941996Y-65966819I-949999J0D01*
G01*
X20941996Y-65966819D02*
G75*
G03*
X22841994Y-65966819I949999J0D01*
G01*
%TO.C,R8*%
X43662660Y-77419443D02*
X43235919Y-77264122D01*
X44165429Y-76038094D02*
X43738688Y-75882773D01*
%TO.C,R15*%
X52104273Y-68517541D02*
X51825781Y-68647404D01*
X51783083Y-67828748D02*
X51504591Y-67958611D01*
%TO.C,+BAT*%
X40472621Y-88750442D02*
G75*
G03*
X38572623Y-88750442I-949999J0D01*
G01*
X38572623Y-88750442D02*
G75*
G03*
X40472621Y-88750442I949999J0D01*
G01*
%TO.C,TR15*%
X52104273Y-26517541D02*
X51825781Y-26647404D01*
X51783083Y-25828748D02*
X51504591Y-25958611D01*
%TO.C,TSW2*%
X51986180Y-23786674D02*
X52484649Y-23554234D01*
X53478900Y-21959645D02*
X53869822Y-22797980D01*
X48530178Y-20102020D02*
X50516484Y-24361667D01*
X51883516Y-18538333D02*
X52274438Y-19376668D01*
X49915351Y-19345766D02*
X50413820Y-19113326D01*
%TO.C,TC46*%
X43528540Y-18943580D02*
X43325875Y-18869816D01*
X43774795Y-18267002D02*
X43572130Y-18193238D01*
%TO.C,C55*%
X28072371Y-62709713D02*
X27876906Y-62800860D01*
X27768086Y-62057172D02*
X27572621Y-62148319D01*
%TO.C,TD13*%
X30813066Y-41359478D02*
X31223490Y-40231847D01*
X33065288Y-40902207D02*
X31223490Y-40231847D01*
X32654864Y-42029838D02*
X30813066Y-41359478D01*
%TO.C,C57*%
X26413426Y-59709741D02*
X26608891Y-59618594D01*
X26717711Y-60362282D02*
X26913176Y-60271135D01*
%TO.C,R13*%
X25252463Y-85187381D02*
X25357560Y-84898630D01*
X25966630Y-85447316D02*
X26071727Y-85158565D01*
%TO.C,TC45*%
X35696876Y-23453744D02*
X35899541Y-23527508D01*
X35450621Y-24130322D02*
X35653286Y-24204086D01*
%TO.C,TC24*%
X25167324Y-35227659D02*
X25422141Y-35108835D01*
X25598395Y-36152093D02*
X25853212Y-36033269D01*
%TO.C,C11*%
X27808389Y-70349202D02*
X27899536Y-70544667D01*
X27155848Y-70653487D02*
X27246995Y-70848952D01*
%TO.C,C3*%
X33640464Y-73584621D02*
X33843129Y-73658385D01*
X33394209Y-74261199D02*
X33596874Y-74334963D01*
%TO.C,TC60*%
X30963000Y-14339034D02*
X30871853Y-14143569D01*
X31615541Y-14034749D02*
X31524394Y-13839284D01*
%TO.C,TC57*%
X26413426Y-17709741D02*
X26608891Y-17618594D01*
X26717711Y-18362282D02*
X26913176Y-18271135D01*
%TO.C,TR6*%
X40720892Y-43587642D02*
X40825989Y-43298891D01*
X41435059Y-43847577D02*
X41540156Y-43558826D01*
%TO.C,TC53*%
X27089615Y-19159833D02*
X27285080Y-19068686D01*
X27393900Y-19812374D02*
X27589365Y-19721227D01*
%TO.C,TR8*%
X43662660Y-35419443D02*
X43235919Y-35264122D01*
X44165429Y-34038094D02*
X43738688Y-33882773D01*
%TO.C,R10*%
X23993773Y-61410878D02*
X23838452Y-61837619D01*
X22612424Y-60908109D02*
X22457103Y-61334850D01*
%TO.C,D_BAT*%
X41954619Y-32481588D02*
G75*
G03*
X40554619Y-32481588I-700000J0D01*
G01*
X40554619Y-32481588D02*
G75*
G03*
X41954619Y-32481588I700000J0D01*
G01*
%TO.C,TC5*%
X29233842Y-30339388D02*
X29160078Y-30542053D01*
X28557264Y-30093133D02*
X28483500Y-30295798D01*
%TO.C,C48*%
X45233832Y-69858960D02*
X45324979Y-70054425D01*
X44581291Y-70163245D02*
X44672438Y-70358710D01*
%TO.C,ME4055A1*%
X28010408Y-80767802D02*
X28348502Y-81492849D01*
X28010408Y-80767802D02*
X27672313Y-80042756D01*
X30838088Y-79449234D02*
X31176183Y-80174280D01*
X30838088Y-79449234D02*
X30499994Y-78724187D01*
X31742686Y-80726614D02*
X31342176Y-80648565D01*
X31539830Y-80291587D01*
X31742686Y-80726614D01*
G36*
X31742686Y-80726614D02*
G01*
X31342176Y-80648565D01*
X31539830Y-80291587D01*
X31742686Y-80726614D01*
G37*
%TO.C,TU1*%
X32292526Y-30261089D02*
X32503957Y-30338043D01*
X32369481Y-30049658D02*
X32292526Y-30261089D01*
X33658897Y-26507017D02*
X33735851Y-26295586D01*
X37624399Y-27950342D02*
X37701354Y-27738911D01*
X33735851Y-26295586D02*
X33947282Y-26372541D01*
X37701354Y-27738911D02*
X37489923Y-27661957D01*
X36479202Y-32061601D02*
X36251189Y-31723208D01*
X36643372Y-31610548D01*
X36479202Y-32061601D01*
G36*
X36479202Y-32061601D02*
G01*
X36251189Y-31723208D01*
X36643372Y-31610548D01*
X36479202Y-32061601D01*
G37*
%TO.C,DINS*%
X49455724Y-39576194D02*
G75*
G03*
X48055724Y-39576194I-700000J0D01*
G01*
X48055724Y-39576194D02*
G75*
G03*
X49455724Y-39576194I700000J0D01*
G01*
%TO.C,TC25*%
X27363462Y-41342437D02*
X27108645Y-41461261D01*
X26932391Y-40418003D02*
X26677574Y-40536827D01*
%TO.C,TC48*%
X45233832Y-27858960D02*
X45324979Y-28054425D01*
X44581291Y-28163245D02*
X44672438Y-28358710D01*
%TO.C,TC37*%
X37513783Y-24881251D02*
X37311118Y-24807487D01*
X37760038Y-24204673D02*
X37557373Y-24130909D01*
%TO.C,TC41*%
X34012505Y-22795865D02*
X34086269Y-22593200D01*
X34689083Y-23042120D02*
X34762847Y-22839455D01*
%TO.C,C52*%
X33336739Y-59460467D02*
X33532204Y-59369320D01*
X33641024Y-60113008D02*
X33836489Y-60021861D01*
%TO.C,TC61*%
X32713546Y-15566378D02*
X32518081Y-15657525D01*
X32409261Y-14913837D02*
X32213796Y-15004984D01*
%TO.C,TC11*%
X27808389Y-28349202D02*
X27899536Y-28544667D01*
X27155848Y-28653487D02*
X27246995Y-28848952D01*
%TO.C,NRST*%
X48927081Y-71450951D02*
G75*
G03*
X47527081Y-71450951I-700000J0D01*
G01*
X47527081Y-71450951D02*
G75*
G03*
X48927081Y-71450951I700000J0D01*
G01*
%TO.C,TC54*%
X33371609Y-17024923D02*
X33176144Y-17116070D01*
X33067324Y-16372382D02*
X32871859Y-16463529D01*
%TO.C,TSW1*%
X27335993Y-44913762D02*
X27184393Y-45442455D01*
X27735557Y-47238971D02*
X26846390Y-46984006D01*
X32384178Y-44722834D02*
X27866248Y-43427338D01*
X31364320Y-48279502D02*
X30475153Y-48024537D01*
X32046175Y-46264385D02*
X31894575Y-46793078D01*
%TO.C,TC6*%
X38484405Y-32550999D02*
X38575552Y-32746464D01*
X37831864Y-32855284D02*
X37923011Y-33050749D01*
%TO.C,TU4*%
X40737412Y-38463736D02*
X41011029Y-37711982D01*
X40737412Y-38463736D02*
X40463796Y-39215491D01*
X37805572Y-37396634D02*
X38079188Y-36644879D01*
X37805572Y-37396634D02*
X37531955Y-38148388D01*
X38297182Y-36192134D02*
X37904999Y-36304794D01*
X38069169Y-35853741D01*
X38297182Y-36192134D01*
G36*
X38297182Y-36192134D02*
G01*
X37904999Y-36304794D01*
X38069169Y-35853741D01*
X38297182Y-36192134D01*
G37*
%TO.C,A1*%
X25475780Y-14352992D02*
G75*
G03*
X23575782Y-14352992I-949999J0D01*
G01*
X23575782Y-14352992D02*
G75*
G03*
X25475780Y-14352992I949999J0D01*
G01*
%TO.C,TR18*%
X45464023Y-22750997D02*
X45358926Y-23039748D01*
X44749856Y-22491062D02*
X44644759Y-22779813D01*
%TO.C,D13*%
X30813066Y-83359478D02*
X31223490Y-82231847D01*
X33065288Y-82902207D02*
X31223490Y-82231847D01*
X32654864Y-84029838D02*
X30813066Y-83359478D01*
%TO.C,TC3*%
X33640464Y-31584621D02*
X33843129Y-31658385D01*
X33394209Y-32261199D02*
X33596874Y-32334963D01*
%TO.C,DIO*%
X47132299Y-73280912D02*
G75*
G03*
X45732299Y-73280912I-700000J0D01*
G01*
X45732299Y-73280912D02*
G75*
G03*
X47132299Y-73280912I700000J0D01*
G01*
%TO.C,SW1*%
X27335993Y-86913762D02*
X27184393Y-87442455D01*
X27735557Y-89238971D02*
X26846390Y-88984006D01*
X32384178Y-86722834D02*
X27866248Y-85427338D01*
X31364320Y-90279502D02*
X30475153Y-90024537D01*
X32046175Y-88264385D02*
X31894575Y-88793078D01*
%TO.C,DIO*%
X47132299Y-31280912D02*
G75*
G03*
X45732299Y-31280912I-700000J0D01*
G01*
X45732299Y-31280912D02*
G75*
G03*
X47132299Y-31280912I700000J0D01*
G01*
%TO.C,C9*%
X31585163Y-74279999D02*
X31382498Y-74206235D01*
X31831418Y-73603421D02*
X31628753Y-73529657D01*
%TO.C,C37*%
X37513783Y-66881251D02*
X37311118Y-66807487D01*
X37760038Y-66204673D02*
X37557373Y-66130909D01*
%TO.C,TC26*%
X38914166Y-40568343D02*
X39178370Y-40664505D01*
X38565306Y-41526829D02*
X38829510Y-41622991D01*
%TO.C,TR4*%
X24123345Y-34202846D02*
X24401837Y-34072983D01*
X24444535Y-34891639D02*
X24723027Y-34761776D01*
%TO.C,TY1*%
X44741338Y-29310975D02*
X41116107Y-31001448D01*
X43346697Y-26320160D02*
X44741338Y-29310975D01*
%TO.C,C54*%
X33371609Y-59024923D02*
X33176144Y-59116070D01*
X33067324Y-58372382D02*
X32871859Y-58463529D01*
%TO.C,C8*%
X30605570Y-77384898D02*
X30402905Y-77311134D01*
X30851825Y-76708320D02*
X30649160Y-76634556D01*
%TO.C,C6*%
X38484405Y-74550999D02*
X38575552Y-74746464D01*
X37831864Y-74855284D02*
X37923011Y-75050749D01*
%TO.C,C58*%
X25253261Y-59001530D02*
X25162114Y-58806065D01*
X25905802Y-58697245D02*
X25814655Y-58501780D01*
%TO.C,TR12*%
X30138264Y-41743669D02*
X30574799Y-41868844D01*
X29733077Y-43156724D02*
X30169612Y-43281899D01*
%TO.C,C26*%
X38914166Y-82568343D02*
X39178370Y-82664505D01*
X38565306Y-83526829D02*
X38829510Y-83622991D01*
%TO.C,TL2*%
X30882120Y-18188132D02*
X30544345Y-17463771D01*
X31897185Y-17714799D02*
X31559410Y-16990438D01*
%TO.C,TR16*%
X40915344Y-39745483D02*
X41020441Y-39456732D01*
X41629511Y-40005418D02*
X41734608Y-39716667D01*
%TO.C,+BAT*%
X40472621Y-46750442D02*
G75*
G03*
X38572623Y-46750442I-949999J0D01*
G01*
X38572623Y-46750442D02*
G75*
G03*
X40472621Y-46750442I949999J0D01*
G01*
%TO.C,TR9*%
X41980882Y-36310762D02*
X41692131Y-36205665D01*
X42240817Y-35596595D02*
X41952066Y-35491498D01*
%TO.C,CLK*%
X46630288Y-33280408D02*
G75*
G03*
X45230288Y-33280408I-700000J0D01*
G01*
X45230288Y-33280408D02*
G75*
G03*
X46630288Y-33280408I700000J0D01*
G01*
%TO.C,TC58*%
X25253261Y-17001530D02*
X25162114Y-16806065D01*
X25905802Y-16697245D02*
X25814655Y-16501780D01*
%TO.C,C56*%
X26250199Y-58536649D02*
X26159052Y-58341184D01*
X26902740Y-58232364D02*
X26811593Y-58036899D01*
%TO.C,TC39*%
X36527582Y-20471817D02*
X36453818Y-20674482D01*
X35851004Y-20225562D02*
X35777240Y-20428227D01*
%TO.C,R7*%
X32144637Y-78891132D02*
X32274500Y-79169624D01*
X31455844Y-79212322D02*
X31585707Y-79490814D01*
%TO.C,SW3*%
X19761945Y-62100697D02*
X19248476Y-61903595D01*
X17410760Y-62296085D02*
X17742250Y-61432523D01*
X19512168Y-67146313D02*
X21196497Y-62758485D01*
X16057921Y-65820351D02*
X16389411Y-64956789D01*
X18005942Y-66675241D02*
X17492473Y-66478139D01*
%TO.C,A1*%
X25475780Y-56352992D02*
G75*
G03*
X23575782Y-56352992I-949999J0D01*
G01*
X23575782Y-56352992D02*
G75*
G03*
X25475780Y-56352992I949999J0D01*
G01*
%TO.C,D14*%
X44473987Y-62183820D02*
X46544900Y-61218137D01*
X45095235Y-63516092D02*
X44473987Y-62183820D01*
X47166149Y-62550410D02*
X45095235Y-63516092D01*
%TO.C,R17*%
X42546698Y-80984770D02*
X42651795Y-80696019D01*
X43260865Y-81244705D02*
X43365962Y-80955954D01*
%TO.C,TC4*%
X32389806Y-25869763D02*
X32293644Y-26133967D01*
X31431320Y-25520903D02*
X31335158Y-25785107D01*
D14*
%TO.C,TU3*%
X36833291Y-22847481D02*
X37115199Y-22950087D01*
X36833291Y-22847481D02*
X36935897Y-22565573D01*
X41531754Y-24557582D02*
X41249846Y-24454976D01*
X41531754Y-24557582D02*
X41634360Y-24275674D01*
X38543392Y-18149018D02*
X38440786Y-18430926D01*
X38543392Y-18149018D02*
X38825300Y-18251624D01*
X43241855Y-19859119D02*
X43139249Y-20141027D01*
X43241855Y-19859119D02*
X42959947Y-19756513D01*
D15*
X41392254Y-25507984D02*
G75*
G03*
X41192254Y-25507984I-100000J0D01*
G01*
X41192254Y-25507984D02*
G75*
G03*
X41392254Y-25507984I100000J0D01*
G01*
D13*
%TO.C,SW2*%
X51933026Y-65797984D02*
X52431495Y-65565544D01*
X53425746Y-63970955D02*
X53816668Y-64809290D01*
X48477024Y-62113330D02*
X50463330Y-66372977D01*
X51830362Y-60549643D02*
X52221284Y-61387978D01*
X49862197Y-61357076D02*
X50360666Y-61124636D01*
%TO.C,C10*%
X23808421Y-72655769D02*
X23899568Y-72851234D01*
X23155880Y-72960054D02*
X23247027Y-73155519D01*
%TO.C,R3*%
X39480111Y-74036153D02*
X39609974Y-74314645D01*
X38791318Y-74357343D02*
X38921181Y-74635835D01*
%TO.C,R4*%
X24123345Y-76202846D02*
X24401837Y-76072983D01*
X24444535Y-76891639D02*
X24723027Y-76761776D01*
%TO.C,R2*%
X47370573Y-83391747D02*
X47265476Y-83680498D01*
X46656406Y-83131812D02*
X46551309Y-83420563D01*
%TO.C,R16*%
X40915344Y-81745483D02*
X41020441Y-81456732D01*
X41629511Y-82005418D02*
X41734608Y-81716667D01*
%TO.C,C49*%
X39852436Y-68890318D02*
X40047901Y-68799171D01*
X40156721Y-69542859D02*
X40352186Y-69451712D01*
%TO.C,C25*%
X27363462Y-83342437D02*
X27108645Y-83461261D01*
X26932391Y-82418003D02*
X26677574Y-82536827D01*
%TO.C,C51*%
X27247138Y-58071769D02*
X27155991Y-57876304D01*
X27899679Y-57767484D02*
X27808532Y-57572019D01*
%TO.C,TJ2*%
X23248939Y-39553722D02*
X21771657Y-40242589D01*
X19360851Y-31215690D02*
X17883569Y-31904558D01*
%TO.C,R11*%
X21284732Y-60115143D02*
X21389829Y-59826392D01*
X21998899Y-60375078D02*
X22103996Y-60086327D01*
%TO.C,D_BAT*%
X41954619Y-74481588D02*
G75*
G03*
X40554619Y-74481588I-700000J0D01*
G01*
X40554619Y-74481588D02*
G75*
G03*
X41954619Y-74481588I700000J0D01*
G01*
%TO.C,TC10*%
X23808421Y-30655769D02*
X23899568Y-30851234D01*
X23155880Y-30960054D02*
X23247027Y-31155519D01*
%TO.C,DINS*%
X49455724Y-81576194D02*
G75*
G03*
X48055724Y-81576194I-700000J0D01*
G01*
X48055724Y-81576194D02*
G75*
G03*
X49455724Y-81576194I700000J0D01*
G01*
%TO.C,TY2*%
X36186436Y-36340699D02*
X28762864Y-33638739D01*
X36836274Y-34555283D02*
X36186436Y-36340699D01*
%TO.C,TC59*%
X32529785Y-13392531D02*
X32620932Y-13587996D01*
X31877244Y-13696816D02*
X31968391Y-13892281D01*
%TO.C,TR7*%
X32144637Y-36891132D02*
X32274500Y-37169624D01*
X31455844Y-37212322D02*
X31585707Y-37490814D01*
%TO.C,TC56*%
X26250199Y-16536649D02*
X26159052Y-16341184D01*
X26902740Y-16232364D02*
X26811593Y-16036899D01*
%TO.C,C61*%
X32713546Y-57566378D02*
X32518081Y-57657525D01*
X32409261Y-56913837D02*
X32213796Y-57004984D01*
%TO.C,TSW3*%
X19761945Y-20100697D02*
X19248476Y-19903595D01*
X17410760Y-20296085D02*
X17742250Y-19432523D01*
X19512168Y-25146313D02*
X21196497Y-20758485D01*
X16057921Y-23820351D02*
X16389411Y-22956789D01*
X18005942Y-24675241D02*
X17492473Y-24478139D01*
%TO.C,U4*%
X40737412Y-80463736D02*
X41011029Y-79711982D01*
X40737412Y-80463736D02*
X40463796Y-81215491D01*
X37805572Y-79396634D02*
X38079188Y-78644879D01*
X37805572Y-79396634D02*
X37531955Y-80148388D01*
X38297182Y-78192134D02*
X37904999Y-78304794D01*
X38069169Y-77853741D01*
X38297182Y-78192134D01*
G36*
X38297182Y-78192134D02*
G01*
X37904999Y-78304794D01*
X38069169Y-77853741D01*
X38297182Y-78192134D01*
G37*
%TO.C,C5*%
X29233842Y-72339388D02*
X29160078Y-72542053D01*
X28557264Y-72093133D02*
X28483500Y-72295798D01*
%TO.C,C35*%
X40139486Y-67686431D02*
X39936821Y-67612667D01*
X40385741Y-67009853D02*
X40183076Y-66936089D01*
%TO.C,JP1*%
X49360329Y-59447379D02*
X48515093Y-57634764D01*
X48515093Y-57634764D02*
X45977431Y-58818095D01*
X46822667Y-60630710D02*
X49360329Y-59447379D01*
X45977431Y-58818095D02*
X46822667Y-60630710D01*
%TO.C,C59*%
X32529785Y-55392531D02*
X32620932Y-55587996D01*
X31877244Y-55696816D02*
X31968391Y-55892281D01*
%TO.C,NRST*%
X48927081Y-29450951D02*
G75*
G03*
X47527081Y-29450951I-700000J0D01*
G01*
X47527081Y-29450951D02*
G75*
G03*
X48927081Y-29450951I700000J0D01*
G01*
%TO.C,5V*%
X25227953Y-25060984D02*
G75*
G03*
X23327955Y-25060984I-949999J0D01*
G01*
X23327955Y-25060984D02*
G75*
G03*
X25227953Y-25060984I949999J0D01*
G01*
%TO.C,FB1*%
X29815913Y-72372684D02*
X29927260Y-72066760D01*
X30774400Y-72721544D02*
X30885747Y-72415620D01*
%TO.C,L2*%
X30882120Y-60188132D02*
X30544345Y-59463771D01*
X31897185Y-59714799D02*
X31559410Y-58990438D01*
%TO.C,CLK*%
X46630288Y-75280408D02*
G75*
G03*
X45230288Y-75280408I-700000J0D01*
G01*
X45230288Y-75280408D02*
G75*
G03*
X46630288Y-75280408I700000J0D01*
G01*
%TO.C,TC43*%
X35087378Y-21200188D02*
X35290043Y-21273952D01*
X34841123Y-21876766D02*
X35043788Y-21950530D01*
%TO.C,TR5*%
X24300409Y-33855468D02*
X24021917Y-33985331D01*
X23979219Y-33166675D02*
X23700727Y-33296538D01*
%TO.C,TC35*%
X40139486Y-25686431D02*
X39936821Y-25612667D01*
X40385741Y-25009853D02*
X40183076Y-24936089D01*
%TO.C,C43*%
X35087378Y-63200188D02*
X35290043Y-63273952D01*
X34841123Y-63876766D02*
X35043788Y-63950530D01*
%TO.C,A2*%
X31523858Y-53587896D02*
G75*
G03*
X29623860Y-53587896I-949999J0D01*
G01*
X29623860Y-53587896D02*
G75*
G03*
X31523858Y-53587896I949999J0D01*
G01*
%TO.C,TR1*%
X44625788Y-40208129D02*
X44337037Y-40103032D01*
X44885723Y-39493962D02*
X44596972Y-39388865D01*
%TO.C,R1*%
X44625788Y-82208129D02*
X44337037Y-82103032D01*
X44885723Y-81493962D02*
X44596972Y-81388865D01*
%TO.C,TC52*%
X33336739Y-17460467D02*
X33532204Y-17369320D01*
X33641024Y-18113008D02*
X33836489Y-18021861D01*
%TO.C,U2*%
X25344322Y-72897118D02*
X26622216Y-72301226D01*
X24372910Y-70790258D02*
X25641741Y-70198592D01*
X25344835Y-73205825D02*
X24909807Y-73408681D01*
X24987857Y-73008171D01*
X25344835Y-73205825D01*
G36*
X25344835Y-73205825D02*
G01*
X24909807Y-73408681D01*
X24987857Y-73008171D01*
X25344835Y-73205825D01*
G37*
D16*
%TO.C,L1*%
X32456347Y-82037079D02*
X35463363Y-83131543D01*
X35463363Y-83131543D02*
X36489423Y-80312465D01*
X36489423Y-80312465D02*
X33482407Y-79218001D01*
X33482407Y-79218001D02*
X32456347Y-82037079D01*
D13*
%TO.C,Y1*%
X44741338Y-71310975D02*
X41116107Y-73001448D01*
X43346697Y-68320160D02*
X44741338Y-71310975D01*
%TO.C,R12*%
X30138264Y-83743669D02*
X30574799Y-83868844D01*
X29733077Y-85156724D02*
X30169612Y-85281899D01*
%TO.C,TC49*%
X39852436Y-26890318D02*
X40047901Y-26799171D01*
X40156721Y-27542859D02*
X40352186Y-27451712D01*
%TO.C,TU2*%
X25344322Y-30897118D02*
X26622216Y-30301226D01*
X24372910Y-28790258D02*
X25641741Y-28198592D01*
X25344835Y-31205825D02*
X24909807Y-31408681D01*
X24987857Y-31008171D01*
X25344835Y-31205825D01*
G36*
X25344835Y-31205825D02*
G01*
X24909807Y-31408681D01*
X24987857Y-31008171D01*
X25344835Y-31205825D01*
G37*
%TO.C,C45*%
X35696876Y-65453744D02*
X35899541Y-65527508D01*
X35450621Y-66130322D02*
X35653286Y-66204086D01*
%TO.C,Li-po1*%
X37059022Y-84172169D02*
X36213298Y-83864350D01*
X36213298Y-83864350D02*
X35922581Y-84663089D01*
X35922581Y-84663089D02*
X35640674Y-84560483D01*
X35640674Y-84560483D02*
X35555168Y-84795406D01*
X35555168Y-84795406D02*
X35423612Y-84747523D01*
X38275130Y-85859884D02*
X37700536Y-87438567D01*
X34532609Y-84699911D02*
X34779335Y-85055757D01*
X34779335Y-85055757D02*
X34361599Y-85169758D01*
X34361599Y-85169758D02*
X34532609Y-84699911D01*
X35129095Y-86843176D02*
X34847187Y-86740570D01*
X34847187Y-86740570D02*
X34932692Y-86505647D01*
X35684101Y-87949733D02*
X34838377Y-87641915D01*
X34838377Y-87641915D02*
X35129095Y-86843176D01*
%TO.C,TQ1*%
X45231422Y-43851649D02*
X45864160Y-42113218D01*
X44395096Y-43547251D02*
X45231422Y-43851649D01*
X42294451Y-42798642D02*
X42927188Y-41060211D01*
X42294451Y-42798642D02*
X43130777Y-43103040D01*
X43051179Y-40690310D02*
X42658996Y-40802970D01*
X42823165Y-40351917D01*
X43051179Y-40690310D01*
G36*
X43051179Y-40690310D02*
G01*
X42658996Y-40802970D01*
X42823165Y-40351917D01*
X43051179Y-40690310D01*
G37*
%TO.C,TR2*%
X47370573Y-41391747D02*
X47265476Y-41680498D01*
X46656406Y-41131812D02*
X46551309Y-41420563D01*
%TO.C,R5*%
X24300409Y-75855468D02*
X24021917Y-75985331D01*
X23979219Y-75166675D02*
X23700727Y-75296538D01*
%TO.C,TR13*%
X25252463Y-43187381D02*
X25357560Y-42898630D01*
X25966630Y-43447316D02*
X26071727Y-43158565D01*
%TO.C,J1*%
X50875722Y-72674351D02*
X50029999Y-72366533D01*
X50029999Y-72366533D02*
X49739282Y-73165272D01*
X49739282Y-73165272D02*
X49457374Y-73062666D01*
X49457374Y-73062666D02*
X49371869Y-73297589D01*
X49371869Y-73297589D02*
X49240312Y-73249706D01*
X52091830Y-74362066D02*
X50422771Y-78947766D01*
X48349309Y-73202094D02*
X48596035Y-73557939D01*
X48596035Y-73557939D02*
X48178299Y-73671940D01*
X48178299Y-73671940D02*
X48349309Y-73202094D01*
X47851330Y-78352375D02*
X47569423Y-78249769D01*
X47569423Y-78249769D02*
X47654928Y-78014846D01*
X48406337Y-79458932D02*
X47560613Y-79151114D01*
X47560613Y-79151114D02*
X47851330Y-78352375D01*
%TO.C,TR11*%
X21284732Y-18115143D02*
X21389829Y-17826392D01*
X21998899Y-18375078D02*
X22103996Y-18086327D01*
%TO.C,R14*%
X50694884Y-68615268D02*
X50886807Y-69026847D01*
X49362611Y-69236517D02*
X49554534Y-69648096D01*
%TO.C,Y2*%
X36186436Y-78340699D02*
X28762864Y-75638739D01*
X36836274Y-76555283D02*
X36186436Y-78340699D01*
%TO.C,TFB1*%
X29815913Y-30372684D02*
X29927260Y-30066760D01*
X30774400Y-30721544D02*
X30885747Y-30415620D01*
%TO.C,C24*%
X25167324Y-77227659D02*
X25422141Y-77108835D01*
X25598395Y-78152093D02*
X25853212Y-78033269D01*
%TO.C,GND*%
X41853814Y-55391226D02*
G75*
G03*
X39953816Y-55391226I-949999J0D01*
G01*
X39953816Y-55391226D02*
G75*
G03*
X41853814Y-55391226I949999J0D01*
G01*
%TO.C,TJ1*%
X50875722Y-30674351D02*
X50029999Y-30366533D01*
X50029999Y-30366533D02*
X49739282Y-31165272D01*
X49739282Y-31165272D02*
X49457374Y-31062666D01*
X49457374Y-31062666D02*
X49371869Y-31297589D01*
X49371869Y-31297589D02*
X49240312Y-31249706D01*
X52091830Y-32362066D02*
X50422771Y-36947766D01*
X48349309Y-31202094D02*
X48596035Y-31557939D01*
X48596035Y-31557939D02*
X48178299Y-31671940D01*
X48178299Y-31671940D02*
X48349309Y-31202094D01*
X47851330Y-36352375D02*
X47569423Y-36249769D01*
X47569423Y-36249769D02*
X47654928Y-36014846D01*
X48406337Y-37458932D02*
X47560613Y-37151114D01*
X47560613Y-37151114D02*
X47851330Y-36352375D01*
%TO.C,U1*%
X32292526Y-72261089D02*
X32503957Y-72338043D01*
X32369481Y-72049658D02*
X32292526Y-72261089D01*
X33658897Y-68507017D02*
X33735851Y-68295586D01*
X37624399Y-69950342D02*
X37701354Y-69738911D01*
X33735851Y-68295586D02*
X33947282Y-68372541D01*
X37701354Y-69738911D02*
X37489923Y-69661957D01*
X36479202Y-74061601D02*
X36251189Y-73723208D01*
X36643372Y-73610548D01*
X36479202Y-74061601D01*
G36*
X36479202Y-74061601D02*
G01*
X36251189Y-73723208D01*
X36643372Y-73610548D01*
X36479202Y-74061601D01*
G37*
%TO.C,C39*%
X36527582Y-62471817D02*
X36453818Y-62674482D01*
X35851004Y-62225562D02*
X35777240Y-62428227D01*
%TO.C,TR10*%
X23993773Y-19410878D02*
X23838452Y-19837619D01*
X22612424Y-18908109D02*
X22457103Y-19334850D01*
%TD*%
%LPC*%
D17*
%TO.C,KiKit_MB_2_2*%
X55184497Y-28494636D03*
%TD*%
%TO.C,KiKit_MB_1_1*%
X14853943Y-30510059D03*
%TD*%
%TO.C,KiKit_MB_4_3*%
X34492163Y-49188870D03*
%TD*%
%TO.C,KiKit_MB_6_1*%
X55133931Y-69485171D03*
%TD*%
%TO.C,KiKit_MB_5_3*%
X14803312Y-70496222D03*
%TD*%
D18*
%TO.C,KiKit_TO_2*%
X70000000Y0D03*
%TD*%
D17*
%TO.C,KiKit_MB_7_4*%
X36512360Y-50861278D03*
%TD*%
%TO.C,KiKit_MB_3_2*%
X34492163Y-8811130D03*
%TD*%
%TO.C,KiKit_MB_6_2*%
X55184497Y-70494635D03*
%TD*%
%TO.C,KiKit_MB_3_4*%
X36512360Y-8861279D03*
%TD*%
%TO.C,KiKit_MB_5_1*%
X14853943Y-72510059D03*
%TD*%
%TO.C,KiKit_MB_7_3*%
X35502883Y-50810832D03*
%TD*%
%TO.C,KiKit_MB_6_3*%
X55184377Y-71505361D03*
%TD*%
%TO.C,KiKit_MB_8_1*%
X36512360Y-91138721D03*
%TD*%
%TO.C,KiKit_MB_6_4*%
X55133931Y-72514828D03*
%TD*%
D18*
%TO.C,KiKit_TO_3*%
X0Y-100000000D03*
%TD*%
D17*
%TO.C,KiKit_MB_4_4*%
X33482706Y-49138374D03*
%TD*%
%TO.C,KiKit_MB_2_3*%
X55184377Y-29505361D03*
%TD*%
%TO.C,KiKit_MB_1_2*%
X14803514Y-29503766D03*
%TD*%
%TO.C,KiKit_MB_2_4*%
X55133931Y-30514828D03*
%TD*%
%TO.C,KiKit_MB_5_2*%
X14803514Y-71503766D03*
%TD*%
%TO.C,KiKit_MB_8_2*%
X35502883Y-91189167D03*
%TD*%
%TO.C,KiKit_MB_8_3*%
X34492163Y-91188870D03*
%TD*%
%TO.C,KiKit_MB_7_1*%
X33482706Y-50861625D03*
%TD*%
%TO.C,KiKit_MB_8_4*%
X33482706Y-91138374D03*
%TD*%
%TO.C,KiKit_MB_3_3*%
X35502883Y-8810833D03*
%TD*%
%TO.C,KiKit_MB_4_1*%
X36512360Y-49138721D03*
%TD*%
%TO.C,KiKit_MB_7_2*%
X34492163Y-50811129D03*
%TD*%
%TO.C,KiKit_MB_1_4*%
X14853943Y-27489941D03*
%TD*%
%TO.C,KiKit_MB_1_3*%
X14803312Y-28496223D03*
%TD*%
%TO.C,KiKit_MB_3_1*%
X33482706Y-8861626D03*
%TD*%
%TO.C,KiKit_MB_2_1*%
X55133931Y-27485172D03*
%TD*%
D18*
%TO.C,KiKit_TO_1*%
X0Y0D03*
%TD*%
D17*
%TO.C,KiKit_MB_4_2*%
X35502883Y-49189167D03*
%TD*%
%TO.C,KiKit_MB_5_4*%
X14853943Y-69489940D03*
%TD*%
D19*
%TO.C,L3*%
X28676660Y-59575698D03*
X29574724Y-61501602D03*
%TD*%
D20*
%TO.C,TC27*%
X45585029Y-37632044D03*
X44128505Y-37101912D03*
%TD*%
D21*
%TO.C,C41*%
X34223506Y-65268712D03*
X34551846Y-64366608D03*
%TD*%
D22*
%TO.C,3V3*%
X21891995Y-23966819D03*
%TD*%
%TO.C,5V*%
X24277954Y-67060984D03*
%TD*%
D23*
%TO.C,U3*%
X40849216Y-66239987D03*
X40379370Y-66068977D03*
X39909523Y-65897967D03*
X39439677Y-65726957D03*
X38969831Y-65555946D03*
X38499984Y-65384936D03*
X38030138Y-65213926D03*
X37560292Y-65042916D03*
D24*
X37150886Y-64164943D03*
X37321896Y-63695097D03*
X37492906Y-63225250D03*
X37663916Y-62755404D03*
X37834927Y-62285558D03*
X38005937Y-61815711D03*
X38176947Y-61345865D03*
X38347957Y-60876019D03*
D23*
X39225930Y-60466613D03*
X39695776Y-60637623D03*
X40165623Y-60808633D03*
X40635469Y-60979643D03*
X41105315Y-61150654D03*
X41575162Y-61321664D03*
X42045008Y-61492674D03*
X42514854Y-61663684D03*
D24*
X42924260Y-62541657D03*
X42753250Y-63011503D03*
X42582240Y-63481350D03*
X42411230Y-63951196D03*
X42240219Y-64421042D03*
X42069209Y-64890889D03*
X41898199Y-65360735D03*
X41727189Y-65830581D03*
D25*
X40037573Y-63353300D03*
%TD*%
D26*
%TO.C,TR17*%
X42781900Y-39449605D03*
X43130760Y-38491119D03*
%TD*%
D27*
%TO.C,TC8*%
X31078417Y-35173897D03*
X30176313Y-34845557D03*
%TD*%
D28*
%TO.C,TC38*%
X35125672Y-20583290D03*
X35344564Y-19981886D03*
%TD*%
D29*
%TO.C,TC51*%
X27730692Y-16256922D03*
X27324978Y-15386866D03*
%TD*%
D30*
%TO.C,TLi-po1*%
X35719028Y-43397777D03*
X35445411Y-44149531D03*
D31*
X37996054Y-42843116D03*
X36833186Y-46038071D03*
%TD*%
D32*
%TO.C,Q1*%
X43625255Y-82867332D03*
X45410671Y-83517170D03*
X43621871Y-85654245D03*
%TD*%
D27*
%TO.C,TC9*%
X32058010Y-32068998D03*
X31155906Y-31740658D03*
%TD*%
D33*
%TO.C,TR14*%
X49739070Y-26304676D03*
X50510348Y-27958688D03*
%TD*%
D29*
%TO.C,C50*%
X30449615Y-56989068D03*
X30043901Y-56119012D03*
%TD*%
D19*
%TO.C,TL3*%
X28676660Y-17575698D03*
X29574724Y-19501602D03*
%TD*%
D34*
%TO.C,C4*%
X32127548Y-67099173D03*
X31597416Y-68555697D03*
%TD*%
D35*
%TO.C,C31*%
X41818385Y-67929446D03*
X42398421Y-67658970D03*
%TD*%
D36*
%TO.C,C28*%
X23054808Y-58223643D03*
X22835916Y-58825047D03*
%TD*%
D37*
%TO.C,TC55*%
X28257524Y-20226159D03*
X27387468Y-20631873D03*
%TD*%
D38*
%TO.C,JP1*%
X48325953Y-16826339D03*
D39*
X47011807Y-17439135D03*
%TD*%
D40*
%TO.C,C53*%
X26904462Y-61643387D03*
X27774518Y-61237673D03*
%TD*%
D27*
%TO.C,C46*%
X44001387Y-60732579D03*
X43099283Y-60404239D03*
%TD*%
D18*
%TO.C,KiKit_FID_B_3*%
X3900000Y-96100000D03*
%TD*%
D22*
%TO.C,GND*%
X40903815Y-13391226D03*
%TD*%
D41*
%TO.C,R9*%
X42445717Y-78075560D03*
X41487231Y-77726700D03*
%TD*%
D29*
%TO.C,C60*%
X31446554Y-56524187D03*
X31040840Y-55654131D03*
%TD*%
D42*
%TO.C,J2*%
X22415714Y-77418411D03*
D43*
X21562026Y-75587669D03*
D44*
X21042205Y-74472911D03*
D45*
X21993096Y-76512103D03*
D46*
X22846785Y-78342845D03*
D47*
X23366606Y-79457604D03*
D48*
X21075895Y-83146302D03*
D49*
X24320477Y-81633329D03*
D48*
X16744058Y-73856647D03*
D49*
X19988640Y-72343674D03*
%TD*%
D50*
%TO.C,TD14*%
X45416761Y-20555180D03*
X46844195Y-19889556D03*
%TD*%
D51*
%TO.C,R18*%
X45228821Y-64286162D03*
X44879961Y-65244648D03*
%TD*%
D20*
%TO.C,C27*%
X45585029Y-79632044D03*
X44128505Y-79101912D03*
%TD*%
D52*
%TO.C,TL1*%
X35530039Y-39559545D03*
X33415731Y-38789999D03*
%TD*%
D53*
%TO.C,TME4055A1*%
X30765969Y-38737956D03*
X29904976Y-39139443D03*
X29043984Y-39540930D03*
X28082527Y-37479080D03*
X28943520Y-37077593D03*
X29804512Y-36676106D03*
%TD*%
D22*
%TO.C,A2*%
X30573859Y-11587896D03*
%TD*%
D29*
%TO.C,TC50*%
X30449615Y-14989068D03*
X30043901Y-14119012D03*
%TD*%
D54*
%TO.C,TC42*%
X33602526Y-20741855D03*
X33001122Y-20522963D03*
%TD*%
D55*
%TO.C,TR3*%
X38985111Y-31873777D03*
X39416181Y-32798211D03*
%TD*%
D26*
%TO.C,R6*%
X40956094Y-86052477D03*
X41304954Y-85093991D03*
%TD*%
D22*
%TO.C,3V3*%
X21891995Y-65966819D03*
%TD*%
D18*
%TO.C,KiKit_FID_B_1*%
X3900000Y-3900000D03*
%TD*%
D56*
%TO.C,R8*%
X44558144Y-76963201D03*
X42843204Y-76339015D03*
%TD*%
D57*
%TO.C,R15*%
X52266649Y-68022541D03*
X51342215Y-68453611D03*
%TD*%
D36*
%TO.C,TC7*%
X37672143Y-34674822D03*
X37453251Y-35276226D03*
%TD*%
%TO.C,TC28*%
X23054808Y-16223643D03*
X22835916Y-16825047D03*
%TD*%
D22*
%TO.C,+BAT*%
X39522622Y-88750442D03*
%TD*%
D57*
%TO.C,TR15*%
X52266649Y-26022541D03*
X51342215Y-26453611D03*
%TD*%
D58*
%TO.C,TSW2*%
X53079735Y-23469832D03*
X50860989Y-18711717D03*
X51539011Y-24188283D03*
X49320265Y-19430168D03*
%TD*%
D27*
%TO.C,TC46*%
X44001387Y-18732579D03*
X43099283Y-18404239D03*
%TD*%
D37*
%TO.C,C55*%
X28257524Y-62226159D03*
X27387468Y-62631873D03*
%TD*%
D59*
%TO.C,TD13*%
X31544506Y-40987194D03*
X32860076Y-41466022D03*
%TD*%
D60*
%TO.C,TC30*%
X48951943Y-24616678D03*
X49222419Y-25196714D03*
%TD*%
D40*
%TO.C,C57*%
X26228273Y-60193295D03*
X27098329Y-59787581D03*
%TD*%
D26*
%TO.C,R13*%
X25487665Y-85652216D03*
X25836525Y-84693730D03*
%TD*%
D54*
%TO.C,C44*%
X35637201Y-66868609D03*
X35035797Y-66649717D03*
%TD*%
D61*
%TO.C,TC45*%
X35224029Y-23664745D03*
X36126133Y-23993085D03*
%TD*%
D35*
%TO.C,TC31*%
X41818385Y-25929446D03*
X42398421Y-25658970D03*
%TD*%
D62*
%TO.C,TC24*%
X24807879Y-35957993D03*
X26212657Y-35302935D03*
%TD*%
D63*
%TO.C,C11*%
X27324835Y-70164049D03*
X27730549Y-71034105D03*
%TD*%
D61*
%TO.C,C3*%
X33167617Y-73795622D03*
X34069721Y-74123962D03*
%TD*%
D29*
%TO.C,TC60*%
X31446554Y-14524187D03*
X31040840Y-13654131D03*
%TD*%
D40*
%TO.C,TC57*%
X26228273Y-18193295D03*
X27098329Y-17787581D03*
%TD*%
D26*
%TO.C,TR6*%
X40956094Y-44052477D03*
X41304954Y-43093991D03*
%TD*%
D40*
%TO.C,TC53*%
X26904462Y-19643387D03*
X27774518Y-19237673D03*
%TD*%
D56*
%TO.C,TR8*%
X44558144Y-34963201D03*
X42843204Y-34339015D03*
%TD*%
D64*
%TO.C,R10*%
X23537531Y-60515394D03*
X22913345Y-62230334D03*
%TD*%
D65*
%TO.C,D_BAT*%
X41254619Y-32481588D03*
%TD*%
D66*
%TO.C,TC5*%
X29022841Y-29866541D03*
X28694501Y-30768645D03*
%TD*%
D63*
%TO.C,C48*%
X44750278Y-69673807D03*
X45155992Y-70543863D03*
%TD*%
D53*
%TO.C,ME4055A1*%
X30765969Y-80737956D03*
X29904976Y-81139443D03*
X29043984Y-81540930D03*
X28082527Y-79479080D03*
X28943520Y-79077593D03*
X29804512Y-78676106D03*
%TD*%
D67*
%TO.C,TU1*%
X35723294Y-31390066D03*
D68*
X35273969Y-31162675D03*
X34804122Y-30991665D03*
X34334276Y-30820654D03*
X33864430Y-30649644D03*
X33394583Y-30478634D03*
D69*
X32904216Y-30364006D03*
D70*
X32606874Y-29726354D03*
D71*
X32834265Y-29277029D03*
X33005275Y-28807182D03*
X33176286Y-28337336D03*
X33347296Y-27867490D03*
X33518306Y-27397643D03*
D72*
X33632934Y-26907276D03*
D73*
X34270586Y-26609934D03*
D68*
X34719911Y-26837325D03*
X35189758Y-27008335D03*
X35659604Y-27179346D03*
X36129450Y-27350356D03*
X36599297Y-27521366D03*
D74*
X37089664Y-27635994D03*
D75*
X37387006Y-28273646D03*
D71*
X37159615Y-28722971D03*
X36988605Y-29192818D03*
X36817594Y-29662664D03*
X36646584Y-30132510D03*
X36475574Y-30602357D03*
D76*
X36360946Y-31092724D03*
%TD*%
D65*
%TO.C,DINS*%
X48755724Y-39576194D03*
%TD*%
D77*
%TO.C,TC25*%
X27722907Y-40612103D03*
X26318129Y-41267161D03*
%TD*%
D18*
%TO.C,KiKit_FID_B_2*%
X66100000Y-3900000D03*
%TD*%
D63*
%TO.C,TC48*%
X44750278Y-27673807D03*
X45155992Y-28543863D03*
%TD*%
D27*
%TO.C,TC37*%
X37986630Y-24670250D03*
X37084526Y-24341910D03*
%TD*%
D21*
%TO.C,TC41*%
X34223506Y-23268712D03*
X34551846Y-22366608D03*
%TD*%
D40*
%TO.C,C52*%
X33151586Y-59944021D03*
X34021642Y-59538307D03*
%TD*%
D37*
%TO.C,TC61*%
X32898699Y-15082824D03*
X32028643Y-15488538D03*
%TD*%
D63*
%TO.C,TC11*%
X27324835Y-28164049D03*
X27730549Y-29034105D03*
%TD*%
D65*
%TO.C,NRST*%
X48227081Y-71450951D03*
%TD*%
D37*
%TO.C,TC54*%
X33556762Y-16541369D03*
X32686706Y-16947083D03*
%TD*%
D78*
%TO.C,TSW1*%
X26857680Y-45946944D03*
X31904304Y-47394041D03*
X27326264Y-44312799D03*
X32372888Y-45759896D03*
%TD*%
D63*
%TO.C,TC6*%
X38000851Y-32365846D03*
X38406565Y-33235902D03*
%TD*%
D79*
%TO.C,TU4*%
X38767832Y-36536366D03*
X39660540Y-36861285D03*
X40553248Y-37186204D03*
X39775152Y-39324004D03*
X38882444Y-38999085D03*
X37989736Y-38674166D03*
%TD*%
D22*
%TO.C,A1*%
X24525781Y-14352992D03*
%TD*%
D36*
%TO.C,TC40*%
X33537567Y-22258894D03*
X33318675Y-22860298D03*
%TD*%
%TO.C,C40*%
X33537567Y-64258894D03*
X33318675Y-64860298D03*
%TD*%
D51*
%TO.C,TR18*%
X45228821Y-22286162D03*
X44879961Y-23244648D03*
%TD*%
D59*
%TO.C,D13*%
X31544506Y-82987194D03*
X32860076Y-83466022D03*
%TD*%
D61*
%TO.C,TC3*%
X33167617Y-31795622D03*
X34069721Y-32123962D03*
%TD*%
D65*
%TO.C,DIO*%
X46432299Y-73280912D03*
%TD*%
D78*
%TO.C,SW1*%
X26857680Y-87946944D03*
X31904304Y-89394041D03*
X27326264Y-86312799D03*
X32372888Y-87759896D03*
%TD*%
D65*
%TO.C,DIO*%
X46432299Y-31280912D03*
%TD*%
D27*
%TO.C,C9*%
X32058010Y-74068998D03*
X31155906Y-73740658D03*
%TD*%
%TO.C,C37*%
X37986630Y-66670250D03*
X37084526Y-66341910D03*
%TD*%
D80*
%TO.C,TC26*%
X38143576Y-40830601D03*
X39600100Y-41360733D03*
%TD*%
D81*
%TO.C,TR4*%
X23960969Y-34697846D03*
X24885403Y-34266776D03*
%TD*%
D82*
%TO.C,TY1*%
X43587566Y-28966286D03*
X41593689Y-29896046D03*
X40875238Y-28355322D03*
X42869115Y-27425562D03*
%TD*%
D37*
%TO.C,C54*%
X33556762Y-58541369D03*
X32686706Y-58947083D03*
%TD*%
D83*
%TO.C,C29*%
X27304531Y-84285789D03*
X27919739Y-84462197D03*
%TD*%
D28*
%TO.C,C38*%
X35125672Y-62583290D03*
X35344564Y-61981886D03*
%TD*%
D27*
%TO.C,C8*%
X31078417Y-77173897D03*
X30176313Y-76845557D03*
%TD*%
D63*
%TO.C,C6*%
X38000851Y-74365846D03*
X38406565Y-75235902D03*
%TD*%
D29*
%TO.C,C58*%
X25736815Y-59186683D03*
X25331101Y-58316627D03*
%TD*%
D84*
%TO.C,TR12*%
X29276787Y-42261265D03*
X31031089Y-42764303D03*
%TD*%
D80*
%TO.C,C26*%
X38143576Y-82830601D03*
X39600100Y-83360733D03*
%TD*%
D85*
%TO.C,TL2*%
X31669797Y-18552237D03*
X30771733Y-16626333D03*
%TD*%
D18*
%TO.C,KiKit_FID_B_4*%
X66100000Y-96100000D03*
%TD*%
D26*
%TO.C,TR16*%
X41150546Y-40210318D03*
X41499406Y-39251832D03*
%TD*%
D22*
%TO.C,+BAT*%
X39522622Y-46750442D03*
%TD*%
D86*
%TO.C,C47*%
X43765030Y-59578021D03*
X44366434Y-59796913D03*
%TD*%
%TO.C,TC34*%
X39161575Y-25925631D03*
X39762979Y-26144523D03*
%TD*%
%TO.C,TC36*%
X36854031Y-25236251D03*
X37455435Y-25455143D03*
%TD*%
D41*
%TO.C,TR9*%
X42445717Y-36075560D03*
X41487231Y-35726700D03*
%TD*%
D65*
%TO.C,CLK*%
X45930288Y-33280408D03*
%TD*%
D29*
%TO.C,TC58*%
X25736815Y-17186683D03*
X25331101Y-16316627D03*
%TD*%
%TO.C,C56*%
X26733753Y-58721802D03*
X26328039Y-57851746D03*
%TD*%
D66*
%TO.C,TC39*%
X36316581Y-19998970D03*
X35988241Y-20901074D03*
%TD*%
D55*
%TO.C,R7*%
X31649637Y-78728756D03*
X32080707Y-79653190D03*
%TD*%
D87*
%TO.C,SW3*%
X18774382Y-61534157D03*
X16892950Y-66435454D03*
X20361468Y-62143382D03*
X18480036Y-67044679D03*
%TD*%
D22*
%TO.C,A1*%
X24525781Y-56352992D03*
%TD*%
D50*
%TO.C,D14*%
X45416761Y-62555180D03*
X46844195Y-61889556D03*
%TD*%
D26*
%TO.C,R17*%
X42781900Y-81449605D03*
X43130760Y-80491119D03*
%TD*%
D54*
%TO.C,C1*%
X35479880Y-67714333D03*
X34878476Y-67495441D03*
%TD*%
D34*
%TO.C,TC4*%
X32127548Y-25099173D03*
X31597416Y-26555697D03*
%TD*%
D23*
%TO.C,TU3*%
X40849216Y-24239987D03*
X40379370Y-24068977D03*
X39909523Y-23897967D03*
X39439677Y-23726957D03*
X38969831Y-23555946D03*
X38499984Y-23384936D03*
X38030138Y-23213926D03*
X37560292Y-23042916D03*
D24*
X37150886Y-22164943D03*
X37321896Y-21695097D03*
X37492906Y-21225250D03*
X37663916Y-20755404D03*
X37834927Y-20285558D03*
X38005937Y-19815711D03*
X38176947Y-19345865D03*
X38347957Y-18876019D03*
D23*
X39225930Y-18466613D03*
X39695776Y-18637623D03*
X40165623Y-18808633D03*
X40635469Y-18979643D03*
X41105315Y-19150654D03*
X41575162Y-19321664D03*
X42045008Y-19492674D03*
X42514854Y-19663684D03*
D24*
X42924260Y-20541657D03*
X42753250Y-21011503D03*
X42582240Y-21481350D03*
X42411230Y-21951196D03*
X42240219Y-22421042D03*
X42069209Y-22890889D03*
X41898199Y-23360735D03*
X41727189Y-23830581D03*
D25*
X40037573Y-21353300D03*
%TD*%
D58*
%TO.C,SW2*%
X53026581Y-65481142D03*
X50807835Y-60723027D03*
X51485857Y-66199593D03*
X49267111Y-61441478D03*
%TD*%
D63*
%TO.C,C10*%
X23324867Y-72470616D03*
X23730581Y-73340672D03*
%TD*%
D54*
%TO.C,C42*%
X33602526Y-62741855D03*
X33001122Y-62522963D03*
%TD*%
D55*
%TO.C,R3*%
X38985111Y-73873777D03*
X39416181Y-74798211D03*
%TD*%
D81*
%TO.C,R4*%
X23960969Y-76697846D03*
X24885403Y-76266776D03*
%TD*%
D51*
%TO.C,R2*%
X47135371Y-82926912D03*
X46786511Y-83885398D03*
%TD*%
D26*
%TO.C,R16*%
X41150546Y-82210318D03*
X41499406Y-81251832D03*
%TD*%
D40*
%TO.C,C49*%
X39667283Y-69373872D03*
X40537339Y-68968158D03*
%TD*%
D77*
%TO.C,C25*%
X27722907Y-82612103D03*
X26318129Y-83267161D03*
%TD*%
D29*
%TO.C,C51*%
X27730692Y-58256922D03*
X27324978Y-57386866D03*
%TD*%
D86*
%TO.C,TC47*%
X43765030Y-17578021D03*
X44366434Y-17796913D03*
%TD*%
D42*
%TO.C,TJ2*%
X22415714Y-35418411D03*
D43*
X21562026Y-33587669D03*
D44*
X21042205Y-32472911D03*
D45*
X21993096Y-34512103D03*
D46*
X22846785Y-36342845D03*
D47*
X23366606Y-37457604D03*
D48*
X21075895Y-41146302D03*
D49*
X24320477Y-39633329D03*
D48*
X16744058Y-31856647D03*
D49*
X19988640Y-30343674D03*
%TD*%
D26*
%TO.C,R11*%
X21519934Y-60579978D03*
X21868794Y-59621492D03*
%TD*%
D65*
%TO.C,D_BAT*%
X41254619Y-74481588D03*
%TD*%
D63*
%TO.C,TC10*%
X23324867Y-30470616D03*
X23730581Y-31340672D03*
%TD*%
D65*
%TO.C,DINS*%
X48755724Y-81576194D03*
%TD*%
D88*
%TO.C,TY2*%
X35605692Y-35597236D03*
X29685628Y-33442509D03*
X29993446Y-32596786D03*
X35913510Y-34751513D03*
%TD*%
D63*
%TO.C,TC59*%
X32046231Y-13207378D03*
X32451945Y-14077434D03*
%TD*%
D55*
%TO.C,TR7*%
X31649637Y-36728756D03*
X32080707Y-37653190D03*
%TD*%
D29*
%TO.C,TC56*%
X26733753Y-16721802D03*
X26328039Y-15851746D03*
%TD*%
D37*
%TO.C,C61*%
X32898699Y-57082824D03*
X32028643Y-57488538D03*
%TD*%
D87*
%TO.C,TSW3*%
X18774382Y-19534157D03*
X16892950Y-24435454D03*
X20361468Y-20143382D03*
X18480036Y-25044679D03*
%TD*%
D79*
%TO.C,U4*%
X38767832Y-78536366D03*
X39660540Y-78861285D03*
X40553248Y-79186204D03*
X39775152Y-81324004D03*
X38882444Y-80999085D03*
X37989736Y-80674166D03*
%TD*%
D66*
%TO.C,C5*%
X29022841Y-71866541D03*
X28694501Y-72768645D03*
%TD*%
D27*
%TO.C,C35*%
X40612333Y-67475430D03*
X39710229Y-67147090D03*
%TD*%
D38*
%TO.C,JP1*%
X48325953Y-58826339D03*
D39*
X47011807Y-59439135D03*
%TD*%
D63*
%TO.C,C59*%
X32046231Y-55207378D03*
X32451945Y-56077434D03*
%TD*%
D65*
%TO.C,NRST*%
X48227081Y-29450951D03*
%TD*%
D22*
%TO.C,5V*%
X24277954Y-25060984D03*
%TD*%
D89*
%TO.C,FB1*%
X30081489Y-73134160D03*
X30620171Y-71654144D03*
%TD*%
D36*
%TO.C,C7*%
X37672143Y-76674822D03*
X37453251Y-77276226D03*
%TD*%
D85*
%TO.C,L2*%
X31669797Y-60552237D03*
X30771733Y-58626333D03*
%TD*%
D65*
%TO.C,CLK*%
X45930288Y-75280408D03*
%TD*%
D61*
%TO.C,TC43*%
X34614531Y-21411189D03*
X35516635Y-21739529D03*
%TD*%
D54*
%TO.C,TC1*%
X35479880Y-25714333D03*
X34878476Y-25495441D03*
%TD*%
D86*
%TO.C,C34*%
X39161575Y-67925631D03*
X39762979Y-68144523D03*
%TD*%
D57*
%TO.C,TR5*%
X24462785Y-33360468D03*
X23538351Y-33791538D03*
%TD*%
D27*
%TO.C,TC35*%
X40612333Y-25475430D03*
X39710229Y-25147090D03*
%TD*%
D61*
%TO.C,C43*%
X34614531Y-63411189D03*
X35516635Y-63739529D03*
%TD*%
D54*
%TO.C,TC44*%
X35637201Y-24868609D03*
X35035797Y-24649717D03*
%TD*%
D22*
%TO.C,A2*%
X30573859Y-53587896D03*
%TD*%
D41*
%TO.C,TR1*%
X45090623Y-39972927D03*
X44132137Y-39624067D03*
%TD*%
%TO.C,R1*%
X45090623Y-81972927D03*
X44132137Y-81624067D03*
%TD*%
D60*
%TO.C,C30*%
X48951943Y-66616678D03*
X49222419Y-67196714D03*
%TD*%
D40*
%TO.C,TC52*%
X33151586Y-17944021D03*
X34021642Y-17538307D03*
%TD*%
D90*
%TO.C,U2*%
X24911272Y-72536329D03*
X24636571Y-71947229D03*
X24361869Y-71358129D03*
X26083854Y-70555155D03*
X26633257Y-71733355D03*
%TD*%
D52*
%TO.C,L1*%
X35530039Y-81559545D03*
X33415731Y-80789999D03*
%TD*%
D82*
%TO.C,Y1*%
X43587566Y-70966286D03*
X41593689Y-71896046D03*
X40875238Y-70355322D03*
X42869115Y-69425562D03*
%TD*%
D84*
%TO.C,R12*%
X29276787Y-84261265D03*
X31031089Y-84764303D03*
%TD*%
D40*
%TO.C,TC49*%
X39667283Y-27373872D03*
X40537339Y-26968158D03*
%TD*%
D90*
%TO.C,TU2*%
X24911272Y-30536329D03*
X24636571Y-29947229D03*
X24361869Y-29358129D03*
X26083854Y-28555155D03*
X26633257Y-29733355D03*
%TD*%
D61*
%TO.C,C45*%
X35224029Y-65664745D03*
X36126133Y-65993085D03*
%TD*%
D30*
%TO.C,Li-po1*%
X35719028Y-85397777D03*
X35445411Y-86149531D03*
D31*
X37996054Y-84843116D03*
X36833186Y-88038071D03*
%TD*%
D32*
%TO.C,TQ1*%
X43625255Y-40867332D03*
X45410671Y-41517170D03*
X43621871Y-43654245D03*
%TD*%
D51*
%TO.C,TR2*%
X47135371Y-40926912D03*
X46786511Y-41885398D03*
%TD*%
D57*
%TO.C,R5*%
X24462785Y-75360468D03*
X23538351Y-75791538D03*
%TD*%
D26*
%TO.C,TR13*%
X25487665Y-43652216D03*
X25836525Y-42693730D03*
%TD*%
D86*
%TO.C,C36*%
X36854031Y-67236251D03*
X37455435Y-67455143D03*
%TD*%
D30*
%TO.C,J1*%
X49535728Y-73899960D03*
X49262112Y-74651714D03*
X48988496Y-75403468D03*
X48714879Y-76155222D03*
X48441263Y-76906976D03*
X48167647Y-77658730D03*
D31*
X51812755Y-73345298D03*
X49555422Y-79547270D03*
%TD*%
D35*
%TO.C,TC2*%
X36503050Y-32987046D03*
X37083086Y-32716570D03*
%TD*%
D26*
%TO.C,TR11*%
X21519934Y-18579978D03*
X21868794Y-17621492D03*
%TD*%
D33*
%TO.C,R14*%
X49739070Y-68304676D03*
X50510348Y-69958688D03*
%TD*%
D88*
%TO.C,Y2*%
X35605692Y-77597236D03*
X29685628Y-75442509D03*
X29993446Y-74596786D03*
X35913510Y-76751513D03*
%TD*%
D89*
%TO.C,TFB1*%
X30081489Y-31134160D03*
X30620171Y-29654144D03*
%TD*%
D35*
%TO.C,C2*%
X36503050Y-74987046D03*
X37083086Y-74716570D03*
%TD*%
D62*
%TO.C,C24*%
X24807879Y-77957993D03*
X26212657Y-77302935D03*
%TD*%
D22*
%TO.C,GND*%
X40903815Y-55391226D03*
%TD*%
D30*
%TO.C,TJ1*%
X49535728Y-31899960D03*
X49262112Y-32651714D03*
X48988496Y-33403468D03*
X48714879Y-34155222D03*
X48441263Y-34906976D03*
X48167647Y-35658730D03*
D31*
X51812755Y-31345298D03*
X49555422Y-37547270D03*
%TD*%
D67*
%TO.C,U1*%
X35723294Y-73390066D03*
D68*
X35273969Y-73162675D03*
X34804122Y-72991665D03*
X34334276Y-72820654D03*
X33864430Y-72649644D03*
X33394583Y-72478634D03*
D69*
X32904216Y-72364006D03*
D70*
X32606874Y-71726354D03*
D71*
X32834265Y-71277029D03*
X33005275Y-70807182D03*
X33176286Y-70337336D03*
X33347296Y-69867490D03*
X33518306Y-69397643D03*
D72*
X33632934Y-68907276D03*
D73*
X34270586Y-68609934D03*
D68*
X34719911Y-68837325D03*
X35189758Y-69008335D03*
X35659604Y-69179346D03*
X36129450Y-69350356D03*
X36599297Y-69521366D03*
D74*
X37089664Y-69635994D03*
D75*
X37387006Y-70273646D03*
D71*
X37159615Y-70722971D03*
X36988605Y-71192818D03*
X36817594Y-71662664D03*
X36646584Y-72132510D03*
X36475574Y-72602357D03*
D76*
X36360946Y-73092724D03*
%TD*%
D83*
%TO.C,TC29*%
X27304531Y-42285789D03*
X27919739Y-42462197D03*
%TD*%
D66*
%TO.C,C39*%
X36316581Y-61998970D03*
X35988241Y-62901074D03*
%TD*%
D64*
%TO.C,TR10*%
X23537531Y-18515394D03*
X22913345Y-20230334D03*
%TD*%
%LPD*%
M02*
