%TF.GenerationSoftware,KiCad,Pcbnew,7.0.10-7.0.10~ubuntu22.04.1*%
%TF.CreationDate,2024-04-13T21:42:08+02:00*%
%TF.ProjectId,STM32_watch_NFC,53544d33-325f-4776-9174-63685f4e4643,rev?*%
%TF.SameCoordinates,PX6c3df60PY1312d00*%
%TF.FileFunction,Paste,Top*%
%TF.FilePolarity,Positive*%
%FSLAX46Y46*%
G04 Gerber Fmt 4.6, Leading zero omitted, Abs format (unit mm)*
G04 Created by KiCad (PCBNEW 7.0.10-7.0.10~ubuntu22.04.1) date 2024-04-13 21:42:08*
%MOMM*%
%LPD*%
G01*
G04 APERTURE LIST*
G04 Aperture macros list*
%AMRoundRect*
0 Rectangle with rounded corners*
0 $1 Rounding radius*
0 $2 $3 $4 $5 $6 $7 $8 $9 X,Y pos of 4 corners*
0 Add a 4 corners polygon primitive as box body*
4,1,4,$2,$3,$4,$5,$6,$7,$8,$9,$2,$3,0*
0 Add four circle primitives for the rounded corners*
1,1,$1+$1,$2,$3*
1,1,$1+$1,$4,$5*
1,1,$1+$1,$6,$7*
1,1,$1+$1,$8,$9*
0 Add four rect primitives between the rounded corners*
20,1,$1+$1,$2,$3,$4,$5,0*
20,1,$1+$1,$4,$5,$6,$7,0*
20,1,$1+$1,$6,$7,$8,$9,0*
20,1,$1+$1,$8,$9,$2,$3,0*%
G04 Aperture macros list end*
%ADD10RoundRect,0.125000X0.166116X-0.060461X0.060461X0.166116X-0.166116X0.060461X-0.060461X-0.166116X0*%
%ADD11RoundRect,0.079500X-0.029578X-0.124682X0.114525X-0.057486X0.029578X0.124682X-0.114525X0.057486X0*%
G04 APERTURE END LIST*
D10*
%TO.C,D6*%
X46247409Y-79628087D03*
X47063086Y-79247730D03*
X46682729Y-78432053D03*
X45867052Y-78812410D03*
%TD*%
%TO.C,TD7*%
X40695936Y-42286326D03*
X41511613Y-41905969D03*
X41131256Y-41090292D03*
X40315579Y-41470649D03*
%TD*%
D11*
%TO.C,C21*%
X20250518Y-75448938D03*
X20875870Y-75157332D03*
%TD*%
D10*
%TO.C,TD6*%
X46247409Y-37628087D03*
X47063086Y-37247730D03*
X46682729Y-36432053D03*
X45867052Y-36812410D03*
%TD*%
%TO.C,D1*%
X28862624Y-58909708D03*
X29678301Y-58529351D03*
X29297944Y-57713674D03*
X28482267Y-58094031D03*
%TD*%
%TO.C,D4*%
X47467589Y-65681361D03*
X48283266Y-65301004D03*
X47902909Y-64485327D03*
X47087232Y-64865684D03*
%TD*%
%TO.C,D2*%
X35999460Y-57651291D03*
X36815137Y-57270934D03*
X36434780Y-56455257D03*
X35619103Y-56835614D03*
%TD*%
D11*
%TO.C,TC15*%
X45536505Y-21657888D03*
X46161857Y-21366282D03*
%TD*%
D10*
%TO.C,D5*%
X48726006Y-72818197D03*
X49541683Y-72437840D03*
X49161326Y-71622163D03*
X48345649Y-72002520D03*
%TD*%
%TO.C,TD3*%
X42809350Y-18129888D03*
X43625027Y-17749531D03*
X43244670Y-16933854D03*
X42428993Y-17314211D03*
%TD*%
D11*
%TO.C,TC14*%
X41037454Y-16032185D03*
X41662806Y-15740579D03*
%TD*%
D10*
%TO.C,TD9*%
X26749210Y-41066146D03*
X27564887Y-40685789D03*
X27184530Y-39870112D03*
X26368853Y-40250469D03*
%TD*%
%TO.C,TD12*%
X23311151Y-21567947D03*
X24126828Y-21187590D03*
X23746471Y-20371913D03*
X22930794Y-20752270D03*
%TD*%
D11*
%TO.C,C16*%
X46863479Y-70762756D03*
X47488831Y-70471150D03*
%TD*%
D10*
%TO.C,D12*%
X23311151Y-63567947D03*
X24126828Y-63187590D03*
X23746471Y-62371913D03*
X22930794Y-62752270D03*
%TD*%
D11*
%TO.C,C18*%
X38764852Y-82262853D03*
X39390204Y-81971247D03*
%TD*%
D10*
%TO.C,D9*%
X26749210Y-83066146D03*
X27564887Y-82685789D03*
X27184530Y-81870112D03*
X26368853Y-82250469D03*
%TD*%
D11*
%TO.C,TC16*%
X46863479Y-28762756D03*
X47488831Y-28471150D03*
%TD*%
%TO.C,C23*%
X21530838Y-61501042D03*
X22156190Y-61209436D03*
%TD*%
D10*
%TO.C,D7*%
X40695936Y-84286326D03*
X41511613Y-83905969D03*
X41131256Y-83090292D03*
X40315579Y-83470649D03*
%TD*%
D11*
%TO.C,C22*%
X18851039Y-68377880D03*
X19476391Y-68086274D03*
%TD*%
%TO.C,TC18*%
X38764852Y-40262853D03*
X39390204Y-39971247D03*
%TD*%
D10*
%TO.C,TD5*%
X48726006Y-30818197D03*
X49541683Y-30437840D03*
X49161326Y-29622163D03*
X48345649Y-30002520D03*
%TD*%
%TO.C,D10*%
X22090971Y-77514673D03*
X22906648Y-77134316D03*
X22526291Y-76318639D03*
X21710614Y-76698996D03*
%TD*%
D11*
%TO.C,TC23*%
X21530838Y-19501042D03*
X22156190Y-19209436D03*
%TD*%
%TO.C,TC20*%
X24749569Y-39074641D03*
X25374921Y-38783035D03*
%TD*%
D10*
%TO.C,D11*%
X20832554Y-70377837D03*
X21648231Y-69997480D03*
X21267874Y-69181803D03*
X20452197Y-69562160D03*
%TD*%
%TO.C,TD11*%
X20832554Y-28377837D03*
X21648231Y-27997480D03*
X21267874Y-27181803D03*
X20452197Y-27562160D03*
%TD*%
D11*
%TO.C,C14*%
X41037454Y-58032185D03*
X41662806Y-57740579D03*
%TD*%
D10*
%TO.C,D8*%
X33559100Y-85544743D03*
X34374777Y-85164386D03*
X33994420Y-84348709D03*
X33178743Y-84729066D03*
%TD*%
D11*
%TO.C,TC13*%
X34169300Y-13607630D03*
X34794652Y-13316024D03*
%TD*%
D10*
%TO.C,TD1*%
X28862624Y-16909708D03*
X29678301Y-16529351D03*
X29297944Y-15713674D03*
X28482267Y-16094031D03*
%TD*%
%TO.C,TD2*%
X35999460Y-15651291D03*
X36815137Y-15270934D03*
X36434780Y-14455257D03*
X35619103Y-14835614D03*
%TD*%
D11*
%TO.C,TC12*%
X27136986Y-14735265D03*
X27762338Y-14443659D03*
%TD*%
D10*
%TO.C,TD4*%
X47467589Y-23681361D03*
X48283266Y-23301004D03*
X47902909Y-22485327D03*
X47087232Y-22865684D03*
%TD*%
D11*
%TO.C,TC21*%
X20250518Y-33448938D03*
X20875870Y-33157332D03*
%TD*%
D10*
%TO.C,TD8*%
X33559100Y-43544743D03*
X34374777Y-43164386D03*
X33994420Y-42348709D03*
X33178743Y-42729066D03*
%TD*%
D11*
%TO.C,C15*%
X45536505Y-63657888D03*
X46161857Y-63366282D03*
%TD*%
%TO.C,C13*%
X34169300Y-55607630D03*
X34794652Y-55316024D03*
%TD*%
%TO.C,C19*%
X31708353Y-83456934D03*
X32333705Y-83165328D03*
%TD*%
%TO.C,TC19*%
X31708353Y-41456934D03*
X32333705Y-41165328D03*
%TD*%
%TO.C,TC17*%
X44306032Y-35582541D03*
X44931384Y-35290935D03*
%TD*%
%TO.C,C20*%
X24749569Y-81074641D03*
X25374921Y-80783035D03*
%TD*%
D10*
%TO.C,D3*%
X42809350Y-60129888D03*
X43625027Y-59749531D03*
X43244670Y-58933854D03*
X42428993Y-59314211D03*
%TD*%
%TO.C,TD10*%
X22090971Y-35514673D03*
X22906648Y-35134316D03*
X22526291Y-34318639D03*
X21710614Y-34698996D03*
%TD*%
D11*
%TO.C,C12*%
X27136986Y-56735265D03*
X27762338Y-56443659D03*
%TD*%
%TO.C,TC22*%
X18851039Y-26377880D03*
X19476391Y-26086274D03*
%TD*%
%TO.C,C17*%
X44306032Y-77582541D03*
X44931384Y-77290935D03*
%TD*%
M02*
