%TF.GenerationSoftware,KiCad,Pcbnew,7.0.10-7.0.10~ubuntu22.04.1*%
%TF.CreationDate,2024-04-10T21:14:16+02:00*%
%TF.ProjectId,STM32_watch_NFC,53544d33-325f-4776-9174-63685f4e4643,rev?*%
%TF.SameCoordinates,Original*%
%TF.FileFunction,Drillmap*%
%TF.FilePolarity,Positive*%
%FSLAX45Y45*%
G04 Gerber Fmt 4.5, Leading zero omitted, Abs format (unit mm)*
G04 Created by KiCad (PCBNEW 7.0.10-7.0.10~ubuntu22.04.1) date 2024-04-10 21:14:16*
%MOMM*%
%LPD*%
G01*
G04 APERTURE LIST*
%ADD10C,0.100000*%
%ADD11C,0.200000*%
G04 APERTURE END LIST*
D10*
X16850000Y-10500000D02*
G75*
G03*
X12850000Y-10500000I-2000000J0D01*
G01*
X12850000Y-10500000D02*
G75*
G03*
X16850000Y-10500000I2000000J0D01*
G01*
D11*
D10*
X13585000Y-11485000D02*
X13615000Y-11515000D01*
X13615000Y-11485000D02*
X13585000Y-11515000D01*
X13625000Y-10185000D02*
X13655000Y-10215000D01*
X13655000Y-10185000D02*
X13625000Y-10215000D01*
X13670000Y-9275000D02*
X13700000Y-9305000D01*
X13700000Y-9275000D02*
X13670000Y-9305000D01*
X13734999Y-11065000D02*
X13764999Y-11095000D01*
X13764999Y-11065000D02*
X13734999Y-11095000D01*
X13955000Y-11355000D02*
X13985000Y-11385000D01*
X13985000Y-11355000D02*
X13955000Y-11385000D01*
X13975000Y-10825000D02*
X14005000Y-10855000D01*
X14005000Y-10825000D02*
X13975000Y-10855000D01*
X14080000Y-11875000D02*
X14110000Y-11905000D01*
X14110000Y-11875000D02*
X14080000Y-11905000D01*
X14145000Y-11315000D02*
X14175000Y-11345000D01*
X14175000Y-11315000D02*
X14145000Y-11345000D01*
X14275000Y-8935000D02*
X14305000Y-8965000D01*
X14305000Y-8935000D02*
X14275000Y-8965000D01*
X14275000Y-11585000D02*
X14305000Y-11615000D01*
X14305000Y-11585000D02*
X14275000Y-11615000D01*
X14405000Y-9365000D02*
X14435000Y-9395000D01*
X14435000Y-9365000D02*
X14405000Y-9395000D01*
X14495000Y-10535000D02*
X14525000Y-10565000D01*
X14525000Y-10535000D02*
X14495000Y-10565000D01*
X14510000Y-10750000D02*
X14540000Y-10780000D01*
X14540000Y-10750000D02*
X14510000Y-10780000D01*
X14519827Y-10375747D02*
X14549827Y-10405747D01*
X14549827Y-10375747D02*
X14519827Y-10405747D01*
X14570000Y-10325000D02*
X14600000Y-10355000D01*
X14600000Y-10325000D02*
X14570000Y-10355000D01*
X14620000Y-10270002D02*
X14650000Y-10300002D01*
X14650000Y-10270002D02*
X14620000Y-10300002D01*
X14676056Y-10215173D02*
X14706056Y-10245173D01*
X14706056Y-10215173D02*
X14676056Y-10245173D01*
X14705000Y-10485000D02*
X14735000Y-10515000D01*
X14735000Y-10485000D02*
X14705000Y-10515000D01*
X14729019Y-10166728D02*
X14759019Y-10196728D01*
X14759019Y-10166728D02*
X14729019Y-10196728D01*
X14745000Y-9485000D02*
X14775000Y-9515000D01*
X14775000Y-9485000D02*
X14745000Y-9515000D01*
X14825816Y-10435000D02*
X14855816Y-10465000D01*
X14855816Y-10435000D02*
X14825816Y-10465000D01*
X14875000Y-11975000D02*
X14905000Y-12005000D01*
X14905000Y-11975000D02*
X14875000Y-12005000D01*
X14885000Y-10115000D02*
X14915000Y-10145000D01*
X14915000Y-10115000D02*
X14885000Y-10145000D01*
X14906331Y-10491080D02*
X14936331Y-10521080D01*
X14936331Y-10491080D02*
X14906331Y-10521080D01*
X14945000Y-9745000D02*
X14975000Y-9775000D01*
X14975000Y-9745000D02*
X14945000Y-9775000D01*
X14975000Y-9485000D02*
X15005000Y-9515000D01*
X15005000Y-9485000D02*
X14975000Y-9515000D01*
X15035000Y-11605000D02*
X15065000Y-11635000D01*
X15065000Y-11605000D02*
X15035000Y-11635000D01*
X15085000Y-10825000D02*
X15115000Y-10855000D01*
X15115000Y-10825000D02*
X15085000Y-10855000D01*
X15087180Y-10667362D02*
X15117180Y-10697362D01*
X15117180Y-10667362D02*
X15087180Y-10697362D01*
X15115000Y-10345000D02*
X15145000Y-10375000D01*
X15145000Y-10345000D02*
X15115000Y-10375000D01*
X15133755Y-10608576D02*
X15163755Y-10638576D01*
X15163755Y-10608576D02*
X15133755Y-10638576D01*
X15135000Y-11560000D02*
X15165000Y-11590000D01*
X15165000Y-11560000D02*
X15135000Y-11590000D01*
X15145000Y-9915000D02*
X15175000Y-9945000D01*
X15175000Y-9915000D02*
X15145000Y-9945000D01*
X15165000Y-10395000D02*
X15195000Y-10425000D01*
X15195000Y-10395000D02*
X15165000Y-10425000D01*
X15199679Y-10026082D02*
X15229679Y-10056082D01*
X15229679Y-10026082D02*
X15199679Y-10056082D01*
X15255000Y-11775000D02*
X15285000Y-11805000D01*
X15285000Y-11775000D02*
X15255000Y-11805000D01*
X15269159Y-10002861D02*
X15299159Y-10032861D01*
X15299159Y-10002861D02*
X15269159Y-10032861D01*
X15325000Y-9635000D02*
X15355000Y-9665000D01*
X15355000Y-9635000D02*
X15325000Y-9665000D01*
X15330000Y-11845000D02*
X15360000Y-11875000D01*
X15360000Y-11845000D02*
X15330000Y-11875000D01*
X15335000Y-9435000D02*
X15365000Y-9465000D01*
X15365000Y-9435000D02*
X15335000Y-9465000D01*
X15415000Y-9635000D02*
X15445000Y-9665000D01*
X15445000Y-9635000D02*
X15415000Y-9665000D01*
X15575000Y-9615000D02*
X15605000Y-9645000D01*
X15605000Y-9615000D02*
X15575000Y-9645000D01*
X15719090Y-10409991D02*
X15749090Y-10439991D01*
X15749090Y-10409991D02*
X15719090Y-10439991D01*
X15755000Y-11835000D02*
X15785000Y-11865000D01*
X15785000Y-11835000D02*
X15755000Y-11865000D01*
X15773485Y-10365839D02*
X15803485Y-10395839D01*
X15803485Y-10365839D02*
X15773485Y-10395839D01*
X15805000Y-11585000D02*
X15835000Y-11615000D01*
X15835000Y-11585000D02*
X15805000Y-11615000D01*
X15824458Y-10317862D02*
X15854458Y-10347862D01*
X15854458Y-10317862D02*
X15824458Y-10347862D01*
X15840000Y-11435000D02*
X15870000Y-11465000D01*
X15870000Y-11435000D02*
X15840000Y-11465000D01*
X15873904Y-10265000D02*
X15903904Y-10295000D01*
X15903904Y-10265000D02*
X15873904Y-10295000D01*
X15910000Y-11380000D02*
X15940000Y-11410000D01*
X15940000Y-11380000D02*
X15910000Y-11410000D01*
X15920000Y-10210000D02*
X15950000Y-10240000D01*
X15950000Y-10210000D02*
X15920000Y-10240000D01*
X15935000Y-10565000D02*
X15965000Y-10595000D01*
X15965000Y-10565000D02*
X15935000Y-10595000D01*
X16115000Y-10865000D02*
X16145000Y-10895000D01*
X16145000Y-10865000D02*
X16115000Y-10895000D01*
X14000000Y-10510000D02*
G75*
G03*
X13960000Y-10510000I-20000J0D01*
G01*
X13960000Y-10510000D02*
G75*
G03*
X14000000Y-10510000I20000J0D01*
G01*
X14430000Y-9850000D02*
G75*
G03*
X14390000Y-9850000I-20000J0D01*
G01*
X14390000Y-9850000D02*
G75*
G03*
X14430000Y-9850000I20000J0D01*
G01*
X14800000Y-9880000D02*
G75*
G03*
X14760000Y-9880000I-20000J0D01*
G01*
X14760000Y-9880000D02*
G75*
G03*
X14800000Y-9880000I20000J0D01*
G01*
X14830000Y-10550000D02*
G75*
G03*
X14790000Y-10550000I-20000J0D01*
G01*
X14790000Y-10550000D02*
G75*
G03*
X14830000Y-10550000I20000J0D01*
G01*
X14920000Y-11220000D02*
G75*
G03*
X14880000Y-11220000I-20000J0D01*
G01*
X14880000Y-11220000D02*
G75*
G03*
X14920000Y-11220000I20000J0D01*
G01*
X15070000Y-11170000D02*
G75*
G03*
X15030000Y-11170000I-20000J0D01*
G01*
X15030000Y-11170000D02*
G75*
G03*
X15070000Y-11170000I20000J0D01*
G01*
X15114055Y-10282974D02*
G75*
G03*
X15074055Y-10282974I-20000J0D01*
G01*
X15074055Y-10282974D02*
G75*
G03*
X15114055Y-10282974I20000J0D01*
G01*
X16000000Y-10750000D02*
G75*
G03*
X15960000Y-10750000I-20000J0D01*
G01*
X15960000Y-10750000D02*
G75*
G03*
X16000000Y-10750000I20000J0D01*
G01*
D11*
X13105777Y-12816484D02*
X13105777Y-12616484D01*
X13105777Y-12616484D02*
X13153396Y-12616484D01*
X13153396Y-12616484D02*
X13181967Y-12626008D01*
X13181967Y-12626008D02*
X13201015Y-12645055D01*
X13201015Y-12645055D02*
X13210539Y-12664103D01*
X13210539Y-12664103D02*
X13220062Y-12702198D01*
X13220062Y-12702198D02*
X13220062Y-12730769D01*
X13220062Y-12730769D02*
X13210539Y-12768865D01*
X13210539Y-12768865D02*
X13201015Y-12787912D01*
X13201015Y-12787912D02*
X13181967Y-12806960D01*
X13181967Y-12806960D02*
X13153396Y-12816484D01*
X13153396Y-12816484D02*
X13105777Y-12816484D01*
X13305777Y-12816484D02*
X13305777Y-12683150D01*
X13305777Y-12721246D02*
X13315301Y-12702198D01*
X13315301Y-12702198D02*
X13324824Y-12692674D01*
X13324824Y-12692674D02*
X13343872Y-12683150D01*
X13343872Y-12683150D02*
X13362920Y-12683150D01*
X13429586Y-12816484D02*
X13429586Y-12683150D01*
X13429586Y-12616484D02*
X13420062Y-12626008D01*
X13420062Y-12626008D02*
X13429586Y-12635531D01*
X13429586Y-12635531D02*
X13439110Y-12626008D01*
X13439110Y-12626008D02*
X13429586Y-12616484D01*
X13429586Y-12616484D02*
X13429586Y-12635531D01*
X13553396Y-12816484D02*
X13534348Y-12806960D01*
X13534348Y-12806960D02*
X13524824Y-12787912D01*
X13524824Y-12787912D02*
X13524824Y-12616484D01*
X13658158Y-12816484D02*
X13639110Y-12806960D01*
X13639110Y-12806960D02*
X13629586Y-12787912D01*
X13629586Y-12787912D02*
X13629586Y-12616484D01*
X13886729Y-12816484D02*
X13886729Y-12616484D01*
X13886729Y-12616484D02*
X13953396Y-12759341D01*
X13953396Y-12759341D02*
X14020062Y-12616484D01*
X14020062Y-12616484D02*
X14020062Y-12816484D01*
X14201015Y-12816484D02*
X14201015Y-12711722D01*
X14201015Y-12711722D02*
X14191491Y-12692674D01*
X14191491Y-12692674D02*
X14172443Y-12683150D01*
X14172443Y-12683150D02*
X14134348Y-12683150D01*
X14134348Y-12683150D02*
X14115301Y-12692674D01*
X14201015Y-12806960D02*
X14181967Y-12816484D01*
X14181967Y-12816484D02*
X14134348Y-12816484D01*
X14134348Y-12816484D02*
X14115301Y-12806960D01*
X14115301Y-12806960D02*
X14105777Y-12787912D01*
X14105777Y-12787912D02*
X14105777Y-12768865D01*
X14105777Y-12768865D02*
X14115301Y-12749817D01*
X14115301Y-12749817D02*
X14134348Y-12740293D01*
X14134348Y-12740293D02*
X14181967Y-12740293D01*
X14181967Y-12740293D02*
X14201015Y-12730769D01*
X14296253Y-12683150D02*
X14296253Y-12883150D01*
X14296253Y-12692674D02*
X14315301Y-12683150D01*
X14315301Y-12683150D02*
X14353396Y-12683150D01*
X14353396Y-12683150D02*
X14372443Y-12692674D01*
X14372443Y-12692674D02*
X14381967Y-12702198D01*
X14381967Y-12702198D02*
X14391491Y-12721246D01*
X14391491Y-12721246D02*
X14391491Y-12778388D01*
X14391491Y-12778388D02*
X14381967Y-12797436D01*
X14381967Y-12797436D02*
X14372443Y-12806960D01*
X14372443Y-12806960D02*
X14353396Y-12816484D01*
X14353396Y-12816484D02*
X14315301Y-12816484D01*
X14315301Y-12816484D02*
X14296253Y-12806960D01*
X14477205Y-12797436D02*
X14486729Y-12806960D01*
X14486729Y-12806960D02*
X14477205Y-12816484D01*
X14477205Y-12816484D02*
X14467682Y-12806960D01*
X14467682Y-12806960D02*
X14477205Y-12797436D01*
X14477205Y-12797436D02*
X14477205Y-12816484D01*
X14477205Y-12692674D02*
X14486729Y-12702198D01*
X14486729Y-12702198D02*
X14477205Y-12711722D01*
X14477205Y-12711722D02*
X14467682Y-12702198D01*
X14467682Y-12702198D02*
X14477205Y-12692674D01*
X14477205Y-12692674D02*
X14477205Y-12711722D01*
D10*
X12815000Y-13130000D02*
X12845000Y-13160000D01*
X12845000Y-13130000D02*
X12815000Y-13160000D01*
D11*
X13143872Y-13036484D02*
X13162920Y-13036484D01*
X13162920Y-13036484D02*
X13181967Y-13046008D01*
X13181967Y-13046008D02*
X13191491Y-13055531D01*
X13191491Y-13055531D02*
X13201015Y-13074579D01*
X13201015Y-13074579D02*
X13210539Y-13112674D01*
X13210539Y-13112674D02*
X13210539Y-13160293D01*
X13210539Y-13160293D02*
X13201015Y-13198388D01*
X13201015Y-13198388D02*
X13191491Y-13217436D01*
X13191491Y-13217436D02*
X13181967Y-13226960D01*
X13181967Y-13226960D02*
X13162920Y-13236484D01*
X13162920Y-13236484D02*
X13143872Y-13236484D01*
X13143872Y-13236484D02*
X13124824Y-13226960D01*
X13124824Y-13226960D02*
X13115301Y-13217436D01*
X13115301Y-13217436D02*
X13105777Y-13198388D01*
X13105777Y-13198388D02*
X13096253Y-13160293D01*
X13096253Y-13160293D02*
X13096253Y-13112674D01*
X13096253Y-13112674D02*
X13105777Y-13074579D01*
X13105777Y-13074579D02*
X13115301Y-13055531D01*
X13115301Y-13055531D02*
X13124824Y-13046008D01*
X13124824Y-13046008D02*
X13143872Y-13036484D01*
X13296253Y-13217436D02*
X13305777Y-13226960D01*
X13305777Y-13226960D02*
X13296253Y-13236484D01*
X13296253Y-13236484D02*
X13286729Y-13226960D01*
X13286729Y-13226960D02*
X13296253Y-13217436D01*
X13296253Y-13217436D02*
X13296253Y-13236484D01*
X13372443Y-13036484D02*
X13496253Y-13036484D01*
X13496253Y-13036484D02*
X13429586Y-13112674D01*
X13429586Y-13112674D02*
X13458158Y-13112674D01*
X13458158Y-13112674D02*
X13477205Y-13122198D01*
X13477205Y-13122198D02*
X13486729Y-13131722D01*
X13486729Y-13131722D02*
X13496253Y-13150769D01*
X13496253Y-13150769D02*
X13496253Y-13198388D01*
X13496253Y-13198388D02*
X13486729Y-13217436D01*
X13486729Y-13217436D02*
X13477205Y-13226960D01*
X13477205Y-13226960D02*
X13458158Y-13236484D01*
X13458158Y-13236484D02*
X13401015Y-13236484D01*
X13401015Y-13236484D02*
X13381967Y-13226960D01*
X13381967Y-13226960D02*
X13372443Y-13217436D01*
X13620062Y-13036484D02*
X13639110Y-13036484D01*
X13639110Y-13036484D02*
X13658158Y-13046008D01*
X13658158Y-13046008D02*
X13667682Y-13055531D01*
X13667682Y-13055531D02*
X13677205Y-13074579D01*
X13677205Y-13074579D02*
X13686729Y-13112674D01*
X13686729Y-13112674D02*
X13686729Y-13160293D01*
X13686729Y-13160293D02*
X13677205Y-13198388D01*
X13677205Y-13198388D02*
X13667682Y-13217436D01*
X13667682Y-13217436D02*
X13658158Y-13226960D01*
X13658158Y-13226960D02*
X13639110Y-13236484D01*
X13639110Y-13236484D02*
X13620062Y-13236484D01*
X13620062Y-13236484D02*
X13601015Y-13226960D01*
X13601015Y-13226960D02*
X13591491Y-13217436D01*
X13591491Y-13217436D02*
X13581967Y-13198388D01*
X13581967Y-13198388D02*
X13572443Y-13160293D01*
X13572443Y-13160293D02*
X13572443Y-13112674D01*
X13572443Y-13112674D02*
X13581967Y-13074579D01*
X13581967Y-13074579D02*
X13591491Y-13055531D01*
X13591491Y-13055531D02*
X13601015Y-13046008D01*
X13601015Y-13046008D02*
X13620062Y-13036484D01*
X13810539Y-13036484D02*
X13829586Y-13036484D01*
X13829586Y-13036484D02*
X13848634Y-13046008D01*
X13848634Y-13046008D02*
X13858158Y-13055531D01*
X13858158Y-13055531D02*
X13867682Y-13074579D01*
X13867682Y-13074579D02*
X13877205Y-13112674D01*
X13877205Y-13112674D02*
X13877205Y-13160293D01*
X13877205Y-13160293D02*
X13867682Y-13198388D01*
X13867682Y-13198388D02*
X13858158Y-13217436D01*
X13858158Y-13217436D02*
X13848634Y-13226960D01*
X13848634Y-13226960D02*
X13829586Y-13236484D01*
X13829586Y-13236484D02*
X13810539Y-13236484D01*
X13810539Y-13236484D02*
X13791491Y-13226960D01*
X13791491Y-13226960D02*
X13781967Y-13217436D01*
X13781967Y-13217436D02*
X13772443Y-13198388D01*
X13772443Y-13198388D02*
X13762920Y-13160293D01*
X13762920Y-13160293D02*
X13762920Y-13112674D01*
X13762920Y-13112674D02*
X13772443Y-13074579D01*
X13772443Y-13074579D02*
X13781967Y-13055531D01*
X13781967Y-13055531D02*
X13791491Y-13046008D01*
X13791491Y-13046008D02*
X13810539Y-13036484D01*
X13962920Y-13236484D02*
X13962920Y-13103150D01*
X13962920Y-13122198D02*
X13972443Y-13112674D01*
X13972443Y-13112674D02*
X13991491Y-13103150D01*
X13991491Y-13103150D02*
X14020063Y-13103150D01*
X14020063Y-13103150D02*
X14039110Y-13112674D01*
X14039110Y-13112674D02*
X14048634Y-13131722D01*
X14048634Y-13131722D02*
X14048634Y-13236484D01*
X14048634Y-13131722D02*
X14058158Y-13112674D01*
X14058158Y-13112674D02*
X14077205Y-13103150D01*
X14077205Y-13103150D02*
X14105777Y-13103150D01*
X14105777Y-13103150D02*
X14124824Y-13112674D01*
X14124824Y-13112674D02*
X14134348Y-13131722D01*
X14134348Y-13131722D02*
X14134348Y-13236484D01*
X14229586Y-13236484D02*
X14229586Y-13103150D01*
X14229586Y-13122198D02*
X14239110Y-13112674D01*
X14239110Y-13112674D02*
X14258158Y-13103150D01*
X14258158Y-13103150D02*
X14286729Y-13103150D01*
X14286729Y-13103150D02*
X14305777Y-13112674D01*
X14305777Y-13112674D02*
X14315301Y-13131722D01*
X14315301Y-13131722D02*
X14315301Y-13236484D01*
X14315301Y-13131722D02*
X14324824Y-13112674D01*
X14324824Y-13112674D02*
X14343872Y-13103150D01*
X14343872Y-13103150D02*
X14372443Y-13103150D01*
X14372443Y-13103150D02*
X14391491Y-13112674D01*
X14391491Y-13112674D02*
X14401015Y-13131722D01*
X14401015Y-13131722D02*
X14401015Y-13236484D01*
X14791491Y-13026960D02*
X14620063Y-13284103D01*
X15048634Y-13036484D02*
X15067682Y-13036484D01*
X15067682Y-13036484D02*
X15086729Y-13046008D01*
X15086729Y-13046008D02*
X15096253Y-13055531D01*
X15096253Y-13055531D02*
X15105777Y-13074579D01*
X15105777Y-13074579D02*
X15115301Y-13112674D01*
X15115301Y-13112674D02*
X15115301Y-13160293D01*
X15115301Y-13160293D02*
X15105777Y-13198388D01*
X15105777Y-13198388D02*
X15096253Y-13217436D01*
X15096253Y-13217436D02*
X15086729Y-13226960D01*
X15086729Y-13226960D02*
X15067682Y-13236484D01*
X15067682Y-13236484D02*
X15048634Y-13236484D01*
X15048634Y-13236484D02*
X15029586Y-13226960D01*
X15029586Y-13226960D02*
X15020063Y-13217436D01*
X15020063Y-13217436D02*
X15010539Y-13198388D01*
X15010539Y-13198388D02*
X15001015Y-13160293D01*
X15001015Y-13160293D02*
X15001015Y-13112674D01*
X15001015Y-13112674D02*
X15010539Y-13074579D01*
X15010539Y-13074579D02*
X15020063Y-13055531D01*
X15020063Y-13055531D02*
X15029586Y-13046008D01*
X15029586Y-13046008D02*
X15048634Y-13036484D01*
X15201015Y-13217436D02*
X15210539Y-13226960D01*
X15210539Y-13226960D02*
X15201015Y-13236484D01*
X15201015Y-13236484D02*
X15191491Y-13226960D01*
X15191491Y-13226960D02*
X15201015Y-13217436D01*
X15201015Y-13217436D02*
X15201015Y-13236484D01*
X15334348Y-13036484D02*
X15353396Y-13036484D01*
X15353396Y-13036484D02*
X15372444Y-13046008D01*
X15372444Y-13046008D02*
X15381967Y-13055531D01*
X15381967Y-13055531D02*
X15391491Y-13074579D01*
X15391491Y-13074579D02*
X15401015Y-13112674D01*
X15401015Y-13112674D02*
X15401015Y-13160293D01*
X15401015Y-13160293D02*
X15391491Y-13198388D01*
X15391491Y-13198388D02*
X15381967Y-13217436D01*
X15381967Y-13217436D02*
X15372444Y-13226960D01*
X15372444Y-13226960D02*
X15353396Y-13236484D01*
X15353396Y-13236484D02*
X15334348Y-13236484D01*
X15334348Y-13236484D02*
X15315301Y-13226960D01*
X15315301Y-13226960D02*
X15305777Y-13217436D01*
X15305777Y-13217436D02*
X15296253Y-13198388D01*
X15296253Y-13198388D02*
X15286729Y-13160293D01*
X15286729Y-13160293D02*
X15286729Y-13112674D01*
X15286729Y-13112674D02*
X15296253Y-13074579D01*
X15296253Y-13074579D02*
X15305777Y-13055531D01*
X15305777Y-13055531D02*
X15315301Y-13046008D01*
X15315301Y-13046008D02*
X15334348Y-13036484D01*
X15591491Y-13236484D02*
X15477206Y-13236484D01*
X15534348Y-13236484D02*
X15534348Y-13036484D01*
X15534348Y-13036484D02*
X15515301Y-13065055D01*
X15515301Y-13065055D02*
X15496253Y-13084103D01*
X15496253Y-13084103D02*
X15477206Y-13093627D01*
X15781967Y-13236484D02*
X15667682Y-13236484D01*
X15724825Y-13236484D02*
X15724825Y-13036484D01*
X15724825Y-13036484D02*
X15705777Y-13065055D01*
X15705777Y-13065055D02*
X15686729Y-13084103D01*
X15686729Y-13084103D02*
X15667682Y-13093627D01*
X15896253Y-13122198D02*
X15877206Y-13112674D01*
X15877206Y-13112674D02*
X15867682Y-13103150D01*
X15867682Y-13103150D02*
X15858158Y-13084103D01*
X15858158Y-13084103D02*
X15858158Y-13074579D01*
X15858158Y-13074579D02*
X15867682Y-13055531D01*
X15867682Y-13055531D02*
X15877206Y-13046008D01*
X15877206Y-13046008D02*
X15896253Y-13036484D01*
X15896253Y-13036484D02*
X15934348Y-13036484D01*
X15934348Y-13036484D02*
X15953396Y-13046008D01*
X15953396Y-13046008D02*
X15962920Y-13055531D01*
X15962920Y-13055531D02*
X15972444Y-13074579D01*
X15972444Y-13074579D02*
X15972444Y-13084103D01*
X15972444Y-13084103D02*
X15962920Y-13103150D01*
X15962920Y-13103150D02*
X15953396Y-13112674D01*
X15953396Y-13112674D02*
X15934348Y-13122198D01*
X15934348Y-13122198D02*
X15896253Y-13122198D01*
X15896253Y-13122198D02*
X15877206Y-13131722D01*
X15877206Y-13131722D02*
X15867682Y-13141246D01*
X15867682Y-13141246D02*
X15858158Y-13160293D01*
X15858158Y-13160293D02*
X15858158Y-13198388D01*
X15858158Y-13198388D02*
X15867682Y-13217436D01*
X15867682Y-13217436D02*
X15877206Y-13226960D01*
X15877206Y-13226960D02*
X15896253Y-13236484D01*
X15896253Y-13236484D02*
X15934348Y-13236484D01*
X15934348Y-13236484D02*
X15953396Y-13226960D01*
X15953396Y-13226960D02*
X15962920Y-13217436D01*
X15962920Y-13217436D02*
X15972444Y-13198388D01*
X15972444Y-13198388D02*
X15972444Y-13160293D01*
X15972444Y-13160293D02*
X15962920Y-13141246D01*
X15962920Y-13141246D02*
X15953396Y-13131722D01*
X15953396Y-13131722D02*
X15934348Y-13122198D01*
X16048634Y-13036484D02*
X16048634Y-13074579D01*
X16124825Y-13036484D02*
X16124825Y-13074579D01*
X16420063Y-13312674D02*
X16410539Y-13303150D01*
X16410539Y-13303150D02*
X16391491Y-13274579D01*
X16391491Y-13274579D02*
X16381968Y-13255531D01*
X16381968Y-13255531D02*
X16372444Y-13226960D01*
X16372444Y-13226960D02*
X16362920Y-13179341D01*
X16362920Y-13179341D02*
X16362920Y-13141246D01*
X16362920Y-13141246D02*
X16372444Y-13093627D01*
X16372444Y-13093627D02*
X16381968Y-13065055D01*
X16381968Y-13065055D02*
X16391491Y-13046008D01*
X16391491Y-13046008D02*
X16410539Y-13017436D01*
X16410539Y-13017436D02*
X16420063Y-13007912D01*
X16591491Y-13036484D02*
X16496253Y-13036484D01*
X16496253Y-13036484D02*
X16486729Y-13131722D01*
X16486729Y-13131722D02*
X16496253Y-13122198D01*
X16496253Y-13122198D02*
X16515301Y-13112674D01*
X16515301Y-13112674D02*
X16562920Y-13112674D01*
X16562920Y-13112674D02*
X16581968Y-13122198D01*
X16581968Y-13122198D02*
X16591491Y-13131722D01*
X16591491Y-13131722D02*
X16601015Y-13150769D01*
X16601015Y-13150769D02*
X16601015Y-13198388D01*
X16601015Y-13198388D02*
X16591491Y-13217436D01*
X16591491Y-13217436D02*
X16581968Y-13226960D01*
X16581968Y-13226960D02*
X16562920Y-13236484D01*
X16562920Y-13236484D02*
X16515301Y-13236484D01*
X16515301Y-13236484D02*
X16496253Y-13226960D01*
X16496253Y-13226960D02*
X16486729Y-13217436D01*
X16667682Y-13036484D02*
X16791491Y-13036484D01*
X16791491Y-13036484D02*
X16724825Y-13112674D01*
X16724825Y-13112674D02*
X16753396Y-13112674D01*
X16753396Y-13112674D02*
X16772444Y-13122198D01*
X16772444Y-13122198D02*
X16781968Y-13131722D01*
X16781968Y-13131722D02*
X16791491Y-13150769D01*
X16791491Y-13150769D02*
X16791491Y-13198388D01*
X16791491Y-13198388D02*
X16781968Y-13217436D01*
X16781968Y-13217436D02*
X16772444Y-13226960D01*
X16772444Y-13226960D02*
X16753396Y-13236484D01*
X16753396Y-13236484D02*
X16696253Y-13236484D01*
X16696253Y-13236484D02*
X16677206Y-13226960D01*
X16677206Y-13226960D02*
X16667682Y-13217436D01*
X17029587Y-13236484D02*
X17029587Y-13036484D01*
X17115301Y-13236484D02*
X17115301Y-13131722D01*
X17115301Y-13131722D02*
X17105777Y-13112674D01*
X17105777Y-13112674D02*
X17086730Y-13103150D01*
X17086730Y-13103150D02*
X17058158Y-13103150D01*
X17058158Y-13103150D02*
X17039111Y-13112674D01*
X17039111Y-13112674D02*
X17029587Y-13122198D01*
X17239111Y-13236484D02*
X17220063Y-13226960D01*
X17220063Y-13226960D02*
X17210539Y-13217436D01*
X17210539Y-13217436D02*
X17201015Y-13198388D01*
X17201015Y-13198388D02*
X17201015Y-13141246D01*
X17201015Y-13141246D02*
X17210539Y-13122198D01*
X17210539Y-13122198D02*
X17220063Y-13112674D01*
X17220063Y-13112674D02*
X17239111Y-13103150D01*
X17239111Y-13103150D02*
X17267682Y-13103150D01*
X17267682Y-13103150D02*
X17286730Y-13112674D01*
X17286730Y-13112674D02*
X17296253Y-13122198D01*
X17296253Y-13122198D02*
X17305777Y-13141246D01*
X17305777Y-13141246D02*
X17305777Y-13198388D01*
X17305777Y-13198388D02*
X17296253Y-13217436D01*
X17296253Y-13217436D02*
X17286730Y-13226960D01*
X17286730Y-13226960D02*
X17267682Y-13236484D01*
X17267682Y-13236484D02*
X17239111Y-13236484D01*
X17420063Y-13236484D02*
X17401015Y-13226960D01*
X17401015Y-13226960D02*
X17391492Y-13207912D01*
X17391492Y-13207912D02*
X17391492Y-13036484D01*
X17572444Y-13226960D02*
X17553396Y-13236484D01*
X17553396Y-13236484D02*
X17515301Y-13236484D01*
X17515301Y-13236484D02*
X17496253Y-13226960D01*
X17496253Y-13226960D02*
X17486730Y-13207912D01*
X17486730Y-13207912D02*
X17486730Y-13131722D01*
X17486730Y-13131722D02*
X17496253Y-13112674D01*
X17496253Y-13112674D02*
X17515301Y-13103150D01*
X17515301Y-13103150D02*
X17553396Y-13103150D01*
X17553396Y-13103150D02*
X17572444Y-13112674D01*
X17572444Y-13112674D02*
X17581968Y-13131722D01*
X17581968Y-13131722D02*
X17581968Y-13150769D01*
X17581968Y-13150769D02*
X17486730Y-13169817D01*
X17658158Y-13226960D02*
X17677206Y-13236484D01*
X17677206Y-13236484D02*
X17715301Y-13236484D01*
X17715301Y-13236484D02*
X17734349Y-13226960D01*
X17734349Y-13226960D02*
X17743873Y-13207912D01*
X17743873Y-13207912D02*
X17743873Y-13198388D01*
X17743873Y-13198388D02*
X17734349Y-13179341D01*
X17734349Y-13179341D02*
X17715301Y-13169817D01*
X17715301Y-13169817D02*
X17686730Y-13169817D01*
X17686730Y-13169817D02*
X17667682Y-13160293D01*
X17667682Y-13160293D02*
X17658158Y-13141246D01*
X17658158Y-13141246D02*
X17658158Y-13131722D01*
X17658158Y-13131722D02*
X17667682Y-13112674D01*
X17667682Y-13112674D02*
X17686730Y-13103150D01*
X17686730Y-13103150D02*
X17715301Y-13103150D01*
X17715301Y-13103150D02*
X17734349Y-13112674D01*
X17810539Y-13312674D02*
X17820063Y-13303150D01*
X17820063Y-13303150D02*
X17839111Y-13274579D01*
X17839111Y-13274579D02*
X17848634Y-13255531D01*
X17848634Y-13255531D02*
X17858158Y-13226960D01*
X17858158Y-13226960D02*
X17867682Y-13179341D01*
X17867682Y-13179341D02*
X17867682Y-13141246D01*
X17867682Y-13141246D02*
X17858158Y-13093627D01*
X17858158Y-13093627D02*
X17848634Y-13065055D01*
X17848634Y-13065055D02*
X17839111Y-13046008D01*
X17839111Y-13046008D02*
X17820063Y-13017436D01*
X17820063Y-13017436D02*
X17810539Y-13007912D01*
D10*
X12845000Y-13409000D02*
G75*
G03*
X12805000Y-13409000I-20000J0D01*
G01*
X12805000Y-13409000D02*
G75*
G03*
X12845000Y-13409000I20000J0D01*
G01*
D11*
X13143872Y-13300484D02*
X13162920Y-13300484D01*
X13162920Y-13300484D02*
X13181967Y-13310008D01*
X13181967Y-13310008D02*
X13191491Y-13319531D01*
X13191491Y-13319531D02*
X13201015Y-13338579D01*
X13201015Y-13338579D02*
X13210539Y-13376674D01*
X13210539Y-13376674D02*
X13210539Y-13424293D01*
X13210539Y-13424293D02*
X13201015Y-13462388D01*
X13201015Y-13462388D02*
X13191491Y-13481436D01*
X13191491Y-13481436D02*
X13181967Y-13490960D01*
X13181967Y-13490960D02*
X13162920Y-13500484D01*
X13162920Y-13500484D02*
X13143872Y-13500484D01*
X13143872Y-13500484D02*
X13124824Y-13490960D01*
X13124824Y-13490960D02*
X13115301Y-13481436D01*
X13115301Y-13481436D02*
X13105777Y-13462388D01*
X13105777Y-13462388D02*
X13096253Y-13424293D01*
X13096253Y-13424293D02*
X13096253Y-13376674D01*
X13096253Y-13376674D02*
X13105777Y-13338579D01*
X13105777Y-13338579D02*
X13115301Y-13319531D01*
X13115301Y-13319531D02*
X13124824Y-13310008D01*
X13124824Y-13310008D02*
X13143872Y-13300484D01*
X13296253Y-13481436D02*
X13305777Y-13490960D01*
X13305777Y-13490960D02*
X13296253Y-13500484D01*
X13296253Y-13500484D02*
X13286729Y-13490960D01*
X13286729Y-13490960D02*
X13296253Y-13481436D01*
X13296253Y-13481436D02*
X13296253Y-13500484D01*
X13477205Y-13367150D02*
X13477205Y-13500484D01*
X13429586Y-13290960D02*
X13381967Y-13433817D01*
X13381967Y-13433817D02*
X13505777Y-13433817D01*
X13620062Y-13300484D02*
X13639110Y-13300484D01*
X13639110Y-13300484D02*
X13658158Y-13310008D01*
X13658158Y-13310008D02*
X13667682Y-13319531D01*
X13667682Y-13319531D02*
X13677205Y-13338579D01*
X13677205Y-13338579D02*
X13686729Y-13376674D01*
X13686729Y-13376674D02*
X13686729Y-13424293D01*
X13686729Y-13424293D02*
X13677205Y-13462388D01*
X13677205Y-13462388D02*
X13667682Y-13481436D01*
X13667682Y-13481436D02*
X13658158Y-13490960D01*
X13658158Y-13490960D02*
X13639110Y-13500484D01*
X13639110Y-13500484D02*
X13620062Y-13500484D01*
X13620062Y-13500484D02*
X13601015Y-13490960D01*
X13601015Y-13490960D02*
X13591491Y-13481436D01*
X13591491Y-13481436D02*
X13581967Y-13462388D01*
X13581967Y-13462388D02*
X13572443Y-13424293D01*
X13572443Y-13424293D02*
X13572443Y-13376674D01*
X13572443Y-13376674D02*
X13581967Y-13338579D01*
X13581967Y-13338579D02*
X13591491Y-13319531D01*
X13591491Y-13319531D02*
X13601015Y-13310008D01*
X13601015Y-13310008D02*
X13620062Y-13300484D01*
X13810539Y-13300484D02*
X13829586Y-13300484D01*
X13829586Y-13300484D02*
X13848634Y-13310008D01*
X13848634Y-13310008D02*
X13858158Y-13319531D01*
X13858158Y-13319531D02*
X13867682Y-13338579D01*
X13867682Y-13338579D02*
X13877205Y-13376674D01*
X13877205Y-13376674D02*
X13877205Y-13424293D01*
X13877205Y-13424293D02*
X13867682Y-13462388D01*
X13867682Y-13462388D02*
X13858158Y-13481436D01*
X13858158Y-13481436D02*
X13848634Y-13490960D01*
X13848634Y-13490960D02*
X13829586Y-13500484D01*
X13829586Y-13500484D02*
X13810539Y-13500484D01*
X13810539Y-13500484D02*
X13791491Y-13490960D01*
X13791491Y-13490960D02*
X13781967Y-13481436D01*
X13781967Y-13481436D02*
X13772443Y-13462388D01*
X13772443Y-13462388D02*
X13762920Y-13424293D01*
X13762920Y-13424293D02*
X13762920Y-13376674D01*
X13762920Y-13376674D02*
X13772443Y-13338579D01*
X13772443Y-13338579D02*
X13781967Y-13319531D01*
X13781967Y-13319531D02*
X13791491Y-13310008D01*
X13791491Y-13310008D02*
X13810539Y-13300484D01*
X13962920Y-13500484D02*
X13962920Y-13367150D01*
X13962920Y-13386198D02*
X13972443Y-13376674D01*
X13972443Y-13376674D02*
X13991491Y-13367150D01*
X13991491Y-13367150D02*
X14020063Y-13367150D01*
X14020063Y-13367150D02*
X14039110Y-13376674D01*
X14039110Y-13376674D02*
X14048634Y-13395722D01*
X14048634Y-13395722D02*
X14048634Y-13500484D01*
X14048634Y-13395722D02*
X14058158Y-13376674D01*
X14058158Y-13376674D02*
X14077205Y-13367150D01*
X14077205Y-13367150D02*
X14105777Y-13367150D01*
X14105777Y-13367150D02*
X14124824Y-13376674D01*
X14124824Y-13376674D02*
X14134348Y-13395722D01*
X14134348Y-13395722D02*
X14134348Y-13500484D01*
X14229586Y-13500484D02*
X14229586Y-13367150D01*
X14229586Y-13386198D02*
X14239110Y-13376674D01*
X14239110Y-13376674D02*
X14258158Y-13367150D01*
X14258158Y-13367150D02*
X14286729Y-13367150D01*
X14286729Y-13367150D02*
X14305777Y-13376674D01*
X14305777Y-13376674D02*
X14315301Y-13395722D01*
X14315301Y-13395722D02*
X14315301Y-13500484D01*
X14315301Y-13395722D02*
X14324824Y-13376674D01*
X14324824Y-13376674D02*
X14343872Y-13367150D01*
X14343872Y-13367150D02*
X14372443Y-13367150D01*
X14372443Y-13367150D02*
X14391491Y-13376674D01*
X14391491Y-13376674D02*
X14401015Y-13395722D01*
X14401015Y-13395722D02*
X14401015Y-13500484D01*
X14791491Y-13290960D02*
X14620063Y-13548103D01*
X15048634Y-13300484D02*
X15067682Y-13300484D01*
X15067682Y-13300484D02*
X15086729Y-13310008D01*
X15086729Y-13310008D02*
X15096253Y-13319531D01*
X15096253Y-13319531D02*
X15105777Y-13338579D01*
X15105777Y-13338579D02*
X15115301Y-13376674D01*
X15115301Y-13376674D02*
X15115301Y-13424293D01*
X15115301Y-13424293D02*
X15105777Y-13462388D01*
X15105777Y-13462388D02*
X15096253Y-13481436D01*
X15096253Y-13481436D02*
X15086729Y-13490960D01*
X15086729Y-13490960D02*
X15067682Y-13500484D01*
X15067682Y-13500484D02*
X15048634Y-13500484D01*
X15048634Y-13500484D02*
X15029586Y-13490960D01*
X15029586Y-13490960D02*
X15020063Y-13481436D01*
X15020063Y-13481436D02*
X15010539Y-13462388D01*
X15010539Y-13462388D02*
X15001015Y-13424293D01*
X15001015Y-13424293D02*
X15001015Y-13376674D01*
X15001015Y-13376674D02*
X15010539Y-13338579D01*
X15010539Y-13338579D02*
X15020063Y-13319531D01*
X15020063Y-13319531D02*
X15029586Y-13310008D01*
X15029586Y-13310008D02*
X15048634Y-13300484D01*
X15201015Y-13481436D02*
X15210539Y-13490960D01*
X15210539Y-13490960D02*
X15201015Y-13500484D01*
X15201015Y-13500484D02*
X15191491Y-13490960D01*
X15191491Y-13490960D02*
X15201015Y-13481436D01*
X15201015Y-13481436D02*
X15201015Y-13500484D01*
X15334348Y-13300484D02*
X15353396Y-13300484D01*
X15353396Y-13300484D02*
X15372444Y-13310008D01*
X15372444Y-13310008D02*
X15381967Y-13319531D01*
X15381967Y-13319531D02*
X15391491Y-13338579D01*
X15391491Y-13338579D02*
X15401015Y-13376674D01*
X15401015Y-13376674D02*
X15401015Y-13424293D01*
X15401015Y-13424293D02*
X15391491Y-13462388D01*
X15391491Y-13462388D02*
X15381967Y-13481436D01*
X15381967Y-13481436D02*
X15372444Y-13490960D01*
X15372444Y-13490960D02*
X15353396Y-13500484D01*
X15353396Y-13500484D02*
X15334348Y-13500484D01*
X15334348Y-13500484D02*
X15315301Y-13490960D01*
X15315301Y-13490960D02*
X15305777Y-13481436D01*
X15305777Y-13481436D02*
X15296253Y-13462388D01*
X15296253Y-13462388D02*
X15286729Y-13424293D01*
X15286729Y-13424293D02*
X15286729Y-13376674D01*
X15286729Y-13376674D02*
X15296253Y-13338579D01*
X15296253Y-13338579D02*
X15305777Y-13319531D01*
X15305777Y-13319531D02*
X15315301Y-13310008D01*
X15315301Y-13310008D02*
X15334348Y-13300484D01*
X15591491Y-13500484D02*
X15477206Y-13500484D01*
X15534348Y-13500484D02*
X15534348Y-13300484D01*
X15534348Y-13300484D02*
X15515301Y-13329055D01*
X15515301Y-13329055D02*
X15496253Y-13348103D01*
X15496253Y-13348103D02*
X15477206Y-13357627D01*
X15772444Y-13300484D02*
X15677206Y-13300484D01*
X15677206Y-13300484D02*
X15667682Y-13395722D01*
X15667682Y-13395722D02*
X15677206Y-13386198D01*
X15677206Y-13386198D02*
X15696253Y-13376674D01*
X15696253Y-13376674D02*
X15743872Y-13376674D01*
X15743872Y-13376674D02*
X15762920Y-13386198D01*
X15762920Y-13386198D02*
X15772444Y-13395722D01*
X15772444Y-13395722D02*
X15781967Y-13414769D01*
X15781967Y-13414769D02*
X15781967Y-13462388D01*
X15781967Y-13462388D02*
X15772444Y-13481436D01*
X15772444Y-13481436D02*
X15762920Y-13490960D01*
X15762920Y-13490960D02*
X15743872Y-13500484D01*
X15743872Y-13500484D02*
X15696253Y-13500484D01*
X15696253Y-13500484D02*
X15677206Y-13490960D01*
X15677206Y-13490960D02*
X15667682Y-13481436D01*
X15848634Y-13300484D02*
X15981967Y-13300484D01*
X15981967Y-13300484D02*
X15896253Y-13500484D01*
X16048634Y-13300484D02*
X16048634Y-13338579D01*
X16124825Y-13300484D02*
X16124825Y-13338579D01*
X16420063Y-13576674D02*
X16410539Y-13567150D01*
X16410539Y-13567150D02*
X16391491Y-13538579D01*
X16391491Y-13538579D02*
X16381968Y-13519531D01*
X16381968Y-13519531D02*
X16372444Y-13490960D01*
X16372444Y-13490960D02*
X16362920Y-13443341D01*
X16362920Y-13443341D02*
X16362920Y-13405246D01*
X16362920Y-13405246D02*
X16372444Y-13357627D01*
X16372444Y-13357627D02*
X16381968Y-13329055D01*
X16381968Y-13329055D02*
X16391491Y-13310008D01*
X16391491Y-13310008D02*
X16410539Y-13281436D01*
X16410539Y-13281436D02*
X16420063Y-13271912D01*
X16524825Y-13386198D02*
X16505777Y-13376674D01*
X16505777Y-13376674D02*
X16496253Y-13367150D01*
X16496253Y-13367150D02*
X16486729Y-13348103D01*
X16486729Y-13348103D02*
X16486729Y-13338579D01*
X16486729Y-13338579D02*
X16496253Y-13319531D01*
X16496253Y-13319531D02*
X16505777Y-13310008D01*
X16505777Y-13310008D02*
X16524825Y-13300484D01*
X16524825Y-13300484D02*
X16562920Y-13300484D01*
X16562920Y-13300484D02*
X16581968Y-13310008D01*
X16581968Y-13310008D02*
X16591491Y-13319531D01*
X16591491Y-13319531D02*
X16601015Y-13338579D01*
X16601015Y-13338579D02*
X16601015Y-13348103D01*
X16601015Y-13348103D02*
X16591491Y-13367150D01*
X16591491Y-13367150D02*
X16581968Y-13376674D01*
X16581968Y-13376674D02*
X16562920Y-13386198D01*
X16562920Y-13386198D02*
X16524825Y-13386198D01*
X16524825Y-13386198D02*
X16505777Y-13395722D01*
X16505777Y-13395722D02*
X16496253Y-13405246D01*
X16496253Y-13405246D02*
X16486729Y-13424293D01*
X16486729Y-13424293D02*
X16486729Y-13462388D01*
X16486729Y-13462388D02*
X16496253Y-13481436D01*
X16496253Y-13481436D02*
X16505777Y-13490960D01*
X16505777Y-13490960D02*
X16524825Y-13500484D01*
X16524825Y-13500484D02*
X16562920Y-13500484D01*
X16562920Y-13500484D02*
X16581968Y-13490960D01*
X16581968Y-13490960D02*
X16591491Y-13481436D01*
X16591491Y-13481436D02*
X16601015Y-13462388D01*
X16601015Y-13462388D02*
X16601015Y-13424293D01*
X16601015Y-13424293D02*
X16591491Y-13405246D01*
X16591491Y-13405246D02*
X16581968Y-13395722D01*
X16581968Y-13395722D02*
X16562920Y-13386198D01*
X16839111Y-13500484D02*
X16839111Y-13300484D01*
X16924825Y-13500484D02*
X16924825Y-13395722D01*
X16924825Y-13395722D02*
X16915301Y-13376674D01*
X16915301Y-13376674D02*
X16896253Y-13367150D01*
X16896253Y-13367150D02*
X16867682Y-13367150D01*
X16867682Y-13367150D02*
X16848634Y-13376674D01*
X16848634Y-13376674D02*
X16839111Y-13386198D01*
X17048634Y-13500484D02*
X17029587Y-13490960D01*
X17029587Y-13490960D02*
X17020063Y-13481436D01*
X17020063Y-13481436D02*
X17010539Y-13462388D01*
X17010539Y-13462388D02*
X17010539Y-13405246D01*
X17010539Y-13405246D02*
X17020063Y-13386198D01*
X17020063Y-13386198D02*
X17029587Y-13376674D01*
X17029587Y-13376674D02*
X17048634Y-13367150D01*
X17048634Y-13367150D02*
X17077206Y-13367150D01*
X17077206Y-13367150D02*
X17096253Y-13376674D01*
X17096253Y-13376674D02*
X17105777Y-13386198D01*
X17105777Y-13386198D02*
X17115301Y-13405246D01*
X17115301Y-13405246D02*
X17115301Y-13462388D01*
X17115301Y-13462388D02*
X17105777Y-13481436D01*
X17105777Y-13481436D02*
X17096253Y-13490960D01*
X17096253Y-13490960D02*
X17077206Y-13500484D01*
X17077206Y-13500484D02*
X17048634Y-13500484D01*
X17229587Y-13500484D02*
X17210539Y-13490960D01*
X17210539Y-13490960D02*
X17201015Y-13471912D01*
X17201015Y-13471912D02*
X17201015Y-13300484D01*
X17381968Y-13490960D02*
X17362920Y-13500484D01*
X17362920Y-13500484D02*
X17324825Y-13500484D01*
X17324825Y-13500484D02*
X17305777Y-13490960D01*
X17305777Y-13490960D02*
X17296253Y-13471912D01*
X17296253Y-13471912D02*
X17296253Y-13395722D01*
X17296253Y-13395722D02*
X17305777Y-13376674D01*
X17305777Y-13376674D02*
X17324825Y-13367150D01*
X17324825Y-13367150D02*
X17362920Y-13367150D01*
X17362920Y-13367150D02*
X17381968Y-13376674D01*
X17381968Y-13376674D02*
X17391492Y-13395722D01*
X17391492Y-13395722D02*
X17391492Y-13414769D01*
X17391492Y-13414769D02*
X17296253Y-13433817D01*
X17467682Y-13490960D02*
X17486730Y-13500484D01*
X17486730Y-13500484D02*
X17524825Y-13500484D01*
X17524825Y-13500484D02*
X17543873Y-13490960D01*
X17543873Y-13490960D02*
X17553396Y-13471912D01*
X17553396Y-13471912D02*
X17553396Y-13462388D01*
X17553396Y-13462388D02*
X17543873Y-13443341D01*
X17543873Y-13443341D02*
X17524825Y-13433817D01*
X17524825Y-13433817D02*
X17496253Y-13433817D01*
X17496253Y-13433817D02*
X17477206Y-13424293D01*
X17477206Y-13424293D02*
X17467682Y-13405246D01*
X17467682Y-13405246D02*
X17467682Y-13395722D01*
X17467682Y-13395722D02*
X17477206Y-13376674D01*
X17477206Y-13376674D02*
X17496253Y-13367150D01*
X17496253Y-13367150D02*
X17524825Y-13367150D01*
X17524825Y-13367150D02*
X17543873Y-13376674D01*
X17620063Y-13576674D02*
X17629587Y-13567150D01*
X17629587Y-13567150D02*
X17648634Y-13538579D01*
X17648634Y-13538579D02*
X17658158Y-13519531D01*
X17658158Y-13519531D02*
X17667682Y-13490960D01*
X17667682Y-13490960D02*
X17677206Y-13443341D01*
X17677206Y-13443341D02*
X17677206Y-13405246D01*
X17677206Y-13405246D02*
X17667682Y-13357627D01*
X17667682Y-13357627D02*
X17658158Y-13329055D01*
X17658158Y-13329055D02*
X17648634Y-13310008D01*
X17648634Y-13310008D02*
X17629587Y-13281436D01*
X17629587Y-13281436D02*
X17620063Y-13271912D01*
M02*
