M48
; DRILL file {KiCad 7.0.10-7.0.10~ubuntu22.04.1} date So 13. dubna 2024, 21:42:12
; FORMAT={-:-/ absolute / metric / decimal}
; #@! TF.CreationDate,2024-04-13T21:42:12+02:00
; #@! TF.GenerationSoftware,Kicad,Pcbnew,7.0.10-7.0.10~ubuntu22.04.1
; #@! TF.FileFunction,NonPlated,1,4,NPTH
FMAT,2
METRIC
; #@! TA.AperFunction,NonPlated,NPTH,ComponentDrill
T1C0.500
; #@! TA.AperFunction,NonPlated,NPTH,ComponentDrill
T2C2.000
%
G90
G05
T1
X14.803Y-28.496
X14.803Y-70.496
X14.804Y-29.504
X14.804Y-71.504
X14.854Y-27.49
X14.854Y-30.51
X14.854Y-69.49
X14.854Y-72.51
X33.483Y-8.862
X33.483Y-49.138
X33.483Y-50.862
X33.483Y-91.138
X34.492Y-8.811
X34.492Y-49.189
X34.492Y-50.811
X34.492Y-91.189
X35.503Y-8.811
X35.503Y-49.189
X35.503Y-50.811
X35.503Y-91.189
X36.512Y-8.861
X36.512Y-49.139
X36.512Y-50.861
X36.512Y-91.139
X55.134Y-27.485
X55.134Y-30.515
X55.134Y-69.485
X55.134Y-72.515
X55.184Y-29.505
X55.184Y-71.505
X55.184Y-28.495
X55.184Y-70.495
T2
X0.0Y0.0
X0.0Y-100.0
X70.0Y0.0
M30
