%TF.GenerationSoftware,KiCad,Pcbnew,7.0.10-7.0.10~ubuntu22.04.1*%
%TF.CreationDate,2024-04-10T21:13:45+02:00*%
%TF.ProjectId,STM32_watch_NFC,53544d33-325f-4776-9174-63685f4e4643,rev?*%
%TF.SameCoordinates,Original*%
%TF.FileFunction,Copper,L4,Bot*%
%TF.FilePolarity,Positive*%
%FSLAX46Y46*%
G04 Gerber Fmt 4.6, Leading zero omitted, Abs format (unit mm)*
G04 Created by KiCad (PCBNEW 7.0.10-7.0.10~ubuntu22.04.1) date 2024-04-10 21:13:45*
%MOMM*%
%LPD*%
G01*
G04 APERTURE LIST*
G04 Aperture macros list*
%AMRoundRect*
0 Rectangle with rounded corners*
0 $1 Rounding radius*
0 $2 $3 $4 $5 $6 $7 $8 $9 X,Y pos of 4 corners*
0 Add a 4 corners polygon primitive as box body*
4,1,4,$2,$3,$4,$5,$6,$7,$8,$9,$2,$3,0*
0 Add four circle primitives for the rounded corners*
1,1,$1+$1,$2,$3*
1,1,$1+$1,$4,$5*
1,1,$1+$1,$6,$7*
1,1,$1+$1,$8,$9*
0 Add four rect primitives between the rounded corners*
20,1,$1+$1,$2,$3,$4,$5,0*
20,1,$1+$1,$4,$5,$6,$7,0*
20,1,$1+$1,$6,$7,$8,$9,0*
20,1,$1+$1,$8,$9,$2,$3,0*%
%AMRotRect*
0 Rectangle, with rotation*
0 The origin of the aperture is its center*
0 $1 length*
0 $2 width*
0 $3 Rotation angle, in degrees counterclockwise*
0 Add horizontal line*
21,1,$1,$2,0,0,$3*%
%AMFreePoly0*
4,1,14,0.364320,0.111820,0.377500,0.080000,0.377501,0.053640,0.364318,0.021819,0.230680,-0.111820,0.198860,-0.125000,-0.332500,-0.125000,-0.364320,-0.111820,-0.377500,-0.080000,-0.377500,0.080000,-0.364320,0.111820,-0.332500,0.125000,0.332500,0.125000,0.364320,0.111820,0.364320,0.111820,$1*%
%AMFreePoly1*
4,1,14,0.230680,0.111820,0.364320,-0.021821,0.377500,-0.053642,0.377500,-0.080000,0.364320,-0.111820,0.332500,-0.125000,-0.332500,-0.125000,-0.364320,-0.111820,-0.377500,-0.080000,-0.377500,0.080000,-0.364320,0.111820,-0.332500,0.125000,0.198860,0.125000,0.230680,0.111820,0.230680,0.111820,$1*%
%AMFreePoly2*
4,1,14,0.111820,0.364320,0.125000,0.332500,0.125000,-0.332500,0.111820,-0.364320,0.080000,-0.377500,0.053640,-0.377501,0.021819,-0.364318,-0.111820,-0.230680,-0.125000,-0.198860,-0.125000,0.332500,-0.111820,0.364320,-0.080000,0.377500,0.080000,0.377500,0.111820,0.364320,0.111820,0.364320,$1*%
%AMFreePoly3*
4,1,14,0.111820,0.364320,0.125000,0.332500,0.125001,-0.198860,0.111818,-0.230680,-0.021820,-0.364320,-0.053640,-0.377500,-0.080000,-0.377500,-0.111820,-0.364320,-0.125000,-0.332500,-0.125000,0.332500,-0.111820,0.364320,-0.080000,0.377500,0.080000,0.377500,0.111820,0.364320,0.111820,0.364320,$1*%
%AMFreePoly4*
4,1,15,-0.198858,0.125000,0.332500,0.125000,0.364320,0.111820,0.377500,0.080000,0.377500,-0.080000,0.364320,-0.111820,0.332500,-0.125000,-0.332500,-0.125000,-0.364320,-0.111820,-0.377500,-0.080000,-0.377500,-0.053640,-0.364320,-0.021820,-0.230680,0.111820,-0.198860,0.125001,-0.198858,0.125000,-0.198858,0.125000,$1*%
%AMFreePoly5*
4,1,14,0.364320,0.111820,0.377500,0.080000,0.377500,-0.080000,0.364320,-0.111820,0.332500,-0.125000,-0.198860,-0.125001,-0.230680,-0.111818,-0.364320,0.021820,-0.377500,0.053640,-0.377500,0.080000,-0.364320,0.111820,-0.332500,0.125000,0.332500,0.125000,0.364320,0.111820,0.364320,0.111820,$1*%
%AMFreePoly6*
4,1,14,-0.021820,0.364320,0.111820,0.230679,0.125001,0.198860,0.125000,-0.332500,0.111820,-0.364320,0.080000,-0.377500,-0.080000,-0.377500,-0.111820,-0.364320,-0.125000,-0.332500,-0.125000,0.332500,-0.111820,0.364320,-0.080000,0.377500,-0.053640,0.377500,-0.021820,0.364320,-0.021820,0.364320,$1*%
%AMFreePoly7*
4,1,15,0.053642,0.377500,0.080000,0.377500,0.111820,0.364320,0.125000,0.332500,0.125000,-0.332500,0.111820,-0.364320,0.080000,-0.377500,-0.080000,-0.377500,-0.111820,-0.364320,-0.125000,-0.332500,-0.125000,0.198860,-0.111820,0.230680,0.021820,0.364320,0.053640,0.377501,0.053642,0.377500,0.053642,0.377500,$1*%
G04 Aperture macros list end*
%TA.AperFunction,SMDPad,CuDef*%
%ADD10RoundRect,0.187500X0.618718X0.883883X-0.883883X-0.618718X-0.618718X-0.883883X0.883883X0.618718X0*%
%TD*%
%TA.AperFunction,SMDPad,CuDef*%
%ADD11RoundRect,0.007800X-0.205061X-0.377878X0.377878X0.205061X0.205061X0.377878X-0.377878X-0.205061X0*%
%TD*%
%TA.AperFunction,SMDPad,CuDef*%
%ADD12RoundRect,0.026000X0.205061X-0.352139X0.352139X-0.205061X-0.205061X0.352139X-0.352139X0.205061X0*%
%TD*%
%TA.AperFunction,SMDPad,CuDef*%
%ADD13RotRect,3.500000X3.500000X45.000000*%
%TD*%
%TA.AperFunction,SMDPad,CuDef*%
%ADD14RoundRect,0.100000X-0.130000X-0.100000X0.130000X-0.100000X0.130000X0.100000X-0.130000X0.100000X0*%
%TD*%
%TA.AperFunction,SMDPad,CuDef*%
%ADD15RoundRect,0.218750X0.381250X-0.218750X0.381250X0.218750X-0.381250X0.218750X-0.381250X-0.218750X0*%
%TD*%
%TA.AperFunction,SMDPad,CuDef*%
%ADD16RoundRect,0.135000X0.226274X0.035355X0.035355X0.226274X-0.226274X-0.035355X-0.035355X-0.226274X0*%
%TD*%
%TA.AperFunction,SMDPad,CuDef*%
%ADD17RoundRect,0.125000X-0.176777X0.353553X-0.353553X0.176777X0.176777X-0.353553X0.353553X-0.176777X0*%
%TD*%
%TA.AperFunction,SMDPad,CuDef*%
%ADD18RoundRect,0.250000X-0.176777X0.671751X-0.671751X0.176777X0.176777X-0.671751X0.671751X-0.176777X0*%
%TD*%
%TA.AperFunction,SMDPad,CuDef*%
%ADD19RoundRect,0.140000X0.140000X0.170000X-0.140000X0.170000X-0.140000X-0.170000X0.140000X-0.170000X0*%
%TD*%
%TA.AperFunction,SMDPad,CuDef*%
%ADD20RoundRect,0.150000X0.150000X-0.512500X0.150000X0.512500X-0.150000X0.512500X-0.150000X-0.512500X0*%
%TD*%
%TA.AperFunction,SMDPad,CuDef*%
%ADD21RoundRect,0.140000X-0.140000X-0.170000X0.140000X-0.170000X0.140000X0.170000X-0.140000X0.170000X0*%
%TD*%
%TA.AperFunction,SMDPad,CuDef*%
%ADD22RoundRect,0.140000X-0.170000X0.140000X-0.170000X-0.140000X0.170000X-0.140000X0.170000X0.140000X0*%
%TD*%
%TA.AperFunction,SMDPad,CuDef*%
%ADD23RoundRect,0.100000X0.162635X-0.021213X-0.021213X0.162635X-0.162635X0.021213X0.021213X-0.162635X0*%
%TD*%
%TA.AperFunction,SMDPad,CuDef*%
%ADD24RotRect,1.550000X1.000000X44.000000*%
%TD*%
%TA.AperFunction,SMDPad,CuDef*%
%ADD25RoundRect,0.140000X0.219203X0.021213X0.021213X0.219203X-0.219203X-0.021213X-0.021213X-0.219203X0*%
%TD*%
%TA.AperFunction,SMDPad,CuDef*%
%ADD26RoundRect,0.135000X-0.226274X-0.035355X-0.035355X-0.226274X0.226274X0.035355X0.035355X0.226274X0*%
%TD*%
%TA.AperFunction,SMDPad,CuDef*%
%ADD27RoundRect,0.225000X-0.225000X-0.250000X0.225000X-0.250000X0.225000X0.250000X-0.225000X0.250000X0*%
%TD*%
%TA.AperFunction,SMDPad,CuDef*%
%ADD28RoundRect,0.250000X0.503814X0.132583X0.132583X0.503814X-0.503814X-0.132583X-0.132583X-0.503814X0*%
%TD*%
%TA.AperFunction,SMDPad,CuDef*%
%ADD29RoundRect,0.225000X-0.335876X-0.017678X-0.017678X-0.335876X0.335876X0.017678X0.017678X0.335876X0*%
%TD*%
%TA.AperFunction,SMDPad,CuDef*%
%ADD30RoundRect,0.135000X-0.185000X0.135000X-0.185000X-0.135000X0.185000X-0.135000X0.185000X0.135000X0*%
%TD*%
%TA.AperFunction,SMDPad,CuDef*%
%ADD31RoundRect,0.140000X0.170000X-0.140000X0.170000X0.140000X-0.170000X0.140000X-0.170000X-0.140000X0*%
%TD*%
%TA.AperFunction,SMDPad,CuDef*%
%ADD32RoundRect,0.225000X-0.017678X0.335876X-0.335876X0.017678X0.017678X-0.335876X0.335876X-0.017678X0*%
%TD*%
%TA.AperFunction,SMDPad,CuDef*%
%ADD33RoundRect,0.140000X-0.219203X-0.021213X-0.021213X-0.219203X0.219203X0.021213X0.021213X0.219203X0*%
%TD*%
%TA.AperFunction,SMDPad,CuDef*%
%ADD34FreePoly0,45.000000*%
%TD*%
%TA.AperFunction,SMDPad,CuDef*%
%ADD35RoundRect,0.062500X-0.220971X-0.309359X0.309359X0.220971X0.220971X0.309359X-0.309359X-0.220971X0*%
%TD*%
%TA.AperFunction,SMDPad,CuDef*%
%ADD36FreePoly1,45.000000*%
%TD*%
%TA.AperFunction,SMDPad,CuDef*%
%ADD37FreePoly2,45.000000*%
%TD*%
%TA.AperFunction,SMDPad,CuDef*%
%ADD38RoundRect,0.062500X0.220971X-0.309359X0.309359X-0.220971X-0.220971X0.309359X-0.309359X0.220971X0*%
%TD*%
%TA.AperFunction,SMDPad,CuDef*%
%ADD39FreePoly3,45.000000*%
%TD*%
%TA.AperFunction,SMDPad,CuDef*%
%ADD40FreePoly4,45.000000*%
%TD*%
%TA.AperFunction,SMDPad,CuDef*%
%ADD41FreePoly5,45.000000*%
%TD*%
%TA.AperFunction,SMDPad,CuDef*%
%ADD42FreePoly6,45.000000*%
%TD*%
%TA.AperFunction,SMDPad,CuDef*%
%ADD43FreePoly7,45.000000*%
%TD*%
%TA.AperFunction,SMDPad,CuDef*%
%ADD44RoundRect,0.218750X-0.381250X0.218750X-0.381250X-0.218750X0.381250X-0.218750X0.381250X0.218750X0*%
%TD*%
%TA.AperFunction,SMDPad,CuDef*%
%ADD45RoundRect,0.175000X0.425000X-0.175000X0.425000X0.175000X-0.425000X0.175000X-0.425000X-0.175000X0*%
%TD*%
%TA.AperFunction,SMDPad,CuDef*%
%ADD46RoundRect,0.190000X-0.410000X0.190000X-0.410000X-0.190000X0.410000X-0.190000X0.410000X0.190000X0*%
%TD*%
%TA.AperFunction,SMDPad,CuDef*%
%ADD47RoundRect,0.200000X-0.400000X0.200000X-0.400000X-0.200000X0.400000X-0.200000X0.400000X0.200000X0*%
%TD*%
%TA.AperFunction,SMDPad,CuDef*%
%ADD48RoundRect,0.175000X-0.425000X0.175000X-0.425000X-0.175000X0.425000X-0.175000X0.425000X0.175000X0*%
%TD*%
%TA.AperFunction,SMDPad,CuDef*%
%ADD49RoundRect,0.190000X0.410000X-0.190000X0.410000X0.190000X-0.410000X0.190000X-0.410000X-0.190000X0*%
%TD*%
%TA.AperFunction,SMDPad,CuDef*%
%ADD50RoundRect,0.200000X0.400000X-0.200000X0.400000X0.200000X-0.400000X0.200000X-0.400000X-0.200000X0*%
%TD*%
%TA.AperFunction,SMDPad,CuDef*%
%ADD51RoundRect,0.250000X0.500000X-0.650000X0.500000X0.650000X-0.500000X0.650000X-0.500000X-0.650000X0*%
%TD*%
%TA.AperFunction,SMDPad,CuDef*%
%ADD52RoundRect,0.250000X0.425000X-0.650000X0.425000X0.650000X-0.425000X0.650000X-0.425000X-0.650000X0*%
%TD*%
%TA.AperFunction,SMDPad,CuDef*%
%ADD53RoundRect,0.140000X-0.021213X0.219203X-0.219203X0.021213X0.021213X-0.219203X0.219203X-0.021213X0*%
%TD*%
%TA.AperFunction,SMDPad,CuDef*%
%ADD54RoundRect,0.100000X0.021213X0.162635X-0.162635X-0.021213X-0.021213X-0.162635X0.162635X0.021213X0*%
%TD*%
%TA.AperFunction,SMDPad,CuDef*%
%ADD55RoundRect,0.135000X-0.035355X0.226274X-0.226274X0.035355X0.035355X-0.226274X0.226274X-0.035355X0*%
%TD*%
%TA.AperFunction,SMDPad,CuDef*%
%ADD56RoundRect,0.135000X0.135000X0.185000X-0.135000X0.185000X-0.135000X-0.185000X0.135000X-0.185000X0*%
%TD*%
%TA.AperFunction,SMDPad,CuDef*%
%ADD57RoundRect,0.135000X0.035355X-0.226274X0.226274X-0.035355X-0.035355X0.226274X-0.226274X0.035355X0*%
%TD*%
%TA.AperFunction,SMDPad,CuDef*%
%ADD58RoundRect,0.100000X-0.021213X-0.162635X0.162635X0.021213X0.021213X0.162635X-0.162635X-0.021213X0*%
%TD*%
%TA.AperFunction,SMDPad,CuDef*%
%ADD59RoundRect,0.250000X-0.450000X0.262500X-0.450000X-0.262500X0.450000X-0.262500X0.450000X0.262500X0*%
%TD*%
%TA.AperFunction,SMDPad,CuDef*%
%ADD60RotRect,1.550000X1.000000X139.000000*%
%TD*%
%TA.AperFunction,SMDPad,CuDef*%
%ADD61RoundRect,0.150000X0.256326X0.468458X-0.468458X-0.256326X-0.256326X-0.468458X0.468458X0.256326X0*%
%TD*%
%TA.AperFunction,SMDPad,CuDef*%
%ADD62RoundRect,0.162500X0.201525X0.431335X-0.431335X-0.201525X-0.201525X-0.431335X0.431335X0.201525X0*%
%TD*%
%TA.AperFunction,SMDPad,CuDef*%
%ADD63RoundRect,0.225000X0.225000X0.250000X-0.225000X0.250000X-0.225000X-0.250000X0.225000X-0.250000X0*%
%TD*%
%TA.AperFunction,SMDPad,CuDef*%
%ADD64R,1.400000X1.200000*%
%TD*%
%TA.AperFunction,SMDPad,CuDef*%
%ADD65RoundRect,0.225000X0.335876X0.017678X0.017678X0.335876X-0.335876X-0.017678X-0.017678X-0.335876X0*%
%TD*%
%TA.AperFunction,SMDPad,CuDef*%
%ADD66RoundRect,0.100000X-0.163718X0.009817X0.032506X-0.160759X0.163718X-0.009817X-0.032506X0.160759X0*%
%TD*%
%TA.AperFunction,SMDPad,CuDef*%
%ADD67RoundRect,0.100000X-0.162635X0.021213X0.021213X-0.162635X0.162635X-0.021213X-0.021213X0.162635X0*%
%TD*%
%TA.AperFunction,SMDPad,CuDef*%
%ADD68RoundRect,0.250000X-0.493338X-0.167404X-0.097115X-0.511835X0.493338X0.167404X0.097115X0.511835X0*%
%TD*%
%TA.AperFunction,SMDPad,CuDef*%
%ADD69RoundRect,0.135000X-0.135000X-0.185000X0.135000X-0.185000X0.135000X0.185000X-0.135000X0.185000X0*%
%TD*%
%TA.AperFunction,SMDPad,CuDef*%
%ADD70R,1.000000X1.550000*%
%TD*%
%TA.AperFunction,SMDPad,CuDef*%
%ADD71RoundRect,0.140000X0.021213X-0.219203X0.219203X-0.021213X-0.021213X0.219203X-0.219203X0.021213X0*%
%TD*%
%TA.AperFunction,SMDPad,CuDef*%
%ADD72RoundRect,0.100000X-0.225000X-0.100000X0.225000X-0.100000X0.225000X0.100000X-0.225000X0.100000X0*%
%TD*%
%TA.AperFunction,SMDPad,CuDef*%
%ADD73RotRect,1.200000X0.600000X135.000000*%
%TD*%
%TA.AperFunction,SMDPad,CuDef*%
%ADD74RoundRect,0.150000X0.247487X0.035355X0.035355X0.247487X-0.247487X-0.035355X-0.035355X-0.247487X0*%
%TD*%
%TA.AperFunction,SMDPad,CuDef*%
%ADD75RoundRect,0.218750X0.026517X-0.335876X0.335876X-0.026517X-0.026517X0.335876X-0.335876X0.026517X0*%
%TD*%
%TA.AperFunction,SMDPad,CuDef*%
%ADD76RoundRect,0.100000X-0.100000X0.130000X-0.100000X-0.130000X0.100000X-0.130000X0.100000X0.130000X0*%
%TD*%
%TA.AperFunction,ViaPad*%
%ADD77C,0.500000*%
%TD*%
%TA.AperFunction,ViaPad*%
%ADD78C,0.800000*%
%TD*%
%TA.AperFunction,Conductor*%
%ADD79C,0.300000*%
%TD*%
%TA.AperFunction,Conductor*%
%ADD80C,0.200000*%
%TD*%
%TA.AperFunction,Conductor*%
%ADD81C,0.150000*%
%TD*%
G04 APERTURE END LIST*
D10*
%TO.P,L1,1,1*%
%TO.N,+BATT*%
X144520495Y-114795495D03*
%TO.P,L1,2,2*%
%TO.N,Net-(D13-A)*%
X142929505Y-113204505D03*
%TD*%
D11*
%TO.P,U3,1,VDD_IO*%
%TO.N,+3.3V*%
X155815632Y-103159242D03*
%TO.P,U3,2,CSO*%
%TO.N,unconnected-(U3-CSO-Pad2)*%
X155462078Y-102805688D03*
%TO.P,U3,3,VDD_D*%
%TO.N,Net-(U3-VDD_D)*%
X155108525Y-102452135D03*
%TO.P,U3,4,XTO*%
%TO.N,Net-(U3-XTO)*%
X154754972Y-102098582D03*
%TO.P,U3,5,XTI*%
%TO.N,Net-(U3-XTI)*%
X154401418Y-101745028D03*
%TO.P,U3,6,GND_D*%
%TO.N,GND*%
X154047865Y-101391475D03*
%TO.P,U3,7,VDD_A*%
%TO.N,Net-(U3-VDD_A)*%
X153694312Y-101037922D03*
%TO.P,U3,8,VDD*%
%TO.N,+5V*%
X153340758Y-100684368D03*
D12*
%TO.P,U3,9,VDD_RF*%
%TO.N,Net-(U3-VDD_DR)*%
X153340758Y-99715632D03*
%TO.P,U3,10,VDD_TX*%
%TO.N,+5V*%
X153694312Y-99362078D03*
%TO.P,U3,11,VDD_AM*%
%TO.N,Net-(U3-VDD_AM)*%
X154047865Y-99008525D03*
%TO.P,U3,12,GND_DR*%
%TO.N,GND*%
X154401418Y-98654972D03*
%TO.P,U3,13,RFO1*%
%TO.N,Net-(U3-RFO1)*%
X154754972Y-98301418D03*
%TO.P,U3,14,VDD_DR*%
%TO.N,Net-(U3-VDD_DR)*%
X155108525Y-97947865D03*
%TO.P,U3,15,RFO2*%
%TO.N,Net-(U3-RFO2)*%
X155462078Y-97594312D03*
%TO.P,U3,16,GND_DR*%
%TO.N,GND*%
X155815632Y-97240758D03*
D11*
%TO.P,U3,17,EXT_LM*%
%TO.N,unconnected-(U3-EXT_LM-Pad17)*%
X156784368Y-97240758D03*
%TO.P,U3,18,AAT_A*%
%TO.N,unconnected-(U3-AAT_A-Pad18)*%
X157137922Y-97594312D03*
%TO.P,U3,19,AAT_B*%
%TO.N,unconnected-(U3-AAT_B-Pad19)*%
X157491475Y-97947865D03*
%TO.P,U3,20,I2C_EN*%
%TO.N,GND*%
X157845028Y-98301418D03*
%TO.P,U3,21,VSS*%
X158198582Y-98654972D03*
%TO.P,U3,22,RFI1*%
%TO.N,Net-(U3-RFI1)*%
X158552135Y-99008525D03*
%TO.P,U3,23,RFI2*%
%TO.N,Net-(U3-RFI2)*%
X158905688Y-99362078D03*
%TO.P,U3,24,AGDC*%
%TO.N,Net-(U3-AGDC)*%
X159259242Y-99715632D03*
D12*
%TO.P,U3,25,CSI*%
%TO.N,unconnected-(U3-CSI-Pad25)*%
X159259242Y-100684368D03*
%TO.P,U3,26,GND_A*%
%TO.N,GND*%
X158905688Y-101037922D03*
%TO.P,U3,27,IRQ*%
%TO.N,SPI_IRQ_STM*%
X158552135Y-101391475D03*
%TO.P,U3,28,MCU_CLK*%
%TO.N,unconnected-(U3-MCU_CLK-Pad28)*%
X158198582Y-101745028D03*
%TO.P,U3,29,~{BSS}*%
%TO.N,SPI_CS_STM*%
X157845028Y-102098582D03*
%TO.P,U3,30,SCLK/SCL*%
%TO.N,SPI_SCL_STM*%
X157491475Y-102452135D03*
%TO.P,U3,31,MOSI*%
%TO.N,SPI_MOSI_STM*%
X157137922Y-102805688D03*
%TO.P,U3,32,MISO/SDA*%
%TO.N,SPI_MISO_STM*%
X156784368Y-103159242D03*
D13*
%TO.P,U3,33,EXP*%
%TO.N,GND*%
X156300000Y-100200000D03*
%TD*%
D14*
%TO.P,C31,1*%
%TO.N,+3.3V*%
X155980000Y-105100000D03*
%TO.P,C31,2*%
%TO.N,GND*%
X156620000Y-105100000D03*
%TD*%
D15*
%TO.P,L2,1,1*%
%TO.N,Net-(U3-RFO1)*%
X149900000Y-94125000D03*
%TO.P,L2,2,2*%
%TO.N,Net-(C50-Pad1)*%
X149900000Y-92000000D03*
%TD*%
D16*
%TO.P,R9,1*%
%TO.N,Net-(U4-FB)*%
X152260624Y-114560624D03*
%TO.P,R9,2*%
%TO.N,GND*%
X151539376Y-113839376D03*
%TD*%
D17*
%TO.P,Li-po1,1,Pin_1*%
%TO.N,+BATT*%
X143169670Y-118603984D03*
%TO.P,Li-po1,2,Pin_2*%
%TO.N,GND*%
X142603984Y-119169670D03*
D18*
%TO.P,Li-po1,MP*%
%TO.N,N/C*%
X145467767Y-119063604D03*
X143063604Y-121467767D03*
%TD*%
D19*
%TO.P,C54,1*%
%TO.N,GND*%
X152460000Y-93100000D03*
%TO.P,C54,2*%
%TO.N,Net-(C50-Pad1)*%
X151500000Y-93100000D03*
%TD*%
D20*
%TO.P,ME4055A1,1,CHRG*%
%TO.N,CHRG_STM*%
X140550000Y-112037500D03*
%TO.P,ME4055A1,2,GND*%
%TO.N,GND*%
X139600000Y-112037500D03*
%TO.P,ME4055A1,3,BAT*%
%TO.N,+BATT*%
X138650000Y-112037500D03*
%TO.P,ME4055A1,4,VCC*%
%TO.N,VBUS*%
X138650000Y-109762500D03*
%TO.P,ME4055A1,5,STDBY*%
%TO.N,DONE_STM*%
X139600000Y-109762500D03*
%TO.P,ME4055A1,6,PROG*%
%TO.N,Net-(ME4055A1-PROG)*%
X140550000Y-109762500D03*
%TD*%
D21*
%TO.P,C49,1*%
%TO.N,GND*%
X153420000Y-105500000D03*
%TO.P,C49,2*%
%TO.N,Net-(U3-XTO)*%
X154380000Y-105500000D03*
%TD*%
D22*
%TO.P,C10,1*%
%TO.N,GND*%
X137300000Y-101400000D03*
%TO.P,C10,2*%
%TO.N,+5V*%
X137300000Y-102360000D03*
%TD*%
D23*
%TO.P,C1,1*%
%TO.N,+3.3V*%
X150326274Y-102226274D03*
%TO.P,C1,2*%
%TO.N,GND*%
X149873726Y-101773726D03*
%TD*%
D24*
%TO.P,SW3,1,A*%
%TO.N,Net-(SW3A-A)*%
X137797807Y-89565083D03*
X134021273Y-93212039D03*
%TO.P,SW3,2,B*%
%TO.N,+3.3V*%
X138978727Y-90787961D03*
X135202193Y-94434917D03*
%TD*%
D25*
%TO.P,C37,1*%
%TO.N,GND*%
X153039411Y-102339411D03*
%TO.P,C37,2*%
%TO.N,Net-(U3-VDD_A)*%
X152360589Y-101660589D03*
%TD*%
D14*
%TO.P,C2,1*%
%TO.N,+3.3V*%
X148180000Y-109250000D03*
%TO.P,C2,2*%
%TO.N,GND*%
X148820000Y-109250000D03*
%TD*%
D25*
%TO.P,C35,1*%
%TO.N,GND*%
X155078822Y-104178822D03*
%TO.P,C35,2*%
%TO.N,Net-(U3-VDD_D)*%
X154400000Y-103500000D03*
%TD*%
D26*
%TO.P,R11,1*%
%TO.N,Net-(SW3A-A)*%
X139739376Y-88239376D03*
%TO.P,R11,2*%
%TO.N,Button_LT*%
X140460624Y-88960624D03*
%TD*%
D27*
%TO.P,C24,1*%
%TO.N,VBUS*%
X136325000Y-107000000D03*
%TO.P,C24,2*%
%TO.N,GND*%
X137875000Y-107000000D03*
%TD*%
D25*
%TO.P,C8,1*%
%TO.N,/LSE_IN*%
X142339411Y-108939411D03*
%TO.P,C8,2*%
%TO.N,GND*%
X141660589Y-108260589D03*
%TD*%
D28*
%TO.P,R8,1*%
%TO.N,+5V*%
X154645235Y-114445235D03*
%TO.P,R8,2*%
%TO.N,Net-(U4-FB)*%
X153354765Y-113154765D03*
%TD*%
D29*
%TO.P,C26,1*%
%TO.N,+BATT*%
X146351992Y-117051992D03*
%TO.P,C26,2*%
%TO.N,GND*%
X147448008Y-118148008D03*
%TD*%
D30*
%TO.P,R3,1*%
%TO.N,GND*%
X150900000Y-109290000D03*
%TO.P,R3,2*%
%TO.N,Net-(U1-BOOT0)*%
X150900000Y-110310000D03*
%TD*%
D31*
%TO.P,C51,1*%
%TO.N,Net-(C51-Pad1)*%
X147300000Y-90380000D03*
%TO.P,C51,2*%
%TO.N,/NFC_RFID/A1*%
X147300000Y-89420000D03*
%TD*%
D32*
%TO.P,C4,1*%
%TO.N,+3.3V*%
X147548008Y-100251992D03*
%TO.P,C4,2*%
%TO.N,GND*%
X146451992Y-101348008D03*
%TD*%
D33*
%TO.P,C45,1*%
%TO.N,GND*%
X150960589Y-100260589D03*
%TO.P,C45,2*%
%TO.N,+5V*%
X151639411Y-100939411D03*
%TD*%
D34*
%TO.P,U1,1,VDD*%
%TO.N,+3.3V*%
X148148214Y-107473106D03*
D35*
%TO.P,U1,2,PC14*%
%TO.N,/LSE_IN*%
X147837087Y-107077126D03*
%TO.P,U1,3,PC15*%
%TO.N,/LSE_OUT*%
X147483534Y-106723573D03*
%TO.P,U1,4,NRST*%
%TO.N,/NRST*%
X147129981Y-106370019D03*
%TO.P,U1,5,VDDA*%
%TO.N,+3.3VA*%
X146776427Y-106016466D03*
%TO.P,U1,6,PA0*%
%TO.N,Button_LT*%
X146422874Y-105662913D03*
D36*
%TO.P,U1,7,PA1*%
%TO.N,Button_LB*%
X146026894Y-105351786D03*
D37*
%TO.P,U1,8,PA2*%
%TO.N,unconnected-(U1-PA2-Pad8)*%
X146026894Y-104648214D03*
D38*
%TO.P,U1,9,PA3*%
%TO.N,SPI_IRQ_STM*%
X146422874Y-104337087D03*
%TO.P,U1,10,PA4*%
%TO.N,SPI_CS_STM*%
X146776427Y-103983534D03*
%TO.P,U1,11,PA5*%
%TO.N,SPI_SCL_STM*%
X147129981Y-103629981D03*
%TO.P,U1,12,PA6*%
%TO.N,SPI_MISO_STM*%
X147483534Y-103276427D03*
%TO.P,U1,13,PA7*%
%TO.N,SPI_MOSI_STM*%
X147837087Y-102922874D03*
D39*
%TO.P,U1,14,PB0*%
%TO.N,unconnected-(U1-PB0-Pad14)*%
X148148214Y-102526894D03*
D40*
%TO.P,U1,15,PB1*%
%TO.N,BATT_STM*%
X148851786Y-102526894D03*
D35*
%TO.P,U1,16,VSS*%
%TO.N,GND*%
X149162913Y-102922874D03*
%TO.P,U1,17,VDD*%
%TO.N,+3.3V*%
X149516466Y-103276427D03*
%TO.P,U1,18,PA8*%
%TO.N,CHRG_STM*%
X149870019Y-103629981D03*
%TO.P,U1,19,PA9*%
%TO.N,DONE_STM*%
X150223573Y-103983534D03*
%TO.P,U1,20,PA10*%
%TO.N,Button_R*%
X150577126Y-104337087D03*
D41*
%TO.P,U1,21,PA13*%
%TO.N,/SWDIO*%
X150973106Y-104648214D03*
D42*
%TO.P,U1,22,PA14*%
%TO.N,/SWCLK*%
X150973106Y-105351786D03*
D38*
%TO.P,U1,23,PA15*%
%TO.N,DIN_STM*%
X150577126Y-105662913D03*
%TO.P,U1,24,PB3*%
%TO.N,unconnected-(U1-PB3-Pad24)*%
X150223573Y-106016466D03*
%TO.P,U1,25,PB6*%
%TO.N,unconnected-(U1-PB6-Pad25)*%
X149870019Y-106370019D03*
%TO.P,U1,26,PB7*%
%TO.N,unconnected-(U1-PB7-Pad26)*%
X149516466Y-106723573D03*
%TO.P,U1,27,BOOT0*%
%TO.N,Net-(U1-BOOT0)*%
X149162913Y-107077126D03*
D43*
%TO.P,U1,28,VSS*%
%TO.N,GND*%
X148851786Y-107473106D03*
%TD*%
D44*
%TO.P,L3,1,1*%
%TO.N,Net-(C51-Pad1)*%
X147600000Y-91975000D03*
%TO.P,L3,2,2*%
%TO.N,Net-(U3-RFO2)*%
X147600000Y-94100000D03*
%TD*%
D45*
%TO.P,J2,A5,CC1*%
%TO.N,Net-(J2-CC1)*%
X134385000Y-105500000D03*
D46*
%TO.P,J2,A9,VBUS*%
%TO.N,VBUS*%
X134385000Y-103480000D03*
D47*
%TO.P,J2,A12,GND*%
%TO.N,GND*%
X134385000Y-102250000D03*
D48*
%TO.P,J2,B5,CC2*%
%TO.N,Net-(J2-CC2)*%
X134385000Y-104500000D03*
D49*
%TO.P,J2,B9,VBUS*%
%TO.N,VBUS*%
X134385000Y-106520000D03*
D50*
%TO.P,J2,B12,GND*%
%TO.N,GND*%
X134385000Y-107750000D03*
D51*
%TO.P,J2,S1,SHIELD*%
X130750000Y-110125000D03*
D52*
X134330000Y-110125000D03*
D51*
X130750000Y-99875000D03*
D52*
X134330000Y-99875000D03*
%TD*%
D21*
%TO.P,C57,1*%
%TO.N,GND*%
X145120000Y-91500000D03*
%TO.P,C57,2*%
%TO.N,Net-(U3-RFI1)*%
X146080000Y-91500000D03*
%TD*%
%TO.P,C52,1*%
%TO.N,Net-(C50-Pad1)*%
X151500000Y-94200000D03*
%TO.P,C52,2*%
%TO.N,GND*%
X152460000Y-94200000D03*
%TD*%
D53*
%TO.P,C39,1*%
%TO.N,GND*%
X153500000Y-97400000D03*
%TO.P,C39,2*%
%TO.N,Net-(U3-VDD_AM)*%
X152821178Y-98078822D03*
%TD*%
D54*
%TO.P,C28,1*%
%TO.N,GND*%
X142926274Y-88173726D03*
%TO.P,C28,2*%
%TO.N,Button_LT*%
X142473726Y-88626274D03*
%TD*%
D16*
%TO.P,R1,1*%
%TO.N,+3.3V*%
X152960624Y-119360624D03*
%TO.P,R1,2*%
%TO.N,DIN_STM*%
X152239376Y-118639376D03*
%TD*%
D54*
%TO.P,C7,1*%
%TO.N,/NRST*%
X148526274Y-111273726D03*
%TO.P,C7,2*%
%TO.N,GND*%
X148073726Y-111726274D03*
%TD*%
D31*
%TO.P,C58,1*%
%TO.N,GND*%
X145100000Y-90380000D03*
%TO.P,C58,2*%
%TO.N,/NFC_RFID/A1*%
X145100000Y-89420000D03*
%TD*%
D23*
%TO.P,C42,1*%
%TO.N,+5V*%
X150726274Y-96926274D03*
%TO.P,C42,2*%
%TO.N,GND*%
X150273726Y-96473726D03*
%TD*%
D22*
%TO.P,C48,1*%
%TO.N,GND*%
X157900000Y-107920000D03*
%TO.P,C48,2*%
%TO.N,Net-(U3-XTI)*%
X157900000Y-108880000D03*
%TD*%
D55*
%TO.P,R10,1*%
%TO.N,Button_LT*%
X141760624Y-89339376D03*
%TO.P,R10,2*%
%TO.N,GND*%
X141039376Y-90060624D03*
%TD*%
D56*
%TO.P,R15,1*%
%TO.N,Net-(SW2A-A)*%
X166210000Y-109700000D03*
%TO.P,R15,2*%
%TO.N,Button_R*%
X165190000Y-109700000D03*
%TD*%
D23*
%TO.P,C44,1*%
%TO.N,+5V*%
X150826274Y-101526274D03*
%TO.P,C44,2*%
%TO.N,GND*%
X150373726Y-101073726D03*
%TD*%
D57*
%TO.P,R13,1*%
%TO.N,Net-(SW1A-A)*%
X132539376Y-115060624D03*
%TO.P,R13,2*%
%TO.N,Button_LB*%
X133260624Y-114339376D03*
%TD*%
D25*
%TO.P,C46,1*%
%TO.N,GND*%
X161000000Y-99500000D03*
%TO.P,C46,2*%
%TO.N,Net-(U3-AGDC)*%
X160321178Y-98821178D03*
%TD*%
D33*
%TO.P,C43,1*%
%TO.N,GND*%
X151360589Y-97960589D03*
%TO.P,C43,2*%
%TO.N,+5V*%
X152039411Y-98639411D03*
%TD*%
D25*
%TO.P,C9,1*%
%TO.N,/LSE_OUT*%
X144539411Y-106539411D03*
%TO.P,C9,2*%
%TO.N,GND*%
X143860589Y-105860589D03*
%TD*%
D31*
%TO.P,C60,1*%
%TO.N,Net-(U3-RFI2)*%
X151400000Y-90380000D03*
%TO.P,C60,2*%
%TO.N,/NFC_RFID/A2*%
X151400000Y-89420000D03*
%TD*%
D17*
%TO.P,J1,1,Pin_1*%
%TO.N,unconnected-(J1-Pin_1-Pad1)*%
X161401041Y-114872614D03*
%TO.P,J1,2,Pin_2*%
%TO.N,/NRST*%
X160835355Y-115438299D03*
%TO.P,J1,3,Pin_3*%
%TO.N,+3.3V*%
X160269670Y-116003984D03*
%TO.P,J1,4,Pin_4*%
%TO.N,GND*%
X159703984Y-116569670D03*
%TO.P,J1,5,Pin_5*%
%TO.N,/SWDIO*%
X159138299Y-117135355D03*
%TO.P,J1,6,Pin_6*%
%TO.N,/SWCLK*%
X158572614Y-117701041D03*
D18*
%TO.P,J1,MP*%
%TO.N,N/C*%
X163699138Y-115332233D03*
X159032233Y-119999138D03*
%TD*%
D58*
%TO.P,C38,1*%
%TO.N,Net-(U3-VDD_AM)*%
X152173726Y-97426274D03*
%TO.P,C38,2*%
%TO.N,GND*%
X152626274Y-96973726D03*
%TD*%
D59*
%TO.P,R14,1*%
%TO.N,Button_R*%
X163000000Y-108787500D03*
%TO.P,R14,2*%
%TO.N,GND*%
X163000000Y-110612500D03*
%TD*%
D22*
%TO.P,C6,1*%
%TO.N,GND*%
X149800000Y-109320000D03*
%TO.P,C6,2*%
%TO.N,+3.3V*%
X149800000Y-110280000D03*
%TD*%
D60*
%TO.P,SW1,1,A*%
%TO.N,Net-(SW1A-A)*%
X133961237Y-116919348D03*
X137923462Y-120363658D03*
%TO.P,SW1,2,B*%
%TO.N,+3.3V*%
X135076538Y-115636342D03*
X139038763Y-119080652D03*
%TD*%
D61*
%TO.P,U4,1,SW*%
%TO.N,Net-(D13-A)*%
X148732583Y-113423915D03*
%TO.P,U4,2,GND*%
%TO.N,GND*%
X149404334Y-114095666D03*
%TO.P,U4,3,FB*%
%TO.N,Net-(U4-FB)*%
X150076085Y-114767417D03*
%TO.P,U4,4,EN*%
%TO.N,+BATT*%
X148467417Y-116376085D03*
%TO.P,U4,5,IN*%
X147795666Y-115704334D03*
%TO.P,U4,6,NC*%
%TO.N,unconnected-(U4-NC-Pad6)*%
X147123915Y-115032583D03*
%TD*%
D57*
%TO.P,R17,1*%
%TO.N,BATT_STM*%
X151139376Y-117760624D03*
%TO.P,R17,2*%
%TO.N,GND*%
X151860624Y-117039376D03*
%TD*%
D62*
%TO.P,Q1,1,S*%
%TO.N,DIN_STM*%
X151154558Y-119601939D03*
%TO.P,Q1,2,G*%
%TO.N,+3.3V*%
X152498061Y-120945442D03*
%TO.P,Q1,3,D*%
%TO.N,DIN_LED*%
X149973690Y-122126310D03*
%TD*%
D22*
%TO.P,C11,1*%
%TO.N,GND*%
X141900000Y-101000000D03*
%TO.P,C11,2*%
%TO.N,+3.3V*%
X141900000Y-101960000D03*
%TD*%
D19*
%TO.P,C55,1*%
%TO.N,Net-(C51-Pad1)*%
X146100000Y-94200000D03*
%TO.P,C55,2*%
%TO.N,GND*%
X145140000Y-94200000D03*
%TD*%
D63*
%TO.P,C25,1*%
%TO.N,+BATT*%
X137000000Y-112450000D03*
%TO.P,C25,2*%
%TO.N,GND*%
X135450000Y-112450000D03*
%TD*%
D64*
%TO.P,Y1,1,1*%
%TO.N,Net-(U3-XTI)*%
X156300000Y-108600000D03*
%TO.P,Y1,2,2*%
%TO.N,GND*%
X154100000Y-108600000D03*
%TO.P,Y1,3,3*%
%TO.N,Net-(U3-XTO)*%
X154100000Y-106900000D03*
%TO.P,Y1,4,4*%
%TO.N,GND*%
X156300000Y-106900000D03*
%TD*%
D54*
%TO.P,C40,1*%
%TO.N,Net-(U3-VDD_DR)*%
X150026274Y-98273726D03*
%TO.P,C40,2*%
%TO.N,GND*%
X149573726Y-98726274D03*
%TD*%
D65*
%TO.P,C27,1*%
%TO.N,+5V*%
X154648008Y-117548008D03*
%TO.P,C27,2*%
%TO.N,GND*%
X153551992Y-116451992D03*
%TD*%
D66*
%TO.P,C29,1*%
%TO.N,GND*%
X135913493Y-113790061D03*
%TO.P,C29,2*%
%TO.N,Button_LB*%
X136396507Y-114209939D03*
%TD*%
D67*
%TO.P,C47,1*%
%TO.N,Net-(U3-AGDC)*%
X161273726Y-98353726D03*
%TO.P,C47,2*%
%TO.N,GND*%
X161726274Y-98806274D03*
%TD*%
D22*
%TO.P,C59,1*%
%TO.N,/NFC_RFID/A2*%
X152500000Y-89440000D03*
%TO.P,C59,2*%
%TO.N,GND*%
X152500000Y-90400000D03*
%TD*%
D53*
%TO.P,C5,1*%
%TO.N,GND*%
X142719411Y-103260589D03*
%TO.P,C5,2*%
%TO.N,+3.3VA*%
X142040589Y-103939411D03*
%TD*%
D67*
%TO.P,C34,1*%
%TO.N,Net-(U3-VDD_D)*%
X153573726Y-103973726D03*
%TO.P,C34,2*%
%TO.N,GND*%
X154026274Y-104426274D03*
%TD*%
%TO.P,C36,1*%
%TO.N,Net-(U3-VDD_A)*%
X151773726Y-102373726D03*
%TO.P,C36,2*%
%TO.N,GND*%
X152226274Y-102826274D03*
%TD*%
D31*
%TO.P,C56,1*%
%TO.N,Net-(U3-RFI1)*%
X146200000Y-90380000D03*
%TO.P,C56,2*%
%TO.N,/NFC_RFID/A1*%
X146200000Y-89420000D03*
%TD*%
D57*
%TO.P,R6,1*%
%TO.N,DIN_LED*%
X147539376Y-121160624D03*
%TO.P,R6,2*%
%TO.N,Net-(D7-DIN)*%
X148260624Y-120439376D03*
%TD*%
D68*
%TO.P,R12,1*%
%TO.N,Button_LB*%
X137711328Y-114601346D03*
%TO.P,R12,2*%
%TO.N,GND*%
X139088672Y-115798654D03*
%TD*%
D56*
%TO.P,R5,1*%
%TO.N,GND*%
X137110000Y-104500000D03*
%TO.P,R5,2*%
%TO.N,Net-(J2-CC2)*%
X136090000Y-104500000D03*
%TD*%
D33*
%TO.P,C3,1*%
%TO.N,+3.3VA*%
X145660589Y-106760589D03*
%TO.P,C3,2*%
%TO.N,GND*%
X146339411Y-107439411D03*
%TD*%
D69*
%TO.P,R4,1*%
%TO.N,Net-(J2-CC1)*%
X136090000Y-105500000D03*
%TO.P,R4,2*%
%TO.N,GND*%
X137110000Y-105500000D03*
%TD*%
D55*
%TO.P,R2,1*%
%TO.N,+5V*%
X154460624Y-120939376D03*
%TO.P,R2,2*%
%TO.N,DIN_LED*%
X153739376Y-121660624D03*
%TD*%
D70*
%TO.P,SW2,1,A*%
%TO.N,Net-(SW2A-A)*%
X167350000Y-107625000D03*
X167350000Y-102375000D03*
%TO.P,SW2,2,B*%
%TO.N,+3.3V*%
X165650000Y-107625000D03*
X165650000Y-102375000D03*
%TD*%
D19*
%TO.P,C61,1*%
%TO.N,GND*%
X152480000Y-91500000D03*
%TO.P,C61,2*%
%TO.N,Net-(U3-RFI2)*%
X151520000Y-91500000D03*
%TD*%
D31*
%TO.P,C50,1*%
%TO.N,Net-(C50-Pad1)*%
X150300000Y-90380000D03*
%TO.P,C50,2*%
%TO.N,/NFC_RFID/A2*%
X150300000Y-89420000D03*
%TD*%
D71*
%TO.P,C41,1*%
%TO.N,GND*%
X150221178Y-99478822D03*
%TO.P,C41,2*%
%TO.N,Net-(U3-VDD_DR)*%
X150900000Y-98800000D03*
%TD*%
D72*
%TO.P,U2,1,VIN*%
%TO.N,+5V*%
X138710000Y-102130000D03*
%TO.P,U2,2,GND*%
%TO.N,GND*%
X138710000Y-101480000D03*
%TO.P,U2,3,EN*%
%TO.N,+5V*%
X138710000Y-100830000D03*
%TO.P,U2,4,NC*%
%TO.N,unconnected-(U2-NC-Pad4)*%
X140610000Y-100830000D03*
%TO.P,U2,5,VOUT*%
%TO.N,+3.3V*%
X140610000Y-102130000D03*
%TD*%
D30*
%TO.P,R7,1*%
%TO.N,Net-(ME4055A1-PROG)*%
X142200000Y-110590000D03*
%TO.P,R7,2*%
%TO.N,GND*%
X142200000Y-111610000D03*
%TD*%
D73*
%TO.P,Y2,1,1*%
%TO.N,/LSE_IN*%
X146263604Y-111236396D03*
%TO.P,Y2,2,2*%
%TO.N,GND*%
X141808832Y-106781624D03*
%TO.P,Y2,3,3*%
X142445228Y-106145228D03*
%TO.P,Y2,4,4*%
%TO.N,/LSE_OUT*%
X146900000Y-110600000D03*
%TD*%
D74*
%TO.P,D13,1,K*%
%TO.N,+5V*%
X140305025Y-114405025D03*
%TO.P,D13,2,A*%
%TO.N,Net-(D13-A)*%
X141294975Y-115394975D03*
%TD*%
D75*
%TO.P,FB1,1*%
%TO.N,+3.3VA*%
X143143153Y-104856847D03*
%TO.P,FB1,2*%
%TO.N,+3.3V*%
X144256847Y-103743153D03*
%TD*%
D21*
%TO.P,C53,1*%
%TO.N,GND*%
X145120000Y-93100000D03*
%TO.P,C53,2*%
%TO.N,Net-(C51-Pad1)*%
X146080000Y-93100000D03*
%TD*%
D76*
%TO.P,C30,1*%
%TO.N,GND*%
X163000000Y-106925000D03*
%TO.P,C30,2*%
%TO.N,Button_R*%
X163000000Y-107565000D03*
%TD*%
D57*
%TO.P,R16,1*%
%TO.N,+BATT*%
X149339376Y-117760624D03*
%TO.P,R16,2*%
%TO.N,BATT_STM*%
X150060624Y-117039376D03*
%TD*%
D77*
%TO.N,+3.3V*%
X136850000Y-92900000D03*
X140950000Y-118900000D03*
%TO.N,+5V*%
X154460624Y-120050000D03*
X139700000Y-113700000D03*
X136400000Y-102000000D03*
%TO.N,/NRST*%
X159250000Y-113950000D03*
%TO.N,+3.3V*%
X158550000Y-114500000D03*
X153450000Y-118600000D03*
%TO.N,GND*%
X145250000Y-107650000D03*
X151500000Y-115750000D03*
%TO.N,BATT_STM*%
X150500000Y-116200000D03*
%TO.N,GND*%
X151000000Y-108400000D03*
D78*
X159800000Y-107500000D03*
D77*
%TO.N,+3.3V*%
X159500000Y-105800000D03*
%TO.N,GND*%
X144200000Y-93800000D03*
X153500000Y-94500000D03*
D78*
X144100000Y-98500000D03*
D77*
%TO.N,+BATT*%
X137499990Y-110800000D03*
X142900000Y-116000000D03*
D78*
%TO.N,GND*%
X139800000Y-105100000D03*
D77*
%TO.N,+5V*%
X151600000Y-99300002D03*
%TO.N,Net-(U3-RFO2)*%
X147600000Y-95000000D03*
%TO.N,Net-(U3-RFO1)*%
X149900000Y-95000000D03*
%TO.N,DIN_STM*%
X152700000Y-117900000D03*
%TO.N,/SWCLK*%
X157700000Y-118500000D03*
%TO.N,/SWDIO*%
X158200000Y-116000000D03*
%TO.N,Button_R*%
X161300000Y-108800000D03*
%TO.N,CHRG_STM*%
X141600000Y-113300000D03*
%TO.N,DONE_STM*%
X139900000Y-108400000D03*
%TO.N,Button_LT*%
X142900000Y-89500000D03*
%TO.N,Button_LB*%
X136000000Y-115000000D03*
%TO.N,Net-(U3-VDD_DR)*%
X152841590Y-100178612D03*
X154300000Y-96500000D03*
%TO.N,Net-(U3-RFO2)*%
X155900000Y-96300000D03*
%TO.N,Net-(U3-RFO1)*%
X153400000Y-96500000D03*
%TO.N,+5V*%
X149600000Y-97600000D03*
X152146795Y-100410819D03*
%TO.N,SPI_MOSI_STM*%
X157884846Y-103808385D03*
%TO.N,SPI_MISO_STM*%
X157340901Y-104249911D03*
%TO.N,SPI_SCL_STM*%
X158394578Y-103328618D03*
%TO.N,SPI_CS_STM*%
X158889045Y-102800000D03*
%TO.N,SPI_IRQ_STM*%
X159350000Y-102250000D03*
%TO.N,CHRG_STM*%
X148408159Y-104500000D03*
%TO.N,DONE_STM*%
X149213312Y-105060802D03*
%TO.N,Button_R*%
X151300000Y-103600000D03*
%TO.N,/SWDIO*%
X151800000Y-104100000D03*
%TO.N,/SWCLK*%
X151487548Y-106235757D03*
%TO.N,DIN_STM*%
X151021805Y-106823623D03*
%TO.N,Button_LT*%
X147200000Y-105000000D03*
%TO.N,Button_LB*%
X145100000Y-105500000D03*
%TO.N,BATT_STM*%
X149000000Y-101300000D03*
%TO.N,SPI_MOSI_STM*%
X147440191Y-101817276D03*
%TO.N,SPI_MISO_STM*%
X146910559Y-102301725D03*
%TO.N,SPI_SCL_STM*%
X146350000Y-102850016D03*
%TO.N,SPI_CS_STM*%
X145850000Y-103400000D03*
%TO.N,SPI_IRQ_STM*%
X145348275Y-103907472D03*
D78*
%TO.N,/NRST*%
X148100000Y-105500000D03*
X149000000Y-112200000D03*
%TO.N,+3.3V*%
X150500000Y-111700000D03*
X150940546Y-102829742D03*
X147800000Y-98800000D03*
D77*
%TO.N,GND*%
X136800000Y-95900000D03*
X155900000Y-115000000D03*
X141900000Y-90800000D03*
X136800000Y-109900000D03*
X148900000Y-88900000D03*
X155900000Y-90800000D03*
X161000000Y-95900000D03*
X161000000Y-109900000D03*
X162900000Y-102900000D03*
%TO.N,/NFC_RFID/A2*%
X149550000Y-88500000D03*
%TO.N,/NFC_RFID/A1*%
X148575000Y-85850000D03*
%TO.N,Net-(D7-DIN)*%
X148900000Y-119900000D03*
%TD*%
D79*
%TO.N,+3.3V*%
X140950000Y-118900000D02*
X139219415Y-118900000D01*
X139219415Y-118900000D02*
X139038763Y-119080652D01*
%TO.N,/NFC_RFID/A2*%
X150300000Y-89420000D02*
X150300000Y-89250000D01*
X150300000Y-89250000D02*
X149550000Y-88500000D01*
D80*
%TO.N,SPI_MISO_STM*%
X157340901Y-104249911D02*
X156784368Y-103693378D01*
X156784368Y-103693378D02*
X156784368Y-103159242D01*
%TO.N,SPI_MOSI_STM*%
X157884846Y-103808385D02*
X157600000Y-103523539D01*
X157600000Y-103523539D02*
X157600000Y-103267766D01*
X157600000Y-103267766D02*
X157137922Y-102805688D01*
%TO.N,SPI_SCL_STM*%
X157541475Y-102491475D02*
X157491475Y-102491475D01*
X158394578Y-103328618D02*
X158378618Y-103328618D01*
X158378618Y-103328618D02*
X157541475Y-102491475D01*
%TO.N,SPI_CS_STM*%
X158889045Y-102800000D02*
X158546446Y-102800000D01*
X158546446Y-102800000D02*
X157845028Y-102098582D01*
%TO.N,SPI_IRQ_STM*%
X159350000Y-102189340D02*
X159350000Y-102250000D01*
X158552135Y-101391475D02*
X159350000Y-102189340D01*
D79*
%TO.N,GND*%
X147331922Y-101167276D02*
X147755885Y-101167276D01*
X147277870Y-101113224D02*
X147331922Y-101167276D01*
X146770190Y-101029810D02*
X147079941Y-101029810D01*
X146451992Y-101348008D02*
X146770190Y-101029810D01*
D81*
%TO.N,SPI_MISO_STM*%
X146910559Y-102703452D02*
X146910559Y-102301725D01*
%TO.N,SPI_SCL_STM*%
X147129981Y-103629981D02*
X146350016Y-102850016D01*
X146350016Y-102850016D02*
X146350000Y-102850016D01*
D79*
%TO.N,GND*%
X147163355Y-101113224D02*
X147277870Y-101113224D01*
X147888609Y-101300000D02*
X147900000Y-101300000D01*
D81*
%TO.N,SPI_MOSI_STM*%
X147440191Y-102525978D02*
X147440191Y-101817276D01*
D79*
%TO.N,GND*%
X147079941Y-101029810D02*
X147163355Y-101113224D01*
D81*
%TO.N,SPI_MISO_STM*%
X147483534Y-103276427D02*
X146910559Y-102703452D01*
%TO.N,SPI_MOSI_STM*%
X147837087Y-102922874D02*
X147440191Y-102525978D01*
D79*
%TO.N,GND*%
X147755885Y-101167276D02*
X147888609Y-101300000D01*
D81*
%TO.N,SPI_CS_STM*%
X146192893Y-103400000D02*
X145850000Y-103400000D01*
%TO.N,SPI_IRQ_STM*%
X146422874Y-104337087D02*
X146060787Y-103975000D01*
X145415803Y-103975000D02*
X145348275Y-103907472D01*
X146060787Y-103975000D02*
X145415803Y-103975000D01*
%TO.N,SPI_CS_STM*%
X146776427Y-103983534D02*
X146192893Y-103400000D01*
D80*
%TO.N,Button_LB*%
X146026894Y-105351786D02*
X145248214Y-105351786D01*
D81*
%TO.N,+3.3VA*%
X143696790Y-104856847D02*
X145600532Y-106760589D01*
X145600532Y-106760589D02*
X145660589Y-106760589D01*
D80*
%TO.N,Button_LB*%
X145248214Y-105351786D02*
X145100000Y-105500000D01*
D81*
%TO.N,+3.3VA*%
X143143153Y-104856847D02*
X143696790Y-104856847D01*
D79*
%TO.N,+3.3V*%
X150426274Y-102326274D02*
X150929742Y-102829742D01*
X150929742Y-102829742D02*
X150940546Y-102829742D01*
%TO.N,+5V*%
X154460624Y-120939376D02*
X154460624Y-120050000D01*
X140305025Y-114405025D02*
X140305025Y-114305025D01*
X140305025Y-114305025D02*
X139700000Y-113700000D01*
X137300000Y-102360000D02*
X136760000Y-102360000D01*
X136760000Y-102360000D02*
X136400000Y-102000000D01*
%TO.N,+3.3V*%
X140610000Y-102130000D02*
X139440000Y-103300000D01*
X135500000Y-94732724D02*
X135202193Y-94434917D01*
X139440000Y-103300000D02*
X136530761Y-103300000D01*
X136530761Y-103300000D02*
X135500000Y-102269239D01*
X135500000Y-102269239D02*
X135500000Y-94732724D01*
D80*
%TO.N,/NRST*%
X159250000Y-113950000D02*
X159350000Y-113950000D01*
X159350000Y-113950000D02*
X160835355Y-115435355D01*
X160835355Y-115435355D02*
X160835355Y-115438299D01*
%TO.N,+3.3V*%
X158550000Y-114500000D02*
X158750000Y-114500000D01*
X158750000Y-114500000D02*
X160253984Y-116003984D01*
X160253984Y-116003984D02*
X160269670Y-116003984D01*
X153450000Y-118600000D02*
X153450000Y-118871248D01*
X153450000Y-118871248D02*
X152960624Y-119360624D01*
D79*
%TO.N,GND*%
X143860589Y-105860589D02*
X143771178Y-105950000D01*
X143771178Y-105950000D02*
X142640456Y-105950000D01*
X142640456Y-105950000D02*
X142445228Y-106145228D01*
X146339411Y-107439411D02*
X146128822Y-107650000D01*
X146128822Y-107650000D02*
X145250000Y-107650000D01*
D81*
%TO.N,/LSE_OUT*%
X146976358Y-108173642D02*
X146976358Y-107230749D01*
X145486827Y-108650000D02*
X146500000Y-108650000D01*
X144539411Y-107702584D02*
X145486827Y-108650000D01*
X146976358Y-107230749D02*
X147483534Y-106723573D01*
X146500000Y-108650000D02*
X146976358Y-108173642D01*
X144539411Y-106539411D02*
X144539411Y-107702584D01*
D79*
%TO.N,GND*%
X151860624Y-117039376D02*
X152964608Y-117039376D01*
X152964608Y-117039376D02*
X153551992Y-116451992D01*
D80*
%TO.N,BATT_STM*%
X150500000Y-116200000D02*
X150500000Y-116600000D01*
X150500000Y-116600000D02*
X150060624Y-117039376D01*
%TO.N,Net-(U1-BOOT0)*%
X150900000Y-110310000D02*
X151790000Y-110310000D01*
X152100000Y-110000000D02*
X152100000Y-108500000D01*
X151790000Y-110310000D02*
X152100000Y-110000000D01*
X152100000Y-108500000D02*
X151200000Y-107600000D01*
X151200000Y-107600000D02*
X149685787Y-107600000D01*
X149685787Y-107600000D02*
X149162913Y-107077126D01*
D79*
%TO.N,GND*%
X156300000Y-106900000D02*
X156100000Y-106900000D01*
X156100000Y-106900000D02*
X154400000Y-108600000D01*
X154400000Y-108600000D02*
X154100000Y-108600000D01*
D81*
%TO.N,Net-(U3-XTI)*%
X154401418Y-101745028D02*
X154401418Y-101762292D01*
X152500000Y-103663710D02*
X152500000Y-108900000D01*
X155700000Y-110200000D02*
X156300000Y-109600000D01*
X154401418Y-101762292D02*
X152500000Y-103663710D01*
X152500000Y-108900000D02*
X153800000Y-110200000D01*
X153800000Y-110200000D02*
X155700000Y-110200000D01*
X156300000Y-109600000D02*
X156300000Y-108600000D01*
D79*
%TO.N,GND*%
X156300000Y-106900000D02*
X156620000Y-106580000D01*
X156620000Y-106580000D02*
X156620000Y-105100000D01*
X141660589Y-108260589D02*
X141500000Y-108421178D01*
X141500000Y-108421178D02*
X141500000Y-109400000D01*
X139600000Y-112037500D02*
X139600000Y-112461262D01*
X139600000Y-112461262D02*
X139088672Y-112972590D01*
X139088672Y-112972590D02*
X139088672Y-115798654D01*
D80*
%TO.N,CHRG_STM*%
X141600000Y-113300000D02*
X140550000Y-112250000D01*
X140550000Y-112250000D02*
X140550000Y-112037500D01*
%TO.N,DONE_STM*%
X139900000Y-108400000D02*
X139600000Y-108700000D01*
X139600000Y-108700000D02*
X139600000Y-109762500D01*
D79*
%TO.N,Button_LB*%
X136396507Y-114209939D02*
X136396507Y-114603493D01*
X136396507Y-114603493D02*
X136000000Y-115000000D01*
D80*
%TO.N,Button_R*%
X161300000Y-108800000D02*
X162987500Y-108800000D01*
X162987500Y-108800000D02*
X163000000Y-108787500D01*
D81*
%TO.N,+3.3V*%
X159500000Y-105800000D02*
X162900000Y-105800000D01*
X162900000Y-105800000D02*
X164725000Y-107625000D01*
X164725000Y-107625000D02*
X165650000Y-107625000D01*
X158100000Y-105800000D02*
X159500000Y-105800000D01*
X156280001Y-104600000D02*
X156900000Y-104600000D01*
X155980000Y-104900001D02*
X156280001Y-104600000D01*
X155980000Y-105100000D02*
X155980000Y-104900001D01*
X156900000Y-104600000D02*
X158100000Y-105800000D01*
X159200000Y-105800000D02*
X159500000Y-105800000D01*
X155980000Y-105100000D02*
X155980000Y-103323610D01*
X155980000Y-103323610D02*
X155815632Y-103159242D01*
D79*
%TO.N,Net-(U3-RFI1)*%
X146080000Y-91500000D02*
X146080000Y-91809999D01*
X145589999Y-92300000D02*
X144500000Y-92300000D01*
X146080000Y-91809999D02*
X145589999Y-92300000D01*
X143400000Y-94300000D02*
X144717788Y-95617788D01*
X144717788Y-95617788D02*
X157417788Y-95617788D01*
X158934413Y-98626247D02*
X158552135Y-99008525D01*
X144500000Y-92300000D02*
X143400000Y-93400000D01*
X143400000Y-93400000D02*
X143400000Y-94300000D01*
X157417788Y-95617788D02*
X158934413Y-97134413D01*
X158934413Y-97134413D02*
X158934413Y-98626247D01*
%TO.N,Button_LT*%
X142473726Y-88626274D02*
X142473726Y-89073726D01*
X142473726Y-89073726D02*
X142900000Y-89500000D01*
%TO.N,GND*%
X142719411Y-103260589D02*
X142558822Y-103100000D01*
X142558822Y-103100000D02*
X141600000Y-103100000D01*
X141900000Y-101000000D02*
X141900000Y-100700000D01*
X141900000Y-100700000D02*
X144100000Y-98500000D01*
D81*
X149873726Y-101773726D02*
X149873726Y-101573726D01*
X149873726Y-101573726D02*
X150373726Y-101073726D01*
%TO.N,/SWCLK*%
X157700000Y-118500000D02*
X157773655Y-118500000D01*
X157773655Y-118500000D02*
X158572614Y-117701041D01*
D80*
%TO.N,/SWDIO*%
X158200000Y-116000000D02*
X158200000Y-116197056D01*
X158200000Y-116197056D02*
X159138299Y-117135355D01*
D79*
%TO.N,DIN_STM*%
X152239376Y-118639376D02*
X152239376Y-118360624D01*
X152239376Y-118360624D02*
X152700000Y-117900000D01*
%TO.N,+BATT*%
X138650000Y-112037500D02*
X138650000Y-111950010D01*
X138650000Y-111950010D02*
X137499990Y-110800000D01*
X144520495Y-114795495D02*
X144104505Y-114795495D01*
X144104505Y-114795495D02*
X142900000Y-116000000D01*
%TO.N,GND*%
X156620000Y-105100000D02*
X156620000Y-105329168D01*
X156620000Y-105329168D02*
X156249168Y-105700000D01*
X156249168Y-105700000D02*
X155600000Y-105700000D01*
X155600000Y-105700000D02*
X155078822Y-105178822D01*
X155078822Y-105178822D02*
X155078822Y-104178822D01*
%TO.N,Net-(U3-RFO1)*%
X149900000Y-95000000D02*
X149900000Y-94125000D01*
%TO.N,Net-(U3-RFO2)*%
X147600000Y-95000000D02*
X147600000Y-94100000D01*
%TO.N,+5V*%
X151600000Y-99300002D02*
X151600000Y-99078822D01*
X151600000Y-99078822D02*
X152039411Y-98639411D01*
D81*
%TO.N,Net-(U3-VDD_DR)*%
X151402316Y-99875000D02*
X153181390Y-99875000D01*
X150900000Y-99372684D02*
X151402316Y-99875000D01*
X153181390Y-99875000D02*
X153340758Y-99715632D01*
X150900000Y-98800000D02*
X150900000Y-99372684D01*
D79*
%TO.N,+5V*%
X152146795Y-100432027D02*
X152146795Y-100410819D01*
X151639411Y-100939411D02*
X152146795Y-100432027D01*
D80*
%TO.N,Net-(U3-VDD_DR)*%
X153340758Y-99715632D02*
X152877778Y-100178612D01*
X152877778Y-100178612D02*
X152841590Y-100178612D01*
%TO.N,+3.3V*%
X149800000Y-110280000D02*
X149800000Y-111000000D01*
X149800000Y-111000000D02*
X150500000Y-111700000D01*
%TO.N,/NRST*%
X148526274Y-111273726D02*
X149000000Y-111747452D01*
X149000000Y-111747452D02*
X149000000Y-112200000D01*
%TO.N,/SWCLK*%
X151487548Y-105866228D02*
X151487548Y-106235757D01*
%TO.N,DONE_STM*%
X150223573Y-103983534D02*
X149213312Y-104993795D01*
%TO.N,DIN_STM*%
X150936019Y-106021806D02*
X150936019Y-106737837D01*
%TO.N,DONE_STM*%
X149213312Y-104993795D02*
X149213312Y-105060802D01*
%TO.N,DIN_STM*%
X150936019Y-106737837D02*
X151021805Y-106823623D01*
%TO.N,CHRG_STM*%
X149870019Y-103629981D02*
X149000000Y-104500000D01*
%TO.N,DIN_STM*%
X150577126Y-105662913D02*
X150936019Y-106021806D01*
%TO.N,CHRG_STM*%
X149000000Y-104500000D02*
X148408159Y-104500000D01*
%TO.N,/SWCLK*%
X150973106Y-105351786D02*
X151487548Y-105866228D01*
%TO.N,BATT_STM*%
X149000000Y-101300000D02*
X149000000Y-102378680D01*
X149000000Y-102378680D02*
X148851786Y-102526894D01*
%TO.N,Button_LT*%
X147200000Y-105000000D02*
X147085787Y-105000000D01*
X147085787Y-105000000D02*
X146422874Y-105662913D01*
%TO.N,Button_R*%
X151300000Y-103600000D02*
X151300000Y-103614213D01*
X151300000Y-103614213D02*
X150577126Y-104337087D01*
D81*
%TO.N,Net-(U3-VDD_DR)*%
X154550000Y-96750000D02*
X154300000Y-96500000D01*
X154550000Y-97389340D02*
X154550000Y-96750000D01*
X155108525Y-97947865D02*
X154550000Y-97389340D01*
%TO.N,Net-(U3-RFO1)*%
X154754972Y-98301418D02*
X154200000Y-97746446D01*
X154200000Y-97746446D02*
X154200000Y-97300000D01*
X154200000Y-97300000D02*
X153400000Y-96500000D01*
%TO.N,SPI_SCL_STM*%
X157491475Y-102452135D02*
X157491475Y-102491475D01*
D80*
%TO.N,/SWDIO*%
X150973106Y-104648214D02*
X151251786Y-104648214D01*
X151251786Y-104648214D02*
X151800000Y-104100000D01*
D81*
%TO.N,+5V*%
X151639411Y-100939411D02*
X151639411Y-100660589D01*
D79*
X150726274Y-96926274D02*
X150052548Y-97600000D01*
X150052548Y-97600000D02*
X149600000Y-97600000D01*
D81*
%TO.N,Net-(U3-RFO2)*%
X155462078Y-97594312D02*
X155161983Y-97294217D01*
X155161983Y-97294217D02*
X155161983Y-96911529D01*
X155161983Y-96911529D02*
X155773512Y-96300000D01*
X155773512Y-96300000D02*
X155900000Y-96300000D01*
D80*
%TO.N,GND*%
X158905688Y-101037922D02*
X158937922Y-101037922D01*
X158937922Y-101037922D02*
X159800000Y-101900000D01*
D81*
%TO.N,/NRST*%
X147129981Y-106370019D02*
X147229981Y-106370019D01*
X147229981Y-106370019D02*
X148100000Y-105500000D01*
%TO.N,GND*%
X151360589Y-97960589D02*
X151360589Y-96956569D01*
X151360589Y-96956569D02*
X151984853Y-96332305D01*
D80*
%TO.N,+3.3V*%
X149516466Y-103276427D02*
X150326274Y-102466619D01*
X150326274Y-102466619D02*
X150326274Y-102226274D01*
D81*
%TO.N,GND*%
X149162913Y-102922874D02*
X149732305Y-102353482D01*
X149732305Y-102353482D02*
X149732305Y-101915147D01*
X149732305Y-101915147D02*
X149873726Y-101773726D01*
D80*
%TO.N,+3.3V*%
X149800000Y-110280000D02*
X149010001Y-110280000D01*
X149010001Y-110280000D02*
X148180000Y-109449999D01*
X148180000Y-109449999D02*
X148180000Y-109250000D01*
D79*
X147548008Y-100251992D02*
X147548008Y-99051992D01*
X147548008Y-99051992D02*
X147800000Y-98800000D01*
D81*
%TO.N,/LSE_IN*%
X146263604Y-111236396D02*
X146687868Y-111660660D01*
X147900000Y-110000000D02*
X147400000Y-109500000D01*
X146687868Y-111660660D02*
X147076778Y-111660660D01*
X147076778Y-111660660D02*
X147900000Y-110837438D01*
X147900000Y-110837438D02*
X147900000Y-110000000D01*
X147400000Y-109500000D02*
X147400000Y-107514213D01*
X147400000Y-107514213D02*
X147837087Y-107077126D01*
%TO.N,Net-(U3-VDD_D)*%
X154400000Y-103500000D02*
X154400000Y-103160660D01*
X154400000Y-103160660D02*
X155108525Y-102452135D01*
X154047452Y-103500000D02*
X154400000Y-103500000D01*
X153573726Y-103973726D02*
X154047452Y-103500000D01*
%TO.N,Net-(U3-VDD_A)*%
X151773726Y-102373726D02*
X151773726Y-102247452D01*
X152360589Y-101660589D02*
X153071645Y-101660589D01*
X151773726Y-102247452D02*
X152360589Y-101660589D01*
X153071645Y-101660589D02*
X153694312Y-101037922D01*
%TO.N,Net-(U3-VDD_AM)*%
X152173726Y-97431370D02*
X152821178Y-98078822D01*
X153118162Y-98078822D02*
X154047865Y-99008525D01*
X152821178Y-98078822D02*
X153118162Y-98078822D01*
X152173726Y-97426274D02*
X152173726Y-97431370D01*
%TO.N,Net-(U3-VDD_DR)*%
X150373726Y-98273726D02*
X150900000Y-98800000D01*
X150026274Y-98273726D02*
X150373726Y-98273726D01*
D79*
%TO.N,DIN_STM*%
X152239376Y-118639376D02*
X152117121Y-118639376D01*
X152117121Y-118639376D02*
X151154558Y-119601939D01*
D81*
%TO.N,+3.3V*%
X150426274Y-102326274D02*
X150426274Y-102366619D01*
D79*
X139038763Y-119080652D02*
X135594453Y-115636342D01*
X147548008Y-100251992D02*
X146796016Y-99500000D01*
X152960624Y-119360624D02*
X152960624Y-120482879D01*
X142473694Y-101960000D02*
X141900000Y-101960000D01*
X135331771Y-94434917D02*
X135202193Y-94434917D01*
X138978727Y-90787961D02*
X135331771Y-94434917D01*
D81*
X148180000Y-107504892D02*
X148148214Y-107473106D01*
D79*
X152960624Y-120482879D02*
X152498061Y-120945442D01*
X144669999Y-99500000D02*
X142209999Y-101960000D01*
X144256847Y-103743153D02*
X142473694Y-101960000D01*
X140610000Y-102130000D02*
X141730000Y-102130000D01*
X146796016Y-99500000D02*
X144669999Y-99500000D01*
X165650000Y-102375000D02*
X165650000Y-107625000D01*
D81*
X148180000Y-109250000D02*
X148180000Y-107504892D01*
D79*
X141730000Y-102130000D02*
X141900000Y-101960000D01*
X142209999Y-101960000D02*
X141900000Y-101960000D01*
X135594453Y-115636342D02*
X135076538Y-115636342D01*
%TO.N,DIN_LED*%
X149008004Y-121160624D02*
X149973690Y-122126310D01*
X149973690Y-122126310D02*
X153273690Y-122126310D01*
X153273690Y-122126310D02*
X153739376Y-121660624D01*
X147539376Y-121160624D02*
X149008004Y-121160624D01*
D81*
%TO.N,/LSE_IN*%
X143966619Y-108939411D02*
X142339411Y-108939411D01*
X146263604Y-111236396D02*
X143966619Y-108939411D01*
%TO.N,/LSE_OUT*%
X144539411Y-108239411D02*
X145650000Y-109350000D01*
X144539411Y-106539411D02*
X144539411Y-108239411D01*
X146900000Y-110600000D02*
X145650000Y-109350000D01*
X145650000Y-109350000D02*
X144639411Y-108339411D01*
%TO.N,+3.3VA*%
X146776427Y-106016466D02*
X146776427Y-106023573D01*
X145660589Y-106760589D02*
X146032304Y-106760589D01*
X146032304Y-106760589D02*
X146776427Y-106016466D01*
X142225717Y-103939411D02*
X143143153Y-104856847D01*
X142040589Y-103939411D02*
X142225717Y-103939411D01*
%TO.N,GND*%
X153073726Y-96973726D02*
X153500000Y-97400000D01*
X150415147Y-96332305D02*
X150273726Y-96473726D01*
D80*
X155815632Y-97315632D02*
X156300000Y-97800000D01*
D81*
X153099929Y-102339411D02*
X154047865Y-101391475D01*
D80*
X154047865Y-101391475D02*
X155239340Y-100200000D01*
D81*
X153500000Y-97400000D02*
X153500000Y-97753554D01*
D80*
X155815632Y-97240758D02*
X155815632Y-97315632D01*
X155946446Y-100200000D02*
X156300000Y-100200000D01*
D79*
X135913493Y-112913493D02*
X135450000Y-112450000D01*
D80*
X158071805Y-98528195D02*
X158198582Y-98654972D01*
D81*
X152626274Y-96973726D02*
X153073726Y-96973726D01*
X148851786Y-107473106D02*
X148851786Y-109218214D01*
D80*
X158905688Y-101037922D02*
X158067766Y-100200000D01*
D79*
X155078822Y-104178822D02*
X154831370Y-104426274D01*
D80*
X154401418Y-98654972D02*
X155946446Y-100200000D01*
D79*
X135913493Y-113790061D02*
X135913493Y-112913493D01*
D81*
X151984853Y-96332305D02*
X150415147Y-96332305D01*
D80*
X157845028Y-98301418D02*
X158071805Y-98528195D01*
D79*
X153420000Y-105032548D02*
X154026274Y-104426274D01*
D81*
X152226274Y-102826274D02*
X152552548Y-102826274D01*
D79*
X137380000Y-101480000D02*
X137300000Y-101400000D01*
X153420000Y-105500000D02*
X153420000Y-105032548D01*
D80*
X156300000Y-97800000D02*
X156300000Y-100200000D01*
D81*
X152626274Y-96973726D02*
X151984853Y-96332305D01*
D80*
X158198582Y-98654972D02*
X157900000Y-98654972D01*
X157845028Y-98301418D02*
X157845028Y-98654972D01*
X155239340Y-100200000D02*
X156300000Y-100200000D01*
X157900000Y-98654972D02*
X157845028Y-98654972D01*
X158067766Y-100200000D02*
X156300000Y-100200000D01*
X157945028Y-98654972D02*
X157900000Y-98654972D01*
D81*
X153039411Y-102339411D02*
X153099929Y-102339411D01*
D79*
X154831370Y-104426274D02*
X154026274Y-104426274D01*
D80*
X158071805Y-98528195D02*
X157945028Y-98654972D01*
D81*
X148851786Y-109218214D02*
X148820000Y-109250000D01*
X153500000Y-97753554D02*
X154401418Y-98654972D01*
X152552548Y-102826274D02*
X153039411Y-102339411D01*
D79*
X138710000Y-101480000D02*
X137380000Y-101480000D01*
D80*
X157845028Y-98654972D02*
X156300000Y-100200000D01*
D81*
%TO.N,+5V*%
X152039411Y-98639411D02*
X152390369Y-98990369D01*
D79*
X138710000Y-100830000D02*
X139330000Y-100830000D01*
X154648008Y-114448008D02*
X154645235Y-114445235D01*
X154648008Y-117548008D02*
X154648008Y-114448008D01*
X138710000Y-100830000D02*
X142440000Y-97100000D01*
X150552548Y-97100000D02*
X150726274Y-96926274D01*
X138710000Y-102130000D02*
X137530000Y-102130000D01*
D81*
X152390369Y-98990369D02*
X153322603Y-98990369D01*
X153085715Y-100939411D02*
X153340758Y-100684368D01*
D79*
X139270000Y-102130000D02*
X138710000Y-102130000D01*
X137530000Y-102130000D02*
X137300000Y-102360000D01*
X139600000Y-101100000D02*
X139600000Y-101800000D01*
X154460624Y-120939376D02*
X154460624Y-117735392D01*
D81*
X151639411Y-100939411D02*
X153085715Y-100939411D01*
X153322603Y-98990369D02*
X153694312Y-99362078D01*
X151052548Y-101526274D02*
X151639411Y-100939411D01*
D79*
X154460624Y-117735392D02*
X154648008Y-117548008D01*
D81*
X150826274Y-101526274D02*
X151052548Y-101526274D01*
D79*
X139600000Y-101800000D02*
X139270000Y-102130000D01*
X142440000Y-97100000D02*
X150552548Y-97100000D01*
X139330000Y-100830000D02*
X139600000Y-101100000D01*
%TO.N,Net-(J2-CC1)*%
X136090000Y-105500000D02*
X134385000Y-105500000D01*
%TO.N,Net-(J2-CC2)*%
X136090000Y-104500000D02*
X134385000Y-104500000D01*
D81*
%TO.N,Net-(U3-AGDC)*%
X160153696Y-98821178D02*
X159259242Y-99715632D01*
X160321178Y-98821178D02*
X160153696Y-98821178D01*
X161273726Y-98353726D02*
X160788630Y-98353726D01*
X160788630Y-98353726D02*
X160321178Y-98821178D01*
D79*
%TO.N,Net-(U3-XTI)*%
X156300000Y-108600000D02*
X156600000Y-108900000D01*
X157900000Y-108880000D02*
X156580000Y-108880000D01*
X156580000Y-108880000D02*
X156300000Y-108600000D01*
D81*
%TO.N,Net-(U3-XTO)*%
X152865000Y-103854204D02*
X152865000Y-106665000D01*
X154754972Y-102098582D02*
X154620622Y-102098582D01*
X152865000Y-106665000D02*
X153100000Y-106900000D01*
X153100000Y-106900000D02*
X154100000Y-106900000D01*
X154620622Y-102098582D02*
X152865000Y-103854204D01*
D79*
X154380000Y-105500000D02*
X154380000Y-106620000D01*
X154380000Y-106620000D02*
X154100000Y-106900000D01*
%TO.N,Net-(U3-RFI1)*%
X146200000Y-91380000D02*
X146080000Y-91500000D01*
X146200000Y-90380000D02*
X146200000Y-91380000D01*
%TO.N,Net-(U3-RFI2)*%
X151400000Y-90380000D02*
X151400000Y-91380000D01*
X155340000Y-92440000D02*
X159500000Y-96600000D01*
X159500000Y-96600000D02*
X159500000Y-98767766D01*
X151400000Y-91380000D02*
X151520000Y-91500000D01*
X159500000Y-98767766D02*
X158905688Y-99362078D01*
X151520000Y-91500000D02*
X151520000Y-91846846D01*
X152113154Y-92440000D02*
X155340000Y-92440000D01*
X151520000Y-91846846D02*
X152113154Y-92440000D01*
%TO.N,Net-(C50-Pad1)*%
X151500000Y-93100000D02*
X151500000Y-94200000D01*
X149900000Y-92000000D02*
X150400000Y-92000000D01*
X150300000Y-91600000D02*
X149900000Y-92000000D01*
X150400000Y-92000000D02*
X151500000Y-93100000D01*
X150300000Y-90380000D02*
X150300000Y-91600000D01*
%TO.N,/NFC_RFID/A2*%
X152480000Y-89420000D02*
X152500000Y-89440000D01*
X150300000Y-89420000D02*
X152480000Y-89420000D01*
X150300000Y-89420000D02*
X150220000Y-89420000D01*
%TO.N,Net-(C51-Pad1)*%
X147600000Y-91975000D02*
X147205000Y-91975000D01*
X146080000Y-94180000D02*
X146100000Y-94200000D01*
X147600000Y-90680000D02*
X147300000Y-90380000D01*
X147600000Y-91975000D02*
X147600000Y-90680000D01*
X146080000Y-93100000D02*
X146080000Y-94180000D01*
X147205000Y-91975000D02*
X146080000Y-93100000D01*
%TO.N,/NFC_RFID/A1*%
X147300000Y-87125000D02*
X148575000Y-85850000D01*
X147300000Y-89420000D02*
X147300000Y-87125000D01*
X147300000Y-89420000D02*
X145100000Y-89420000D01*
%TO.N,Net-(D7-DIN)*%
X148900000Y-119900000D02*
X148800000Y-119900000D01*
X148800000Y-119900000D02*
X148260624Y-120439376D01*
%TO.N,VBUS*%
X134385000Y-106520000D02*
X135845000Y-106520000D01*
X132500000Y-106100000D02*
X132920000Y-106520000D01*
X136325000Y-107437500D02*
X138650000Y-109762500D01*
X132920000Y-106520000D02*
X134385000Y-106520000D01*
X132920000Y-103480000D02*
X132500000Y-103900000D01*
X136325000Y-107000000D02*
X136325000Y-107437500D01*
X134385000Y-103480000D02*
X132920000Y-103480000D01*
X135845000Y-106520000D02*
X136325000Y-107000000D01*
X132500000Y-103900000D02*
X132500000Y-106100000D01*
%TO.N,+BATT*%
X146351992Y-117051992D02*
X144721662Y-117051992D01*
X144721662Y-117051992D02*
X143169670Y-118603984D01*
X146351992Y-117051992D02*
X146448008Y-117051992D01*
X146448008Y-117051992D02*
X147795666Y-115704334D01*
X148467417Y-116376085D02*
X148467417Y-116888665D01*
X146351992Y-116626992D02*
X146351992Y-117051992D01*
X137000000Y-112450000D02*
X138237500Y-112450000D01*
X144520495Y-114795495D02*
X146351992Y-116626992D01*
X138237500Y-112450000D02*
X138650000Y-112037500D01*
X148467417Y-116888665D02*
X149339376Y-117760624D01*
X148467417Y-116376085D02*
X147795666Y-115704334D01*
%TO.N,Button_LT*%
X141381872Y-88960624D02*
X141760624Y-89339376D01*
X141760624Y-89339376D02*
X142473726Y-88626274D01*
X140460624Y-88960624D02*
X141381872Y-88960624D01*
%TO.N,Button_LB*%
X137319921Y-114209939D02*
X137711328Y-114601346D01*
X136203916Y-114402530D02*
X136396507Y-114209939D01*
X133323778Y-114402530D02*
X134672704Y-114402530D01*
X135117551Y-114400541D02*
X135119540Y-114402530D01*
X134672704Y-114402530D02*
X134674693Y-114400541D01*
X136396507Y-114209939D02*
X137319921Y-114209939D01*
X133260624Y-114339376D02*
X133323778Y-114402530D01*
X135119540Y-114402530D02*
X136203916Y-114402530D01*
X134674693Y-114400541D02*
X135117551Y-114400541D01*
%TO.N,Button_R*%
X163912500Y-109700000D02*
X163000000Y-108787500D01*
X163000000Y-108787500D02*
X163000000Y-107565000D01*
X165190000Y-109700000D02*
X163912500Y-109700000D01*
%TO.N,Net-(ME4055A1-PROG)*%
X142200000Y-110590000D02*
X141377500Y-110590000D01*
X141377500Y-110590000D02*
X140550000Y-109762500D01*
%TO.N,Net-(SW3A-A)*%
X139739376Y-88239376D02*
X139123514Y-88239376D01*
X137668229Y-89565083D02*
X137797807Y-89565083D01*
X139123514Y-88239376D02*
X137797807Y-89565083D01*
X134021273Y-93212039D02*
X137668229Y-89565083D01*
%TO.N,Net-(SW1A-A)*%
X133961237Y-116919348D02*
X133961237Y-116482485D01*
X133961237Y-116482485D02*
X132539376Y-115060624D01*
X134479152Y-116919348D02*
X133961237Y-116919348D01*
X137923462Y-120363658D02*
X134479152Y-116919348D01*
%TO.N,Net-(SW2A-A)*%
X167350000Y-107625000D02*
X167350000Y-108560000D01*
X167350000Y-108560000D02*
X166210000Y-109700000D01*
X167350000Y-102375000D02*
X167350000Y-107625000D01*
%TO.N,BATT_STM*%
X150781872Y-117760624D02*
X150060624Y-117039376D01*
X151139376Y-117760624D02*
X150781872Y-117760624D01*
%TO.N,Net-(D13-A)*%
X148513173Y-113204505D02*
X148732583Y-113423915D01*
X142929505Y-113204505D02*
X148513173Y-113204505D01*
X142929505Y-113204505D02*
X142929505Y-113760445D01*
X142929505Y-113760445D02*
X141294975Y-115394975D01*
%TO.N,Net-(U4-FB)*%
X152260624Y-114539376D02*
X153354765Y-113445235D01*
X153354765Y-113445235D02*
X153354765Y-113154765D01*
X152260624Y-114560624D02*
X150282878Y-114560624D01*
X150282878Y-114560624D02*
X150076085Y-114767417D01*
X152260624Y-114560624D02*
X152260624Y-114539376D01*
%TD*%
%TA.AperFunction,Conductor*%
%TO.N,GND*%
G36*
X157265354Y-105637913D02*
G01*
X157267687Y-105640146D01*
X157721992Y-106094450D01*
X157731917Y-106106766D01*
X157736941Y-106114584D01*
X157736943Y-106114587D01*
X157736945Y-106114589D01*
X157773803Y-106146526D01*
X157777642Y-106150100D01*
X157787820Y-106160278D01*
X157798352Y-106168162D01*
X157799329Y-106168894D01*
X157803437Y-106172205D01*
X157826997Y-106192619D01*
X157840282Y-106204130D01*
X157848735Y-106207990D01*
X157862336Y-106216060D01*
X157869774Y-106221628D01*
X157915434Y-106238658D01*
X157920309Y-106240678D01*
X157944729Y-106251830D01*
X157964658Y-106260931D01*
X157973848Y-106262252D01*
X157989185Y-106266166D01*
X157995394Y-106268482D01*
X157997885Y-106269411D01*
X158046526Y-106272889D01*
X158051728Y-106273449D01*
X158065989Y-106275500D01*
X158080379Y-106275500D01*
X158085657Y-106275688D01*
X158134270Y-106279166D01*
X158137208Y-106278526D01*
X158143350Y-106277191D01*
X158159079Y-106275500D01*
X159027699Y-106275500D01*
X159075265Y-106292813D01*
X159076755Y-106294097D01*
X159127760Y-106339283D01*
X159267635Y-106412696D01*
X159421015Y-106450500D01*
X159421019Y-106450500D01*
X159578981Y-106450500D01*
X159578985Y-106450500D01*
X159732365Y-106412696D01*
X159872240Y-106339283D01*
X159923230Y-106294109D01*
X159970315Y-106275527D01*
X159972301Y-106275500D01*
X162392286Y-106275500D01*
X162439852Y-106292813D01*
X162465162Y-106336650D01*
X162456372Y-106386500D01*
X162450994Y-106394548D01*
X162375902Y-106492408D01*
X162375900Y-106492412D01*
X162315444Y-106638367D01*
X162315443Y-106638370D01*
X162304039Y-106725000D01*
X163121889Y-106725000D01*
X163169455Y-106742313D01*
X163174215Y-106746674D01*
X163178326Y-106750785D01*
X163199718Y-106796661D01*
X163200000Y-106803111D01*
X163200000Y-106860500D01*
X163182687Y-106908066D01*
X163138850Y-106933376D01*
X163126000Y-106934500D01*
X162852127Y-106934500D01*
X162792514Y-106940909D01*
X162657670Y-106991202D01*
X162657669Y-106991203D01*
X162542453Y-107077454D01*
X162529058Y-107095348D01*
X162486693Y-107123051D01*
X162469819Y-107125000D01*
X162304040Y-107125000D01*
X162315443Y-107211628D01*
X162315444Y-107211632D01*
X162375898Y-107357582D01*
X162375903Y-107357592D01*
X162384208Y-107368415D01*
X162399500Y-107413463D01*
X162399500Y-107742872D01*
X162405908Y-107802480D01*
X162405908Y-107802482D01*
X162405909Y-107802483D01*
X162407325Y-107806279D01*
X162407726Y-107856895D01*
X162375497Y-107895928D01*
X162358636Y-107903198D01*
X162289604Y-107923254D01*
X162289603Y-107923255D01*
X162148134Y-108006919D01*
X162031919Y-108123134D01*
X161949103Y-108263169D01*
X161909988Y-108295299D01*
X161885408Y-108299500D01*
X161744082Y-108299500D01*
X161696516Y-108282187D01*
X161695011Y-108280890D01*
X161672244Y-108260720D01*
X161672235Y-108260714D01*
X161532366Y-108187304D01*
X161378987Y-108149500D01*
X161378985Y-108149500D01*
X161221015Y-108149500D01*
X161221012Y-108149500D01*
X161067633Y-108187304D01*
X160927761Y-108260716D01*
X160809516Y-108365470D01*
X160719779Y-108495478D01*
X160719778Y-108495478D01*
X160663764Y-108643177D01*
X160663761Y-108643191D01*
X160644722Y-108799996D01*
X160644722Y-108800003D01*
X160663761Y-108956808D01*
X160663764Y-108956822D01*
X160719778Y-109104521D01*
X160790444Y-109206898D01*
X160809517Y-109234530D01*
X160927760Y-109339283D01*
X161067635Y-109412696D01*
X161221015Y-109450500D01*
X161221019Y-109450500D01*
X161378981Y-109450500D01*
X161378985Y-109450500D01*
X161532365Y-109412696D01*
X161672240Y-109339283D01*
X161688019Y-109325304D01*
X161695011Y-109319110D01*
X161742096Y-109300527D01*
X161744082Y-109300500D01*
X161900193Y-109300500D01*
X161947759Y-109317813D01*
X161963888Y-109336831D01*
X162010231Y-109415193D01*
X162031919Y-109451865D01*
X162148135Y-109568081D01*
X162165675Y-109578454D01*
X162197805Y-109617569D01*
X162197274Y-109668186D01*
X162166855Y-109705131D01*
X162081658Y-109757681D01*
X161957683Y-109881656D01*
X161865642Y-110030878D01*
X161810494Y-110197302D01*
X161800000Y-110300024D01*
X161800000Y-110362500D01*
X164199999Y-110362500D01*
X164199999Y-110324500D01*
X164217312Y-110276934D01*
X164261149Y-110251624D01*
X164273999Y-110250500D01*
X164625855Y-110250500D01*
X164670568Y-110265536D01*
X164753723Y-110328594D01*
X164790078Y-110356163D01*
X164927021Y-110410166D01*
X165013073Y-110420500D01*
X165366926Y-110420499D01*
X165366928Y-110420499D01*
X165366928Y-110420498D01*
X165452979Y-110410166D01*
X165589922Y-110356163D01*
X165655287Y-110306594D01*
X165703649Y-110291649D01*
X165744712Y-110306594D01*
X165810078Y-110356163D01*
X165947021Y-110410166D01*
X166033073Y-110420500D01*
X166386926Y-110420499D01*
X166386928Y-110420499D01*
X166386928Y-110420498D01*
X166472979Y-110410166D01*
X166609922Y-110356163D01*
X166727216Y-110267216D01*
X166816163Y-110149922D01*
X166870166Y-110012979D01*
X166880500Y-109926927D01*
X166880499Y-109838675D01*
X166897811Y-109791109D01*
X166902162Y-109786360D01*
X167634485Y-109054037D01*
X167680360Y-109032646D01*
X167729255Y-109045747D01*
X167758289Y-109087211D01*
X167759306Y-109121207D01*
X167705924Y-109381926D01*
X167705185Y-109385164D01*
X167489993Y-110239173D01*
X167489110Y-110242374D01*
X167235812Y-111085900D01*
X167234785Y-111089059D01*
X166943913Y-111920324D01*
X166942747Y-111923433D01*
X166614847Y-112740876D01*
X166613541Y-112743929D01*
X166249330Y-113545765D01*
X166247889Y-113548757D01*
X165848045Y-114333495D01*
X165846472Y-114336420D01*
X165411829Y-115102418D01*
X165410126Y-115105268D01*
X165158047Y-115506450D01*
X165118081Y-115537515D01*
X165067497Y-115535622D01*
X165029964Y-115501658D01*
X165021389Y-115467080D01*
X165021389Y-115426835D01*
X165021389Y-115426833D01*
X164980516Y-115267642D01*
X164901338Y-115123616D01*
X164901337Y-115123615D01*
X164901335Y-115123611D01*
X164877320Y-115095495D01*
X164877315Y-115095489D01*
X163935882Y-114154056D01*
X163931877Y-114150635D01*
X163907759Y-114130035D01*
X163763729Y-114050855D01*
X163763730Y-114050855D01*
X163604542Y-114009983D01*
X163604541Y-114009982D01*
X163604538Y-114009982D01*
X163440184Y-114009982D01*
X163440181Y-114009982D01*
X163440179Y-114009983D01*
X163280992Y-114050855D01*
X163136968Y-114130033D01*
X163136966Y-114130034D01*
X163108846Y-114154051D01*
X162520956Y-114741941D01*
X162496939Y-114770061D01*
X162496938Y-114770063D01*
X162417760Y-114914086D01*
X162415026Y-114924736D01*
X162413644Y-114930121D01*
X162412888Y-114933064D01*
X162384289Y-114974830D01*
X162335535Y-114988442D01*
X162289437Y-114967530D01*
X162267902Y-114924736D01*
X162265365Y-114906281D01*
X162251465Y-114874280D01*
X162224036Y-114811129D01*
X162207816Y-114773786D01*
X162207812Y-114773779D01*
X162155276Y-114706904D01*
X162155268Y-114706895D01*
X161566759Y-114118386D01*
X161566750Y-114118378D01*
X161499875Y-114065842D01*
X161499868Y-114065838D01*
X161367373Y-114008289D01*
X161224264Y-113988620D01*
X161081155Y-114008289D01*
X160948660Y-114065838D01*
X160948653Y-114065842D01*
X160881778Y-114118378D01*
X160881769Y-114118386D01*
X160646812Y-114353343D01*
X160616663Y-114391721D01*
X160573664Y-114418430D01*
X160523556Y-114411251D01*
X160506146Y-114398332D01*
X159888450Y-113780636D01*
X159871587Y-113754554D01*
X159830220Y-113645477D01*
X159768100Y-113555481D01*
X159740483Y-113515470D01*
X159720997Y-113498207D01*
X159622240Y-113410717D01*
X159593203Y-113395477D01*
X159482366Y-113337304D01*
X159328987Y-113299500D01*
X159328985Y-113299500D01*
X159171015Y-113299500D01*
X159171012Y-113299500D01*
X159017633Y-113337304D01*
X158877761Y-113410716D01*
X158759516Y-113515470D01*
X158669779Y-113645477D01*
X158613762Y-113793183D01*
X158613755Y-113793212D01*
X158613746Y-113793225D01*
X158612175Y-113797368D01*
X158611212Y-113797002D01*
X158585561Y-113835252D01*
X158541906Y-113849500D01*
X158471012Y-113849500D01*
X158317633Y-113887304D01*
X158177761Y-113960716D01*
X158059516Y-114065470D01*
X157969779Y-114195478D01*
X157969778Y-114195478D01*
X157913764Y-114343177D01*
X157913761Y-114343191D01*
X157894722Y-114499996D01*
X157894722Y-114500003D01*
X157913761Y-114656808D01*
X157913764Y-114656822D01*
X157969778Y-114804521D01*
X158056476Y-114930125D01*
X158059517Y-114934530D01*
X158177760Y-115039283D01*
X158317635Y-115112696D01*
X158471015Y-115150500D01*
X158471019Y-115150500D01*
X158628981Y-115150500D01*
X158628985Y-115150500D01*
X158639564Y-115147892D01*
X158689889Y-115153316D01*
X158709601Y-115167415D01*
X159161680Y-115619494D01*
X159183072Y-115665370D01*
X159182616Y-115682246D01*
X159181058Y-115693191D01*
X159379329Y-115891462D01*
X159400313Y-115933710D01*
X159405345Y-115970313D01*
X159405346Y-115970318D01*
X159462894Y-116102811D01*
X159462898Y-116102818D01*
X159501021Y-116151346D01*
X159515439Y-116169699D01*
X160103955Y-116758215D01*
X160103959Y-116758218D01*
X160103960Y-116758219D01*
X160170835Y-116810755D01*
X160170842Y-116810759D01*
X160193063Y-116820410D01*
X160303336Y-116868308D01*
X160339940Y-116873339D01*
X160382190Y-116894323D01*
X160580460Y-117092593D01*
X160580461Y-117092593D01*
X160643263Y-116978360D01*
X160643265Y-116978354D01*
X160672808Y-116863290D01*
X160701405Y-116821524D01*
X160714997Y-116813822D01*
X160722055Y-116810757D01*
X160788938Y-116758215D01*
X161023901Y-116523252D01*
X161076443Y-116456369D01*
X161128802Y-116335823D01*
X161163632Y-116299093D01*
X161167195Y-116297431D01*
X161287740Y-116245072D01*
X161354623Y-116192530D01*
X161589586Y-115957567D01*
X161642128Y-115890684D01*
X161694487Y-115770138D01*
X161729317Y-115733408D01*
X161732861Y-115731754D01*
X161853426Y-115679387D01*
X161920309Y-115626845D01*
X162155272Y-115391882D01*
X162207814Y-115324999D01*
X162242255Y-115245705D01*
X162277083Y-115208975D01*
X162327374Y-115203225D01*
X162369596Y-115231146D01*
X162381803Y-115256783D01*
X162417760Y-115396825D01*
X162496940Y-115540854D01*
X162517966Y-115565470D01*
X162520961Y-115568977D01*
X163462394Y-116510410D01*
X163462400Y-116510415D01*
X163490516Y-116534430D01*
X163490520Y-116534432D01*
X163490521Y-116534433D01*
X163634547Y-116613611D01*
X163793738Y-116654484D01*
X163793741Y-116654484D01*
X163958089Y-116654484D01*
X163958092Y-116654484D01*
X164117283Y-116613611D01*
X164261308Y-116534433D01*
X164289435Y-116510410D01*
X164344013Y-116455831D01*
X164389888Y-116434439D01*
X164438782Y-116447539D01*
X164467816Y-116489004D01*
X164463405Y-116539430D01*
X164457166Y-116550299D01*
X164438170Y-116577718D01*
X164436218Y-116580404D01*
X163902706Y-117281101D01*
X163900636Y-117283698D01*
X163336196Y-117959788D01*
X163334011Y-117962289D01*
X162739813Y-118612367D01*
X162737518Y-118614767D01*
X162114767Y-119237518D01*
X162112367Y-119239813D01*
X161462289Y-119834011D01*
X161459788Y-119836196D01*
X160783698Y-120400636D01*
X160781101Y-120402706D01*
X160080404Y-120936218D01*
X160077718Y-120938170D01*
X160050299Y-120957166D01*
X160001340Y-120970023D01*
X159955571Y-120948402D01*
X159934407Y-120902420D01*
X159947752Y-120853592D01*
X159955820Y-120844024D01*
X160210410Y-120589435D01*
X160234433Y-120561308D01*
X160313611Y-120417283D01*
X160354484Y-120258092D01*
X160354484Y-120093738D01*
X160313611Y-119934547D01*
X160234433Y-119790521D01*
X160234432Y-119790520D01*
X160234430Y-119790516D01*
X160210415Y-119762400D01*
X160210410Y-119762394D01*
X159268977Y-118820961D01*
X159268970Y-118820955D01*
X159240854Y-118796940D01*
X159096825Y-118717760D01*
X158956783Y-118681803D01*
X158915017Y-118653205D01*
X158901405Y-118604450D01*
X158922316Y-118558353D01*
X158945703Y-118542256D01*
X159024999Y-118507814D01*
X159091882Y-118455272D01*
X159326845Y-118220309D01*
X159379387Y-118153426D01*
X159431747Y-118032878D01*
X159466575Y-117996149D01*
X159470139Y-117994487D01*
X159476705Y-117991635D01*
X159590684Y-117942128D01*
X159657567Y-117889586D01*
X159892530Y-117654623D01*
X159942282Y-117591291D01*
X159945069Y-117587744D01*
X159945069Y-117587743D01*
X159945072Y-117587740D01*
X159948133Y-117580691D01*
X159982957Y-117543959D01*
X159997606Y-117538493D01*
X160112666Y-117508951D01*
X160112674Y-117508949D01*
X160226907Y-117446147D01*
X160226907Y-117446146D01*
X160028639Y-117247878D01*
X160007654Y-117205627D01*
X160002623Y-117169022D01*
X160002202Y-117168053D01*
X159945072Y-117036523D01*
X159936791Y-117025982D01*
X159892534Y-116969645D01*
X159892526Y-116969636D01*
X159304017Y-116381127D01*
X159304008Y-116381119D01*
X159237133Y-116328583D01*
X159237126Y-116328579D01*
X159112009Y-116274235D01*
X159104633Y-116271031D01*
X159071736Y-116266509D01*
X159068023Y-116265999D01*
X159025775Y-116245014D01*
X158872686Y-116091925D01*
X158851294Y-116046049D01*
X158851551Y-116030687D01*
X158855278Y-116000000D01*
X158852342Y-115975822D01*
X158836238Y-115843191D01*
X158836237Y-115843182D01*
X158815730Y-115789109D01*
X158780221Y-115695478D01*
X158690483Y-115565470D01*
X158662692Y-115540850D01*
X158572240Y-115460717D01*
X158559156Y-115453850D01*
X158432366Y-115387304D01*
X158278987Y-115349500D01*
X158278985Y-115349500D01*
X158121015Y-115349500D01*
X158121012Y-115349500D01*
X157967633Y-115387304D01*
X157827761Y-115460716D01*
X157709516Y-115565470D01*
X157619779Y-115695478D01*
X157619778Y-115695478D01*
X157563764Y-115843177D01*
X157563761Y-115843191D01*
X157544722Y-115999996D01*
X157544722Y-116000003D01*
X157563761Y-116156808D01*
X157563764Y-116156822D01*
X157619778Y-116304521D01*
X157709516Y-116434529D01*
X157827761Y-116539284D01*
X157831442Y-116541825D01*
X157831225Y-116542138D01*
X157848882Y-116556130D01*
X157868871Y-116579198D01*
X157868873Y-116579200D01*
X157877446Y-116584709D01*
X157889768Y-116594638D01*
X158099981Y-116804851D01*
X158121373Y-116850727D01*
X158108272Y-116899622D01*
X158093369Y-116915368D01*
X158053351Y-116946805D01*
X158053342Y-116946813D01*
X157818386Y-117181769D01*
X157818378Y-117181778D01*
X157765842Y-117248653D01*
X157765838Y-117248660D01*
X157708289Y-117381155D01*
X157688620Y-117524264D01*
X157708289Y-117667373D01*
X157742449Y-117746019D01*
X157745519Y-117796545D01*
X157715394Y-117837224D01*
X157674575Y-117849500D01*
X157621012Y-117849500D01*
X157467633Y-117887304D01*
X157327761Y-117960716D01*
X157209516Y-118065470D01*
X157119779Y-118195478D01*
X157119778Y-118195478D01*
X157063764Y-118343177D01*
X157063761Y-118343191D01*
X157044722Y-118499996D01*
X157044722Y-118500003D01*
X157063761Y-118656808D01*
X157063764Y-118656822D01*
X157119778Y-118804521D01*
X157209516Y-118934529D01*
X157209517Y-118934530D01*
X157327760Y-119039283D01*
X157467635Y-119112696D01*
X157621015Y-119150500D01*
X157621019Y-119150500D01*
X157778981Y-119150500D01*
X157778985Y-119150500D01*
X157932365Y-119112696D01*
X157960297Y-119098035D01*
X158010458Y-119091259D01*
X158053241Y-119118312D01*
X158068626Y-119166536D01*
X158049413Y-119213368D01*
X158047012Y-119215885D01*
X157854051Y-119408846D01*
X157830034Y-119436966D01*
X157830033Y-119436968D01*
X157750855Y-119580992D01*
X157709983Y-119740179D01*
X157709982Y-119740186D01*
X157709982Y-119904535D01*
X157709983Y-119904542D01*
X157750855Y-120063729D01*
X157830035Y-120207759D01*
X157854050Y-120235875D01*
X157854056Y-120235882D01*
X158795489Y-121177315D01*
X158795495Y-121177320D01*
X158823611Y-121201335D01*
X158823615Y-121201337D01*
X158823616Y-121201338D01*
X158967642Y-121280516D01*
X159126833Y-121321389D01*
X159126836Y-121321389D01*
X159285379Y-121321389D01*
X159332945Y-121338702D01*
X159358255Y-121382539D01*
X159349465Y-121432389D01*
X159324749Y-121458047D01*
X158605268Y-121910126D01*
X158602418Y-121911829D01*
X157836420Y-122346472D01*
X157833495Y-122348045D01*
X157048757Y-122747889D01*
X157045765Y-122749330D01*
X156243929Y-123113541D01*
X156240876Y-123114847D01*
X155423433Y-123442747D01*
X155420324Y-123443913D01*
X154589059Y-123734785D01*
X154585900Y-123735812D01*
X153742374Y-123989110D01*
X153739173Y-123989993D01*
X152885164Y-124205185D01*
X152881927Y-124205924D01*
X152019108Y-124382588D01*
X152015840Y-124383181D01*
X151145972Y-124520954D01*
X151142681Y-124521400D01*
X150267486Y-124620011D01*
X150264179Y-124620308D01*
X149385472Y-124679552D01*
X149382154Y-124679701D01*
X148501660Y-124699462D01*
X148498340Y-124699462D01*
X147617845Y-124679701D01*
X147614527Y-124679552D01*
X146735820Y-124620308D01*
X146732513Y-124620011D01*
X145857318Y-124521400D01*
X145854027Y-124520954D01*
X145128642Y-124406064D01*
X144984155Y-124383180D01*
X144980896Y-124382589D01*
X144725879Y-124330373D01*
X144118072Y-124205924D01*
X144114835Y-124205185D01*
X143260826Y-123989993D01*
X143257625Y-123989110D01*
X142414099Y-123735812D01*
X142410940Y-123734785D01*
X141579675Y-123443913D01*
X141576566Y-123442747D01*
X140759112Y-123114842D01*
X140756082Y-123113546D01*
X139954219Y-122749322D01*
X139951242Y-122747889D01*
X139166504Y-122348045D01*
X139163579Y-122346472D01*
X138397581Y-121911829D01*
X138394731Y-121910126D01*
X138194097Y-121784059D01*
X138163032Y-121744093D01*
X138164925Y-121693509D01*
X138198889Y-121655976D01*
X138228304Y-121647581D01*
X138271548Y-121644558D01*
X138389176Y-121597033D01*
X138461915Y-121535998D01*
X138603464Y-121373164D01*
X141741353Y-121373164D01*
X141741354Y-121373171D01*
X141782226Y-121532358D01*
X141861406Y-121676388D01*
X141885421Y-121704504D01*
X141885427Y-121704511D01*
X142826860Y-122645944D01*
X142826865Y-122645948D01*
X142826866Y-122645949D01*
X142854982Y-122669964D01*
X142854986Y-122669966D01*
X142854987Y-122669967D01*
X142999013Y-122749145D01*
X143158204Y-122790018D01*
X143158207Y-122790018D01*
X143322555Y-122790018D01*
X143322558Y-122790018D01*
X143481749Y-122749145D01*
X143625774Y-122669967D01*
X143653901Y-122645944D01*
X144241781Y-122058064D01*
X144265804Y-122029937D01*
X144344982Y-121885912D01*
X144385855Y-121726721D01*
X144385855Y-121562367D01*
X144344982Y-121403176D01*
X144265804Y-121259150D01*
X144265803Y-121259149D01*
X144265801Y-121259145D01*
X144241786Y-121231029D01*
X144241781Y-121231023D01*
X143300348Y-120289590D01*
X143300341Y-120289584D01*
X143272225Y-120265569D01*
X143128193Y-120186388D01*
X143125371Y-120185271D01*
X143087515Y-120151668D01*
X143080115Y-120101593D01*
X143106634Y-120058476D01*
X143116955Y-120051618D01*
X143126907Y-120046146D01*
X142603983Y-119523223D01*
X142250430Y-119876775D01*
X142383451Y-120009796D01*
X142410474Y-120032876D01*
X142410476Y-120032877D01*
X142549629Y-120109378D01*
X142582971Y-120147465D01*
X142584031Y-120198073D01*
X142552313Y-120237522D01*
X142549639Y-120239066D01*
X142544701Y-120241781D01*
X142501434Y-120265567D01*
X142501432Y-120265568D01*
X142473312Y-120289585D01*
X141885422Y-120877475D01*
X141861405Y-120905595D01*
X141861404Y-120905597D01*
X141782226Y-121049621D01*
X141741354Y-121208808D01*
X141741353Y-121208815D01*
X141741353Y-121373164D01*
X138603464Y-121373164D01*
X139159330Y-120733713D01*
X139159331Y-120733711D01*
X139159333Y-120733709D01*
X139159334Y-120733707D01*
X139209647Y-120653191D01*
X139209647Y-120653189D01*
X139209649Y-120653187D01*
X139240340Y-120530090D01*
X139234487Y-120446385D01*
X139248440Y-120397728D01*
X139290405Y-120369422D01*
X139303139Y-120367405D01*
X139386849Y-120361552D01*
X139504477Y-120314027D01*
X139577216Y-120252992D01*
X140252686Y-119475952D01*
X140296959Y-119451411D01*
X140308535Y-119450500D01*
X140580892Y-119450500D01*
X140615280Y-119458975D01*
X140717635Y-119512696D01*
X140871015Y-119550500D01*
X140871019Y-119550500D01*
X141028981Y-119550500D01*
X141028985Y-119550500D01*
X141182365Y-119512696D01*
X141322240Y-119439283D01*
X141440483Y-119334530D01*
X141530220Y-119204523D01*
X141530220Y-119204521D01*
X141532237Y-119201600D01*
X141573506Y-119172289D01*
X141623961Y-119176362D01*
X141659993Y-119211913D01*
X141664178Y-119223478D01*
X141664700Y-119224798D01*
X141740776Y-119363177D01*
X141740777Y-119363179D01*
X141763857Y-119390202D01*
X141896877Y-119523222D01*
X142250430Y-119169669D01*
X141727506Y-118646745D01*
X141727505Y-118646745D01*
X141699472Y-118697739D01*
X141661385Y-118731081D01*
X141610778Y-118732141D01*
X141571328Y-118700423D01*
X141565434Y-118688329D01*
X141556170Y-118663901D01*
X141530220Y-118595477D01*
X141440483Y-118465470D01*
X141322240Y-118360717D01*
X141300868Y-118349500D01*
X141182366Y-118287304D01*
X141028987Y-118249500D01*
X141028985Y-118249500D01*
X140871015Y-118249500D01*
X140871012Y-118249500D01*
X140717637Y-118287303D01*
X140717635Y-118287303D01*
X140717635Y-118287304D01*
X140615280Y-118341024D01*
X140580892Y-118349500D01*
X139597926Y-118349500D01*
X139550360Y-118332187D01*
X139549378Y-118331349D01*
X139020853Y-117871909D01*
X139020851Y-117871908D01*
X138940335Y-117821595D01*
X138940331Y-117821594D01*
X138817234Y-117790903D01*
X138690678Y-117799751D01*
X138626198Y-117825802D01*
X138575609Y-117827568D01*
X138546152Y-117809516D01*
X137604956Y-116868320D01*
X138490079Y-116868320D01*
X138537231Y-116909309D01*
X138537232Y-116909310D01*
X138621633Y-116968776D01*
X138621637Y-116968778D01*
X138783425Y-117036343D01*
X138956422Y-117064776D01*
X139131328Y-117052546D01*
X139298682Y-117000312D01*
X139298686Y-117000310D01*
X139449488Y-116910891D01*
X139524795Y-116840257D01*
X139524807Y-116840244D01*
X139688799Y-116651590D01*
X139113333Y-116151346D01*
X138490079Y-116868319D01*
X138490079Y-116868320D01*
X137604956Y-116868320D01*
X136376752Y-115640116D01*
X136355360Y-115594240D01*
X136368461Y-115545345D01*
X136379998Y-115532409D01*
X136490483Y-115434530D01*
X136580220Y-115304523D01*
X136608256Y-115230598D01*
X136641311Y-115192262D01*
X136691274Y-115184142D01*
X136730227Y-115204971D01*
X136737260Y-115212128D01*
X136741647Y-115216592D01*
X137237014Y-115647210D01*
X137237022Y-115647216D01*
X137261555Y-115665370D01*
X137266760Y-115669221D01*
X137415958Y-115738159D01*
X137577612Y-115767829D01*
X137577613Y-115767828D01*
X137577614Y-115767829D01*
X137597730Y-115766422D01*
X137741566Y-115756364D01*
X137760901Y-115749932D01*
X137811500Y-115751344D01*
X137849353Y-115784951D01*
X137857280Y-115832149D01*
X137841046Y-115930922D01*
X137841046Y-115930925D01*
X137853276Y-116105828D01*
X137905509Y-116273183D01*
X137905510Y-116273187D01*
X137994931Y-116423989D01*
X138065565Y-116499296D01*
X138065578Y-116499308D01*
X138112722Y-116540289D01*
X139015459Y-115501810D01*
X139059732Y-115477269D01*
X139109421Y-115486928D01*
X139119856Y-115494509D01*
X139402619Y-115740310D01*
X139402620Y-115740311D01*
X140016829Y-116274235D01*
X140016830Y-116274235D01*
X140180816Y-116085591D01*
X140180829Y-116085575D01*
X140240299Y-116001168D01*
X140307864Y-115839381D01*
X140336297Y-115666385D01*
X140336297Y-115666382D01*
X140324067Y-115491479D01*
X140271834Y-115324124D01*
X140264957Y-115312526D01*
X140255588Y-115262781D01*
X140280385Y-115218652D01*
X140318529Y-115201472D01*
X140419590Y-115187582D01*
X140419593Y-115187580D01*
X140421813Y-115186959D01*
X140423302Y-115187072D01*
X140424606Y-115186893D01*
X140424644Y-115187173D01*
X140472287Y-115190790D01*
X140508489Y-115226168D01*
X140513481Y-115276540D01*
X140513044Y-115278174D01*
X140512417Y-115280409D01*
X140491812Y-115430330D01*
X140512417Y-115580248D01*
X140572704Y-115719046D01*
X140572708Y-115719053D01*
X140613474Y-115770945D01*
X140627748Y-115789115D01*
X140900835Y-116062202D01*
X140900839Y-116062205D01*
X140900840Y-116062206D01*
X140970896Y-116117241D01*
X140970903Y-116117245D01*
X140997672Y-116128872D01*
X141109700Y-116177532D01*
X141259620Y-116198138D01*
X141409540Y-116177532D01*
X141548341Y-116117243D01*
X141618404Y-116062202D01*
X141962202Y-115718404D01*
X142017243Y-115648341D01*
X142077532Y-115509540D01*
X142093041Y-115396695D01*
X142114025Y-115354448D01*
X143311257Y-114157215D01*
X143312985Y-114155545D01*
X143360549Y-114111125D01*
X143383240Y-114073809D01*
X143387475Y-114067587D01*
X143413866Y-114032788D01*
X143422019Y-114012111D01*
X143427635Y-114000806D01*
X143435149Y-113988450D01*
X143439177Y-113981827D01*
X143450954Y-113939790D01*
X143453360Y-113932634D01*
X143469381Y-113892010D01*
X143471653Y-113869896D01*
X143474006Y-113857516D01*
X143480005Y-113836110D01*
X143480005Y-113829005D01*
X143497318Y-113781439D01*
X143541155Y-113756129D01*
X143554005Y-113755005D01*
X144285611Y-113755005D01*
X144333177Y-113772318D01*
X144358487Y-113816155D01*
X144349697Y-113866005D01*
X144337937Y-113881331D01*
X143972056Y-114247210D01*
X143949211Y-114262758D01*
X143934198Y-114269279D01*
X143922242Y-114273300D01*
X143900653Y-114278562D01*
X143900651Y-114278562D01*
X143862600Y-114299956D01*
X143855820Y-114303323D01*
X143815785Y-114320714D01*
X143798546Y-114334739D01*
X143788118Y-114341836D01*
X143768750Y-114352727D01*
X143768739Y-114352735D01*
X143737879Y-114383594D01*
X143732257Y-114388668D01*
X143698397Y-114416215D01*
X143698395Y-114416217D01*
X143685578Y-114434375D01*
X143677450Y-114444024D01*
X142770521Y-115350952D01*
X142735906Y-115370475D01*
X142667634Y-115387304D01*
X142667632Y-115387304D01*
X142527761Y-115460716D01*
X142409516Y-115565470D01*
X142319779Y-115695478D01*
X142319778Y-115695478D01*
X142263764Y-115843177D01*
X142263761Y-115843191D01*
X142244722Y-115999996D01*
X142244722Y-116000003D01*
X142263761Y-116156808D01*
X142263764Y-116156822D01*
X142319778Y-116304521D01*
X142388995Y-116404799D01*
X142409517Y-116434530D01*
X142527760Y-116539283D01*
X142667635Y-116612696D01*
X142821015Y-116650500D01*
X142821019Y-116650500D01*
X142978981Y-116650500D01*
X142978985Y-116650500D01*
X143132365Y-116612696D01*
X143272240Y-116539283D01*
X143390483Y-116434530D01*
X143480220Y-116304523D01*
X143482280Y-116299093D01*
X143506702Y-116234696D01*
X143539756Y-116196359D01*
X143589720Y-116188239D01*
X143604212Y-116192569D01*
X143605239Y-116192994D01*
X143605240Y-116192995D01*
X143748278Y-116252244D01*
X143901777Y-116272453D01*
X144055275Y-116252244D01*
X144198313Y-116192995D01*
X144290303Y-116122409D01*
X144627267Y-115785443D01*
X144673143Y-115764052D01*
X144722038Y-115777153D01*
X144731919Y-115785444D01*
X145321641Y-116375166D01*
X145343033Y-116421042D01*
X145329932Y-116469937D01*
X145288468Y-116498971D01*
X145269315Y-116501492D01*
X144732326Y-116501492D01*
X144729800Y-116501449D01*
X144664837Y-116499229D01*
X144622436Y-116509562D01*
X144614997Y-116510976D01*
X144571742Y-116516922D01*
X144571740Y-116516922D01*
X144571739Y-116516923D01*
X144551354Y-116525777D01*
X144539399Y-116529797D01*
X144517811Y-116535058D01*
X144517808Y-116535059D01*
X144479757Y-116556453D01*
X144472977Y-116559820D01*
X144432942Y-116577211D01*
X144415703Y-116591236D01*
X144405275Y-116598333D01*
X144385907Y-116609224D01*
X144385896Y-116609232D01*
X144355040Y-116640087D01*
X144349419Y-116645161D01*
X144315554Y-116672714D01*
X144315551Y-116672716D01*
X144302734Y-116690873D01*
X144294607Y-116700521D01*
X143254904Y-117740223D01*
X143209027Y-117761615D01*
X143173099Y-117755772D01*
X143136004Y-117739660D01*
X143136000Y-117739659D01*
X143135999Y-117739659D01*
X142992893Y-117719990D01*
X142849784Y-117739659D01*
X142717289Y-117797208D01*
X142717282Y-117797212D01*
X142650407Y-117849748D01*
X142650398Y-117849756D01*
X142415442Y-118084712D01*
X142415434Y-118084721D01*
X142362898Y-118151596D01*
X142362893Y-118151605D01*
X142359832Y-118158653D01*
X142325001Y-118195383D01*
X142310364Y-118200844D01*
X142195298Y-118230388D01*
X142081059Y-118293191D01*
X142279329Y-118491461D01*
X142300314Y-118533710D01*
X142305345Y-118570316D01*
X142362894Y-118702811D01*
X142362898Y-118702818D01*
X142415044Y-118769196D01*
X142415439Y-118769699D01*
X143003955Y-119358215D01*
X143003959Y-119358218D01*
X143003960Y-119358219D01*
X143070835Y-119410755D01*
X143070842Y-119410759D01*
X143093063Y-119420410D01*
X143203336Y-119468308D01*
X143239940Y-119473339D01*
X143282190Y-119494323D01*
X143480460Y-119692593D01*
X143480461Y-119692593D01*
X143543263Y-119578360D01*
X143543265Y-119578354D01*
X143572808Y-119463290D01*
X143601405Y-119421524D01*
X143614997Y-119413822D01*
X143622055Y-119410757D01*
X143688938Y-119358215D01*
X143923901Y-119123252D01*
X143976443Y-119056369D01*
X144010884Y-118977075D01*
X144045712Y-118940345D01*
X144096003Y-118934595D01*
X144138225Y-118962516D01*
X144150432Y-118988154D01*
X144186389Y-119128195D01*
X144265569Y-119272225D01*
X144278449Y-119287304D01*
X144289590Y-119300348D01*
X145231023Y-120241781D01*
X145231028Y-120241785D01*
X145231029Y-120241786D01*
X145259145Y-120265801D01*
X145259149Y-120265803D01*
X145259150Y-120265804D01*
X145403176Y-120344982D01*
X145562367Y-120385855D01*
X145562370Y-120385855D01*
X145726718Y-120385855D01*
X145726721Y-120385855D01*
X145885912Y-120344982D01*
X146029937Y-120265804D01*
X146058064Y-120241781D01*
X146645944Y-119653901D01*
X146669967Y-119625774D01*
X146749145Y-119481749D01*
X146790018Y-119322558D01*
X146790018Y-119158204D01*
X146757338Y-119030923D01*
X146762277Y-118980548D01*
X146798443Y-118945132D01*
X146848913Y-118941248D01*
X146881339Y-118960196D01*
X146951837Y-119030694D01*
X146951848Y-119030704D01*
X147029221Y-119093734D01*
X147029226Y-119093737D01*
X147180672Y-119169796D01*
X147180680Y-119169799D01*
X147345590Y-119208884D01*
X147515071Y-119208884D01*
X147679980Y-119169799D01*
X147679988Y-119169796D01*
X147831434Y-119093737D01*
X147908812Y-119030705D01*
X147908822Y-119030696D01*
X147942981Y-118996535D01*
X147146780Y-118200334D01*
X147125388Y-118154458D01*
X147138489Y-118105563D01*
X147146780Y-118095682D01*
X147395682Y-117846781D01*
X147441559Y-117825389D01*
X147490453Y-117838490D01*
X147500334Y-117846781D01*
X148296535Y-118642982D01*
X148330700Y-118608817D01*
X148393734Y-118531439D01*
X148393737Y-118531434D01*
X148469796Y-118379988D01*
X148469799Y-118379980D01*
X148508884Y-118215071D01*
X148508884Y-118045587D01*
X148508384Y-118041311D01*
X148510460Y-118041068D01*
X148515432Y-117998290D01*
X148552227Y-117963528D01*
X148602759Y-117960550D01*
X148643382Y-117990751D01*
X148649454Y-118001968D01*
X148651259Y-118006124D01*
X148704794Y-118074271D01*
X148704799Y-118074277D01*
X149025723Y-118395199D01*
X149093878Y-118448741D01*
X149093880Y-118448742D01*
X149093882Y-118448743D01*
X149150445Y-118473312D01*
X149228897Y-118507389D01*
X149374731Y-118527433D01*
X149520566Y-118507389D01*
X149655585Y-118448741D01*
X149723740Y-118395201D01*
X149973951Y-118144988D01*
X150027493Y-118076833D01*
X150072621Y-117972938D01*
X150107449Y-117936210D01*
X150157740Y-117930460D01*
X150192819Y-117950096D01*
X150385071Y-118142348D01*
X150386827Y-118144165D01*
X150431192Y-118191668D01*
X150468481Y-118214344D01*
X150474745Y-118218607D01*
X150481255Y-118223543D01*
X150509530Y-118244985D01*
X150509531Y-118244985D01*
X150509532Y-118244986D01*
X150509531Y-118244986D01*
X150530202Y-118253137D01*
X150541504Y-118258750D01*
X150560490Y-118270296D01*
X150602529Y-118282074D01*
X150609697Y-118284485D01*
X150650305Y-118300499D01*
X150650308Y-118300500D01*
X150672412Y-118302772D01*
X150684804Y-118305127D01*
X150706207Y-118311124D01*
X150710995Y-118311124D01*
X150758561Y-118328437D01*
X150763320Y-118332798D01*
X150825710Y-118395187D01*
X150825718Y-118395194D01*
X150825723Y-118395199D01*
X150893878Y-118448741D01*
X150893880Y-118448742D01*
X150893882Y-118448743D01*
X150950445Y-118473312D01*
X151028897Y-118507389D01*
X151101620Y-118517384D01*
X151146387Y-118541012D01*
X151165492Y-118587887D01*
X151149996Y-118636076D01*
X151119864Y-118659062D01*
X151072153Y-118678825D01*
X150984080Y-118746405D01*
X150984076Y-118746408D01*
X150299033Y-119431452D01*
X150231444Y-119519534D01*
X150174713Y-119656492D01*
X150174713Y-119656493D01*
X150155365Y-119803464D01*
X150174713Y-119950436D01*
X150225947Y-120074124D01*
X150231444Y-120087394D01*
X150299029Y-120175473D01*
X150581024Y-120457467D01*
X150669103Y-120525053D01*
X150806060Y-120581783D01*
X150953033Y-120601132D01*
X151100005Y-120581783D01*
X151236962Y-120525053D01*
X151325041Y-120457468D01*
X152010086Y-119772422D01*
X152077672Y-119684343D01*
X152107619Y-119612044D01*
X152141816Y-119574724D01*
X152192002Y-119568117D01*
X152234694Y-119595314D01*
X152243859Y-119610881D01*
X152272507Y-119676834D01*
X152326042Y-119744982D01*
X152326058Y-119745000D01*
X152388449Y-119807390D01*
X152409842Y-119853266D01*
X152410124Y-119859716D01*
X152410124Y-119990080D01*
X152392811Y-120037646D01*
X152381173Y-120048788D01*
X152327574Y-120089916D01*
X151642536Y-120774955D01*
X151574947Y-120863037D01*
X151518216Y-120999995D01*
X151518216Y-120999996D01*
X151498868Y-121146967D01*
X151518216Y-121293939D01*
X151536758Y-121338702D01*
X151574947Y-121430897D01*
X151576092Y-121432389D01*
X151594794Y-121456762D01*
X151610015Y-121505039D01*
X151590643Y-121551804D01*
X151545743Y-121575177D01*
X151536085Y-121575810D01*
X150882905Y-121575810D01*
X150835339Y-121558497D01*
X150830579Y-121554136D01*
X150547228Y-121270786D01*
X150547224Y-121270782D01*
X150459145Y-121203196D01*
X150454652Y-121201335D01*
X150322187Y-121146465D01*
X150175215Y-121127117D01*
X150028244Y-121146465D01*
X150028240Y-121146466D01*
X149892995Y-121202487D01*
X149842425Y-121204695D01*
X149812351Y-121186446D01*
X149404804Y-120778899D01*
X149403048Y-120777082D01*
X149358682Y-120729578D01*
X149358681Y-120729577D01*
X149321389Y-120706899D01*
X149315126Y-120702637D01*
X149303575Y-120693878D01*
X149280346Y-120676263D01*
X149259670Y-120668109D01*
X149248375Y-120662499D01*
X149229384Y-120650951D01*
X149229382Y-120650950D01*
X149187348Y-120639172D01*
X149180169Y-120636758D01*
X149168217Y-120632045D01*
X149130318Y-120598490D01*
X149122854Y-120548425D01*
X149149318Y-120505274D01*
X149160963Y-120497686D01*
X149272240Y-120439283D01*
X149390483Y-120334530D01*
X149480220Y-120204523D01*
X149482988Y-120197226D01*
X149511075Y-120123165D01*
X149536237Y-120056818D01*
X149544212Y-119991137D01*
X149555278Y-119900003D01*
X149555278Y-119899996D01*
X149536456Y-119744988D01*
X149536237Y-119743182D01*
X149517051Y-119692593D01*
X149480221Y-119595478D01*
X149390483Y-119465470D01*
X149373585Y-119450500D01*
X149272240Y-119360717D01*
X149260139Y-119354366D01*
X149132366Y-119287304D01*
X148978987Y-119249500D01*
X148978985Y-119249500D01*
X148821015Y-119249500D01*
X148821012Y-119249500D01*
X148667633Y-119287304D01*
X148527761Y-119360716D01*
X148409515Y-119465471D01*
X148319779Y-119595477D01*
X148318142Y-119598597D01*
X148304949Y-119616524D01*
X148270269Y-119651204D01*
X148228019Y-119672189D01*
X148079434Y-119692610D01*
X147944413Y-119751259D01*
X147876265Y-119804794D01*
X147876256Y-119804802D01*
X147626052Y-120055008D01*
X147626044Y-120055017D01*
X147572508Y-120123165D01*
X147572504Y-120123171D01*
X147513858Y-120258186D01*
X147502689Y-120339454D01*
X147479061Y-120384220D01*
X147439454Y-120402689D01*
X147358186Y-120413858D01*
X147223165Y-120472507D01*
X147155017Y-120526042D01*
X147155008Y-120526050D01*
X146904804Y-120776256D01*
X146904796Y-120776265D01*
X146851260Y-120844413D01*
X146851256Y-120844419D01*
X146792610Y-120979434D01*
X146772567Y-121125268D01*
X146792610Y-121271102D01*
X146851259Y-121406123D01*
X146892049Y-121458047D01*
X146904799Y-121474277D01*
X147225723Y-121795199D01*
X147293878Y-121848741D01*
X147293880Y-121848742D01*
X147293882Y-121848743D01*
X147379453Y-121885912D01*
X147428897Y-121907389D01*
X147574731Y-121927433D01*
X147720566Y-121907389D01*
X147855585Y-121848741D01*
X147923740Y-121795201D01*
X147958395Y-121760546D01*
X147986142Y-121732799D01*
X148032018Y-121711406D01*
X148038468Y-121711124D01*
X148749327Y-121711124D01*
X148796893Y-121728437D01*
X148801653Y-121732798D01*
X149033826Y-121964971D01*
X149055218Y-122010847D01*
X149049867Y-122045615D01*
X148993846Y-122180860D01*
X148993845Y-122180864D01*
X148974497Y-122327835D01*
X148993845Y-122474807D01*
X149032893Y-122569076D01*
X149050576Y-122611765D01*
X149118161Y-122699844D01*
X149400156Y-122981838D01*
X149488235Y-123049424D01*
X149625192Y-123106154D01*
X149772165Y-123125503D01*
X149919137Y-123106154D01*
X150056094Y-123049424D01*
X150144173Y-122981839D01*
X150427528Y-122698484D01*
X150473404Y-122677092D01*
X150479854Y-122676810D01*
X153263026Y-122676810D01*
X153265552Y-122676853D01*
X153330512Y-122679072D01*
X153330512Y-122679071D01*
X153330516Y-122679072D01*
X153367888Y-122669964D01*
X153372919Y-122668738D01*
X153380366Y-122667323D01*
X153388907Y-122666149D01*
X153423610Y-122661380D01*
X153423611Y-122661379D01*
X153423613Y-122661379D01*
X153432620Y-122657465D01*
X153443987Y-122652527D01*
X153455953Y-122648504D01*
X153477535Y-122643245D01*
X153477537Y-122643244D01*
X153477542Y-122643243D01*
X153477545Y-122643240D01*
X153477548Y-122643240D01*
X153515591Y-122621849D01*
X153522375Y-122618479D01*
X153562410Y-122601090D01*
X153579643Y-122587068D01*
X153590070Y-122579971D01*
X153609449Y-122569076D01*
X153640314Y-122538209D01*
X153645928Y-122533142D01*
X153679798Y-122505588D01*
X153692616Y-122487427D01*
X153700736Y-122477787D01*
X153729728Y-122448795D01*
X153771977Y-122427811D01*
X153774729Y-122427432D01*
X153774731Y-122427433D01*
X153920566Y-122407389D01*
X154055585Y-122348741D01*
X154123740Y-122295201D01*
X154373951Y-122044988D01*
X154427493Y-121976833D01*
X154486141Y-121841814D01*
X154497310Y-121760545D01*
X154520938Y-121715780D01*
X154560545Y-121697310D01*
X154641814Y-121686141D01*
X154776833Y-121627493D01*
X154844988Y-121573953D01*
X155095199Y-121323740D01*
X155148741Y-121255585D01*
X155207389Y-121120566D01*
X155227433Y-120974731D01*
X155207389Y-120828897D01*
X155148741Y-120693878D01*
X155148740Y-120693877D01*
X155148740Y-120693876D01*
X155095205Y-120625728D01*
X155095197Y-120625719D01*
X155032798Y-120563320D01*
X155011406Y-120517444D01*
X155011124Y-120510994D01*
X155011124Y-120420639D01*
X155024224Y-120378601D01*
X155040844Y-120354523D01*
X155040845Y-120354521D01*
X155065472Y-120289584D01*
X155096861Y-120206818D01*
X155110592Y-120093733D01*
X155115902Y-120050003D01*
X155115902Y-120049996D01*
X155096862Y-119893191D01*
X155096861Y-119893182D01*
X155074845Y-119835131D01*
X155040846Y-119745481D01*
X155040844Y-119745479D01*
X155040844Y-119745477D01*
X155024221Y-119721394D01*
X155011124Y-119679360D01*
X155011124Y-118418332D01*
X155028437Y-118370766D01*
X155032787Y-118366017D01*
X155470841Y-117927963D01*
X155493945Y-117900912D01*
X155570081Y-117762423D01*
X155609383Y-117609350D01*
X155609383Y-117451311D01*
X155570081Y-117298238D01*
X155570080Y-117298236D01*
X155570078Y-117298230D01*
X155493947Y-117159751D01*
X155493942Y-117159743D01*
X155470847Y-117132704D01*
X155470842Y-117132698D01*
X155220182Y-116882038D01*
X155198790Y-116836161D01*
X155198508Y-116829712D01*
X155198508Y-115213790D01*
X155215821Y-115166224D01*
X155220171Y-115161475D01*
X155655474Y-114726173D01*
X155679497Y-114698046D01*
X155758675Y-114554021D01*
X155799549Y-114394830D01*
X155799549Y-114230475D01*
X155796795Y-114219751D01*
X155758675Y-114071284D01*
X155737512Y-114032789D01*
X155679497Y-113927259D01*
X155655474Y-113899132D01*
X155191338Y-113434996D01*
X155163211Y-113410973D01*
X155070118Y-113359795D01*
X155019185Y-113331794D01*
X154859999Y-113290921D01*
X154859995Y-113290921D01*
X154695640Y-113290921D01*
X154695635Y-113290921D01*
X154565825Y-113324252D01*
X154515448Y-113319313D01*
X154480032Y-113283147D01*
X154475747Y-113234176D01*
X154509079Y-113104360D01*
X154509079Y-112940005D01*
X154499308Y-112901952D01*
X154468205Y-112780814D01*
X154457157Y-112760718D01*
X154389027Y-112636789D01*
X154365004Y-112608662D01*
X153900868Y-112144526D01*
X153872741Y-112120503D01*
X153793103Y-112076722D01*
X153728715Y-112041324D01*
X153569529Y-112000451D01*
X153569525Y-112000451D01*
X153405170Y-112000451D01*
X153405165Y-112000451D01*
X153245979Y-112041324D01*
X153101954Y-112120503D01*
X153101952Y-112120504D01*
X153073832Y-112144521D01*
X152344521Y-112873832D01*
X152320504Y-112901952D01*
X152320503Y-112901954D01*
X152241325Y-113045978D01*
X152205006Y-113187428D01*
X152176408Y-113229194D01*
X152127653Y-113242806D01*
X152081555Y-113221895D01*
X152081005Y-113221350D01*
X151978394Y-113118740D01*
X151978380Y-113118727D01*
X151950947Y-113095297D01*
X151950942Y-113095293D01*
X151810349Y-113018001D01*
X151810350Y-113018001D01*
X151654950Y-112978102D01*
X151494512Y-112978102D01*
X151339113Y-113018001D01*
X151198520Y-113095293D01*
X151198514Y-113095298D01*
X151171729Y-113118175D01*
X151171729Y-113118176D01*
X151840603Y-113787050D01*
X151861995Y-113832926D01*
X151848894Y-113881821D01*
X151840603Y-113891702D01*
X151743855Y-113988450D01*
X151697979Y-114009842D01*
X151691529Y-114010124D01*
X151387223Y-114010124D01*
X151339657Y-113992811D01*
X151334897Y-113988450D01*
X150818176Y-113471729D01*
X150818175Y-113471729D01*
X150795298Y-113498514D01*
X150795293Y-113498520D01*
X150718001Y-113639113D01*
X150687110Y-113759427D01*
X150658512Y-113801194D01*
X150609758Y-113814806D01*
X150585953Y-113808897D01*
X150562989Y-113798922D01*
X150526258Y-113764092D01*
X150520796Y-113749452D01*
X150481950Y-113598156D01*
X150402832Y-113454241D01*
X150402827Y-113454235D01*
X150401211Y-113452342D01*
X150401209Y-113452341D01*
X149980050Y-113873501D01*
X149975282Y-113877732D01*
X149975291Y-113877742D01*
X149973634Y-113879211D01*
X149456306Y-114396539D01*
X149410429Y-114417931D01*
X149361535Y-114404830D01*
X149351654Y-114396539D01*
X149103460Y-114148345D01*
X149082068Y-114102469D01*
X149095169Y-114053574D01*
X149103454Y-114043699D01*
X149620781Y-113526373D01*
X149620787Y-113526364D01*
X149622250Y-113524717D01*
X149622261Y-113524726D01*
X149626505Y-113519940D01*
X150047655Y-113098788D01*
X150047656Y-113098788D01*
X150045759Y-113097168D01*
X150045757Y-113097167D01*
X149901843Y-113018049D01*
X149901844Y-113018049D01*
X149750547Y-112979203D01*
X149708781Y-112950605D01*
X149701077Y-112937010D01*
X149675822Y-112878869D01*
X149675822Y-112878868D01*
X149620781Y-112808804D01*
X149619415Y-112807065D01*
X149620104Y-112806523D01*
X149602586Y-112762182D01*
X149618599Y-112714163D01*
X149624228Y-112707849D01*
X149629816Y-112702262D01*
X149725789Y-112549522D01*
X149785368Y-112379255D01*
X149794675Y-112296650D01*
X149817204Y-112251324D01*
X149863599Y-112231082D01*
X149912151Y-112245398D01*
X149920527Y-112252605D01*
X149997738Y-112329816D01*
X150077492Y-112379929D01*
X150150479Y-112425790D01*
X150315649Y-112483585D01*
X150320745Y-112485368D01*
X150500000Y-112505565D01*
X150679255Y-112485368D01*
X150747481Y-112461494D01*
X150849520Y-112425790D01*
X150849522Y-112425789D01*
X151002262Y-112329816D01*
X151129816Y-112202262D01*
X151225789Y-112049522D01*
X151228658Y-112041325D01*
X151274756Y-111909583D01*
X151285368Y-111879255D01*
X151305565Y-111700000D01*
X151285368Y-111520745D01*
X151276811Y-111496291D01*
X151225790Y-111350479D01*
X151164326Y-111252660D01*
X151129816Y-111197738D01*
X151038901Y-111106823D01*
X151017510Y-111060949D01*
X151030611Y-111012054D01*
X151072075Y-110983020D01*
X151091228Y-110980499D01*
X151126929Y-110980499D01*
X151126929Y-110980498D01*
X151212979Y-110970166D01*
X151349922Y-110916163D01*
X151420687Y-110862500D01*
X161800001Y-110862500D01*
X161800001Y-110924976D01*
X161810494Y-111027696D01*
X161865642Y-111194121D01*
X161957683Y-111343343D01*
X161957686Y-111343347D01*
X162081653Y-111467314D01*
X162081656Y-111467316D01*
X162230878Y-111559357D01*
X162397302Y-111614505D01*
X162500025Y-111624999D01*
X162750000Y-111624999D01*
X162750000Y-110862500D01*
X163250000Y-110862500D01*
X163250000Y-111624999D01*
X163499971Y-111624999D01*
X163499976Y-111624998D01*
X163602696Y-111614505D01*
X163769121Y-111559357D01*
X163918343Y-111467316D01*
X163918347Y-111467314D01*
X164042314Y-111343347D01*
X164042316Y-111343343D01*
X164134357Y-111194121D01*
X164189505Y-111027697D01*
X164199999Y-110924975D01*
X164200000Y-110924973D01*
X164200000Y-110862500D01*
X163250000Y-110862500D01*
X162750000Y-110862500D01*
X161800001Y-110862500D01*
X151420687Y-110862500D01*
X151429268Y-110855993D01*
X151469432Y-110825536D01*
X151514145Y-110810500D01*
X151728231Y-110810500D01*
X151743961Y-110812191D01*
X151753927Y-110814359D01*
X151805237Y-110810688D01*
X151810516Y-110810500D01*
X151825796Y-110810500D01*
X151825799Y-110810500D01*
X151840945Y-110808321D01*
X151846138Y-110807762D01*
X151897483Y-110804091D01*
X151907031Y-110800529D01*
X151922361Y-110796616D01*
X151932457Y-110795165D01*
X151979277Y-110773781D01*
X151984109Y-110771780D01*
X152032331Y-110753796D01*
X152040498Y-110747681D01*
X152054102Y-110739610D01*
X152063373Y-110735377D01*
X152102252Y-110701686D01*
X152106338Y-110698393D01*
X152118593Y-110689221D01*
X152129412Y-110678400D01*
X152133249Y-110674828D01*
X152172143Y-110641128D01*
X152177655Y-110632549D01*
X152187577Y-110620235D01*
X152410235Y-110397577D01*
X152422549Y-110387655D01*
X152431128Y-110382143D01*
X152464828Y-110343249D01*
X152468400Y-110339412D01*
X152479221Y-110328593D01*
X152488393Y-110316338D01*
X152491686Y-110312252D01*
X152525377Y-110273373D01*
X152529610Y-110264102D01*
X152537681Y-110250498D01*
X152543796Y-110242331D01*
X152561780Y-110194109D01*
X152563781Y-110189277D01*
X152585165Y-110142457D01*
X152586616Y-110132361D01*
X152590530Y-110117029D01*
X152594090Y-110107485D01*
X152594089Y-110107485D01*
X152594091Y-110107483D01*
X152597762Y-110056138D01*
X152598321Y-110050945D01*
X152600500Y-110035799D01*
X152600500Y-110020515D01*
X152600689Y-110015235D01*
X152604359Y-109963927D01*
X152604358Y-109963924D01*
X152602191Y-109953961D01*
X152600500Y-109938231D01*
X152600500Y-109851611D01*
X152617813Y-109804045D01*
X152661650Y-109778735D01*
X152711500Y-109787525D01*
X152726826Y-109799285D01*
X153421995Y-110494454D01*
X153431921Y-110506772D01*
X153436941Y-110514583D01*
X153436945Y-110514589D01*
X153436947Y-110514590D01*
X153436948Y-110514592D01*
X153473782Y-110546508D01*
X153477649Y-110550108D01*
X153487821Y-110560280D01*
X153499330Y-110568895D01*
X153503445Y-110572211D01*
X153540282Y-110604130D01*
X153548732Y-110607989D01*
X153562333Y-110616059D01*
X153565149Y-110618167D01*
X153569772Y-110621628D01*
X153569773Y-110621628D01*
X153569774Y-110621629D01*
X153615454Y-110638665D01*
X153620325Y-110640684D01*
X153664658Y-110660931D01*
X153668690Y-110661510D01*
X153673852Y-110662253D01*
X153689179Y-110666164D01*
X153697886Y-110669412D01*
X153746533Y-110672891D01*
X153751752Y-110673453D01*
X153758683Y-110674449D01*
X153765989Y-110675500D01*
X153780366Y-110675500D01*
X153785644Y-110675688D01*
X153834271Y-110679167D01*
X153839914Y-110677939D01*
X153843355Y-110677191D01*
X153859085Y-110675500D01*
X155640915Y-110675500D01*
X155656645Y-110677191D01*
X155662275Y-110678415D01*
X155665729Y-110679167D01*
X155714351Y-110675689D01*
X155719631Y-110675500D01*
X155734007Y-110675500D01*
X155734011Y-110675500D01*
X155734016Y-110675499D01*
X155734019Y-110675499D01*
X155748253Y-110673452D01*
X155753467Y-110672890D01*
X155802115Y-110669411D01*
X155810819Y-110666164D01*
X155826142Y-110662253D01*
X155835342Y-110660931D01*
X155879696Y-110640674D01*
X155884537Y-110638668D01*
X155930226Y-110621629D01*
X155937668Y-110616057D01*
X155951266Y-110607989D01*
X155959718Y-110604130D01*
X155996559Y-110572205D01*
X156000659Y-110568902D01*
X156012180Y-110560279D01*
X156022362Y-110550095D01*
X156026198Y-110546524D01*
X156063055Y-110514589D01*
X156068078Y-110506771D01*
X156078000Y-110494457D01*
X156594457Y-109978000D01*
X156606771Y-109968078D01*
X156614589Y-109963055D01*
X156646524Y-109926198D01*
X156650095Y-109922362D01*
X156660279Y-109912180D01*
X156668902Y-109900659D01*
X156672205Y-109896559D01*
X156704130Y-109859718D01*
X156707989Y-109851266D01*
X156716057Y-109837668D01*
X156721629Y-109830226D01*
X156738668Y-109784537D01*
X156740674Y-109779696D01*
X156760931Y-109735342D01*
X156762253Y-109726142D01*
X156766164Y-109710819D01*
X156769411Y-109702115D01*
X156771763Y-109669218D01*
X156792425Y-109623010D01*
X156837956Y-109600892D01*
X156845575Y-109600499D01*
X157031519Y-109600499D01*
X157125304Y-109585646D01*
X157125306Y-109585645D01*
X157139419Y-109578454D01*
X157238342Y-109528050D01*
X157307913Y-109458478D01*
X157353788Y-109437087D01*
X157402682Y-109450187D01*
X157404924Y-109451821D01*
X157462605Y-109495562D01*
X157600826Y-109550070D01*
X157670858Y-109558479D01*
X157687678Y-109560500D01*
X157687680Y-109560500D01*
X158112322Y-109560500D01*
X158127656Y-109558658D01*
X158199174Y-109550070D01*
X158337395Y-109495562D01*
X158455785Y-109405785D01*
X158545562Y-109287395D01*
X158600070Y-109149174D01*
X158610500Y-109062320D01*
X158610500Y-108697680D01*
X158608639Y-108682187D01*
X158604032Y-108643823D01*
X158600070Y-108610826D01*
X158593048Y-108593020D01*
X158568031Y-108529581D01*
X158566686Y-108478979D01*
X158578407Y-108457068D01*
X158579722Y-108455372D01*
X158662031Y-108316196D01*
X158704505Y-108170000D01*
X157724000Y-108170000D01*
X157676434Y-108152687D01*
X157651124Y-108108850D01*
X157650000Y-108096000D01*
X157650000Y-107141209D01*
X158150000Y-107141209D01*
X158150000Y-107670000D01*
X158704505Y-107670000D01*
X158704505Y-107669999D01*
X158662031Y-107523803D01*
X158579719Y-107384622D01*
X158465377Y-107270280D01*
X158326196Y-107187968D01*
X158170914Y-107142855D01*
X158170917Y-107142855D01*
X158150000Y-107141209D01*
X157650000Y-107141209D01*
X157629082Y-107142855D01*
X157629081Y-107142855D01*
X157565547Y-107161313D01*
X157515039Y-107157957D01*
X157503418Y-107150000D01*
X156124000Y-107150000D01*
X156076434Y-107132687D01*
X156051124Y-107088850D01*
X156050000Y-107076000D01*
X156050000Y-106724000D01*
X156067313Y-106676434D01*
X156111150Y-106651124D01*
X156124000Y-106650000D01*
X157500000Y-106650000D01*
X157500000Y-106252171D01*
X157493597Y-106192624D01*
X157493596Y-106192619D01*
X157443354Y-106057912D01*
X157443353Y-106057911D01*
X157357188Y-105942811D01*
X157242088Y-105856646D01*
X157242087Y-105856645D01*
X157123532Y-105812427D01*
X157085015Y-105779583D01*
X157076620Y-105729665D01*
X157102277Y-105686030D01*
X157104343Y-105684385D01*
X157170312Y-105633764D01*
X157218588Y-105618542D01*
X157265354Y-105637913D01*
G37*
%TD.AperFunction*%
%TA.AperFunction,Conductor*%
G36*
X153484551Y-114280686D02*
G01*
X153519967Y-114316851D01*
X153524252Y-114365825D01*
X153490921Y-114495635D01*
X153490921Y-114659999D01*
X153531794Y-114819185D01*
X153531795Y-114819186D01*
X153610973Y-114963211D01*
X153634996Y-114991338D01*
X153826797Y-115183139D01*
X154006398Y-115362740D01*
X154027790Y-115408617D01*
X154014689Y-115457511D01*
X153973225Y-115486545D01*
X153922798Y-115482133D01*
X153920861Y-115481195D01*
X153819328Y-115430203D01*
X153819319Y-115430200D01*
X153654410Y-115391116D01*
X153484929Y-115391116D01*
X153320019Y-115430200D01*
X153320011Y-115430203D01*
X153168564Y-115506262D01*
X153168560Y-115506265D01*
X153091197Y-115569285D01*
X153091177Y-115569303D01*
X153057017Y-115603462D01*
X153057017Y-115603463D01*
X153853219Y-116399665D01*
X153874611Y-116445541D01*
X153861510Y-116494436D01*
X153853219Y-116504317D01*
X153604318Y-116753219D01*
X153558442Y-116774611D01*
X153509547Y-116761510D01*
X153499666Y-116753219D01*
X152703464Y-115957017D01*
X152669303Y-115991178D01*
X152606266Y-116068559D01*
X152606262Y-116068565D01*
X152530203Y-116220011D01*
X152530200Y-116220019D01*
X152491116Y-116384928D01*
X152491116Y-116402272D01*
X152473803Y-116449838D01*
X152429966Y-116475148D01*
X152380116Y-116466358D01*
X152364790Y-116454598D01*
X152228931Y-116318740D01*
X152228917Y-116318727D01*
X152201484Y-116295297D01*
X152201479Y-116295293D01*
X152060886Y-116218001D01*
X152060887Y-116218001D01*
X151905488Y-116178102D01*
X151745050Y-116178102D01*
X151589650Y-116218001D01*
X151449057Y-116295293D01*
X151449052Y-116295297D01*
X151421619Y-116318727D01*
X151421605Y-116318740D01*
X151228912Y-116511433D01*
X151183035Y-116532825D01*
X151134141Y-116519724D01*
X151105107Y-116478259D01*
X151107394Y-116432868D01*
X151136237Y-116356818D01*
X151147268Y-116265971D01*
X151155278Y-116200003D01*
X151155278Y-116199996D01*
X151136238Y-116043191D01*
X151136237Y-116043182D01*
X151120303Y-116001168D01*
X151080221Y-115895478D01*
X150990483Y-115765470D01*
X150959655Y-115738159D01*
X150872240Y-115660717D01*
X150832989Y-115640116D01*
X150732366Y-115587304D01*
X150578987Y-115549500D01*
X150578985Y-115549500D01*
X150463309Y-115549500D01*
X150415743Y-115532187D01*
X150390433Y-115488350D01*
X150399223Y-115438500D01*
X150410983Y-115423174D01*
X150479711Y-115354447D01*
X150701360Y-115132798D01*
X150747237Y-115111406D01*
X150753686Y-115111124D01*
X151761532Y-115111124D01*
X151809098Y-115128437D01*
X151813857Y-115132798D01*
X151876247Y-115195187D01*
X151876255Y-115195194D01*
X151876260Y-115195199D01*
X151944415Y-115248741D01*
X151944417Y-115248742D01*
X151944419Y-115248743D01*
X152012175Y-115278174D01*
X152079434Y-115307389D01*
X152225269Y-115327433D01*
X152371103Y-115307389D01*
X152506122Y-115248741D01*
X152574277Y-115195201D01*
X152895199Y-114874277D01*
X152948741Y-114806122D01*
X153007389Y-114671103D01*
X153019929Y-114579858D01*
X153040913Y-114537610D01*
X153247771Y-114330753D01*
X153293648Y-114309361D01*
X153300097Y-114309079D01*
X153304357Y-114309079D01*
X153304360Y-114309079D01*
X153434176Y-114275747D01*
X153484551Y-114280686D01*
G37*
%TD.AperFunction*%
%TA.AperFunction,Conductor*%
G36*
X132674941Y-93374542D02*
G01*
X132709279Y-93411734D01*
X132715007Y-93441595D01*
X132714910Y-93447161D01*
X132714910Y-93447162D01*
X132752001Y-93568486D01*
X132806464Y-93646266D01*
X133544910Y-94410949D01*
X133544919Y-94410956D01*
X133620741Y-94468094D01*
X133620743Y-94468095D01*
X133620747Y-94468098D01*
X133644022Y-94476112D01*
X133740697Y-94509400D01*
X133740698Y-94509400D01*
X133740701Y-94509401D01*
X133824599Y-94510865D01*
X133871853Y-94529004D01*
X133896394Y-94573276D01*
X133897294Y-94586144D01*
X133895890Y-94666626D01*
X133895830Y-94670041D01*
X133911891Y-94722574D01*
X133932921Y-94791364D01*
X133987384Y-94869144D01*
X134725830Y-95633827D01*
X134725839Y-95633834D01*
X134801661Y-95690972D01*
X134801663Y-95690973D01*
X134801667Y-95690976D01*
X134876567Y-95716765D01*
X134899592Y-95724694D01*
X134938930Y-95756549D01*
X134949500Y-95794662D01*
X134949500Y-98407819D01*
X134932187Y-98455385D01*
X134888350Y-98480695D01*
X134867980Y-98481436D01*
X134804978Y-98475000D01*
X134580000Y-98475000D01*
X134580000Y-101274999D01*
X134590873Y-101285872D01*
X134608566Y-101292312D01*
X134633876Y-101336149D01*
X134635000Y-101348999D01*
X134635000Y-102426000D01*
X134617687Y-102473566D01*
X134573850Y-102498876D01*
X134561000Y-102500000D01*
X133285001Y-102500000D01*
X133285001Y-102506583D01*
X133291408Y-102577102D01*
X133291409Y-102577106D01*
X133341979Y-102739393D01*
X133389025Y-102817217D01*
X133398817Y-102866880D01*
X133374395Y-102911218D01*
X133327187Y-102929485D01*
X133325697Y-102929500D01*
X132930682Y-102929500D01*
X132928155Y-102929457D01*
X132863178Y-102927237D01*
X132863170Y-102927237D01*
X132820765Y-102937571D01*
X132813323Y-102938986D01*
X132770079Y-102944930D01*
X132749695Y-102953784D01*
X132737742Y-102957803D01*
X132728106Y-102960152D01*
X132716145Y-102963067D01*
X132716143Y-102963068D01*
X132678094Y-102984461D01*
X132671312Y-102987830D01*
X132631286Y-103005216D01*
X132631281Y-103005219D01*
X132614040Y-103019245D01*
X132603612Y-103026341D01*
X132584248Y-103037228D01*
X132584241Y-103037234D01*
X132553369Y-103068104D01*
X132547747Y-103073177D01*
X132513892Y-103100720D01*
X132513890Y-103100723D01*
X132501075Y-103118877D01*
X132492947Y-103128526D01*
X132118273Y-103503200D01*
X132116457Y-103504955D01*
X132068954Y-103549321D01*
X132068951Y-103549324D01*
X132046276Y-103586612D01*
X132042015Y-103592873D01*
X132015643Y-103627651D01*
X132015635Y-103627665D01*
X132007484Y-103648334D01*
X132001873Y-103659632D01*
X131990327Y-103678618D01*
X131978551Y-103720646D01*
X131976137Y-103727824D01*
X131960125Y-103768429D01*
X131960123Y-103768439D01*
X131957849Y-103790543D01*
X131955496Y-103802928D01*
X131949500Y-103824335D01*
X131949500Y-103867981D01*
X131949112Y-103875549D01*
X131944728Y-103918198D01*
X131944648Y-103918972D01*
X131946926Y-103932187D01*
X131948424Y-103940872D01*
X131949500Y-103953445D01*
X131949500Y-106089334D01*
X131949457Y-106091860D01*
X131947237Y-106156824D01*
X131957570Y-106199225D01*
X131958984Y-106206666D01*
X131964930Y-106249920D01*
X131964931Y-106249922D01*
X131973783Y-106270302D01*
X131977805Y-106282261D01*
X131983066Y-106303848D01*
X131983067Y-106303852D01*
X132004461Y-106341903D01*
X132007827Y-106348680D01*
X132025217Y-106388715D01*
X132025219Y-106388719D01*
X132039243Y-106405957D01*
X132046343Y-106416389D01*
X132057233Y-106435758D01*
X132088101Y-106466626D01*
X132093177Y-106472251D01*
X132115435Y-106499610D01*
X132120722Y-106506108D01*
X132138875Y-106518922D01*
X132148526Y-106527051D01*
X132523199Y-106901724D01*
X132524955Y-106903541D01*
X132569320Y-106951044D01*
X132606609Y-106973720D01*
X132612873Y-106977983D01*
X132616118Y-106980444D01*
X132647658Y-107004361D01*
X132647659Y-107004361D01*
X132647660Y-107004362D01*
X132647659Y-107004362D01*
X132668330Y-107012513D01*
X132679632Y-107018126D01*
X132698618Y-107029672D01*
X132740657Y-107041450D01*
X132747825Y-107043861D01*
X132788433Y-107059875D01*
X132788436Y-107059876D01*
X132810540Y-107062148D01*
X132822932Y-107064503D01*
X132844335Y-107070500D01*
X132887982Y-107070500D01*
X132895550Y-107070888D01*
X132938972Y-107075352D01*
X132960872Y-107071575D01*
X132973445Y-107070500D01*
X133325697Y-107070500D01*
X133373263Y-107087813D01*
X133398573Y-107131650D01*
X133389783Y-107181500D01*
X133389025Y-107182783D01*
X133341979Y-107260606D01*
X133291410Y-107422890D01*
X133291408Y-107422900D01*
X133285000Y-107493417D01*
X133285000Y-107500000D01*
X135478942Y-107500000D01*
X135526508Y-107517313D01*
X135542637Y-107536331D01*
X135579996Y-107599501D01*
X135601830Y-107636420D01*
X135713580Y-107748170D01*
X135779752Y-107787304D01*
X135848649Y-107828050D01*
X135849610Y-107828618D01*
X135955375Y-107859345D01*
X135987056Y-107878081D01*
X137927826Y-109818851D01*
X137949218Y-109864727D01*
X137949500Y-109871177D01*
X137949500Y-110178860D01*
X137932187Y-110226426D01*
X137888350Y-110251736D01*
X137841110Y-110244384D01*
X137732355Y-110187304D01*
X137732352Y-110187303D01*
X137578977Y-110149500D01*
X137578975Y-110149500D01*
X137421005Y-110149500D01*
X137421002Y-110149500D01*
X137267623Y-110187304D01*
X137127751Y-110260716D01*
X137009506Y-110365470D01*
X136919769Y-110495478D01*
X136919768Y-110495478D01*
X136863754Y-110643177D01*
X136863751Y-110643191D01*
X136844712Y-110799996D01*
X136844712Y-110800003D01*
X136863751Y-110956808D01*
X136863754Y-110956822D01*
X136919768Y-111104521D01*
X136992475Y-111209855D01*
X137009507Y-111234530D01*
X137127750Y-111339283D01*
X137267625Y-111412696D01*
X137267623Y-111412696D01*
X137335893Y-111429522D01*
X137370511Y-111449046D01*
X137371880Y-111450415D01*
X137393272Y-111496291D01*
X137380171Y-111545186D01*
X137338707Y-111574220D01*
X137313750Y-111576513D01*
X137288164Y-111574500D01*
X136711837Y-111574500D01*
X136711836Y-111574501D01*
X136676370Y-111577291D01*
X136524608Y-111621382D01*
X136388578Y-111701831D01*
X136388575Y-111701833D01*
X136347682Y-111742726D01*
X136301806Y-111764118D01*
X136252912Y-111751017D01*
X136243031Y-111742726D01*
X136127731Y-111627426D01*
X135983482Y-111538452D01*
X135822608Y-111485144D01*
X135723311Y-111475000D01*
X135700000Y-111475000D01*
X135700000Y-112626000D01*
X135682687Y-112673566D01*
X135638850Y-112698876D01*
X135626000Y-112700000D01*
X134500001Y-112700000D01*
X134500001Y-112748312D01*
X134510144Y-112847608D01*
X134563452Y-113008482D01*
X134652426Y-113152731D01*
X134772268Y-113272573D01*
X134916517Y-113361547D01*
X135077391Y-113414855D01*
X135141985Y-113421454D01*
X135187546Y-113443511D01*
X135208269Y-113489694D01*
X135204641Y-113518552D01*
X135155715Y-113664772D01*
X135148748Y-113778699D01*
X135128564Y-113825120D01*
X135087462Y-113847105D01*
X135076675Y-113848965D01*
X135064106Y-113850041D01*
X134685357Y-113850041D01*
X134682831Y-113849998D01*
X134617868Y-113847778D01*
X134609057Y-113849926D01*
X134591537Y-113852030D01*
X133752159Y-113852030D01*
X133704593Y-113834717D01*
X133699833Y-113830356D01*
X133574280Y-113704804D01*
X133574271Y-113704796D01*
X133523323Y-113664772D01*
X133506122Y-113651259D01*
X133506120Y-113651258D01*
X133506117Y-113651256D01*
X133371102Y-113592610D01*
X133243946Y-113575134D01*
X133225269Y-113572567D01*
X133225268Y-113572567D01*
X133079434Y-113592610D01*
X132944413Y-113651259D01*
X132876265Y-113704794D01*
X132876256Y-113704802D01*
X132626052Y-113955008D01*
X132626044Y-113955017D01*
X132572508Y-114023165D01*
X132572504Y-114023171D01*
X132513858Y-114158186D01*
X132502689Y-114239454D01*
X132479061Y-114284220D01*
X132439454Y-114302689D01*
X132358186Y-114313858D01*
X132223165Y-114372507D01*
X132155017Y-114426042D01*
X132155008Y-114426050D01*
X131904804Y-114676256D01*
X131904796Y-114676265D01*
X131851260Y-114744413D01*
X131851256Y-114744419D01*
X131792610Y-114879434D01*
X131772567Y-115025269D01*
X131791023Y-115159559D01*
X131780348Y-115209039D01*
X131740365Y-115240082D01*
X131689782Y-115238161D01*
X131655055Y-115209005D01*
X131589866Y-115105257D01*
X131588170Y-115102418D01*
X131153520Y-114336408D01*
X131151954Y-114333495D01*
X130752110Y-113548757D01*
X130750685Y-113545799D01*
X130386443Y-112743896D01*
X130385166Y-112740909D01*
X130168191Y-112200000D01*
X134500000Y-112200000D01*
X135200000Y-112200000D01*
X135200000Y-111465293D01*
X135187088Y-111437606D01*
X135200187Y-111388712D01*
X135219995Y-111370023D01*
X135219966Y-111369987D01*
X135220386Y-111369654D01*
X135221961Y-111368169D01*
X135223345Y-111367314D01*
X135223347Y-111367314D01*
X135347314Y-111243347D01*
X135347316Y-111243343D01*
X135439357Y-111094121D01*
X135494505Y-110927697D01*
X135504999Y-110824975D01*
X135505000Y-110824973D01*
X135505000Y-110375000D01*
X134580000Y-110375000D01*
X134580000Y-111524999D01*
X134696044Y-111524999D01*
X134743610Y-111542312D01*
X134768920Y-111586149D01*
X134760130Y-111635999D01*
X134748370Y-111651325D01*
X134652426Y-111747268D01*
X134563452Y-111891517D01*
X134510144Y-112052391D01*
X134500000Y-112151688D01*
X134500000Y-112200000D01*
X130168191Y-112200000D01*
X130057241Y-111923405D01*
X130056096Y-111920353D01*
X129939745Y-111587838D01*
X129940376Y-111537224D01*
X129973394Y-111498856D01*
X130023350Y-111490688D01*
X130032869Y-111493154D01*
X130097302Y-111514505D01*
X130200025Y-111524999D01*
X130500000Y-111524999D01*
X130500000Y-110375000D01*
X131000000Y-110375000D01*
X131000000Y-111524999D01*
X131299971Y-111524999D01*
X131299976Y-111524998D01*
X131402696Y-111514505D01*
X131569121Y-111459357D01*
X131718343Y-111367316D01*
X131718347Y-111367314D01*
X131842314Y-111243347D01*
X131842316Y-111243343D01*
X131934357Y-111094121D01*
X131989505Y-110927697D01*
X131999999Y-110824975D01*
X132000000Y-110824973D01*
X132000000Y-110375000D01*
X133155001Y-110375000D01*
X133155001Y-110824976D01*
X133165494Y-110927696D01*
X133220642Y-111094121D01*
X133312683Y-111243343D01*
X133312686Y-111243347D01*
X133436653Y-111367314D01*
X133436656Y-111367316D01*
X133585878Y-111459357D01*
X133752302Y-111514505D01*
X133855025Y-111524999D01*
X134080000Y-111524999D01*
X134080000Y-110375000D01*
X133155001Y-110375000D01*
X132000000Y-110375000D01*
X131000000Y-110375000D01*
X130500000Y-110375000D01*
X130500000Y-108725000D01*
X131000000Y-108725000D01*
X131000000Y-109875000D01*
X131999999Y-109875000D01*
X133155000Y-109875000D01*
X134080000Y-109875000D01*
X134580000Y-109875000D01*
X135504999Y-109875000D01*
X135504999Y-109425029D01*
X135504998Y-109425023D01*
X135494505Y-109322303D01*
X135439357Y-109155878D01*
X135347316Y-109006656D01*
X135347314Y-109006653D01*
X135223347Y-108882686D01*
X135223343Y-108882683D01*
X135074121Y-108790642D01*
X134985413Y-108761247D01*
X134945707Y-108729851D01*
X134935471Y-108680278D01*
X134959495Y-108635723D01*
X134986675Y-108620353D01*
X135074396Y-108593018D01*
X135219874Y-108505074D01*
X135340074Y-108384874D01*
X135428020Y-108239393D01*
X135478589Y-108077109D01*
X135478591Y-108077099D01*
X135484999Y-108006582D01*
X135485000Y-108006573D01*
X135485000Y-108000000D01*
X134635000Y-108000000D01*
X134635000Y-108651000D01*
X134617687Y-108698566D01*
X134591061Y-108713938D01*
X134580000Y-108725000D01*
X134580000Y-109875000D01*
X134080000Y-109875000D01*
X134080000Y-108723999D01*
X134097313Y-108676433D01*
X134123938Y-108661060D01*
X134135000Y-108649999D01*
X134135000Y-108000000D01*
X133285001Y-108000000D01*
X133285001Y-108006583D01*
X133291408Y-108077102D01*
X133291409Y-108077106D01*
X133341979Y-108239393D01*
X133429925Y-108384874D01*
X133550125Y-108505074D01*
X133695606Y-108593020D01*
X133726634Y-108602689D01*
X133766896Y-108633368D01*
X133778018Y-108682750D01*
X133754796Y-108727728D01*
X133727896Y-108743582D01*
X133585878Y-108790642D01*
X133436656Y-108882683D01*
X133312683Y-109006656D01*
X133220642Y-109155878D01*
X133165494Y-109322302D01*
X133155000Y-109425024D01*
X133155000Y-109875000D01*
X131999999Y-109875000D01*
X131999999Y-109425029D01*
X131999998Y-109425023D01*
X131989505Y-109322303D01*
X131934357Y-109155878D01*
X131842316Y-109006656D01*
X131842314Y-109006653D01*
X131718347Y-108882686D01*
X131718343Y-108882683D01*
X131569121Y-108790642D01*
X131402697Y-108735494D01*
X131299975Y-108725000D01*
X131000000Y-108725000D01*
X130500000Y-108725000D01*
X130200029Y-108725000D01*
X130200023Y-108725001D01*
X130097303Y-108735494D01*
X129930878Y-108790642D01*
X129781656Y-108882683D01*
X129657683Y-109006656D01*
X129565642Y-109155878D01*
X129510494Y-109322302D01*
X129500000Y-109425024D01*
X129500000Y-109602931D01*
X129482687Y-109650497D01*
X129438850Y-109675807D01*
X129389000Y-109667017D01*
X129356463Y-109628240D01*
X129354243Y-109621012D01*
X129337063Y-109552833D01*
X129294809Y-109385145D01*
X129294075Y-109381927D01*
X129294075Y-109381926D01*
X129117403Y-108519068D01*
X129116825Y-108515880D01*
X128979042Y-107645955D01*
X128978599Y-107642681D01*
X128976641Y-107625304D01*
X128879986Y-106767471D01*
X128879691Y-106764179D01*
X128878511Y-106746674D01*
X128820445Y-105885440D01*
X128820299Y-105882186D01*
X128800537Y-105001648D01*
X128800537Y-104998340D01*
X128800771Y-104987915D01*
X128820299Y-104117811D01*
X128820445Y-104114561D01*
X128879692Y-103235801D01*
X128879988Y-103232513D01*
X128881482Y-103219257D01*
X128978602Y-102357294D01*
X128979041Y-102354050D01*
X129116826Y-101484111D01*
X129117402Y-101480939D01*
X129294081Y-100618042D01*
X129294807Y-100614864D01*
X129354244Y-100378981D01*
X129382653Y-100337090D01*
X129431346Y-100323258D01*
X129477537Y-100343962D01*
X129499614Y-100389513D01*
X129500000Y-100397065D01*
X129500000Y-100574970D01*
X129500001Y-100574976D01*
X129510494Y-100677696D01*
X129565642Y-100844121D01*
X129657683Y-100993343D01*
X129657686Y-100993347D01*
X129781653Y-101117314D01*
X129781656Y-101117316D01*
X129930878Y-101209357D01*
X130097302Y-101264505D01*
X130200025Y-101274999D01*
X130500000Y-101274999D01*
X130500000Y-100125000D01*
X131000000Y-100125000D01*
X131000000Y-101274999D01*
X131299971Y-101274999D01*
X131299976Y-101274998D01*
X131402696Y-101264505D01*
X131569121Y-101209357D01*
X131718343Y-101117316D01*
X131718347Y-101117314D01*
X131842314Y-100993347D01*
X131842316Y-100993343D01*
X131934357Y-100844121D01*
X131989505Y-100677697D01*
X131999999Y-100574975D01*
X132000000Y-100574973D01*
X132000000Y-100125000D01*
X133155001Y-100125000D01*
X133155001Y-100574976D01*
X133165494Y-100677696D01*
X133220642Y-100844121D01*
X133312683Y-100993343D01*
X133312686Y-100993347D01*
X133436653Y-101117314D01*
X133436656Y-101117316D01*
X133585879Y-101209358D01*
X133727895Y-101256417D01*
X133767602Y-101287813D01*
X133777838Y-101337386D01*
X133753814Y-101381941D01*
X133726636Y-101397310D01*
X133695605Y-101406980D01*
X133550125Y-101494925D01*
X133429925Y-101615125D01*
X133341979Y-101760606D01*
X133291410Y-101922890D01*
X133291408Y-101922900D01*
X133285000Y-101993417D01*
X133285000Y-102000000D01*
X134135000Y-102000000D01*
X134135000Y-101350000D01*
X134124126Y-101339126D01*
X134106434Y-101332687D01*
X134081124Y-101288850D01*
X134080000Y-101276000D01*
X134080000Y-100125000D01*
X133155001Y-100125000D01*
X132000000Y-100125000D01*
X131000000Y-100125000D01*
X130500000Y-100125000D01*
X130500000Y-98475000D01*
X131000000Y-98475000D01*
X131000000Y-99625000D01*
X131999999Y-99625000D01*
X133155000Y-99625000D01*
X134080000Y-99625000D01*
X134080000Y-98475000D01*
X133855029Y-98475000D01*
X133855023Y-98475001D01*
X133752303Y-98485494D01*
X133585878Y-98540642D01*
X133436656Y-98632683D01*
X133312683Y-98756656D01*
X133220642Y-98905878D01*
X133165494Y-99072302D01*
X133155000Y-99175024D01*
X133155000Y-99625000D01*
X131999999Y-99625000D01*
X131999999Y-99175029D01*
X131999998Y-99175023D01*
X131989505Y-99072303D01*
X131934357Y-98905878D01*
X131842316Y-98756656D01*
X131842314Y-98756653D01*
X131718347Y-98632686D01*
X131718343Y-98632683D01*
X131569121Y-98540642D01*
X131402697Y-98485494D01*
X131299975Y-98475000D01*
X131000000Y-98475000D01*
X130500000Y-98475000D01*
X130200029Y-98475000D01*
X130200023Y-98475001D01*
X130097301Y-98485494D01*
X130032867Y-98506846D01*
X129982270Y-98505374D01*
X129944456Y-98471723D01*
X129937120Y-98421638D01*
X129939739Y-98412177D01*
X130056102Y-98079631D01*
X130057235Y-98076609D01*
X130385172Y-97259074D01*
X130386436Y-97256119D01*
X130750693Y-96454182D01*
X130752110Y-96451242D01*
X130752703Y-96450080D01*
X131151954Y-95666504D01*
X131153510Y-95663610D01*
X131588188Y-94897550D01*
X131589854Y-94894762D01*
X132058451Y-94148994D01*
X132060272Y-94146236D01*
X132561847Y-93422255D01*
X132563762Y-93419621D01*
X132582144Y-93395478D01*
X132624731Y-93368123D01*
X132674941Y-93374542D01*
G37*
%TD.AperFunction*%
%TA.AperFunction,Conductor*%
G36*
X138202834Y-113015536D02*
G01*
X138227658Y-113034361D01*
X138368436Y-113089877D01*
X138439764Y-113098442D01*
X138456896Y-113100500D01*
X138456898Y-113100500D01*
X138843104Y-113100500D01*
X138860235Y-113098442D01*
X138931564Y-113089877D01*
X138990537Y-113066620D01*
X139041132Y-113065275D01*
X139055349Y-113071766D01*
X139191936Y-113152544D01*
X139224066Y-113191659D01*
X139223535Y-113242276D01*
X139211864Y-113261651D01*
X139212060Y-113261786D01*
X139209886Y-113264934D01*
X139209669Y-113265296D01*
X139209524Y-113265458D01*
X139119779Y-113395478D01*
X139119778Y-113395478D01*
X139063764Y-113543177D01*
X139063761Y-113543191D01*
X139044722Y-113699996D01*
X139044722Y-113700003D01*
X139063761Y-113856808D01*
X139063764Y-113856822D01*
X139119778Y-114004521D01*
X139206414Y-114130035D01*
X139209517Y-114134530D01*
X139327760Y-114239283D01*
X139367789Y-114260292D01*
X139469933Y-114313903D01*
X139504005Y-114351338D01*
X139508854Y-114389501D01*
X139501862Y-114440379D01*
X139508391Y-114487883D01*
X139497716Y-114537364D01*
X139457733Y-114568406D01*
X139407151Y-114566486D01*
X139406563Y-114566244D01*
X139393924Y-114560965D01*
X139393920Y-114560964D01*
X139220921Y-114532531D01*
X139046015Y-114544761D01*
X138950466Y-114574583D01*
X138899902Y-114572228D01*
X138862681Y-114537922D01*
X138855635Y-114490585D01*
X138859314Y-114470543D01*
X138847849Y-114306589D01*
X138795970Y-114150637D01*
X138785590Y-114134530D01*
X138706941Y-114012489D01*
X138706935Y-114012481D01*
X138681018Y-113986108D01*
X138681012Y-113986102D01*
X138185641Y-113555481D01*
X138185633Y-113555475D01*
X138155898Y-113533472D01*
X138006696Y-113464532D01*
X138006691Y-113464531D01*
X137845048Y-113434863D01*
X137845041Y-113434862D01*
X137681090Y-113446328D01*
X137525136Y-113498207D01*
X137386990Y-113587235D01*
X137386982Y-113587241D01*
X137360619Y-113613149D01*
X137360602Y-113613166D01*
X137346058Y-113629897D01*
X137302786Y-113654270D01*
X137289984Y-113656477D01*
X137279047Y-113658363D01*
X137266475Y-113659439D01*
X136721392Y-113659439D01*
X136673826Y-113642126D01*
X136652816Y-113606815D01*
X136650999Y-113607441D01*
X136649419Y-113602855D01*
X136578926Y-113461469D01*
X136578925Y-113461467D01*
X136549305Y-113427988D01*
X136530753Y-113380891D01*
X136546815Y-113332888D01*
X136589975Y-113306440D01*
X136625372Y-113307891D01*
X136676373Y-113322709D01*
X136711837Y-113325500D01*
X137288162Y-113325499D01*
X137323627Y-113322709D01*
X137475390Y-113278618D01*
X137611420Y-113198170D01*
X137723170Y-113086420D01*
X137752497Y-113036831D01*
X137791612Y-113004701D01*
X137816192Y-113000500D01*
X138158121Y-113000500D01*
X138202834Y-113015536D01*
G37*
%TD.AperFunction*%
%TA.AperFunction,Conductor*%
G36*
X141343180Y-109047706D02*
G01*
X141349735Y-109050900D01*
X141401895Y-109079576D01*
X141401901Y-109079578D01*
X141558527Y-109119792D01*
X141560659Y-109120062D01*
X141561739Y-109120617D01*
X141563035Y-109120950D01*
X141562959Y-109121244D01*
X141605680Y-109143200D01*
X141619258Y-109163996D01*
X141654053Y-109244103D01*
X141708087Y-109312885D01*
X141708092Y-109312891D01*
X141965931Y-109570730D01*
X141965935Y-109570733D01*
X141965936Y-109570734D01*
X142034716Y-109624766D01*
X142034718Y-109624766D01*
X142034722Y-109624770D01*
X142171001Y-109683964D01*
X142318198Y-109704196D01*
X142465394Y-109683964D01*
X142601674Y-109624770D01*
X142670464Y-109570730D01*
X142804609Y-109436585D01*
X142850485Y-109415193D01*
X142856935Y-109414911D01*
X143739008Y-109414911D01*
X143786574Y-109432224D01*
X143791334Y-109436585D01*
X145216437Y-110861688D01*
X145237829Y-110907564D01*
X145234490Y-110936879D01*
X145226708Y-110960831D01*
X145226708Y-111087697D01*
X145261287Y-111194121D01*
X145265912Y-111208354D01*
X145265914Y-111208358D01*
X145321720Y-111285168D01*
X145321724Y-111285173D01*
X146214827Y-112178274D01*
X146291646Y-112234088D01*
X146412303Y-112273292D01*
X146539168Y-112273292D01*
X146539169Y-112273292D01*
X146659826Y-112234088D01*
X146736645Y-112178276D01*
X146757087Y-112157834D01*
X146802963Y-112136442D01*
X146809413Y-112136160D01*
X147017693Y-112136160D01*
X147033423Y-112137851D01*
X147039053Y-112139075D01*
X147042507Y-112139827D01*
X147091129Y-112136349D01*
X147096409Y-112136160D01*
X147110785Y-112136160D01*
X147110789Y-112136160D01*
X147110794Y-112136159D01*
X147110797Y-112136159D01*
X147125031Y-112134112D01*
X147130245Y-112133550D01*
X147178893Y-112130071D01*
X147187597Y-112126824D01*
X147202920Y-112122913D01*
X147212120Y-112121591D01*
X147256474Y-112101334D01*
X147261315Y-112099328D01*
X147307004Y-112082289D01*
X147314446Y-112076717D01*
X147328073Y-112068636D01*
X147328703Y-112068348D01*
X147379162Y-112064365D01*
X147418112Y-112090631D01*
X147421764Y-112095390D01*
X147886695Y-111630460D01*
X147932571Y-111609068D01*
X147981466Y-111622169D01*
X147991341Y-111630455D01*
X148058625Y-111697738D01*
X148169538Y-111808651D01*
X148190930Y-111854527D01*
X148177829Y-111903422D01*
X148169538Y-111913303D01*
X147704608Y-112378233D01*
X147749925Y-112413007D01*
X147749927Y-112413008D01*
X147895882Y-112473465D01*
X148052512Y-112494085D01*
X148186265Y-112476477D01*
X148235684Y-112487433D01*
X148265771Y-112525403D01*
X148275583Y-112553444D01*
X148274037Y-112553984D01*
X148278469Y-112598263D01*
X148249955Y-112640087D01*
X148206757Y-112654005D01*
X144480340Y-112654005D01*
X144432774Y-112636692D01*
X144407464Y-112592855D01*
X144406973Y-112589664D01*
X144401688Y-112549523D01*
X144386254Y-112432288D01*
X144327005Y-112289250D01*
X144272704Y-112218483D01*
X144256423Y-112197265D01*
X144256420Y-112197261D01*
X143936748Y-111877589D01*
X143936744Y-111877586D01*
X143844760Y-111807005D01*
X143701721Y-111747755D01*
X143548223Y-111727547D01*
X143394726Y-111747755D01*
X143394725Y-111747755D01*
X143251686Y-111807005D01*
X143159702Y-111877586D01*
X143159689Y-111877597D01*
X143143663Y-111893623D01*
X143097786Y-111915015D01*
X143048893Y-111901912D01*
X143032163Y-111885727D01*
X143012846Y-111860000D01*
X142450000Y-111860000D01*
X142450000Y-112379929D01*
X142475102Y-112377955D01*
X142523880Y-112391483D01*
X142552551Y-112433199D01*
X142547699Y-112483585D01*
X142533234Y-112504053D01*
X142182866Y-112854420D01*
X142136989Y-112875812D01*
X142088095Y-112862711D01*
X142081470Y-112857484D01*
X141972241Y-112760718D01*
X141972239Y-112760716D01*
X141832366Y-112687304D01*
X141739210Y-112664343D01*
X141678985Y-112649500D01*
X141678984Y-112649500D01*
X141674639Y-112648429D01*
X141674923Y-112647274D01*
X141636261Y-112628448D01*
X141272174Y-112264360D01*
X141250782Y-112218483D01*
X141250500Y-112212034D01*
X141250500Y-111909583D01*
X141267813Y-111862017D01*
X141311650Y-111836707D01*
X141361500Y-111845497D01*
X141394037Y-111884274D01*
X141395562Y-111888938D01*
X141427594Y-111999193D01*
X141509264Y-112137289D01*
X141622710Y-112250735D01*
X141760806Y-112332405D01*
X141914874Y-112377166D01*
X141914871Y-112377166D01*
X141950000Y-112379930D01*
X141950000Y-111434000D01*
X141967313Y-111386434D01*
X142011150Y-111361124D01*
X142024000Y-111360000D01*
X143012845Y-111360000D01*
X143012845Y-111359999D01*
X142972405Y-111220806D01*
X142890735Y-111082710D01*
X142874019Y-111065994D01*
X142852627Y-111020118D01*
X142857504Y-110986521D01*
X142860415Y-110979140D01*
X142910166Y-110852979D01*
X142920500Y-110766927D01*
X142920499Y-110413074D01*
X142911652Y-110339396D01*
X142910167Y-110327028D01*
X142910166Y-110327023D01*
X142910166Y-110327021D01*
X142856163Y-110190078D01*
X142767216Y-110072784D01*
X142741837Y-110053538D01*
X142649921Y-109983836D01*
X142574161Y-109953961D01*
X142512979Y-109929834D01*
X142450626Y-109922346D01*
X142426928Y-109919500D01*
X141973071Y-109919500D01*
X141973069Y-109919501D01*
X141887028Y-109929832D01*
X141887023Y-109929833D01*
X141750078Y-109983836D01*
X141696503Y-110024464D01*
X141651790Y-110039500D01*
X141636177Y-110039500D01*
X141588611Y-110022187D01*
X141583851Y-110017826D01*
X141272174Y-109706149D01*
X141250782Y-109660273D01*
X141250500Y-109653823D01*
X141250500Y-109206896D01*
X141245348Y-109163996D01*
X141240613Y-109124568D01*
X141252130Y-109075278D01*
X141292637Y-109044922D01*
X141343180Y-109047706D01*
G37*
%TD.AperFunction*%
%TA.AperFunction,Conductor*%
G36*
X149538071Y-108084512D02*
G01*
X149538086Y-108084411D01*
X149540405Y-108084744D01*
X149542664Y-108084969D01*
X149543325Y-108085163D01*
X149543330Y-108085165D01*
X149553426Y-108086616D01*
X149568747Y-108090526D01*
X149578304Y-108094091D01*
X149629635Y-108097762D01*
X149634854Y-108098324D01*
X149642196Y-108099379D01*
X149649988Y-108100500D01*
X149665271Y-108100500D01*
X149670549Y-108100688D01*
X149721860Y-108104359D01*
X149731826Y-108102191D01*
X149747556Y-108100500D01*
X150962034Y-108100500D01*
X151009600Y-108117813D01*
X151014360Y-108122174D01*
X151305363Y-108413177D01*
X151326755Y-108459053D01*
X151313654Y-108507948D01*
X151272190Y-108536982D01*
X151232392Y-108536565D01*
X151185126Y-108522833D01*
X151185129Y-108522833D01*
X151150000Y-108520068D01*
X151150000Y-109466000D01*
X151132687Y-109513566D01*
X151088850Y-109538876D01*
X151076000Y-109540000D01*
X150653000Y-109540000D01*
X150644674Y-109548326D01*
X150598798Y-109569718D01*
X150592348Y-109570000D01*
X149038467Y-109570000D01*
X148990901Y-109552687D01*
X148986141Y-109548326D01*
X148968674Y-109530859D01*
X148947282Y-109484983D01*
X148947000Y-109478533D01*
X148947000Y-109450000D01*
X148918467Y-109450000D01*
X148870901Y-109432687D01*
X148866141Y-109428326D01*
X148832173Y-109394358D01*
X148810781Y-109348482D01*
X148810499Y-109342032D01*
X148810499Y-109102126D01*
X148808075Y-109079576D01*
X148804895Y-109050000D01*
X149020000Y-109050000D01*
X149550000Y-109050000D01*
X149550000Y-109040000D01*
X150050000Y-109040000D01*
X150650000Y-109040000D01*
X150650000Y-108520068D01*
X150614873Y-108522833D01*
X150460805Y-108567594D01*
X150460804Y-108567595D01*
X150363943Y-108624877D01*
X150314188Y-108634188D01*
X150288606Y-108624877D01*
X150226196Y-108587968D01*
X150070914Y-108542855D01*
X150070917Y-108542855D01*
X150050000Y-108541209D01*
X150050000Y-109040000D01*
X149550000Y-109040000D01*
X149550000Y-108541209D01*
X149529083Y-108542855D01*
X149373803Y-108587968D01*
X149317980Y-108620982D01*
X149268224Y-108630293D01*
X149251993Y-108625654D01*
X149106630Y-108565443D01*
X149020000Y-108554037D01*
X149020000Y-109050000D01*
X148804895Y-109050000D01*
X148804091Y-109042517D01*
X148803152Y-109040000D01*
X148753797Y-108907670D01*
X148753796Y-108907669D01*
X148718919Y-108861079D01*
X148670259Y-108796078D01*
X148655500Y-108751733D01*
X148655500Y-108308604D01*
X148672813Y-108261038D01*
X148716650Y-108235728D01*
X148766500Y-108244518D01*
X148767261Y-108244963D01*
X148802581Y-108265919D01*
X148802580Y-108265919D01*
X148811524Y-108269623D01*
X148811532Y-108269630D01*
X148811533Y-108269628D01*
X148837003Y-108280179D01*
X148837009Y-108280181D01*
X148940648Y-108310613D01*
X148940645Y-108310613D01*
X149084332Y-108315743D01*
X149084336Y-108315742D01*
X149223645Y-108280183D01*
X149258091Y-108265914D01*
X149352870Y-108214159D01*
X149352871Y-108214158D01*
X149403191Y-108167307D01*
X149407768Y-108165368D01*
X149440472Y-108132661D01*
X149442380Y-108130820D01*
X149458098Y-108116187D01*
X149460385Y-108113349D01*
X149465686Y-108107446D01*
X149469487Y-108103645D01*
X149515363Y-108082253D01*
X149538071Y-108084512D01*
G37*
%TD.AperFunction*%
%TA.AperFunction,Conductor*%
G36*
X142062902Y-102657813D02*
G01*
X142088212Y-102701650D01*
X142079422Y-102751500D01*
X142067662Y-102766826D01*
X142001961Y-102832527D01*
X141978320Y-102860204D01*
X141900421Y-103001901D01*
X141860206Y-103158530D01*
X141859936Y-103160670D01*
X141859379Y-103161753D01*
X141859050Y-103163035D01*
X141858758Y-103162960D01*
X141836792Y-103205688D01*
X141816004Y-103219257D01*
X141760925Y-103243182D01*
X141735900Y-103254052D01*
X141735899Y-103254052D01*
X141735896Y-103254054D01*
X141735895Y-103254054D01*
X141667114Y-103308087D01*
X141667105Y-103308095D01*
X141409273Y-103565927D01*
X141409265Y-103565936D01*
X141355233Y-103634716D01*
X141355230Y-103634720D01*
X141355230Y-103634722D01*
X141299447Y-103763148D01*
X141296035Y-103771004D01*
X141278069Y-103901721D01*
X141275804Y-103918198D01*
X141276183Y-103920954D01*
X141296035Y-104065392D01*
X141355227Y-104201669D01*
X141355231Y-104201676D01*
X141407579Y-104268312D01*
X141409270Y-104270464D01*
X141709536Y-104570730D01*
X141709540Y-104570733D01*
X141709541Y-104570734D01*
X141778323Y-104624768D01*
X141778330Y-104624772D01*
X141798277Y-104633436D01*
X141914606Y-104683964D01*
X142061802Y-104704196D01*
X142103951Y-104698402D01*
X142153431Y-104709076D01*
X142184474Y-104749059D01*
X142188027Y-104771713D01*
X142188027Y-104908562D01*
X142192669Y-104926643D01*
X142187729Y-104977020D01*
X142151563Y-105012436D01*
X142131526Y-105018292D01*
X142090783Y-105024150D01*
X141959997Y-105083878D01*
X141959996Y-105083878D01*
X141913363Y-105121457D01*
X141913362Y-105121458D01*
X141844187Y-105190634D01*
X143399822Y-106746269D01*
X143468995Y-106677095D01*
X143469489Y-106676483D01*
X143469613Y-106676407D01*
X143470322Y-106675619D01*
X143470562Y-106675834D01*
X143512812Y-106650304D01*
X143562764Y-106658062D01*
X143601902Y-106679578D01*
X143601901Y-106679578D01*
X143758527Y-106719792D01*
X143760659Y-106720062D01*
X143761739Y-106720617D01*
X143763035Y-106720950D01*
X143762959Y-106721244D01*
X143805680Y-106743200D01*
X143819258Y-106763996D01*
X143854053Y-106844103D01*
X143908087Y-106912885D01*
X143908095Y-106912894D01*
X144042237Y-107047036D01*
X144063629Y-107092912D01*
X144063911Y-107099362D01*
X144063911Y-107643499D01*
X144062220Y-107659228D01*
X144060244Y-107668308D01*
X144060244Y-107668314D01*
X144063722Y-107716934D01*
X144063911Y-107722214D01*
X144063911Y-108180326D01*
X144062220Y-108196055D01*
X144060244Y-108205135D01*
X144060244Y-108205141D01*
X144063722Y-108253761D01*
X144063911Y-108259041D01*
X144063911Y-108273424D01*
X144065957Y-108287660D01*
X144066521Y-108292906D01*
X144069999Y-108341523D01*
X144069999Y-108341524D01*
X144073245Y-108350227D01*
X144077156Y-108365549D01*
X144079172Y-108379564D01*
X144068808Y-108429111D01*
X144029021Y-108460404D01*
X144003272Y-108463590D01*
X144003272Y-108463911D01*
X144000686Y-108463911D01*
X144000670Y-108463913D01*
X144000642Y-108463911D01*
X144000630Y-108463911D01*
X143986250Y-108463911D01*
X143980970Y-108463722D01*
X143932352Y-108460244D01*
X143932344Y-108460244D01*
X143923264Y-108462220D01*
X143907534Y-108463911D01*
X142899362Y-108463911D01*
X142851796Y-108446598D01*
X142847036Y-108442237D01*
X142712894Y-108308095D01*
X142712885Y-108308087D01*
X142644104Y-108254054D01*
X142644101Y-108254052D01*
X142563996Y-108219257D01*
X142527265Y-108184427D01*
X142520062Y-108160659D01*
X142519792Y-108158527D01*
X142479578Y-108001902D01*
X142401678Y-107860202D01*
X142401674Y-107860196D01*
X142392765Y-107849766D01*
X142375037Y-107802353D01*
X142391933Y-107754637D01*
X142396708Y-107749380D01*
X142409871Y-107736216D01*
X141808832Y-107135177D01*
X141348781Y-107595228D01*
X141961816Y-108208263D01*
X141983208Y-108254139D01*
X141970107Y-108303034D01*
X141961816Y-108312915D01*
X141712915Y-108561816D01*
X141667039Y-108583208D01*
X141618144Y-108570107D01*
X141608263Y-108561816D01*
X140995228Y-107948781D01*
X140984429Y-107948781D01*
X140958787Y-107960738D01*
X140952337Y-107961020D01*
X140887399Y-107961020D01*
X140841599Y-108044329D01*
X140801386Y-108200950D01*
X140801386Y-108362653D01*
X140841599Y-108519276D01*
X140885206Y-108598596D01*
X140892950Y-108648619D01*
X140866728Y-108691917D01*
X140818809Y-108708230D01*
X140811537Y-108707718D01*
X140788961Y-108705007D01*
X140743104Y-108699500D01*
X140743102Y-108699500D01*
X140589332Y-108699500D01*
X140541766Y-108682187D01*
X140516456Y-108638350D01*
X140520141Y-108599260D01*
X140524423Y-108587968D01*
X140536237Y-108556818D01*
X140551451Y-108431518D01*
X140555278Y-108400003D01*
X140555278Y-108399996D01*
X140537557Y-108254052D01*
X140536237Y-108243182D01*
X140510237Y-108174626D01*
X140480221Y-108095478D01*
X140390483Y-107965470D01*
X140344890Y-107925079D01*
X140272240Y-107860717D01*
X140232381Y-107839797D01*
X140132366Y-107787304D01*
X139978987Y-107749500D01*
X139978985Y-107749500D01*
X139821015Y-107749500D01*
X139821012Y-107749500D01*
X139667633Y-107787304D01*
X139527761Y-107860716D01*
X139409516Y-107965470D01*
X139319779Y-108095477D01*
X139263764Y-108243179D01*
X139263761Y-108243190D01*
X139255110Y-108314434D01*
X139237590Y-108353956D01*
X139235199Y-108356717D01*
X139231587Y-108360598D01*
X139220776Y-108371409D01*
X139211617Y-108383644D01*
X139208306Y-108387753D01*
X139174623Y-108426626D01*
X139174622Y-108426628D01*
X139170387Y-108435901D01*
X139162319Y-108449499D01*
X139156204Y-108457668D01*
X139138224Y-108505872D01*
X139136204Y-108510748D01*
X139114836Y-108557539D01*
X139114834Y-108557549D01*
X139113382Y-108567643D01*
X139109473Y-108582959D01*
X139105908Y-108592518D01*
X139105908Y-108592520D01*
X139102238Y-108643823D01*
X139101675Y-108649069D01*
X139099952Y-108661060D01*
X139099500Y-108664204D01*
X139099500Y-108667620D01*
X139082187Y-108715186D01*
X139038350Y-108740496D01*
X138998353Y-108736461D01*
X138931564Y-108710123D01*
X138843104Y-108699500D01*
X138843102Y-108699500D01*
X138456898Y-108699500D01*
X138456895Y-108699500D01*
X138411035Y-108705007D01*
X138361744Y-108693489D01*
X138349886Y-108683861D01*
X137646674Y-107980649D01*
X137625282Y-107934773D01*
X137625000Y-107928323D01*
X137625000Y-107250000D01*
X138125000Y-107250000D01*
X138125000Y-107974999D01*
X138148307Y-107974999D01*
X138148312Y-107974998D01*
X138247608Y-107964855D01*
X138408482Y-107911547D01*
X138552731Y-107822573D01*
X138672573Y-107702731D01*
X138761547Y-107558482D01*
X138814855Y-107397608D01*
X138824999Y-107298311D01*
X138825000Y-107298309D01*
X138825000Y-107250000D01*
X138125000Y-107250000D01*
X137625000Y-107250000D01*
X137625000Y-106056000D01*
X137636283Y-106025000D01*
X138125000Y-106025000D01*
X138125000Y-106750000D01*
X138824999Y-106750000D01*
X138824999Y-106701693D01*
X138824998Y-106701687D01*
X138814855Y-106602391D01*
X138803953Y-106569492D01*
X140667294Y-106569492D01*
X140687754Y-106711803D01*
X140687754Y-106711805D01*
X140747480Y-106842588D01*
X140747482Y-106842591D01*
X140785061Y-106889224D01*
X141066370Y-107170533D01*
X141455279Y-106781624D01*
X140854238Y-106180583D01*
X140785062Y-106249758D01*
X140785061Y-106249759D01*
X140747482Y-106296392D01*
X140747480Y-106296395D01*
X140687754Y-106427178D01*
X140687754Y-106427180D01*
X140667294Y-106569492D01*
X138803953Y-106569492D01*
X138761547Y-106441517D01*
X138672573Y-106297268D01*
X138552731Y-106177426D01*
X138408482Y-106088452D01*
X138247608Y-106035144D01*
X138148311Y-106025000D01*
X138125000Y-106025000D01*
X137636283Y-106025000D01*
X137642313Y-106008434D01*
X137686150Y-105983124D01*
X137699000Y-105982000D01*
X137807089Y-105982000D01*
X137832406Y-105939191D01*
X137864992Y-105827030D01*
X141207791Y-105827030D01*
X142763424Y-107382663D01*
X142832601Y-107313489D01*
X142832602Y-107313488D01*
X142870181Y-107266855D01*
X142877613Y-107250582D01*
X142913121Y-107214506D01*
X142914186Y-107214009D01*
X142930459Y-107206577D01*
X142977092Y-107168998D01*
X142977093Y-107168997D01*
X143046269Y-107099822D01*
X141490634Y-105544187D01*
X141421458Y-105613362D01*
X141421455Y-105613366D01*
X141383882Y-105659990D01*
X141383876Y-105660000D01*
X141376444Y-105676273D01*
X141340934Y-105712347D01*
X141339877Y-105712840D01*
X141323604Y-105720272D01*
X141323594Y-105720278D01*
X141276970Y-105757851D01*
X141276966Y-105757854D01*
X141207791Y-105827030D01*
X137864992Y-105827030D01*
X137877166Y-105785126D01*
X137879931Y-105750000D01*
X136934000Y-105750000D01*
X136886434Y-105732687D01*
X136861124Y-105688850D01*
X136860000Y-105676000D01*
X136860000Y-104750000D01*
X137360000Y-104750000D01*
X137360000Y-105250000D01*
X137879930Y-105250000D01*
X137877166Y-105214873D01*
X137832405Y-105060804D01*
X137818723Y-105037670D01*
X137809410Y-104987915D01*
X137818723Y-104962330D01*
X137832405Y-104939195D01*
X137877166Y-104785126D01*
X137879931Y-104750000D01*
X137360000Y-104750000D01*
X136860000Y-104750000D01*
X136860000Y-104324000D01*
X136877313Y-104276434D01*
X136921150Y-104251124D01*
X136934000Y-104250000D01*
X137879930Y-104250000D01*
X137877166Y-104214873D01*
X137832405Y-104060806D01*
X137774071Y-103962169D01*
X137764760Y-103912414D01*
X137789608Y-103868314D01*
X137836991Y-103850504D01*
X137837766Y-103850500D01*
X139429336Y-103850500D01*
X139431862Y-103850543D01*
X139496822Y-103852762D01*
X139496822Y-103852761D01*
X139496826Y-103852762D01*
X139533451Y-103843836D01*
X139539229Y-103842428D01*
X139546676Y-103841013D01*
X139555217Y-103839839D01*
X139589920Y-103835070D01*
X139589921Y-103835069D01*
X139589923Y-103835069D01*
X139605182Y-103828440D01*
X139610297Y-103826217D01*
X139622263Y-103822194D01*
X139643845Y-103816935D01*
X139643847Y-103816934D01*
X139643852Y-103816933D01*
X139643855Y-103816930D01*
X139643858Y-103816930D01*
X139681901Y-103795539D01*
X139688685Y-103792169D01*
X139728720Y-103774780D01*
X139745953Y-103760758D01*
X139756380Y-103753661D01*
X139775759Y-103742766D01*
X139806625Y-103711898D01*
X139812239Y-103706831D01*
X139846108Y-103679278D01*
X139858926Y-103661117D01*
X139867046Y-103651477D01*
X140766351Y-102752173D01*
X140812228Y-102730781D01*
X140818677Y-102730499D01*
X140882872Y-102730499D01*
X140942483Y-102724091D01*
X141046847Y-102685166D01*
X141072707Y-102680500D01*
X141719336Y-102680500D01*
X141721862Y-102680543D01*
X141786822Y-102682762D01*
X141786822Y-102682761D01*
X141786826Y-102682762D01*
X141823336Y-102673863D01*
X141829229Y-102672428D01*
X141836676Y-102671013D01*
X141845217Y-102669839D01*
X141879920Y-102665070D01*
X141879921Y-102665069D01*
X141879923Y-102665069D01*
X141888930Y-102661155D01*
X141900297Y-102656217D01*
X141912263Y-102652194D01*
X141933848Y-102646934D01*
X141933848Y-102646933D01*
X141933852Y-102646933D01*
X141933855Y-102646931D01*
X141937083Y-102645659D01*
X141964229Y-102640500D01*
X142015336Y-102640500D01*
X142062902Y-102657813D01*
G37*
%TD.AperFunction*%
%TA.AperFunction,Conductor*%
G36*
X145125911Y-107234276D02*
G01*
X145141237Y-107246036D01*
X145287109Y-107391908D01*
X145287113Y-107391911D01*
X145287114Y-107391912D01*
X145355898Y-107445947D01*
X145355897Y-107445947D01*
X145436002Y-107480741D01*
X145472733Y-107515571D01*
X145479936Y-107539331D01*
X145480206Y-107541468D01*
X145520421Y-107698097D01*
X145598321Y-107839797D01*
X145621955Y-107867468D01*
X145802662Y-108048174D01*
X145824054Y-108094050D01*
X145810953Y-108142944D01*
X145769489Y-108171978D01*
X145750336Y-108174500D01*
X145714438Y-108174500D01*
X145666872Y-108157187D01*
X145662112Y-108152826D01*
X145036585Y-107527299D01*
X145015193Y-107481423D01*
X145014911Y-107474973D01*
X145014911Y-107298362D01*
X145032224Y-107250796D01*
X145076061Y-107225486D01*
X145125911Y-107234276D01*
G37*
%TD.AperFunction*%
%TA.AperFunction,Conductor*%
G36*
X149382185Y-85320299D02*
G01*
X149385440Y-85320445D01*
X150264194Y-85379692D01*
X150267471Y-85379986D01*
X151142699Y-85478601D01*
X151145955Y-85479042D01*
X152015880Y-85616825D01*
X152019068Y-85617403D01*
X152881947Y-85794079D01*
X152885145Y-85794809D01*
X153468653Y-85941840D01*
X153739173Y-86010006D01*
X153742374Y-86010889D01*
X154005208Y-86089814D01*
X154585922Y-86264194D01*
X154589038Y-86265207D01*
X155420353Y-86556096D01*
X155423405Y-86557241D01*
X156240909Y-86885166D01*
X156243896Y-86886443D01*
X157045799Y-87250685D01*
X157048757Y-87252110D01*
X157833495Y-87651954D01*
X157836408Y-87653520D01*
X158602429Y-88088176D01*
X158605257Y-88089866D01*
X158915820Y-88285006D01*
X159350991Y-88558442D01*
X159353763Y-88560272D01*
X159706196Y-88804438D01*
X160075864Y-89060545D01*
X160077718Y-89061829D01*
X160080399Y-89063778D01*
X160781122Y-89597310D01*
X160783677Y-89599347D01*
X161459806Y-90163819D01*
X161462271Y-90165972D01*
X162043952Y-90697652D01*
X162112367Y-90760186D01*
X162114767Y-90762481D01*
X162737518Y-91385232D01*
X162739813Y-91387632D01*
X163334024Y-92037725D01*
X163336183Y-92040196D01*
X163900648Y-92716316D01*
X163902694Y-92718883D01*
X164290203Y-93227824D01*
X164436218Y-93419595D01*
X164438170Y-93422281D01*
X164939727Y-94146236D01*
X164941557Y-94149008D01*
X165410126Y-94894731D01*
X165411829Y-94897581D01*
X165846472Y-95663579D01*
X165848045Y-95666504D01*
X166247889Y-96451242D01*
X166249322Y-96454219D01*
X166597548Y-97220860D01*
X166613541Y-97256070D01*
X166614842Y-97259112D01*
X166941802Y-98074211D01*
X166942747Y-98076566D01*
X166943911Y-98079671D01*
X166975059Y-98168684D01*
X167234785Y-98910940D01*
X167235812Y-98914099D01*
X167489110Y-99757625D01*
X167489993Y-99760826D01*
X167705185Y-100614835D01*
X167705924Y-100618072D01*
X167806781Y-101110656D01*
X167799361Y-101160729D01*
X167761492Y-101194317D01*
X167734285Y-101199500D01*
X166818480Y-101199500D01*
X166724695Y-101214353D01*
X166724693Y-101214354D01*
X166611657Y-101271950D01*
X166552326Y-101331282D01*
X166506450Y-101352674D01*
X166457555Y-101339573D01*
X166447674Y-101331282D01*
X166388343Y-101271951D01*
X166388342Y-101271950D01*
X166275304Y-101214354D01*
X166275302Y-101214353D01*
X166275301Y-101214353D01*
X166181519Y-101199500D01*
X165118480Y-101199500D01*
X165024695Y-101214353D01*
X165024693Y-101214354D01*
X164911657Y-101271950D01*
X164821951Y-101361656D01*
X164764353Y-101474698D01*
X164749500Y-101568480D01*
X164749500Y-103181519D01*
X164764353Y-103275304D01*
X164764354Y-103275306D01*
X164810138Y-103365160D01*
X164821950Y-103388342D01*
X164911658Y-103478050D01*
X164962770Y-103504093D01*
X165024693Y-103535645D01*
X165024696Y-103535646D01*
X165037073Y-103537606D01*
X165081346Y-103562144D01*
X165099489Y-103609400D01*
X165099500Y-103610695D01*
X165099500Y-106389304D01*
X165082187Y-106436870D01*
X165038350Y-106462180D01*
X165037077Y-106462393D01*
X165024694Y-106464354D01*
X165024693Y-106464354D01*
X164911657Y-106521950D01*
X164821951Y-106611656D01*
X164764353Y-106724698D01*
X164750539Y-106811916D01*
X164725998Y-106856188D01*
X164678741Y-106874328D01*
X164630880Y-106857847D01*
X164625124Y-106852665D01*
X163278003Y-105505544D01*
X163268077Y-105493225D01*
X163263055Y-105485411D01*
X163263053Y-105485409D01*
X163263052Y-105485407D01*
X163226216Y-105453490D01*
X163222349Y-105449890D01*
X163212182Y-105439723D01*
X163212180Y-105439721D01*
X163200658Y-105431096D01*
X163196555Y-105427789D01*
X163159718Y-105395870D01*
X163151264Y-105392008D01*
X163137669Y-105383942D01*
X163130226Y-105378371D01*
X163130225Y-105378370D01*
X163084565Y-105361340D01*
X163079687Y-105359319D01*
X163035349Y-105339071D01*
X163035343Y-105339069D01*
X163035342Y-105339069D01*
X163035339Y-105339068D01*
X163035337Y-105339068D01*
X163026138Y-105337745D01*
X163010816Y-105333834D01*
X163002112Y-105330588D01*
X162953495Y-105327110D01*
X162948249Y-105326546D01*
X162934013Y-105324500D01*
X162934011Y-105324500D01*
X162919631Y-105324500D01*
X162914351Y-105324311D01*
X162865733Y-105320833D01*
X162865725Y-105320833D01*
X162856645Y-105322809D01*
X162840915Y-105324500D01*
X159972301Y-105324500D01*
X159924735Y-105307187D01*
X159923230Y-105305890D01*
X159872240Y-105260717D01*
X159758129Y-105200826D01*
X159732366Y-105187304D01*
X159578987Y-105149500D01*
X159578985Y-105149500D01*
X159421015Y-105149500D01*
X159421012Y-105149500D01*
X159267633Y-105187304D01*
X159127761Y-105260716D01*
X159127760Y-105260717D01*
X159080229Y-105302826D01*
X159076770Y-105305890D01*
X159029685Y-105324473D01*
X159027699Y-105324500D01*
X158327610Y-105324500D01*
X158280044Y-105307187D01*
X158275284Y-105302826D01*
X157794451Y-104821992D01*
X157773059Y-104776115D01*
X157786160Y-104727221D01*
X157797707Y-104714276D01*
X157831382Y-104684443D01*
X157831382Y-104684442D01*
X157831384Y-104684441D01*
X157921121Y-104554434D01*
X157934448Y-104519295D01*
X157942918Y-104496960D01*
X157975972Y-104458623D01*
X157994396Y-104451351D01*
X158117211Y-104421081D01*
X158257086Y-104347668D01*
X158375329Y-104242915D01*
X158465066Y-104112908D01*
X158506390Y-104003943D01*
X158539442Y-103965611D01*
X158557868Y-103958338D01*
X158626943Y-103941314D01*
X158766818Y-103867901D01*
X158885061Y-103763148D01*
X158974798Y-103633141D01*
X159030815Y-103485436D01*
X159030967Y-103484180D01*
X159031272Y-103483578D01*
X159031885Y-103481094D01*
X159032462Y-103481236D01*
X159053884Y-103439047D01*
X159086720Y-103421246D01*
X159121410Y-103412696D01*
X159137994Y-103403992D01*
X159261285Y-103339283D01*
X159379528Y-103234530D01*
X159469265Y-103104523D01*
X159525282Y-102956818D01*
X159529144Y-102925001D01*
X159552063Y-102879870D01*
X159578631Y-102865476D01*
X159578179Y-102864284D01*
X159582362Y-102862696D01*
X159582365Y-102862696D01*
X159722240Y-102789283D01*
X159840483Y-102684530D01*
X159930220Y-102554523D01*
X159935172Y-102541467D01*
X159971623Y-102445351D01*
X159986237Y-102406818D01*
X159997904Y-102310733D01*
X160005278Y-102250003D01*
X160005278Y-102249996D01*
X159986238Y-102093191D01*
X159986237Y-102093182D01*
X159973425Y-102059399D01*
X159930221Y-101945478D01*
X159840483Y-101815470D01*
X159824962Y-101801720D01*
X159722240Y-101710717D01*
X159697477Y-101697720D01*
X159686623Y-101692023D01*
X159652552Y-101654587D01*
X159650515Y-101604009D01*
X159662824Y-101580785D01*
X159711474Y-101518858D01*
X159769084Y-101386226D01*
X159773876Y-101351360D01*
X159794858Y-101309112D01*
X159936693Y-101167277D01*
X159996131Y-101085469D01*
X160037880Y-100956980D01*
X160037880Y-100821878D01*
X160035134Y-100813428D01*
X160024314Y-100780128D01*
X159996131Y-100693389D01*
X159936695Y-100611581D01*
X159845114Y-100520000D01*
X159577438Y-100252325D01*
X159574325Y-100245648D01*
X160607904Y-100245648D01*
X160741313Y-100318989D01*
X160741312Y-100318989D01*
X160897936Y-100359203D01*
X161059638Y-100359203D01*
X161216259Y-100318989D01*
X161357962Y-100241087D01*
X161373911Y-100227465D01*
X161373911Y-100227464D01*
X161000000Y-99853553D01*
X160607904Y-100245648D01*
X159574325Y-100245648D01*
X159556046Y-100206449D01*
X159569147Y-100157554D01*
X159577432Y-100147679D01*
X159948554Y-99776558D01*
X160005453Y-99698246D01*
X160016140Y-99665353D01*
X160047303Y-99625466D01*
X160096815Y-99614941D01*
X160141510Y-99638704D01*
X160158193Y-99669818D01*
X160181010Y-99758687D01*
X160181011Y-99758690D01*
X160254350Y-99892094D01*
X160947673Y-99198772D01*
X160993549Y-99177380D01*
X161042444Y-99190481D01*
X161052325Y-99198772D01*
X161727463Y-99873910D01*
X161727464Y-99873910D01*
X161741089Y-99857960D01*
X161818989Y-99716259D01*
X161818990Y-99716258D01*
X161846835Y-99607806D01*
X161875432Y-99566039D01*
X161899917Y-99556531D01*
X161899432Y-99554721D01*
X161904114Y-99553466D01*
X162050072Y-99493008D01*
X162050079Y-99493004D01*
X162095390Y-99458235D01*
X162095390Y-99458233D01*
X161630460Y-98993303D01*
X161609068Y-98947427D01*
X161622169Y-98898532D01*
X161630445Y-98888668D01*
X161712839Y-98806274D01*
X162009117Y-98806274D01*
X162378233Y-99175390D01*
X162378235Y-99175390D01*
X162413004Y-99130079D01*
X162413008Y-99130072D01*
X162473465Y-98984117D01*
X162473465Y-98984116D01*
X162494085Y-98827487D01*
X162473465Y-98670857D01*
X162473465Y-98670856D01*
X162413006Y-98524898D01*
X162359814Y-98455576D01*
X162009117Y-98806274D01*
X161712839Y-98806274D01*
X161824117Y-98694995D01*
X161861738Y-98648312D01*
X161921526Y-98517396D01*
X161942007Y-98374939D01*
X161942007Y-98374938D01*
X161942007Y-98374935D01*
X161938826Y-98352816D01*
X161949191Y-98303270D01*
X161959746Y-98289957D01*
X162076969Y-98172734D01*
X162007647Y-98119540D01*
X162007645Y-98119539D01*
X161861691Y-98059082D01*
X161848160Y-98057301D01*
X161805495Y-98036260D01*
X161572569Y-97803336D01*
X161572561Y-97803329D01*
X161525890Y-97765716D01*
X161525886Y-97765714D01*
X161394970Y-97705926D01*
X161394965Y-97705925D01*
X161252513Y-97685445D01*
X161110060Y-97705925D01*
X161110058Y-97705925D01*
X161110056Y-97705926D01*
X161056072Y-97730580D01*
X160979141Y-97765713D01*
X160979140Y-97765713D01*
X160932458Y-97803331D01*
X160932457Y-97803332D01*
X160882569Y-97853221D01*
X160836693Y-97874613D01*
X160824965Y-97874707D01*
X160822903Y-97874559D01*
X160822901Y-97874559D01*
X160822898Y-97874559D01*
X160822896Y-97874559D01*
X160774279Y-97878037D01*
X160768999Y-97878226D01*
X160754619Y-97878226D01*
X160740374Y-97880273D01*
X160735133Y-97880836D01*
X160686519Y-97884314D01*
X160686512Y-97884315D01*
X160677803Y-97887563D01*
X160662485Y-97891472D01*
X160653291Y-97892794D01*
X160653286Y-97892795D01*
X160608952Y-97913042D01*
X160604073Y-97915063D01*
X160558403Y-97932097D01*
X160550960Y-97937668D01*
X160537372Y-97945731D01*
X160528915Y-97949594D01*
X160528908Y-97949599D01*
X160492080Y-97981509D01*
X160487977Y-97984816D01*
X160476446Y-97993449D01*
X160466274Y-98003621D01*
X160462412Y-98007217D01*
X160422329Y-98041949D01*
X160375043Y-98060014D01*
X160363795Y-98059334D01*
X160342393Y-98056393D01*
X160342392Y-98056393D01*
X160342391Y-98056393D01*
X160326145Y-98058626D01*
X160195195Y-98076624D01*
X160153980Y-98094526D01*
X160103455Y-98097596D01*
X160062776Y-98067471D01*
X160050500Y-98026652D01*
X160050500Y-96610663D01*
X160050543Y-96608137D01*
X160052762Y-96543177D01*
X160052761Y-96543176D01*
X160052762Y-96543174D01*
X160042424Y-96500754D01*
X160041014Y-96493332D01*
X160035995Y-96456808D01*
X160035071Y-96450084D01*
X160035070Y-96450082D01*
X160035070Y-96450080D01*
X160026213Y-96429692D01*
X160022193Y-96417738D01*
X160016933Y-96396148D01*
X160016931Y-96396145D01*
X160016930Y-96396141D01*
X159995539Y-96358099D01*
X159992173Y-96351322D01*
X159974780Y-96311280D01*
X159960751Y-96294038D01*
X159953653Y-96283607D01*
X159946344Y-96270607D01*
X159942765Y-96264241D01*
X159911901Y-96233377D01*
X159906833Y-96227762D01*
X159879278Y-96193892D01*
X159879276Y-96193890D01*
X159879274Y-96193888D01*
X159861118Y-96181072D01*
X159851467Y-96172943D01*
X157795897Y-94117373D01*
X155736800Y-92058275D01*
X155735044Y-92056458D01*
X155719870Y-92040211D01*
X155690680Y-92008956D01*
X155690679Y-92008955D01*
X155690678Y-92008954D01*
X155690677Y-92008953D01*
X155653385Y-91986275D01*
X155647122Y-91982013D01*
X155625193Y-91965384D01*
X155612342Y-91955639D01*
X155591666Y-91947485D01*
X155580371Y-91941875D01*
X155561380Y-91930327D01*
X155561378Y-91930326D01*
X155519344Y-91918548D01*
X155512165Y-91916134D01*
X155471567Y-91900124D01*
X155449452Y-91897850D01*
X155437060Y-91895494D01*
X155415666Y-91889500D01*
X155415665Y-91889500D01*
X155372018Y-91889500D01*
X155364450Y-91889112D01*
X155321030Y-91884648D01*
X155321027Y-91884648D01*
X155299128Y-91888424D01*
X155286555Y-91889500D01*
X153321252Y-91889500D01*
X153273686Y-91872187D01*
X153248376Y-91828350D01*
X153250190Y-91794856D01*
X153257144Y-91770918D01*
X153257144Y-91770917D01*
X153258791Y-91750000D01*
X152730000Y-91750000D01*
X152730000Y-91815500D01*
X152712687Y-91863066D01*
X152668850Y-91888376D01*
X152656000Y-91889500D01*
X152371830Y-91889500D01*
X152324264Y-91872187D01*
X152319504Y-91867826D01*
X152251674Y-91799996D01*
X152230282Y-91754120D01*
X152230000Y-91747670D01*
X152230000Y-91250000D01*
X152730000Y-91250000D01*
X153258789Y-91250000D01*
X153258790Y-91249998D01*
X153257145Y-91229089D01*
X153257145Y-91229087D01*
X153212031Y-91073803D01*
X153177203Y-91014912D01*
X153167892Y-90965157D01*
X153178787Y-90940236D01*
X153177349Y-90939386D01*
X153262031Y-90796196D01*
X153304505Y-90650000D01*
X152750000Y-90650000D01*
X152750000Y-91172348D01*
X152732687Y-91219914D01*
X152730000Y-91222846D01*
X152730000Y-91250000D01*
X152230000Y-91250000D01*
X152230000Y-90697652D01*
X152247313Y-90650086D01*
X152250000Y-90647153D01*
X152250000Y-90224000D01*
X152267313Y-90176434D01*
X152311150Y-90151124D01*
X152324000Y-90150000D01*
X153304505Y-90150000D01*
X153304505Y-90149999D01*
X153262031Y-90003803D01*
X153179717Y-89864618D01*
X153178399Y-89862919D01*
X153178027Y-89861760D01*
X153177349Y-89860614D01*
X153177609Y-89860459D01*
X153162926Y-89814723D01*
X153168030Y-89790419D01*
X153200070Y-89709174D01*
X153210500Y-89622320D01*
X153210500Y-89257680D01*
X153200070Y-89170826D01*
X153145562Y-89032605D01*
X153055785Y-88914215D01*
X153029410Y-88894214D01*
X152937394Y-88824437D01*
X152846350Y-88788534D01*
X152799174Y-88769930D01*
X152770222Y-88766453D01*
X152712322Y-88759500D01*
X152712320Y-88759500D01*
X152287680Y-88759500D01*
X152287678Y-88759500D01*
X152200826Y-88769930D01*
X152062605Y-88824437D01*
X152023009Y-88854464D01*
X151978296Y-88869500D01*
X151948078Y-88869500D01*
X151903365Y-88854464D01*
X151837394Y-88804437D01*
X151749890Y-88769930D01*
X151699174Y-88749930D01*
X151670222Y-88746453D01*
X151612322Y-88739500D01*
X151612320Y-88739500D01*
X151187680Y-88739500D01*
X151187678Y-88739500D01*
X151100826Y-88749930D01*
X150962605Y-88804437D01*
X150896635Y-88854464D01*
X150851922Y-88869500D01*
X150848078Y-88869500D01*
X150803365Y-88854464D01*
X150737394Y-88804437D01*
X150599170Y-88749928D01*
X150594577Y-88748768D01*
X150594970Y-88747210D01*
X150557531Y-88729007D01*
X150205576Y-88377051D01*
X150188660Y-88347051D01*
X150187825Y-88347368D01*
X150130220Y-88195477D01*
X150040483Y-88065470D01*
X150032261Y-88058186D01*
X149922240Y-87960717D01*
X149883248Y-87940252D01*
X149782366Y-87887304D01*
X149628987Y-87849500D01*
X149628985Y-87849500D01*
X149471015Y-87849500D01*
X149471012Y-87849500D01*
X149317633Y-87887304D01*
X149177761Y-87960716D01*
X149059516Y-88065470D01*
X148969779Y-88195478D01*
X148969778Y-88195478D01*
X148913764Y-88343177D01*
X148913761Y-88343191D01*
X148894722Y-88499996D01*
X148894722Y-88500003D01*
X148913761Y-88656808D01*
X148913764Y-88656822D01*
X148969778Y-88804521D01*
X149054661Y-88927495D01*
X149059517Y-88934530D01*
X149177760Y-89039283D01*
X149317635Y-89112696D01*
X149317633Y-89112696D01*
X149385903Y-89129522D01*
X149420521Y-89149046D01*
X149567826Y-89296350D01*
X149589218Y-89342226D01*
X149589500Y-89348676D01*
X149589500Y-89602320D01*
X149589500Y-89602322D01*
X149589499Y-89602322D01*
X149595589Y-89653029D01*
X149599930Y-89689174D01*
X149615018Y-89727433D01*
X149645417Y-89804521D01*
X149654438Y-89827395D01*
X149665150Y-89841521D01*
X149675589Y-89855288D01*
X149690534Y-89903651D01*
X149675589Y-89944712D01*
X149654437Y-89972606D01*
X149599930Y-90110826D01*
X149592080Y-90176198D01*
X149589500Y-90197680D01*
X149589500Y-90562320D01*
X149589500Y-90562322D01*
X149589499Y-90562322D01*
X149596808Y-90623175D01*
X149599930Y-90649174D01*
X149621425Y-90703681D01*
X149654437Y-90787394D01*
X149663722Y-90799638D01*
X149734464Y-90892927D01*
X149749500Y-90937638D01*
X149749500Y-91088000D01*
X149732187Y-91135566D01*
X149688350Y-91160876D01*
X149675500Y-91162000D01*
X149456214Y-91162000D01*
X149421105Y-91164763D01*
X149270859Y-91208413D01*
X149136191Y-91288056D01*
X149025556Y-91398691D01*
X148945913Y-91533359D01*
X148902263Y-91683604D01*
X148902263Y-91683607D01*
X148899500Y-91718713D01*
X148899500Y-92281285D01*
X148902263Y-92316394D01*
X148945913Y-92466640D01*
X149025556Y-92601308D01*
X149136191Y-92711943D01*
X149248850Y-92778570D01*
X149270861Y-92791587D01*
X149421108Y-92835237D01*
X149456213Y-92838000D01*
X150343786Y-92837999D01*
X150378892Y-92835237D01*
X150397165Y-92829928D01*
X150447672Y-92833281D01*
X150470138Y-92848663D01*
X150797826Y-93176351D01*
X150819218Y-93222227D01*
X150819500Y-93228676D01*
X150819500Y-93312320D01*
X150819500Y-93312322D01*
X150819499Y-93312322D01*
X150828982Y-93391283D01*
X150817464Y-93440574D01*
X150776957Y-93470930D01*
X150726415Y-93468146D01*
X150703184Y-93452432D01*
X150663808Y-93413056D01*
X150529140Y-93333413D01*
X150378894Y-93289763D01*
X150355488Y-93287921D01*
X150343787Y-93287000D01*
X150343786Y-93287000D01*
X149456214Y-93287000D01*
X149421105Y-93289763D01*
X149270859Y-93333413D01*
X149136191Y-93413056D01*
X149025556Y-93523691D01*
X148945913Y-93658359D01*
X148902263Y-93808604D01*
X148902263Y-93808607D01*
X148899500Y-93843713D01*
X148899500Y-94406285D01*
X148902263Y-94441394D01*
X148945913Y-94591640D01*
X149021187Y-94718920D01*
X149025557Y-94726309D01*
X149136191Y-94836943D01*
X149187958Y-94867558D01*
X149214302Y-94883138D01*
X149246432Y-94922253D01*
X149250094Y-94955752D01*
X149244454Y-95002207D01*
X149221534Y-95047340D01*
X149174966Y-95067181D01*
X149170993Y-95067288D01*
X148329006Y-95067288D01*
X148281440Y-95049975D01*
X148256130Y-95006138D01*
X148255546Y-95002208D01*
X148249905Y-94955752D01*
X148247073Y-94932427D01*
X148258525Y-94883122D01*
X148282862Y-94859814D01*
X148363809Y-94811943D01*
X148474443Y-94701309D01*
X148554087Y-94566639D01*
X148597737Y-94416392D01*
X148600500Y-94381287D01*
X148600499Y-93818714D01*
X148597737Y-93783608D01*
X148554087Y-93633361D01*
X148490709Y-93526196D01*
X148474443Y-93498691D01*
X148363808Y-93388056D01*
X148229140Y-93308413D01*
X148078894Y-93264763D01*
X148055488Y-93262921D01*
X148043787Y-93262000D01*
X148043786Y-93262000D01*
X147156214Y-93262000D01*
X147121105Y-93264763D01*
X146970859Y-93308413D01*
X146872169Y-93366779D01*
X146822414Y-93376090D01*
X146778314Y-93351241D01*
X146760504Y-93303859D01*
X146760500Y-93303084D01*
X146760500Y-93228676D01*
X146777813Y-93181110D01*
X146782174Y-93176350D01*
X146950711Y-93007813D01*
X147123851Y-92834672D01*
X147169726Y-92813281D01*
X147176153Y-92812999D01*
X148043786Y-92812999D01*
X148078892Y-92810237D01*
X148229139Y-92766587D01*
X148363809Y-92686943D01*
X148474443Y-92576309D01*
X148554087Y-92441639D01*
X148597737Y-92291392D01*
X148600500Y-92256287D01*
X148600499Y-91693714D01*
X148597737Y-91658608D01*
X148554087Y-91508361D01*
X148474443Y-91373691D01*
X148363809Y-91263057D01*
X148363808Y-91263056D01*
X148258583Y-91200826D01*
X148229139Y-91183413D01*
X148229138Y-91183412D01*
X148229137Y-91183412D01*
X148229137Y-91183411D01*
X148203854Y-91176066D01*
X148163007Y-91146170D01*
X148150500Y-91105005D01*
X148150500Y-90690664D01*
X148150543Y-90688138D01*
X148152762Y-90623177D01*
X148152761Y-90623176D01*
X148152762Y-90623174D01*
X148142424Y-90580754D01*
X148141014Y-90573332D01*
X148135070Y-90530080D01*
X148126213Y-90509692D01*
X148122193Y-90497738D01*
X148116933Y-90476148D01*
X148116931Y-90476145D01*
X148116930Y-90476141D01*
X148095539Y-90438099D01*
X148092173Y-90431322D01*
X148074780Y-90391280D01*
X148060751Y-90374038D01*
X148053653Y-90363607D01*
X148042765Y-90344241D01*
X148042762Y-90344238D01*
X148032172Y-90333647D01*
X148010781Y-90287770D01*
X148010500Y-90281323D01*
X148010500Y-90197677D01*
X148004774Y-90149999D01*
X148000070Y-90110826D01*
X147945562Y-89972605D01*
X147924410Y-89944712D01*
X147909464Y-89896352D01*
X147924410Y-89855287D01*
X147945562Y-89827395D01*
X148000070Y-89689174D01*
X148010500Y-89602320D01*
X148010500Y-89237680D01*
X148000070Y-89150826D01*
X147945562Y-89012605D01*
X147900852Y-88953645D01*
X147865536Y-88907073D01*
X147850500Y-88862360D01*
X147850500Y-87383675D01*
X147867813Y-87336109D01*
X147872163Y-87331360D01*
X148704478Y-86499044D01*
X148739092Y-86479522D01*
X148807365Y-86462696D01*
X148947240Y-86389283D01*
X149065483Y-86284530D01*
X149155220Y-86154523D01*
X149211237Y-86006818D01*
X149230278Y-85850000D01*
X149223577Y-85794814D01*
X149211238Y-85693191D01*
X149211237Y-85693182D01*
X149182276Y-85616818D01*
X149155221Y-85545478D01*
X149109186Y-85478785D01*
X149076098Y-85430849D01*
X149063327Y-85381870D01*
X149085026Y-85336138D01*
X149131045Y-85315054D01*
X149138651Y-85314833D01*
X149382185Y-85320299D01*
G37*
%TD.AperFunction*%
%TA.AperFunction,Conductor*%
G36*
X155307474Y-105012503D02*
G01*
X155342891Y-105048669D01*
X155349500Y-105079239D01*
X155349500Y-105247872D01*
X155355909Y-105307485D01*
X155406202Y-105442329D01*
X155406203Y-105442330D01*
X155425903Y-105468646D01*
X155492454Y-105557546D01*
X155594268Y-105633764D01*
X155607669Y-105643796D01*
X155607670Y-105643797D01*
X155642174Y-105656666D01*
X155680691Y-105689509D01*
X155689086Y-105739427D01*
X155663429Y-105783063D01*
X155616314Y-105800000D01*
X155552171Y-105800000D01*
X155492624Y-105806402D01*
X155492619Y-105806403D01*
X155357912Y-105856645D01*
X155357911Y-105856646D01*
X155242810Y-105942811D01*
X155193977Y-106008042D01*
X155151611Y-106035745D01*
X155101350Y-106029734D01*
X155082412Y-106016020D01*
X155034224Y-105967832D01*
X155035795Y-105966260D01*
X155012566Y-105931832D01*
X155015524Y-105886773D01*
X155050070Y-105799174D01*
X155060500Y-105712320D01*
X155060500Y-105287680D01*
X155060064Y-105284052D01*
X155055720Y-105247873D01*
X155050070Y-105200826D01*
X155044844Y-105187575D01*
X155025757Y-105139173D01*
X155024412Y-105088572D01*
X155055908Y-105048945D01*
X155094597Y-105038025D01*
X155138460Y-105038025D01*
X155257097Y-105007564D01*
X155307474Y-105012503D01*
G37*
%TD.AperFunction*%
%TA.AperFunction,Conductor*%
G36*
X146565706Y-100067813D02*
G01*
X146591016Y-100111650D01*
X146589815Y-100142901D01*
X146589793Y-100142989D01*
X146586633Y-100155296D01*
X146586633Y-100213132D01*
X146569320Y-100260698D01*
X146525483Y-100286008D01*
X146512633Y-100287132D01*
X146349574Y-100287132D01*
X146184664Y-100326216D01*
X146184656Y-100326219D01*
X146033209Y-100402278D01*
X146033205Y-100402281D01*
X145955842Y-100465301D01*
X145955821Y-100465320D01*
X145939339Y-100481801D01*
X146451992Y-100994455D01*
X146753218Y-101295681D01*
X146774610Y-101341557D01*
X146761509Y-101390452D01*
X146753218Y-101400333D01*
X145957017Y-102196534D01*
X145957017Y-102196535D01*
X145971727Y-102211245D01*
X145993119Y-102257121D01*
X145980018Y-102306016D01*
X145968472Y-102318961D01*
X145859517Y-102415486D01*
X145769779Y-102545493D01*
X145713764Y-102693195D01*
X145713761Y-102693205D01*
X145711105Y-102715079D01*
X145688184Y-102760211D01*
X145655355Y-102778006D01*
X145617635Y-102787303D01*
X145617632Y-102787304D01*
X145477761Y-102860716D01*
X145359516Y-102965470D01*
X145269779Y-103095477D01*
X145216040Y-103237176D01*
X145182985Y-103275512D01*
X145164560Y-103282784D01*
X145115911Y-103294775D01*
X145083897Y-103311577D01*
X145033733Y-103318351D01*
X144997183Y-103298378D01*
X144904206Y-103205401D01*
X144623986Y-102925182D01*
X144597209Y-102902312D01*
X144460103Y-102826936D01*
X144460100Y-102826935D01*
X144308566Y-102788028D01*
X144308563Y-102788027D01*
X144308561Y-102788027D01*
X144152100Y-102788027D01*
X144152096Y-102788027D01*
X144152095Y-102788028D01*
X144135805Y-102792210D01*
X144085428Y-102787268D01*
X144065079Y-102772860D01*
X143172697Y-101880478D01*
X143151305Y-101834602D01*
X143164406Y-101785707D01*
X143172697Y-101775826D01*
X143533452Y-101415071D01*
X145391116Y-101415071D01*
X145430200Y-101579980D01*
X145430203Y-101579988D01*
X145506262Y-101731434D01*
X145569294Y-101808812D01*
X145569303Y-101808822D01*
X145603464Y-101842981D01*
X146098438Y-101348007D01*
X145585786Y-100835355D01*
X145569295Y-100851848D01*
X145506265Y-100929221D01*
X145506262Y-100929226D01*
X145430203Y-101080672D01*
X145430200Y-101080680D01*
X145391116Y-101245589D01*
X145391116Y-101415071D01*
X143533452Y-101415071D01*
X144876349Y-100072174D01*
X144922225Y-100050782D01*
X144928675Y-100050500D01*
X146518140Y-100050500D01*
X146565706Y-100067813D01*
G37*
%TD.AperFunction*%
%TA.AperFunction,Conductor*%
G36*
X153226476Y-102143588D02*
G01*
X153254848Y-102185508D01*
X153249636Y-102235858D01*
X153235400Y-102255849D01*
X152971174Y-102520075D01*
X152925298Y-102541467D01*
X152876403Y-102528366D01*
X152866522Y-102520075D01*
X152738184Y-102391737D01*
X152716792Y-102345861D01*
X152729893Y-102296966D01*
X152738184Y-102287085D01*
X152867506Y-102157763D01*
X152913382Y-102136371D01*
X152919832Y-102136089D01*
X153012560Y-102136089D01*
X153028290Y-102137780D01*
X153033920Y-102139004D01*
X153037374Y-102139756D01*
X153085996Y-102136278D01*
X153091276Y-102136089D01*
X153105652Y-102136089D01*
X153105656Y-102136089D01*
X153105661Y-102136088D01*
X153105664Y-102136088D01*
X153119898Y-102134041D01*
X153125112Y-102133479D01*
X153173760Y-102130000D01*
X153173761Y-102129999D01*
X153177796Y-102129711D01*
X153226476Y-102143588D01*
G37*
%TD.AperFunction*%
%TA.AperFunction,Conductor*%
G36*
X148932862Y-97667813D02*
G01*
X148958172Y-97711650D01*
X148958751Y-97715546D01*
X148962370Y-97745351D01*
X148963763Y-97756821D01*
X149019779Y-97904522D01*
X149094597Y-98012914D01*
X149109517Y-98034530D01*
X149227760Y-98139283D01*
X149305799Y-98180241D01*
X149323733Y-98193438D01*
X149340252Y-98209957D01*
X149361644Y-98255833D01*
X149361173Y-98272810D01*
X149357993Y-98294935D01*
X149357993Y-98294938D01*
X149357993Y-98294939D01*
X149358396Y-98297739D01*
X149375816Y-98418913D01*
X149378474Y-98437396D01*
X149432591Y-98555894D01*
X149438261Y-98568310D01*
X149438261Y-98568311D01*
X149475879Y-98614993D01*
X149475880Y-98614994D01*
X149685003Y-98824115D01*
X149685008Y-98824120D01*
X149713014Y-98846689D01*
X149731688Y-98861738D01*
X149862604Y-98921526D01*
X150005061Y-98942007D01*
X150005063Y-98942007D01*
X150010835Y-98941176D01*
X150027183Y-98938826D01*
X150076727Y-98949191D01*
X150090041Y-98959746D01*
X150357687Y-99227392D01*
X150379079Y-99273268D01*
X150379361Y-99279718D01*
X150379361Y-99283452D01*
X150400277Y-99304368D01*
X150421669Y-99350244D01*
X150421762Y-99351412D01*
X150424311Y-99387032D01*
X150424500Y-99392314D01*
X150424500Y-99406697D01*
X150426546Y-99420933D01*
X150427110Y-99426179D01*
X150430588Y-99474796D01*
X150430588Y-99474797D01*
X150433834Y-99483500D01*
X150437745Y-99498822D01*
X150439068Y-99508021D01*
X150439071Y-99508033D01*
X150459319Y-99552371D01*
X150461340Y-99557249D01*
X150478370Y-99602909D01*
X150478371Y-99602910D01*
X150483942Y-99610353D01*
X150492008Y-99623948D01*
X150492702Y-99625466D01*
X150495870Y-99632402D01*
X150495870Y-99632403D01*
X150527789Y-99669239D01*
X150531096Y-99673342D01*
X150539721Y-99684864D01*
X150539723Y-99684866D01*
X150549890Y-99695033D01*
X150553490Y-99698900D01*
X150585407Y-99735736D01*
X150585409Y-99735737D01*
X150585411Y-99735739D01*
X150593225Y-99740761D01*
X150605544Y-99750687D01*
X151024311Y-100169454D01*
X151034237Y-100181772D01*
X151039257Y-100189583D01*
X151039261Y-100189589D01*
X151039263Y-100189590D01*
X151039264Y-100189592D01*
X151076098Y-100221508D01*
X151079965Y-100225108D01*
X151090137Y-100235280D01*
X151101646Y-100243895D01*
X151105761Y-100247211D01*
X151142598Y-100279130D01*
X151150682Y-100282822D01*
X151186758Y-100318329D01*
X151191570Y-100368719D01*
X151172268Y-100402461D01*
X151012914Y-100561815D01*
X150967038Y-100583207D01*
X150918143Y-100570106D01*
X150908262Y-100561815D01*
X150200000Y-99853553D01*
X149847266Y-100206285D01*
X149863220Y-100219912D01*
X149999564Y-100294868D01*
X150032906Y-100332955D01*
X150033966Y-100383563D01*
X150008963Y-100418423D01*
X150004608Y-100421764D01*
X150004608Y-100421765D01*
X150469538Y-100886695D01*
X150490930Y-100932571D01*
X150477829Y-100981466D01*
X150469538Y-100991347D01*
X150291348Y-101169539D01*
X150245472Y-101190931D01*
X150196578Y-101177830D01*
X150186696Y-101169539D01*
X149721765Y-100704608D01*
X149721764Y-100704608D01*
X149686993Y-100749923D01*
X149635414Y-100874444D01*
X149601216Y-100911764D01*
X149551030Y-100918371D01*
X149508339Y-100891173D01*
X149506146Y-100888162D01*
X149505133Y-100886695D01*
X149490483Y-100865470D01*
X149372240Y-100760717D01*
X149331232Y-100739194D01*
X149232366Y-100687304D01*
X149078987Y-100649500D01*
X149078985Y-100649500D01*
X148921015Y-100649500D01*
X148921012Y-100649500D01*
X148767633Y-100687304D01*
X148627761Y-100760716D01*
X148509516Y-100865470D01*
X148419779Y-100995478D01*
X148419778Y-100995478D01*
X148363764Y-101143177D01*
X148363761Y-101143191D01*
X148344722Y-101299996D01*
X148344722Y-101300003D01*
X148363761Y-101456808D01*
X148363764Y-101456822D01*
X148419778Y-101604521D01*
X148425678Y-101613068D01*
X148486401Y-101701040D01*
X148499500Y-101743076D01*
X148499500Y-101949299D01*
X148482187Y-101996865D01*
X148438350Y-102022175D01*
X148388500Y-102013385D01*
X148373174Y-102001625D01*
X148289862Y-101918313D01*
X148285917Y-101914045D01*
X148267465Y-101892439D01*
X148267462Y-101892437D01*
X148159300Y-101826151D01*
X148159291Y-101826146D01*
X148133152Y-101815318D01*
X148095833Y-101781119D01*
X148088013Y-101755876D01*
X148076428Y-101660458D01*
X148076427Y-101660456D01*
X148076427Y-101660454D01*
X148020411Y-101512753D01*
X147998418Y-101480891D01*
X147930674Y-101382746D01*
X147930672Y-101382744D01*
X147930672Y-101382743D01*
X147837272Y-101300000D01*
X147813039Y-101278532D01*
X147788916Y-101234033D01*
X147799040Y-101184436D01*
X147826457Y-101158297D01*
X147936268Y-101097929D01*
X147963318Y-101074826D01*
X148370841Y-100667302D01*
X148393945Y-100640252D01*
X148470081Y-100501762D01*
X148509383Y-100348689D01*
X148509383Y-100190650D01*
X148509111Y-100189592D01*
X148492527Y-100125000D01*
X148470081Y-100037577D01*
X148393945Y-99899088D01*
X148370842Y-99872037D01*
X148138415Y-99639610D01*
X148117023Y-99593734D01*
X148130124Y-99544839D01*
X148151367Y-99524629D01*
X148302262Y-99429816D01*
X148353845Y-99378233D01*
X149204608Y-99378233D01*
X149249925Y-99413007D01*
X149249930Y-99413010D01*
X149316293Y-99440498D01*
X149353614Y-99474695D01*
X149361975Y-99508865D01*
X149361975Y-99538460D01*
X149402188Y-99695081D01*
X149480088Y-99836780D01*
X149493711Y-99852733D01*
X149955527Y-99390918D01*
X149573726Y-99009117D01*
X149204608Y-99378233D01*
X148353845Y-99378233D01*
X148429816Y-99302262D01*
X148525789Y-99149522D01*
X148526001Y-99148918D01*
X148569284Y-99025220D01*
X148585368Y-98979255D01*
X148605565Y-98800000D01*
X148599648Y-98747487D01*
X148805914Y-98747487D01*
X148826534Y-98904116D01*
X148826534Y-98904117D01*
X148886993Y-99050076D01*
X148921764Y-99095390D01*
X149290882Y-98726273D01*
X148940185Y-98375577D01*
X148886993Y-98444898D01*
X148826534Y-98590856D01*
X148826534Y-98590857D01*
X148805914Y-98747487D01*
X148599648Y-98747487D01*
X148585368Y-98620745D01*
X148574910Y-98590857D01*
X148525790Y-98450479D01*
X148490120Y-98393712D01*
X148429816Y-98297738D01*
X148302262Y-98170184D01*
X148253083Y-98139283D01*
X148149520Y-98074209D01*
X147979263Y-98014634D01*
X147979256Y-98014632D01*
X147979255Y-98014632D01*
X147800000Y-97994435D01*
X147620745Y-98014632D01*
X147620736Y-98014634D01*
X147450479Y-98074209D01*
X147297739Y-98170183D01*
X147170183Y-98297739D01*
X147074209Y-98450479D01*
X147014634Y-98620736D01*
X147014632Y-98620745D01*
X146994435Y-98800000D01*
X147003184Y-98877662D01*
X146991305Y-98926867D01*
X146950576Y-98956925D01*
X146922079Y-98959558D01*
X146905470Y-98957850D01*
X146893076Y-98955494D01*
X146871682Y-98949500D01*
X146871681Y-98949500D01*
X146828034Y-98949500D01*
X146820466Y-98949112D01*
X146777046Y-98944648D01*
X146777043Y-98944648D01*
X146755144Y-98948424D01*
X146742571Y-98949500D01*
X144680663Y-98949500D01*
X144678137Y-98949457D01*
X144613174Y-98947237D01*
X144570773Y-98957570D01*
X144563334Y-98958984D01*
X144520079Y-98964930D01*
X144520077Y-98964930D01*
X144520076Y-98964931D01*
X144499691Y-98973785D01*
X144487736Y-98977805D01*
X144466148Y-98983066D01*
X144466145Y-98983067D01*
X144428094Y-99004461D01*
X144421314Y-99007828D01*
X144381279Y-99025219D01*
X144364040Y-99039244D01*
X144353612Y-99046341D01*
X144334244Y-99057232D01*
X144334233Y-99057240D01*
X144303374Y-99088098D01*
X144297752Y-99093172D01*
X144263894Y-99120718D01*
X144263888Y-99120724D01*
X144251071Y-99138881D01*
X144242944Y-99148529D01*
X142776179Y-100615293D01*
X142730302Y-100636685D01*
X142681408Y-100623584D01*
X142660158Y-100600636D01*
X142579719Y-100464622D01*
X142465377Y-100350280D01*
X142326196Y-100267968D01*
X142170914Y-100222855D01*
X142170917Y-100222855D01*
X142150000Y-100221209D01*
X142150000Y-101176000D01*
X142132687Y-101223566D01*
X142088850Y-101248876D01*
X142076000Y-101250000D01*
X141724000Y-101250000D01*
X141676434Y-101232687D01*
X141651124Y-101188850D01*
X141650000Y-101176000D01*
X141650000Y-100221209D01*
X141629083Y-100222855D01*
X141473804Y-100267968D01*
X141334621Y-100350281D01*
X141304264Y-100380638D01*
X141258387Y-100402030D01*
X141209493Y-100388928D01*
X141196318Y-100376165D01*
X141196288Y-100376196D01*
X141194365Y-100374273D01*
X141192702Y-100372662D01*
X141192547Y-100372455D01*
X141192546Y-100372454D01*
X141077330Y-100286203D01*
X141077329Y-100286202D01*
X140942487Y-100235910D01*
X140942484Y-100235909D01*
X140942483Y-100235909D01*
X140882873Y-100229500D01*
X140337127Y-100229500D01*
X140277515Y-100235909D01*
X140275917Y-100236287D01*
X140275003Y-100236179D01*
X140272915Y-100236404D01*
X140272863Y-100235927D01*
X140225645Y-100230371D01*
X140190937Y-100193525D01*
X140188033Y-100142989D01*
X140206580Y-100111944D01*
X142646351Y-97672174D01*
X142692227Y-97650782D01*
X142698677Y-97650500D01*
X148885296Y-97650500D01*
X148932862Y-97667813D01*
G37*
%TD.AperFunction*%
%TA.AperFunction,Conductor*%
G36*
X148061641Y-85327654D02*
G01*
X148087928Y-85370912D01*
X148080259Y-85420947D01*
X148076260Y-85427430D01*
X147994781Y-85545473D01*
X147994780Y-85545475D01*
X147937176Y-85697367D01*
X147936344Y-85697051D01*
X147919424Y-85727049D01*
X146918274Y-86728199D01*
X146916458Y-86729954D01*
X146868955Y-86774320D01*
X146868953Y-86774321D01*
X146846276Y-86811612D01*
X146842015Y-86817873D01*
X146815643Y-86852651D01*
X146815635Y-86852665D01*
X146807484Y-86873334D01*
X146801874Y-86884629D01*
X146799577Y-86888407D01*
X146790327Y-86903618D01*
X146778551Y-86945646D01*
X146776137Y-86952824D01*
X146760125Y-86993429D01*
X146760123Y-86993439D01*
X146757849Y-87015543D01*
X146755496Y-87027928D01*
X146749500Y-87049335D01*
X146749500Y-87092981D01*
X146749112Y-87100549D01*
X146744648Y-87143969D01*
X146744648Y-87143972D01*
X146748424Y-87165872D01*
X146749500Y-87178445D01*
X146749500Y-88740968D01*
X146732187Y-88788534D01*
X146688350Y-88813844D01*
X146642228Y-88805980D01*
X146642104Y-88806295D01*
X146640603Y-88805703D01*
X146639229Y-88805469D01*
X146637396Y-88804438D01*
X146549890Y-88769930D01*
X146499174Y-88749930D01*
X146470222Y-88746453D01*
X146412322Y-88739500D01*
X146412320Y-88739500D01*
X145987680Y-88739500D01*
X145987678Y-88739500D01*
X145900826Y-88749930D01*
X145762605Y-88804437D01*
X145696635Y-88854464D01*
X145651922Y-88869500D01*
X145648078Y-88869500D01*
X145603365Y-88854464D01*
X145537394Y-88804437D01*
X145449890Y-88769930D01*
X145399174Y-88749930D01*
X145370222Y-88746453D01*
X145312322Y-88739500D01*
X145312320Y-88739500D01*
X144887680Y-88739500D01*
X144887678Y-88739500D01*
X144800826Y-88749930D01*
X144662605Y-88804437D01*
X144544215Y-88894214D01*
X144544214Y-88894215D01*
X144454437Y-89012605D01*
X144399930Y-89150826D01*
X144392988Y-89208637D01*
X144389500Y-89237680D01*
X144389500Y-89602320D01*
X144389500Y-89602322D01*
X144389499Y-89602322D01*
X144395589Y-89653029D01*
X144399930Y-89689174D01*
X144415018Y-89727433D01*
X144431969Y-89770419D01*
X144433313Y-89821020D01*
X144421606Y-89842913D01*
X144420282Y-89844619D01*
X144337968Y-89983803D01*
X144295494Y-90129999D01*
X144295495Y-90130000D01*
X145276000Y-90130000D01*
X145323566Y-90147313D01*
X145348876Y-90191150D01*
X145350000Y-90204000D01*
X145350000Y-90648915D01*
X145369718Y-90691202D01*
X145370000Y-90697652D01*
X145370000Y-91675500D01*
X145352687Y-91723066D01*
X145308850Y-91748376D01*
X145296000Y-91749500D01*
X144510664Y-91749500D01*
X144508138Y-91749457D01*
X144443174Y-91747237D01*
X144440473Y-91747896D01*
X144422954Y-91750000D01*
X144341210Y-91750000D01*
X144329999Y-91762127D01*
X144300241Y-91779640D01*
X144300860Y-91781209D01*
X144296142Y-91783069D01*
X144258094Y-91804461D01*
X144251312Y-91807830D01*
X144211286Y-91825216D01*
X144211281Y-91825219D01*
X144194040Y-91839245D01*
X144183612Y-91846341D01*
X144164248Y-91857228D01*
X144164241Y-91857234D01*
X144133369Y-91888104D01*
X144127747Y-91893177D01*
X144093892Y-91920720D01*
X144093890Y-91920723D01*
X144081075Y-91938877D01*
X144072947Y-91948526D01*
X143018273Y-93003200D01*
X143016457Y-93004955D01*
X142968954Y-93049321D01*
X142968951Y-93049324D01*
X142946276Y-93086612D01*
X142942015Y-93092873D01*
X142915643Y-93127651D01*
X142915635Y-93127665D01*
X142907484Y-93148334D01*
X142901873Y-93159632D01*
X142890327Y-93178618D01*
X142878551Y-93220646D01*
X142876137Y-93227824D01*
X142860125Y-93268429D01*
X142860123Y-93268439D01*
X142857849Y-93290543D01*
X142855496Y-93302928D01*
X142849500Y-93324335D01*
X142849500Y-93367981D01*
X142849112Y-93375549D01*
X142844648Y-93418969D01*
X142844648Y-93418972D01*
X142848424Y-93440872D01*
X142849500Y-93453445D01*
X142849500Y-94289334D01*
X142849457Y-94291860D01*
X142847237Y-94356824D01*
X142857570Y-94399225D01*
X142858984Y-94406666D01*
X142864930Y-94449920D01*
X142864931Y-94449922D01*
X142873783Y-94470302D01*
X142877805Y-94482261D01*
X142883067Y-94503852D01*
X142904461Y-94541903D01*
X142907827Y-94548680D01*
X142925217Y-94588715D01*
X142925219Y-94588719D01*
X142939243Y-94605957D01*
X142946343Y-94616389D01*
X142957233Y-94635758D01*
X142988101Y-94666626D01*
X142993177Y-94672251D01*
X143007368Y-94689694D01*
X143020722Y-94706108D01*
X143038875Y-94718922D01*
X143048526Y-94727051D01*
X144320987Y-95999512D01*
X144322743Y-96001329D01*
X144367108Y-96048832D01*
X144404397Y-96071508D01*
X144410661Y-96075771D01*
X144445446Y-96102149D01*
X144445447Y-96102149D01*
X144445448Y-96102150D01*
X144445447Y-96102150D01*
X144466118Y-96110301D01*
X144477420Y-96115914D01*
X144496406Y-96127460D01*
X144538445Y-96139238D01*
X144545613Y-96141649D01*
X144586221Y-96157663D01*
X144586224Y-96157664D01*
X144608328Y-96159936D01*
X144620720Y-96162291D01*
X144642123Y-96168288D01*
X144685770Y-96168288D01*
X144693338Y-96168676D01*
X144736760Y-96173140D01*
X144758660Y-96169363D01*
X144771233Y-96168288D01*
X149468637Y-96168288D01*
X149516203Y-96185601D01*
X149541513Y-96229438D01*
X149537004Y-96270606D01*
X149526535Y-96295879D01*
X149526534Y-96295883D01*
X149505914Y-96452512D01*
X149507669Y-96465840D01*
X149496713Y-96515259D01*
X149456555Y-96546075D01*
X149434302Y-96549500D01*
X142450694Y-96549500D01*
X142448168Y-96549457D01*
X142383175Y-96547236D01*
X142340765Y-96557571D01*
X142333326Y-96558985D01*
X142290080Y-96564930D01*
X142290078Y-96564930D01*
X142290075Y-96564931D01*
X142269694Y-96573783D01*
X142257740Y-96577803D01*
X142236147Y-96583065D01*
X142236144Y-96583067D01*
X142198096Y-96604460D01*
X142191312Y-96607830D01*
X142151279Y-96625219D01*
X142151277Y-96625221D01*
X142134042Y-96639242D01*
X142123616Y-96646339D01*
X142104241Y-96657234D01*
X142073369Y-96688104D01*
X142067747Y-96693177D01*
X142033892Y-96720720D01*
X142033890Y-96720723D01*
X142021075Y-96738877D01*
X142012947Y-96748526D01*
X138553647Y-100207826D01*
X138507771Y-100229218D01*
X138501322Y-100229500D01*
X138437127Y-100229500D01*
X138377514Y-100235909D01*
X138242670Y-100286202D01*
X138242669Y-100286203D01*
X138127454Y-100372454D01*
X138041203Y-100487669D01*
X138041202Y-100487670D01*
X137990910Y-100622512D01*
X137990909Y-100622517D01*
X137984500Y-100682126D01*
X137984500Y-100691628D01*
X137967187Y-100739194D01*
X137923350Y-100764504D01*
X137873500Y-100755714D01*
X137865681Y-100750460D01*
X137726196Y-100667968D01*
X137570914Y-100622855D01*
X137570917Y-100622855D01*
X137550000Y-100621209D01*
X137550000Y-101150000D01*
X137987445Y-101150000D01*
X138035011Y-101167313D01*
X138046685Y-101179653D01*
X138127454Y-101287546D01*
X138239754Y-101371614D01*
X138242669Y-101373796D01*
X138242670Y-101373797D01*
X138341521Y-101410666D01*
X138380038Y-101443509D01*
X138388433Y-101493427D01*
X138362776Y-101537063D01*
X138341521Y-101549334D01*
X138273153Y-101574834D01*
X138247293Y-101579500D01*
X137540664Y-101579500D01*
X137538138Y-101579457D01*
X137473175Y-101577237D01*
X137430774Y-101587570D01*
X137423335Y-101588984D01*
X137380080Y-101594930D01*
X137380078Y-101594930D01*
X137380077Y-101594931D01*
X137359692Y-101603785D01*
X137347737Y-101607805D01*
X137326149Y-101613066D01*
X137326146Y-101613068D01*
X137288098Y-101634459D01*
X137281322Y-101637824D01*
X137267407Y-101643870D01*
X137237918Y-101650000D01*
X137124000Y-101650000D01*
X137076434Y-101632687D01*
X137051124Y-101588850D01*
X137050000Y-101576000D01*
X137050000Y-100621209D01*
X137029083Y-100622855D01*
X136873803Y-100667968D01*
X136734622Y-100750280D01*
X136620280Y-100864622D01*
X136537968Y-101003803D01*
X136492855Y-101159083D01*
X136490000Y-101195363D01*
X136490000Y-101275500D01*
X136472687Y-101323066D01*
X136428850Y-101348376D01*
X136416000Y-101349500D01*
X136321012Y-101349500D01*
X136167635Y-101387303D01*
X136158889Y-101391894D01*
X136108725Y-101398669D01*
X136065943Y-101371614D01*
X136050500Y-101326370D01*
X136050500Y-94898969D01*
X136067813Y-94851403D01*
X136073095Y-94845738D01*
X136082203Y-94836943D01*
X136407893Y-94522427D01*
X136465039Y-94446594D01*
X136506342Y-94326640D01*
X136508556Y-94199793D01*
X136483358Y-94117372D01*
X136486008Y-94066823D01*
X136501796Y-94043415D01*
X137001626Y-93543585D01*
X137036242Y-93524063D01*
X137082365Y-93512696D01*
X137222240Y-93439283D01*
X137340483Y-93334530D01*
X137430220Y-93204523D01*
X137479287Y-93075141D01*
X137496147Y-93049064D01*
X138489206Y-92056005D01*
X138535081Y-92034614D01*
X138572648Y-92042257D01*
X138572694Y-92042124D01*
X138573706Y-92042472D01*
X138576274Y-92042995D01*
X138578203Y-92044021D01*
X138698151Y-92085322D01*
X138698152Y-92085322D01*
X138698155Y-92085323D01*
X138825002Y-92087537D01*
X138946324Y-92050445D01*
X138964512Y-92037710D01*
X139024101Y-91995986D01*
X139024102Y-91995985D01*
X139024102Y-91995984D01*
X139024106Y-91995982D01*
X140184427Y-90875471D01*
X140241573Y-90799638D01*
X140247707Y-90781822D01*
X140671729Y-90781822D01*
X140698522Y-90804707D01*
X140839113Y-90881998D01*
X140839112Y-90881998D01*
X140994512Y-90921898D01*
X141154950Y-90921898D01*
X141310350Y-90881998D01*
X141310356Y-90881996D01*
X141437367Y-90812169D01*
X141437367Y-90812168D01*
X141255199Y-90630000D01*
X144295495Y-90630000D01*
X144337968Y-90776196D01*
X144420280Y-90915378D01*
X144423133Y-90919055D01*
X144421506Y-90920316D01*
X144439654Y-90959235D01*
X144429631Y-91003353D01*
X144387969Y-91073801D01*
X144342855Y-91229083D01*
X144341209Y-91250000D01*
X144870000Y-91250000D01*
X144870000Y-91201084D01*
X144850282Y-91158798D01*
X144850000Y-91152348D01*
X144850000Y-90630000D01*
X144295495Y-90630000D01*
X141255199Y-90630000D01*
X141039376Y-90414177D01*
X140671729Y-90781822D01*
X140247707Y-90781822D01*
X140282876Y-90679684D01*
X140285090Y-90552837D01*
X140276612Y-90525106D01*
X140279262Y-90474558D01*
X140298287Y-90454156D01*
X140295288Y-90451157D01*
X140987049Y-89759396D01*
X141032925Y-89738004D01*
X141081820Y-89751105D01*
X141091701Y-89759396D01*
X141790920Y-90458615D01*
X141790921Y-90458615D01*
X141860748Y-90331604D01*
X141860750Y-90331598D01*
X141900650Y-90176198D01*
X141900650Y-90152557D01*
X141917963Y-90104991D01*
X141945164Y-90084685D01*
X142076833Y-90027493D01*
X142144988Y-89973953D01*
X142185767Y-89933174D01*
X142254803Y-89864137D01*
X142300679Y-89842744D01*
X142349573Y-89855844D01*
X142368028Y-89874423D01*
X142409517Y-89934530D01*
X142527760Y-90039283D01*
X142667635Y-90112696D01*
X142821015Y-90150500D01*
X142821019Y-90150500D01*
X142978981Y-90150500D01*
X142978985Y-90150500D01*
X143132365Y-90112696D01*
X143272240Y-90039283D01*
X143390483Y-89934530D01*
X143480220Y-89804523D01*
X143485862Y-89789648D01*
X143509456Y-89727433D01*
X143536237Y-89656818D01*
X143548793Y-89553407D01*
X143555278Y-89500003D01*
X143555278Y-89499996D01*
X143536456Y-89344988D01*
X143536237Y-89343182D01*
X143511074Y-89276833D01*
X143480221Y-89195478D01*
X143390483Y-89065470D01*
X143384924Y-89060545D01*
X143272240Y-88960717D01*
X143258764Y-88953644D01*
X143224694Y-88916210D01*
X143222656Y-88865632D01*
X143248108Y-88829414D01*
X143276970Y-88807267D01*
X143276970Y-88807266D01*
X143159746Y-88690041D01*
X143138354Y-88644164D01*
X143138825Y-88627188D01*
X143142007Y-88605061D01*
X143121526Y-88462604D01*
X143061738Y-88331688D01*
X143043570Y-88309142D01*
X143024120Y-88285006D01*
X143024119Y-88285005D01*
X142912839Y-88173726D01*
X143209117Y-88173726D01*
X143559812Y-88524421D01*
X143559814Y-88524421D01*
X143613004Y-88455104D01*
X143613008Y-88455097D01*
X143673465Y-88309143D01*
X143673465Y-88309142D01*
X143694085Y-88152513D01*
X143673465Y-87995883D01*
X143673465Y-87995882D01*
X143613008Y-87849927D01*
X143613007Y-87849925D01*
X143578233Y-87804608D01*
X143209117Y-88173725D01*
X143209117Y-88173726D01*
X142912839Y-88173726D01*
X142814996Y-88075884D01*
X142814991Y-88075879D01*
X142768313Y-88038263D01*
X142768312Y-88038262D01*
X142637396Y-87978474D01*
X142637391Y-87978473D01*
X142494939Y-87957993D01*
X142494936Y-87957993D01*
X142472811Y-87961173D01*
X142423265Y-87950804D01*
X142409957Y-87940252D01*
X142292733Y-87823029D01*
X142239541Y-87892350D01*
X142179082Y-88038308D01*
X142179081Y-88038315D01*
X142177300Y-88051839D01*
X142156260Y-88094502D01*
X141923345Y-88327420D01*
X141923329Y-88327438D01*
X141885715Y-88374111D01*
X141839442Y-88475433D01*
X141824456Y-88497017D01*
X141810559Y-88510914D01*
X141764683Y-88532306D01*
X141719782Y-88521814D01*
X141695255Y-88506898D01*
X141688994Y-88502636D01*
X141654220Y-88476267D01*
X141654217Y-88476265D01*
X141654214Y-88476263D01*
X141633538Y-88468109D01*
X141622243Y-88462499D01*
X141603252Y-88450951D01*
X141603250Y-88450950D01*
X141561216Y-88439172D01*
X141554037Y-88436758D01*
X141513439Y-88420748D01*
X141491324Y-88418474D01*
X141478932Y-88416118D01*
X141457538Y-88410124D01*
X141457537Y-88410124D01*
X141413890Y-88410124D01*
X141406322Y-88409736D01*
X141362902Y-88405272D01*
X141362899Y-88405272D01*
X141341000Y-88409048D01*
X141328427Y-88410124D01*
X140959716Y-88410124D01*
X140912150Y-88392811D01*
X140907391Y-88388450D01*
X140845000Y-88326060D01*
X140844982Y-88326044D01*
X140776834Y-88272508D01*
X140776833Y-88272507D01*
X140776831Y-88272506D01*
X140776828Y-88272504D01*
X140641813Y-88213858D01*
X140560545Y-88202689D01*
X140515779Y-88179061D01*
X140497310Y-88139453D01*
X140486141Y-88058186D01*
X140477487Y-88038262D01*
X140427493Y-87923167D01*
X140427492Y-87923166D01*
X140427492Y-87923165D01*
X140373957Y-87855017D01*
X140373949Y-87855008D01*
X140123743Y-87604804D01*
X140123734Y-87604796D01*
X140055586Y-87551260D01*
X140055585Y-87551259D01*
X140055583Y-87551258D01*
X140055580Y-87551256D01*
X140030092Y-87540185D01*
X142575576Y-87540185D01*
X142926273Y-87890882D01*
X143295390Y-87521764D01*
X143250076Y-87486993D01*
X143104117Y-87426534D01*
X142947487Y-87405914D01*
X142790857Y-87426534D01*
X142790856Y-87426534D01*
X142644900Y-87486992D01*
X142575576Y-87540185D01*
X140030092Y-87540185D01*
X139920565Y-87492610D01*
X139806741Y-87476966D01*
X139761975Y-87453337D01*
X139742870Y-87406462D01*
X139758366Y-87358273D01*
X139783222Y-87337721D01*
X139833582Y-87312060D01*
X139951258Y-87252102D01*
X139954182Y-87250693D01*
X140756119Y-86886436D01*
X140759074Y-86885172D01*
X141576609Y-86557235D01*
X141579631Y-86556102D01*
X142410974Y-86265202D01*
X142414064Y-86264198D01*
X143257627Y-86010888D01*
X143260826Y-86010006D01*
X143273518Y-86006808D01*
X144114864Y-85794807D01*
X144118042Y-85794081D01*
X144980939Y-85617402D01*
X144984111Y-85616826D01*
X145854050Y-85479041D01*
X145857294Y-85478602D01*
X146732532Y-85379986D01*
X146735801Y-85379692D01*
X147614561Y-85320445D01*
X147617810Y-85320299D01*
X148013700Y-85311413D01*
X148061641Y-85327654D01*
G37*
%TD.AperFunction*%
%TA.AperFunction,Conductor*%
G36*
X151498857Y-97555246D02*
G01*
X151522465Y-97585706D01*
X151523728Y-97585130D01*
X151525925Y-97589942D01*
X151525926Y-97589944D01*
X151553710Y-97650782D01*
X151585713Y-97720858D01*
X151585713Y-97720859D01*
X151623331Y-97767541D01*
X151623332Y-97767542D01*
X151712934Y-97857143D01*
X151734326Y-97903019D01*
X151721225Y-97951913D01*
X151712934Y-97961795D01*
X151420877Y-98253853D01*
X151375001Y-98275245D01*
X151326106Y-98262144D01*
X151316225Y-98253853D01*
X151231056Y-98168684D01*
X151231047Y-98168676D01*
X151160264Y-98113070D01*
X151153652Y-98107205D01*
X151059361Y-98012914D01*
X151037969Y-97967038D01*
X151051070Y-97918143D01*
X151059361Y-97908262D01*
X151404086Y-97563537D01*
X151449962Y-97542145D01*
X151498857Y-97555246D01*
G37*
%TD.AperFunction*%
%TA.AperFunction,Conductor*%
G36*
X156183972Y-96917807D02*
G01*
X156219037Y-96954313D01*
X156222432Y-97004818D01*
X156203680Y-97036556D01*
X155981447Y-97258790D01*
X155935571Y-97280182D01*
X155886676Y-97267081D01*
X155876795Y-97258790D01*
X155797599Y-97179594D01*
X155776207Y-97133718D01*
X155789308Y-97084823D01*
X155797601Y-97074941D01*
X155900368Y-96972174D01*
X155946244Y-96950782D01*
X155952694Y-96950500D01*
X155978981Y-96950500D01*
X155978985Y-96950500D01*
X156132365Y-96912696D01*
X156132366Y-96912695D01*
X156133645Y-96912380D01*
X156183972Y-96917807D01*
G37*
%TD.AperFunction*%
%TA.AperFunction,Conductor*%
G36*
X152329168Y-96185601D02*
G01*
X152354478Y-96229438D01*
X152345688Y-96279288D01*
X152326650Y-96300996D01*
X152251028Y-96359022D01*
X152011571Y-96598480D01*
X151939541Y-96692350D01*
X151879082Y-96838308D01*
X151879081Y-96838315D01*
X151877300Y-96851839D01*
X151856260Y-96894503D01*
X151641078Y-97109687D01*
X151595202Y-97131079D01*
X151570350Y-97129036D01*
X151462654Y-97101386D01*
X151457829Y-97101386D01*
X151410263Y-97084073D01*
X151384953Y-97040236D01*
X151384582Y-97016856D01*
X151385959Y-97007275D01*
X151394555Y-96947487D01*
X151374074Y-96805030D01*
X151314286Y-96674114D01*
X151276667Y-96627432D01*
X151043738Y-96394505D01*
X151022698Y-96351837D01*
X151020917Y-96338308D01*
X150992874Y-96270607D01*
X150990666Y-96220036D01*
X151021481Y-96179877D01*
X151061241Y-96168288D01*
X152281602Y-96168288D01*
X152329168Y-96185601D01*
G37*
%TD.AperFunction*%
%TA.AperFunction,Conductor*%
G36*
X152668717Y-96734916D02*
G01*
X152678599Y-96743208D01*
X152856790Y-96921399D01*
X152878182Y-96967275D01*
X152865081Y-97016170D01*
X152856791Y-97026050D01*
X152813305Y-97069537D01*
X152767428Y-97090930D01*
X152718534Y-97077830D01*
X152708652Y-97069538D01*
X152584562Y-96945449D01*
X152530459Y-96891347D01*
X152509068Y-96845472D01*
X152522169Y-96796578D01*
X152530459Y-96786697D01*
X152573946Y-96743209D01*
X152619823Y-96721816D01*
X152668717Y-96734916D01*
G37*
%TD.AperFunction*%
%TA.AperFunction,Conductor*%
G36*
X155128889Y-93007813D02*
G01*
X155133649Y-93012174D01*
X156109155Y-93987680D01*
X157062438Y-94940962D01*
X157083830Y-94986838D01*
X157070729Y-95035733D01*
X157029265Y-95064767D01*
X157010112Y-95067288D01*
X152948716Y-95067288D01*
X152901150Y-95049975D01*
X152875840Y-95006138D01*
X152884630Y-94956288D01*
X152911047Y-94929593D01*
X152995377Y-94879719D01*
X153109719Y-94765377D01*
X153192031Y-94626196D01*
X153237144Y-94470916D01*
X153238791Y-94450000D01*
X152284000Y-94450000D01*
X152236434Y-94432687D01*
X152211124Y-94388850D01*
X152210000Y-94376000D01*
X152210000Y-93350000D01*
X152710000Y-93350000D01*
X152710000Y-93950000D01*
X153238789Y-93950000D01*
X153238790Y-93949998D01*
X153237145Y-93929089D01*
X153237145Y-93929087D01*
X153192031Y-93773802D01*
X153141091Y-93687670D01*
X153131779Y-93637915D01*
X153141091Y-93612330D01*
X153192031Y-93526197D01*
X153237144Y-93370916D01*
X153238791Y-93350000D01*
X152710000Y-93350000D01*
X152210000Y-93350000D01*
X152210000Y-93064500D01*
X152227313Y-93016934D01*
X152271150Y-92991624D01*
X152284000Y-92990500D01*
X155081323Y-92990500D01*
X155128889Y-93007813D01*
G37*
%TD.AperFunction*%
%TA.AperFunction,Conductor*%
G36*
X145343566Y-92867813D02*
G01*
X145368876Y-92911650D01*
X145370000Y-92924500D01*
X145370000Y-93348915D01*
X145389718Y-93391202D01*
X145390000Y-93397652D01*
X145390000Y-94376000D01*
X145372687Y-94423566D01*
X145328850Y-94448876D01*
X145316000Y-94450000D01*
X144359177Y-94450000D01*
X144311611Y-94432687D01*
X144306851Y-94428326D01*
X143972174Y-94093649D01*
X143950782Y-94047773D01*
X143950500Y-94041323D01*
X143950500Y-93658676D01*
X143967813Y-93611110D01*
X143972163Y-93606361D01*
X144223932Y-93354592D01*
X144269805Y-93333202D01*
X144318700Y-93346303D01*
X144347317Y-93386274D01*
X144387968Y-93526196D01*
X144448908Y-93629239D01*
X144458219Y-93678994D01*
X144448909Y-93704576D01*
X144407967Y-93773806D01*
X144362855Y-93929083D01*
X144361209Y-93950000D01*
X144870000Y-93950000D01*
X144870000Y-92924500D01*
X144887313Y-92876934D01*
X144931150Y-92851624D01*
X144944000Y-92850500D01*
X145296000Y-92850500D01*
X145343566Y-92867813D01*
G37*
%TD.AperFunction*%
%TD*%
M02*
