M48
; DRILL file {KiCad 7.0.10-7.0.10~ubuntu22.04.1} date St 10. dubna 2024, 21:14:15
; FORMAT={-:-/ absolute / metric / decimal}
; #@! TF.CreationDate,2024-04-10T21:14:15+02:00
; #@! TF.GenerationSoftware,Kicad,Pcbnew,7.0.10-7.0.10~ubuntu22.04.1
; #@! TF.FileFunction,Plated,2,4,Blind
FMAT,2
METRIC
; #@! TA.AperFunction,Plated,Buried,ViaDrill
T1C0.300
; #@! TA.AperFunction,Plated,Buried,ViaDrill
T2C0.400
%
G90
G05
T1
X136.0Y-115.0
X136.4Y-102.0
X136.85Y-92.9
X137.5Y-110.8
X139.7Y-113.7
X139.9Y-108.4
X140.95Y-118.9
X141.6Y-113.3
X142.9Y-89.5
X142.9Y-116.0
X144.2Y-93.8
X145.1Y-105.5
X145.25Y-107.65
X145.348Y-103.907
X145.85Y-103.4
X146.35Y-102.85
X146.911Y-102.302
X147.2Y-105.0
X147.44Y-101.817
X147.6Y-95.0
X148.408Y-104.5
X148.9Y-119.9
X149.0Y-101.3
X149.213Y-105.061
X149.6Y-97.6
X149.9Y-95.0
X150.5Y-116.2
X151.0Y-108.4
X151.022Y-106.824
X151.3Y-103.6
X151.488Y-106.236
X151.5Y-115.75
X151.6Y-99.3
X151.8Y-104.1
X152.147Y-100.411
X152.7Y-117.9
X152.842Y-100.179
X153.4Y-96.5
X153.45Y-118.6
X153.5Y-94.5
X154.3Y-96.5
X155.9Y-96.3
X157.341Y-104.25
X157.7Y-118.5
X157.885Y-103.808
X158.2Y-116.0
X158.395Y-103.329
X158.55Y-114.5
X158.889Y-102.8
X159.25Y-113.95
X159.35Y-102.25
X159.5Y-105.8
X161.3Y-108.8
T2
X139.8Y-105.1
X144.1Y-98.5
X147.8Y-98.8
X148.1Y-105.5
X149.0Y-112.2
X150.5Y-111.7
X150.941Y-102.83
X159.8Y-107.5
M30
