%TF.GenerationSoftware,KiCad,Pcbnew,7.0.10-7.0.10~ubuntu22.04.1*%
%TF.CreationDate,2024-04-13T21:42:08+02:00*%
%TF.ProjectId,STM32_watch_NFC,53544d33-325f-4776-9174-63685f4e4643,rev?*%
%TF.SameCoordinates,PX6c3df60PY1312d00*%
%TF.FileFunction,Legend,Top*%
%TF.FilePolarity,Positive*%
%FSLAX46Y46*%
G04 Gerber Fmt 4.6, Leading zero omitted, Abs format (unit mm)*
G04 Created by KiCad (PCBNEW 7.0.10-7.0.10~ubuntu22.04.1) date 2024-04-13 21:42:08*
%MOMM*%
%LPD*%
G01*
G04 APERTURE LIST*
G04 Aperture macros list*
%AMRoundRect*
0 Rectangle with rounded corners*
0 $1 Rounding radius*
0 $2 $3 $4 $5 $6 $7 $8 $9 X,Y pos of 4 corners*
0 Add a 4 corners polygon primitive as box body*
4,1,4,$2,$3,$4,$5,$6,$7,$8,$9,$2,$3,0*
0 Add four circle primitives for the rounded corners*
1,1,$1+$1,$2,$3*
1,1,$1+$1,$4,$5*
1,1,$1+$1,$6,$7*
1,1,$1+$1,$8,$9*
0 Add four rect primitives between the rounded corners*
20,1,$1+$1,$2,$3,$4,$5,0*
20,1,$1+$1,$4,$5,$6,$7,0*
20,1,$1+$1,$6,$7,$8,$9,0*
20,1,$1+$1,$8,$9,$2,$3,0*%
G04 Aperture macros list end*
%ADD10C,0.150000*%
%ADD11C,0.300000*%
%ADD12C,0.700000*%
%ADD13C,0.200000*%
%ADD14C,0.120000*%
%ADD15C,0.500000*%
%ADD16RoundRect,0.125000X0.166116X-0.060461X0.060461X0.166116X-0.166116X0.060461X-0.060461X-0.166116X0*%
%ADD17RoundRect,0.100000X-0.075558X-0.145571X0.160082X-0.035690X0.075558X0.145571X-0.160082X0.035690X0*%
%ADD18C,2.000000*%
G04 APERTURE END LIST*
D10*
X35177256Y-84947310D02*
G75*
G03*
X32376808Y-84947310I-1400224J0D01*
G01*
X32376808Y-84947310D02*
G75*
G03*
X35177256Y-84947310I1400224J0D01*
G01*
D11*
X49085249Y-65083344D02*
G75*
G03*
X46285249Y-65083344I-1400000J0D01*
G01*
X46285249Y-65083344D02*
G75*
G03*
X49085249Y-65083344I1400000J0D01*
G01*
D10*
X24939105Y-62992004D02*
G75*
G03*
X22139105Y-62992004I-1400000J0D01*
G01*
X22139105Y-62992004D02*
G75*
G03*
X24939105Y-62992004I1400000J0D01*
G01*
D12*
X30480284Y-16311691D02*
G75*
G03*
X27680284Y-16311691I-1400000J0D01*
G01*
X27680284Y-16311691D02*
G75*
G03*
X30480284Y-16311691I1400000J0D01*
G01*
D10*
X47865341Y-37030654D02*
G75*
G03*
X45065341Y-37030654I-1400000J0D01*
G01*
X45065341Y-37030654D02*
G75*
G03*
X47865341Y-37030654I1400000J0D01*
G01*
X35177256Y-42947310D02*
G75*
G03*
X32376808Y-42947310I-1400224J0D01*
G01*
X32376808Y-42947310D02*
G75*
G03*
X35177256Y-42947310I1400224J0D01*
G01*
D11*
X23708631Y-34916656D02*
G75*
G03*
X20908631Y-34916656I-1400000J0D01*
G01*
X20908631Y-34916656D02*
G75*
G03*
X23708631Y-34916656I1400000J0D01*
G01*
D10*
X44427594Y-59531599D02*
G75*
G03*
X41627594Y-59531599I-1400000J0D01*
G01*
X41627594Y-59531599D02*
G75*
G03*
X44427594Y-59531599I1400000J0D01*
G01*
X44427594Y-17531599D02*
G75*
G03*
X41627594Y-17531599I-1400000J0D01*
G01*
X41627594Y-17531599D02*
G75*
G03*
X44427594Y-17531599I1400000J0D01*
G01*
X47865341Y-79030654D02*
G75*
G03*
X45065341Y-79030654I-1400000J0D01*
G01*
X45065341Y-79030654D02*
G75*
G03*
X47865341Y-79030654I1400000J0D01*
G01*
X50344473Y-72219908D02*
G75*
G03*
X47544027Y-72219908I-1400223J0D01*
G01*
X47544027Y-72219908D02*
G75*
G03*
X50344473Y-72219908I1400223J0D01*
G01*
X28343851Y-82478966D02*
G75*
G03*
X25543405Y-82478966I-1400223J0D01*
G01*
X25543405Y-82478966D02*
G75*
G03*
X28343851Y-82478966I1400223J0D01*
G01*
X37616848Y-15052690D02*
G75*
G03*
X34816848Y-15052690I-1400000J0D01*
G01*
X34816848Y-15052690D02*
G75*
G03*
X37616848Y-15052690I1400000J0D01*
G01*
X28343851Y-40478966D02*
G75*
G03*
X25543405Y-40478966I-1400223J0D01*
G01*
X25543405Y-40478966D02*
G75*
G03*
X28343851Y-40478966I1400223J0D01*
G01*
X22449853Y-69780092D02*
G75*
G03*
X19649407Y-69780092I-1400223J0D01*
G01*
X19649407Y-69780092D02*
G75*
G03*
X22449853Y-69780092I1400223J0D01*
G01*
D11*
X49085249Y-23083344D02*
G75*
G03*
X46285249Y-23083344I-1400000J0D01*
G01*
X46285249Y-23083344D02*
G75*
G03*
X49085249Y-23083344I1400000J0D01*
G01*
X42313596Y-41688309D02*
G75*
G03*
X39513596Y-41688309I-1400000J0D01*
G01*
X39513596Y-41688309D02*
G75*
G03*
X42313596Y-41688309I1400000J0D01*
G01*
D10*
X22449853Y-27780092D02*
G75*
G03*
X19649407Y-27780092I-1400223J0D01*
G01*
X19649407Y-27780092D02*
G75*
G03*
X22449853Y-27780092I1400223J0D01*
G01*
X37616848Y-57052690D02*
G75*
G03*
X34816848Y-57052690I-1400000J0D01*
G01*
X34816848Y-57052690D02*
G75*
G03*
X37616848Y-57052690I1400000J0D01*
G01*
D11*
X23708631Y-76916656D02*
G75*
G03*
X20908631Y-76916656I-1400000J0D01*
G01*
X20908631Y-76916656D02*
G75*
G03*
X23708631Y-76916656I1400000J0D01*
G01*
D10*
X24939105Y-20992004D02*
G75*
G03*
X22139105Y-20992004I-1400000J0D01*
G01*
X22139105Y-20992004D02*
G75*
G03*
X24939105Y-20992004I1400000J0D01*
G01*
D11*
X42313596Y-83688309D02*
G75*
G03*
X39513596Y-83688309I-1400000J0D01*
G01*
X39513596Y-83688309D02*
G75*
G03*
X42313596Y-83688309I1400000J0D01*
G01*
D12*
X30480284Y-58311691D02*
G75*
G03*
X27680284Y-58311691I-1400000J0D01*
G01*
X27680284Y-58311691D02*
G75*
G03*
X30480284Y-58311691I1400000J0D01*
G01*
D10*
X50344473Y-30219908D02*
G75*
G03*
X47544027Y-30219908I-1400223J0D01*
G01*
X47544027Y-30219908D02*
G75*
G03*
X50344473Y-30219908I1400223J0D01*
G01*
D13*
G36*
X46426507Y-66906435D02*
G01*
X45016371Y-67563992D01*
X44193610Y-65799575D01*
X44434090Y-65799575D01*
X44460209Y-65855588D01*
X44514264Y-65885551D01*
X44575607Y-65878019D01*
X45217449Y-65578722D01*
X45067223Y-66096280D01*
X45067862Y-66116490D01*
X45064004Y-66136343D01*
X45068818Y-66146667D01*
X45069179Y-66158053D01*
X45081576Y-66174027D01*
X45090123Y-66192356D01*
X45100087Y-66197879D01*
X45107071Y-66206878D01*
X45126490Y-66212514D01*
X45144178Y-66222319D01*
X45155485Y-66220930D01*
X45166425Y-66224106D01*
X45185449Y-66217251D01*
X45205521Y-66214787D01*
X45378334Y-66134202D01*
X45498176Y-66137476D01*
X45562598Y-66160924D01*
X45656506Y-66235448D01*
X45787488Y-66516339D01*
X45784214Y-66636181D01*
X45760766Y-66700604D01*
X45686242Y-66794511D01*
X45340614Y-66955680D01*
X45220773Y-66952406D01*
X45141101Y-66923408D01*
X45079335Y-66921250D01*
X45028098Y-66955811D01*
X45006959Y-67013887D01*
X45023995Y-67073297D01*
X45072697Y-67111346D01*
X45167620Y-67145895D01*
X45183816Y-67146460D01*
X45199091Y-67151889D01*
X45358750Y-67156251D01*
X45380862Y-67149728D01*
X45403743Y-67146919D01*
X45792161Y-66965797D01*
X45809022Y-66950073D01*
X45828230Y-66937329D01*
X45927516Y-66812219D01*
X45933175Y-66797030D01*
X45943154Y-66784258D01*
X45977703Y-66689335D01*
X45978268Y-66673138D01*
X45983697Y-66657864D01*
X45988059Y-66498204D01*
X45981536Y-66476091D01*
X45978727Y-66453211D01*
X45827792Y-66129530D01*
X45812068Y-66112668D01*
X45799324Y-66093461D01*
X45674214Y-65994175D01*
X45659025Y-65988515D01*
X45646253Y-65978537D01*
X45551329Y-65943988D01*
X45535132Y-65943422D01*
X45519858Y-65937994D01*
X45360199Y-65933632D01*
X45338086Y-65940154D01*
X45320155Y-65942356D01*
X45470953Y-65422831D01*
X45470313Y-65402620D01*
X45474172Y-65382769D01*
X45469357Y-65372444D01*
X45468997Y-65361059D01*
X45456598Y-65345082D01*
X45448052Y-65326756D01*
X45438089Y-65321233D01*
X45431105Y-65312234D01*
X45411684Y-65306597D01*
X45393998Y-65296793D01*
X45382690Y-65298181D01*
X45371751Y-65295006D01*
X45352726Y-65301860D01*
X45332655Y-65304325D01*
X44491083Y-65696757D01*
X44445882Y-65738907D01*
X44434090Y-65799575D01*
X44193610Y-65799575D01*
X44116797Y-65634850D01*
X45526933Y-64977293D01*
X46426507Y-66906435D01*
G37*
G36*
X24774124Y-33170759D02*
G01*
X24838546Y-33194207D01*
X24932454Y-33268731D01*
X25063436Y-33549622D01*
X25060162Y-33669463D01*
X25036713Y-33733887D01*
X24962190Y-33827794D01*
X24746035Y-33928589D01*
X24626193Y-33925315D01*
X24561770Y-33901867D01*
X24467863Y-33827343D01*
X24336881Y-33546452D01*
X24340155Y-33426610D01*
X24363603Y-33362187D01*
X24438127Y-33268280D01*
X24654282Y-33167485D01*
X24774124Y-33170759D01*
G37*
G36*
X25943951Y-34457608D02*
G01*
X24597436Y-35085498D01*
X23888224Y-33564588D01*
X24136311Y-33564588D01*
X24142833Y-33586700D01*
X24145643Y-33609581D01*
X24296578Y-33933261D01*
X24312299Y-33950120D01*
X24325046Y-33969331D01*
X24450156Y-34068617D01*
X24465344Y-34074276D01*
X24478117Y-34084255D01*
X24573040Y-34118804D01*
X24589236Y-34119369D01*
X24604511Y-34124798D01*
X24764171Y-34129160D01*
X24786283Y-34122637D01*
X24809164Y-34119828D01*
X25068109Y-33999080D01*
X25084970Y-33983356D01*
X25104179Y-33970611D01*
X25181777Y-33872827D01*
X25209147Y-34014110D01*
X25174348Y-34241784D01*
X25148737Y-34312151D01*
X25074214Y-34406058D01*
X24836663Y-34516830D01*
X24791463Y-34558980D01*
X24779670Y-34619648D01*
X24805789Y-34675661D01*
X24859844Y-34705624D01*
X24921187Y-34698092D01*
X25180133Y-34577344D01*
X25196994Y-34561620D01*
X25216203Y-34548875D01*
X25315488Y-34423765D01*
X25321147Y-34408576D01*
X25331125Y-34395805D01*
X25365674Y-34300882D01*
X25366026Y-34290801D01*
X25370557Y-34281789D01*
X25409469Y-34027206D01*
X25406679Y-34010190D01*
X25408792Y-33993078D01*
X25352780Y-33703946D01*
X25346752Y-33693056D01*
X25345236Y-33680703D01*
X25103740Y-33162813D01*
X25088016Y-33145951D01*
X25075272Y-33126744D01*
X24950162Y-33027458D01*
X24934973Y-33021798D01*
X24922201Y-33011820D01*
X24827277Y-32977271D01*
X24811080Y-32976705D01*
X24795806Y-32971277D01*
X24636147Y-32966915D01*
X24614034Y-32973437D01*
X24591154Y-32976247D01*
X24332209Y-33096995D01*
X24315347Y-33112718D01*
X24296140Y-33125463D01*
X24196854Y-33250573D01*
X24191194Y-33265762D01*
X24181216Y-33278534D01*
X24146667Y-33373457D01*
X24146101Y-33389653D01*
X24140673Y-33404928D01*
X24136311Y-33564588D01*
X23888224Y-33564588D01*
X23697863Y-33156357D01*
X25044378Y-32528467D01*
X25943951Y-34457608D01*
G37*
G36*
X40177591Y-38755663D02*
G01*
X40242013Y-38779111D01*
X40335921Y-38853635D01*
X40466903Y-39134526D01*
X40463629Y-39254368D01*
X40440181Y-39318791D01*
X40365657Y-39412698D01*
X40149502Y-39513493D01*
X40029660Y-39510219D01*
X39965237Y-39486771D01*
X39871330Y-39412247D01*
X39740348Y-39131355D01*
X39743622Y-39011514D01*
X39767070Y-38947091D01*
X39841594Y-38853184D01*
X40057749Y-38752389D01*
X40177591Y-38755663D01*
G37*
G36*
X41105922Y-39524622D02*
G01*
X39759407Y-40152512D01*
X39060533Y-38653773D01*
X39394316Y-38653773D01*
X39397105Y-38670788D01*
X39394993Y-38687901D01*
X39451005Y-38977032D01*
X39457032Y-38987921D01*
X39458549Y-39000276D01*
X39700045Y-39518165D01*
X39715766Y-39535024D01*
X39728513Y-39554235D01*
X39853623Y-39653521D01*
X39868811Y-39659180D01*
X39881584Y-39669159D01*
X39976507Y-39703708D01*
X39992703Y-39704273D01*
X40007978Y-39709702D01*
X40167638Y-39714064D01*
X40189750Y-39707541D01*
X40212631Y-39704732D01*
X40471576Y-39583984D01*
X40488436Y-39568261D01*
X40507645Y-39555516D01*
X40606931Y-39430406D01*
X40612590Y-39415217D01*
X40622569Y-39402445D01*
X40657118Y-39307522D01*
X40657683Y-39291325D01*
X40663112Y-39276051D01*
X40667474Y-39116391D01*
X40660951Y-39094278D01*
X40658142Y-39071398D01*
X40507207Y-38747717D01*
X40491483Y-38730855D01*
X40478739Y-38711648D01*
X40353629Y-38612362D01*
X40338440Y-38606702D01*
X40325668Y-38596724D01*
X40230744Y-38562175D01*
X40214547Y-38561609D01*
X40199273Y-38556181D01*
X40039614Y-38551819D01*
X40017501Y-38558341D01*
X39994621Y-38561151D01*
X39735676Y-38681899D01*
X39718814Y-38697622D01*
X39699607Y-38710367D01*
X39622007Y-38808150D01*
X39594637Y-38666867D01*
X39629434Y-38439196D01*
X39655047Y-38368827D01*
X39729570Y-38274920D01*
X39967121Y-38164147D01*
X40012322Y-38121998D01*
X40024114Y-38061330D01*
X39997995Y-38005316D01*
X39943940Y-37975354D01*
X39882597Y-37982886D01*
X39623652Y-38103635D01*
X39606790Y-38119358D01*
X39587583Y-38132103D01*
X39488297Y-38257214D01*
X39482638Y-38272401D01*
X39472660Y-38285173D01*
X39438110Y-38380096D01*
X39437757Y-38390178D01*
X39433227Y-38399191D01*
X39394316Y-38653773D01*
X39060533Y-38653773D01*
X38859833Y-38223370D01*
X40206348Y-37595480D01*
X41105922Y-39524622D01*
G37*
G36*
X46426507Y-24906435D02*
G01*
X45016371Y-25563992D01*
X44193610Y-23799575D01*
X44434090Y-23799575D01*
X44460209Y-23855588D01*
X44514264Y-23885551D01*
X44575607Y-23878019D01*
X45217449Y-23578722D01*
X45067223Y-24096280D01*
X45067862Y-24116490D01*
X45064004Y-24136343D01*
X45068818Y-24146667D01*
X45069179Y-24158053D01*
X45081576Y-24174027D01*
X45090123Y-24192356D01*
X45100087Y-24197879D01*
X45107071Y-24206878D01*
X45126490Y-24212514D01*
X45144178Y-24222319D01*
X45155485Y-24220930D01*
X45166425Y-24224106D01*
X45185449Y-24217251D01*
X45205521Y-24214787D01*
X45378334Y-24134202D01*
X45498176Y-24137476D01*
X45562598Y-24160924D01*
X45656506Y-24235448D01*
X45787488Y-24516339D01*
X45784214Y-24636181D01*
X45760766Y-24700604D01*
X45686242Y-24794511D01*
X45340614Y-24955680D01*
X45220773Y-24952406D01*
X45141101Y-24923408D01*
X45079335Y-24921250D01*
X45028098Y-24955811D01*
X45006959Y-25013887D01*
X45023995Y-25073297D01*
X45072697Y-25111346D01*
X45167620Y-25145895D01*
X45183816Y-25146460D01*
X45199091Y-25151889D01*
X45358750Y-25156251D01*
X45380862Y-25149728D01*
X45403743Y-25146919D01*
X45792161Y-24965797D01*
X45809022Y-24950073D01*
X45828230Y-24937329D01*
X45927516Y-24812219D01*
X45933175Y-24797030D01*
X45943154Y-24784258D01*
X45977703Y-24689335D01*
X45978268Y-24673138D01*
X45983697Y-24657864D01*
X45988059Y-24498204D01*
X45981536Y-24476091D01*
X45978727Y-24453211D01*
X45827792Y-24129530D01*
X45812068Y-24112668D01*
X45799324Y-24093461D01*
X45674214Y-23994175D01*
X45659025Y-23988515D01*
X45646253Y-23978537D01*
X45551329Y-23943988D01*
X45535132Y-23943422D01*
X45519858Y-23937994D01*
X45360199Y-23933632D01*
X45338086Y-23940154D01*
X45320155Y-23942356D01*
X45470953Y-23422831D01*
X45470313Y-23402620D01*
X45474172Y-23382769D01*
X45469357Y-23372444D01*
X45468997Y-23361059D01*
X45456598Y-23345082D01*
X45448052Y-23326756D01*
X45438089Y-23321233D01*
X45431105Y-23312234D01*
X45411684Y-23306597D01*
X45393998Y-23296793D01*
X45382690Y-23298181D01*
X45371751Y-23295006D01*
X45352726Y-23301860D01*
X45332655Y-23304325D01*
X44491083Y-23696757D01*
X44445882Y-23738907D01*
X44434090Y-23799575D01*
X44193610Y-23799575D01*
X44116797Y-23634850D01*
X45526933Y-22977293D01*
X46426507Y-24906435D01*
G37*
X31255387Y-96917219D02*
X31255387Y-97631504D01*
X31255387Y-97631504D02*
X31207768Y-97774361D01*
X31207768Y-97774361D02*
X31112530Y-97869600D01*
X31112530Y-97869600D02*
X30969673Y-97917219D01*
X30969673Y-97917219D02*
X30874435Y-97917219D01*
X32207768Y-97917219D02*
X31731578Y-97917219D01*
X31731578Y-97917219D02*
X31731578Y-96917219D01*
X33112530Y-97821980D02*
X33064911Y-97869600D01*
X33064911Y-97869600D02*
X32922054Y-97917219D01*
X32922054Y-97917219D02*
X32826816Y-97917219D01*
X32826816Y-97917219D02*
X32683959Y-97869600D01*
X32683959Y-97869600D02*
X32588721Y-97774361D01*
X32588721Y-97774361D02*
X32541102Y-97679123D01*
X32541102Y-97679123D02*
X32493483Y-97488647D01*
X32493483Y-97488647D02*
X32493483Y-97345790D01*
X32493483Y-97345790D02*
X32541102Y-97155314D01*
X32541102Y-97155314D02*
X32588721Y-97060076D01*
X32588721Y-97060076D02*
X32683959Y-96964838D01*
X32683959Y-96964838D02*
X32826816Y-96917219D01*
X32826816Y-96917219D02*
X32922054Y-96917219D01*
X32922054Y-96917219D02*
X33064911Y-96964838D01*
X33064911Y-96964838D02*
X33112530Y-97012457D01*
X33826816Y-96917219D02*
X33826816Y-97631504D01*
X33826816Y-97631504D02*
X33779197Y-97774361D01*
X33779197Y-97774361D02*
X33683959Y-97869600D01*
X33683959Y-97869600D02*
X33541102Y-97917219D01*
X33541102Y-97917219D02*
X33445864Y-97917219D01*
X34779197Y-97917219D02*
X34303007Y-97917219D01*
X34303007Y-97917219D02*
X34303007Y-96917219D01*
X35683959Y-97821980D02*
X35636340Y-97869600D01*
X35636340Y-97869600D02*
X35493483Y-97917219D01*
X35493483Y-97917219D02*
X35398245Y-97917219D01*
X35398245Y-97917219D02*
X35255388Y-97869600D01*
X35255388Y-97869600D02*
X35160150Y-97774361D01*
X35160150Y-97774361D02*
X35112531Y-97679123D01*
X35112531Y-97679123D02*
X35064912Y-97488647D01*
X35064912Y-97488647D02*
X35064912Y-97345790D01*
X35064912Y-97345790D02*
X35112531Y-97155314D01*
X35112531Y-97155314D02*
X35160150Y-97060076D01*
X35160150Y-97060076D02*
X35255388Y-96964838D01*
X35255388Y-96964838D02*
X35398245Y-96917219D01*
X35398245Y-96917219D02*
X35493483Y-96917219D01*
X35493483Y-96917219D02*
X35636340Y-96964838D01*
X35636340Y-96964838D02*
X35683959Y-97012457D01*
X36398245Y-96917219D02*
X36398245Y-97631504D01*
X36398245Y-97631504D02*
X36350626Y-97774361D01*
X36350626Y-97774361D02*
X36255388Y-97869600D01*
X36255388Y-97869600D02*
X36112531Y-97917219D01*
X36112531Y-97917219D02*
X36017293Y-97917219D01*
X37350626Y-97917219D02*
X36874436Y-97917219D01*
X36874436Y-97917219D02*
X36874436Y-96917219D01*
X38255388Y-97821980D02*
X38207769Y-97869600D01*
X38207769Y-97869600D02*
X38064912Y-97917219D01*
X38064912Y-97917219D02*
X37969674Y-97917219D01*
X37969674Y-97917219D02*
X37826817Y-97869600D01*
X37826817Y-97869600D02*
X37731579Y-97774361D01*
X37731579Y-97774361D02*
X37683960Y-97679123D01*
X37683960Y-97679123D02*
X37636341Y-97488647D01*
X37636341Y-97488647D02*
X37636341Y-97345790D01*
X37636341Y-97345790D02*
X37683960Y-97155314D01*
X37683960Y-97155314D02*
X37731579Y-97060076D01*
X37731579Y-97060076D02*
X37826817Y-96964838D01*
X37826817Y-96964838D02*
X37969674Y-96917219D01*
X37969674Y-96917219D02*
X38064912Y-96917219D01*
X38064912Y-96917219D02*
X38207769Y-96964838D01*
X38207769Y-96964838D02*
X38255388Y-97012457D01*
X38969674Y-96917219D02*
X38969674Y-97631504D01*
X38969674Y-97631504D02*
X38922055Y-97774361D01*
X38922055Y-97774361D02*
X38826817Y-97869600D01*
X38826817Y-97869600D02*
X38683960Y-97917219D01*
X38683960Y-97917219D02*
X38588722Y-97917219D01*
X39922055Y-97917219D02*
X39445865Y-97917219D01*
X39445865Y-97917219D02*
X39445865Y-96917219D01*
X40826817Y-97821980D02*
X40779198Y-97869600D01*
X40779198Y-97869600D02*
X40636341Y-97917219D01*
X40636341Y-97917219D02*
X40541103Y-97917219D01*
X40541103Y-97917219D02*
X40398246Y-97869600D01*
X40398246Y-97869600D02*
X40303008Y-97774361D01*
X40303008Y-97774361D02*
X40255389Y-97679123D01*
X40255389Y-97679123D02*
X40207770Y-97488647D01*
X40207770Y-97488647D02*
X40207770Y-97345790D01*
X40207770Y-97345790D02*
X40255389Y-97155314D01*
X40255389Y-97155314D02*
X40303008Y-97060076D01*
X40303008Y-97060076D02*
X40398246Y-96964838D01*
X40398246Y-96964838D02*
X40541103Y-96917219D01*
X40541103Y-96917219D02*
X40636341Y-96917219D01*
X40636341Y-96917219D02*
X40779198Y-96964838D01*
X40779198Y-96964838D02*
X40826817Y-97012457D01*
D11*
G36*
X32556194Y-19512868D02*
G01*
X29414326Y-20977945D01*
X28627917Y-19291486D01*
X28931151Y-19291486D01*
X28940029Y-19368623D01*
X28986285Y-19430986D01*
X29057526Y-19461867D01*
X29134663Y-19452989D01*
X29197026Y-19406733D01*
X29312859Y-19260771D01*
X29322464Y-19238612D01*
X29336316Y-19218830D01*
X29373689Y-19116147D01*
X29861617Y-20162511D01*
X29544409Y-20310428D01*
X29484929Y-20360337D01*
X29458373Y-20433301D01*
X29471856Y-20509767D01*
X29521765Y-20569247D01*
X29594729Y-20595803D01*
X29671195Y-20582320D01*
X30577503Y-20159702D01*
X30636983Y-20109793D01*
X30663539Y-20036829D01*
X30650056Y-19960363D01*
X30600147Y-19900883D01*
X30527183Y-19874327D01*
X30450717Y-19887810D01*
X30133509Y-20035726D01*
X29457320Y-18585633D01*
X29435359Y-18559461D01*
X29415140Y-18531945D01*
X29410599Y-18529952D01*
X29407411Y-18526153D01*
X29375313Y-18514470D01*
X29344037Y-18500748D01*
X29339107Y-18501293D01*
X29334447Y-18499597D01*
X29300811Y-18505527D01*
X29266862Y-18509282D01*
X29262865Y-18512218D01*
X29257981Y-18513080D01*
X29231812Y-18535037D01*
X29204293Y-18555260D01*
X29202300Y-18559800D01*
X29198501Y-18562989D01*
X29186818Y-18595086D01*
X29173096Y-18626363D01*
X29129943Y-18908691D01*
X29062733Y-19093350D01*
X28962032Y-19220245D01*
X28931151Y-19291486D01*
X28627917Y-19291486D01*
X28336649Y-18666859D01*
X29052460Y-18333071D01*
X30301449Y-18333071D01*
X30334264Y-18403442D01*
X30397868Y-18447977D01*
X30475218Y-18454744D01*
X30545589Y-18421929D01*
X30590124Y-18358325D01*
X30622105Y-18270455D01*
X30700795Y-18171298D01*
X31014238Y-18025137D01*
X31140776Y-18028594D01*
X31205776Y-18052252D01*
X31304932Y-18130941D01*
X31350116Y-18227838D01*
X31373414Y-18430272D01*
X30901836Y-19725925D01*
X30900114Y-19745598D01*
X30893361Y-19764155D01*
X30896790Y-19783602D01*
X30895069Y-19803275D01*
X30903414Y-19821172D01*
X30906844Y-19840621D01*
X30919537Y-19855748D01*
X30927883Y-19873646D01*
X30944058Y-19884972D01*
X30956753Y-19900101D01*
X30975310Y-19906855D01*
X30991487Y-19918182D01*
X31011160Y-19919903D01*
X31029717Y-19926657D01*
X31049164Y-19923227D01*
X31068837Y-19924949D01*
X31086734Y-19916603D01*
X31106183Y-19913174D01*
X32088016Y-19455338D01*
X32147496Y-19405429D01*
X32174053Y-19332465D01*
X32160569Y-19255999D01*
X32110660Y-19196519D01*
X32037697Y-19169963D01*
X31961231Y-19183446D01*
X31307600Y-19488238D01*
X31667433Y-18499605D01*
X31670438Y-18465254D01*
X31675495Y-18431152D01*
X31645366Y-18169357D01*
X31636489Y-18146898D01*
X31632296Y-18123114D01*
X31561860Y-17972063D01*
X31539696Y-17945648D01*
X31519158Y-17917959D01*
X31373196Y-17802126D01*
X31351037Y-17792520D01*
X31331255Y-17778669D01*
X31220512Y-17738361D01*
X31196452Y-17736256D01*
X31173305Y-17729371D01*
X30987036Y-17724282D01*
X30953497Y-17732293D01*
X30919546Y-17738280D01*
X30541917Y-17914371D01*
X30515502Y-17936534D01*
X30487813Y-17957073D01*
X30371980Y-18103035D01*
X30362374Y-18125194D01*
X30348523Y-18144977D01*
X30308216Y-18255721D01*
X30301449Y-18333071D01*
X29052460Y-18333071D01*
X31478517Y-17201782D01*
X32556194Y-19512868D01*
G37*
D13*
G36*
X40177591Y-80755663D02*
G01*
X40242013Y-80779111D01*
X40335921Y-80853635D01*
X40466903Y-81134526D01*
X40463629Y-81254368D01*
X40440181Y-81318791D01*
X40365657Y-81412698D01*
X40149502Y-81513493D01*
X40029660Y-81510219D01*
X39965237Y-81486771D01*
X39871330Y-81412247D01*
X39740348Y-81131355D01*
X39743622Y-81011514D01*
X39767070Y-80947091D01*
X39841594Y-80853184D01*
X40057749Y-80752389D01*
X40177591Y-80755663D01*
G37*
G36*
X41105922Y-81524622D02*
G01*
X39759407Y-82152512D01*
X39060533Y-80653773D01*
X39394316Y-80653773D01*
X39397105Y-80670788D01*
X39394993Y-80687901D01*
X39451005Y-80977032D01*
X39457032Y-80987921D01*
X39458549Y-81000276D01*
X39700045Y-81518165D01*
X39715766Y-81535024D01*
X39728513Y-81554235D01*
X39853623Y-81653521D01*
X39868811Y-81659180D01*
X39881584Y-81669159D01*
X39976507Y-81703708D01*
X39992703Y-81704273D01*
X40007978Y-81709702D01*
X40167638Y-81714064D01*
X40189750Y-81707541D01*
X40212631Y-81704732D01*
X40471576Y-81583984D01*
X40488436Y-81568261D01*
X40507645Y-81555516D01*
X40606931Y-81430406D01*
X40612590Y-81415217D01*
X40622569Y-81402445D01*
X40657118Y-81307522D01*
X40657683Y-81291325D01*
X40663112Y-81276051D01*
X40667474Y-81116391D01*
X40660951Y-81094278D01*
X40658142Y-81071398D01*
X40507207Y-80747717D01*
X40491483Y-80730855D01*
X40478739Y-80711648D01*
X40353629Y-80612362D01*
X40338440Y-80606702D01*
X40325668Y-80596724D01*
X40230744Y-80562175D01*
X40214547Y-80561609D01*
X40199273Y-80556181D01*
X40039614Y-80551819D01*
X40017501Y-80558341D01*
X39994621Y-80561151D01*
X39735676Y-80681899D01*
X39718814Y-80697622D01*
X39699607Y-80710367D01*
X39622007Y-80808150D01*
X39594637Y-80666867D01*
X39629434Y-80439196D01*
X39655047Y-80368827D01*
X39729570Y-80274920D01*
X39967121Y-80164147D01*
X40012322Y-80121998D01*
X40024114Y-80061330D01*
X39997995Y-80005316D01*
X39943940Y-79975354D01*
X39882597Y-79982886D01*
X39623652Y-80103635D01*
X39606790Y-80119358D01*
X39587583Y-80132103D01*
X39488297Y-80257214D01*
X39482638Y-80272401D01*
X39472660Y-80285173D01*
X39438110Y-80380096D01*
X39437757Y-80390178D01*
X39433227Y-80399191D01*
X39394316Y-80653773D01*
X39060533Y-80653773D01*
X38859833Y-80223370D01*
X40206348Y-79595480D01*
X41105922Y-81524622D01*
G37*
G36*
X24774124Y-75170759D02*
G01*
X24838546Y-75194207D01*
X24932454Y-75268731D01*
X25063436Y-75549622D01*
X25060162Y-75669463D01*
X25036713Y-75733887D01*
X24962190Y-75827794D01*
X24746035Y-75928589D01*
X24626193Y-75925315D01*
X24561770Y-75901867D01*
X24467863Y-75827343D01*
X24336881Y-75546452D01*
X24340155Y-75426610D01*
X24363603Y-75362187D01*
X24438127Y-75268280D01*
X24654282Y-75167485D01*
X24774124Y-75170759D01*
G37*
G36*
X25943951Y-76457608D02*
G01*
X24597436Y-77085498D01*
X23888224Y-75564588D01*
X24136311Y-75564588D01*
X24142833Y-75586700D01*
X24145643Y-75609581D01*
X24296578Y-75933261D01*
X24312299Y-75950120D01*
X24325046Y-75969331D01*
X24450156Y-76068617D01*
X24465344Y-76074276D01*
X24478117Y-76084255D01*
X24573040Y-76118804D01*
X24589236Y-76119369D01*
X24604511Y-76124798D01*
X24764171Y-76129160D01*
X24786283Y-76122637D01*
X24809164Y-76119828D01*
X25068109Y-75999080D01*
X25084970Y-75983356D01*
X25104179Y-75970611D01*
X25181777Y-75872827D01*
X25209147Y-76014110D01*
X25174348Y-76241784D01*
X25148737Y-76312151D01*
X25074214Y-76406058D01*
X24836663Y-76516830D01*
X24791463Y-76558980D01*
X24779670Y-76619648D01*
X24805789Y-76675661D01*
X24859844Y-76705624D01*
X24921187Y-76698092D01*
X25180133Y-76577344D01*
X25196994Y-76561620D01*
X25216203Y-76548875D01*
X25315488Y-76423765D01*
X25321147Y-76408576D01*
X25331125Y-76395805D01*
X25365674Y-76300882D01*
X25366026Y-76290801D01*
X25370557Y-76281789D01*
X25409469Y-76027206D01*
X25406679Y-76010190D01*
X25408792Y-75993078D01*
X25352780Y-75703946D01*
X25346752Y-75693056D01*
X25345236Y-75680703D01*
X25103740Y-75162813D01*
X25088016Y-75145951D01*
X25075272Y-75126744D01*
X24950162Y-75027458D01*
X24934973Y-75021798D01*
X24922201Y-75011820D01*
X24827277Y-74977271D01*
X24811080Y-74976705D01*
X24795806Y-74971277D01*
X24636147Y-74966915D01*
X24614034Y-74973437D01*
X24591154Y-74976247D01*
X24332209Y-75096995D01*
X24315347Y-75112718D01*
X24296140Y-75125463D01*
X24196854Y-75250573D01*
X24191194Y-75265762D01*
X24181216Y-75278534D01*
X24146667Y-75373457D01*
X24146101Y-75389653D01*
X24140673Y-75404928D01*
X24136311Y-75564588D01*
X23888224Y-75564588D01*
X23697863Y-75156357D01*
X25044378Y-74528467D01*
X25943951Y-76457608D01*
G37*
D11*
G36*
X32556194Y-61512868D02*
G01*
X29414326Y-62977945D01*
X28627917Y-61291486D01*
X28931151Y-61291486D01*
X28940029Y-61368623D01*
X28986285Y-61430986D01*
X29057526Y-61461867D01*
X29134663Y-61452989D01*
X29197026Y-61406733D01*
X29312859Y-61260771D01*
X29322464Y-61238612D01*
X29336316Y-61218830D01*
X29373689Y-61116147D01*
X29861617Y-62162511D01*
X29544409Y-62310428D01*
X29484929Y-62360337D01*
X29458373Y-62433301D01*
X29471856Y-62509767D01*
X29521765Y-62569247D01*
X29594729Y-62595803D01*
X29671195Y-62582320D01*
X30577503Y-62159702D01*
X30636983Y-62109793D01*
X30663539Y-62036829D01*
X30650056Y-61960363D01*
X30600147Y-61900883D01*
X30527183Y-61874327D01*
X30450717Y-61887810D01*
X30133509Y-62035726D01*
X29457320Y-60585633D01*
X29435359Y-60559461D01*
X29415140Y-60531945D01*
X29410599Y-60529952D01*
X29407411Y-60526153D01*
X29375313Y-60514470D01*
X29344037Y-60500748D01*
X29339107Y-60501293D01*
X29334447Y-60499597D01*
X29300811Y-60505527D01*
X29266862Y-60509282D01*
X29262865Y-60512218D01*
X29257981Y-60513080D01*
X29231812Y-60535037D01*
X29204293Y-60555260D01*
X29202300Y-60559800D01*
X29198501Y-60562989D01*
X29186818Y-60595086D01*
X29173096Y-60626363D01*
X29129943Y-60908691D01*
X29062733Y-61093350D01*
X28962032Y-61220245D01*
X28931151Y-61291486D01*
X28627917Y-61291486D01*
X28336649Y-60666859D01*
X29052460Y-60333071D01*
X30301449Y-60333071D01*
X30334264Y-60403442D01*
X30397868Y-60447977D01*
X30475218Y-60454744D01*
X30545589Y-60421929D01*
X30590124Y-60358325D01*
X30622105Y-60270455D01*
X30700795Y-60171298D01*
X31014238Y-60025137D01*
X31140776Y-60028594D01*
X31205776Y-60052252D01*
X31304932Y-60130941D01*
X31350116Y-60227838D01*
X31373414Y-60430272D01*
X30901836Y-61725925D01*
X30900114Y-61745598D01*
X30893361Y-61764155D01*
X30896790Y-61783602D01*
X30895069Y-61803275D01*
X30903414Y-61821172D01*
X30906844Y-61840621D01*
X30919537Y-61855748D01*
X30927883Y-61873646D01*
X30944058Y-61884972D01*
X30956753Y-61900101D01*
X30975310Y-61906855D01*
X30991487Y-61918182D01*
X31011160Y-61919903D01*
X31029717Y-61926657D01*
X31049164Y-61923227D01*
X31068837Y-61924949D01*
X31086734Y-61916603D01*
X31106183Y-61913174D01*
X32088016Y-61455338D01*
X32147496Y-61405429D01*
X32174053Y-61332465D01*
X32160569Y-61255999D01*
X32110660Y-61196519D01*
X32037697Y-61169963D01*
X31961231Y-61183446D01*
X31307600Y-61488238D01*
X31667433Y-60499605D01*
X31670438Y-60465254D01*
X31675495Y-60431152D01*
X31645366Y-60169357D01*
X31636489Y-60146898D01*
X31632296Y-60123114D01*
X31561860Y-59972063D01*
X31539696Y-59945648D01*
X31519158Y-59917959D01*
X31373196Y-59802126D01*
X31351037Y-59792520D01*
X31331255Y-59778669D01*
X31220512Y-59738361D01*
X31196452Y-59736256D01*
X31173305Y-59729371D01*
X30987036Y-59724282D01*
X30953497Y-59732293D01*
X30919546Y-59738280D01*
X30541917Y-59914371D01*
X30515502Y-59936534D01*
X30487813Y-59957073D01*
X30371980Y-60103035D01*
X30362374Y-60125194D01*
X30348523Y-60144977D01*
X30308216Y-60255721D01*
X30301449Y-60333071D01*
X29052460Y-60333071D01*
X31478517Y-59201782D01*
X32556194Y-61512868D01*
G37*
D14*
%TO.C,D6*%
X45189300Y-78565728D02*
X45464002Y-79154828D01*
X45778400Y-78291026D02*
X45189300Y-78565728D01*
%TO.C,TD7*%
X39637827Y-41223967D02*
X39912529Y-41813067D01*
X40226927Y-40949265D02*
X39637827Y-41223967D01*
%TO.C,TD6*%
X45189300Y-36565728D02*
X45464002Y-37154828D01*
X45778400Y-36291026D02*
X45189300Y-36565728D01*
%TO.C,D1*%
X27804515Y-57847349D02*
X28079217Y-58436449D01*
X28393615Y-57572647D02*
X27804515Y-57847349D01*
%TO.C,D4*%
X46409480Y-64619002D02*
X46684182Y-65208102D01*
X46998580Y-64344300D02*
X46409480Y-64619002D01*
%TO.C,D2*%
X34941351Y-56588932D02*
X35216053Y-57178032D01*
X35530451Y-56314230D02*
X34941351Y-56588932D01*
%TO.C,D5*%
X47667897Y-71755838D02*
X47942599Y-72344938D01*
X48256997Y-71481136D02*
X47667897Y-71755838D01*
%TO.C,TD3*%
X41751241Y-17067529D02*
X42025943Y-17656629D01*
X42340341Y-16792827D02*
X41751241Y-17067529D01*
%TO.C,TD9*%
X25691101Y-40003787D02*
X25965803Y-40592887D01*
X26280201Y-39729085D02*
X25691101Y-40003787D01*
%TO.C,TD12*%
X22253042Y-20505588D02*
X22527744Y-21094688D01*
X22842142Y-20230886D02*
X22253042Y-20505588D01*
%TO.C,D12*%
X22253042Y-62505588D02*
X22527744Y-63094688D01*
X22842142Y-62230886D02*
X22253042Y-62505588D01*
%TO.C,D9*%
X25691101Y-82003787D02*
X25965803Y-82592887D01*
X26280201Y-81729085D02*
X25691101Y-82003787D01*
%TO.C,D7*%
X39637827Y-83223967D02*
X39912529Y-83813067D01*
X40226927Y-82949265D02*
X39637827Y-83223967D01*
%TO.C,TD5*%
X47667897Y-29755838D02*
X47942599Y-30344938D01*
X48256997Y-29481136D02*
X47667897Y-29755838D01*
%TO.C,D10*%
X21032862Y-76452314D02*
X21307564Y-77041414D01*
X21621962Y-76177612D02*
X21032862Y-76452314D01*
%TO.C,G\u002A\u002A\u002A*%
G36*
X33126294Y-22546041D02*
G01*
X33145516Y-22550992D01*
X33163172Y-22559808D01*
X33178648Y-22572311D01*
X33182714Y-22576687D01*
X33184137Y-22578463D01*
X33185775Y-22580839D01*
X33187733Y-22584027D01*
X33190115Y-22588248D01*
X33193025Y-22593719D01*
X33196567Y-22600656D01*
X33200843Y-22609276D01*
X33205961Y-22619798D01*
X33212022Y-22632439D01*
X33219131Y-22647416D01*
X33227392Y-22664945D01*
X33236909Y-22685245D01*
X33247786Y-22708533D01*
X33260127Y-22735025D01*
X33274035Y-22764940D01*
X33289616Y-22798495D01*
X33306972Y-22835907D01*
X33312696Y-22848248D01*
X33434001Y-23109837D01*
X33433977Y-23124561D01*
X33431809Y-23145378D01*
X33425622Y-23164623D01*
X33415788Y-23181836D01*
X33402676Y-23196557D01*
X33386659Y-23208327D01*
X33368107Y-23216687D01*
X33357152Y-23219625D01*
X33344040Y-23220924D01*
X33329149Y-23220167D01*
X33314658Y-23217576D01*
X33304779Y-23214315D01*
X33296023Y-23209775D01*
X33286312Y-23203606D01*
X33279268Y-23198348D01*
X33266573Y-23187910D01*
X33142235Y-22921267D01*
X33017897Y-22654623D01*
X33018211Y-22637935D01*
X33020668Y-22618569D01*
X33026982Y-22600223D01*
X33036674Y-22583533D01*
X33049263Y-22569137D01*
X33064270Y-22557672D01*
X33081215Y-22549773D01*
X33085613Y-22548453D01*
X33106121Y-22545136D01*
X33126294Y-22546041D01*
G37*
G36*
X32949893Y-22885392D02*
G01*
X32983213Y-22890433D01*
X33015661Y-22899649D01*
X33046704Y-22912932D01*
X33071296Y-22927144D01*
X33097495Y-22946963D01*
X33120695Y-22969948D01*
X33140684Y-22995657D01*
X33157254Y-23023651D01*
X33170196Y-23053490D01*
X33179300Y-23084731D01*
X33184359Y-23116937D01*
X33185162Y-23149664D01*
X33184057Y-23164666D01*
X33178246Y-23198914D01*
X33168268Y-23231458D01*
X33154249Y-23262060D01*
X33136318Y-23290484D01*
X33114600Y-23316491D01*
X33091786Y-23337745D01*
X33078093Y-23347838D01*
X33061440Y-23358168D01*
X33043163Y-23368049D01*
X33024595Y-23376795D01*
X33007071Y-23383723D01*
X32995099Y-23387395D01*
X32961843Y-23393666D01*
X32929021Y-23395602D01*
X32896926Y-23393421D01*
X32865846Y-23387344D01*
X32836075Y-23377588D01*
X32807902Y-23364373D01*
X32781619Y-23347919D01*
X32757517Y-23328444D01*
X32735887Y-23306168D01*
X32717021Y-23281310D01*
X32701209Y-23254088D01*
X32696464Y-23242913D01*
X32688742Y-23224722D01*
X32679912Y-23193431D01*
X32675009Y-23160434D01*
X32674183Y-23145832D01*
X32674309Y-23142669D01*
X32862696Y-23142669D01*
X32864208Y-23151931D01*
X32867952Y-23162946D01*
X32873176Y-23174079D01*
X32879131Y-23183690D01*
X32884085Y-23189334D01*
X32893884Y-23195969D01*
X32906306Y-23201527D01*
X32919428Y-23205296D01*
X32930518Y-23206567D01*
X32945313Y-23204538D01*
X32960018Y-23198896D01*
X32973108Y-23190355D01*
X32980268Y-23183299D01*
X32989318Y-23169155D01*
X32994913Y-23152891D01*
X32996563Y-23139244D01*
X32996092Y-23130883D01*
X32993981Y-23122532D01*
X32989755Y-23112342D01*
X32989586Y-23111980D01*
X32981459Y-23098008D01*
X32971408Y-23087594D01*
X32958475Y-23079838D01*
X32952879Y-23077506D01*
X32937164Y-23073832D01*
X32920928Y-23074154D01*
X32905170Y-23078216D01*
X32890885Y-23085762D01*
X32879160Y-23096430D01*
X32872239Y-23107136D01*
X32866742Y-23120248D01*
X32863385Y-23133759D01*
X32862696Y-23142669D01*
X32674309Y-23142669D01*
X32675474Y-23113323D01*
X32681108Y-23081176D01*
X32690868Y-23049864D01*
X32704539Y-23019862D01*
X32721902Y-22991641D01*
X32742742Y-22965678D01*
X32766841Y-22942445D01*
X32767424Y-22941953D01*
X32774279Y-22936323D01*
X32780449Y-22931688D01*
X32786834Y-22927522D01*
X32794332Y-22923299D01*
X32803839Y-22918490D01*
X32816253Y-22912569D01*
X32822302Y-22909739D01*
X32836183Y-22903331D01*
X32846953Y-22898570D01*
X32855601Y-22895110D01*
X32863116Y-22892596D01*
X32870487Y-22890681D01*
X32878702Y-22889011D01*
X32882755Y-22888278D01*
X32916230Y-22884637D01*
X32949893Y-22885392D01*
G37*
G36*
X34442609Y-22190171D02*
G01*
X34476715Y-22195596D01*
X34487287Y-22198188D01*
X34507904Y-22204875D01*
X34524752Y-22213200D01*
X34538485Y-22223670D01*
X34549755Y-22236796D01*
X34559214Y-22253084D01*
X34560152Y-22255048D01*
X34564490Y-22264722D01*
X34567099Y-22272115D01*
X34568401Y-22278968D01*
X34568821Y-22287018D01*
X34568838Y-22290653D01*
X34566754Y-22311958D01*
X34560852Y-22331236D01*
X34551537Y-22348190D01*
X34539213Y-22362521D01*
X34524283Y-22373926D01*
X34507153Y-22382109D01*
X34488227Y-22386769D01*
X34467909Y-22387607D01*
X34446603Y-22384324D01*
X34443469Y-22383491D01*
X34424313Y-22380044D01*
X34406717Y-22380827D01*
X34390767Y-22385822D01*
X34376558Y-22395008D01*
X34371680Y-22399546D01*
X34363066Y-22411050D01*
X34356672Y-22425051D01*
X34353234Y-22439730D01*
X34352847Y-22446083D01*
X34354571Y-22458216D01*
X34359177Y-22471346D01*
X34365870Y-22483772D01*
X34373858Y-22493788D01*
X34375951Y-22495704D01*
X34390127Y-22504851D01*
X34405861Y-22510028D01*
X34422331Y-22511155D01*
X34438712Y-22508152D01*
X34450763Y-22502968D01*
X34460632Y-22496566D01*
X34468647Y-22488933D01*
X34475706Y-22479012D01*
X34482701Y-22465748D01*
X34483222Y-22464644D01*
X34494397Y-22445536D01*
X34508252Y-22430026D01*
X34524660Y-22418226D01*
X34543493Y-22410252D01*
X34544533Y-22409945D01*
X34564095Y-22406511D01*
X34583500Y-22407243D01*
X34602155Y-22411817D01*
X34619469Y-22419906D01*
X34634853Y-22431187D01*
X34647716Y-22445334D01*
X34657466Y-22462023D01*
X34661971Y-22474496D01*
X34665405Y-22492347D01*
X34665310Y-22509659D01*
X34661610Y-22527677D01*
X34658003Y-22538353D01*
X34644415Y-22567969D01*
X34626844Y-22595721D01*
X34605630Y-22621211D01*
X34581108Y-22644040D01*
X34553618Y-22663811D01*
X34549253Y-22666493D01*
X34540183Y-22671900D01*
X34533234Y-22675818D01*
X34527049Y-22678877D01*
X34520271Y-22681708D01*
X34511542Y-22684941D01*
X34503052Y-22687954D01*
X34471397Y-22696766D01*
X34439067Y-22701273D01*
X34406523Y-22701588D01*
X34374229Y-22697821D01*
X34342647Y-22690086D01*
X34312242Y-22678495D01*
X34283474Y-22663161D01*
X34256808Y-22644194D01*
X34233585Y-22622643D01*
X34217033Y-22603463D01*
X34203046Y-22583317D01*
X34190570Y-22560630D01*
X34187170Y-22553537D01*
X34176891Y-22528932D01*
X34169676Y-22505319D01*
X34165001Y-22480874D01*
X34164067Y-22473561D01*
X34162532Y-22440930D01*
X34165292Y-22408306D01*
X34172162Y-22376250D01*
X34182959Y-22345323D01*
X34197497Y-22316087D01*
X34215592Y-22289105D01*
X34230204Y-22271936D01*
X34255625Y-22248030D01*
X34283187Y-22228054D01*
X34312590Y-22212098D01*
X34343534Y-22200245D01*
X34375718Y-22192583D01*
X34408843Y-22189196D01*
X34442609Y-22190171D01*
G37*
G36*
X33628000Y-22320289D02*
G01*
X33646373Y-22328039D01*
X33662836Y-22339761D01*
X33676987Y-22355274D01*
X33679361Y-22358603D01*
X33688537Y-22375856D01*
X33693722Y-22394428D01*
X33695005Y-22413605D01*
X33692482Y-22432675D01*
X33686243Y-22450925D01*
X33676381Y-22467642D01*
X33663441Y-22481719D01*
X33658147Y-22485824D01*
X33651021Y-22490309D01*
X33641420Y-22495529D01*
X33628705Y-22501835D01*
X33616914Y-22507411D01*
X33580083Y-22524585D01*
X33673296Y-22724587D01*
X33688773Y-22757853D01*
X33703227Y-22789029D01*
X33716557Y-22817900D01*
X33728669Y-22844255D01*
X33739465Y-22867881D01*
X33748849Y-22888563D01*
X33756724Y-22906090D01*
X33762993Y-22920249D01*
X33767560Y-22930827D01*
X33770327Y-22937611D01*
X33771048Y-22939650D01*
X33775062Y-22960319D01*
X33774593Y-22980479D01*
X33769700Y-22999821D01*
X33760441Y-23018036D01*
X33754469Y-23026282D01*
X33747859Y-23034163D01*
X33742135Y-23039727D01*
X33735702Y-23044259D01*
X33726971Y-23049040D01*
X33724881Y-23050103D01*
X33714422Y-23054902D01*
X33704461Y-23058633D01*
X33696700Y-23060659D01*
X33696673Y-23060664D01*
X33676545Y-23061573D01*
X33656818Y-23058178D01*
X33638184Y-23050725D01*
X33621336Y-23039465D01*
X33611638Y-23030187D01*
X33609996Y-23028301D01*
X33608304Y-23026117D01*
X33606439Y-23023386D01*
X33604279Y-23019858D01*
X33601702Y-23015281D01*
X33598587Y-23009408D01*
X33594811Y-23001986D01*
X33590250Y-22992765D01*
X33584786Y-22981497D01*
X33578295Y-22967929D01*
X33570654Y-22951813D01*
X33561743Y-22932897D01*
X33551439Y-22910932D01*
X33539620Y-22885667D01*
X33526163Y-22856852D01*
X33510947Y-22824237D01*
X33505304Y-22812136D01*
X33408522Y-22604586D01*
X33372534Y-22621367D01*
X33355490Y-22629063D01*
X33341522Y-22634702D01*
X33329756Y-22638506D01*
X33319319Y-22640702D01*
X33309336Y-22641515D01*
X33298935Y-22641169D01*
X33296458Y-22640955D01*
X33278511Y-22637073D01*
X33261451Y-22629253D01*
X33246004Y-22618114D01*
X33232892Y-22604281D01*
X33222838Y-22588371D01*
X33217012Y-22572816D01*
X33213899Y-22552151D01*
X33215123Y-22531970D01*
X33220490Y-22512812D01*
X33229804Y-22495217D01*
X33242870Y-22479725D01*
X33253993Y-22470529D01*
X33258780Y-22467673D01*
X33267726Y-22462957D01*
X33280828Y-22456384D01*
X33298079Y-22447956D01*
X33319477Y-22437675D01*
X33345016Y-22425542D01*
X33374693Y-22411561D01*
X33408501Y-22395733D01*
X33418598Y-22391021D01*
X33447516Y-22377541D01*
X33472608Y-22365860D01*
X33494177Y-22355846D01*
X33512532Y-22347365D01*
X33527976Y-22340282D01*
X33540815Y-22334466D01*
X33551353Y-22329783D01*
X33559897Y-22326099D01*
X33566751Y-22323281D01*
X33572221Y-22321196D01*
X33576612Y-22319710D01*
X33580229Y-22318691D01*
X33583378Y-22318004D01*
X33586363Y-22317517D01*
X33587122Y-22317410D01*
X33608117Y-22316685D01*
X33628000Y-22320289D01*
G37*
G36*
X34056094Y-22356277D02*
G01*
X34073207Y-22362306D01*
X34088911Y-22371445D01*
X34102623Y-22383535D01*
X34113768Y-22398420D01*
X34121765Y-22415940D01*
X34123038Y-22420108D01*
X34125327Y-22431054D01*
X34126718Y-22443189D01*
X34126937Y-22451450D01*
X34126400Y-22456036D01*
X34124985Y-22464727D01*
X34122762Y-22477166D01*
X34119802Y-22492994D01*
X34116173Y-22511854D01*
X34111946Y-22533390D01*
X34107192Y-22557245D01*
X34101980Y-22583060D01*
X34096378Y-22610478D01*
X34090459Y-22639144D01*
X34086189Y-22659638D01*
X34079204Y-22693070D01*
X34071807Y-22728508D01*
X34064151Y-22765224D01*
X34056389Y-22802488D01*
X34048672Y-22839570D01*
X34041150Y-22875741D01*
X34033977Y-22910269D01*
X34027305Y-22942428D01*
X34021283Y-22971487D01*
X34016692Y-22993687D01*
X34010388Y-23024127D01*
X34004884Y-23050444D01*
X34000077Y-23072986D01*
X33995863Y-23092101D01*
X33992139Y-23108138D01*
X33988801Y-23121443D01*
X33985746Y-23132365D01*
X33982870Y-23141252D01*
X33980069Y-23148453D01*
X33977241Y-23154314D01*
X33974279Y-23159184D01*
X33971085Y-23163411D01*
X33967550Y-23167343D01*
X33963933Y-23170976D01*
X33948693Y-23183157D01*
X33931381Y-23192334D01*
X33914506Y-23197531D01*
X33896085Y-23198969D01*
X33877118Y-23196452D01*
X33858660Y-23190300D01*
X33841761Y-23180831D01*
X33831415Y-23172391D01*
X33822399Y-23161585D01*
X33814350Y-23147894D01*
X33808032Y-23132961D01*
X33804212Y-23118430D01*
X33803509Y-23112427D01*
X33803329Y-23109557D01*
X33803202Y-23106916D01*
X33803183Y-23104195D01*
X33803330Y-23101084D01*
X33803701Y-23097271D01*
X33804353Y-23092445D01*
X33805342Y-23086298D01*
X33806728Y-23078518D01*
X33808568Y-23068795D01*
X33810917Y-23056818D01*
X33813835Y-23042277D01*
X33817378Y-23024862D01*
X33821604Y-23004262D01*
X33826571Y-22980166D01*
X33832335Y-22952266D01*
X33838955Y-22920249D01*
X33839898Y-22915689D01*
X33871800Y-22761371D01*
X33778006Y-22710805D01*
X33758668Y-22700309D01*
X33740346Y-22690231D01*
X33723479Y-22680822D01*
X33708505Y-22672333D01*
X33695866Y-22665015D01*
X33686000Y-22659118D01*
X33679347Y-22654895D01*
X33676535Y-22652799D01*
X33663395Y-22637087D01*
X33653963Y-22619359D01*
X33648404Y-22600298D01*
X33646880Y-22580589D01*
X33649556Y-22560913D01*
X33652332Y-22551815D01*
X33661219Y-22533597D01*
X33673279Y-22518236D01*
X33687960Y-22505959D01*
X33704705Y-22496995D01*
X33722961Y-22491570D01*
X33742174Y-22489916D01*
X33761788Y-22492259D01*
X33781139Y-22498777D01*
X33785651Y-22500993D01*
X33793549Y-22505051D01*
X33804203Y-22510618D01*
X33816987Y-22517366D01*
X33831272Y-22524965D01*
X33846432Y-22533084D01*
X33847102Y-22533444D01*
X33861916Y-22541391D01*
X33875543Y-22548670D01*
X33887431Y-22554986D01*
X33897027Y-22560048D01*
X33903776Y-22563563D01*
X33907126Y-22565238D01*
X33907267Y-22565299D01*
X33908553Y-22564959D01*
X33909992Y-22562658D01*
X33911696Y-22557994D01*
X33913772Y-22550566D01*
X33916331Y-22539970D01*
X33919482Y-22525807D01*
X33923334Y-22507673D01*
X33924542Y-22501881D01*
X33929661Y-22477565D01*
X33934120Y-22457248D01*
X33938098Y-22440446D01*
X33941768Y-22426674D01*
X33945311Y-22415447D01*
X33948900Y-22406281D01*
X33952714Y-22398688D01*
X33956928Y-22392189D01*
X33961719Y-22386294D01*
X33967264Y-22380522D01*
X33969580Y-22378284D01*
X33985081Y-22366404D01*
X34002061Y-22358420D01*
X34019942Y-22354176D01*
X34038144Y-22353514D01*
X34056094Y-22356277D01*
G37*
G36*
X32441772Y-22863509D02*
G01*
X32460483Y-22868160D01*
X32478101Y-22876705D01*
X32494038Y-22889089D01*
X32501965Y-22897623D01*
X32503505Y-22899649D01*
X32505318Y-22902394D01*
X32507510Y-22906080D01*
X32510188Y-22910929D01*
X32513460Y-22917164D01*
X32517432Y-22925010D01*
X32522213Y-22934687D01*
X32527908Y-22946420D01*
X32534626Y-22960429D01*
X32542473Y-22976941D01*
X32551557Y-22996176D01*
X32561987Y-23018357D01*
X32573867Y-23043709D01*
X32587305Y-23072452D01*
X32602410Y-23104812D01*
X32619288Y-23141009D01*
X32625591Y-23154531D01*
X32641522Y-23188764D01*
X32656732Y-23221528D01*
X32671110Y-23252585D01*
X32684548Y-23281699D01*
X32696936Y-23308630D01*
X32708167Y-23333141D01*
X32718132Y-23354994D01*
X32726722Y-23373952D01*
X32733827Y-23389774D01*
X32739339Y-23402224D01*
X32743151Y-23411063D01*
X32745152Y-23416054D01*
X32745310Y-23416523D01*
X32749667Y-23437199D01*
X32749526Y-23457326D01*
X32744929Y-23476664D01*
X32735922Y-23494976D01*
X32729067Y-23504570D01*
X32723073Y-23511842D01*
X32718142Y-23516930D01*
X32712941Y-23520854D01*
X32706133Y-23524634D01*
X32697203Y-23528906D01*
X32683425Y-23534821D01*
X32671887Y-23538377D01*
X32661090Y-23539828D01*
X32649536Y-23539431D01*
X32641450Y-23538385D01*
X32622257Y-23533199D01*
X32604192Y-23523929D01*
X32590890Y-23513604D01*
X32588517Y-23511324D01*
X32586273Y-23508845D01*
X32583945Y-23505768D01*
X32581318Y-23501692D01*
X32578180Y-23496219D01*
X32574314Y-23488946D01*
X32569509Y-23479475D01*
X32563551Y-23467407D01*
X32556224Y-23452340D01*
X32547316Y-23433875D01*
X32538952Y-23416481D01*
X32496472Y-23328082D01*
X32435757Y-23355727D01*
X32375041Y-23383372D01*
X32412997Y-23464767D01*
X32421915Y-23484032D01*
X32430172Y-23502138D01*
X32437552Y-23518593D01*
X32443838Y-23532905D01*
X32448816Y-23544582D01*
X32452267Y-23553134D01*
X32453978Y-23558068D01*
X32453991Y-23558118D01*
X32456891Y-23578072D01*
X32455638Y-23597527D01*
X32450582Y-23615965D01*
X32442068Y-23632867D01*
X32430445Y-23647714D01*
X32416058Y-23659988D01*
X32399256Y-23669170D01*
X32380385Y-23674743D01*
X32375380Y-23675512D01*
X32364540Y-23676600D01*
X32355855Y-23676567D01*
X32347410Y-23675210D01*
X32337286Y-23672328D01*
X32333464Y-23671078D01*
X32315212Y-23662700D01*
X32299035Y-23650656D01*
X32287957Y-23638460D01*
X32286024Y-23635325D01*
X32282787Y-23629293D01*
X32278192Y-23620252D01*
X32272187Y-23608090D01*
X32264717Y-23592697D01*
X32255731Y-23573959D01*
X32245174Y-23551765D01*
X32232992Y-23526006D01*
X32219134Y-23496566D01*
X32203545Y-23463336D01*
X32186172Y-23426203D01*
X32166962Y-23385057D01*
X32163182Y-23376953D01*
X32145226Y-23338448D01*
X32129094Y-23303850D01*
X32114693Y-23272930D01*
X32101926Y-23245457D01*
X32090697Y-23221202D01*
X32080911Y-23199934D01*
X32072472Y-23181425D01*
X32065285Y-23165443D01*
X32059252Y-23151761D01*
X32054279Y-23140147D01*
X32050269Y-23130372D01*
X32047128Y-23122206D01*
X32044758Y-23115420D01*
X32043065Y-23109783D01*
X32041953Y-23105065D01*
X32041325Y-23101038D01*
X32041086Y-23097471D01*
X32041140Y-23094134D01*
X32041393Y-23090798D01*
X32041746Y-23087232D01*
X32041873Y-23085928D01*
X32045833Y-23066532D01*
X32053639Y-23048557D01*
X32064795Y-23032609D01*
X32078800Y-23019295D01*
X32095156Y-23009218D01*
X32109340Y-23003967D01*
X32130055Y-23000569D01*
X32150240Y-23001502D01*
X32169382Y-23006587D01*
X32186973Y-23015644D01*
X32202500Y-23028492D01*
X32212262Y-23040196D01*
X32215459Y-23045453D01*
X32220343Y-23054547D01*
X32226749Y-23067146D01*
X32234513Y-23082919D01*
X32243470Y-23101532D01*
X32253455Y-23122655D01*
X32257656Y-23131639D01*
X32295070Y-23211873D01*
X32355013Y-23183921D01*
X32414956Y-23155969D01*
X32379094Y-23078955D01*
X32370704Y-23060793D01*
X32362754Y-23043304D01*
X32355499Y-23027071D01*
X32349192Y-23012672D01*
X32344088Y-23000690D01*
X32340441Y-22991703D01*
X32338566Y-22986499D01*
X32334530Y-22965894D01*
X32334764Y-22945657D01*
X32339113Y-22926333D01*
X32347418Y-22908469D01*
X32359522Y-22892616D01*
X32367745Y-22884948D01*
X32384955Y-22873470D01*
X32403421Y-22866108D01*
X32422555Y-22862806D01*
X32441772Y-22863509D01*
G37*
G36*
X31716638Y-20120967D02*
G01*
X31753199Y-20129458D01*
X31773074Y-20135919D01*
X31806158Y-20149937D01*
X31836898Y-20167582D01*
X31865568Y-20189054D01*
X31892444Y-20214550D01*
X31910708Y-20235354D01*
X31926413Y-20254564D01*
X32400150Y-21270496D01*
X32436258Y-21347934D01*
X32470489Y-21421346D01*
X32502893Y-21490844D01*
X32533520Y-21556536D01*
X32562420Y-21618533D01*
X32589645Y-21676943D01*
X32615245Y-21731875D01*
X32639270Y-21783440D01*
X32661770Y-21831747D01*
X32682797Y-21876903D01*
X32702402Y-21919021D01*
X32720633Y-21958208D01*
X32737543Y-21994575D01*
X32753180Y-22028230D01*
X32767598Y-22059283D01*
X32780844Y-22087843D01*
X32792970Y-22114021D01*
X32804028Y-22137924D01*
X32814067Y-22159664D01*
X32823137Y-22179348D01*
X32831289Y-22197086D01*
X32838575Y-22212989D01*
X32845043Y-22227165D01*
X32850746Y-22239723D01*
X32855734Y-22250774D01*
X32860056Y-22260426D01*
X32863763Y-22268788D01*
X32866906Y-22275971D01*
X32869537Y-22282084D01*
X32871704Y-22287235D01*
X32873459Y-22291536D01*
X32874852Y-22295093D01*
X32875934Y-22298018D01*
X32876755Y-22300420D01*
X32877365Y-22302409D01*
X32877816Y-22304093D01*
X32878056Y-22305108D01*
X32884459Y-22342567D01*
X32886592Y-22378808D01*
X32884428Y-22414280D01*
X32877941Y-22449436D01*
X32867626Y-22483290D01*
X32852739Y-22517954D01*
X32834111Y-22550012D01*
X32811732Y-22579478D01*
X32785590Y-22606368D01*
X32763645Y-22624749D01*
X32751907Y-22632812D01*
X32737010Y-22641606D01*
X32720159Y-22650538D01*
X32702558Y-22659010D01*
X32685410Y-22666429D01*
X32669923Y-22672198D01*
X32663898Y-22674073D01*
X32627498Y-22682222D01*
X32591086Y-22685923D01*
X32554967Y-22685280D01*
X32519446Y-22680397D01*
X32484826Y-22671374D01*
X32451410Y-22658318D01*
X32419505Y-22641329D01*
X32389414Y-22620511D01*
X32361442Y-22595968D01*
X32335892Y-22567803D01*
X32330634Y-22561141D01*
X32328929Y-22558910D01*
X32327276Y-22556666D01*
X32325585Y-22554224D01*
X32323764Y-22551396D01*
X32321723Y-22547994D01*
X32319372Y-22543829D01*
X32316621Y-22538714D01*
X32313378Y-22532462D01*
X32309553Y-22524884D01*
X32305055Y-22515793D01*
X32299794Y-22505000D01*
X32293679Y-22492319D01*
X32286620Y-22477561D01*
X32278526Y-22460538D01*
X32269307Y-22441063D01*
X32258872Y-22418948D01*
X32247129Y-22394005D01*
X32233990Y-22366046D01*
X32219363Y-22334883D01*
X32203157Y-22300330D01*
X32185282Y-22262197D01*
X32165648Y-22220297D01*
X32145588Y-22177481D01*
X31974078Y-21811416D01*
X31765404Y-21908722D01*
X31556730Y-22006029D01*
X31728907Y-22376815D01*
X31901085Y-22747603D01*
X31905270Y-22771028D01*
X31910091Y-22807442D01*
X31911101Y-22842061D01*
X31908249Y-22875669D01*
X31901486Y-22909049D01*
X31895207Y-22930279D01*
X31881490Y-22964638D01*
X31863775Y-22996935D01*
X31842255Y-23026918D01*
X31817119Y-23054331D01*
X31788558Y-23078925D01*
X31776876Y-23087457D01*
X31765401Y-23094642D01*
X31750835Y-23102547D01*
X31734453Y-23110580D01*
X31717533Y-23118150D01*
X31701349Y-23124665D01*
X31687180Y-23129534D01*
X31684220Y-23130392D01*
X31662464Y-23135279D01*
X31638385Y-23138763D01*
X31614075Y-23140599D01*
X31596330Y-23140731D01*
X31558513Y-23137450D01*
X31522095Y-23129905D01*
X31487333Y-23118243D01*
X31454481Y-23102617D01*
X31423794Y-23083174D01*
X31395529Y-23060066D01*
X31369939Y-23033442D01*
X31347281Y-23003454D01*
X31338200Y-22989053D01*
X31335418Y-22983908D01*
X31330753Y-22974661D01*
X31324226Y-22961359D01*
X31315857Y-22944046D01*
X31305669Y-22922766D01*
X31293682Y-22897564D01*
X31279918Y-22868484D01*
X31264397Y-22835571D01*
X31247141Y-22798870D01*
X31228169Y-22758425D01*
X31207505Y-22714280D01*
X31185168Y-22666481D01*
X31162305Y-22617482D01*
X30998552Y-22266312D01*
X30643489Y-22431880D01*
X30594242Y-22454829D01*
X30548140Y-22476280D01*
X30505264Y-22496199D01*
X30465693Y-22514546D01*
X30429504Y-22531288D01*
X30396778Y-22546387D01*
X30367594Y-22559807D01*
X30342030Y-22571512D01*
X30320165Y-22581465D01*
X30302078Y-22589630D01*
X30287848Y-22595972D01*
X30277555Y-22600452D01*
X30271277Y-22603037D01*
X30269937Y-22603523D01*
X30242089Y-22611528D01*
X30215324Y-22616675D01*
X30187832Y-22619237D01*
X30162865Y-22619588D01*
X30126105Y-22616785D01*
X30090434Y-22609631D01*
X30056108Y-22598259D01*
X30023384Y-22582802D01*
X29992514Y-22563394D01*
X29963758Y-22540167D01*
X29937371Y-22513257D01*
X29921648Y-22493902D01*
X29909988Y-22476568D01*
X29898552Y-22456158D01*
X29888020Y-22434133D01*
X29879075Y-22411955D01*
X29872399Y-22391088D01*
X29870895Y-22385108D01*
X29864407Y-22347466D01*
X29862428Y-22310042D01*
X29864927Y-22273063D01*
X29871871Y-22236752D01*
X29883229Y-22201338D01*
X29898969Y-22167046D01*
X29902395Y-22160776D01*
X29918680Y-22134825D01*
X29937513Y-22110783D01*
X29959610Y-22087810D01*
X29979563Y-22070101D01*
X29997802Y-22054865D01*
X30367975Y-21881526D01*
X30738148Y-21708189D01*
X30568511Y-21342562D01*
X30546965Y-21296131D01*
X30527245Y-21253649D01*
X30509271Y-21214915D01*
X30492956Y-21179737D01*
X30478221Y-21147918D01*
X30464980Y-21119261D01*
X30453151Y-21093571D01*
X30442650Y-21070654D01*
X30433396Y-21050311D01*
X30425304Y-21032348D01*
X30418292Y-21016567D01*
X30412278Y-21002776D01*
X30407177Y-20990776D01*
X30402906Y-20980373D01*
X30399383Y-20971369D01*
X30396524Y-20963571D01*
X30394247Y-20956780D01*
X30392470Y-20950803D01*
X30391106Y-20945442D01*
X30390076Y-20940502D01*
X30389295Y-20935789D01*
X30388680Y-20931104D01*
X30388149Y-20926253D01*
X30387618Y-20921039D01*
X30387005Y-20915267D01*
X30386881Y-20914178D01*
X30384744Y-20876643D01*
X30387041Y-20840128D01*
X30393797Y-20804502D01*
X30405039Y-20769628D01*
X30420664Y-20735614D01*
X30439879Y-20703978D01*
X30462249Y-20675413D01*
X30487442Y-20650045D01*
X30515129Y-20628004D01*
X30544979Y-20609416D01*
X30576662Y-20594410D01*
X30609846Y-20583112D01*
X30644203Y-20575650D01*
X30679400Y-20572152D01*
X30715108Y-20572746D01*
X30750996Y-20577559D01*
X30786734Y-20586719D01*
X30797100Y-20590235D01*
X30830566Y-20604574D01*
X30862053Y-20622915D01*
X30891657Y-20645329D01*
X30919478Y-20671887D01*
X30937103Y-20691954D01*
X30949823Y-20707439D01*
X31123387Y-21076951D01*
X31296952Y-21446463D01*
X31505399Y-21349903D01*
X31713846Y-21253344D01*
X31543154Y-20885626D01*
X31372462Y-20517908D01*
X31368088Y-20496811D01*
X31362149Y-20460040D01*
X31360074Y-20425090D01*
X31361904Y-20391296D01*
X31367683Y-20357991D01*
X31377452Y-20324508D01*
X31379172Y-20319685D01*
X31393091Y-20286679D01*
X31409779Y-20256887D01*
X31429710Y-20229582D01*
X31453357Y-20204034D01*
X31456456Y-20201063D01*
X31472276Y-20186853D01*
X31487592Y-20174920D01*
X31503728Y-20164381D01*
X31522007Y-20154350D01*
X31537671Y-20146743D01*
X31573166Y-20132481D01*
X31608745Y-20122775D01*
X31644475Y-20117623D01*
X31680418Y-20117022D01*
X31716638Y-20120967D01*
G37*
%TO.C,D11*%
X19774445Y-69315478D02*
X20049147Y-69904578D01*
X20363545Y-69040776D02*
X19774445Y-69315478D01*
%TO.C,TD11*%
X19774445Y-27315478D02*
X20049147Y-27904578D01*
X20363545Y-27040776D02*
X19774445Y-27315478D01*
%TO.C,D8*%
X32500991Y-84482384D02*
X32775693Y-85071484D01*
X33090091Y-84207682D02*
X32500991Y-84482384D01*
%TO.C,TD1*%
X27804515Y-15847349D02*
X28079217Y-16436449D01*
X28393615Y-15572647D02*
X27804515Y-15847349D01*
%TO.C,TD2*%
X34941351Y-14588932D02*
X35216053Y-15178032D01*
X35530451Y-14314230D02*
X34941351Y-14588932D01*
%TO.C,TD4*%
X46409480Y-22619002D02*
X46684182Y-23208102D01*
X46998580Y-22344300D02*
X46409480Y-22619002D01*
%TO.C,G\u002A\u002A\u002A*%
G36*
X33126294Y-64546041D02*
G01*
X33145516Y-64550992D01*
X33163172Y-64559808D01*
X33178648Y-64572311D01*
X33182714Y-64576687D01*
X33184137Y-64578463D01*
X33185775Y-64580839D01*
X33187733Y-64584027D01*
X33190115Y-64588248D01*
X33193025Y-64593719D01*
X33196567Y-64600656D01*
X33200843Y-64609276D01*
X33205961Y-64619798D01*
X33212022Y-64632439D01*
X33219131Y-64647416D01*
X33227392Y-64664945D01*
X33236909Y-64685245D01*
X33247786Y-64708533D01*
X33260127Y-64735025D01*
X33274035Y-64764940D01*
X33289616Y-64798495D01*
X33306972Y-64835907D01*
X33312696Y-64848248D01*
X33434001Y-65109837D01*
X33433977Y-65124561D01*
X33431809Y-65145378D01*
X33425622Y-65164623D01*
X33415788Y-65181836D01*
X33402676Y-65196557D01*
X33386659Y-65208327D01*
X33368107Y-65216687D01*
X33357152Y-65219625D01*
X33344040Y-65220924D01*
X33329149Y-65220167D01*
X33314658Y-65217576D01*
X33304779Y-65214315D01*
X33296023Y-65209775D01*
X33286312Y-65203606D01*
X33279268Y-65198348D01*
X33266573Y-65187910D01*
X33142235Y-64921267D01*
X33017897Y-64654623D01*
X33018211Y-64637935D01*
X33020668Y-64618569D01*
X33026982Y-64600223D01*
X33036674Y-64583533D01*
X33049263Y-64569137D01*
X33064270Y-64557672D01*
X33081215Y-64549773D01*
X33085613Y-64548453D01*
X33106121Y-64545136D01*
X33126294Y-64546041D01*
G37*
G36*
X32949893Y-64885392D02*
G01*
X32983213Y-64890433D01*
X33015661Y-64899649D01*
X33046704Y-64912932D01*
X33071296Y-64927144D01*
X33097495Y-64946963D01*
X33120695Y-64969948D01*
X33140684Y-64995657D01*
X33157254Y-65023651D01*
X33170196Y-65053490D01*
X33179300Y-65084731D01*
X33184359Y-65116937D01*
X33185162Y-65149664D01*
X33184057Y-65164666D01*
X33178246Y-65198914D01*
X33168268Y-65231458D01*
X33154249Y-65262060D01*
X33136318Y-65290484D01*
X33114600Y-65316491D01*
X33091786Y-65337745D01*
X33078093Y-65347838D01*
X33061440Y-65358168D01*
X33043163Y-65368049D01*
X33024595Y-65376795D01*
X33007071Y-65383723D01*
X32995099Y-65387395D01*
X32961843Y-65393666D01*
X32929021Y-65395602D01*
X32896926Y-65393421D01*
X32865846Y-65387344D01*
X32836075Y-65377588D01*
X32807902Y-65364373D01*
X32781619Y-65347919D01*
X32757517Y-65328444D01*
X32735887Y-65306168D01*
X32717021Y-65281310D01*
X32701209Y-65254088D01*
X32696464Y-65242913D01*
X32688742Y-65224722D01*
X32679912Y-65193431D01*
X32675009Y-65160434D01*
X32674183Y-65145832D01*
X32674309Y-65142669D01*
X32862696Y-65142669D01*
X32864208Y-65151931D01*
X32867952Y-65162946D01*
X32873176Y-65174079D01*
X32879131Y-65183690D01*
X32884085Y-65189334D01*
X32893884Y-65195969D01*
X32906306Y-65201527D01*
X32919428Y-65205296D01*
X32930518Y-65206567D01*
X32945313Y-65204538D01*
X32960018Y-65198896D01*
X32973108Y-65190355D01*
X32980268Y-65183299D01*
X32989318Y-65169155D01*
X32994913Y-65152891D01*
X32996563Y-65139244D01*
X32996092Y-65130883D01*
X32993981Y-65122532D01*
X32989755Y-65112342D01*
X32989586Y-65111980D01*
X32981459Y-65098008D01*
X32971408Y-65087594D01*
X32958475Y-65079838D01*
X32952879Y-65077506D01*
X32937164Y-65073832D01*
X32920928Y-65074154D01*
X32905170Y-65078216D01*
X32890885Y-65085762D01*
X32879160Y-65096430D01*
X32872239Y-65107136D01*
X32866742Y-65120248D01*
X32863385Y-65133759D01*
X32862696Y-65142669D01*
X32674309Y-65142669D01*
X32675474Y-65113323D01*
X32681108Y-65081176D01*
X32690868Y-65049864D01*
X32704539Y-65019862D01*
X32721902Y-64991641D01*
X32742742Y-64965678D01*
X32766841Y-64942445D01*
X32767424Y-64941953D01*
X32774279Y-64936323D01*
X32780449Y-64931688D01*
X32786834Y-64927522D01*
X32794332Y-64923299D01*
X32803839Y-64918490D01*
X32816253Y-64912569D01*
X32822302Y-64909739D01*
X32836183Y-64903331D01*
X32846953Y-64898570D01*
X32855601Y-64895110D01*
X32863116Y-64892596D01*
X32870487Y-64890681D01*
X32878702Y-64889011D01*
X32882755Y-64888278D01*
X32916230Y-64884637D01*
X32949893Y-64885392D01*
G37*
G36*
X34442609Y-64190171D02*
G01*
X34476715Y-64195596D01*
X34487287Y-64198188D01*
X34507904Y-64204875D01*
X34524752Y-64213200D01*
X34538485Y-64223670D01*
X34549755Y-64236796D01*
X34559214Y-64253084D01*
X34560152Y-64255048D01*
X34564490Y-64264722D01*
X34567099Y-64272115D01*
X34568401Y-64278968D01*
X34568821Y-64287018D01*
X34568838Y-64290653D01*
X34566754Y-64311958D01*
X34560852Y-64331236D01*
X34551537Y-64348190D01*
X34539213Y-64362521D01*
X34524283Y-64373926D01*
X34507153Y-64382109D01*
X34488227Y-64386769D01*
X34467909Y-64387607D01*
X34446603Y-64384324D01*
X34443469Y-64383491D01*
X34424313Y-64380044D01*
X34406717Y-64380827D01*
X34390767Y-64385822D01*
X34376558Y-64395008D01*
X34371680Y-64399546D01*
X34363066Y-64411050D01*
X34356672Y-64425051D01*
X34353234Y-64439730D01*
X34352847Y-64446083D01*
X34354571Y-64458216D01*
X34359177Y-64471346D01*
X34365870Y-64483772D01*
X34373858Y-64493788D01*
X34375951Y-64495704D01*
X34390127Y-64504851D01*
X34405861Y-64510028D01*
X34422331Y-64511155D01*
X34438712Y-64508152D01*
X34450763Y-64502968D01*
X34460632Y-64496566D01*
X34468647Y-64488933D01*
X34475706Y-64479012D01*
X34482701Y-64465748D01*
X34483222Y-64464644D01*
X34494397Y-64445536D01*
X34508252Y-64430026D01*
X34524660Y-64418226D01*
X34543493Y-64410252D01*
X34544533Y-64409945D01*
X34564095Y-64406511D01*
X34583500Y-64407243D01*
X34602155Y-64411817D01*
X34619469Y-64419906D01*
X34634853Y-64431187D01*
X34647716Y-64445334D01*
X34657466Y-64462023D01*
X34661971Y-64474496D01*
X34665405Y-64492347D01*
X34665310Y-64509659D01*
X34661610Y-64527677D01*
X34658003Y-64538353D01*
X34644415Y-64567969D01*
X34626844Y-64595721D01*
X34605630Y-64621211D01*
X34581108Y-64644040D01*
X34553618Y-64663811D01*
X34549253Y-64666493D01*
X34540183Y-64671900D01*
X34533234Y-64675818D01*
X34527049Y-64678877D01*
X34520271Y-64681708D01*
X34511542Y-64684941D01*
X34503052Y-64687954D01*
X34471397Y-64696766D01*
X34439067Y-64701273D01*
X34406523Y-64701588D01*
X34374229Y-64697821D01*
X34342647Y-64690086D01*
X34312242Y-64678495D01*
X34283474Y-64663161D01*
X34256808Y-64644194D01*
X34233585Y-64622643D01*
X34217033Y-64603463D01*
X34203046Y-64583317D01*
X34190570Y-64560630D01*
X34187170Y-64553537D01*
X34176891Y-64528932D01*
X34169676Y-64505319D01*
X34165001Y-64480874D01*
X34164067Y-64473561D01*
X34162532Y-64440930D01*
X34165292Y-64408306D01*
X34172162Y-64376250D01*
X34182959Y-64345323D01*
X34197497Y-64316087D01*
X34215592Y-64289105D01*
X34230204Y-64271936D01*
X34255625Y-64248030D01*
X34283187Y-64228054D01*
X34312590Y-64212098D01*
X34343534Y-64200245D01*
X34375718Y-64192583D01*
X34408843Y-64189196D01*
X34442609Y-64190171D01*
G37*
G36*
X33628000Y-64320289D02*
G01*
X33646373Y-64328039D01*
X33662836Y-64339761D01*
X33676987Y-64355274D01*
X33679361Y-64358603D01*
X33688537Y-64375856D01*
X33693722Y-64394428D01*
X33695005Y-64413605D01*
X33692482Y-64432675D01*
X33686243Y-64450925D01*
X33676381Y-64467642D01*
X33663441Y-64481719D01*
X33658147Y-64485824D01*
X33651021Y-64490309D01*
X33641420Y-64495529D01*
X33628705Y-64501835D01*
X33616914Y-64507411D01*
X33580083Y-64524585D01*
X33673296Y-64724587D01*
X33688773Y-64757853D01*
X33703227Y-64789029D01*
X33716557Y-64817900D01*
X33728669Y-64844255D01*
X33739465Y-64867881D01*
X33748849Y-64888563D01*
X33756724Y-64906090D01*
X33762993Y-64920249D01*
X33767560Y-64930827D01*
X33770327Y-64937611D01*
X33771048Y-64939650D01*
X33775062Y-64960319D01*
X33774593Y-64980479D01*
X33769700Y-64999821D01*
X33760441Y-65018036D01*
X33754469Y-65026282D01*
X33747859Y-65034163D01*
X33742135Y-65039727D01*
X33735702Y-65044259D01*
X33726971Y-65049040D01*
X33724881Y-65050103D01*
X33714422Y-65054902D01*
X33704461Y-65058633D01*
X33696700Y-65060659D01*
X33696673Y-65060664D01*
X33676545Y-65061573D01*
X33656818Y-65058178D01*
X33638184Y-65050725D01*
X33621336Y-65039465D01*
X33611638Y-65030187D01*
X33609996Y-65028301D01*
X33608304Y-65026117D01*
X33606439Y-65023386D01*
X33604279Y-65019858D01*
X33601702Y-65015281D01*
X33598587Y-65009408D01*
X33594811Y-65001986D01*
X33590250Y-64992765D01*
X33584786Y-64981497D01*
X33578295Y-64967929D01*
X33570654Y-64951813D01*
X33561743Y-64932897D01*
X33551439Y-64910932D01*
X33539620Y-64885667D01*
X33526163Y-64856852D01*
X33510947Y-64824237D01*
X33505304Y-64812136D01*
X33408522Y-64604586D01*
X33372534Y-64621367D01*
X33355490Y-64629063D01*
X33341522Y-64634702D01*
X33329756Y-64638506D01*
X33319319Y-64640702D01*
X33309336Y-64641515D01*
X33298935Y-64641169D01*
X33296458Y-64640955D01*
X33278511Y-64637073D01*
X33261451Y-64629253D01*
X33246004Y-64618114D01*
X33232892Y-64604281D01*
X33222838Y-64588371D01*
X33217012Y-64572816D01*
X33213899Y-64552151D01*
X33215123Y-64531970D01*
X33220490Y-64512812D01*
X33229804Y-64495217D01*
X33242870Y-64479725D01*
X33253993Y-64470529D01*
X33258780Y-64467673D01*
X33267726Y-64462957D01*
X33280828Y-64456384D01*
X33298079Y-64447956D01*
X33319477Y-64437675D01*
X33345016Y-64425542D01*
X33374693Y-64411561D01*
X33408501Y-64395733D01*
X33418598Y-64391021D01*
X33447516Y-64377541D01*
X33472608Y-64365860D01*
X33494177Y-64355846D01*
X33512532Y-64347365D01*
X33527976Y-64340282D01*
X33540815Y-64334466D01*
X33551353Y-64329783D01*
X33559897Y-64326099D01*
X33566751Y-64323281D01*
X33572221Y-64321196D01*
X33576612Y-64319710D01*
X33580229Y-64318691D01*
X33583378Y-64318004D01*
X33586363Y-64317517D01*
X33587122Y-64317410D01*
X33608117Y-64316685D01*
X33628000Y-64320289D01*
G37*
G36*
X34056094Y-64356277D02*
G01*
X34073207Y-64362306D01*
X34088911Y-64371445D01*
X34102623Y-64383535D01*
X34113768Y-64398420D01*
X34121765Y-64415940D01*
X34123038Y-64420108D01*
X34125327Y-64431054D01*
X34126718Y-64443189D01*
X34126937Y-64451450D01*
X34126400Y-64456036D01*
X34124985Y-64464727D01*
X34122762Y-64477166D01*
X34119802Y-64492994D01*
X34116173Y-64511854D01*
X34111946Y-64533390D01*
X34107192Y-64557245D01*
X34101980Y-64583060D01*
X34096378Y-64610478D01*
X34090459Y-64639144D01*
X34086189Y-64659638D01*
X34079204Y-64693070D01*
X34071807Y-64728508D01*
X34064151Y-64765224D01*
X34056389Y-64802488D01*
X34048672Y-64839570D01*
X34041150Y-64875741D01*
X34033977Y-64910269D01*
X34027305Y-64942428D01*
X34021283Y-64971487D01*
X34016692Y-64993687D01*
X34010388Y-65024127D01*
X34004884Y-65050444D01*
X34000077Y-65072986D01*
X33995863Y-65092101D01*
X33992139Y-65108138D01*
X33988801Y-65121443D01*
X33985746Y-65132365D01*
X33982870Y-65141252D01*
X33980069Y-65148453D01*
X33977241Y-65154314D01*
X33974279Y-65159184D01*
X33971085Y-65163411D01*
X33967550Y-65167343D01*
X33963933Y-65170976D01*
X33948693Y-65183157D01*
X33931381Y-65192334D01*
X33914506Y-65197531D01*
X33896085Y-65198969D01*
X33877118Y-65196452D01*
X33858660Y-65190300D01*
X33841761Y-65180831D01*
X33831415Y-65172391D01*
X33822399Y-65161585D01*
X33814350Y-65147894D01*
X33808032Y-65132961D01*
X33804212Y-65118430D01*
X33803509Y-65112427D01*
X33803329Y-65109557D01*
X33803202Y-65106916D01*
X33803183Y-65104195D01*
X33803330Y-65101084D01*
X33803701Y-65097271D01*
X33804353Y-65092445D01*
X33805342Y-65086298D01*
X33806728Y-65078518D01*
X33808568Y-65068795D01*
X33810917Y-65056818D01*
X33813835Y-65042277D01*
X33817378Y-65024862D01*
X33821604Y-65004262D01*
X33826571Y-64980166D01*
X33832335Y-64952266D01*
X33838955Y-64920249D01*
X33839898Y-64915689D01*
X33871800Y-64761371D01*
X33778006Y-64710805D01*
X33758668Y-64700309D01*
X33740346Y-64690231D01*
X33723479Y-64680822D01*
X33708505Y-64672333D01*
X33695866Y-64665015D01*
X33686000Y-64659118D01*
X33679347Y-64654895D01*
X33676535Y-64652799D01*
X33663395Y-64637087D01*
X33653963Y-64619359D01*
X33648404Y-64600298D01*
X33646880Y-64580589D01*
X33649556Y-64560913D01*
X33652332Y-64551815D01*
X33661219Y-64533597D01*
X33673279Y-64518236D01*
X33687960Y-64505959D01*
X33704705Y-64496995D01*
X33722961Y-64491570D01*
X33742174Y-64489916D01*
X33761788Y-64492259D01*
X33781139Y-64498777D01*
X33785651Y-64500993D01*
X33793549Y-64505051D01*
X33804203Y-64510618D01*
X33816987Y-64517366D01*
X33831272Y-64524965D01*
X33846432Y-64533084D01*
X33847102Y-64533444D01*
X33861916Y-64541391D01*
X33875543Y-64548670D01*
X33887431Y-64554986D01*
X33897027Y-64560048D01*
X33903776Y-64563563D01*
X33907126Y-64565238D01*
X33907267Y-64565299D01*
X33908553Y-64564959D01*
X33909992Y-64562658D01*
X33911696Y-64557994D01*
X33913772Y-64550566D01*
X33916331Y-64539970D01*
X33919482Y-64525807D01*
X33923334Y-64507673D01*
X33924542Y-64501881D01*
X33929661Y-64477565D01*
X33934120Y-64457248D01*
X33938098Y-64440446D01*
X33941768Y-64426674D01*
X33945311Y-64415447D01*
X33948900Y-64406281D01*
X33952714Y-64398688D01*
X33956928Y-64392189D01*
X33961719Y-64386294D01*
X33967264Y-64380522D01*
X33969580Y-64378284D01*
X33985081Y-64366404D01*
X34002061Y-64358420D01*
X34019942Y-64354176D01*
X34038144Y-64353514D01*
X34056094Y-64356277D01*
G37*
G36*
X32441772Y-64863509D02*
G01*
X32460483Y-64868160D01*
X32478101Y-64876705D01*
X32494038Y-64889089D01*
X32501965Y-64897623D01*
X32503505Y-64899649D01*
X32505318Y-64902394D01*
X32507510Y-64906080D01*
X32510188Y-64910929D01*
X32513460Y-64917164D01*
X32517432Y-64925010D01*
X32522213Y-64934687D01*
X32527908Y-64946420D01*
X32534626Y-64960429D01*
X32542473Y-64976941D01*
X32551557Y-64996176D01*
X32561987Y-65018357D01*
X32573867Y-65043709D01*
X32587305Y-65072452D01*
X32602410Y-65104812D01*
X32619288Y-65141009D01*
X32625591Y-65154531D01*
X32641522Y-65188764D01*
X32656732Y-65221528D01*
X32671110Y-65252585D01*
X32684548Y-65281699D01*
X32696936Y-65308630D01*
X32708167Y-65333141D01*
X32718132Y-65354994D01*
X32726722Y-65373952D01*
X32733827Y-65389774D01*
X32739339Y-65402224D01*
X32743151Y-65411063D01*
X32745152Y-65416054D01*
X32745310Y-65416523D01*
X32749667Y-65437199D01*
X32749526Y-65457326D01*
X32744929Y-65476664D01*
X32735922Y-65494976D01*
X32729067Y-65504570D01*
X32723073Y-65511842D01*
X32718142Y-65516930D01*
X32712941Y-65520854D01*
X32706133Y-65524634D01*
X32697203Y-65528906D01*
X32683425Y-65534821D01*
X32671887Y-65538377D01*
X32661090Y-65539828D01*
X32649536Y-65539431D01*
X32641450Y-65538385D01*
X32622257Y-65533199D01*
X32604192Y-65523929D01*
X32590890Y-65513604D01*
X32588517Y-65511324D01*
X32586273Y-65508845D01*
X32583945Y-65505768D01*
X32581318Y-65501692D01*
X32578180Y-65496219D01*
X32574314Y-65488946D01*
X32569509Y-65479475D01*
X32563551Y-65467407D01*
X32556224Y-65452340D01*
X32547316Y-65433875D01*
X32538952Y-65416481D01*
X32496472Y-65328082D01*
X32435757Y-65355727D01*
X32375041Y-65383372D01*
X32412997Y-65464767D01*
X32421915Y-65484032D01*
X32430172Y-65502138D01*
X32437552Y-65518593D01*
X32443838Y-65532905D01*
X32448816Y-65544582D01*
X32452267Y-65553134D01*
X32453978Y-65558068D01*
X32453991Y-65558118D01*
X32456891Y-65578072D01*
X32455638Y-65597527D01*
X32450582Y-65615965D01*
X32442068Y-65632867D01*
X32430445Y-65647714D01*
X32416058Y-65659988D01*
X32399256Y-65669170D01*
X32380385Y-65674743D01*
X32375380Y-65675512D01*
X32364540Y-65676600D01*
X32355855Y-65676567D01*
X32347410Y-65675210D01*
X32337286Y-65672328D01*
X32333464Y-65671078D01*
X32315212Y-65662700D01*
X32299035Y-65650656D01*
X32287957Y-65638460D01*
X32286024Y-65635325D01*
X32282787Y-65629293D01*
X32278192Y-65620252D01*
X32272187Y-65608090D01*
X32264717Y-65592697D01*
X32255731Y-65573959D01*
X32245174Y-65551765D01*
X32232992Y-65526006D01*
X32219134Y-65496566D01*
X32203545Y-65463336D01*
X32186172Y-65426203D01*
X32166962Y-65385057D01*
X32163182Y-65376953D01*
X32145226Y-65338448D01*
X32129094Y-65303850D01*
X32114693Y-65272930D01*
X32101926Y-65245457D01*
X32090697Y-65221202D01*
X32080911Y-65199934D01*
X32072472Y-65181425D01*
X32065285Y-65165443D01*
X32059252Y-65151761D01*
X32054279Y-65140147D01*
X32050269Y-65130372D01*
X32047128Y-65122206D01*
X32044758Y-65115420D01*
X32043065Y-65109783D01*
X32041953Y-65105065D01*
X32041325Y-65101038D01*
X32041086Y-65097471D01*
X32041140Y-65094134D01*
X32041393Y-65090798D01*
X32041746Y-65087232D01*
X32041873Y-65085928D01*
X32045833Y-65066532D01*
X32053639Y-65048557D01*
X32064795Y-65032609D01*
X32078800Y-65019295D01*
X32095156Y-65009218D01*
X32109340Y-65003967D01*
X32130055Y-65000569D01*
X32150240Y-65001502D01*
X32169382Y-65006587D01*
X32186973Y-65015644D01*
X32202500Y-65028492D01*
X32212262Y-65040196D01*
X32215459Y-65045453D01*
X32220343Y-65054547D01*
X32226749Y-65067146D01*
X32234513Y-65082919D01*
X32243470Y-65101532D01*
X32253455Y-65122655D01*
X32257656Y-65131639D01*
X32295070Y-65211873D01*
X32355013Y-65183921D01*
X32414956Y-65155969D01*
X32379094Y-65078955D01*
X32370704Y-65060793D01*
X32362754Y-65043304D01*
X32355499Y-65027071D01*
X32349192Y-65012672D01*
X32344088Y-65000690D01*
X32340441Y-64991703D01*
X32338566Y-64986499D01*
X32334530Y-64965894D01*
X32334764Y-64945657D01*
X32339113Y-64926333D01*
X32347418Y-64908469D01*
X32359522Y-64892616D01*
X32367745Y-64884948D01*
X32384955Y-64873470D01*
X32403421Y-64866108D01*
X32422555Y-64862806D01*
X32441772Y-64863509D01*
G37*
G36*
X31716638Y-62120967D02*
G01*
X31753199Y-62129458D01*
X31773074Y-62135919D01*
X31806158Y-62149937D01*
X31836898Y-62167582D01*
X31865568Y-62189054D01*
X31892444Y-62214550D01*
X31910708Y-62235354D01*
X31926413Y-62254564D01*
X32400150Y-63270496D01*
X32436258Y-63347934D01*
X32470489Y-63421346D01*
X32502893Y-63490844D01*
X32533520Y-63556536D01*
X32562420Y-63618533D01*
X32589645Y-63676943D01*
X32615245Y-63731875D01*
X32639270Y-63783440D01*
X32661770Y-63831747D01*
X32682797Y-63876903D01*
X32702402Y-63919021D01*
X32720633Y-63958208D01*
X32737543Y-63994575D01*
X32753180Y-64028230D01*
X32767598Y-64059283D01*
X32780844Y-64087843D01*
X32792970Y-64114021D01*
X32804028Y-64137924D01*
X32814067Y-64159664D01*
X32823137Y-64179348D01*
X32831289Y-64197086D01*
X32838575Y-64212989D01*
X32845043Y-64227165D01*
X32850746Y-64239723D01*
X32855734Y-64250774D01*
X32860056Y-64260426D01*
X32863763Y-64268788D01*
X32866906Y-64275971D01*
X32869537Y-64282084D01*
X32871704Y-64287235D01*
X32873459Y-64291536D01*
X32874852Y-64295093D01*
X32875934Y-64298018D01*
X32876755Y-64300420D01*
X32877365Y-64302409D01*
X32877816Y-64304093D01*
X32878056Y-64305108D01*
X32884459Y-64342567D01*
X32886592Y-64378808D01*
X32884428Y-64414280D01*
X32877941Y-64449436D01*
X32867626Y-64483290D01*
X32852739Y-64517954D01*
X32834111Y-64550012D01*
X32811732Y-64579478D01*
X32785590Y-64606368D01*
X32763645Y-64624749D01*
X32751907Y-64632812D01*
X32737010Y-64641606D01*
X32720159Y-64650538D01*
X32702558Y-64659010D01*
X32685410Y-64666429D01*
X32669923Y-64672198D01*
X32663898Y-64674073D01*
X32627498Y-64682222D01*
X32591086Y-64685923D01*
X32554967Y-64685280D01*
X32519446Y-64680397D01*
X32484826Y-64671374D01*
X32451410Y-64658318D01*
X32419505Y-64641329D01*
X32389414Y-64620511D01*
X32361442Y-64595968D01*
X32335892Y-64567803D01*
X32330634Y-64561141D01*
X32328929Y-64558910D01*
X32327276Y-64556666D01*
X32325585Y-64554224D01*
X32323764Y-64551396D01*
X32321723Y-64547994D01*
X32319372Y-64543829D01*
X32316621Y-64538714D01*
X32313378Y-64532462D01*
X32309553Y-64524884D01*
X32305055Y-64515793D01*
X32299794Y-64505000D01*
X32293679Y-64492319D01*
X32286620Y-64477561D01*
X32278526Y-64460538D01*
X32269307Y-64441063D01*
X32258872Y-64418948D01*
X32247129Y-64394005D01*
X32233990Y-64366046D01*
X32219363Y-64334883D01*
X32203157Y-64300330D01*
X32185282Y-64262197D01*
X32165648Y-64220297D01*
X32145588Y-64177481D01*
X31974078Y-63811416D01*
X31765404Y-63908722D01*
X31556730Y-64006029D01*
X31728907Y-64376815D01*
X31901085Y-64747603D01*
X31905270Y-64771028D01*
X31910091Y-64807442D01*
X31911101Y-64842061D01*
X31908249Y-64875669D01*
X31901486Y-64909049D01*
X31895207Y-64930279D01*
X31881490Y-64964638D01*
X31863775Y-64996935D01*
X31842255Y-65026918D01*
X31817119Y-65054331D01*
X31788558Y-65078925D01*
X31776876Y-65087457D01*
X31765401Y-65094642D01*
X31750835Y-65102547D01*
X31734453Y-65110580D01*
X31717533Y-65118150D01*
X31701349Y-65124665D01*
X31687180Y-65129534D01*
X31684220Y-65130392D01*
X31662464Y-65135279D01*
X31638385Y-65138763D01*
X31614075Y-65140599D01*
X31596330Y-65140731D01*
X31558513Y-65137450D01*
X31522095Y-65129905D01*
X31487333Y-65118243D01*
X31454481Y-65102617D01*
X31423794Y-65083174D01*
X31395529Y-65060066D01*
X31369939Y-65033442D01*
X31347281Y-65003454D01*
X31338200Y-64989053D01*
X31335418Y-64983908D01*
X31330753Y-64974661D01*
X31324226Y-64961359D01*
X31315857Y-64944046D01*
X31305669Y-64922766D01*
X31293682Y-64897564D01*
X31279918Y-64868484D01*
X31264397Y-64835571D01*
X31247141Y-64798870D01*
X31228169Y-64758425D01*
X31207505Y-64714280D01*
X31185168Y-64666481D01*
X31162305Y-64617482D01*
X30998552Y-64266312D01*
X30643489Y-64431880D01*
X30594242Y-64454829D01*
X30548140Y-64476280D01*
X30505264Y-64496199D01*
X30465693Y-64514546D01*
X30429504Y-64531288D01*
X30396778Y-64546387D01*
X30367594Y-64559807D01*
X30342030Y-64571512D01*
X30320165Y-64581465D01*
X30302078Y-64589630D01*
X30287848Y-64595972D01*
X30277555Y-64600452D01*
X30271277Y-64603037D01*
X30269937Y-64603523D01*
X30242089Y-64611528D01*
X30215324Y-64616675D01*
X30187832Y-64619237D01*
X30162865Y-64619588D01*
X30126105Y-64616785D01*
X30090434Y-64609631D01*
X30056108Y-64598259D01*
X30023384Y-64582802D01*
X29992514Y-64563394D01*
X29963758Y-64540167D01*
X29937371Y-64513257D01*
X29921648Y-64493902D01*
X29909988Y-64476568D01*
X29898552Y-64456158D01*
X29888020Y-64434133D01*
X29879075Y-64411955D01*
X29872399Y-64391088D01*
X29870895Y-64385108D01*
X29864407Y-64347466D01*
X29862428Y-64310042D01*
X29864927Y-64273063D01*
X29871871Y-64236752D01*
X29883229Y-64201338D01*
X29898969Y-64167046D01*
X29902395Y-64160776D01*
X29918680Y-64134825D01*
X29937513Y-64110783D01*
X29959610Y-64087810D01*
X29979563Y-64070101D01*
X29997802Y-64054865D01*
X30367975Y-63881526D01*
X30738148Y-63708189D01*
X30568511Y-63342562D01*
X30546965Y-63296131D01*
X30527245Y-63253649D01*
X30509271Y-63214915D01*
X30492956Y-63179737D01*
X30478221Y-63147918D01*
X30464980Y-63119261D01*
X30453151Y-63093571D01*
X30442650Y-63070654D01*
X30433396Y-63050311D01*
X30425304Y-63032348D01*
X30418292Y-63016567D01*
X30412278Y-63002776D01*
X30407177Y-62990776D01*
X30402906Y-62980373D01*
X30399383Y-62971369D01*
X30396524Y-62963571D01*
X30394247Y-62956780D01*
X30392470Y-62950803D01*
X30391106Y-62945442D01*
X30390076Y-62940502D01*
X30389295Y-62935789D01*
X30388680Y-62931104D01*
X30388149Y-62926253D01*
X30387618Y-62921039D01*
X30387005Y-62915267D01*
X30386881Y-62914178D01*
X30384744Y-62876643D01*
X30387041Y-62840128D01*
X30393797Y-62804502D01*
X30405039Y-62769628D01*
X30420664Y-62735614D01*
X30439879Y-62703978D01*
X30462249Y-62675413D01*
X30487442Y-62650045D01*
X30515129Y-62628004D01*
X30544979Y-62609416D01*
X30576662Y-62594410D01*
X30609846Y-62583112D01*
X30644203Y-62575650D01*
X30679400Y-62572152D01*
X30715108Y-62572746D01*
X30750996Y-62577559D01*
X30786734Y-62586719D01*
X30797100Y-62590235D01*
X30830566Y-62604574D01*
X30862053Y-62622915D01*
X30891657Y-62645329D01*
X30919478Y-62671887D01*
X30937103Y-62691954D01*
X30949823Y-62707439D01*
X31123387Y-63076951D01*
X31296952Y-63446463D01*
X31505399Y-63349903D01*
X31713846Y-63253344D01*
X31543154Y-62885626D01*
X31372462Y-62517908D01*
X31368088Y-62496811D01*
X31362149Y-62460040D01*
X31360074Y-62425090D01*
X31361904Y-62391296D01*
X31367683Y-62357991D01*
X31377452Y-62324508D01*
X31379172Y-62319685D01*
X31393091Y-62286679D01*
X31409779Y-62256887D01*
X31429710Y-62229582D01*
X31453357Y-62204034D01*
X31456456Y-62201063D01*
X31472276Y-62186853D01*
X31487592Y-62174920D01*
X31503728Y-62164381D01*
X31522007Y-62154350D01*
X31537671Y-62146743D01*
X31573166Y-62132481D01*
X31608745Y-62122775D01*
X31644475Y-62117623D01*
X31680418Y-62117022D01*
X31716638Y-62120967D01*
G37*
%TO.C,TD8*%
X32500991Y-42482384D02*
X32775693Y-43071484D01*
X33090091Y-42207682D02*
X32500991Y-42482384D01*
%TO.C,D3*%
X41751241Y-59067529D02*
X42025943Y-59656629D01*
X42340341Y-58792827D02*
X41751241Y-59067529D01*
%TO.C,TD10*%
X21032862Y-34452314D02*
X21307564Y-35041414D01*
X21621962Y-34177612D02*
X21032862Y-34452314D01*
%TD*%
%LPC*%
D15*
%TO.C,KiKit_MB_2_2*%
X55184497Y-28494636D03*
%TD*%
D16*
%TO.C,D6*%
X46247409Y-79628087D03*
X47063086Y-79247730D03*
X46682729Y-78432053D03*
X45867052Y-78812410D03*
%TD*%
%TO.C,TD7*%
X40695936Y-42286326D03*
X41511613Y-41905969D03*
X41131256Y-41090292D03*
X40315579Y-41470649D03*
%TD*%
D17*
%TO.C,C21*%
X20273176Y-75438373D03*
X20853212Y-75167897D03*
%TD*%
D16*
%TO.C,TD6*%
X46247409Y-37628087D03*
X47063086Y-37247730D03*
X46682729Y-36432053D03*
X45867052Y-36812410D03*
%TD*%
D15*
%TO.C,KiKit_MB_1_1*%
X14853943Y-30510059D03*
%TD*%
D16*
%TO.C,D1*%
X28862624Y-58909708D03*
X29678301Y-58529351D03*
X29297944Y-57713674D03*
X28482267Y-58094031D03*
%TD*%
D15*
%TO.C,KiKit_MB_4_3*%
X34492163Y-49188870D03*
%TD*%
D16*
%TO.C,D4*%
X47467589Y-65681361D03*
X48283266Y-65301004D03*
X47902909Y-64485327D03*
X47087232Y-64865684D03*
%TD*%
%TO.C,D2*%
X35999460Y-57651291D03*
X36815137Y-57270934D03*
X36434780Y-56455257D03*
X35619103Y-56835614D03*
%TD*%
D17*
%TO.C,TC15*%
X45559163Y-21647323D03*
X46139199Y-21376847D03*
%TD*%
D18*
%TO.C,KiKit_FID_T_3*%
X3900000Y-96100000D03*
%TD*%
D15*
%TO.C,KiKit_MB_6_1*%
X55133931Y-69485171D03*
%TD*%
%TO.C,KiKit_MB_5_3*%
X14803312Y-70496222D03*
%TD*%
D16*
%TO.C,D5*%
X48726006Y-72818197D03*
X49541683Y-72437840D03*
X49161326Y-71622163D03*
X48345649Y-72002520D03*
%TD*%
%TO.C,TD3*%
X42809350Y-18129888D03*
X43625027Y-17749531D03*
X43244670Y-16933854D03*
X42428993Y-17314211D03*
%TD*%
D17*
%TO.C,TC14*%
X41060112Y-16021620D03*
X41640148Y-15751144D03*
%TD*%
D16*
%TO.C,TD9*%
X26749210Y-41066146D03*
X27564887Y-40685789D03*
X27184530Y-39870112D03*
X26368853Y-40250469D03*
%TD*%
%TO.C,TD12*%
X23311151Y-21567947D03*
X24126828Y-21187590D03*
X23746471Y-20371913D03*
X22930794Y-20752270D03*
%TD*%
D17*
%TO.C,C16*%
X46886137Y-70752191D03*
X47466173Y-70481715D03*
%TD*%
D16*
%TO.C,D12*%
X23311151Y-63567947D03*
X24126828Y-63187590D03*
X23746471Y-62371913D03*
X22930794Y-62752270D03*
%TD*%
D18*
%TO.C,KiKit_TO_2*%
X70000000Y0D03*
%TD*%
D15*
%TO.C,KiKit_MB_7_4*%
X36512360Y-50861278D03*
%TD*%
%TO.C,KiKit_MB_3_2*%
X34492163Y-8811130D03*
%TD*%
D17*
%TO.C,C18*%
X38787510Y-82252288D03*
X39367546Y-81981812D03*
%TD*%
D15*
%TO.C,KiKit_MB_6_2*%
X55184497Y-70494635D03*
%TD*%
%TO.C,KiKit_MB_3_4*%
X36512360Y-8861279D03*
%TD*%
D16*
%TO.C,D9*%
X26749210Y-83066146D03*
X27564887Y-82685789D03*
X27184530Y-81870112D03*
X26368853Y-82250469D03*
%TD*%
D17*
%TO.C,TC16*%
X46886137Y-28752191D03*
X47466173Y-28481715D03*
%TD*%
D15*
%TO.C,KiKit_MB_5_1*%
X14853943Y-72510059D03*
%TD*%
D17*
%TO.C,C23*%
X21553496Y-61490477D03*
X22133532Y-61220001D03*
%TD*%
D16*
%TO.C,D7*%
X40695936Y-84286326D03*
X41511613Y-83905969D03*
X41131256Y-83090292D03*
X40315579Y-83470649D03*
%TD*%
D17*
%TO.C,C22*%
X18873697Y-68367315D03*
X19453733Y-68096839D03*
%TD*%
D15*
%TO.C,KiKit_MB_7_3*%
X35502883Y-50810832D03*
%TD*%
%TO.C,KiKit_MB_6_3*%
X55184377Y-71505361D03*
%TD*%
%TO.C,KiKit_MB_8_1*%
X36512360Y-91138721D03*
%TD*%
D17*
%TO.C,TC18*%
X38787510Y-40252288D03*
X39367546Y-39981812D03*
%TD*%
D16*
%TO.C,TD5*%
X48726006Y-30818197D03*
X49541683Y-30437840D03*
X49161326Y-29622163D03*
X48345649Y-30002520D03*
%TD*%
%TO.C,D10*%
X22090971Y-77514673D03*
X22906648Y-77134316D03*
X22526291Y-76318639D03*
X21710614Y-76698996D03*
%TD*%
D15*
%TO.C,KiKit_MB_6_4*%
X55133931Y-72514828D03*
%TD*%
D17*
%TO.C,TC23*%
X21553496Y-19490477D03*
X22133532Y-19220001D03*
%TD*%
%TO.C,TC20*%
X24772227Y-39064076D03*
X25352263Y-38793600D03*
%TD*%
D18*
%TO.C,KiKit_TO_3*%
X0Y-100000000D03*
%TD*%
D15*
%TO.C,KiKit_MB_4_4*%
X33482706Y-49138374D03*
%TD*%
%TO.C,KiKit_MB_2_3*%
X55184377Y-29505361D03*
%TD*%
%TO.C,KiKit_MB_1_2*%
X14803514Y-29503766D03*
%TD*%
%TO.C,KiKit_MB_2_4*%
X55133931Y-30514828D03*
%TD*%
%TO.C,KiKit_MB_5_2*%
X14803514Y-71503766D03*
%TD*%
D16*
%TO.C,D11*%
X20832554Y-70377837D03*
X21648231Y-69997480D03*
X21267874Y-69181803D03*
X20452197Y-69562160D03*
%TD*%
D18*
%TO.C,KiKit_FID_T_4*%
X66100000Y-96100000D03*
%TD*%
D15*
%TO.C,KiKit_MB_8_2*%
X35502883Y-91189167D03*
%TD*%
D16*
%TO.C,TD11*%
X20832554Y-28377837D03*
X21648231Y-27997480D03*
X21267874Y-27181803D03*
X20452197Y-27562160D03*
%TD*%
D15*
%TO.C,KiKit_MB_8_3*%
X34492163Y-91188870D03*
%TD*%
%TO.C,KiKit_MB_7_1*%
X33482706Y-50861625D03*
%TD*%
%TO.C,KiKit_MB_8_4*%
X33482706Y-91138374D03*
%TD*%
D17*
%TO.C,C14*%
X41060112Y-58021620D03*
X41640148Y-57751144D03*
%TD*%
D16*
%TO.C,D8*%
X33559100Y-85544743D03*
X34374777Y-85164386D03*
X33994420Y-84348709D03*
X33178743Y-84729066D03*
%TD*%
D17*
%TO.C,TC13*%
X34191958Y-13597065D03*
X34771994Y-13326589D03*
%TD*%
D15*
%TO.C,KiKit_MB_3_3*%
X35502883Y-8810833D03*
%TD*%
D16*
%TO.C,TD1*%
X28862624Y-16909708D03*
X29678301Y-16529351D03*
X29297944Y-15713674D03*
X28482267Y-16094031D03*
%TD*%
%TO.C,TD2*%
X35999460Y-15651291D03*
X36815137Y-15270934D03*
X36434780Y-14455257D03*
X35619103Y-14835614D03*
%TD*%
D15*
%TO.C,KiKit_MB_4_1*%
X36512360Y-49138721D03*
%TD*%
%TO.C,KiKit_MB_7_2*%
X34492163Y-50811129D03*
%TD*%
%TO.C,KiKit_MB_1_4*%
X14853943Y-27489941D03*
%TD*%
%TO.C,KiKit_MB_1_3*%
X14803312Y-28496223D03*
%TD*%
D17*
%TO.C,TC12*%
X27159644Y-14724700D03*
X27739680Y-14454224D03*
%TD*%
D18*
%TO.C,KiKit_FID_T_1*%
X3900000Y-3900000D03*
%TD*%
D15*
%TO.C,KiKit_MB_3_1*%
X33482706Y-8861626D03*
%TD*%
%TO.C,KiKit_MB_2_1*%
X55133931Y-27485172D03*
%TD*%
D18*
%TO.C,KiKit_TO_1*%
X0Y0D03*
%TD*%
D16*
%TO.C,TD4*%
X47467589Y-23681361D03*
X48283266Y-23301004D03*
X47902909Y-22485327D03*
X47087232Y-22865684D03*
%TD*%
D15*
%TO.C,KiKit_MB_4_2*%
X35502883Y-49189167D03*
%TD*%
D17*
%TO.C,TC21*%
X20273176Y-33438373D03*
X20853212Y-33167897D03*
%TD*%
D15*
%TO.C,KiKit_MB_5_4*%
X14853943Y-69489940D03*
%TD*%
D18*
%TO.C,KiKit_FID_T_2*%
X66100000Y-3900000D03*
%TD*%
D16*
%TO.C,TD8*%
X33559100Y-43544743D03*
X34374777Y-43164386D03*
X33994420Y-42348709D03*
X33178743Y-42729066D03*
%TD*%
D17*
%TO.C,C15*%
X45559163Y-63647323D03*
X46139199Y-63376847D03*
%TD*%
%TO.C,C13*%
X34191958Y-55597065D03*
X34771994Y-55326589D03*
%TD*%
%TO.C,C19*%
X31731011Y-83446369D03*
X32311047Y-83175893D03*
%TD*%
%TO.C,TC19*%
X31731011Y-41446369D03*
X32311047Y-41175893D03*
%TD*%
%TO.C,TC17*%
X44328690Y-35571976D03*
X44908726Y-35301500D03*
%TD*%
%TO.C,C20*%
X24772227Y-81064076D03*
X25352263Y-80793600D03*
%TD*%
D16*
%TO.C,D3*%
X42809350Y-60129888D03*
X43625027Y-59749531D03*
X43244670Y-58933854D03*
X42428993Y-59314211D03*
%TD*%
%TO.C,TD10*%
X22090971Y-35514673D03*
X22906648Y-35134316D03*
X22526291Y-34318639D03*
X21710614Y-34698996D03*
%TD*%
D17*
%TO.C,C12*%
X27159644Y-56724700D03*
X27739680Y-56454224D03*
%TD*%
%TO.C,TC22*%
X18873697Y-26367315D03*
X19453733Y-26096839D03*
%TD*%
%TO.C,C17*%
X44328690Y-77571976D03*
X44908726Y-77301500D03*
%TD*%
%LPD*%
M02*
