%TF.GenerationSoftware,KiCad,Pcbnew,8.0.9-8.0.9-0~ubuntu24.04.1*%
%TF.CreationDate,2025-06-26T14:03:13+02:00*%
%TF.ProjectId,STM32_watch_NFC,53544d33-325f-4776-9174-63685f4e4643,rev?*%
%TF.SameCoordinates,Original*%
%TF.FileFunction,Legend,Bot*%
%TF.FilePolarity,Positive*%
%FSLAX46Y46*%
G04 Gerber Fmt 4.6, Leading zero omitted, Abs format (unit mm)*
G04 Created by KiCad (PCBNEW 8.0.9-8.0.9-0~ubuntu24.04.1) date 2025-06-26 14:03:13*
%MOMM*%
%LPD*%
G01*
G04 APERTURE LIST*
G04 Aperture macros list*
%AMRoundRect*
0 Rectangle with rounded corners*
0 $1 Rounding radius*
0 $2 $3 $4 $5 $6 $7 $8 $9 X,Y pos of 4 corners*
0 Add a 4 corners polygon primitive as box body*
4,1,4,$2,$3,$4,$5,$6,$7,$8,$9,$2,$3,0*
0 Add four circle primitives for the rounded corners*
1,1,$1+$1,$2,$3*
1,1,$1+$1,$4,$5*
1,1,$1+$1,$6,$7*
1,1,$1+$1,$8,$9*
0 Add four rect primitives between the rounded corners*
20,1,$1+$1,$2,$3,$4,$5,0*
20,1,$1+$1,$4,$5,$6,$7,0*
20,1,$1+$1,$6,$7,$8,$9,0*
20,1,$1+$1,$8,$9,$2,$3,0*%
%AMRotRect*
0 Rectangle, with rotation*
0 The origin of the aperture is its center*
0 $1 length*
0 $2 width*
0 $3 Rotation angle, in degrees counterclockwise*
0 Add horizontal line*
21,1,$1,$2,0,0,$3*%
%AMFreePoly0*
4,1,14,0.364320,0.111820,0.377500,0.080000,0.377500,0.053640,0.364320,0.021820,0.230680,-0.111820,0.198860,-0.125000,-0.332500,-0.125000,-0.364320,-0.111820,-0.377500,-0.080000,-0.377500,0.080000,-0.364320,0.111820,-0.332500,0.125000,0.332500,0.125000,0.364320,0.111820,0.364320,0.111820,$1*%
%AMFreePoly1*
4,1,14,0.230680,0.111820,0.364320,-0.021820,0.377500,-0.053640,0.377500,-0.080000,0.364320,-0.111820,0.332500,-0.125000,-0.332500,-0.125000,-0.364320,-0.111820,-0.377500,-0.080000,-0.377500,0.080000,-0.364320,0.111820,-0.332500,0.125000,0.198860,0.125000,0.230680,0.111820,0.230680,0.111820,$1*%
%AMFreePoly2*
4,1,14,0.111820,0.364320,0.125000,0.332500,0.125000,-0.332500,0.111820,-0.364320,0.080000,-0.377500,0.053640,-0.377500,0.021820,-0.364320,-0.111820,-0.230680,-0.125000,-0.198860,-0.125000,0.332500,-0.111820,0.364320,-0.080000,0.377500,0.080000,0.377500,0.111820,0.364320,0.111820,0.364320,$1*%
%AMFreePoly3*
4,1,14,0.111820,0.364320,0.125000,0.332500,0.125000,-0.198860,0.111820,-0.230680,-0.021820,-0.364320,-0.053640,-0.377500,-0.080000,-0.377500,-0.111820,-0.364320,-0.125000,-0.332500,-0.125000,0.332500,-0.111820,0.364320,-0.080000,0.377500,0.080000,0.377500,0.111820,0.364320,0.111820,0.364320,$1*%
%AMFreePoly4*
4,1,14,0.364320,0.111820,0.377500,0.080000,0.377500,-0.080000,0.364320,-0.111820,0.332500,-0.125000,-0.332500,-0.125000,-0.364320,-0.111820,-0.377500,-0.080000,-0.377500,-0.053640,-0.364320,-0.021820,-0.230680,0.111820,-0.198860,0.125000,0.332500,0.125000,0.364320,0.111820,0.364320,0.111820,$1*%
%AMFreePoly5*
4,1,14,0.364320,0.111820,0.377500,0.080000,0.377500,-0.080000,0.364320,-0.111820,0.332500,-0.125000,-0.198860,-0.125000,-0.230680,-0.111820,-0.364320,0.021820,-0.377500,0.053640,-0.377500,0.080000,-0.364320,0.111820,-0.332500,0.125000,0.332500,0.125000,0.364320,0.111820,0.364320,0.111820,$1*%
%AMFreePoly6*
4,1,14,-0.021820,0.364320,0.111820,0.230680,0.125000,0.198860,0.125000,-0.332500,0.111820,-0.364320,0.080000,-0.377500,-0.080000,-0.377500,-0.111820,-0.364320,-0.125000,-0.332500,-0.125000,0.332500,-0.111820,0.364320,-0.080000,0.377500,-0.053640,0.377500,-0.021820,0.364320,-0.021820,0.364320,$1*%
%AMFreePoly7*
4,1,14,0.111820,0.364320,0.125000,0.332500,0.125000,-0.332500,0.111820,-0.364320,0.080000,-0.377500,-0.080000,-0.377500,-0.111820,-0.364320,-0.125000,-0.332500,-0.125000,0.198860,-0.111820,0.230680,0.021820,0.364320,0.053640,0.377500,0.080000,0.377500,0.111820,0.364320,0.111820,0.364320,$1*%
G04 Aperture macros list end*
%ADD10C,0.049000*%
%ADD11C,0.150000*%
%ADD12C,0.125000*%
%ADD13C,0.100000*%
%ADD14C,0.120000*%
%ADD15RoundRect,0.135000X0.035355X-0.226274X0.226274X-0.035355X-0.035355X0.226274X-0.226274X0.035355X0*%
%ADD16RoundRect,0.140000X-0.170000X0.140000X-0.170000X-0.140000X0.170000X-0.140000X0.170000X0.140000X0*%
%ADD17RoundRect,0.125000X-0.176777X0.353553X-0.353553X0.176777X0.176777X-0.353553X0.353553X-0.176777X0*%
%ADD18RoundRect,0.250000X-0.176777X0.671751X-0.671751X0.176777X0.176777X-0.671751X0.671751X-0.176777X0*%
%ADD19RoundRect,0.140000X0.021213X-0.219203X0.219203X-0.021213X-0.021213X0.219203X-0.219203X0.021213X0*%
%ADD20RoundRect,0.150000X0.150000X-0.512500X0.150000X0.512500X-0.150000X0.512500X-0.150000X-0.512500X0*%
%ADD21FreePoly0,315.000000*%
%ADD22RoundRect,0.062500X-0.309359X0.220971X0.220971X-0.309359X0.309359X-0.220971X-0.220971X0.309359X0*%
%ADD23FreePoly1,315.000000*%
%ADD24FreePoly2,315.000000*%
%ADD25RoundRect,0.062500X-0.309359X-0.220971X-0.220971X-0.309359X0.309359X0.220971X0.220971X0.309359X0*%
%ADD26FreePoly3,315.000000*%
%ADD27FreePoly4,315.000000*%
%ADD28FreePoly5,315.000000*%
%ADD29FreePoly6,315.000000*%
%ADD30FreePoly7,315.000000*%
%ADD31RoundRect,0.135000X-0.226274X-0.035355X-0.035355X-0.226274X0.226274X0.035355X0.035355X0.226274X0*%
%ADD32RoundRect,0.150000X0.035355X-0.247487X0.247487X-0.035355X-0.035355X0.247487X-0.247487X0.035355X0*%
%ADD33RotRect,1.550000X1.000000X44.000000*%
%ADD34RoundRect,0.381000X0.808223X-0.269408X-0.269408X0.808223X-0.808223X0.269408X0.269408X-0.808223X0*%
%ADD35RoundRect,0.150000X-0.521491X0.309359X0.309359X-0.521491X0.521491X-0.309359X-0.309359X0.521491X0*%
%ADD36RoundRect,0.200000X-1.150000X0.200000X-1.150000X-0.200000X1.150000X-0.200000X1.150000X0.200000X0*%
%ADD37RoundRect,0.100000X0.162635X-0.021213X-0.021213X0.162635X-0.162635X0.021213X0.021213X-0.162635X0*%
%ADD38C,1.000000*%
%ADD39RoundRect,0.200000X-0.275000X0.200000X-0.275000X-0.200000X0.275000X-0.200000X0.275000X0.200000X0*%
%ADD40RoundRect,0.140000X0.219203X0.021213X0.021213X0.219203X-0.219203X-0.021213X-0.021213X-0.219203X0*%
%ADD41RoundRect,0.175000X0.425000X-0.175000X0.425000X0.175000X-0.425000X0.175000X-0.425000X-0.175000X0*%
%ADD42RoundRect,0.190000X-0.410000X0.190000X-0.410000X-0.190000X0.410000X-0.190000X0.410000X0.190000X0*%
%ADD43RoundRect,0.200000X-0.400000X0.200000X-0.400000X-0.200000X0.400000X-0.200000X0.400000X0.200000X0*%
%ADD44RoundRect,0.175000X-0.425000X0.175000X-0.425000X-0.175000X0.425000X-0.175000X0.425000X0.175000X0*%
%ADD45RoundRect,0.190000X0.410000X-0.190000X0.410000X0.190000X-0.410000X0.190000X-0.410000X-0.190000X0*%
%ADD46RoundRect,0.200000X0.400000X-0.200000X0.400000X0.200000X-0.400000X0.200000X-0.400000X-0.200000X0*%
%ADD47RoundRect,0.250000X0.500000X-0.650000X0.500000X0.650000X-0.500000X0.650000X-0.500000X-0.650000X0*%
%ADD48RoundRect,0.250000X0.425000X-0.650000X0.425000X0.650000X-0.425000X0.650000X-0.425000X-0.650000X0*%
%ADD49RoundRect,0.135000X-0.135000X-0.185000X0.135000X-0.185000X0.135000X0.185000X-0.135000X0.185000X0*%
%ADD50RoundRect,0.250000X0.132583X-0.503814X0.503814X-0.132583X-0.132583X0.503814X-0.503814X0.132583X0*%
%ADD51RoundRect,0.150000X-0.309359X-0.521491X0.521491X0.309359X0.309359X0.521491X-0.521491X-0.309359X0*%
%ADD52RoundRect,0.225000X-0.250000X0.225000X-0.250000X-0.225000X0.250000X-0.225000X0.250000X0.225000X0*%
%ADD53RoundRect,0.140000X0.170000X-0.140000X0.170000X0.140000X-0.170000X0.140000X-0.170000X-0.140000X0*%
%ADD54RoundRect,0.135000X0.135000X0.185000X-0.135000X0.185000X-0.135000X-0.185000X0.135000X-0.185000X0*%
%ADD55RoundRect,0.225000X-0.225000X-0.250000X0.225000X-0.250000X0.225000X0.250000X-0.225000X0.250000X0*%
%ADD56RotRect,1.200000X0.600000X135.000000*%
%ADD57RoundRect,0.100000X0.088388X0.229810X-0.229810X-0.088388X-0.088388X-0.229810X0.229810X0.088388X0*%
%ADD58RoundRect,0.140000X-0.219203X-0.021213X-0.021213X-0.219203X0.219203X0.021213X0.021213X0.219203X0*%
%ADD59C,1.500000*%
%ADD60RotRect,1.550000X1.000000X139.000000*%
%ADD61RoundRect,0.225000X0.250000X-0.225000X0.250000X0.225000X-0.250000X0.225000X-0.250000X-0.225000X0*%
%ADD62RoundRect,0.125000X0.125000X0.375000X-0.125000X0.375000X-0.125000X-0.375000X0.125000X-0.375000X0*%
%ADD63RoundRect,0.250000X0.350000X0.600000X-0.350000X0.600000X-0.350000X-0.600000X0.350000X-0.600000X0*%
%ADD64RoundRect,0.100000X-0.162635X0.021213X0.021213X-0.162635X0.162635X-0.021213X-0.021213X0.162635X0*%
%ADD65RoundRect,0.100000X-0.130000X-0.100000X0.130000X-0.100000X0.130000X0.100000X-0.130000X0.100000X0*%
%ADD66RoundRect,0.225000X0.335876X0.017678X0.017678X0.335876X-0.335876X-0.017678X-0.017678X-0.335876X0*%
%ADD67RoundRect,0.150000X0.200000X-0.150000X0.200000X0.150000X-0.200000X0.150000X-0.200000X-0.150000X0*%
%ADD68RoundRect,0.218750X-0.335876X-0.026517X-0.026517X-0.335876X0.335876X0.026517X0.026517X0.335876X0*%
%ADD69RoundRect,0.150000X-0.150000X0.512500X-0.150000X-0.512500X0.150000X-0.512500X0.150000X0.512500X0*%
%ADD70RoundRect,0.093750X-0.093750X-0.106250X0.093750X-0.106250X0.093750X0.106250X-0.093750X0.106250X0*%
%ADD71R,1.000000X1.600000*%
%ADD72R,1.000000X1.550000*%
%ADD73RoundRect,0.135000X0.185000X-0.135000X0.185000X0.135000X-0.185000X0.135000X-0.185000X-0.135000X0*%
%ADD74RoundRect,0.250000X-0.450000X0.262500X-0.450000X-0.262500X0.450000X-0.262500X0.450000X0.262500X0*%
%ADD75RoundRect,0.100000X0.021213X0.162635X-0.162635X-0.021213X-0.021213X-0.162635X0.162635X0.021213X0*%
G04 APERTURE END LIST*
D10*
X157326522Y-99188237D02*
X157313484Y-99128618D01*
X158016425Y-98586976D02*
X158145854Y-98597553D01*
X156910873Y-98281855D02*
X156770873Y-98281855D01*
X160028099Y-97550713D02*
X160043566Y-97355324D01*
X157910610Y-98855380D02*
G75*
G02*
X157645617Y-98998719I-273810J189580D01*
G01*
X159405336Y-98394420D02*
X159489807Y-98276342D01*
X157731223Y-98276342D02*
X157815694Y-98394420D01*
X157817511Y-97952084D02*
X157739398Y-98103768D01*
X157817511Y-97952084D02*
X157739398Y-98103768D01*
X158779850Y-98668605D02*
G75*
G02*
X158653498Y-98643641I-50250J77905D01*
G01*
X158752044Y-98444736D02*
G75*
G02*
X158792434Y-98533021I-180944J-136164D01*
G01*
X157583791Y-99494672D02*
G75*
G02*
X157633563Y-98398929I942909J506172D01*
G01*
X156984510Y-100096835D02*
X157474810Y-99685425D01*
X160028099Y-97550713D02*
G75*
G02*
X159987999Y-97582182I-33899J1913D01*
G01*
X159318140Y-98537929D02*
G75*
G02*
X159204606Y-98586943I-107940J94029D01*
G01*
X159740414Y-98984424D02*
G75*
G02*
X159575411Y-98998764I-128214J518824D01*
G01*
X156910525Y-98858232D02*
X156770525Y-98858232D01*
X159753912Y-99691879D02*
X160236520Y-100096835D01*
X157583791Y-99494672D02*
G75*
G02*
X157633563Y-98398929I942909J506172D01*
G01*
X159783287Y-100557338D02*
X159783287Y-100691023D01*
X157633597Y-98739188D02*
G75*
G02*
X157633620Y-98398963I361203J170088D01*
G01*
X157321304Y-97407835D02*
X157316339Y-97295945D01*
X157474810Y-99685425D02*
G75*
G02*
X157375864Y-99412801I1141390J568525D01*
G01*
X160096029Y-97114852D02*
X160067591Y-97157374D01*
X160070019Y-97207333D01*
X160073455Y-97211060D01*
X160430230Y-97758897D02*
X160036991Y-97758897D01*
X160310157Y-98281855D02*
X160450157Y-98281855D01*
X157364152Y-97870042D02*
G75*
G02*
X159856878Y-97870042I1246363J-1602338D01*
G01*
X160073455Y-97211060D02*
X160126641Y-97217710D01*
X160173577Y-97203562D01*
X160220724Y-97180961D01*
X159327491Y-100174879D02*
G75*
G02*
X157898431Y-100170766I-711491J1058079D01*
G01*
X159587433Y-98398952D02*
G75*
G02*
X159587456Y-98739199I-361033J-170148D01*
G01*
X159899726Y-97407835D02*
X159904691Y-97295945D01*
X157898419Y-100170784D02*
X157437743Y-100557338D01*
X160236520Y-100273841D02*
G75*
G02*
X160121428Y-100273841I-57546J-70000D01*
G01*
X159454973Y-99123988D02*
G75*
G02*
X159088204Y-99079058I-129873J459288D01*
G01*
X158468986Y-98444736D02*
G75*
G02*
X158595666Y-98258074I450714J-169564D01*
G01*
X158145854Y-98597553D02*
G75*
G02*
X158357717Y-98710061I-24754J-302347D01*
G01*
X157343775Y-98624463D02*
X156983814Y-98195478D01*
X159204605Y-98586976D02*
X159075176Y-98597553D01*
X160310505Y-98858232D02*
X159860246Y-99394829D01*
X158726495Y-95902171D02*
X157777135Y-96496406D01*
X158304122Y-98949711D02*
G75*
G02*
X158132826Y-99079057I-900922J1015011D01*
G01*
X158567490Y-98643612D02*
G75*
G02*
X158441200Y-98668574I-76090J53012D01*
G01*
X157857475Y-97752261D02*
G75*
G02*
X159363555Y-97752261I753040J-1758557D01*
G01*
X158016425Y-98586976D02*
G75*
G02*
X157902873Y-98537944I-5625J142976D01*
G01*
X159451816Y-98612362D02*
G75*
G02*
X159310433Y-98855398I-337616J33762D01*
G01*
X159575412Y-98998753D02*
G75*
G02*
X159310407Y-98855389I8788J332853D01*
G01*
X158595668Y-98258076D02*
X158625362Y-98258076D01*
X160310505Y-98858232D02*
X160450505Y-98858232D01*
X157329907Y-100516835D02*
X157815566Y-100109319D01*
X159687512Y-98204463D02*
G75*
G02*
X159877236Y-98624468I-1101312J-750337D01*
G01*
X160257636Y-98755478D02*
X160450505Y-98755478D01*
X158016425Y-98586976D02*
X158145854Y-98597553D01*
X159774129Y-96610710D02*
G75*
G02*
X160043571Y-97355283I317371J-306190D01*
G01*
X157731223Y-98276342D02*
G75*
G02*
X157739441Y-98103801I130677J80242D01*
G01*
X160121428Y-100133841D02*
X160121428Y-100273841D01*
X157452517Y-97327218D02*
G75*
G02*
X157498256Y-97398737I21583J-36582D01*
G01*
X158052532Y-98878451D02*
G75*
G02*
X158357700Y-98710053I365668J-301949D01*
G01*
X159905201Y-98764463D02*
X160310157Y-98281855D01*
X157343775Y-98624463D02*
G75*
G02*
X157533525Y-98204468I1291525J-330637D01*
G01*
X158052532Y-98878451D02*
G75*
G02*
X157766061Y-99124000I-428432J209951D01*
G01*
X157454874Y-97548683D02*
X157220764Y-97674969D01*
X157313484Y-99128618D02*
G75*
G02*
X157315816Y-98764461I1322116J173618D01*
G01*
X157375864Y-99412801D02*
X156910525Y-98858232D01*
X157645618Y-98998753D02*
G75*
G02*
X157480614Y-98984433I-36818J533553D01*
G01*
X157099602Y-100133841D02*
X157099602Y-100273841D01*
X157233023Y-97582141D02*
X157498237Y-97398710D01*
X158863327Y-98710073D02*
G75*
G02*
X159075177Y-98597560I236673J-189927D01*
G01*
X159575412Y-98998753D02*
G75*
G02*
X159310407Y-98855389I8788J332853D01*
G01*
X159731108Y-97630327D02*
X159896651Y-97736210D01*
X159451816Y-98612362D02*
G75*
G02*
X159514296Y-98806885I-205616J-173338D01*
G01*
X158726495Y-95902171D02*
X159557230Y-96218717D01*
X159988007Y-97582141D02*
X159722793Y-97398710D01*
X160322845Y-96738618D02*
X160286850Y-96698893D01*
X160243156Y-96665803D01*
X160198811Y-96643381D01*
X160162676Y-96631660D01*
X158258022Y-98183362D02*
G75*
G02*
X158048022Y-98183362I-105000J0D01*
G01*
X158048022Y-98183362D02*
G75*
G02*
X158258022Y-98183362I105000J0D01*
G01*
X157706743Y-98806884D02*
G75*
G02*
X157769210Y-98612359I268457J21084D01*
G01*
X158145854Y-98597553D02*
G75*
G02*
X158357717Y-98710061I-24754J-302347D01*
G01*
X160162676Y-96631660D02*
X160109607Y-96623615D01*
X160055640Y-96625919D01*
X160003862Y-96639424D01*
X159957360Y-96664983D01*
X160339506Y-97061104D02*
X160360388Y-97013555D01*
X160373875Y-96962578D01*
X160378861Y-96909907D01*
X160378742Y-96899323D01*
X156983814Y-98195478D02*
X156770873Y-98195478D01*
X159766156Y-97548683D02*
X160000266Y-97674969D01*
X159410805Y-100113801D02*
X159891123Y-100516835D01*
X160420266Y-97674969D02*
G75*
G02*
X160430241Y-97758890I92734J-31531D01*
G01*
X159768513Y-97327218D02*
X159899726Y-97407835D01*
X159891123Y-100516835D02*
X159891123Y-100691023D01*
X158132821Y-99079050D02*
G75*
G02*
X157766064Y-99123963I-236821J413950D01*
G01*
X159454973Y-99123988D02*
G75*
G02*
X159168486Y-98878457I141827J455388D01*
G01*
X157171979Y-97201341D02*
X157192931Y-97550713D01*
X159957360Y-96664983D02*
X159919410Y-96702088D01*
X159891305Y-96747770D01*
X159874728Y-96798012D01*
X159871364Y-96848800D01*
X159172375Y-96254808D02*
X159218280Y-96293156D01*
X159268236Y-96328268D01*
X159310889Y-96363882D01*
X159354201Y-96408769D01*
X159394765Y-96464114D01*
X159418597Y-96507407D01*
X159438683Y-96556227D01*
X159454014Y-96610926D01*
X159463578Y-96671856D01*
X159466367Y-96739368D01*
X159464906Y-96775702D01*
X157910610Y-98855380D02*
G75*
G02*
X157769224Y-98612361I196190J276780D01*
G01*
X157315829Y-98764463D02*
X156910873Y-98281855D01*
X157329907Y-100516835D02*
X157329907Y-100691023D01*
X159587433Y-98739188D02*
G75*
G02*
X159514294Y-98806903I-116233J52188D01*
G01*
X157815566Y-100109319D02*
G75*
G02*
X157525100Y-99776806I800634J992519D01*
G01*
X159031664Y-99159217D02*
G75*
G02*
X158766032Y-99004621I185836J624817D01*
G01*
X157220764Y-97674969D02*
X156800764Y-97674969D01*
X157731223Y-98276342D02*
G75*
G02*
X157739441Y-98103801I130677J80242D01*
G01*
X158610515Y-99129146D02*
G75*
G02*
X157480604Y-98984431I-507515J520846D01*
G01*
X159603174Y-96923191D02*
X159591059Y-96866610D01*
X159583102Y-96801946D01*
X159575743Y-96743667D01*
X159566231Y-96679881D01*
X159553704Y-96613177D01*
X159537298Y-96546144D01*
X159516151Y-96481372D01*
X159489398Y-96421451D01*
X159456177Y-96368969D01*
X159443517Y-96353576D01*
X159172375Y-96254808D02*
X159443517Y-96353576D01*
X159481632Y-98103768D02*
G75*
G02*
X159489765Y-98276316I-122332J-92232D01*
G01*
X158516078Y-98927420D02*
G75*
G02*
X158610514Y-98854873I98422J-30380D01*
G01*
X159907546Y-99128618D02*
X159897675Y-99184463D01*
X158610515Y-99129146D02*
G75*
G02*
X157480604Y-98984431I-507515J520846D01*
G01*
X160236520Y-100096835D02*
X160236520Y-100273841D01*
X157454874Y-97548683D02*
G75*
G02*
X157489908Y-97630319I-12774J-53817D01*
G01*
X157324379Y-97736210D02*
X157364152Y-97870042D01*
X159587433Y-98398952D02*
G75*
G02*
X159637218Y-99494661I-892733J-589548D01*
G01*
X159587433Y-98739188D02*
G75*
G02*
X159514294Y-98806903I-116233J52188D01*
G01*
X157633597Y-98739188D02*
G75*
G02*
X157633620Y-98398963I361203J170088D01*
G01*
X159871364Y-96848800D02*
X159882930Y-96898414D01*
X159907771Y-96942363D01*
X159942983Y-96978747D01*
X159965960Y-96994994D01*
X159481632Y-98103768D02*
X159403519Y-97952084D01*
X158052532Y-98878451D02*
G75*
G02*
X157766061Y-99124000I-428432J209951D01*
G01*
X159403519Y-97952084D02*
G75*
G02*
X159363555Y-97752261I274881J158884D01*
G01*
X160000266Y-97674969D02*
X160420266Y-97674969D01*
X159897675Y-99184463D02*
X160257636Y-98755478D01*
X158188393Y-98471857D02*
G75*
G02*
X157845565Y-98196047I-21893J323757D01*
G01*
X158490988Y-98152416D02*
G75*
G02*
X158188403Y-98471892I-414988J90016D01*
G01*
X159327491Y-100174879D02*
X159783287Y-100557338D01*
D11*
X166000286Y-105000000D02*
G75*
G02*
X130999714Y-105000000I-17500286J0D01*
G01*
X130999714Y-105000000D02*
G75*
G02*
X166000286Y-105000000I17500286J0D01*
G01*
D10*
X160275839Y-96886287D02*
X160272152Y-96943989D01*
X160253512Y-96997381D01*
X160216766Y-97040698D01*
X160171998Y-97069689D01*
X160127326Y-97093159D01*
X160096029Y-97114852D01*
X159703168Y-99782879D02*
G75*
G02*
X159410811Y-100113809I-1086868J665579D01*
G01*
X158610515Y-98559579D02*
G75*
G02*
X158567501Y-98643622I-173715J35879D01*
G01*
X157489922Y-97630327D02*
X157324379Y-97736210D01*
X157910610Y-98855380D02*
G75*
G02*
X157769224Y-98612361I196190J276780D01*
G01*
X157815694Y-98394420D02*
G75*
G02*
X157902895Y-98537928I-200994J-220380D01*
G01*
X156963394Y-98755478D02*
X157326522Y-99188237D01*
X158653540Y-98643612D02*
G75*
G02*
X158610497Y-98559583I130160J119712D01*
G01*
X158610515Y-98854896D02*
G75*
G02*
X158704924Y-98927429I-3915J-102804D01*
G01*
X158428597Y-98533021D02*
G75*
G02*
X158468975Y-98444727I221203J-47779D01*
G01*
X159860246Y-99394829D02*
G75*
G02*
X159753915Y-99691880I-1244246J277829D01*
G01*
X159375472Y-98196048D02*
G75*
G02*
X159032634Y-98471896I-320972J47948D01*
G01*
X159637239Y-99494672D02*
G75*
G02*
X157583791Y-99494672I-1026724J371887D01*
G01*
X159731108Y-97630327D02*
G75*
G02*
X159766161Y-97548706I47992J27727D01*
G01*
X157099602Y-100273841D02*
G75*
G02*
X156984510Y-100273841I-57546J-70000D01*
G01*
X159318140Y-98537929D02*
G75*
G02*
X159405340Y-98394424I287860J-76671D01*
G01*
X160193140Y-96877224D02*
G75*
G02*
X160275795Y-96886293I40160J-15176D01*
G01*
X157910610Y-98855380D02*
G75*
G02*
X157645617Y-98998719I-273810J189580D01*
G01*
X159451816Y-98612362D02*
G75*
G02*
X159514296Y-98806885I-205616J-173338D01*
G01*
X159637239Y-99494672D02*
G75*
G02*
X157583791Y-99494672I-1026724J371887D01*
G01*
X158016425Y-98586976D02*
G75*
G02*
X157902873Y-98537944I-5625J142976D01*
G01*
X159481632Y-98103768D02*
G75*
G02*
X159489765Y-98276316I-122332J-92232D01*
G01*
X158441180Y-98668605D02*
G75*
G02*
X158428580Y-98533012I91720J76905D01*
G01*
X157815694Y-98394420D02*
G75*
G02*
X157902895Y-98537928I-200994J-220380D01*
G01*
X159905201Y-98764463D02*
G75*
G02*
X159907535Y-99128617I-1318801J-190537D01*
G01*
X159032637Y-98471857D02*
G75*
G02*
X158729983Y-98152429I112363J409557D01*
G01*
X158792433Y-98533021D02*
G75*
G02*
X158779805Y-98668567I-103933J-58679D01*
G01*
X159031664Y-99159217D02*
G75*
G02*
X158916918Y-98949710I183936J236917D01*
G01*
X157452517Y-97327218D02*
X157321304Y-97407835D01*
X157645618Y-98998753D02*
G75*
G02*
X157480614Y-98984433I-36818J533553D01*
G01*
X159489807Y-98276342D02*
X159405336Y-98394420D01*
X160107854Y-97012731D02*
X160144430Y-96979118D01*
X160169712Y-96934325D01*
X160189019Y-96887854D01*
X160193140Y-96877224D01*
X157496006Y-96980726D02*
X157171979Y-97201341D01*
X156984510Y-100096835D02*
X156984510Y-100273841D01*
X157437743Y-100557338D02*
X157437743Y-100691023D01*
X157706743Y-98806884D02*
G75*
G02*
X157633555Y-98739207I43157J120084D01*
G01*
X157857475Y-97752261D02*
G75*
G02*
X157817525Y-97952092I-315475J-40839D01*
G01*
X159896651Y-97736210D02*
X159856878Y-97870042D01*
X159318140Y-98537929D02*
G75*
G02*
X159204606Y-98586943I-107940J94029D01*
G01*
X159965960Y-96994994D02*
X160011520Y-97015874D01*
X160062489Y-97023731D01*
X160107854Y-97012731D01*
X156790800Y-97758897D02*
X157184039Y-97758897D01*
X158863327Y-98710073D02*
G75*
G02*
X159168528Y-98878427I-60627J-470727D01*
G01*
X159451816Y-98612362D02*
G75*
G02*
X159310433Y-98855398I-337616J33762D01*
G01*
X158304122Y-98949711D02*
G75*
G02*
X158132826Y-99079057I-900922J1015011D01*
G01*
X159740414Y-98984424D02*
G75*
G02*
X158610479Y-99129183I-622414J376024D01*
G01*
X160220724Y-97180961D02*
X160263550Y-97152375D01*
X160301879Y-97115973D01*
X160331898Y-97074538D01*
X160339506Y-97061104D01*
X157845558Y-98196048D02*
G75*
G02*
X158490950Y-98152428I327742J-52852D01*
G01*
X160450157Y-98195478D02*
G75*
G02*
X160450127Y-98281873I69943J-43222D01*
G01*
X159891123Y-100691023D02*
G75*
G02*
X159783287Y-100691023I-53918J-70000D01*
G01*
X159587433Y-98398952D02*
G75*
G02*
X159587456Y-98739199I-361033J-170148D01*
G01*
X156770873Y-98281855D02*
G75*
G02*
X156770843Y-98195496I-69973J43155D01*
G01*
X158516078Y-98927420D02*
G75*
G02*
X158454978Y-99004602I-378578J236920D01*
G01*
X157316339Y-97295945D02*
G75*
G02*
X159904691Y-97295945I1294176J-1609142D01*
G01*
X157731223Y-98276342D02*
X157815694Y-98394420D01*
X158766045Y-99004608D02*
G75*
G02*
X158704943Y-98927426I317855J314408D01*
G01*
X159227107Y-96736068D02*
X159464906Y-96775702D01*
X158610515Y-98854896D02*
G75*
G02*
X158704924Y-98927429I-3915J-102804D01*
G01*
X157437743Y-100691023D02*
G75*
G02*
X157329907Y-100691023I-53918J-70000D01*
G01*
X159740414Y-98984424D02*
G75*
G02*
X158610479Y-99129183I-622414J376024D01*
G01*
X157533518Y-98204463D02*
G75*
G02*
X157184052Y-97758896I185682J505463D01*
G01*
X156963394Y-98755478D02*
X156770525Y-98755478D01*
X159227107Y-96736068D02*
X159603174Y-96923191D01*
X158304122Y-98949711D02*
G75*
G02*
X158189364Y-99159214I-299022J27611D01*
G01*
X157857475Y-97752261D02*
G75*
G02*
X157817525Y-97952092I-315475J-40839D01*
G01*
X158766045Y-99004608D02*
G75*
G02*
X158704943Y-98927426I317855J314408D01*
G01*
X159318140Y-98537929D02*
G75*
G02*
X159405340Y-98394424I287860J-76671D01*
G01*
X158730042Y-98152416D02*
G75*
G02*
X159375454Y-98196051I317658J-96484D01*
G01*
X157706743Y-98806884D02*
G75*
G02*
X157769210Y-98612359I268457J21084D01*
G01*
X159703168Y-99782879D02*
X160121428Y-100133841D01*
X156790800Y-97758897D02*
G75*
G02*
X156800773Y-97674966I-82800J52397D01*
G01*
X158454985Y-99004608D02*
G75*
G02*
X158189368Y-99159224I-451285J469808D01*
G01*
X160237216Y-98195478D02*
X160450157Y-98195478D01*
X159557230Y-96218717D02*
X159774129Y-96610710D01*
X159587433Y-98398952D02*
G75*
G02*
X159637218Y-99494661I-892733J-589548D01*
G01*
X160378742Y-96899323D02*
X160372149Y-96846299D01*
X160355626Y-96795208D01*
X160329282Y-96747589D01*
X160322845Y-96738618D01*
X160036991Y-97758897D02*
G75*
G02*
X159687523Y-98204494I-535191J59897D01*
G01*
X157777135Y-96496406D02*
X157496006Y-96980726D01*
X159877255Y-98624463D02*
X160237216Y-98195478D01*
X159403519Y-97952084D02*
G75*
G02*
X159363555Y-97752261I274881J158884D01*
G01*
X160450505Y-98755478D02*
G75*
G02*
X160450462Y-98858263I69995J-51422D01*
G01*
X157233023Y-97582141D02*
G75*
G02*
X157192870Y-97550717I-6123J33541D01*
G01*
X157525097Y-99776808D02*
X157099602Y-100133841D01*
X159075176Y-98597553D02*
X159204605Y-98586976D01*
X158052532Y-98878451D02*
G75*
G02*
X158357700Y-98710053I365668J-301949D01*
G01*
X159722793Y-97398710D02*
G75*
G02*
X159768480Y-97327274I24107J34910D01*
G01*
X159173008Y-98183362D02*
G75*
G02*
X158963008Y-98183362I-105000J0D01*
G01*
X158963008Y-98183362D02*
G75*
G02*
X159173008Y-98183362I105000J0D01*
G01*
X158863327Y-98710073D02*
G75*
G02*
X159075177Y-98597560I236673J-189927D01*
G01*
X158625362Y-98258076D02*
G75*
G02*
X158752046Y-98444735I-324162J-356324D01*
G01*
X157857475Y-97752261D02*
G75*
G02*
X159363555Y-97752261I753040J-1758557D01*
G01*
X156770525Y-98858232D02*
G75*
G02*
X156770482Y-98755510I-70025J51332D01*
G01*
X159088209Y-99079050D02*
G75*
G02*
X158916909Y-98949710I730091J1145050D01*
G01*
D12*
X155727287Y-102607640D02*
X155727287Y-101807640D01*
X155727287Y-102188592D02*
X155270144Y-102188592D01*
X155270144Y-102607640D02*
X155270144Y-101807640D01*
X154736811Y-101807640D02*
X154584430Y-101807640D01*
X154584430Y-101807640D02*
X154508240Y-101845735D01*
X154508240Y-101845735D02*
X154432049Y-101921925D01*
X154432049Y-101921925D02*
X154393954Y-102074306D01*
X154393954Y-102074306D02*
X154393954Y-102340973D01*
X154393954Y-102340973D02*
X154432049Y-102493354D01*
X154432049Y-102493354D02*
X154508240Y-102569545D01*
X154508240Y-102569545D02*
X154584430Y-102607640D01*
X154584430Y-102607640D02*
X154736811Y-102607640D01*
X154736811Y-102607640D02*
X154813002Y-102569545D01*
X154813002Y-102569545D02*
X154889192Y-102493354D01*
X154889192Y-102493354D02*
X154927288Y-102340973D01*
X154927288Y-102340973D02*
X154927288Y-102074306D01*
X154927288Y-102074306D02*
X154889192Y-101921925D01*
X154889192Y-101921925D02*
X154813002Y-101845735D01*
X154813002Y-101845735D02*
X154736811Y-101807640D01*
X154508239Y-103895595D02*
X154508239Y-103095595D01*
X154508239Y-103476547D02*
X154051096Y-103476547D01*
X154051096Y-103895595D02*
X154051096Y-103095595D01*
X153517763Y-103095595D02*
X153365382Y-103095595D01*
X153365382Y-103095595D02*
X153289192Y-103133690D01*
X153289192Y-103133690D02*
X153213001Y-103209880D01*
X153213001Y-103209880D02*
X153174906Y-103362261D01*
X153174906Y-103362261D02*
X153174906Y-103628928D01*
X153174906Y-103628928D02*
X153213001Y-103781309D01*
X153213001Y-103781309D02*
X153289192Y-103857500D01*
X153289192Y-103857500D02*
X153365382Y-103895595D01*
X153365382Y-103895595D02*
X153517763Y-103895595D01*
X153517763Y-103895595D02*
X153593954Y-103857500D01*
X153593954Y-103857500D02*
X153670144Y-103781309D01*
X153670144Y-103781309D02*
X153708240Y-103628928D01*
X153708240Y-103628928D02*
X153708240Y-103362261D01*
X153708240Y-103362261D02*
X153670144Y-103209880D01*
X153670144Y-103209880D02*
X153593954Y-103133690D01*
X153593954Y-103133690D02*
X153517763Y-103095595D01*
D11*
G36*
X154475078Y-94934750D02*
G01*
X154271257Y-95138571D01*
X154198586Y-95162796D01*
X154155582Y-95162796D01*
X154082911Y-95138572D01*
X154006934Y-95062595D01*
X153982710Y-94989923D01*
X153982710Y-94952454D01*
X154036692Y-94844489D01*
X154210755Y-94670427D01*
X154475078Y-94934750D01*
G37*
G36*
X154104689Y-94564361D02*
G01*
X153934539Y-94734510D01*
X153861868Y-94758735D01*
X153818865Y-94758735D01*
X153746193Y-94734511D01*
X153703888Y-94692206D01*
X153679664Y-94619534D01*
X153679664Y-94576531D01*
X153703888Y-94503859D01*
X153874038Y-94333709D01*
X154104689Y-94564361D01*
G37*
G36*
X155685470Y-93114684D02*
G01*
X155742948Y-93172162D01*
X155466166Y-93356683D01*
X155454819Y-93345336D01*
X155434651Y-93284834D01*
X155454819Y-93224333D01*
X155564467Y-93114684D01*
X155624969Y-93094517D01*
X155685470Y-93114684D01*
G37*
G36*
X156327025Y-92409369D02*
G01*
X156123203Y-92613190D01*
X156050532Y-92637415D01*
X156007528Y-92637415D01*
X155934857Y-92613191D01*
X155858880Y-92537214D01*
X155834656Y-92464542D01*
X155834656Y-92421539D01*
X155858880Y-92348867D01*
X156062702Y-92145046D01*
X156327025Y-92409369D01*
G37*
G36*
X157033010Y-92746087D02*
G01*
X153167951Y-96611146D01*
X152197644Y-95640838D01*
X152398734Y-95439748D01*
X152586856Y-95439748D01*
X152588297Y-95447032D01*
X152588297Y-95454457D01*
X152591108Y-95461245D01*
X152592535Y-95468455D01*
X152596654Y-95474634D01*
X152599496Y-95481494D01*
X152608723Y-95492737D01*
X152608767Y-95492803D01*
X152608789Y-95492817D01*
X152608823Y-95492859D01*
X153262896Y-96146933D01*
X153113899Y-96295931D01*
X153104572Y-96307296D01*
X153093373Y-96334333D01*
X153093373Y-96363595D01*
X153104572Y-96390632D01*
X153125264Y-96411324D01*
X153152301Y-96422523D01*
X153181563Y-96422523D01*
X153208600Y-96411324D01*
X153219965Y-96401997D01*
X153624026Y-95997936D01*
X153633354Y-95986570D01*
X153644552Y-95959534D01*
X153644552Y-95930271D01*
X153633354Y-95903235D01*
X153612661Y-95882542D01*
X153585625Y-95871344D01*
X153556362Y-95871344D01*
X153529326Y-95882542D01*
X153517960Y-95891870D01*
X153368962Y-96040867D01*
X152902610Y-95574514D01*
X153731695Y-95574514D01*
X153731695Y-95641857D01*
X153733136Y-95656488D01*
X153733136Y-95656489D01*
X153744335Y-95683525D01*
X153765027Y-95704217D01*
X153792063Y-95715416D01*
X153806695Y-95716857D01*
X153874038Y-95716857D01*
X153888670Y-95715416D01*
X153915706Y-95704217D01*
X153936398Y-95683525D01*
X153947597Y-95656489D01*
X153947597Y-95656488D01*
X153949038Y-95641857D01*
X153949038Y-95574514D01*
X153947597Y-95559882D01*
X153936398Y-95532846D01*
X153915706Y-95512154D01*
X153888670Y-95500955D01*
X153874038Y-95499514D01*
X153806695Y-95499514D01*
X153792063Y-95500955D01*
X153765027Y-95512154D01*
X153744335Y-95532846D01*
X153733136Y-95559882D01*
X153731695Y-95574514D01*
X152902610Y-95574514D01*
X152876594Y-95548498D01*
X152964901Y-95548498D01*
X152972306Y-95547768D01*
X152974281Y-95547909D01*
X152976878Y-95547318D01*
X152979533Y-95547057D01*
X152981364Y-95546298D01*
X152988618Y-95544649D01*
X153089634Y-95510977D01*
X153103059Y-95504983D01*
X153125166Y-95485809D01*
X153138253Y-95459636D01*
X153140328Y-95430446D01*
X153131074Y-95402684D01*
X153111900Y-95380576D01*
X153085727Y-95367490D01*
X153056537Y-95365415D01*
X153042200Y-95368675D01*
X152952731Y-95398498D01*
X152837643Y-95398498D01*
X152676565Y-95366282D01*
X152676511Y-95366276D01*
X152676488Y-95366267D01*
X152676414Y-95366267D01*
X152661934Y-95364826D01*
X152654650Y-95366267D01*
X152647225Y-95366267D01*
X152640436Y-95369078D01*
X152633227Y-95370505D01*
X152627047Y-95374624D01*
X152620188Y-95377466D01*
X152614993Y-95382661D01*
X152608879Y-95386737D01*
X152604746Y-95392907D01*
X152599496Y-95398158D01*
X152596684Y-95404946D01*
X152592595Y-95411052D01*
X152591138Y-95418333D01*
X152588297Y-95425194D01*
X152588297Y-95432542D01*
X152586856Y-95439748D01*
X152398734Y-95439748D01*
X153274121Y-94564361D01*
X153529664Y-94564361D01*
X153529664Y-94631705D01*
X153530393Y-94639110D01*
X153530253Y-94641085D01*
X153530843Y-94643682D01*
X153531105Y-94646337D01*
X153531863Y-94648168D01*
X153533513Y-94655422D01*
X153567185Y-94756437D01*
X153573179Y-94769862D01*
X153574944Y-94771897D01*
X153575976Y-94774388D01*
X153585303Y-94785753D01*
X153652646Y-94853096D01*
X153664011Y-94862423D01*
X153666499Y-94863453D01*
X153668536Y-94865220D01*
X153681962Y-94871214D01*
X153782978Y-94904886D01*
X153790231Y-94906535D01*
X153792063Y-94907294D01*
X153794717Y-94907555D01*
X153797315Y-94908146D01*
X153799289Y-94908005D01*
X153806695Y-94908735D01*
X153837748Y-94908735D01*
X153835373Y-94914941D01*
X153835182Y-94917628D01*
X153834151Y-94920118D01*
X153832710Y-94934750D01*
X153832710Y-95002094D01*
X153833439Y-95009499D01*
X153833299Y-95011474D01*
X153833889Y-95014071D01*
X153834151Y-95016726D01*
X153834909Y-95018557D01*
X153836559Y-95025811D01*
X153870231Y-95126826D01*
X153876225Y-95140251D01*
X153877990Y-95142286D01*
X153879022Y-95144777D01*
X153888349Y-95156142D01*
X153989364Y-95257157D01*
X154000729Y-95266485D01*
X154003219Y-95267516D01*
X154005254Y-95269281D01*
X154018680Y-95275275D01*
X154119694Y-95308947D01*
X154126949Y-95310596D01*
X154128780Y-95311355D01*
X154131433Y-95311616D01*
X154134031Y-95312207D01*
X154136005Y-95312066D01*
X154143412Y-95312796D01*
X154210756Y-95312796D01*
X154218161Y-95312066D01*
X154220136Y-95312207D01*
X154222733Y-95311616D01*
X154225388Y-95311355D01*
X154227219Y-95310596D01*
X154234473Y-95308947D01*
X154335488Y-95275275D01*
X154348913Y-95269281D01*
X154350948Y-95267515D01*
X154353439Y-95266484D01*
X154364804Y-95257157D01*
X154634178Y-94987783D01*
X154643500Y-94976423D01*
X154643506Y-94976418D01*
X154654704Y-94949382D01*
X154654704Y-94920119D01*
X154643506Y-94893083D01*
X154634178Y-94881717D01*
X154283151Y-94530690D01*
X154775519Y-94530690D01*
X154775519Y-94598033D01*
X154776960Y-94612664D01*
X154776960Y-94612665D01*
X154788159Y-94639701D01*
X154808851Y-94660393D01*
X154835887Y-94671592D01*
X154850519Y-94673033D01*
X154917862Y-94673033D01*
X154932494Y-94671592D01*
X154959530Y-94660393D01*
X154980222Y-94639701D01*
X154991421Y-94612665D01*
X154991421Y-94612664D01*
X154992862Y-94598033D01*
X154992862Y-94530690D01*
X154991421Y-94516058D01*
X154980222Y-94489022D01*
X154959530Y-94468330D01*
X154932494Y-94457131D01*
X154917862Y-94455690D01*
X154850519Y-94455690D01*
X154835887Y-94457131D01*
X154808851Y-94468330D01*
X154788159Y-94489022D01*
X154776960Y-94516058D01*
X154775519Y-94530690D01*
X154283151Y-94530690D01*
X153927071Y-94174611D01*
X153915706Y-94165284D01*
X153888669Y-94154085D01*
X153859406Y-94154085D01*
X153832370Y-94165284D01*
X153821005Y-94174611D01*
X153585303Y-94410313D01*
X153575976Y-94421678D01*
X153574944Y-94424168D01*
X153573179Y-94426204D01*
X153567185Y-94439629D01*
X153533513Y-94540644D01*
X153531863Y-94547897D01*
X153531105Y-94549729D01*
X153530843Y-94552383D01*
X153530253Y-94554981D01*
X153530393Y-94556955D01*
X153529664Y-94564361D01*
X153274121Y-94564361D01*
X153970267Y-93868215D01*
X154641637Y-93868215D01*
X154651480Y-93895774D01*
X154671119Y-93917468D01*
X154683725Y-93925034D01*
X155323489Y-94228080D01*
X155337329Y-94233042D01*
X155341088Y-94233228D01*
X155344634Y-94234495D01*
X155355595Y-94233950D01*
X155366557Y-94234495D01*
X155370101Y-94233228D01*
X155373861Y-94233042D01*
X155383779Y-94228343D01*
X155394115Y-94224652D01*
X155396905Y-94222125D01*
X155400308Y-94220514D01*
X155407673Y-94212378D01*
X155415809Y-94205013D01*
X155417420Y-94201610D01*
X155419947Y-94198820D01*
X155423638Y-94188484D01*
X155428337Y-94178566D01*
X155428523Y-94174806D01*
X155429790Y-94171262D01*
X155429245Y-94160300D01*
X155429790Y-94149339D01*
X155428523Y-94145793D01*
X155428337Y-94142034D01*
X155423375Y-94128194D01*
X155120329Y-93488430D01*
X155112763Y-93475824D01*
X155091069Y-93456185D01*
X155063510Y-93446342D01*
X155034283Y-93447795D01*
X155007836Y-93460323D01*
X154988197Y-93482017D01*
X154978354Y-93509576D01*
X154979807Y-93538803D01*
X154984769Y-93552644D01*
X155197916Y-94002621D01*
X154747939Y-93789474D01*
X154734098Y-93784512D01*
X154704871Y-93783059D01*
X154677312Y-93792902D01*
X154655618Y-93812541D01*
X154643090Y-93838988D01*
X154641637Y-93868215D01*
X153970267Y-93868215D01*
X154563027Y-93275455D01*
X155281184Y-93275455D01*
X155281850Y-93284832D01*
X155281184Y-93294215D01*
X155283124Y-93302747D01*
X155283259Y-93304645D01*
X155283803Y-93305733D01*
X155284444Y-93308552D01*
X155318116Y-93409567D01*
X155324110Y-93422992D01*
X155325875Y-93425027D01*
X155326907Y-93427518D01*
X155336234Y-93438883D01*
X155403577Y-93506226D01*
X155414942Y-93515553D01*
X155421731Y-93518365D01*
X155427837Y-93522454D01*
X155435117Y-93523910D01*
X155441978Y-93526752D01*
X155449326Y-93526752D01*
X155456531Y-93528193D01*
X155463815Y-93526752D01*
X155471241Y-93526752D01*
X155478028Y-93523940D01*
X155485239Y-93522514D01*
X155498213Y-93515597D01*
X155851115Y-93280329D01*
X155929806Y-93359020D01*
X155949973Y-93419521D01*
X155929806Y-93480022D01*
X155820157Y-93589671D01*
X155735939Y-93617745D01*
X155722513Y-93623739D01*
X155700406Y-93642913D01*
X155687319Y-93669086D01*
X155685245Y-93698276D01*
X155694499Y-93726039D01*
X155713673Y-93748146D01*
X155739846Y-93761233D01*
X155769036Y-93763307D01*
X155783373Y-93760047D01*
X155884388Y-93726375D01*
X155897813Y-93720381D01*
X155899848Y-93718615D01*
X155902339Y-93717584D01*
X155913704Y-93708257D01*
X156048391Y-93573570D01*
X156057718Y-93562205D01*
X156058748Y-93559716D01*
X156060515Y-93557680D01*
X156066509Y-93544254D01*
X156100181Y-93443240D01*
X156100822Y-93440419D01*
X156101366Y-93439332D01*
X156101500Y-93437435D01*
X156103441Y-93428903D01*
X156102774Y-93419522D01*
X156103441Y-93410142D01*
X156101500Y-93401609D01*
X156101366Y-93399713D01*
X156100822Y-93398625D01*
X156100181Y-93395805D01*
X156066509Y-93294789D01*
X156060515Y-93281363D01*
X156058748Y-93279326D01*
X156057718Y-93276838D01*
X156048391Y-93265473D01*
X155913761Y-93130843D01*
X155913760Y-93130841D01*
X155913756Y-93130838D01*
X155779017Y-92996099D01*
X155767652Y-92986772D01*
X155765161Y-92985740D01*
X155763126Y-92983975D01*
X155749701Y-92977981D01*
X155648686Y-92944310D01*
X155645867Y-92943669D01*
X155644779Y-92943125D01*
X155642881Y-92942990D01*
X155634349Y-92941050D01*
X155624969Y-92941716D01*
X155615589Y-92941050D01*
X155607056Y-92942990D01*
X155605159Y-92943125D01*
X155604070Y-92943669D01*
X155601252Y-92944310D01*
X155500237Y-92977981D01*
X155486812Y-92983975D01*
X155484776Y-92985740D01*
X155482286Y-92986772D01*
X155470921Y-92996099D01*
X155336234Y-93130786D01*
X155326907Y-93142151D01*
X155325875Y-93144641D01*
X155324110Y-93146677D01*
X155318116Y-93160102D01*
X155284444Y-93261118D01*
X155283803Y-93263933D01*
X155283258Y-93265025D01*
X155283122Y-93266928D01*
X155281184Y-93275455D01*
X154563027Y-93275455D01*
X155429113Y-92409369D01*
X155684656Y-92409369D01*
X155684656Y-92476713D01*
X155685385Y-92484118D01*
X155685245Y-92486093D01*
X155685835Y-92488690D01*
X155686097Y-92491345D01*
X155686855Y-92493176D01*
X155688505Y-92500430D01*
X155722177Y-92601445D01*
X155728171Y-92614870D01*
X155729936Y-92616905D01*
X155730968Y-92619396D01*
X155740295Y-92630761D01*
X155841310Y-92731776D01*
X155852675Y-92741104D01*
X155855165Y-92742135D01*
X155857200Y-92743900D01*
X155870626Y-92749894D01*
X155971640Y-92783566D01*
X155978895Y-92785215D01*
X155980726Y-92785974D01*
X155983379Y-92786235D01*
X155985977Y-92786826D01*
X155987951Y-92786685D01*
X155995358Y-92787415D01*
X156062702Y-92787415D01*
X156070107Y-92786685D01*
X156072082Y-92786826D01*
X156074679Y-92786235D01*
X156077334Y-92785974D01*
X156079165Y-92785215D01*
X156086419Y-92783566D01*
X156187434Y-92749894D01*
X156200859Y-92743900D01*
X156202894Y-92742134D01*
X156205385Y-92741103D01*
X156215884Y-92732486D01*
X156291889Y-93163182D01*
X156295851Y-93177341D01*
X156311578Y-93202019D01*
X156335551Y-93218801D01*
X156364122Y-93225131D01*
X156392941Y-93220045D01*
X156417619Y-93204318D01*
X156434400Y-93180345D01*
X156440731Y-93151774D01*
X156439607Y-93137114D01*
X156345377Y-92603148D01*
X156433091Y-92515435D01*
X156716776Y-92799120D01*
X156728141Y-92808447D01*
X156755177Y-92819646D01*
X156784440Y-92819646D01*
X156811476Y-92808447D01*
X156832169Y-92787754D01*
X156843368Y-92760718D01*
X156843368Y-92731455D01*
X156832169Y-92704419D01*
X156822842Y-92693054D01*
X156115735Y-91985947D01*
X156104370Y-91976620D01*
X156077333Y-91965421D01*
X156048070Y-91965421D01*
X156021034Y-91976620D01*
X156009669Y-91985947D01*
X155740295Y-92255321D01*
X155730968Y-92266686D01*
X155729936Y-92269176D01*
X155728171Y-92271212D01*
X155722177Y-92284637D01*
X155688505Y-92385652D01*
X155686855Y-92392905D01*
X155686097Y-92394737D01*
X155685835Y-92397391D01*
X155685245Y-92399989D01*
X155685385Y-92401963D01*
X155684656Y-92409369D01*
X155429113Y-92409369D01*
X156062703Y-91775779D01*
X157033010Y-92746087D01*
G37*
D13*
X129740777Y-102727693D02*
X130347920Y-102727693D01*
X130347920Y-102727693D02*
X130469348Y-102703884D01*
X130469348Y-102703884D02*
X130550301Y-102656265D01*
X130550301Y-102656265D02*
X130590777Y-102584836D01*
X130590777Y-102584836D02*
X130590777Y-102537217D01*
X130590777Y-103203883D02*
X130590777Y-102965788D01*
X130590777Y-102965788D02*
X129740777Y-102965788D01*
X130509824Y-103656264D02*
X130550301Y-103632455D01*
X130550301Y-103632455D02*
X130590777Y-103561026D01*
X130590777Y-103561026D02*
X130590777Y-103513407D01*
X130590777Y-103513407D02*
X130550301Y-103441979D01*
X130550301Y-103441979D02*
X130469348Y-103394360D01*
X130469348Y-103394360D02*
X130388396Y-103370550D01*
X130388396Y-103370550D02*
X130226491Y-103346741D01*
X130226491Y-103346741D02*
X130105062Y-103346741D01*
X130105062Y-103346741D02*
X129943158Y-103370550D01*
X129943158Y-103370550D02*
X129862205Y-103394360D01*
X129862205Y-103394360D02*
X129781253Y-103441979D01*
X129781253Y-103441979D02*
X129740777Y-103513407D01*
X129740777Y-103513407D02*
X129740777Y-103561026D01*
X129740777Y-103561026D02*
X129781253Y-103632455D01*
X129781253Y-103632455D02*
X129821729Y-103656264D01*
X129740777Y-104013407D02*
X130347920Y-104013407D01*
X130347920Y-104013407D02*
X130469348Y-103989598D01*
X130469348Y-103989598D02*
X130550301Y-103941979D01*
X130550301Y-103941979D02*
X130590777Y-103870550D01*
X130590777Y-103870550D02*
X130590777Y-103822931D01*
X130590777Y-104489597D02*
X130590777Y-104251502D01*
X130590777Y-104251502D02*
X129740777Y-104251502D01*
X130509824Y-104941978D02*
X130550301Y-104918169D01*
X130550301Y-104918169D02*
X130590777Y-104846740D01*
X130590777Y-104846740D02*
X130590777Y-104799121D01*
X130590777Y-104799121D02*
X130550301Y-104727693D01*
X130550301Y-104727693D02*
X130469348Y-104680074D01*
X130469348Y-104680074D02*
X130388396Y-104656264D01*
X130388396Y-104656264D02*
X130226491Y-104632455D01*
X130226491Y-104632455D02*
X130105062Y-104632455D01*
X130105062Y-104632455D02*
X129943158Y-104656264D01*
X129943158Y-104656264D02*
X129862205Y-104680074D01*
X129862205Y-104680074D02*
X129781253Y-104727693D01*
X129781253Y-104727693D02*
X129740777Y-104799121D01*
X129740777Y-104799121D02*
X129740777Y-104846740D01*
X129740777Y-104846740D02*
X129781253Y-104918169D01*
X129781253Y-104918169D02*
X129821729Y-104941978D01*
X129740777Y-105299121D02*
X130347920Y-105299121D01*
X130347920Y-105299121D02*
X130469348Y-105275312D01*
X130469348Y-105275312D02*
X130550301Y-105227693D01*
X130550301Y-105227693D02*
X130590777Y-105156264D01*
X130590777Y-105156264D02*
X130590777Y-105108645D01*
X130590777Y-105775311D02*
X130590777Y-105537216D01*
X130590777Y-105537216D02*
X129740777Y-105537216D01*
X130509824Y-106227692D02*
X130550301Y-106203883D01*
X130550301Y-106203883D02*
X130590777Y-106132454D01*
X130590777Y-106132454D02*
X130590777Y-106084835D01*
X130590777Y-106084835D02*
X130550301Y-106013407D01*
X130550301Y-106013407D02*
X130469348Y-105965788D01*
X130469348Y-105965788D02*
X130388396Y-105941978D01*
X130388396Y-105941978D02*
X130226491Y-105918169D01*
X130226491Y-105918169D02*
X130105062Y-105918169D01*
X130105062Y-105918169D02*
X129943158Y-105941978D01*
X129943158Y-105941978D02*
X129862205Y-105965788D01*
X129862205Y-105965788D02*
X129781253Y-106013407D01*
X129781253Y-106013407D02*
X129740777Y-106084835D01*
X129740777Y-106084835D02*
X129740777Y-106132454D01*
X129740777Y-106132454D02*
X129781253Y-106203883D01*
X129781253Y-106203883D02*
X129821729Y-106227692D01*
X129740777Y-106584835D02*
X130347920Y-106584835D01*
X130347920Y-106584835D02*
X130469348Y-106561026D01*
X130469348Y-106561026D02*
X130550301Y-106513407D01*
X130550301Y-106513407D02*
X130590777Y-106441978D01*
X130590777Y-106441978D02*
X130590777Y-106394359D01*
X130590777Y-107061025D02*
X130590777Y-106822930D01*
X130590777Y-106822930D02*
X129740777Y-106822930D01*
X130509824Y-107513406D02*
X130550301Y-107489597D01*
X130550301Y-107489597D02*
X130590777Y-107418168D01*
X130590777Y-107418168D02*
X130590777Y-107370549D01*
X130590777Y-107370549D02*
X130550301Y-107299121D01*
X130550301Y-107299121D02*
X130469348Y-107251502D01*
X130469348Y-107251502D02*
X130388396Y-107227692D01*
X130388396Y-107227692D02*
X130226491Y-107203883D01*
X130226491Y-107203883D02*
X130105062Y-107203883D01*
X130105062Y-107203883D02*
X129943158Y-107227692D01*
X129943158Y-107227692D02*
X129862205Y-107251502D01*
X129862205Y-107251502D02*
X129781253Y-107299121D01*
X129781253Y-107299121D02*
X129740777Y-107370549D01*
X129740777Y-107370549D02*
X129740777Y-107418168D01*
X129740777Y-107418168D02*
X129781253Y-107489597D01*
X129781253Y-107489597D02*
X129821729Y-107513406D01*
D11*
X139892857Y-102609580D02*
X139940476Y-102657200D01*
X139940476Y-102657200D02*
X140083333Y-102704819D01*
X140083333Y-102704819D02*
X140178571Y-102704819D01*
X140178571Y-102704819D02*
X140321428Y-102657200D01*
X140321428Y-102657200D02*
X140416666Y-102561961D01*
X140416666Y-102561961D02*
X140464285Y-102466723D01*
X140464285Y-102466723D02*
X140511904Y-102276247D01*
X140511904Y-102276247D02*
X140511904Y-102133390D01*
X140511904Y-102133390D02*
X140464285Y-101942914D01*
X140464285Y-101942914D02*
X140416666Y-101847676D01*
X140416666Y-101847676D02*
X140321428Y-101752438D01*
X140321428Y-101752438D02*
X140178571Y-101704819D01*
X140178571Y-101704819D02*
X140083333Y-101704819D01*
X140083333Y-101704819D02*
X139940476Y-101752438D01*
X139940476Y-101752438D02*
X139892857Y-101800057D01*
X139511904Y-101800057D02*
X139464285Y-101752438D01*
X139464285Y-101752438D02*
X139369047Y-101704819D01*
X139369047Y-101704819D02*
X139130952Y-101704819D01*
X139130952Y-101704819D02*
X139035714Y-101752438D01*
X139035714Y-101752438D02*
X138988095Y-101800057D01*
X138988095Y-101800057D02*
X138940476Y-101895295D01*
X138940476Y-101895295D02*
X138940476Y-101990533D01*
X138940476Y-101990533D02*
X138988095Y-102133390D01*
X138988095Y-102133390D02*
X139559523Y-102704819D01*
X139559523Y-102704819D02*
X138940476Y-102704819D01*
X138369047Y-102133390D02*
X138464285Y-102085771D01*
X138464285Y-102085771D02*
X138511904Y-102038152D01*
X138511904Y-102038152D02*
X138559523Y-101942914D01*
X138559523Y-101942914D02*
X138559523Y-101895295D01*
X138559523Y-101895295D02*
X138511904Y-101800057D01*
X138511904Y-101800057D02*
X138464285Y-101752438D01*
X138464285Y-101752438D02*
X138369047Y-101704819D01*
X138369047Y-101704819D02*
X138178571Y-101704819D01*
X138178571Y-101704819D02*
X138083333Y-101752438D01*
X138083333Y-101752438D02*
X138035714Y-101800057D01*
X138035714Y-101800057D02*
X137988095Y-101895295D01*
X137988095Y-101895295D02*
X137988095Y-101942914D01*
X137988095Y-101942914D02*
X138035714Y-102038152D01*
X138035714Y-102038152D02*
X138083333Y-102085771D01*
X138083333Y-102085771D02*
X138178571Y-102133390D01*
X138178571Y-102133390D02*
X138369047Y-102133390D01*
X138369047Y-102133390D02*
X138464285Y-102181009D01*
X138464285Y-102181009D02*
X138511904Y-102228628D01*
X138511904Y-102228628D02*
X138559523Y-102323866D01*
X138559523Y-102323866D02*
X138559523Y-102514342D01*
X138559523Y-102514342D02*
X138511904Y-102609580D01*
X138511904Y-102609580D02*
X138464285Y-102657200D01*
X138464285Y-102657200D02*
X138369047Y-102704819D01*
X138369047Y-102704819D02*
X138178571Y-102704819D01*
X138178571Y-102704819D02*
X138083333Y-102657200D01*
X138083333Y-102657200D02*
X138035714Y-102609580D01*
X138035714Y-102609580D02*
X137988095Y-102514342D01*
X137988095Y-102514342D02*
X137988095Y-102323866D01*
X137988095Y-102323866D02*
X138035714Y-102228628D01*
X138035714Y-102228628D02*
X138083333Y-102181009D01*
X138083333Y-102181009D02*
X138178571Y-102133390D01*
X157929074Y-114219937D02*
X157996418Y-114219937D01*
X157996418Y-114219937D02*
X158131105Y-114152593D01*
X158131105Y-114152593D02*
X158198448Y-114085250D01*
X158198448Y-114085250D02*
X158265792Y-113950563D01*
X158265792Y-113950563D02*
X158265792Y-113815876D01*
X158265792Y-113815876D02*
X158232120Y-113714861D01*
X158232120Y-113714861D02*
X158131105Y-113546502D01*
X158131105Y-113546502D02*
X158030090Y-113445487D01*
X158030090Y-113445487D02*
X157861731Y-113344471D01*
X157861731Y-113344471D02*
X157760716Y-113310800D01*
X157760716Y-113310800D02*
X157626029Y-113310800D01*
X157626029Y-113310800D02*
X157491342Y-113378143D01*
X157491342Y-113378143D02*
X157423998Y-113445487D01*
X157423998Y-113445487D02*
X157356655Y-113580174D01*
X157356655Y-113580174D02*
X157356655Y-113647517D01*
X157322983Y-114960715D02*
X157727044Y-114556654D01*
X157525013Y-114758685D02*
X156817907Y-114051578D01*
X156817907Y-114051578D02*
X156986265Y-114085250D01*
X156986265Y-114085250D02*
X157120952Y-114085250D01*
X157120952Y-114085250D02*
X157221968Y-114051578D01*
X156178143Y-114691342D02*
X156110800Y-114758685D01*
X156110800Y-114758685D02*
X156077128Y-114859700D01*
X156077128Y-114859700D02*
X156077128Y-114927044D01*
X156077128Y-114927044D02*
X156110800Y-115028059D01*
X156110800Y-115028059D02*
X156211815Y-115196418D01*
X156211815Y-115196418D02*
X156380174Y-115364777D01*
X156380174Y-115364777D02*
X156548532Y-115465792D01*
X156548532Y-115465792D02*
X156649548Y-115499464D01*
X156649548Y-115499464D02*
X156716891Y-115499464D01*
X156716891Y-115499464D02*
X156817906Y-115465792D01*
X156817906Y-115465792D02*
X156885250Y-115398448D01*
X156885250Y-115398448D02*
X156918922Y-115297433D01*
X156918922Y-115297433D02*
X156918922Y-115230090D01*
X156918922Y-115230090D02*
X156885250Y-115129074D01*
X156885250Y-115129074D02*
X156784235Y-114960716D01*
X156784235Y-114960716D02*
X156615876Y-114792357D01*
X156615876Y-114792357D02*
X156447517Y-114691342D01*
X156447517Y-114691342D02*
X156346502Y-114657670D01*
X156346502Y-114657670D02*
X156279158Y-114657670D01*
X156279158Y-114657670D02*
X156178143Y-114691342D01*
D12*
X149571428Y-96090464D02*
X149571428Y-96697607D01*
X149571428Y-96697607D02*
X149535714Y-96769035D01*
X149535714Y-96769035D02*
X149500000Y-96804750D01*
X149500000Y-96804750D02*
X149428571Y-96840464D01*
X149428571Y-96840464D02*
X149285714Y-96840464D01*
X149285714Y-96840464D02*
X149214285Y-96804750D01*
X149214285Y-96804750D02*
X149178571Y-96769035D01*
X149178571Y-96769035D02*
X149142857Y-96697607D01*
X149142857Y-96697607D02*
X149142857Y-96090464D01*
X148464286Y-96090464D02*
X148607143Y-96090464D01*
X148607143Y-96090464D02*
X148678571Y-96126178D01*
X148678571Y-96126178D02*
X148714286Y-96161892D01*
X148714286Y-96161892D02*
X148785714Y-96269035D01*
X148785714Y-96269035D02*
X148821428Y-96411892D01*
X148821428Y-96411892D02*
X148821428Y-96697607D01*
X148821428Y-96697607D02*
X148785714Y-96769035D01*
X148785714Y-96769035D02*
X148750000Y-96804750D01*
X148750000Y-96804750D02*
X148678571Y-96840464D01*
X148678571Y-96840464D02*
X148535714Y-96840464D01*
X148535714Y-96840464D02*
X148464286Y-96804750D01*
X148464286Y-96804750D02*
X148428571Y-96769035D01*
X148428571Y-96769035D02*
X148392857Y-96697607D01*
X148392857Y-96697607D02*
X148392857Y-96519035D01*
X148392857Y-96519035D02*
X148428571Y-96447607D01*
X148428571Y-96447607D02*
X148464286Y-96411892D01*
X148464286Y-96411892D02*
X148535714Y-96376178D01*
X148535714Y-96376178D02*
X148678571Y-96376178D01*
X148678571Y-96376178D02*
X148750000Y-96411892D01*
X148750000Y-96411892D02*
X148785714Y-96447607D01*
X148785714Y-96447607D02*
X148821428Y-96519035D01*
X152887581Y-110554567D02*
X153316896Y-110983882D01*
X153316896Y-110983882D02*
X153342150Y-111059643D01*
X153342150Y-111059643D02*
X153342150Y-111110151D01*
X153342150Y-111110151D02*
X153316896Y-111185912D01*
X153316896Y-111185912D02*
X153215881Y-111286928D01*
X153215881Y-111286928D02*
X153140119Y-111312181D01*
X153140119Y-111312181D02*
X153089612Y-111312181D01*
X153089612Y-111312181D02*
X153013850Y-111286928D01*
X153013850Y-111286928D02*
X152584535Y-110857613D01*
X152382505Y-111059643D02*
X152054205Y-111387943D01*
X152054205Y-111387943D02*
X152433013Y-111413196D01*
X152433013Y-111413196D02*
X152357251Y-111488958D01*
X152357251Y-111488958D02*
X152331997Y-111564719D01*
X152331997Y-111564719D02*
X152331997Y-111615227D01*
X152331997Y-111615227D02*
X152357251Y-111690988D01*
X152357251Y-111690988D02*
X152483520Y-111817257D01*
X152483520Y-111817257D02*
X152559282Y-111842511D01*
X152559282Y-111842511D02*
X152609789Y-111842511D01*
X152609789Y-111842511D02*
X152685551Y-111817257D01*
X152685551Y-111817257D02*
X152837074Y-111665735D01*
X152837074Y-111665735D02*
X152862327Y-111589973D01*
X152862327Y-111589973D02*
X152862327Y-111539466D01*
D11*
X159737024Y-108080235D02*
X160444130Y-107373128D01*
X160444130Y-107373128D02*
X160275772Y-107204769D01*
X160275772Y-107204769D02*
X160141085Y-107137426D01*
X160141085Y-107137426D02*
X160006398Y-107137426D01*
X160006398Y-107137426D02*
X159905382Y-107171098D01*
X159905382Y-107171098D02*
X159737024Y-107272113D01*
X159737024Y-107272113D02*
X159636008Y-107373128D01*
X159636008Y-107373128D02*
X159534993Y-107541487D01*
X159534993Y-107541487D02*
X159501321Y-107642502D01*
X159501321Y-107642502D02*
X159501321Y-107777189D01*
X159501321Y-107777189D02*
X159568665Y-107911876D01*
X159568665Y-107911876D02*
X159737024Y-108080235D01*
X159198276Y-106598678D02*
X158726871Y-107070082D01*
X159636008Y-106497663D02*
X159299291Y-107171098D01*
X159299291Y-107171098D02*
X158861558Y-106733365D01*
X159130932Y-106059930D02*
X158693199Y-105622197D01*
X158693199Y-105622197D02*
X158659527Y-106127273D01*
X158659527Y-106127273D02*
X158558512Y-106026258D01*
X158558512Y-106026258D02*
X158457497Y-105992586D01*
X158457497Y-105992586D02*
X158390153Y-105992586D01*
X158390153Y-105992586D02*
X158289138Y-106026258D01*
X158289138Y-106026258D02*
X158120779Y-106194617D01*
X158120779Y-106194617D02*
X158087108Y-106295632D01*
X158087108Y-106295632D02*
X158087108Y-106362975D01*
X158087108Y-106362975D02*
X158120779Y-106463991D01*
X158120779Y-106463991D02*
X158322810Y-106666021D01*
X158322810Y-106666021D02*
X158423825Y-106699693D01*
X158423825Y-106699693D02*
X158491169Y-106699693D01*
X152671711Y-99574143D02*
X152537024Y-99506800D01*
X152537024Y-99506800D02*
X152469680Y-99506800D01*
X152469680Y-99506800D02*
X152368665Y-99540472D01*
X152368665Y-99540472D02*
X152267650Y-99641487D01*
X152267650Y-99641487D02*
X152233978Y-99742502D01*
X152233978Y-99742502D02*
X152233978Y-99809846D01*
X152233978Y-99809846D02*
X152267650Y-99910861D01*
X152267650Y-99910861D02*
X152537024Y-100180235D01*
X152537024Y-100180235D02*
X153244130Y-99473128D01*
X153244130Y-99473128D02*
X153008428Y-99237426D01*
X153008428Y-99237426D02*
X152907413Y-99203754D01*
X152907413Y-99203754D02*
X152840069Y-99203754D01*
X152840069Y-99203754D02*
X152739054Y-99237426D01*
X152739054Y-99237426D02*
X152671711Y-99304769D01*
X152671711Y-99304769D02*
X152638039Y-99405785D01*
X152638039Y-99405785D02*
X152638039Y-99473128D01*
X152638039Y-99473128D02*
X152671711Y-99574143D01*
X152671711Y-99574143D02*
X152907413Y-99809846D01*
X152604367Y-98833365D02*
X152132963Y-98361960D01*
X152132963Y-98361960D02*
X151897260Y-99540472D01*
X151897260Y-99540472D02*
X151425856Y-99069067D01*
X150786092Y-98429304D02*
X151190153Y-98833365D01*
X150988123Y-98631334D02*
X151695230Y-97924227D01*
X151695230Y-97924227D02*
X151661558Y-98092586D01*
X151661558Y-98092586D02*
X151661558Y-98227273D01*
X151661558Y-98227273D02*
X151695230Y-98328288D01*
X138178394Y-112456292D02*
X138279409Y-112489964D01*
X138279409Y-112489964D02*
X138414096Y-112489964D01*
X138414096Y-112489964D02*
X138616127Y-112489964D01*
X138616127Y-112489964D02*
X138717142Y-112523636D01*
X138717142Y-112523636D02*
X138784485Y-112590979D01*
X138582455Y-112725666D02*
X138683470Y-112759338D01*
X138683470Y-112759338D02*
X138818157Y-112759338D01*
X138818157Y-112759338D02*
X138986516Y-112658323D01*
X138986516Y-112658323D02*
X139222218Y-112422620D01*
X139222218Y-112422620D02*
X139323233Y-112254262D01*
X139323233Y-112254262D02*
X139323233Y-112119575D01*
X139323233Y-112119575D02*
X139289562Y-112018559D01*
X139289562Y-112018559D02*
X139154875Y-111883872D01*
X139154875Y-111883872D02*
X139053859Y-111850201D01*
X139053859Y-111850201D02*
X138919172Y-111850201D01*
X138919172Y-111850201D02*
X138750814Y-111951216D01*
X138750814Y-111951216D02*
X138515111Y-112186918D01*
X138515111Y-112186918D02*
X138414096Y-112355277D01*
X138414096Y-112355277D02*
X138414096Y-112489964D01*
X138414096Y-112489964D02*
X138447768Y-112590979D01*
X138447768Y-112590979D02*
X138582455Y-112725666D01*
X138649798Y-111513483D02*
X138649798Y-111446140D01*
X138649798Y-111446140D02*
X138616127Y-111345124D01*
X138616127Y-111345124D02*
X138447768Y-111176766D01*
X138447768Y-111176766D02*
X138346753Y-111143094D01*
X138346753Y-111143094D02*
X138279409Y-111143094D01*
X138279409Y-111143094D02*
X138178394Y-111176766D01*
X138178394Y-111176766D02*
X138111050Y-111244109D01*
X138111050Y-111244109D02*
X138043707Y-111378796D01*
X138043707Y-111378796D02*
X138043707Y-112186918D01*
X138043707Y-112186918D02*
X137605974Y-111749185D01*
X140376174Y-113667036D02*
X140275159Y-113094617D01*
X140780235Y-113262975D02*
X140073128Y-112555869D01*
X140073128Y-112555869D02*
X139803754Y-112825243D01*
X139803754Y-112825243D02*
X139770082Y-112926258D01*
X139770082Y-112926258D02*
X139770082Y-112993601D01*
X139770082Y-112993601D02*
X139803754Y-113094617D01*
X139803754Y-113094617D02*
X139904769Y-113195632D01*
X139904769Y-113195632D02*
X140005785Y-113229304D01*
X140005785Y-113229304D02*
X140073128Y-113229304D01*
X140073128Y-113229304D02*
X140174143Y-113195632D01*
X140174143Y-113195632D02*
X140443517Y-112926258D01*
X139702739Y-114340471D02*
X140106800Y-113936410D01*
X139904769Y-114138441D02*
X139197663Y-113431334D01*
X139197663Y-113431334D02*
X139366021Y-113465006D01*
X139366021Y-113465006D02*
X139500708Y-113465006D01*
X139500708Y-113465006D02*
X139601724Y-113431334D01*
X138759930Y-113869067D02*
X138288525Y-114340472D01*
X138288525Y-114340472D02*
X139298678Y-114744533D01*
X154667096Y-90060906D02*
X154667096Y-89584716D01*
X154667096Y-89584716D02*
X153667096Y-89584716D01*
X154667096Y-90918049D02*
X154667096Y-90346621D01*
X154667096Y-90632335D02*
X153667096Y-90632335D01*
X153667096Y-90632335D02*
X153809953Y-90537097D01*
X153809953Y-90537097D02*
X153905191Y-90441859D01*
X153905191Y-90441859D02*
X153952810Y-90346621D01*
X138463588Y-99872112D02*
X138463588Y-99939456D01*
X138463588Y-99939456D02*
X138530932Y-100074143D01*
X138530932Y-100074143D02*
X138598275Y-100141486D01*
X138598275Y-100141486D02*
X138732962Y-100208830D01*
X138732962Y-100208830D02*
X138867649Y-100208830D01*
X138867649Y-100208830D02*
X138968664Y-100175158D01*
X138968664Y-100175158D02*
X139137023Y-100074143D01*
X139137023Y-100074143D02*
X139238038Y-99973128D01*
X139238038Y-99973128D02*
X139339054Y-99804769D01*
X139339054Y-99804769D02*
X139372725Y-99703754D01*
X139372725Y-99703754D02*
X139372725Y-99569067D01*
X139372725Y-99569067D02*
X139305382Y-99434380D01*
X139305382Y-99434380D02*
X139238038Y-99367036D01*
X139238038Y-99367036D02*
X139103351Y-99299693D01*
X139103351Y-99299693D02*
X139036008Y-99299693D01*
X137722810Y-99266021D02*
X138126871Y-99670082D01*
X137924840Y-99468051D02*
X138631947Y-98760945D01*
X138631947Y-98760945D02*
X138598275Y-98929303D01*
X138598275Y-98929303D02*
X138598275Y-99063990D01*
X138598275Y-99063990D02*
X138631947Y-99165006D01*
D12*
X146110713Y-107804750D02*
X146003571Y-107840464D01*
X146003571Y-107840464D02*
X145824999Y-107840464D01*
X145824999Y-107840464D02*
X145753571Y-107804750D01*
X145753571Y-107804750D02*
X145717856Y-107769035D01*
X145717856Y-107769035D02*
X145682142Y-107697607D01*
X145682142Y-107697607D02*
X145682142Y-107626178D01*
X145682142Y-107626178D02*
X145717856Y-107554750D01*
X145717856Y-107554750D02*
X145753571Y-107519035D01*
X145753571Y-107519035D02*
X145824999Y-107483321D01*
X145824999Y-107483321D02*
X145967856Y-107447607D01*
X145967856Y-107447607D02*
X146039285Y-107411892D01*
X146039285Y-107411892D02*
X146074999Y-107376178D01*
X146074999Y-107376178D02*
X146110713Y-107304750D01*
X146110713Y-107304750D02*
X146110713Y-107233321D01*
X146110713Y-107233321D02*
X146074999Y-107161892D01*
X146074999Y-107161892D02*
X146039285Y-107126178D01*
X146039285Y-107126178D02*
X145967856Y-107090464D01*
X145967856Y-107090464D02*
X145789285Y-107090464D01*
X145789285Y-107090464D02*
X145682142Y-107126178D01*
X145360713Y-107840464D02*
X145360713Y-107090464D01*
X145360713Y-107090464D02*
X145182142Y-107090464D01*
X145182142Y-107090464D02*
X145074999Y-107126178D01*
X145074999Y-107126178D02*
X145003570Y-107197607D01*
X145003570Y-107197607D02*
X144967856Y-107269035D01*
X144967856Y-107269035D02*
X144932142Y-107411892D01*
X144932142Y-107411892D02*
X144932142Y-107519035D01*
X144932142Y-107519035D02*
X144967856Y-107661892D01*
X144967856Y-107661892D02*
X145003570Y-107733321D01*
X145003570Y-107733321D02*
X145074999Y-107804750D01*
X145074999Y-107804750D02*
X145182142Y-107840464D01*
X145182142Y-107840464D02*
X145360713Y-107840464D01*
X144646427Y-107626178D02*
X144289285Y-107626178D01*
X144717856Y-107840464D02*
X144467856Y-107090464D01*
X144467856Y-107090464D02*
X144217856Y-107840464D01*
D11*
X142026174Y-107867036D02*
X141925159Y-107294617D01*
X142430235Y-107462975D02*
X141723128Y-106755869D01*
X141723128Y-106755869D02*
X141453754Y-107025243D01*
X141453754Y-107025243D02*
X141420082Y-107126258D01*
X141420082Y-107126258D02*
X141420082Y-107193601D01*
X141420082Y-107193601D02*
X141453754Y-107294617D01*
X141453754Y-107294617D02*
X141554769Y-107395632D01*
X141554769Y-107395632D02*
X141655785Y-107429304D01*
X141655785Y-107429304D02*
X141723128Y-107429304D01*
X141723128Y-107429304D02*
X141824143Y-107395632D01*
X141824143Y-107395632D02*
X142093517Y-107126258D01*
X141117037Y-107496647D02*
X141049693Y-107496647D01*
X141049693Y-107496647D02*
X140948678Y-107530319D01*
X140948678Y-107530319D02*
X140780319Y-107698678D01*
X140780319Y-107698678D02*
X140746647Y-107799693D01*
X140746647Y-107799693D02*
X140746647Y-107867036D01*
X140746647Y-107867036D02*
X140780319Y-107968052D01*
X140780319Y-107968052D02*
X140847663Y-108035395D01*
X140847663Y-108035395D02*
X140982350Y-108102739D01*
X140982350Y-108102739D02*
X141790472Y-108102739D01*
X141790472Y-108102739D02*
X141352739Y-108540471D01*
X140207899Y-108271098D02*
X140140556Y-108338441D01*
X140140556Y-108338441D02*
X140106884Y-108439456D01*
X140106884Y-108439456D02*
X140106884Y-108506800D01*
X140106884Y-108506800D02*
X140140556Y-108607815D01*
X140140556Y-108607815D02*
X140241571Y-108776174D01*
X140241571Y-108776174D02*
X140409930Y-108944533D01*
X140409930Y-108944533D02*
X140578288Y-109045548D01*
X140578288Y-109045548D02*
X140679304Y-109079220D01*
X140679304Y-109079220D02*
X140746647Y-109079220D01*
X140746647Y-109079220D02*
X140847662Y-109045548D01*
X140847662Y-109045548D02*
X140915006Y-108978204D01*
X140915006Y-108978204D02*
X140948678Y-108877189D01*
X140948678Y-108877189D02*
X140948678Y-108809846D01*
X140948678Y-108809846D02*
X140915006Y-108708830D01*
X140915006Y-108708830D02*
X140813991Y-108540472D01*
X140813991Y-108540472D02*
X140645632Y-108372113D01*
X140645632Y-108372113D02*
X140477273Y-108271098D01*
X140477273Y-108271098D02*
X140376258Y-108237426D01*
X140376258Y-108237426D02*
X140308914Y-108237426D01*
X140308914Y-108237426D02*
X140207899Y-108271098D01*
X146842857Y-105354819D02*
X147176190Y-104878628D01*
X147414285Y-105354819D02*
X147414285Y-104354819D01*
X147414285Y-104354819D02*
X147033333Y-104354819D01*
X147033333Y-104354819D02*
X146938095Y-104402438D01*
X146938095Y-104402438D02*
X146890476Y-104450057D01*
X146890476Y-104450057D02*
X146842857Y-104545295D01*
X146842857Y-104545295D02*
X146842857Y-104688152D01*
X146842857Y-104688152D02*
X146890476Y-104783390D01*
X146890476Y-104783390D02*
X146938095Y-104831009D01*
X146938095Y-104831009D02*
X147033333Y-104878628D01*
X147033333Y-104878628D02*
X147414285Y-104878628D01*
X146461904Y-104450057D02*
X146414285Y-104402438D01*
X146414285Y-104402438D02*
X146319047Y-104354819D01*
X146319047Y-104354819D02*
X146080952Y-104354819D01*
X146080952Y-104354819D02*
X145985714Y-104402438D01*
X145985714Y-104402438D02*
X145938095Y-104450057D01*
X145938095Y-104450057D02*
X145890476Y-104545295D01*
X145890476Y-104545295D02*
X145890476Y-104640533D01*
X145890476Y-104640533D02*
X145938095Y-104783390D01*
X145938095Y-104783390D02*
X146509523Y-105354819D01*
X146509523Y-105354819D02*
X145890476Y-105354819D01*
X144938095Y-105354819D02*
X145509523Y-105354819D01*
X145223809Y-105354819D02*
X145223809Y-104354819D01*
X145223809Y-104354819D02*
X145319047Y-104497676D01*
X145319047Y-104497676D02*
X145414285Y-104592914D01*
X145414285Y-104592914D02*
X145509523Y-104640533D01*
D12*
X145104269Y-112897524D02*
X145154777Y-112897524D01*
X145154777Y-112897524D02*
X145255792Y-112847016D01*
X145255792Y-112847016D02*
X145306300Y-112796509D01*
X145306300Y-112796509D02*
X145356807Y-112695493D01*
X145356807Y-112695493D02*
X145356807Y-112594478D01*
X145356807Y-112594478D02*
X145331553Y-112518717D01*
X145331553Y-112518717D02*
X145255792Y-112392448D01*
X145255792Y-112392448D02*
X145180031Y-112316686D01*
X145180031Y-112316686D02*
X145053762Y-112240925D01*
X145053762Y-112240925D02*
X144978000Y-112215671D01*
X144978000Y-112215671D02*
X144876985Y-112215671D01*
X144876985Y-112215671D02*
X144775970Y-112266178D01*
X144775970Y-112266178D02*
X144725462Y-112316686D01*
X144725462Y-112316686D02*
X144674954Y-112417701D01*
X144674954Y-112417701D02*
X144674954Y-112468209D01*
X144649701Y-113453108D02*
X144952746Y-113150062D01*
X144801223Y-113301585D02*
X144270893Y-112771255D01*
X144270893Y-112771255D02*
X144397162Y-112796509D01*
X144397162Y-112796509D02*
X144498178Y-112796509D01*
X144498178Y-112796509D02*
X144573939Y-112771255D01*
X143967847Y-113175316D02*
X143917340Y-113175316D01*
X143917340Y-113175316D02*
X143841578Y-113200570D01*
X143841578Y-113200570D02*
X143715309Y-113326839D01*
X143715309Y-113326839D02*
X143690055Y-113402600D01*
X143690055Y-113402600D02*
X143690055Y-113453108D01*
X143690055Y-113453108D02*
X143715309Y-113528869D01*
X143715309Y-113528869D02*
X143765817Y-113579377D01*
X143765817Y-113579377D02*
X143866832Y-113629885D01*
X143866832Y-113629885D02*
X144472924Y-113629885D01*
X144472924Y-113629885D02*
X144144624Y-113958184D01*
D11*
X141842857Y-106254819D02*
X142176190Y-105778628D01*
X142414285Y-106254819D02*
X142414285Y-105254819D01*
X142414285Y-105254819D02*
X142033333Y-105254819D01*
X142033333Y-105254819D02*
X141938095Y-105302438D01*
X141938095Y-105302438D02*
X141890476Y-105350057D01*
X141890476Y-105350057D02*
X141842857Y-105445295D01*
X141842857Y-105445295D02*
X141842857Y-105588152D01*
X141842857Y-105588152D02*
X141890476Y-105683390D01*
X141890476Y-105683390D02*
X141938095Y-105731009D01*
X141938095Y-105731009D02*
X142033333Y-105778628D01*
X142033333Y-105778628D02*
X142414285Y-105778628D01*
X140890476Y-106254819D02*
X141461904Y-106254819D01*
X141176190Y-106254819D02*
X141176190Y-105254819D01*
X141176190Y-105254819D02*
X141271428Y-105397676D01*
X141271428Y-105397676D02*
X141366666Y-105492914D01*
X141366666Y-105492914D02*
X141461904Y-105540533D01*
X139985714Y-105254819D02*
X140461904Y-105254819D01*
X140461904Y-105254819D02*
X140509523Y-105731009D01*
X140509523Y-105731009D02*
X140461904Y-105683390D01*
X140461904Y-105683390D02*
X140366666Y-105635771D01*
X140366666Y-105635771D02*
X140128571Y-105635771D01*
X140128571Y-105635771D02*
X140033333Y-105683390D01*
X140033333Y-105683390D02*
X139985714Y-105731009D01*
X139985714Y-105731009D02*
X139938095Y-105826247D01*
X139938095Y-105826247D02*
X139938095Y-106064342D01*
X139938095Y-106064342D02*
X139985714Y-106159580D01*
X139985714Y-106159580D02*
X140033333Y-106207200D01*
X140033333Y-106207200D02*
X140128571Y-106254819D01*
X140128571Y-106254819D02*
X140366666Y-106254819D01*
X140366666Y-106254819D02*
X140461904Y-106207200D01*
X140461904Y-106207200D02*
X140509523Y-106159580D01*
X153156292Y-105321605D02*
X153189964Y-105220590D01*
X153189964Y-105220590D02*
X153189964Y-105085903D01*
X153189964Y-105085903D02*
X153189964Y-104883872D01*
X153189964Y-104883872D02*
X153223636Y-104782857D01*
X153223636Y-104782857D02*
X153290979Y-104715514D01*
X153425666Y-104917544D02*
X153459338Y-104816529D01*
X153459338Y-104816529D02*
X153459338Y-104681842D01*
X153459338Y-104681842D02*
X153358323Y-104513483D01*
X153358323Y-104513483D02*
X153122620Y-104277781D01*
X153122620Y-104277781D02*
X152954262Y-104176766D01*
X152954262Y-104176766D02*
X152819575Y-104176766D01*
X152819575Y-104176766D02*
X152718559Y-104210437D01*
X152718559Y-104210437D02*
X152583872Y-104345124D01*
X152583872Y-104345124D02*
X152550201Y-104446140D01*
X152550201Y-104446140D02*
X152550201Y-104580827D01*
X152550201Y-104580827D02*
X152651216Y-104749185D01*
X152651216Y-104749185D02*
X152886918Y-104984888D01*
X152886918Y-104984888D02*
X153055277Y-105085903D01*
X153055277Y-105085903D02*
X153189964Y-105085903D01*
X153189964Y-105085903D02*
X153290979Y-105052231D01*
X153290979Y-105052231D02*
X153425666Y-104917544D01*
X152449185Y-105894025D02*
X152853246Y-105489964D01*
X152651216Y-105691994D02*
X151944109Y-104984888D01*
X151944109Y-104984888D02*
X152112468Y-105018559D01*
X152112468Y-105018559D02*
X152247155Y-105018559D01*
X152247155Y-105018559D02*
X152348170Y-104984888D01*
X159535714Y-109431009D02*
X159392857Y-109478628D01*
X159392857Y-109478628D02*
X159345238Y-109526247D01*
X159345238Y-109526247D02*
X159297619Y-109621485D01*
X159297619Y-109621485D02*
X159297619Y-109764342D01*
X159297619Y-109764342D02*
X159345238Y-109859580D01*
X159345238Y-109859580D02*
X159392857Y-109907200D01*
X159392857Y-109907200D02*
X159488095Y-109954819D01*
X159488095Y-109954819D02*
X159869047Y-109954819D01*
X159869047Y-109954819D02*
X159869047Y-108954819D01*
X159869047Y-108954819D02*
X159535714Y-108954819D01*
X159535714Y-108954819D02*
X159440476Y-109002438D01*
X159440476Y-109002438D02*
X159392857Y-109050057D01*
X159392857Y-109050057D02*
X159345238Y-109145295D01*
X159345238Y-109145295D02*
X159345238Y-109240533D01*
X159345238Y-109240533D02*
X159392857Y-109335771D01*
X159392857Y-109335771D02*
X159440476Y-109383390D01*
X159440476Y-109383390D02*
X159535714Y-109431009D01*
X159535714Y-109431009D02*
X159869047Y-109431009D01*
X158440476Y-109288152D02*
X158440476Y-109954819D01*
X158869047Y-109288152D02*
X158869047Y-109811961D01*
X158869047Y-109811961D02*
X158821428Y-109907200D01*
X158821428Y-109907200D02*
X158726190Y-109954819D01*
X158726190Y-109954819D02*
X158583333Y-109954819D01*
X158583333Y-109954819D02*
X158488095Y-109907200D01*
X158488095Y-109907200D02*
X158440476Y-109859580D01*
X158059523Y-109288152D02*
X157535714Y-109288152D01*
X157535714Y-109288152D02*
X158059523Y-109954819D01*
X158059523Y-109954819D02*
X157535714Y-109954819D01*
D12*
X146181535Y-99317856D02*
X146217250Y-99282142D01*
X146217250Y-99282142D02*
X146252964Y-99174999D01*
X146252964Y-99174999D02*
X146252964Y-99103571D01*
X146252964Y-99103571D02*
X146217250Y-98996428D01*
X146217250Y-98996428D02*
X146145821Y-98924999D01*
X146145821Y-98924999D02*
X146074392Y-98889285D01*
X146074392Y-98889285D02*
X145931535Y-98853571D01*
X145931535Y-98853571D02*
X145824392Y-98853571D01*
X145824392Y-98853571D02*
X145681535Y-98889285D01*
X145681535Y-98889285D02*
X145610107Y-98924999D01*
X145610107Y-98924999D02*
X145538678Y-98996428D01*
X145538678Y-98996428D02*
X145502964Y-99103571D01*
X145502964Y-99103571D02*
X145502964Y-99174999D01*
X145502964Y-99174999D02*
X145538678Y-99282142D01*
X145538678Y-99282142D02*
X145574392Y-99317856D01*
X145574392Y-99603571D02*
X145538678Y-99639285D01*
X145538678Y-99639285D02*
X145502964Y-99710714D01*
X145502964Y-99710714D02*
X145502964Y-99889285D01*
X145502964Y-99889285D02*
X145538678Y-99960714D01*
X145538678Y-99960714D02*
X145574392Y-99996428D01*
X145574392Y-99996428D02*
X145645821Y-100032142D01*
X145645821Y-100032142D02*
X145717250Y-100032142D01*
X145717250Y-100032142D02*
X145824392Y-99996428D01*
X145824392Y-99996428D02*
X146252964Y-99567856D01*
X146252964Y-99567856D02*
X146252964Y-100032142D01*
X145502964Y-100282142D02*
X145502964Y-100782142D01*
X145502964Y-100782142D02*
X146252964Y-100460714D01*
D11*
X147742857Y-107054819D02*
X148076190Y-106578628D01*
X148314285Y-107054819D02*
X148314285Y-106054819D01*
X148314285Y-106054819D02*
X147933333Y-106054819D01*
X147933333Y-106054819D02*
X147838095Y-106102438D01*
X147838095Y-106102438D02*
X147790476Y-106150057D01*
X147790476Y-106150057D02*
X147742857Y-106245295D01*
X147742857Y-106245295D02*
X147742857Y-106388152D01*
X147742857Y-106388152D02*
X147790476Y-106483390D01*
X147790476Y-106483390D02*
X147838095Y-106531009D01*
X147838095Y-106531009D02*
X147933333Y-106578628D01*
X147933333Y-106578628D02*
X148314285Y-106578628D01*
X146790476Y-107054819D02*
X147361904Y-107054819D01*
X147076190Y-107054819D02*
X147076190Y-106054819D01*
X147076190Y-106054819D02*
X147171428Y-106197676D01*
X147171428Y-106197676D02*
X147266666Y-106292914D01*
X147266666Y-106292914D02*
X147361904Y-106340533D01*
X146314285Y-107054819D02*
X146123809Y-107054819D01*
X146123809Y-107054819D02*
X146028571Y-107007200D01*
X146028571Y-107007200D02*
X145980952Y-106959580D01*
X145980952Y-106959580D02*
X145885714Y-106816723D01*
X145885714Y-106816723D02*
X145838095Y-106626247D01*
X145838095Y-106626247D02*
X145838095Y-106245295D01*
X145838095Y-106245295D02*
X145885714Y-106150057D01*
X145885714Y-106150057D02*
X145933333Y-106102438D01*
X145933333Y-106102438D02*
X146028571Y-106054819D01*
X146028571Y-106054819D02*
X146219047Y-106054819D01*
X146219047Y-106054819D02*
X146314285Y-106102438D01*
X146314285Y-106102438D02*
X146361904Y-106150057D01*
X146361904Y-106150057D02*
X146409523Y-106245295D01*
X146409523Y-106245295D02*
X146409523Y-106483390D01*
X146409523Y-106483390D02*
X146361904Y-106578628D01*
X146361904Y-106578628D02*
X146314285Y-106626247D01*
X146314285Y-106626247D02*
X146219047Y-106673866D01*
X146219047Y-106673866D02*
X146028571Y-106673866D01*
X146028571Y-106673866D02*
X145933333Y-106626247D01*
X145933333Y-106626247D02*
X145885714Y-106578628D01*
X145885714Y-106578628D02*
X145838095Y-106483390D01*
X146954819Y-119000000D02*
X145954819Y-119000000D01*
X145954819Y-119000000D02*
X145954819Y-119238095D01*
X145954819Y-119238095D02*
X146002438Y-119380952D01*
X146002438Y-119380952D02*
X146097676Y-119476190D01*
X146097676Y-119476190D02*
X146192914Y-119523809D01*
X146192914Y-119523809D02*
X146383390Y-119571428D01*
X146383390Y-119571428D02*
X146526247Y-119571428D01*
X146526247Y-119571428D02*
X146716723Y-119523809D01*
X146716723Y-119523809D02*
X146811961Y-119476190D01*
X146811961Y-119476190D02*
X146907200Y-119380952D01*
X146907200Y-119380952D02*
X146954819Y-119238095D01*
X146954819Y-119238095D02*
X146954819Y-119000000D01*
X146954819Y-120000000D02*
X145954819Y-120000000D01*
X146954819Y-120476190D02*
X145954819Y-120476190D01*
X145954819Y-120476190D02*
X146954819Y-121047618D01*
X146954819Y-121047618D02*
X145954819Y-121047618D01*
X146907200Y-121476190D02*
X146954819Y-121619047D01*
X146954819Y-121619047D02*
X146954819Y-121857142D01*
X146954819Y-121857142D02*
X146907200Y-121952380D01*
X146907200Y-121952380D02*
X146859580Y-121999999D01*
X146859580Y-121999999D02*
X146764342Y-122047618D01*
X146764342Y-122047618D02*
X146669104Y-122047618D01*
X146669104Y-122047618D02*
X146573866Y-121999999D01*
X146573866Y-121999999D02*
X146526247Y-121952380D01*
X146526247Y-121952380D02*
X146478628Y-121857142D01*
X146478628Y-121857142D02*
X146431009Y-121666666D01*
X146431009Y-121666666D02*
X146383390Y-121571428D01*
X146383390Y-121571428D02*
X146335771Y-121523809D01*
X146335771Y-121523809D02*
X146240533Y-121476190D01*
X146240533Y-121476190D02*
X146145295Y-121476190D01*
X146145295Y-121476190D02*
X146050057Y-121523809D01*
X146050057Y-121523809D02*
X146002438Y-121571428D01*
X146002438Y-121571428D02*
X145954819Y-121666666D01*
X145954819Y-121666666D02*
X145954819Y-121904761D01*
X145954819Y-121904761D02*
X146002438Y-122047618D01*
X141142857Y-98609580D02*
X141190476Y-98657200D01*
X141190476Y-98657200D02*
X141333333Y-98704819D01*
X141333333Y-98704819D02*
X141428571Y-98704819D01*
X141428571Y-98704819D02*
X141571428Y-98657200D01*
X141571428Y-98657200D02*
X141666666Y-98561961D01*
X141666666Y-98561961D02*
X141714285Y-98466723D01*
X141714285Y-98466723D02*
X141761904Y-98276247D01*
X141761904Y-98276247D02*
X141761904Y-98133390D01*
X141761904Y-98133390D02*
X141714285Y-97942914D01*
X141714285Y-97942914D02*
X141666666Y-97847676D01*
X141666666Y-97847676D02*
X141571428Y-97752438D01*
X141571428Y-97752438D02*
X141428571Y-97704819D01*
X141428571Y-97704819D02*
X141333333Y-97704819D01*
X141333333Y-97704819D02*
X141190476Y-97752438D01*
X141190476Y-97752438D02*
X141142857Y-97800057D01*
X140809523Y-97704819D02*
X140190476Y-97704819D01*
X140190476Y-97704819D02*
X140523809Y-98085771D01*
X140523809Y-98085771D02*
X140380952Y-98085771D01*
X140380952Y-98085771D02*
X140285714Y-98133390D01*
X140285714Y-98133390D02*
X140238095Y-98181009D01*
X140238095Y-98181009D02*
X140190476Y-98276247D01*
X140190476Y-98276247D02*
X140190476Y-98514342D01*
X140190476Y-98514342D02*
X140238095Y-98609580D01*
X140238095Y-98609580D02*
X140285714Y-98657200D01*
X140285714Y-98657200D02*
X140380952Y-98704819D01*
X140380952Y-98704819D02*
X140666666Y-98704819D01*
X140666666Y-98704819D02*
X140761904Y-98657200D01*
X140761904Y-98657200D02*
X140809523Y-98609580D01*
X139238095Y-98704819D02*
X139809523Y-98704819D01*
X139523809Y-98704819D02*
X139523809Y-97704819D01*
X139523809Y-97704819D02*
X139619047Y-97847676D01*
X139619047Y-97847676D02*
X139714285Y-97942914D01*
X139714285Y-97942914D02*
X139809523Y-97990533D01*
X145851830Y-108821605D02*
X145515112Y-109158323D01*
X146457921Y-108686918D02*
X145851830Y-108821605D01*
X145851830Y-108821605D02*
X145986517Y-108215514D01*
X144673319Y-108316529D02*
X145077380Y-108720590D01*
X144875349Y-108518559D02*
X145582456Y-107811453D01*
X145582456Y-107811453D02*
X145548784Y-107979811D01*
X145548784Y-107979811D02*
X145548784Y-108114498D01*
X145548784Y-108114498D02*
X145582456Y-108215514D01*
X148674249Y-121403246D02*
X148101829Y-121975666D01*
X148101829Y-121975666D02*
X148000814Y-122009338D01*
X148000814Y-122009338D02*
X147933470Y-122009338D01*
X147933470Y-122009338D02*
X147832455Y-121975666D01*
X147832455Y-121975666D02*
X147697768Y-121840979D01*
X147697768Y-121840979D02*
X147664096Y-121739964D01*
X147664096Y-121739964D02*
X147664096Y-121672620D01*
X147664096Y-121672620D02*
X147697768Y-121571605D01*
X147697768Y-121571605D02*
X148270188Y-120999185D01*
X147899798Y-120763483D02*
X147899798Y-120696140D01*
X147899798Y-120696140D02*
X147866127Y-120595124D01*
X147866127Y-120595124D02*
X147697768Y-120426766D01*
X147697768Y-120426766D02*
X147596753Y-120393094D01*
X147596753Y-120393094D02*
X147529409Y-120393094D01*
X147529409Y-120393094D02*
X147428394Y-120426766D01*
X147428394Y-120426766D02*
X147361050Y-120494109D01*
X147361050Y-120494109D02*
X147293707Y-120628796D01*
X147293707Y-120628796D02*
X147293707Y-121436918D01*
X147293707Y-121436918D02*
X146855974Y-120999185D01*
X141892857Y-104454819D02*
X142226190Y-103978628D01*
X142464285Y-104454819D02*
X142464285Y-103454819D01*
X142464285Y-103454819D02*
X142083333Y-103454819D01*
X142083333Y-103454819D02*
X141988095Y-103502438D01*
X141988095Y-103502438D02*
X141940476Y-103550057D01*
X141940476Y-103550057D02*
X141892857Y-103645295D01*
X141892857Y-103645295D02*
X141892857Y-103788152D01*
X141892857Y-103788152D02*
X141940476Y-103883390D01*
X141940476Y-103883390D02*
X141988095Y-103931009D01*
X141988095Y-103931009D02*
X142083333Y-103978628D01*
X142083333Y-103978628D02*
X142464285Y-103978628D01*
X140940476Y-104454819D02*
X141511904Y-104454819D01*
X141226190Y-104454819D02*
X141226190Y-103454819D01*
X141226190Y-103454819D02*
X141321428Y-103597676D01*
X141321428Y-103597676D02*
X141416666Y-103692914D01*
X141416666Y-103692914D02*
X141511904Y-103740533D01*
X140083333Y-103454819D02*
X140273809Y-103454819D01*
X140273809Y-103454819D02*
X140369047Y-103502438D01*
X140369047Y-103502438D02*
X140416666Y-103550057D01*
X140416666Y-103550057D02*
X140511904Y-103692914D01*
X140511904Y-103692914D02*
X140559523Y-103883390D01*
X140559523Y-103883390D02*
X140559523Y-104264342D01*
X140559523Y-104264342D02*
X140511904Y-104359580D01*
X140511904Y-104359580D02*
X140464285Y-104407200D01*
X140464285Y-104407200D02*
X140369047Y-104454819D01*
X140369047Y-104454819D02*
X140178571Y-104454819D01*
X140178571Y-104454819D02*
X140083333Y-104407200D01*
X140083333Y-104407200D02*
X140035714Y-104359580D01*
X140035714Y-104359580D02*
X139988095Y-104264342D01*
X139988095Y-104264342D02*
X139988095Y-104026247D01*
X139988095Y-104026247D02*
X140035714Y-103931009D01*
X140035714Y-103931009D02*
X140083333Y-103883390D01*
X140083333Y-103883390D02*
X140178571Y-103835771D01*
X140178571Y-103835771D02*
X140369047Y-103835771D01*
X140369047Y-103835771D02*
X140464285Y-103883390D01*
X140464285Y-103883390D02*
X140511904Y-103931009D01*
X140511904Y-103931009D02*
X140559523Y-104026247D01*
X156026173Y-91367036D02*
X155925158Y-90794617D01*
X156430234Y-90962975D02*
X155723127Y-90255869D01*
X155723127Y-90255869D02*
X155453753Y-90525243D01*
X155453753Y-90525243D02*
X155420081Y-90626258D01*
X155420081Y-90626258D02*
X155420081Y-90693601D01*
X155420081Y-90693601D02*
X155453753Y-90794617D01*
X155453753Y-90794617D02*
X155554768Y-90895632D01*
X155554768Y-90895632D02*
X155655784Y-90929304D01*
X155655784Y-90929304D02*
X155723127Y-90929304D01*
X155723127Y-90929304D02*
X155824142Y-90895632D01*
X155824142Y-90895632D02*
X156093516Y-90626258D01*
X155352738Y-92040471D02*
X155756799Y-91636410D01*
X155554768Y-91838441D02*
X154847662Y-91131334D01*
X154847662Y-91131334D02*
X155016020Y-91165006D01*
X155016020Y-91165006D02*
X155150707Y-91165006D01*
X155150707Y-91165006D02*
X155251723Y-91131334D01*
X154275242Y-92175159D02*
X154746646Y-92646563D01*
X154174226Y-91737426D02*
X154847661Y-92074143D01*
X154847661Y-92074143D02*
X154409929Y-92511876D01*
X152338095Y-96931009D02*
X152195238Y-96978628D01*
X152195238Y-96978628D02*
X152147619Y-97026247D01*
X152147619Y-97026247D02*
X152100000Y-97121485D01*
X152100000Y-97121485D02*
X152100000Y-97264342D01*
X152100000Y-97264342D02*
X152147619Y-97359580D01*
X152147619Y-97359580D02*
X152195238Y-97407200D01*
X152195238Y-97407200D02*
X152290476Y-97454819D01*
X152290476Y-97454819D02*
X152671428Y-97454819D01*
X152671428Y-97454819D02*
X152671428Y-96454819D01*
X152671428Y-96454819D02*
X152338095Y-96454819D01*
X152338095Y-96454819D02*
X152242857Y-96502438D01*
X152242857Y-96502438D02*
X152195238Y-96550057D01*
X152195238Y-96550057D02*
X152147619Y-96645295D01*
X152147619Y-96645295D02*
X152147619Y-96740533D01*
X152147619Y-96740533D02*
X152195238Y-96835771D01*
X152195238Y-96835771D02*
X152242857Y-96883390D01*
X152242857Y-96883390D02*
X152338095Y-96931009D01*
X152338095Y-96931009D02*
X152671428Y-96931009D01*
X151719047Y-97169104D02*
X151242857Y-97169104D01*
X151814285Y-97454819D02*
X151480952Y-96454819D01*
X151480952Y-96454819D02*
X151147619Y-97454819D01*
X150957142Y-96454819D02*
X150385714Y-96454819D01*
X150671428Y-97454819D02*
X150671428Y-96454819D01*
X146178570Y-121354819D02*
X146178570Y-120354819D01*
X146178570Y-120354819D02*
X145940475Y-120354819D01*
X145940475Y-120354819D02*
X145797618Y-120402438D01*
X145797618Y-120402438D02*
X145702380Y-120497676D01*
X145702380Y-120497676D02*
X145654761Y-120592914D01*
X145654761Y-120592914D02*
X145607142Y-120783390D01*
X145607142Y-120783390D02*
X145607142Y-120926247D01*
X145607142Y-120926247D02*
X145654761Y-121116723D01*
X145654761Y-121116723D02*
X145702380Y-121211961D01*
X145702380Y-121211961D02*
X145797618Y-121307200D01*
X145797618Y-121307200D02*
X145940475Y-121354819D01*
X145940475Y-121354819D02*
X146178570Y-121354819D01*
X145178570Y-121354819D02*
X145178570Y-120354819D01*
X144702380Y-121354819D02*
X144702380Y-120354819D01*
X144702380Y-120354819D02*
X144130952Y-121354819D01*
X144130952Y-121354819D02*
X144130952Y-120354819D01*
X143178571Y-121354819D02*
X143654761Y-121354819D01*
X143654761Y-121354819D02*
X143654761Y-120354819D01*
D13*
X150526601Y-113047141D02*
X150560273Y-113047141D01*
X150560273Y-113047141D02*
X150627617Y-113013470D01*
X150627617Y-113013470D02*
X150661288Y-112979798D01*
X150661288Y-112979798D02*
X150694960Y-112912454D01*
X150694960Y-112912454D02*
X150694960Y-112845111D01*
X150694960Y-112845111D02*
X150678124Y-112794603D01*
X150678124Y-112794603D02*
X150627617Y-112710424D01*
X150627617Y-112710424D02*
X150577109Y-112659916D01*
X150577109Y-112659916D02*
X150492930Y-112609409D01*
X150492930Y-112609409D02*
X150442422Y-112592573D01*
X150442422Y-112592573D02*
X150375078Y-112592573D01*
X150375078Y-112592573D02*
X150307735Y-112626244D01*
X150307735Y-112626244D02*
X150274063Y-112659916D01*
X150274063Y-112659916D02*
X150240391Y-112727260D01*
X150240391Y-112727260D02*
X150240391Y-112760931D01*
X150223556Y-113417531D02*
X150425586Y-113215500D01*
X150324571Y-113316515D02*
X149971017Y-112962962D01*
X149971017Y-112962962D02*
X150055197Y-112979798D01*
X150055197Y-112979798D02*
X150122540Y-112979798D01*
X150122540Y-112979798D02*
X150173048Y-112962962D01*
X149886838Y-113754248D02*
X150088869Y-113552217D01*
X149987854Y-113653233D02*
X149634300Y-113299679D01*
X149634300Y-113299679D02*
X149718480Y-113316515D01*
X149718480Y-113316515D02*
X149785823Y-113316515D01*
X149785823Y-113316515D02*
X149836331Y-113299679D01*
D11*
X161366666Y-110154580D02*
X161414285Y-110202200D01*
X161414285Y-110202200D02*
X161557142Y-110249819D01*
X161557142Y-110249819D02*
X161652380Y-110249819D01*
X161652380Y-110249819D02*
X161795237Y-110202200D01*
X161795237Y-110202200D02*
X161890475Y-110106961D01*
X161890475Y-110106961D02*
X161938094Y-110011723D01*
X161938094Y-110011723D02*
X161985713Y-109821247D01*
X161985713Y-109821247D02*
X161985713Y-109678390D01*
X161985713Y-109678390D02*
X161938094Y-109487914D01*
X161938094Y-109487914D02*
X161890475Y-109392676D01*
X161890475Y-109392676D02*
X161795237Y-109297438D01*
X161795237Y-109297438D02*
X161652380Y-109249819D01*
X161652380Y-109249819D02*
X161557142Y-109249819D01*
X161557142Y-109249819D02*
X161414285Y-109297438D01*
X161414285Y-109297438D02*
X161366666Y-109345057D01*
X160509523Y-109583152D02*
X160509523Y-110249819D01*
X160747618Y-109202200D02*
X160985713Y-109916485D01*
X160985713Y-109916485D02*
X160366666Y-109916485D01*
X163416666Y-111704819D02*
X163749999Y-111228628D01*
X163988094Y-111704819D02*
X163988094Y-110704819D01*
X163988094Y-110704819D02*
X163607142Y-110704819D01*
X163607142Y-110704819D02*
X163511904Y-110752438D01*
X163511904Y-110752438D02*
X163464285Y-110800057D01*
X163464285Y-110800057D02*
X163416666Y-110895295D01*
X163416666Y-110895295D02*
X163416666Y-111038152D01*
X163416666Y-111038152D02*
X163464285Y-111133390D01*
X163464285Y-111133390D02*
X163511904Y-111181009D01*
X163511904Y-111181009D02*
X163607142Y-111228628D01*
X163607142Y-111228628D02*
X163988094Y-111228628D01*
X162940475Y-111704819D02*
X162749999Y-111704819D01*
X162749999Y-111704819D02*
X162654761Y-111657200D01*
X162654761Y-111657200D02*
X162607142Y-111609580D01*
X162607142Y-111609580D02*
X162511904Y-111466723D01*
X162511904Y-111466723D02*
X162464285Y-111276247D01*
X162464285Y-111276247D02*
X162464285Y-110895295D01*
X162464285Y-110895295D02*
X162511904Y-110800057D01*
X162511904Y-110800057D02*
X162559523Y-110752438D01*
X162559523Y-110752438D02*
X162654761Y-110704819D01*
X162654761Y-110704819D02*
X162845237Y-110704819D01*
X162845237Y-110704819D02*
X162940475Y-110752438D01*
X162940475Y-110752438D02*
X162988094Y-110800057D01*
X162988094Y-110800057D02*
X163035713Y-110895295D01*
X163035713Y-110895295D02*
X163035713Y-111133390D01*
X163035713Y-111133390D02*
X162988094Y-111228628D01*
X162988094Y-111228628D02*
X162940475Y-111276247D01*
X162940475Y-111276247D02*
X162845237Y-111323866D01*
X162845237Y-111323866D02*
X162654761Y-111323866D01*
X162654761Y-111323866D02*
X162559523Y-111276247D01*
X162559523Y-111276247D02*
X162511904Y-111228628D01*
X162511904Y-111228628D02*
X162464285Y-111133390D01*
X149699006Y-109738197D02*
X149766350Y-109738197D01*
X149766350Y-109738197D02*
X149901037Y-109670853D01*
X149901037Y-109670853D02*
X149968380Y-109603510D01*
X149968380Y-109603510D02*
X150035724Y-109468823D01*
X150035724Y-109468823D02*
X150035724Y-109334136D01*
X150035724Y-109334136D02*
X150002052Y-109233121D01*
X150002052Y-109233121D02*
X149901037Y-109064762D01*
X149901037Y-109064762D02*
X149800022Y-108963747D01*
X149800022Y-108963747D02*
X149631663Y-108862731D01*
X149631663Y-108862731D02*
X149530648Y-108829060D01*
X149530648Y-108829060D02*
X149395961Y-108829060D01*
X149395961Y-108829060D02*
X149261274Y-108896403D01*
X149261274Y-108896403D02*
X149193930Y-108963747D01*
X149193930Y-108963747D02*
X149126587Y-109098434D01*
X149126587Y-109098434D02*
X149126587Y-109165777D01*
X148958228Y-109805540D02*
X148991900Y-109704525D01*
X148991900Y-109704525D02*
X148991900Y-109637182D01*
X148991900Y-109637182D02*
X148958228Y-109536166D01*
X148958228Y-109536166D02*
X148924556Y-109502495D01*
X148924556Y-109502495D02*
X148823541Y-109468823D01*
X148823541Y-109468823D02*
X148756197Y-109468823D01*
X148756197Y-109468823D02*
X148655182Y-109502495D01*
X148655182Y-109502495D02*
X148520495Y-109637182D01*
X148520495Y-109637182D02*
X148486823Y-109738197D01*
X148486823Y-109738197D02*
X148486823Y-109805540D01*
X148486823Y-109805540D02*
X148520495Y-109906556D01*
X148520495Y-109906556D02*
X148554167Y-109940227D01*
X148554167Y-109940227D02*
X148655182Y-109973899D01*
X148655182Y-109973899D02*
X148722526Y-109973899D01*
X148722526Y-109973899D02*
X148823541Y-109940227D01*
X148823541Y-109940227D02*
X148958228Y-109805540D01*
X148958228Y-109805540D02*
X149059243Y-109771869D01*
X149059243Y-109771869D02*
X149126587Y-109771869D01*
X149126587Y-109771869D02*
X149227602Y-109805540D01*
X149227602Y-109805540D02*
X149362289Y-109940227D01*
X149362289Y-109940227D02*
X149395961Y-110041243D01*
X149395961Y-110041243D02*
X149395961Y-110108586D01*
X149395961Y-110108586D02*
X149362289Y-110209601D01*
X149362289Y-110209601D02*
X149227602Y-110344288D01*
X149227602Y-110344288D02*
X149126587Y-110377960D01*
X149126587Y-110377960D02*
X149059243Y-110377960D01*
X149059243Y-110377960D02*
X148958228Y-110344288D01*
X148958228Y-110344288D02*
X148823541Y-110209601D01*
X148823541Y-110209601D02*
X148789869Y-110108586D01*
X148789869Y-110108586D02*
X148789869Y-110041243D01*
X148789869Y-110041243D02*
X148823541Y-109940227D01*
X144836694Y-115620326D02*
X144836694Y-115687670D01*
X144836694Y-115687670D02*
X144904038Y-115822357D01*
X144904038Y-115822357D02*
X144971381Y-115889700D01*
X144971381Y-115889700D02*
X145106068Y-115957044D01*
X145106068Y-115957044D02*
X145240755Y-115957044D01*
X145240755Y-115957044D02*
X145341770Y-115923372D01*
X145341770Y-115923372D02*
X145510129Y-115822357D01*
X145510129Y-115822357D02*
X145611144Y-115721342D01*
X145611144Y-115721342D02*
X145712160Y-115552983D01*
X145712160Y-115552983D02*
X145745831Y-115451968D01*
X145745831Y-115451968D02*
X145745831Y-115317281D01*
X145745831Y-115317281D02*
X145678488Y-115182594D01*
X145678488Y-115182594D02*
X145611144Y-115115250D01*
X145611144Y-115115250D02*
X145476457Y-115047907D01*
X145476457Y-115047907D02*
X145409114Y-115047907D01*
X144836694Y-114340800D02*
X145173412Y-114677517D01*
X145173412Y-114677517D02*
X144870366Y-115047907D01*
X144870366Y-115047907D02*
X144870366Y-114980563D01*
X144870366Y-114980563D02*
X144836694Y-114879548D01*
X144836694Y-114879548D02*
X144668335Y-114711189D01*
X144668335Y-114711189D02*
X144567320Y-114677517D01*
X144567320Y-114677517D02*
X144499977Y-114677517D01*
X144499977Y-114677517D02*
X144398961Y-114711189D01*
X144398961Y-114711189D02*
X144230603Y-114879548D01*
X144230603Y-114879548D02*
X144196931Y-114980563D01*
X144196931Y-114980563D02*
X144196931Y-115047907D01*
X144196931Y-115047907D02*
X144230603Y-115148922D01*
X144230603Y-115148922D02*
X144398961Y-115317281D01*
X144398961Y-115317281D02*
X144499977Y-115350952D01*
X144499977Y-115350952D02*
X144567320Y-115350952D01*
D13*
X150007142Y-95626110D02*
X150007142Y-95126110D01*
X150007142Y-95126110D02*
X149888094Y-95126110D01*
X149888094Y-95126110D02*
X149816666Y-95149920D01*
X149816666Y-95149920D02*
X149769047Y-95197539D01*
X149769047Y-95197539D02*
X149745237Y-95245158D01*
X149745237Y-95245158D02*
X149721428Y-95340396D01*
X149721428Y-95340396D02*
X149721428Y-95411824D01*
X149721428Y-95411824D02*
X149745237Y-95507062D01*
X149745237Y-95507062D02*
X149769047Y-95554681D01*
X149769047Y-95554681D02*
X149816666Y-95602301D01*
X149816666Y-95602301D02*
X149888094Y-95626110D01*
X149888094Y-95626110D02*
X150007142Y-95626110D01*
X149292856Y-95292777D02*
X149292856Y-95626110D01*
X149411904Y-95102301D02*
X149530951Y-95459443D01*
X149530951Y-95459443D02*
X149221428Y-95459443D01*
X148792857Y-95126110D02*
X149030952Y-95126110D01*
X149030952Y-95126110D02*
X149054761Y-95364205D01*
X149054761Y-95364205D02*
X149030952Y-95340396D01*
X149030952Y-95340396D02*
X148983333Y-95316586D01*
X148983333Y-95316586D02*
X148864285Y-95316586D01*
X148864285Y-95316586D02*
X148816666Y-95340396D01*
X148816666Y-95340396D02*
X148792857Y-95364205D01*
X148792857Y-95364205D02*
X148769047Y-95411824D01*
X148769047Y-95411824D02*
X148769047Y-95530872D01*
X148769047Y-95530872D02*
X148792857Y-95578491D01*
X148792857Y-95578491D02*
X148816666Y-95602301D01*
X148816666Y-95602301D02*
X148864285Y-95626110D01*
X148864285Y-95626110D02*
X148983333Y-95626110D01*
X148983333Y-95626110D02*
X149030952Y-95602301D01*
X149030952Y-95602301D02*
X149054761Y-95578491D01*
X147105819Y-115233350D02*
X147105819Y-115267021D01*
X147105819Y-115267021D02*
X147139491Y-115334365D01*
X147139491Y-115334365D02*
X147173163Y-115368037D01*
X147173163Y-115368037D02*
X147240506Y-115401708D01*
X147240506Y-115401708D02*
X147307850Y-115401708D01*
X147307850Y-115401708D02*
X147358357Y-115384873D01*
X147358357Y-115384873D02*
X147442537Y-115334365D01*
X147442537Y-115334365D02*
X147493044Y-115283857D01*
X147493044Y-115283857D02*
X147543552Y-115199678D01*
X147543552Y-115199678D02*
X147560388Y-115149170D01*
X147560388Y-115149170D02*
X147560388Y-115081827D01*
X147560388Y-115081827D02*
X147526716Y-115014483D01*
X147526716Y-115014483D02*
X147493044Y-114980812D01*
X147493044Y-114980812D02*
X147425701Y-114947140D01*
X147425701Y-114947140D02*
X147392029Y-114947140D01*
X147122655Y-114610422D02*
X147189998Y-114677766D01*
X147189998Y-114677766D02*
X147206834Y-114728273D01*
X147206834Y-114728273D02*
X147206834Y-114761945D01*
X147206834Y-114761945D02*
X147189998Y-114846125D01*
X147189998Y-114846125D02*
X147139491Y-114930304D01*
X147139491Y-114930304D02*
X147004804Y-115064991D01*
X147004804Y-115064991D02*
X146954296Y-115081827D01*
X146954296Y-115081827D02*
X146920624Y-115081827D01*
X146920624Y-115081827D02*
X146870117Y-115064991D01*
X146870117Y-115064991D02*
X146802773Y-114997647D01*
X146802773Y-114997647D02*
X146785937Y-114947140D01*
X146785937Y-114947140D02*
X146785937Y-114913468D01*
X146785937Y-114913468D02*
X146802773Y-114862960D01*
X146802773Y-114862960D02*
X146886953Y-114778781D01*
X146886953Y-114778781D02*
X146937460Y-114761945D01*
X146937460Y-114761945D02*
X146971132Y-114761945D01*
X146971132Y-114761945D02*
X147021640Y-114778781D01*
X147021640Y-114778781D02*
X147088983Y-114846125D01*
X147088983Y-114846125D02*
X147105819Y-114896632D01*
X147105819Y-114896632D02*
X147105819Y-114930304D01*
X147105819Y-114930304D02*
X147088983Y-114980812D01*
D11*
X148461904Y-99454819D02*
X148461904Y-100264342D01*
X148461904Y-100264342D02*
X148414285Y-100359580D01*
X148414285Y-100359580D02*
X148366666Y-100407200D01*
X148366666Y-100407200D02*
X148271428Y-100454819D01*
X148271428Y-100454819D02*
X148080952Y-100454819D01*
X148080952Y-100454819D02*
X147985714Y-100407200D01*
X147985714Y-100407200D02*
X147938095Y-100359580D01*
X147938095Y-100359580D02*
X147890476Y-100264342D01*
X147890476Y-100264342D02*
X147890476Y-99454819D01*
X146938095Y-99454819D02*
X147414285Y-99454819D01*
X147414285Y-99454819D02*
X147461904Y-99931009D01*
X147461904Y-99931009D02*
X147414285Y-99883390D01*
X147414285Y-99883390D02*
X147319047Y-99835771D01*
X147319047Y-99835771D02*
X147080952Y-99835771D01*
X147080952Y-99835771D02*
X146985714Y-99883390D01*
X146985714Y-99883390D02*
X146938095Y-99931009D01*
X146938095Y-99931009D02*
X146890476Y-100026247D01*
X146890476Y-100026247D02*
X146890476Y-100264342D01*
X146890476Y-100264342D02*
X146938095Y-100359580D01*
X146938095Y-100359580D02*
X146985714Y-100407200D01*
X146985714Y-100407200D02*
X147080952Y-100454819D01*
X147080952Y-100454819D02*
X147319047Y-100454819D01*
X147319047Y-100454819D02*
X147414285Y-100407200D01*
X147414285Y-100407200D02*
X147461904Y-100359580D01*
X143249404Y-101654819D02*
X143249404Y-102464342D01*
X143249404Y-102464342D02*
X143201785Y-102559580D01*
X143201785Y-102559580D02*
X143154166Y-102607200D01*
X143154166Y-102607200D02*
X143058928Y-102654819D01*
X143058928Y-102654819D02*
X142868452Y-102654819D01*
X142868452Y-102654819D02*
X142773214Y-102607200D01*
X142773214Y-102607200D02*
X142725595Y-102559580D01*
X142725595Y-102559580D02*
X142677976Y-102464342D01*
X142677976Y-102464342D02*
X142677976Y-101654819D01*
X141773214Y-101988152D02*
X141773214Y-102654819D01*
X142011309Y-101607200D02*
X142249404Y-102321485D01*
X142249404Y-102321485D02*
X141630357Y-102321485D01*
X144642857Y-107359580D02*
X144690476Y-107407200D01*
X144690476Y-107407200D02*
X144833333Y-107454819D01*
X144833333Y-107454819D02*
X144928571Y-107454819D01*
X144928571Y-107454819D02*
X145071428Y-107407200D01*
X145071428Y-107407200D02*
X145166666Y-107311961D01*
X145166666Y-107311961D02*
X145214285Y-107216723D01*
X145214285Y-107216723D02*
X145261904Y-107026247D01*
X145261904Y-107026247D02*
X145261904Y-106883390D01*
X145261904Y-106883390D02*
X145214285Y-106692914D01*
X145214285Y-106692914D02*
X145166666Y-106597676D01*
X145166666Y-106597676D02*
X145071428Y-106502438D01*
X145071428Y-106502438D02*
X144928571Y-106454819D01*
X144928571Y-106454819D02*
X144833333Y-106454819D01*
X144833333Y-106454819D02*
X144690476Y-106502438D01*
X144690476Y-106502438D02*
X144642857Y-106550057D01*
X144261904Y-106550057D02*
X144214285Y-106502438D01*
X144214285Y-106502438D02*
X144119047Y-106454819D01*
X144119047Y-106454819D02*
X143880952Y-106454819D01*
X143880952Y-106454819D02*
X143785714Y-106502438D01*
X143785714Y-106502438D02*
X143738095Y-106550057D01*
X143738095Y-106550057D02*
X143690476Y-106645295D01*
X143690476Y-106645295D02*
X143690476Y-106740533D01*
X143690476Y-106740533D02*
X143738095Y-106883390D01*
X143738095Y-106883390D02*
X144309523Y-107454819D01*
X144309523Y-107454819D02*
X143690476Y-107454819D01*
X143214285Y-107454819D02*
X143023809Y-107454819D01*
X143023809Y-107454819D02*
X142928571Y-107407200D01*
X142928571Y-107407200D02*
X142880952Y-107359580D01*
X142880952Y-107359580D02*
X142785714Y-107216723D01*
X142785714Y-107216723D02*
X142738095Y-107026247D01*
X142738095Y-107026247D02*
X142738095Y-106645295D01*
X142738095Y-106645295D02*
X142785714Y-106550057D01*
X142785714Y-106550057D02*
X142833333Y-106502438D01*
X142833333Y-106502438D02*
X142928571Y-106454819D01*
X142928571Y-106454819D02*
X143119047Y-106454819D01*
X143119047Y-106454819D02*
X143214285Y-106502438D01*
X143214285Y-106502438D02*
X143261904Y-106550057D01*
X143261904Y-106550057D02*
X143309523Y-106645295D01*
X143309523Y-106645295D02*
X143309523Y-106883390D01*
X143309523Y-106883390D02*
X143261904Y-106978628D01*
X143261904Y-106978628D02*
X143214285Y-107026247D01*
X143214285Y-107026247D02*
X143119047Y-107073866D01*
X143119047Y-107073866D02*
X142928571Y-107073866D01*
X142928571Y-107073866D02*
X142833333Y-107026247D01*
X142833333Y-107026247D02*
X142785714Y-106978628D01*
X142785714Y-106978628D02*
X142738095Y-106883390D01*
X148657200Y-106209524D02*
X148704819Y-106352381D01*
X148704819Y-106352381D02*
X148704819Y-106590476D01*
X148704819Y-106590476D02*
X148657200Y-106685714D01*
X148657200Y-106685714D02*
X148609580Y-106733333D01*
X148609580Y-106733333D02*
X148514342Y-106780952D01*
X148514342Y-106780952D02*
X148419104Y-106780952D01*
X148419104Y-106780952D02*
X148323866Y-106733333D01*
X148323866Y-106733333D02*
X148276247Y-106685714D01*
X148276247Y-106685714D02*
X148228628Y-106590476D01*
X148228628Y-106590476D02*
X148181009Y-106400000D01*
X148181009Y-106400000D02*
X148133390Y-106304762D01*
X148133390Y-106304762D02*
X148085771Y-106257143D01*
X148085771Y-106257143D02*
X147990533Y-106209524D01*
X147990533Y-106209524D02*
X147895295Y-106209524D01*
X147895295Y-106209524D02*
X147800057Y-106257143D01*
X147800057Y-106257143D02*
X147752438Y-106304762D01*
X147752438Y-106304762D02*
X147704819Y-106400000D01*
X147704819Y-106400000D02*
X147704819Y-106638095D01*
X147704819Y-106638095D02*
X147752438Y-106780952D01*
X148609580Y-107780952D02*
X148657200Y-107733333D01*
X148657200Y-107733333D02*
X148704819Y-107590476D01*
X148704819Y-107590476D02*
X148704819Y-107495238D01*
X148704819Y-107495238D02*
X148657200Y-107352381D01*
X148657200Y-107352381D02*
X148561961Y-107257143D01*
X148561961Y-107257143D02*
X148466723Y-107209524D01*
X148466723Y-107209524D02*
X148276247Y-107161905D01*
X148276247Y-107161905D02*
X148133390Y-107161905D01*
X148133390Y-107161905D02*
X147942914Y-107209524D01*
X147942914Y-107209524D02*
X147847676Y-107257143D01*
X147847676Y-107257143D02*
X147752438Y-107352381D01*
X147752438Y-107352381D02*
X147704819Y-107495238D01*
X147704819Y-107495238D02*
X147704819Y-107590476D01*
X147704819Y-107590476D02*
X147752438Y-107733333D01*
X147752438Y-107733333D02*
X147800057Y-107780952D01*
X148704819Y-108685714D02*
X148704819Y-108209524D01*
X148704819Y-108209524D02*
X147704819Y-108209524D01*
X153468930Y-109439456D02*
X154041349Y-109338441D01*
X153872991Y-109843517D02*
X154580097Y-109136410D01*
X154580097Y-109136410D02*
X154310723Y-108867036D01*
X154310723Y-108867036D02*
X154209708Y-108833364D01*
X154209708Y-108833364D02*
X154142365Y-108833364D01*
X154142365Y-108833364D02*
X154041349Y-108867036D01*
X154041349Y-108867036D02*
X153940334Y-108968051D01*
X153940334Y-108968051D02*
X153906662Y-109069067D01*
X153906662Y-109069067D02*
X153906662Y-109136410D01*
X153906662Y-109136410D02*
X153940334Y-109237425D01*
X153940334Y-109237425D02*
X154209708Y-109506799D01*
X153468930Y-108631334D02*
X153569945Y-108665006D01*
X153569945Y-108665006D02*
X153637288Y-108665006D01*
X153637288Y-108665006D02*
X153738304Y-108631334D01*
X153738304Y-108631334D02*
X153771975Y-108597662D01*
X153771975Y-108597662D02*
X153805647Y-108496647D01*
X153805647Y-108496647D02*
X153805647Y-108429303D01*
X153805647Y-108429303D02*
X153771975Y-108328288D01*
X153771975Y-108328288D02*
X153637288Y-108193601D01*
X153637288Y-108193601D02*
X153536273Y-108159929D01*
X153536273Y-108159929D02*
X153468930Y-108159929D01*
X153468930Y-108159929D02*
X153367914Y-108193601D01*
X153367914Y-108193601D02*
X153334243Y-108227273D01*
X153334243Y-108227273D02*
X153300571Y-108328288D01*
X153300571Y-108328288D02*
X153300571Y-108395632D01*
X153300571Y-108395632D02*
X153334243Y-108496647D01*
X153334243Y-108496647D02*
X153468930Y-108631334D01*
X153468930Y-108631334D02*
X153502601Y-108732349D01*
X153502601Y-108732349D02*
X153502601Y-108799693D01*
X153502601Y-108799693D02*
X153468930Y-108900708D01*
X153468930Y-108900708D02*
X153334243Y-109035395D01*
X153334243Y-109035395D02*
X153233227Y-109069067D01*
X153233227Y-109069067D02*
X153165884Y-109069067D01*
X153165884Y-109069067D02*
X153064869Y-109035395D01*
X153064869Y-109035395D02*
X152930182Y-108900708D01*
X152930182Y-108900708D02*
X152896510Y-108799693D01*
X152896510Y-108799693D02*
X152896510Y-108732349D01*
X152896510Y-108732349D02*
X152930182Y-108631334D01*
X152930182Y-108631334D02*
X153064869Y-108496647D01*
X153064869Y-108496647D02*
X153165884Y-108462975D01*
X153165884Y-108462975D02*
X153233227Y-108462975D01*
X153233227Y-108462975D02*
X153334243Y-108496647D01*
X146842857Y-98424819D02*
X147176190Y-97948628D01*
X147414285Y-98424819D02*
X147414285Y-97424819D01*
X147414285Y-97424819D02*
X147033333Y-97424819D01*
X147033333Y-97424819D02*
X146938095Y-97472438D01*
X146938095Y-97472438D02*
X146890476Y-97520057D01*
X146890476Y-97520057D02*
X146842857Y-97615295D01*
X146842857Y-97615295D02*
X146842857Y-97758152D01*
X146842857Y-97758152D02*
X146890476Y-97853390D01*
X146890476Y-97853390D02*
X146938095Y-97901009D01*
X146938095Y-97901009D02*
X147033333Y-97948628D01*
X147033333Y-97948628D02*
X147414285Y-97948628D01*
X146461904Y-97520057D02*
X146414285Y-97472438D01*
X146414285Y-97472438D02*
X146319047Y-97424819D01*
X146319047Y-97424819D02*
X146080952Y-97424819D01*
X146080952Y-97424819D02*
X145985714Y-97472438D01*
X145985714Y-97472438D02*
X145938095Y-97520057D01*
X145938095Y-97520057D02*
X145890476Y-97615295D01*
X145890476Y-97615295D02*
X145890476Y-97710533D01*
X145890476Y-97710533D02*
X145938095Y-97853390D01*
X145938095Y-97853390D02*
X146509523Y-98424819D01*
X146509523Y-98424819D02*
X145890476Y-98424819D01*
X145509523Y-97520057D02*
X145461904Y-97472438D01*
X145461904Y-97472438D02*
X145366666Y-97424819D01*
X145366666Y-97424819D02*
X145128571Y-97424819D01*
X145128571Y-97424819D02*
X145033333Y-97472438D01*
X145033333Y-97472438D02*
X144985714Y-97520057D01*
X144985714Y-97520057D02*
X144938095Y-97615295D01*
X144938095Y-97615295D02*
X144938095Y-97710533D01*
X144938095Y-97710533D02*
X144985714Y-97853390D01*
X144985714Y-97853390D02*
X145557142Y-98424819D01*
X145557142Y-98424819D02*
X144938095Y-98424819D01*
X142204819Y-93557142D02*
X141728628Y-93223809D01*
X142204819Y-92985714D02*
X141204819Y-92985714D01*
X141204819Y-92985714D02*
X141204819Y-93366666D01*
X141204819Y-93366666D02*
X141252438Y-93461904D01*
X141252438Y-93461904D02*
X141300057Y-93509523D01*
X141300057Y-93509523D02*
X141395295Y-93557142D01*
X141395295Y-93557142D02*
X141538152Y-93557142D01*
X141538152Y-93557142D02*
X141633390Y-93509523D01*
X141633390Y-93509523D02*
X141681009Y-93461904D01*
X141681009Y-93461904D02*
X141728628Y-93366666D01*
X141728628Y-93366666D02*
X141728628Y-92985714D01*
X142204819Y-94509523D02*
X142204819Y-93938095D01*
X142204819Y-94223809D02*
X141204819Y-94223809D01*
X141204819Y-94223809D02*
X141347676Y-94128571D01*
X141347676Y-94128571D02*
X141442914Y-94033333D01*
X141442914Y-94033333D02*
X141490533Y-93938095D01*
X141633390Y-95080952D02*
X141585771Y-94985714D01*
X141585771Y-94985714D02*
X141538152Y-94938095D01*
X141538152Y-94938095D02*
X141442914Y-94890476D01*
X141442914Y-94890476D02*
X141395295Y-94890476D01*
X141395295Y-94890476D02*
X141300057Y-94938095D01*
X141300057Y-94938095D02*
X141252438Y-94985714D01*
X141252438Y-94985714D02*
X141204819Y-95080952D01*
X141204819Y-95080952D02*
X141204819Y-95271428D01*
X141204819Y-95271428D02*
X141252438Y-95366666D01*
X141252438Y-95366666D02*
X141300057Y-95414285D01*
X141300057Y-95414285D02*
X141395295Y-95461904D01*
X141395295Y-95461904D02*
X141442914Y-95461904D01*
X141442914Y-95461904D02*
X141538152Y-95414285D01*
X141538152Y-95414285D02*
X141585771Y-95366666D01*
X141585771Y-95366666D02*
X141633390Y-95271428D01*
X141633390Y-95271428D02*
X141633390Y-95080952D01*
X141633390Y-95080952D02*
X141681009Y-94985714D01*
X141681009Y-94985714D02*
X141728628Y-94938095D01*
X141728628Y-94938095D02*
X141823866Y-94890476D01*
X141823866Y-94890476D02*
X142014342Y-94890476D01*
X142014342Y-94890476D02*
X142109580Y-94938095D01*
X142109580Y-94938095D02*
X142157200Y-94985714D01*
X142157200Y-94985714D02*
X142204819Y-95080952D01*
X142204819Y-95080952D02*
X142204819Y-95271428D01*
X142204819Y-95271428D02*
X142157200Y-95366666D01*
X142157200Y-95366666D02*
X142109580Y-95414285D01*
X142109580Y-95414285D02*
X142014342Y-95461904D01*
X142014342Y-95461904D02*
X141823866Y-95461904D01*
X141823866Y-95461904D02*
X141728628Y-95414285D01*
X141728628Y-95414285D02*
X141681009Y-95366666D01*
X141681009Y-95366666D02*
X141633390Y-95271428D01*
D14*
%TO.C,R10*%
X148213046Y-118270873D02*
X147995765Y-118488154D01*
X148750447Y-118808274D02*
X148533166Y-119025555D01*
%TO.C,C28*%
X139927500Y-100477836D02*
X139927500Y-100262164D01*
X140647500Y-100477836D02*
X140647500Y-100262164D01*
%TO.C,J1*%
X155991745Y-117897056D02*
X156628141Y-118533452D01*
X156380654Y-117083883D02*
X156592786Y-117296016D01*
X156557431Y-116907107D02*
X156380654Y-117083883D01*
X156592786Y-117296016D02*
X155991745Y-117897056D01*
X158671680Y-118922361D02*
X162122361Y-115471680D01*
X158867158Y-113192284D02*
X159293934Y-113265507D01*
X159220711Y-112838730D02*
X158867158Y-113192284D01*
X159293934Y-113265507D02*
X159220711Y-112838730D01*
X160008112Y-113258436D02*
X160107107Y-113357431D01*
X160107107Y-113357431D02*
X160283883Y-113180654D01*
X160283883Y-113180654D02*
X160496016Y-113392786D01*
X160496016Y-113392786D02*
X161097056Y-112791745D01*
X161097056Y-112791745D02*
X161733452Y-113428141D01*
%TO.C,C10*%
X156221693Y-113269190D02*
X156069190Y-113421693D01*
X156730810Y-113778307D02*
X156578307Y-113930810D01*
%TO.C,R11*%
X152139940Y-120522659D02*
X151922659Y-120739940D01*
X152677341Y-121060060D02*
X152460060Y-121277341D01*
%TO.C,U6*%
X145240000Y-93200000D02*
X145240000Y-94000000D01*
X145240000Y-94800000D02*
X145240000Y-94000000D01*
X148360000Y-93200000D02*
X148360000Y-94000000D01*
X148360000Y-94800000D02*
X148360000Y-94000000D01*
X148640000Y-95540000D02*
X148310000Y-95300000D01*
X148640000Y-95060000D01*
X148640000Y-95540000D01*
G36*
X148640000Y-95540000D02*
G01*
X148310000Y-95300000D01*
X148640000Y-95060000D01*
X148640000Y-95540000D01*
G37*
%TO.C,U3*%
X151914007Y-112623322D02*
X152073106Y-112464223D01*
X152073106Y-112464223D02*
X152232205Y-112623322D01*
X152073106Y-118432205D02*
X151914007Y-118273106D01*
X152232205Y-118273106D02*
X152073106Y-118432205D01*
X154897998Y-115607313D02*
X155057097Y-115448214D01*
X155057097Y-115448214D02*
X154897998Y-115289115D01*
X149011334Y-115837123D02*
X148671922Y-115497711D01*
X149074973Y-115434072D01*
X149011334Y-115837123D01*
G36*
X149011334Y-115837123D02*
G01*
X148671922Y-115497711D01*
X149074973Y-115434072D01*
X149011334Y-115837123D01*
G37*
%TO.C,R4*%
X134239940Y-97177341D02*
X134022659Y-96960060D01*
X134777341Y-96639940D02*
X134560060Y-96422659D01*
%TO.C,D43*%
X160866690Y-103484781D02*
X159480761Y-104870711D01*
X161715219Y-104333310D02*
X160329289Y-105719239D01*
X161715219Y-104333310D02*
X160866690Y-103484781D01*
%TO.C,SW3*%
X134424433Y-93501669D02*
X135089823Y-92859110D01*
X135828649Y-95099731D02*
X135446586Y-94704095D01*
X136994669Y-96163226D02*
X140375567Y-92898331D01*
X137139941Y-90879333D02*
X137805331Y-90236774D01*
X139353414Y-91695905D02*
X138971351Y-91300269D01*
D13*
%TO.C,BZ1*%
X158400000Y-92996699D02*
X161051650Y-95648350D01*
X163703301Y-98300000D02*
X158400000Y-103603301D01*
X153096699Y-98300000D01*
X158400000Y-92996699D01*
X163703301Y-98300000D01*
D14*
%TO.C,Q2*%
X140547487Y-112428768D02*
X141007106Y-112888388D01*
X141466726Y-113348007D02*
X141007106Y-112888388D01*
X142753660Y-110222595D02*
X143213280Y-110682214D01*
X143672899Y-111141834D02*
X143213280Y-110682214D01*
X140156811Y-112434071D02*
X139817399Y-112094660D01*
X140220450Y-112031021D01*
X140156811Y-112434071D01*
G36*
X140156811Y-112434071D02*
G01*
X139817399Y-112094660D01*
X140220450Y-112031021D01*
X140156811Y-112434071D01*
G37*
%TO.C,R17*%
X140613046Y-114070873D02*
X140395765Y-114288154D01*
X141150447Y-114608274D02*
X140933166Y-114825555D01*
%TO.C,L1*%
X149840000Y-92014376D02*
X149840000Y-88494376D01*
X149990000Y-88494376D02*
X149840000Y-88494376D01*
X149990000Y-92014376D02*
X149840000Y-92014376D01*
X153210000Y-88494376D02*
X153360000Y-88494376D01*
X153210000Y-92014376D02*
X153360000Y-92014376D01*
X153360000Y-92014376D02*
X153360000Y-88494376D01*
%TO.C,SDA*%
X147900000Y-108200000D02*
G75*
G02*
X146500000Y-108200000I-700000J0D01*
G01*
X146500000Y-108200000D02*
G75*
G02*
X147900000Y-108200000I700000J0D01*
G01*
%TO.C,R20*%
X139813046Y-109870873D02*
X139595765Y-110088154D01*
X140350447Y-110408274D02*
X140133166Y-110625555D01*
%TO.C,R21*%
X145777500Y-102637258D02*
X145777500Y-102162742D01*
X146822500Y-102637258D02*
X146822500Y-102162742D01*
%TO.C,C12*%
X145442296Y-114226521D02*
X145594799Y-114379024D01*
X145951413Y-113717404D02*
X146103916Y-113869907D01*
%TO.C,J2*%
X134790000Y-100400000D02*
X133160000Y-100400000D01*
X134790000Y-109600000D02*
X133160000Y-109600000D01*
%TO.C,R15*%
X138643641Y-105420000D02*
X138336359Y-105420000D01*
X138643641Y-106180000D02*
X138336359Y-106180000D01*
%TO.C,R3*%
X138840835Y-95719718D02*
X138519718Y-96040835D01*
X139880282Y-96759165D02*
X139559165Y-97080282D01*
%TO.C,Q1*%
X154337294Y-104656533D02*
X154796913Y-104196913D01*
X155256533Y-103737294D02*
X154796913Y-104196913D01*
X156543467Y-106862706D02*
X157003087Y-106403087D01*
X157462706Y-105943467D02*
X157003087Y-106403087D01*
X156548770Y-107253382D02*
X156209359Y-107592794D01*
X156145720Y-107189743D01*
X156548770Y-107253382D01*
G36*
X156548770Y-107253382D02*
G01*
X156209359Y-107592794D01*
X156145720Y-107189743D01*
X156548770Y-107253382D01*
G37*
%TO.C,C26*%
X138090000Y-108165580D02*
X138090000Y-107884420D01*
X139110000Y-108165580D02*
X139110000Y-107884420D01*
%TO.C,R13*%
X151439940Y-94422659D02*
X151222659Y-94639940D01*
X151977341Y-94960060D02*
X151760060Y-95177341D01*
%TO.C,Buz*%
X158300000Y-108100000D02*
G75*
G02*
X156900000Y-108100000I-700000J0D01*
G01*
X156900000Y-108100000D02*
G75*
G02*
X158300000Y-108100000I700000J0D01*
G01*
%TO.C,C27*%
X144440000Y-100462164D02*
X144440000Y-100677836D01*
X145160000Y-100462164D02*
X145160000Y-100677836D01*
%TO.C,R19*%
X149346359Y-105420000D02*
X149653641Y-105420000D01*
X149346359Y-106180000D02*
X149653641Y-106180000D01*
%TO.C,C13*%
X147581707Y-110965932D02*
X147734210Y-111118435D01*
X148090824Y-110456815D02*
X148243327Y-110609318D01*
%TO.C,DINS*%
X145100000Y-120700000D02*
G75*
G02*
X143700000Y-120700000I-700000J0D01*
G01*
X143700000Y-120700000D02*
G75*
G02*
X145100000Y-120700000I700000J0D01*
G01*
%TO.C,C31*%
X143540580Y-96490000D02*
X143259420Y-96490000D01*
X143540580Y-97510000D02*
X143259420Y-97510000D01*
%TO.C,Y1*%
X142562699Y-109417706D02*
X148148842Y-115003849D01*
X148148842Y-115003849D02*
X149492345Y-113660346D01*
%TO.C,U2*%
X148857887Y-119722945D02*
X149854908Y-118725924D01*
X150498375Y-121363433D02*
X151488325Y-120373483D01*
X150151893Y-118499650D02*
X149748842Y-118436011D01*
X150088253Y-118096599D01*
X150151893Y-118499650D01*
G36*
X150151893Y-118499650D02*
G01*
X149748842Y-118436011D01*
X150088253Y-118096599D01*
X150151893Y-118499650D01*
G37*
%TO.C,R16*%
X138336359Y-104220000D02*
X138643641Y-104220000D01*
X138336359Y-104980000D02*
X138643641Y-104980000D01*
%TO.C,C9*%
X151021693Y-110530810D02*
X150869190Y-110378307D01*
X151530810Y-110021693D02*
X151378307Y-109869190D01*
%TO.C,R14*%
X153079316Y-92822659D02*
X152862035Y-93039940D01*
X153616717Y-93360060D02*
X153399436Y-93577341D01*
%TO.C,BAT*%
X150350000Y-98200000D02*
G75*
G02*
X148450000Y-98200000I-950000J0D01*
G01*
X148450000Y-98200000D02*
G75*
G02*
X150350000Y-98200000I950000J0D01*
G01*
%TO.C,SW1*%
X135110830Y-117461329D02*
X134412723Y-116854474D01*
X135731378Y-115185110D02*
X135370545Y-115600201D01*
X137959858Y-119937951D02*
X137261752Y-119331097D01*
X139429455Y-118399799D02*
X139068622Y-118814890D01*
X140387277Y-117145526D02*
X136840142Y-114062049D01*
%TO.C,C30*%
X151790000Y-101959420D02*
X151790000Y-102240580D01*
X152810000Y-101959420D02*
X152810000Y-102240580D01*
%TO.C,Li-po1*%
X144590000Y-88289999D02*
X144590001Y-89189999D01*
X145439999Y-88290001D02*
X144590000Y-88289999D01*
X145440001Y-87990001D02*
X145439999Y-88290001D01*
X145689999Y-87990001D02*
X145440001Y-87990001D01*
X145760000Y-90910001D02*
X147440000Y-90909999D01*
X146749999Y-86996446D02*
X147000000Y-87350000D01*
X147000000Y-87350000D02*
X147250001Y-86996446D01*
X147250001Y-86996446D02*
X146749999Y-86996446D01*
X147509999Y-87850002D02*
X147510001Y-87990001D01*
X147510001Y-87990001D02*
X147760000Y-87989999D01*
X147760000Y-87989999D02*
X147760001Y-88289999D01*
X147760001Y-88289999D02*
X148610000Y-88290000D01*
X148610000Y-88290000D02*
X148610000Y-89190000D01*
%TO.C,DINL*%
X146300000Y-119000000D02*
G75*
G02*
X144900000Y-119000000I-700000J0D01*
G01*
X144900000Y-119000000D02*
G75*
G02*
X146300000Y-119000000I700000J0D01*
G01*
%TO.C,R9*%
X163046359Y-109420000D02*
X163353641Y-109420000D01*
X163046359Y-110180000D02*
X163353641Y-110180000D01*
%TO.C,C8*%
X149669190Y-111478307D02*
X149821693Y-111630810D01*
X150178307Y-110969190D02*
X150330810Y-111121693D01*
%TO.C,C5*%
X146313076Y-117184433D02*
X146511887Y-117383244D01*
X147034325Y-116463184D02*
X147233136Y-116661995D01*
%TO.C,D45*%
X149000000Y-92539999D02*
X149000000Y-94500000D01*
X150200000Y-92540000D02*
X149000000Y-92539999D01*
X150200000Y-92540000D02*
X150200000Y-94500000D01*
%TO.C,FB1*%
X154627584Y-112523941D02*
X154397379Y-112293736D01*
X155348833Y-111802692D02*
X155118628Y-111572487D01*
%TO.C,U5*%
X147990000Y-101937500D02*
X147990000Y-102737500D01*
X147990000Y-103537500D02*
X147990000Y-102737500D01*
X151110000Y-101937500D02*
X151110000Y-102737500D01*
X151110000Y-103537500D02*
X151110000Y-102737500D01*
X148040000Y-101437500D02*
X147710000Y-101677500D01*
X147710000Y-101197500D01*
X148040000Y-101437500D01*
G36*
X148040000Y-101437500D02*
G01*
X147710000Y-101677500D01*
X147710000Y-101197500D01*
X148040000Y-101437500D01*
G37*
%TO.C,U4*%
X143487500Y-99140000D02*
X141487500Y-99140000D01*
X143487500Y-101360000D02*
X141487500Y-101360000D01*
X141247500Y-101540000D02*
X140967500Y-101260000D01*
X141247500Y-101260000D01*
X141247500Y-101540000D01*
G36*
X141247500Y-101540000D02*
G01*
X140967500Y-101260000D01*
X141247500Y-101260000D01*
X141247500Y-101540000D01*
G37*
%TO.C,SW2*%
X162850000Y-102650000D02*
X162850000Y-107350000D01*
X164425000Y-102550000D02*
X164975000Y-102550000D01*
X164425000Y-107450000D02*
X164975000Y-107450000D01*
X166550000Y-102650000D02*
X166550000Y-103575000D01*
X166550000Y-106425000D02*
X166550000Y-107350000D01*
%TO.C,C29*%
X143590000Y-104640580D02*
X143590000Y-104359420D01*
X144610000Y-104640580D02*
X144610000Y-104359420D01*
%TO.C,SCL*%
X150600000Y-107900000D02*
G75*
G02*
X149200000Y-107900000I-700000J0D01*
G01*
X149200000Y-107900000D02*
G75*
G02*
X150600000Y-107900000I700000J0D01*
G01*
%TO.C,R7*%
X161020000Y-107153641D02*
X161020000Y-106846359D01*
X161780000Y-107153641D02*
X161780000Y-106846359D01*
%TO.C,R5*%
X142440835Y-115719718D02*
X142119718Y-116040835D01*
X143480282Y-116759165D02*
X143159165Y-117080282D01*
%TO.C,R8*%
X154339940Y-108177341D02*
X154122659Y-107960060D01*
X154877341Y-107639940D02*
X154660060Y-107422659D01*
%TO.C,R22*%
X146353641Y-96420000D02*
X146046359Y-96420000D01*
X146353641Y-97180000D02*
X146046359Y-97180000D01*
%TO.C,R18*%
X142865000Y-94427064D02*
X142865000Y-93972936D01*
X144335000Y-94427064D02*
X144335000Y-93972936D01*
%TO.C,R6*%
X141439940Y-119222659D02*
X141222659Y-119439940D01*
X141977341Y-119760060D02*
X141760060Y-119977341D01*
%TO.C,C32*%
X142090000Y-90540580D02*
X142090000Y-90259420D01*
X143110000Y-90540580D02*
X143110000Y-90259420D01*
%TD*%
%LPC*%
D15*
%TO.C,R10*%
X148012482Y-119008838D03*
X148733730Y-118287590D03*
%TD*%
D16*
%TO.C,C28*%
X140287500Y-99890000D03*
X140287500Y-100850000D03*
%TD*%
D17*
%TO.C,J1*%
X160001041Y-113972614D03*
X159435355Y-114538299D03*
X158869670Y-115103984D03*
X158303984Y-115669670D03*
X157738299Y-116235355D03*
X157172614Y-116801041D03*
D18*
X162299138Y-114432233D03*
X157632233Y-119099138D03*
%TD*%
D19*
%TO.C,C10*%
X156060589Y-113939411D03*
X156739411Y-113260589D03*
%TD*%
D15*
%TO.C,R11*%
X151939376Y-121260624D03*
X152660624Y-120539376D03*
%TD*%
D20*
%TO.C,U6*%
X147749999Y-95137500D03*
X146800000Y-95137501D03*
X145850000Y-95137500D03*
X145850001Y-92862500D03*
X146800000Y-92862499D03*
X147750000Y-92862500D03*
%TD*%
D21*
%TO.C,U3*%
X149600000Y-115096428D03*
D22*
X149995980Y-114785301D03*
X150349533Y-114431748D03*
X150703087Y-114078195D03*
X151056640Y-113724641D03*
X151410193Y-113371088D03*
D23*
X151721320Y-112975108D03*
D24*
X152424892Y-112975108D03*
D25*
X152736019Y-113371088D03*
X153089572Y-113724641D03*
X153443125Y-114078195D03*
X153796679Y-114431748D03*
X154150232Y-114785301D03*
D26*
X154546212Y-115096428D03*
D27*
X154546212Y-115800000D03*
D22*
X154150232Y-116111127D03*
X153796679Y-116464680D03*
X153443125Y-116818233D03*
X153089572Y-117171787D03*
X152736019Y-117525340D03*
D28*
X152424892Y-117921320D03*
D29*
X151721320Y-117921320D03*
D25*
X151410193Y-117525340D03*
X151056640Y-117171787D03*
X150703087Y-116818233D03*
X150349533Y-116464680D03*
X149995980Y-116111127D03*
D30*
X149600000Y-115800000D03*
%TD*%
D31*
%TO.C,R4*%
X134039376Y-96439376D03*
X134760624Y-97160624D03*
%TD*%
D32*
%TO.C,D43*%
X160894975Y-104305025D03*
X159905025Y-105294975D03*
%TD*%
D33*
%TO.C,SW3*%
X138697807Y-90765083D03*
X134921273Y-94412039D03*
X139878727Y-91987961D03*
X136102193Y-95634917D03*
%TD*%
D34*
%TO.C,BZ1*%
X162784062Y-98158579D03*
X158258579Y-102684062D03*
X153945227Y-98512132D03*
X158541421Y-93915938D03*
%TD*%
D35*
%TO.C,Q2*%
X140775529Y-111794140D03*
X142119032Y-110450637D03*
X142773106Y-112448214D03*
%TD*%
D15*
%TO.C,R17*%
X140412482Y-114808838D03*
X141133730Y-114087590D03*
%TD*%
D36*
%TO.C,L1*%
X151600000Y-89104376D03*
X151600000Y-91404376D03*
%TD*%
D37*
%TO.C,C1*%
X137626274Y-98226274D03*
X137173726Y-97773726D03*
%TD*%
D38*
%TO.C,SDA*%
X147200000Y-108200000D03*
%TD*%
D15*
%TO.C,R20*%
X139612482Y-110608838D03*
X140333730Y-109887590D03*
%TD*%
D39*
%TO.C,R21*%
X146300000Y-101575000D03*
X146300000Y-103225000D03*
%TD*%
D40*
%TO.C,C12*%
X146112517Y-114387625D03*
X145433695Y-113708803D03*
%TD*%
D41*
%TO.C,J2*%
X135782500Y-105500000D03*
D42*
X135782500Y-103480000D03*
D43*
X135782500Y-102250000D03*
D44*
X135782500Y-104500000D03*
D45*
X135782500Y-106520000D03*
D46*
X135782500Y-107750000D03*
D47*
X132147500Y-110125000D03*
D48*
X135727500Y-110125000D03*
D47*
X132147500Y-99875000D03*
D48*
X135727500Y-99875000D03*
%TD*%
D49*
%TO.C,R15*%
X137980000Y-105800000D03*
X139000000Y-105800000D03*
%TD*%
D50*
%TO.C,R3*%
X138554765Y-97045235D03*
X139845235Y-95754765D03*
%TD*%
D51*
%TO.C,Q1*%
X155908839Y-106634664D03*
X154565336Y-105291161D03*
X156562913Y-104637087D03*
%TD*%
D52*
%TO.C,C26*%
X138600000Y-107250000D03*
X138600000Y-108800000D03*
%TD*%
D15*
%TO.C,R13*%
X151239376Y-95160624D03*
X151960624Y-94439376D03*
%TD*%
D38*
%TO.C,Buz*%
X157600000Y-108100000D03*
%TD*%
D53*
%TO.C,C27*%
X144800000Y-101050000D03*
X144800000Y-100090000D03*
%TD*%
D54*
%TO.C,R19*%
X150010000Y-105800000D03*
X148990000Y-105800000D03*
%TD*%
D40*
%TO.C,C13*%
X148251928Y-111127036D03*
X147573106Y-110448214D03*
%TD*%
D38*
%TO.C,DINS*%
X144400000Y-120700000D03*
%TD*%
D55*
%TO.C,C31*%
X142625000Y-97000000D03*
X144175000Y-97000000D03*
%TD*%
D56*
%TO.C,Y1*%
X147936710Y-114084610D03*
X143481938Y-109629838D03*
X144118334Y-108993442D03*
X148573106Y-113448214D03*
%TD*%
D57*
%TO.C,U2*%
X150385238Y-118916843D03*
X150844857Y-119376463D03*
X151304477Y-119836082D03*
X149960974Y-121179585D03*
X149041735Y-120260346D03*
%TD*%
D54*
%TO.C,R16*%
X139000000Y-104600000D03*
X137980000Y-104600000D03*
%TD*%
D58*
%TO.C,C9*%
X150860589Y-109860589D03*
X151539411Y-110539411D03*
%TD*%
D15*
%TO.C,R14*%
X152878752Y-93560624D03*
X153600000Y-92839376D03*
%TD*%
D59*
%TO.C,BAT*%
X149400000Y-98200000D03*
%TD*%
D60*
%TO.C,SW1*%
X134861237Y-115919348D03*
X138823462Y-119363658D03*
X135976538Y-114636342D03*
X139938763Y-118080652D03*
%TD*%
D61*
%TO.C,C30*%
X152300000Y-102875000D03*
X152300000Y-101325000D03*
%TD*%
D62*
%TO.C,Li-po1*%
X147000000Y-88349999D03*
X146199999Y-88350000D03*
D63*
X148299999Y-90300000D03*
X144899999Y-90300000D03*
%TD*%
D38*
%TO.C,DINL*%
X145600000Y-119000000D03*
%TD*%
D64*
%TO.C,C7*%
X154223726Y-118073726D03*
X154676274Y-118526274D03*
%TD*%
D37*
%TO.C,C11*%
X149599380Y-112674488D03*
X149146832Y-112221940D03*
%TD*%
D65*
%TO.C,C4*%
X160880000Y-108745000D03*
X161520000Y-108745000D03*
%TD*%
D54*
%TO.C,R9*%
X163710000Y-109800000D03*
X162690000Y-109800000D03*
%TD*%
D40*
%TO.C,C8*%
X150339411Y-111639411D03*
X149660589Y-110960589D03*
%TD*%
D66*
%TO.C,C5*%
X147321114Y-117471222D03*
X146225098Y-116375206D03*
%TD*%
D67*
%TO.C,D45*%
X149600000Y-93099999D03*
X149600000Y-94500001D03*
%TD*%
D68*
%TO.C,FB1*%
X154316259Y-111491367D03*
X155429953Y-112605061D03*
%TD*%
D37*
%TO.C,C6*%
X148199380Y-116174488D03*
X147746832Y-115721940D03*
%TD*%
D69*
%TO.C,U5*%
X148600000Y-101600000D03*
X149550000Y-101600000D03*
X150500000Y-101600000D03*
X150500000Y-103875000D03*
X148600000Y-103875000D03*
%TD*%
D70*
%TO.C,U4*%
X141600000Y-100900000D03*
X141600000Y-100250000D03*
X141600000Y-99600000D03*
X143375000Y-99600000D03*
X143375000Y-100250000D03*
X143375000Y-100900000D03*
D71*
X142487500Y-100250000D03*
%TD*%
D72*
%TO.C,SW2*%
X165550000Y-107625000D03*
X165550000Y-102375000D03*
X163850000Y-107625000D03*
X163850000Y-102375000D03*
%TD*%
D52*
%TO.C,C29*%
X144100000Y-103725000D03*
X144100000Y-105275000D03*
%TD*%
D38*
%TO.C,SCL*%
X149900000Y-107900000D03*
%TD*%
D73*
%TO.C,R7*%
X161400000Y-107510000D03*
X161400000Y-106490000D03*
%TD*%
D50*
%TO.C,R5*%
X142154765Y-117045235D03*
X143445235Y-115754765D03*
%TD*%
D31*
%TO.C,R8*%
X154139376Y-107439376D03*
X154860624Y-108160624D03*
%TD*%
D49*
%TO.C,R22*%
X145690000Y-96800000D03*
X146710000Y-96800000D03*
%TD*%
D74*
%TO.C,R18*%
X143600000Y-93287500D03*
X143600000Y-95112500D03*
%TD*%
D15*
%TO.C,R6*%
X141239376Y-119960624D03*
X141960624Y-119239376D03*
%TD*%
D52*
%TO.C,C32*%
X142600000Y-89625000D03*
X142600000Y-91175000D03*
%TD*%
D75*
%TO.C,C3*%
X143626274Y-117773726D03*
X143173726Y-118226274D03*
%TD*%
%LPD*%
M02*
