%TF.GenerationSoftware,KiCad,Pcbnew,8.0.9-8.0.9-0~ubuntu24.04.1*%
%TF.CreationDate,2025-04-15T15:37:02+02:00*%
%TF.ProjectId,STM32_watch_NFC,53544d33-325f-4776-9174-63685f4e4643,rev?*%
%TF.SameCoordinates,Original*%
%TF.FileFunction,Copper,L1,Top*%
%TF.FilePolarity,Positive*%
%FSLAX46Y46*%
G04 Gerber Fmt 4.6, Leading zero omitted, Abs format (unit mm)*
G04 Created by KiCad (PCBNEW 8.0.9-8.0.9-0~ubuntu24.04.1) date 2025-04-15 15:37:02*
%MOMM*%
%LPD*%
G01*
G04 APERTURE LIST*
G04 Aperture macros list*
%AMRoundRect*
0 Rectangle with rounded corners*
0 $1 Rounding radius*
0 $2 $3 $4 $5 $6 $7 $8 $9 X,Y pos of 4 corners*
0 Add a 4 corners polygon primitive as box body*
4,1,4,$2,$3,$4,$5,$6,$7,$8,$9,$2,$3,0*
0 Add four circle primitives for the rounded corners*
1,1,$1+$1,$2,$3*
1,1,$1+$1,$4,$5*
1,1,$1+$1,$6,$7*
1,1,$1+$1,$8,$9*
0 Add four rect primitives between the rounded corners*
20,1,$1+$1,$2,$3,$4,$5,0*
20,1,$1+$1,$4,$5,$6,$7,0*
20,1,$1+$1,$6,$7,$8,$9,0*
20,1,$1+$1,$8,$9,$2,$3,0*%
G04 Aperture macros list end*
%TA.AperFunction,SMDPad,CuDef*%
%ADD10RoundRect,0.147500X-0.147500X-0.172500X0.147500X-0.172500X0.147500X0.172500X-0.147500X0.172500X0*%
%TD*%
%TA.AperFunction,SMDPad,CuDef*%
%ADD11RoundRect,0.100000X0.130000X0.100000X-0.130000X0.100000X-0.130000X-0.100000X0.130000X-0.100000X0*%
%TD*%
%TA.AperFunction,SMDPad,CuDef*%
%ADD12RoundRect,0.147500X0.172500X-0.147500X0.172500X0.147500X-0.172500X0.147500X-0.172500X-0.147500X0*%
%TD*%
%TA.AperFunction,SMDPad,CuDef*%
%ADD13RoundRect,0.125000X0.125000X-0.125000X0.125000X0.125000X-0.125000X0.125000X-0.125000X-0.125000X0*%
%TD*%
%TA.AperFunction,SMDPad,CuDef*%
%ADD14R,0.550000X0.250000*%
%TD*%
G04 APERTURE END LIST*
D10*
%TO.P,D26,1,K*%
%TO.N,Row3*%
X145015000Y-105000000D03*
%TO.P,D26,2,A*%
%TO.N,Row5*%
X145985000Y-105000000D03*
%TD*%
D11*
%TO.P,C17,1*%
%TO.N,+5V*%
X162861025Y-103553975D03*
%TO.P,C17,2*%
%TO.N,GND*%
X162221025Y-103553975D03*
%TD*%
D12*
%TO.P,D29,1,K*%
%TO.N,Row4*%
X153000000Y-106970000D03*
%TO.P,D29,2,A*%
%TO.N,Row2*%
X153000000Y-106000000D03*
%TD*%
D10*
%TO.P,D33,1,K*%
%TO.N,Row5*%
X151015000Y-105000000D03*
%TO.P,D33,2,A*%
%TO.N,Row1*%
X151985000Y-105000000D03*
%TD*%
D11*
%TO.P,C20,1*%
%TO.N,+5V*%
X148815000Y-117600000D03*
%TO.P,C20,2*%
%TO.N,GND*%
X148175000Y-117600000D03*
%TD*%
D10*
%TO.P,D40,1,K*%
%TO.N,Row6*%
X155515000Y-105000000D03*
%TO.P,D40,2,A*%
%TO.N,Row3*%
X156485000Y-105000000D03*
%TD*%
%TO.P,D19,1,K*%
%TO.N,Row2*%
X140515000Y-105000000D03*
%TO.P,D19,2,A*%
%TO.N,Row3*%
X141485000Y-105000000D03*
%TD*%
D12*
%TO.P,D15,1,K*%
%TO.N,Row1*%
X142500000Y-106970000D03*
%TO.P,D15,2,A*%
%TO.N,Row4*%
X142500000Y-106000000D03*
%TD*%
%TO.P,D36,1,K*%
%TO.N,Row5*%
X157500000Y-106970000D03*
%TO.P,D36,2,A*%
%TO.N,Row4*%
X157500000Y-106000000D03*
%TD*%
D13*
%TO.P,D4,1,DOUT*%
%TO.N,Net-(D4-DOUT)*%
X162050000Y-105450000D03*
%TO.P,D4,2,VSS*%
%TO.N,GND*%
X162950000Y-105450000D03*
%TO.P,D4,3,DIN*%
%TO.N,Net-(D3-DOUT)*%
X162950000Y-104550000D03*
%TO.P,D4,4,VDD*%
%TO.N,+5V*%
X162050000Y-104550000D03*
%TD*%
D12*
%TO.P,D18,1,K*%
%TO.N,Row2*%
X139500000Y-103970000D03*
%TO.P,D18,2,A*%
%TO.N,Row1*%
X139500000Y-103000000D03*
%TD*%
D13*
%TO.P,D9,1,DOUT*%
%TO.N,Net-(D10-DIN)*%
X135925644Y-112450000D03*
%TO.P,D9,2,VSS*%
%TO.N,GND*%
X136825644Y-112450000D03*
%TO.P,D9,3,DIN*%
%TO.N,Net-(D8-DOUT)*%
X136825644Y-111550000D03*
%TO.P,D9,4,VDD*%
%TO.N,+5V*%
X135925644Y-111550000D03*
%TD*%
%TO.P,D10,1,DOUT*%
%TO.N,Net-(D10-DOUT)*%
X134050000Y-105450000D03*
%TO.P,D10,2,VSS*%
%TO.N,GND*%
X134950000Y-105450000D03*
%TO.P,D10,3,DIN*%
%TO.N,Net-(D10-DIN)*%
X134950000Y-104550000D03*
%TO.P,D10,4,VDD*%
%TO.N,+5V*%
X134050000Y-104550000D03*
%TD*%
D11*
%TO.P,C23,1*%
%TO.N,+5V*%
X134768975Y-103553975D03*
%TO.P,C23,2*%
%TO.N,GND*%
X134128975Y-103553975D03*
%TD*%
D10*
%TO.P,D30,1,K*%
%TO.N,Row4*%
X151015000Y-108000000D03*
%TO.P,D30,2,A*%
%TO.N,Row3*%
X151985000Y-108000000D03*
%TD*%
%TO.P,D37,1,K*%
%TO.N,Row5*%
X155515000Y-108000000D03*
%TO.P,D37,2,A*%
%TO.N,Row6*%
X156485000Y-108000000D03*
%TD*%
D11*
%TO.P,C24,1*%
%TO.N,+5V*%
X136650786Y-96530962D03*
%TO.P,C24,2*%
%TO.N,GND*%
X136010786Y-96530962D03*
%TD*%
D10*
%TO.P,D27,1,K*%
%TO.N,Row3*%
X151015000Y-102000000D03*
%TO.P,D27,2,A*%
%TO.N,Row6*%
X151985000Y-102000000D03*
%TD*%
D13*
%TO.P,D2,1,DOUT*%
%TO.N,Net-(D2-DOUT)*%
X155050000Y-93325644D03*
%TO.P,D2,2,VSS*%
%TO.N,GND*%
X155950000Y-93325644D03*
%TO.P,D2,3,DIN*%
%TO.N,Net-(D1-DOUT)*%
X155950000Y-92425644D03*
%TO.P,D2,4,VDD*%
%TO.N,+5V*%
X155050000Y-92425644D03*
%TD*%
D12*
%TO.P,D25,1,K*%
%TO.N,Row3*%
X144000000Y-104000000D03*
%TO.P,D25,2,A*%
%TO.N,Row4*%
X144000000Y-103030000D03*
%TD*%
D11*
%TO.P,C22,1*%
%TO.N,+5V*%
X136650786Y-110576988D03*
%TO.P,C22,2*%
%TO.N,GND*%
X136010786Y-110576988D03*
%TD*%
%TO.P,C15,1*%
%TO.N,+5V*%
X155838012Y-91389761D03*
%TO.P,C15,2*%
%TO.N,GND*%
X155198012Y-91389761D03*
%TD*%
D12*
%TO.P,D24,1,K*%
%TO.N,Row3*%
X144000000Y-106970000D03*
%TO.P,D24,2,A*%
%TO.N,Row2*%
X144000000Y-106000000D03*
%TD*%
%TO.P,D17,1,K*%
%TO.N,Row1*%
X139500000Y-106970000D03*
%TO.P,D17,2,A*%
%TO.N,Row6*%
X139500000Y-106000000D03*
%TD*%
D14*
%TO.P,U1,1,VCC*%
%TO.N,+3.3V*%
X147125000Y-109500000D03*
%TO.P,U1,2,ADDR*%
%TO.N,GND*%
X147125000Y-110000000D03*
%TO.P,U1,3,GND*%
X147125000Y-110500000D03*
%TO.P,U1,4,SDA*%
%TO.N,SDA_LIGHT*%
X149875000Y-110500000D03*
%TO.P,U1,5,DVI*%
%TO.N,Net-(U1-DVI)*%
X149875000Y-110000000D03*
%TO.P,U1,6,SCL*%
%TO.N,SCL_LIGHT*%
X149875000Y-109500000D03*
%TD*%
D11*
%TO.P,C16,1*%
%TO.N,+5V*%
X160979214Y-96530963D03*
%TO.P,C16,2*%
%TO.N,GND*%
X160339214Y-96530963D03*
%TD*%
D12*
%TO.P,D31,1,K*%
%TO.N,Row4*%
X150000000Y-106970000D03*
%TO.P,D31,2,A*%
%TO.N,Row5*%
X150000000Y-106000000D03*
%TD*%
D11*
%TO.P,C14,1*%
%TO.N,+5V*%
X148815000Y-89507950D03*
%TO.P,C14,2*%
%TO.N,GND*%
X148175000Y-89507950D03*
%TD*%
D10*
%TO.P,D20,1,K*%
%TO.N,Row2*%
X145015000Y-102000000D03*
%TO.P,D20,2,A*%
%TO.N,Row4*%
X145985000Y-102000000D03*
%TD*%
%TO.P,D34,1,K*%
%TO.N,Row5*%
X155515000Y-102000000D03*
%TO.P,D34,2,A*%
%TO.N,Row2*%
X156485000Y-102000000D03*
%TD*%
D12*
%TO.P,D14,1,K*%
%TO.N,Row1*%
X142500000Y-103970000D03*
%TO.P,D14,2,A*%
%TO.N,Row3*%
X142500000Y-103000000D03*
%TD*%
D13*
%TO.P,D12,1,DOUT*%
%TO.N,unconnected-(D12-DOUT-Pad1)*%
X141050000Y-93325644D03*
%TO.P,D12,2,VSS*%
%TO.N,GND*%
X141950000Y-93325644D03*
%TO.P,D12,3,DIN*%
%TO.N,Net-(D11-DOUT)*%
X141950000Y-92425644D03*
%TO.P,D12,4,VDD*%
%TO.N,+5V*%
X141050000Y-92425644D03*
%TD*%
%TO.P,D8,1,DOUT*%
%TO.N,Net-(D8-DOUT)*%
X141050000Y-117574356D03*
%TO.P,D8,2,VSS*%
%TO.N,GND*%
X141950000Y-117574356D03*
%TO.P,D8,3,DIN*%
%TO.N,Net-(D7-DOUT)*%
X141950000Y-116674356D03*
%TO.P,D8,4,VDD*%
%TO.N,+5V*%
X141050000Y-116674356D03*
%TD*%
%TO.P,D1,1,DOUT*%
%TO.N,Net-(D1-DOUT)*%
X148050000Y-91450000D03*
%TO.P,D1,2,VSS*%
%TO.N,GND*%
X148950000Y-91450000D03*
%TO.P,D1,3,DIN*%
%TO.N,Net-(D1-DIN)*%
X148950000Y-90550000D03*
%TO.P,D1,4,VDD*%
%TO.N,+5V*%
X148050000Y-90550000D03*
%TD*%
D11*
%TO.P,C25,1*%
%TO.N,+5V*%
X141791987Y-91389761D03*
%TO.P,C25,2*%
%TO.N,GND*%
X141151987Y-91389761D03*
%TD*%
%TO.P,C21,1*%
%TO.N,+5V*%
X141791987Y-115718189D03*
%TO.P,C21,2*%
%TO.N,GND*%
X141151987Y-115718189D03*
%TD*%
D12*
%TO.P,D35,1,K*%
%TO.N,Row5*%
X157500000Y-103970000D03*
%TO.P,D35,2,A*%
%TO.N,Row3*%
X157500000Y-103000000D03*
%TD*%
D13*
%TO.P,D5,1,DOUT*%
%TO.N,Net-(D5-DOUT)*%
X160174356Y-112450000D03*
%TO.P,D5,2,VSS*%
%TO.N,GND*%
X161074356Y-112450000D03*
%TO.P,D5,3,DIN*%
%TO.N,Net-(D4-DOUT)*%
X161074356Y-111550000D03*
%TO.P,D5,4,VDD*%
%TO.N,+5V*%
X160174356Y-111550000D03*
%TD*%
D12*
%TO.P,D22,1,K*%
%TO.N,Row2*%
X147000000Y-106970000D03*
%TO.P,D22,2,A*%
%TO.N,Row6*%
X147000000Y-106000000D03*
%TD*%
D13*
%TO.P,D11,1,DOUT*%
%TO.N,Net-(D11-DOUT)*%
X135925644Y-98450000D03*
%TO.P,D11,2,VSS*%
%TO.N,GND*%
X136825644Y-98450000D03*
%TO.P,D11,3,DIN*%
%TO.N,Net-(D10-DOUT)*%
X136825644Y-97550000D03*
%TO.P,D11,4,VDD*%
%TO.N,+5V*%
X135925644Y-97550000D03*
%TD*%
%TO.P,D3,1,DOUT*%
%TO.N,Net-(D3-DOUT)*%
X160174356Y-98450000D03*
%TO.P,D3,2,VSS*%
%TO.N,GND*%
X161074356Y-98450000D03*
%TO.P,D3,3,DIN*%
%TO.N,Net-(D2-DOUT)*%
X161074356Y-97550000D03*
%TO.P,D3,4,VDD*%
%TO.N,+5V*%
X160174356Y-97550000D03*
%TD*%
D10*
%TO.P,D16,1,K*%
%TO.N,Row1*%
X140515000Y-108000000D03*
%TO.P,D16,2,A*%
%TO.N,Row5*%
X141485000Y-108000000D03*
%TD*%
%TO.P,D13,1,K*%
%TO.N,Row1*%
X140515000Y-102000000D03*
%TO.P,D13,2,A*%
%TO.N,Row2*%
X141485000Y-102000000D03*
%TD*%
D12*
%TO.P,D32,1,K*%
%TO.N,Row4*%
X150000000Y-104000000D03*
%TO.P,D32,2,A*%
%TO.N,Row6*%
X150000000Y-103030000D03*
%TD*%
D10*
%TO.P,D23,1,K*%
%TO.N,Row3*%
X145015000Y-108000000D03*
%TO.P,D23,2,A*%
%TO.N,Row1*%
X145985000Y-108000000D03*
%TD*%
D13*
%TO.P,D6,1,DOUT*%
%TO.N,Net-(D6-DOUT)*%
X155050000Y-117574356D03*
%TO.P,D6,2,VSS*%
%TO.N,GND*%
X155950000Y-117574356D03*
%TO.P,D6,3,DIN*%
%TO.N,Net-(D5-DOUT)*%
X155950000Y-116674356D03*
%TO.P,D6,4,VDD*%
%TO.N,+5V*%
X155050000Y-116674356D03*
%TD*%
D11*
%TO.P,C18,1*%
%TO.N,+5V*%
X160979214Y-110576988D03*
%TO.P,C18,2*%
%TO.N,GND*%
X160339214Y-110576988D03*
%TD*%
D13*
%TO.P,D7,1,DOUT*%
%TO.N,Net-(D7-DOUT)*%
X148050000Y-119450000D03*
%TO.P,D7,2,VSS*%
%TO.N,GND*%
X148950000Y-119450000D03*
%TO.P,D7,3,DIN*%
%TO.N,Net-(D6-DOUT)*%
X148950000Y-118550000D03*
%TO.P,D7,4,VDD*%
%TO.N,+5V*%
X148050000Y-118550000D03*
%TD*%
D12*
%TO.P,D38,1,K*%
%TO.N,Row6*%
X154500000Y-106970000D03*
%TO.P,D38,2,A*%
%TO.N,Row1*%
X154500000Y-106000000D03*
%TD*%
D11*
%TO.P,C19,1*%
%TO.N,+5V*%
X155838012Y-115718189D03*
%TO.P,C19,2*%
%TO.N,GND*%
X155198012Y-115718189D03*
%TD*%
D12*
%TO.P,D28,1,K*%
%TO.N,Row4*%
X153000000Y-103970000D03*
%TO.P,D28,2,A*%
%TO.N,Row1*%
X153000000Y-103000000D03*
%TD*%
%TO.P,D39,1,K*%
%TO.N,Row6*%
X154500000Y-104000000D03*
%TO.P,D39,2,A*%
%TO.N,Row2*%
X154500000Y-103030000D03*
%TD*%
%TO.P,D21,1,K*%
%TO.N,Row2*%
X147000000Y-103970000D03*
%TO.P,D21,2,A*%
%TO.N,Row5*%
X147000000Y-103000000D03*
%TD*%
M02*
