%TF.GenerationSoftware,KiCad,Pcbnew,8.0.9-8.0.9-0~ubuntu24.04.1*%
%TF.CreationDate,2025-06-26T14:03:12+02:00*%
%TF.ProjectId,STM32_watch_NFC,53544d33-325f-4776-9174-63685f4e4643,rev?*%
%TF.SameCoordinates,Original*%
%TF.FileFunction,Copper,L2,Inr*%
%TF.FilePolarity,Positive*%
%FSLAX46Y46*%
G04 Gerber Fmt 4.6, Leading zero omitted, Abs format (unit mm)*
G04 Created by KiCad (PCBNEW 8.0.9-8.0.9-0~ubuntu24.04.1) date 2025-06-26 14:03:12*
%MOMM*%
%LPD*%
G01*
G04 APERTURE LIST*
%TA.AperFunction,ViaPad*%
%ADD10C,0.300000*%
%TD*%
%TA.AperFunction,Conductor*%
%ADD11C,0.200000*%
%TD*%
%TA.AperFunction,Conductor*%
%ADD12C,0.300000*%
%TD*%
%TA.AperFunction,Conductor*%
%ADD13C,0.150000*%
%TD*%
G04 APERTURE END LIST*
D10*
%TO.N,Net-(D11-DOUT)*%
X138900000Y-98200000D03*
X141100000Y-94300000D03*
%TO.N,+5V*%
X146250000Y-93850000D03*
X152900000Y-94300000D03*
%TO.N,+3.3V*%
X157400000Y-109900000D03*
X140600000Y-93900000D03*
X161600000Y-102500000D03*
X163850000Y-100100000D03*
X134400000Y-113200000D03*
X139200000Y-100800000D03*
%TO.N,/NRST*%
X151100000Y-115200000D03*
X158000000Y-113200000D03*
%TO.N,+5V*%
X141800000Y-95500000D03*
X150900000Y-92700000D03*
%TO.N,Button_LT*%
X151000000Y-112200000D03*
X140100000Y-98200000D03*
%TO.N,Button_LB*%
X140900000Y-115900000D03*
X151600000Y-111600000D03*
%TO.N,Button_R*%
X162500000Y-110700000D03*
X153400000Y-118900000D03*
%TO.N,CHRG_STM*%
X152300000Y-116300000D03*
X144400000Y-113000000D03*
%TO.N,DONE_STM*%
X153900000Y-118800000D03*
X146400000Y-100500000D03*
%TO.N,SCL_LIGHT*%
X149300000Y-109100000D03*
X151200000Y-115900000D03*
%TO.N,SDA_LIGHT*%
X148700000Y-109700000D03*
X149700000Y-117600000D03*
%TO.N,GND*%
X150200000Y-120300000D03*
X146900000Y-111900000D03*
X144900000Y-116600000D03*
X144900000Y-117100000D03*
%TO.N,Row2*%
X151000000Y-106900000D03*
X152300000Y-106100000D03*
X144100000Y-106200000D03*
X151824754Y-114608628D03*
X144500000Y-102600000D03*
X145900000Y-104000000D03*
X145575000Y-106950000D03*
X151600000Y-109200000D03*
X139400000Y-103300000D03*
%TO.N,Row1*%
X139700000Y-107300000D03*
X140900000Y-103900000D03*
X155600000Y-105400000D03*
X138900000Y-102400000D03*
X153300000Y-112400000D03*
X144600000Y-107400000D03*
X153000000Y-105036076D03*
%TO.N,Row3*%
X144400000Y-106700000D03*
X156600000Y-103600000D03*
X148700000Y-108000000D03*
X150587500Y-109012500D03*
X151200000Y-102600000D03*
X152000000Y-107400000D03*
X152300000Y-114500000D03*
%TO.N,Row4*%
X152200000Y-115800000D03*
X152625000Y-103950000D03*
X151300000Y-104000000D03*
X140800000Y-106000000D03*
X144900000Y-103100000D03*
X156950000Y-106000000D03*
X152100000Y-106800000D03*
X154250000Y-106450000D03*
%TO.N,Row5*%
X157700000Y-103970000D03*
X152700000Y-115500000D03*
X140600000Y-107400000D03*
X156800000Y-106900000D03*
X151000000Y-105900000D03*
X156250000Y-102600000D03*
X145300000Y-104100000D03*
%TO.N,Row6*%
X139700000Y-106000000D03*
X151400000Y-103200000D03*
X145700000Y-106000000D03*
X155950000Y-104050000D03*
X153100000Y-115800000D03*
X157000000Y-107400000D03*
%TO.N,Net-(D45-A)*%
X148100000Y-96900000D03*
X151700000Y-93300000D03*
%TO.N,Buzzer*%
X153600000Y-108400000D03*
X152100000Y-116800000D03*
%TO.N,Net-(D1-DIN)*%
X153500000Y-121400000D03*
X150000000Y-92400000D03*
%TD*%
D11*
%TO.N,Net-(D11-DOUT)*%
X138900000Y-98200000D02*
X138900000Y-96500000D01*
X138900000Y-96500000D02*
X141100000Y-94300000D01*
D12*
%TO.N,+5V*%
X152900000Y-94300000D02*
X152900000Y-93500000D01*
X152900000Y-93500000D02*
X152100000Y-92700000D01*
X152100000Y-92700000D02*
X150900000Y-92700000D01*
%TO.N,+3.3V*%
X137500000Y-99200000D02*
X137500000Y-99100000D01*
D11*
X161600000Y-105700000D02*
X161600000Y-102500000D01*
D12*
X155900000Y-91200000D02*
X163850000Y-99150000D01*
X163850000Y-99150000D02*
X163850000Y-100100000D01*
X134200000Y-113000000D02*
X134200000Y-102500000D01*
X134400000Y-113200000D02*
X134200000Y-113000000D01*
X140600000Y-93900000D02*
X143300000Y-91200000D01*
D11*
X157400000Y-109900000D02*
X161600000Y-105700000D01*
D12*
X134200000Y-102500000D02*
X137500000Y-99200000D01*
X143300000Y-91200000D02*
X155900000Y-91200000D01*
X140600000Y-93900000D02*
X137500000Y-97000000D01*
X137500000Y-97000000D02*
X137500000Y-99100000D01*
X137500000Y-99100000D02*
X139200000Y-100800000D01*
D11*
%TO.N,/NRST*%
X157900000Y-113100000D02*
X158000000Y-113200000D01*
X151100000Y-115200000D02*
X151000000Y-115100000D01*
X151000000Y-114500000D02*
X152400000Y-113100000D01*
X152400000Y-113100000D02*
X157900000Y-113100000D01*
X151000000Y-115100000D02*
X151000000Y-114500000D01*
D12*
%TO.N,+5V*%
X148100000Y-95500000D02*
X150900000Y-92700000D01*
X141800000Y-95500000D02*
X148100000Y-95500000D01*
D13*
%TO.N,Button_LT*%
X147000000Y-101700000D02*
X147000000Y-100400000D01*
X151000000Y-112000000D02*
X151187500Y-111812500D01*
X144800000Y-103900000D02*
X147000000Y-101700000D01*
X151000000Y-112200000D02*
X151000000Y-112000000D01*
X149470864Y-108687500D02*
X148187500Y-108687500D01*
X151187500Y-111812500D02*
X151187500Y-110404136D01*
X151187500Y-110404136D02*
X149470864Y-108687500D01*
X147000000Y-100400000D02*
X144800000Y-98200000D01*
X148187500Y-108687500D02*
X146950000Y-107450000D01*
X146950000Y-107450000D02*
X146950000Y-106400000D01*
X144800000Y-104250000D02*
X144800000Y-103900000D01*
X146950000Y-106400000D02*
X144800000Y-104250000D01*
X144800000Y-98200000D02*
X140100000Y-98200000D01*
D12*
%TO.N,Button_LB*%
X163112500Y-110212500D02*
X163200000Y-110300000D01*
X151600000Y-111600000D02*
X151600000Y-109900000D01*
X163200000Y-111100000D02*
X154000000Y-120300000D01*
X151600000Y-109900000D02*
X152700000Y-108800000D01*
X154610570Y-107800000D02*
X158510570Y-111700000D01*
X152700000Y-108800000D02*
X152700000Y-108300000D01*
X152700000Y-108300000D02*
X153200000Y-107800000D01*
X160087500Y-110212500D02*
X163112500Y-110212500D01*
X163200000Y-110300000D02*
X163200000Y-111100000D01*
X154000000Y-120300000D02*
X145500000Y-120300000D01*
X145500000Y-120300000D02*
X141100000Y-115900000D01*
X158600000Y-111700000D02*
X160087500Y-110212500D01*
X158510570Y-111700000D02*
X158600000Y-111700000D01*
X141100000Y-115900000D02*
X140900000Y-115900000D01*
X153200000Y-107800000D02*
X154610570Y-107800000D01*
D13*
%TO.N,Button_R*%
X158400000Y-114800000D02*
X162500000Y-110700000D01*
X153400000Y-118716636D02*
X157316636Y-114800000D01*
X153400000Y-118900000D02*
X153400000Y-118716636D01*
X157316636Y-114800000D02*
X158400000Y-114800000D01*
%TO.N,CHRG_STM*%
X144400000Y-113900000D02*
X144400000Y-113000000D01*
X149700000Y-118400000D02*
X148900000Y-118400000D01*
X151800000Y-116300000D02*
X149700000Y-118400000D01*
X148900000Y-118400000D02*
X144400000Y-113900000D01*
X152300000Y-116300000D02*
X151800000Y-116300000D01*
D11*
%TO.N,DONE_STM*%
X153900000Y-119200000D02*
X153900000Y-118800000D01*
X141500000Y-100500000D02*
X138100000Y-103900000D01*
X143800000Y-114251023D02*
X149048977Y-119500000D01*
X146400000Y-100500000D02*
X141500000Y-100500000D01*
X143800000Y-112600000D02*
X143800000Y-114251023D01*
X138100000Y-103900000D02*
X138100000Y-106900000D01*
X149048977Y-119500000D02*
X153600000Y-119500000D01*
X153600000Y-119500000D02*
X153900000Y-119200000D01*
X138100000Y-106900000D02*
X143800000Y-112600000D01*
D13*
%TO.N,SCL_LIGHT*%
X149300000Y-109200000D02*
X149800000Y-109700000D01*
X149800000Y-109700000D02*
X149800000Y-114500000D01*
X149300000Y-109100000D02*
X149300000Y-109200000D01*
X149800000Y-114500000D02*
X151200000Y-115900000D01*
D11*
%TO.N,SDA_LIGHT*%
X149200000Y-110200000D02*
X148700000Y-109700000D01*
X149700000Y-117600000D02*
X149200000Y-117100000D01*
X149200000Y-117100000D02*
X149200000Y-110200000D01*
%TO.N,Row2*%
X151000000Y-108600000D02*
X151000000Y-106900000D01*
X140100000Y-102600000D02*
X144500000Y-102600000D01*
X139400000Y-103300000D02*
X140100000Y-102600000D01*
X151600000Y-109200000D02*
X151000000Y-108600000D01*
D13*
%TO.N,Row3*%
X150587500Y-109012500D02*
X149575000Y-108000000D01*
D11*
X153500000Y-104000000D02*
X153200000Y-103700000D01*
X153300000Y-103600000D02*
X153200000Y-103700000D01*
X152100000Y-102600000D02*
X151200000Y-102600000D01*
D13*
X149575000Y-108000000D02*
X148700000Y-108000000D01*
D11*
X153500000Y-106018719D02*
X153500000Y-104000000D01*
X156600000Y-103600000D02*
X153300000Y-103600000D01*
X152118719Y-107400000D02*
X153500000Y-106018719D01*
X153200000Y-103700000D02*
X152100000Y-102600000D01*
X152000000Y-107400000D02*
X152118719Y-107400000D01*
%TO.N,Row4*%
X151800000Y-107900000D02*
X151500000Y-107600000D01*
X152100000Y-106800000D02*
X151862500Y-106562500D01*
X151862500Y-106562500D02*
X151862500Y-104562500D01*
X153330000Y-107370000D02*
X153021888Y-107370000D01*
X152575000Y-104000000D02*
X152625000Y-103950000D01*
X154250000Y-106450000D02*
X154700000Y-106000000D01*
X151300000Y-104000000D02*
X152575000Y-104000000D01*
X152491888Y-107900000D02*
X151800000Y-107900000D01*
X151800000Y-106800000D02*
X152100000Y-106800000D01*
X153021888Y-107370000D02*
X152491888Y-107900000D01*
X151862500Y-104562500D02*
X151300000Y-104000000D01*
X151500000Y-107600000D02*
X151500000Y-107100000D01*
X151500000Y-107100000D02*
X151800000Y-106800000D01*
X154250000Y-106450000D02*
X153330000Y-107370000D01*
X154700000Y-106000000D02*
X156950000Y-106000000D01*
%TO.N,Row5*%
X155650000Y-102000000D02*
X156250000Y-102600000D01*
X150700000Y-102200000D02*
X150900000Y-102000000D01*
X145300000Y-104100000D02*
X147100000Y-105900000D01*
X150700000Y-105600000D02*
X150700000Y-102200000D01*
X147100000Y-105900000D02*
X151000000Y-105900000D01*
X151000000Y-105900000D02*
X150700000Y-105600000D01*
X150900000Y-102000000D02*
X155650000Y-102000000D01*
%TO.N,Row6*%
X145200000Y-105500000D02*
X140200000Y-105500000D01*
X140200000Y-105500000D02*
X139700000Y-106000000D01*
X145700000Y-106000000D02*
X145200000Y-105500000D01*
%TO.N,Net-(D45-A)*%
X148100000Y-96900000D02*
X151700000Y-93300000D01*
D13*
%TO.N,Buzzer*%
X154200000Y-108400000D02*
X159000000Y-113200000D01*
X153600000Y-108400000D02*
X154200000Y-108400000D01*
X159000000Y-113600000D02*
X158645000Y-113955000D01*
X158645000Y-113955000D02*
X157545000Y-113955000D01*
X154700000Y-116800000D02*
X152100000Y-116800000D01*
X159000000Y-113200000D02*
X159000000Y-113600000D01*
X157545000Y-113955000D02*
X154700000Y-116800000D01*
%TD*%
%TA.AperFunction,Conductor*%
%TO.N,+3.3V*%
G36*
X161737546Y-102499916D02*
G01*
X161745794Y-102503398D01*
X161749166Y-102511694D01*
X161749138Y-102512425D01*
X161744866Y-102574041D01*
X161744581Y-102575921D01*
X161732513Y-102627014D01*
X161732240Y-102627980D01*
X161717602Y-102672492D01*
X161717602Y-102672493D01*
X161705199Y-102725005D01*
X161700755Y-102789109D01*
X161696764Y-102797126D01*
X161689083Y-102800000D01*
X161510917Y-102800000D01*
X161502644Y-102796573D01*
X161499245Y-102789109D01*
X161494800Y-102725005D01*
X161494800Y-102725004D01*
X161482400Y-102672502D01*
X161467759Y-102627980D01*
X161467486Y-102627014D01*
X161466315Y-102622056D01*
X161455416Y-102575912D01*
X161455134Y-102574051D01*
X161450861Y-102512423D01*
X161453707Y-102503935D01*
X161461724Y-102499944D01*
X161462424Y-102499917D01*
X161600000Y-102499000D01*
X161737546Y-102499916D01*
G37*
%TD.AperFunction*%
%TD*%
%TA.AperFunction,Conductor*%
%TO.N,+3.3V*%
G36*
X157549140Y-109624877D02*
G01*
X157675122Y-109750859D01*
X157678549Y-109759132D01*
X157675675Y-109766813D01*
X157633486Y-109815287D01*
X157605140Y-109861164D01*
X157605121Y-109861198D01*
X157583995Y-109903025D01*
X157583505Y-109903900D01*
X157555920Y-109948544D01*
X157554793Y-109950075D01*
X157514243Y-109996669D01*
X157506227Y-110000660D01*
X157497736Y-109997814D01*
X157497199Y-109997316D01*
X157399348Y-109900761D01*
X157399238Y-109900651D01*
X157302682Y-109802799D01*
X157299310Y-109794503D01*
X157302792Y-109786253D01*
X157303309Y-109785774D01*
X157349928Y-109745199D01*
X157351439Y-109744086D01*
X157396111Y-109716484D01*
X157396959Y-109716008D01*
X157438821Y-109694866D01*
X157484713Y-109666510D01*
X157533187Y-109624323D01*
X157541676Y-109621478D01*
X157549140Y-109624877D01*
G37*
%TD.AperFunction*%
%TD*%
%TA.AperFunction,Conductor*%
%TO.N,/NRST*%
G36*
X157752501Y-113001006D02*
G01*
X157803993Y-113005113D01*
X157806126Y-113005486D01*
X157849963Y-113017449D01*
X157851033Y-113017797D01*
X157889366Y-113032400D01*
X157934804Y-113044800D01*
X157989302Y-113049146D01*
X157997276Y-113053220D01*
X158000071Y-113060731D01*
X158000967Y-113195076D01*
X157997595Y-113203372D01*
X157997501Y-113203466D01*
X157902699Y-113297382D01*
X157894410Y-113300770D01*
X157886153Y-113297304D01*
X157885739Y-113296864D01*
X157861711Y-113269882D01*
X157861289Y-113269380D01*
X157838075Y-113240165D01*
X157838073Y-113240163D01*
X157815462Y-113218290D01*
X157815460Y-113218289D01*
X157815458Y-113218287D01*
X157785465Y-113204682D01*
X157750386Y-113201079D01*
X157742506Y-113196825D01*
X157739881Y-113189440D01*
X157739881Y-113012670D01*
X157743308Y-113004397D01*
X157751581Y-113000970D01*
X157752501Y-113001006D01*
G37*
%TD.AperFunction*%
%TD*%
%TA.AperFunction,Conductor*%
%TO.N,/NRST*%
G36*
X151097713Y-114943308D02*
G01*
X151101079Y-114950386D01*
X151104682Y-114985463D01*
X151104682Y-114985467D01*
X151118287Y-115015458D01*
X151118289Y-115015460D01*
X151118290Y-115015462D01*
X151140163Y-115038073D01*
X151140165Y-115038075D01*
X151169380Y-115061289D01*
X151169882Y-115061711D01*
X151196851Y-115085728D01*
X151200750Y-115093788D01*
X151197808Y-115102246D01*
X151197382Y-115102699D01*
X151103466Y-115197501D01*
X151095209Y-115200967D01*
X151095076Y-115200967D01*
X150960731Y-115200071D01*
X150952481Y-115196589D01*
X150949146Y-115189302D01*
X150944800Y-115134804D01*
X150932399Y-115089366D01*
X150917797Y-115051033D01*
X150917447Y-115049955D01*
X150914205Y-115038075D01*
X150905486Y-115006126D01*
X150905113Y-115003993D01*
X150901007Y-114952510D01*
X150903765Y-114943992D01*
X150911740Y-114939918D01*
X150912670Y-114939881D01*
X151089440Y-114939881D01*
X151097713Y-114943308D01*
G37*
%TD.AperFunction*%
%TD*%
%TA.AperFunction,Conductor*%
%TO.N,Button_LT*%
G36*
X151025950Y-111884538D02*
G01*
X151026215Y-111884795D01*
X151117061Y-111975641D01*
X151120488Y-111983914D01*
X151118618Y-111990260D01*
X151096705Y-112024204D01*
X151099496Y-112060857D01*
X151099497Y-112060861D01*
X151118389Y-112098258D01*
X151118484Y-112098451D01*
X151139127Y-112141255D01*
X151140108Y-112144289D01*
X151147571Y-112186320D01*
X151145643Y-112195064D01*
X151138096Y-112199885D01*
X151136106Y-112200065D01*
X151001687Y-112200695D01*
X150997088Y-112199777D01*
X150871960Y-112147040D01*
X150865667Y-112140669D01*
X150865623Y-112131958D01*
X150889876Y-112070602D01*
X150910292Y-112019195D01*
X150910770Y-112018148D01*
X150932093Y-111976926D01*
X150933082Y-111975341D01*
X150964782Y-111932710D01*
X150965629Y-111931699D01*
X151009413Y-111885059D01*
X151017573Y-111881374D01*
X151025950Y-111884538D01*
G37*
%TD.AperFunction*%
%TD*%
%TA.AperFunction,Conductor*%
%TO.N,Button_LT*%
G36*
X140168135Y-98066076D02*
G01*
X140182505Y-98072315D01*
X140215080Y-98086457D01*
X140256717Y-98104523D01*
X140256723Y-98104525D01*
X140256730Y-98104528D01*
X140293799Y-98116439D01*
X140293800Y-98116439D01*
X140293803Y-98116440D01*
X140310504Y-98118931D01*
X140337739Y-98122994D01*
X140388677Y-98124635D01*
X140396835Y-98128327D01*
X140400000Y-98136329D01*
X140400000Y-98263670D01*
X140396573Y-98271943D01*
X140388677Y-98275364D01*
X140337742Y-98277004D01*
X140337733Y-98277005D01*
X140293801Y-98283559D01*
X140293799Y-98283559D01*
X140256735Y-98295468D01*
X140256718Y-98295474D01*
X140215080Y-98313542D01*
X140168251Y-98333872D01*
X140159298Y-98334023D01*
X140152860Y-98327799D01*
X140152810Y-98327684D01*
X140146850Y-98313542D01*
X140100913Y-98204541D01*
X140100859Y-98195589D01*
X140100862Y-98195581D01*
X140152811Y-98072313D01*
X140159181Y-98066022D01*
X140168135Y-98066076D01*
G37*
%TD.AperFunction*%
%TD*%
%TA.AperFunction,Conductor*%
%TO.N,Button_R*%
G36*
X162372349Y-110647046D02*
G01*
X162388445Y-110653598D01*
X162496139Y-110697434D01*
X162502510Y-110703727D01*
X162502565Y-110703860D01*
X162552944Y-110827628D01*
X162552889Y-110836583D01*
X162546518Y-110842876D01*
X162546401Y-110842922D01*
X162498912Y-110861660D01*
X162498912Y-110861661D01*
X162485112Y-110867109D01*
X162456682Y-110878332D01*
X162456671Y-110878337D01*
X162422053Y-110896119D01*
X162422048Y-110896123D01*
X162386350Y-110922552D01*
X162386337Y-110922563D01*
X162349164Y-110957415D01*
X162340785Y-110960574D01*
X162332889Y-110957153D01*
X162242845Y-110867109D01*
X162239418Y-110858836D01*
X162242582Y-110850835D01*
X162277441Y-110813655D01*
X162303876Y-110777950D01*
X162321666Y-110743316D01*
X162338338Y-110701087D01*
X162357077Y-110653597D01*
X162363301Y-110647160D01*
X162372254Y-110647009D01*
X162372349Y-110647046D01*
G37*
%TD.AperFunction*%
%TD*%
%TA.AperFunction,Conductor*%
%TO.N,Button_R*%
G36*
X153437713Y-118589403D02*
G01*
X153437838Y-118589526D01*
X153528699Y-118680387D01*
X153532126Y-118688660D01*
X153530137Y-118695185D01*
X153508056Y-118728045D01*
X153508055Y-118728047D01*
X153508029Y-118763964D01*
X153523170Y-118800718D01*
X153540712Y-118842855D01*
X153541470Y-118845542D01*
X153547893Y-118886553D01*
X153545788Y-118895256D01*
X153538144Y-118899922D01*
X153536389Y-118900063D01*
X153401687Y-118900695D01*
X153397088Y-118899777D01*
X153272137Y-118847114D01*
X153265844Y-118840743D01*
X153265872Y-118831852D01*
X153291090Y-118771034D01*
X153291274Y-118770616D01*
X153310967Y-118728047D01*
X153314310Y-118720820D01*
X153314971Y-118719591D01*
X153339525Y-118679976D01*
X153340480Y-118678654D01*
X153375205Y-118637061D01*
X153375772Y-118636431D01*
X153421172Y-118589649D01*
X153429389Y-118586100D01*
X153437713Y-118589403D01*
G37*
%TD.AperFunction*%
%TD*%
%TA.AperFunction,Conductor*%
%TO.N,CHRG_STM*%
G36*
X144527684Y-113052810D02*
G01*
X144533977Y-113059181D01*
X144533922Y-113068136D01*
X144533872Y-113068251D01*
X144513541Y-113115079D01*
X144513542Y-113115080D01*
X144495474Y-113156718D01*
X144495468Y-113156735D01*
X144483559Y-113193799D01*
X144483559Y-113193801D01*
X144477005Y-113237733D01*
X144477005Y-113237742D01*
X144475365Y-113288677D01*
X144471674Y-113296835D01*
X144463671Y-113300000D01*
X144336329Y-113300000D01*
X144328056Y-113296573D01*
X144324635Y-113288677D01*
X144322994Y-113237745D01*
X144322994Y-113237742D01*
X144322994Y-113237739D01*
X144316439Y-113193799D01*
X144304528Y-113156730D01*
X144304523Y-113156718D01*
X144304523Y-113156717D01*
X144286457Y-113115080D01*
X144286457Y-113115079D01*
X144266127Y-113068251D01*
X144265976Y-113059298D01*
X144272200Y-113052860D01*
X144272266Y-113052831D01*
X144395458Y-113000913D01*
X144404411Y-113000859D01*
X144527684Y-113052810D01*
G37*
%TD.AperFunction*%
%TD*%
%TA.AperFunction,Conductor*%
%TO.N,CHRG_STM*%
G36*
X152247139Y-116172200D02*
G01*
X152247189Y-116172315D01*
X152299085Y-116295456D01*
X152299140Y-116304411D01*
X152299085Y-116304544D01*
X152247189Y-116427684D01*
X152240818Y-116433977D01*
X152231863Y-116433922D01*
X152231748Y-116433872D01*
X152184919Y-116413542D01*
X152143280Y-116395474D01*
X152143263Y-116395468D01*
X152106197Y-116383559D01*
X152062268Y-116377006D01*
X152062253Y-116377004D01*
X152011323Y-116375364D01*
X152003165Y-116371672D01*
X152000000Y-116363670D01*
X152000000Y-116236329D01*
X152003427Y-116228056D01*
X152011322Y-116224635D01*
X152062260Y-116222994D01*
X152095671Y-116218009D01*
X152106194Y-116216440D01*
X152106195Y-116216439D01*
X152106199Y-116216439D01*
X152143269Y-116204528D01*
X152143281Y-116204523D01*
X152184919Y-116186457D01*
X152203608Y-116178343D01*
X152231749Y-116166126D01*
X152240701Y-116165976D01*
X152247139Y-116172200D01*
G37*
%TD.AperFunction*%
%TD*%
%TA.AperFunction,Conductor*%
%TO.N,DONE_STM*%
G36*
X154037546Y-118799916D02*
G01*
X154045794Y-118803398D01*
X154049166Y-118811694D01*
X154049138Y-118812425D01*
X154044866Y-118874040D01*
X154044581Y-118875921D01*
X154032514Y-118927007D01*
X154032242Y-118927971D01*
X154017599Y-118972503D01*
X154005199Y-119025005D01*
X154000755Y-119089109D01*
X153996764Y-119097126D01*
X153989083Y-119100000D01*
X153810917Y-119100000D01*
X153802644Y-119096573D01*
X153799245Y-119089109D01*
X153794800Y-119025005D01*
X153794800Y-119025004D01*
X153782399Y-118972502D01*
X153767756Y-118927970D01*
X153767484Y-118927007D01*
X153755416Y-118875912D01*
X153755134Y-118874051D01*
X153750861Y-118812423D01*
X153753707Y-118803935D01*
X153761724Y-118799944D01*
X153762424Y-118799917D01*
X153900000Y-118799000D01*
X154037546Y-118799916D01*
G37*
%TD.AperFunction*%
%TD*%
%TA.AperFunction,Conductor*%
%TO.N,DONE_STM*%
G36*
X146396064Y-100353707D02*
G01*
X146400055Y-100361724D01*
X146400083Y-100362455D01*
X146400999Y-100499922D01*
X146400999Y-100500078D01*
X146400083Y-100637544D01*
X146396601Y-100645794D01*
X146388305Y-100649166D01*
X146387574Y-100649138D01*
X146325957Y-100644866D01*
X146324077Y-100644581D01*
X146272984Y-100632513D01*
X146272018Y-100632240D01*
X146227506Y-100617602D01*
X146174993Y-100605199D01*
X146110891Y-100600755D01*
X146102874Y-100596764D01*
X146100000Y-100589083D01*
X146100000Y-100410916D01*
X146103427Y-100402643D01*
X146110888Y-100399244D01*
X146174995Y-100394800D01*
X146227497Y-100382400D01*
X146272021Y-100367757D01*
X146272980Y-100367486D01*
X146324088Y-100355416D01*
X146325945Y-100355134D01*
X146387575Y-100350861D01*
X146396064Y-100353707D01*
G37*
%TD.AperFunction*%
%TD*%
%TA.AperFunction,Conductor*%
%TO.N,SCL_LIGHT*%
G36*
X149435207Y-109047670D02*
G01*
X149441500Y-109054041D01*
X149441976Y-109055469D01*
X149454938Y-109104625D01*
X149455325Y-109107565D01*
X149455505Y-109156462D01*
X149455493Y-109157024D01*
X149453545Y-109200864D01*
X149453546Y-109200868D01*
X149463844Y-109244773D01*
X149463844Y-109244774D01*
X149463845Y-109244775D01*
X149494809Y-109286634D01*
X149496974Y-109295323D01*
X149493676Y-109301865D01*
X149402958Y-109392583D01*
X149394685Y-109396010D01*
X149386465Y-109392636D01*
X149345355Y-109352052D01*
X149309779Y-109317981D01*
X149278920Y-109288912D01*
X149278850Y-109288846D01*
X149243346Y-109254844D01*
X149243218Y-109254720D01*
X149202258Y-109214283D01*
X149198778Y-109206032D01*
X149202149Y-109197740D01*
X149297604Y-109101003D01*
X149301517Y-109098387D01*
X149426253Y-109047615D01*
X149435207Y-109047670D01*
G37*
%TD.AperFunction*%
%TD*%
%TA.AperFunction,Conductor*%
%TO.N,SCL_LIGHT*%
G36*
X151049165Y-115642583D02*
G01*
X151086337Y-115677435D01*
X151086350Y-115677446D01*
X151110709Y-115695480D01*
X151122049Y-115703876D01*
X151156683Y-115721666D01*
X151198912Y-115738338D01*
X151246401Y-115757077D01*
X151252839Y-115763301D01*
X151252990Y-115772254D01*
X151252944Y-115772371D01*
X151202565Y-115896139D01*
X151196272Y-115902510D01*
X151196139Y-115902565D01*
X151072371Y-115952944D01*
X151063416Y-115952889D01*
X151057123Y-115946518D01*
X151057077Y-115946401D01*
X151038338Y-115898912D01*
X151021666Y-115856683D01*
X151003876Y-115822049D01*
X150995480Y-115810709D01*
X150977446Y-115786350D01*
X150977435Y-115786337D01*
X150942583Y-115749165D01*
X150939424Y-115740786D01*
X150942844Y-115732891D01*
X151032891Y-115642844D01*
X151041163Y-115639418D01*
X151049165Y-115642583D01*
G37*
%TD.AperFunction*%
%TD*%
%TA.AperFunction,Conductor*%
%TO.N,SDA_LIGHT*%
G36*
X148813745Y-109602793D02*
G01*
X148814243Y-109603330D01*
X148854793Y-109649922D01*
X148855920Y-109651453D01*
X148883505Y-109696098D01*
X148883995Y-109696973D01*
X148905129Y-109738815D01*
X148905137Y-109738830D01*
X148933486Y-109784710D01*
X148933488Y-109784713D01*
X148975675Y-109833186D01*
X148978521Y-109841676D01*
X148975122Y-109849140D01*
X148849140Y-109975122D01*
X148840867Y-109978549D01*
X148833186Y-109975675D01*
X148832551Y-109975122D01*
X148784713Y-109933488D01*
X148784710Y-109933486D01*
X148738830Y-109905137D01*
X148738815Y-109905129D01*
X148696973Y-109883995D01*
X148696098Y-109883505D01*
X148651453Y-109855920D01*
X148649922Y-109854793D01*
X148603330Y-109814243D01*
X148599339Y-109806226D01*
X148602185Y-109797736D01*
X148602674Y-109797208D01*
X148699293Y-109699293D01*
X148797199Y-109602682D01*
X148805495Y-109599311D01*
X148813745Y-109602793D01*
G37*
%TD.AperFunction*%
%TD*%
%TA.AperFunction,Conductor*%
%TO.N,SDA_LIGHT*%
G36*
X149566812Y-117324323D02*
G01*
X149615285Y-117366510D01*
X149661178Y-117394866D01*
X149703029Y-117416003D01*
X149703900Y-117416492D01*
X149748544Y-117444077D01*
X149750075Y-117445204D01*
X149796669Y-117485756D01*
X149800660Y-117493773D01*
X149797814Y-117502263D01*
X149797316Y-117502800D01*
X149700761Y-117600651D01*
X149700651Y-117600761D01*
X149602800Y-117697316D01*
X149594504Y-117700688D01*
X149586254Y-117697206D01*
X149585756Y-117696669D01*
X149545204Y-117650075D01*
X149544077Y-117648544D01*
X149516492Y-117603900D01*
X149516001Y-117603025D01*
X149514858Y-117600761D01*
X149494866Y-117561178D01*
X149466510Y-117515285D01*
X149424323Y-117466812D01*
X149421478Y-117458323D01*
X149424876Y-117450860D01*
X149550860Y-117324876D01*
X149559132Y-117321450D01*
X149566812Y-117324323D01*
G37*
%TD.AperFunction*%
%TD*%
%TA.AperFunction,Conductor*%
%TO.N,Row2*%
G36*
X151137546Y-106899916D02*
G01*
X151145794Y-106903398D01*
X151149166Y-106911694D01*
X151149138Y-106912425D01*
X151144866Y-106974040D01*
X151144581Y-106975921D01*
X151132514Y-107027007D01*
X151132242Y-107027971D01*
X151117599Y-107072503D01*
X151105199Y-107125005D01*
X151100755Y-107189109D01*
X151096764Y-107197126D01*
X151089083Y-107200000D01*
X150910917Y-107200000D01*
X150902644Y-107196573D01*
X150899245Y-107189109D01*
X150894800Y-107125005D01*
X150894800Y-107125004D01*
X150882399Y-107072502D01*
X150867756Y-107027970D01*
X150867484Y-107027007D01*
X150855416Y-106975912D01*
X150855134Y-106974051D01*
X150850861Y-106912423D01*
X150853707Y-106903935D01*
X150861724Y-106899944D01*
X150862424Y-106899917D01*
X151000000Y-106899000D01*
X151137546Y-106899916D01*
G37*
%TD.AperFunction*%
%TD*%
%TA.AperFunction,Conductor*%
%TO.N,Row2*%
G36*
X144496064Y-102453707D02*
G01*
X144500055Y-102461724D01*
X144500083Y-102462455D01*
X144500999Y-102599922D01*
X144500999Y-102600078D01*
X144500083Y-102737544D01*
X144496601Y-102745794D01*
X144488305Y-102749166D01*
X144487574Y-102749138D01*
X144425957Y-102744866D01*
X144424077Y-102744581D01*
X144372984Y-102732513D01*
X144372018Y-102732240D01*
X144327506Y-102717602D01*
X144274993Y-102705199D01*
X144210891Y-102700755D01*
X144202874Y-102696764D01*
X144200000Y-102689083D01*
X144200000Y-102510916D01*
X144203427Y-102502643D01*
X144210888Y-102499244D01*
X144274995Y-102494800D01*
X144327497Y-102482400D01*
X144372021Y-102467757D01*
X144372980Y-102467486D01*
X144424088Y-102455416D01*
X144425945Y-102455134D01*
X144487575Y-102450861D01*
X144496064Y-102453707D01*
G37*
%TD.AperFunction*%
%TD*%
%TA.AperFunction,Conductor*%
%TO.N,Row2*%
G36*
X139549140Y-103024877D02*
G01*
X139675122Y-103150859D01*
X139678549Y-103159132D01*
X139675675Y-103166813D01*
X139633486Y-103215287D01*
X139605140Y-103261164D01*
X139605121Y-103261198D01*
X139583995Y-103303025D01*
X139583505Y-103303900D01*
X139555920Y-103348544D01*
X139554793Y-103350075D01*
X139514243Y-103396669D01*
X139506227Y-103400660D01*
X139497736Y-103397814D01*
X139497199Y-103397316D01*
X139399348Y-103300761D01*
X139399238Y-103300651D01*
X139302682Y-103202799D01*
X139299310Y-103194503D01*
X139302792Y-103186253D01*
X139303309Y-103185774D01*
X139349928Y-103145199D01*
X139351439Y-103144086D01*
X139396111Y-103116484D01*
X139396959Y-103116008D01*
X139438821Y-103094866D01*
X139484713Y-103066510D01*
X139533187Y-103024323D01*
X139541676Y-103021478D01*
X139549140Y-103024877D01*
G37*
%TD.AperFunction*%
%TD*%
%TA.AperFunction,Conductor*%
%TO.N,Row2*%
G36*
X151466812Y-108924323D02*
G01*
X151515285Y-108966510D01*
X151561178Y-108994866D01*
X151603029Y-109016003D01*
X151603900Y-109016492D01*
X151648544Y-109044077D01*
X151650075Y-109045204D01*
X151696669Y-109085756D01*
X151700660Y-109093773D01*
X151697814Y-109102263D01*
X151697316Y-109102800D01*
X151600761Y-109200651D01*
X151600651Y-109200761D01*
X151502800Y-109297316D01*
X151494504Y-109300688D01*
X151486254Y-109297206D01*
X151485756Y-109296669D01*
X151445204Y-109250075D01*
X151444077Y-109248544D01*
X151416492Y-109203900D01*
X151416001Y-109203025D01*
X151414858Y-109200761D01*
X151394866Y-109161178D01*
X151366510Y-109115285D01*
X151324323Y-109066812D01*
X151321478Y-109058323D01*
X151324876Y-109050860D01*
X151450860Y-108924876D01*
X151459132Y-108921450D01*
X151466812Y-108924323D01*
G37*
%TD.AperFunction*%
%TD*%
%TA.AperFunction,Conductor*%
%TO.N,Row3*%
G36*
X150436665Y-108755083D02*
G01*
X150473837Y-108789935D01*
X150473850Y-108789946D01*
X150498209Y-108807980D01*
X150509549Y-108816376D01*
X150544183Y-108834166D01*
X150586412Y-108850838D01*
X150633901Y-108869577D01*
X150640339Y-108875801D01*
X150640490Y-108884754D01*
X150640444Y-108884871D01*
X150590065Y-109008639D01*
X150583772Y-109015010D01*
X150583639Y-109015065D01*
X150459871Y-109065444D01*
X150450916Y-109065389D01*
X150444623Y-109059018D01*
X150444577Y-109058901D01*
X150425838Y-109011412D01*
X150409166Y-108969183D01*
X150391376Y-108934549D01*
X150382980Y-108923209D01*
X150364946Y-108898850D01*
X150364935Y-108898837D01*
X150330083Y-108861665D01*
X150326924Y-108853286D01*
X150330344Y-108845391D01*
X150420391Y-108755344D01*
X150428663Y-108751918D01*
X150436665Y-108755083D01*
G37*
%TD.AperFunction*%
%TD*%
%TA.AperFunction,Conductor*%
%TO.N,Row3*%
G36*
X151212408Y-102450860D02*
G01*
X151274051Y-102455134D01*
X151275912Y-102455416D01*
X151322056Y-102466315D01*
X151327014Y-102467486D01*
X151327980Y-102467759D01*
X151372492Y-102482397D01*
X151372495Y-102482397D01*
X151372502Y-102482400D01*
X151425004Y-102494800D01*
X151489110Y-102499244D01*
X151497126Y-102503235D01*
X151500000Y-102510916D01*
X151500000Y-102689083D01*
X151496573Y-102697356D01*
X151489109Y-102700755D01*
X151425005Y-102705199D01*
X151372493Y-102717602D01*
X151372492Y-102717602D01*
X151327980Y-102732240D01*
X151327014Y-102732513D01*
X151275921Y-102744581D01*
X151274041Y-102744866D01*
X151212425Y-102749138D01*
X151203935Y-102746292D01*
X151199944Y-102738275D01*
X151199917Y-102737574D01*
X151199000Y-102600000D01*
X151199916Y-102462452D01*
X151203398Y-102454205D01*
X151211694Y-102450833D01*
X151212408Y-102450860D01*
G37*
%TD.AperFunction*%
%TD*%
%TA.AperFunction,Conductor*%
%TO.N,Row3*%
G36*
X148768135Y-107866076D02*
G01*
X148782505Y-107872315D01*
X148815080Y-107886457D01*
X148856717Y-107904523D01*
X148856723Y-107904525D01*
X148856730Y-107904528D01*
X148893799Y-107916439D01*
X148893800Y-107916439D01*
X148893803Y-107916440D01*
X148910504Y-107918931D01*
X148937739Y-107922994D01*
X148988677Y-107924635D01*
X148996835Y-107928327D01*
X149000000Y-107936329D01*
X149000000Y-108063670D01*
X148996573Y-108071943D01*
X148988677Y-108075364D01*
X148937742Y-108077004D01*
X148937733Y-108077005D01*
X148893801Y-108083559D01*
X148893799Y-108083559D01*
X148856735Y-108095468D01*
X148856718Y-108095474D01*
X148815080Y-108113542D01*
X148768251Y-108133872D01*
X148759298Y-108134023D01*
X148752860Y-108127799D01*
X148752810Y-108127684D01*
X148746850Y-108113542D01*
X148700913Y-108004541D01*
X148700859Y-107995589D01*
X148700862Y-107995581D01*
X148752811Y-107872313D01*
X148759181Y-107866022D01*
X148768135Y-107866076D01*
G37*
%TD.AperFunction*%
%TD*%
%TA.AperFunction,Conductor*%
%TO.N,Row3*%
G36*
X156596064Y-103453707D02*
G01*
X156600055Y-103461724D01*
X156600083Y-103462455D01*
X156600999Y-103599922D01*
X156600999Y-103600078D01*
X156600083Y-103737544D01*
X156596601Y-103745794D01*
X156588305Y-103749166D01*
X156587574Y-103749138D01*
X156525957Y-103744866D01*
X156524077Y-103744581D01*
X156472984Y-103732513D01*
X156472018Y-103732240D01*
X156427506Y-103717602D01*
X156374993Y-103705199D01*
X156310891Y-103700755D01*
X156302874Y-103696764D01*
X156300000Y-103689083D01*
X156300000Y-103510916D01*
X156303427Y-103502643D01*
X156310888Y-103499244D01*
X156374995Y-103494800D01*
X156427497Y-103482400D01*
X156472021Y-103467757D01*
X156472980Y-103467486D01*
X156524088Y-103455416D01*
X156525945Y-103455134D01*
X156587575Y-103450861D01*
X156596064Y-103453707D01*
G37*
%TD.AperFunction*%
%TD*%
%TA.AperFunction,Conductor*%
%TO.N,Row3*%
G36*
X152187357Y-107204325D02*
G01*
X152312868Y-107329836D01*
X152316295Y-107338109D01*
X152312868Y-107346382D01*
X152312424Y-107346803D01*
X152271917Y-107383281D01*
X152270791Y-107384177D01*
X152232130Y-107411200D01*
X152231485Y-107411619D01*
X152195838Y-107433194D01*
X152156270Y-107460852D01*
X152114262Y-107498684D01*
X152105821Y-107501674D01*
X152098214Y-107498318D01*
X152001005Y-107402396D01*
X151998386Y-107398479D01*
X151947569Y-107273633D01*
X151947624Y-107264678D01*
X151953995Y-107258385D01*
X151955306Y-107257941D01*
X152001275Y-107245366D01*
X152003984Y-107244958D01*
X152050061Y-107243511D01*
X152050462Y-107243506D01*
X152091693Y-107243788D01*
X152132958Y-107232710D01*
X152172043Y-107203253D01*
X152180712Y-107201012D01*
X152187357Y-107204325D01*
G37*
%TD.AperFunction*%
%TD*%
%TA.AperFunction,Conductor*%
%TO.N,Row4*%
G36*
X151966812Y-106524323D02*
G01*
X152015285Y-106566510D01*
X152061178Y-106594866D01*
X152103029Y-106616003D01*
X152103900Y-106616492D01*
X152148544Y-106644077D01*
X152150075Y-106645204D01*
X152196669Y-106685756D01*
X152200660Y-106693773D01*
X152197814Y-106702263D01*
X152197316Y-106702800D01*
X152100761Y-106800651D01*
X152100651Y-106800761D01*
X152002800Y-106897316D01*
X151994504Y-106900688D01*
X151986254Y-106897206D01*
X151985756Y-106896669D01*
X151945204Y-106850075D01*
X151944077Y-106848544D01*
X151916492Y-106803900D01*
X151916001Y-106803025D01*
X151914858Y-106800761D01*
X151894866Y-106761178D01*
X151866510Y-106715285D01*
X151824323Y-106666812D01*
X151821478Y-106658323D01*
X151824876Y-106650860D01*
X151950860Y-106524876D01*
X151959132Y-106521450D01*
X151966812Y-106524323D01*
G37*
%TD.AperFunction*%
%TD*%
%TA.AperFunction,Conductor*%
%TO.N,Row4*%
G36*
X154399140Y-106174877D02*
G01*
X154525122Y-106300859D01*
X154528549Y-106309132D01*
X154525675Y-106316813D01*
X154483486Y-106365287D01*
X154455140Y-106411164D01*
X154455121Y-106411198D01*
X154433995Y-106453025D01*
X154433505Y-106453900D01*
X154405920Y-106498544D01*
X154404793Y-106500075D01*
X154364243Y-106546669D01*
X154356227Y-106550660D01*
X154347736Y-106547814D01*
X154347199Y-106547316D01*
X154249348Y-106450761D01*
X154249238Y-106450651D01*
X154152682Y-106352799D01*
X154149310Y-106344503D01*
X154152792Y-106336253D01*
X154153309Y-106335774D01*
X154199928Y-106295199D01*
X154201439Y-106294086D01*
X154246111Y-106266484D01*
X154246959Y-106266008D01*
X154288821Y-106244866D01*
X154334713Y-106216510D01*
X154383187Y-106174323D01*
X154391676Y-106171478D01*
X154399140Y-106174877D01*
G37*
%TD.AperFunction*%
%TD*%
%TA.AperFunction,Conductor*%
%TO.N,Row4*%
G36*
X152572130Y-103822223D02*
G01*
X152572396Y-103822807D01*
X152625065Y-103947783D01*
X152625983Y-103952405D01*
X152625077Y-104088378D01*
X152621595Y-104096628D01*
X152613377Y-104100000D01*
X152553066Y-104100000D01*
X152502016Y-104100000D01*
X152457927Y-104100000D01*
X152406878Y-104100000D01*
X152346645Y-104100000D01*
X152338372Y-104096573D01*
X152334945Y-104088300D01*
X152334945Y-103910843D01*
X152338372Y-103902570D01*
X152345757Y-103899177D01*
X152352101Y-103898694D01*
X152395898Y-103895360D01*
X152437490Y-103882537D01*
X152471872Y-103863176D01*
X152510711Y-103839216D01*
X152511708Y-103838668D01*
X152556487Y-103816834D01*
X152565424Y-103816289D01*
X152572130Y-103822223D01*
G37*
%TD.AperFunction*%
%TD*%
%TA.AperFunction,Conductor*%
%TO.N,Row4*%
G36*
X151312408Y-103850860D02*
G01*
X151374051Y-103855134D01*
X151375912Y-103855416D01*
X151422056Y-103866315D01*
X151427014Y-103867486D01*
X151427980Y-103867759D01*
X151472492Y-103882397D01*
X151472495Y-103882397D01*
X151472502Y-103882400D01*
X151525004Y-103894800D01*
X151589110Y-103899244D01*
X151597126Y-103903235D01*
X151600000Y-103910916D01*
X151600000Y-104089083D01*
X151596573Y-104097356D01*
X151589109Y-104100755D01*
X151525005Y-104105199D01*
X151472493Y-104117602D01*
X151472492Y-104117602D01*
X151427980Y-104132240D01*
X151427014Y-104132513D01*
X151375921Y-104144581D01*
X151374041Y-104144866D01*
X151312425Y-104149138D01*
X151303935Y-104146292D01*
X151299944Y-104138275D01*
X151299917Y-104137574D01*
X151299000Y-104000000D01*
X151299916Y-103862452D01*
X151303398Y-103854205D01*
X151311694Y-103850833D01*
X151312408Y-103850860D01*
G37*
%TD.AperFunction*%
%TD*%
%TA.AperFunction,Conductor*%
%TO.N,Row4*%
G36*
X152096064Y-106653707D02*
G01*
X152100055Y-106661724D01*
X152100083Y-106662455D01*
X152100999Y-106799922D01*
X152100999Y-106800078D01*
X152100083Y-106937544D01*
X152096601Y-106945794D01*
X152088305Y-106949166D01*
X152087574Y-106949138D01*
X152025957Y-106944866D01*
X152024077Y-106944581D01*
X151972984Y-106932513D01*
X151972018Y-106932240D01*
X151927506Y-106917602D01*
X151874993Y-106905199D01*
X151810891Y-106900755D01*
X151802874Y-106896764D01*
X151800000Y-106889083D01*
X151800000Y-106710916D01*
X151803427Y-106702643D01*
X151810888Y-106699244D01*
X151874995Y-106694800D01*
X151927497Y-106682400D01*
X151972021Y-106667757D01*
X151972980Y-106667486D01*
X152024088Y-106655416D01*
X152025945Y-106655134D01*
X152087575Y-106650861D01*
X152096064Y-106653707D01*
G37*
%TD.AperFunction*%
%TD*%
%TA.AperFunction,Conductor*%
%TO.N,Row4*%
G36*
X151413745Y-103902793D02*
G01*
X151414243Y-103903330D01*
X151454793Y-103949922D01*
X151455920Y-103951453D01*
X151483505Y-103996098D01*
X151483995Y-103996973D01*
X151505129Y-104038815D01*
X151505137Y-104038830D01*
X151533486Y-104084710D01*
X151533488Y-104084713D01*
X151575675Y-104133186D01*
X151578521Y-104141676D01*
X151575122Y-104149140D01*
X151449140Y-104275122D01*
X151440867Y-104278549D01*
X151433186Y-104275675D01*
X151432551Y-104275122D01*
X151384713Y-104233488D01*
X151384710Y-104233486D01*
X151338830Y-104205137D01*
X151338815Y-104205129D01*
X151296973Y-104183995D01*
X151296098Y-104183505D01*
X151251453Y-104155920D01*
X151249922Y-104154793D01*
X151203330Y-104114243D01*
X151199339Y-104106226D01*
X151202185Y-104097736D01*
X151202674Y-104097208D01*
X151299293Y-103999293D01*
X151397199Y-103902682D01*
X151405495Y-103899311D01*
X151413745Y-103902793D01*
G37*
%TD.AperFunction*%
%TD*%
%TA.AperFunction,Conductor*%
%TO.N,Row4*%
G36*
X154152262Y-106352185D02*
G01*
X154152799Y-106352682D01*
X154250651Y-106449238D01*
X154250761Y-106449348D01*
X154347316Y-106547199D01*
X154350688Y-106555495D01*
X154347206Y-106563745D01*
X154346669Y-106564243D01*
X154300075Y-106604793D01*
X154298544Y-106605920D01*
X154253900Y-106633505D01*
X154253025Y-106633995D01*
X154211198Y-106655121D01*
X154211164Y-106655140D01*
X154165287Y-106683486D01*
X154116813Y-106725675D01*
X154108323Y-106728521D01*
X154100859Y-106725122D01*
X153974877Y-106599140D01*
X153971450Y-106590867D01*
X153974323Y-106583187D01*
X154016510Y-106534713D01*
X154044866Y-106488821D01*
X154066008Y-106446959D01*
X154066484Y-106446111D01*
X154094086Y-106401439D01*
X154095199Y-106399928D01*
X154135757Y-106353328D01*
X154143772Y-106349338D01*
X154152262Y-106352185D01*
G37*
%TD.AperFunction*%
%TD*%
%TA.AperFunction,Conductor*%
%TO.N,Row4*%
G36*
X156946064Y-105853707D02*
G01*
X156950055Y-105861724D01*
X156950083Y-105862455D01*
X156950999Y-105999922D01*
X156950999Y-106000078D01*
X156950083Y-106137544D01*
X156946601Y-106145794D01*
X156938305Y-106149166D01*
X156937574Y-106149138D01*
X156875957Y-106144866D01*
X156874077Y-106144581D01*
X156822984Y-106132513D01*
X156822018Y-106132240D01*
X156777506Y-106117602D01*
X156724993Y-106105199D01*
X156660891Y-106100755D01*
X156652874Y-106096764D01*
X156650000Y-106089083D01*
X156650000Y-105910916D01*
X156653427Y-105902643D01*
X156660888Y-105899244D01*
X156724995Y-105894800D01*
X156777497Y-105882400D01*
X156822021Y-105867757D01*
X156822980Y-105867486D01*
X156874088Y-105855416D01*
X156875945Y-105855134D01*
X156937575Y-105850861D01*
X156946064Y-105853707D01*
G37*
%TD.AperFunction*%
%TD*%
%TA.AperFunction,Conductor*%
%TO.N,Row5*%
G36*
X156116812Y-102324323D02*
G01*
X156165285Y-102366510D01*
X156211178Y-102394866D01*
X156253029Y-102416003D01*
X156253900Y-102416492D01*
X156298544Y-102444077D01*
X156300075Y-102445204D01*
X156346669Y-102485756D01*
X156350660Y-102493773D01*
X156347814Y-102502263D01*
X156347316Y-102502800D01*
X156250761Y-102600651D01*
X156250651Y-102600761D01*
X156152800Y-102697316D01*
X156144504Y-102700688D01*
X156136254Y-102697206D01*
X156135756Y-102696669D01*
X156095204Y-102650075D01*
X156094077Y-102648544D01*
X156066492Y-102603900D01*
X156066001Y-102603025D01*
X156064858Y-102600761D01*
X156044866Y-102561178D01*
X156016510Y-102515285D01*
X155974323Y-102466812D01*
X155971478Y-102458323D01*
X155974876Y-102450860D01*
X156100860Y-102324876D01*
X156109132Y-102321450D01*
X156116812Y-102324323D01*
G37*
%TD.AperFunction*%
%TD*%
%TA.AperFunction,Conductor*%
%TO.N,Row5*%
G36*
X145413745Y-104002793D02*
G01*
X145414243Y-104003330D01*
X145454793Y-104049922D01*
X145455920Y-104051453D01*
X145483505Y-104096098D01*
X145483995Y-104096973D01*
X145505129Y-104138815D01*
X145505137Y-104138830D01*
X145533486Y-104184710D01*
X145533488Y-104184713D01*
X145575675Y-104233186D01*
X145578521Y-104241676D01*
X145575122Y-104249140D01*
X145449140Y-104375122D01*
X145440867Y-104378549D01*
X145433186Y-104375675D01*
X145432551Y-104375122D01*
X145384713Y-104333488D01*
X145384710Y-104333486D01*
X145338830Y-104305137D01*
X145338815Y-104305129D01*
X145296973Y-104283995D01*
X145296098Y-104283505D01*
X145251453Y-104255920D01*
X145249922Y-104254793D01*
X145203330Y-104214243D01*
X145199339Y-104206226D01*
X145202185Y-104197736D01*
X145202674Y-104197208D01*
X145299293Y-104099293D01*
X145397199Y-104002682D01*
X145405495Y-103999311D01*
X145413745Y-104002793D01*
G37*
%TD.AperFunction*%
%TD*%
%TA.AperFunction,Conductor*%
%TO.N,Row5*%
G36*
X150996064Y-105753707D02*
G01*
X151000055Y-105761724D01*
X151000083Y-105762455D01*
X151000999Y-105899922D01*
X151000999Y-105900078D01*
X151000083Y-106037544D01*
X150996601Y-106045794D01*
X150988305Y-106049166D01*
X150987574Y-106049138D01*
X150925957Y-106044866D01*
X150924077Y-106044581D01*
X150872984Y-106032513D01*
X150872018Y-106032240D01*
X150827506Y-106017602D01*
X150774993Y-106005199D01*
X150710891Y-106000755D01*
X150702874Y-105996764D01*
X150700000Y-105989083D01*
X150700000Y-105810916D01*
X150703427Y-105802643D01*
X150710888Y-105799244D01*
X150774995Y-105794800D01*
X150827497Y-105782400D01*
X150872021Y-105767757D01*
X150872980Y-105767486D01*
X150924088Y-105755416D01*
X150925945Y-105755134D01*
X150987575Y-105750861D01*
X150996064Y-105753707D01*
G37*
%TD.AperFunction*%
%TD*%
%TA.AperFunction,Conductor*%
%TO.N,Row5*%
G36*
X150866812Y-105624323D02*
G01*
X150915285Y-105666510D01*
X150961178Y-105694866D01*
X151003029Y-105716003D01*
X151003900Y-105716492D01*
X151048544Y-105744077D01*
X151050075Y-105745204D01*
X151096669Y-105785756D01*
X151100660Y-105793773D01*
X151097814Y-105802263D01*
X151097316Y-105802800D01*
X151000761Y-105900651D01*
X151000651Y-105900761D01*
X150902800Y-105997316D01*
X150894504Y-106000688D01*
X150886254Y-105997206D01*
X150885756Y-105996669D01*
X150845204Y-105950075D01*
X150844077Y-105948544D01*
X150816492Y-105903900D01*
X150816001Y-105903025D01*
X150814858Y-105900761D01*
X150794866Y-105861178D01*
X150766510Y-105815285D01*
X150724323Y-105766812D01*
X150721478Y-105758323D01*
X150724876Y-105750860D01*
X150850860Y-105624876D01*
X150859132Y-105621450D01*
X150866812Y-105624323D01*
G37*
%TD.AperFunction*%
%TD*%
%TA.AperFunction,Conductor*%
%TO.N,Row6*%
G36*
X139849140Y-105724877D02*
G01*
X139975122Y-105850859D01*
X139978549Y-105859132D01*
X139975675Y-105866813D01*
X139933486Y-105915287D01*
X139905140Y-105961164D01*
X139905121Y-105961198D01*
X139883995Y-106003025D01*
X139883505Y-106003900D01*
X139855920Y-106048544D01*
X139854793Y-106050075D01*
X139814243Y-106096669D01*
X139806227Y-106100660D01*
X139797736Y-106097814D01*
X139797199Y-106097316D01*
X139699348Y-106000761D01*
X139699238Y-106000651D01*
X139602682Y-105902799D01*
X139599310Y-105894503D01*
X139602792Y-105886253D01*
X139603309Y-105885774D01*
X139649928Y-105845199D01*
X139651439Y-105844086D01*
X139696111Y-105816484D01*
X139696959Y-105816008D01*
X139738821Y-105794866D01*
X139784713Y-105766510D01*
X139833187Y-105724323D01*
X139841676Y-105721478D01*
X139849140Y-105724877D01*
G37*
%TD.AperFunction*%
%TD*%
%TA.AperFunction,Conductor*%
%TO.N,Row6*%
G36*
X145566812Y-105724323D02*
G01*
X145615285Y-105766510D01*
X145661178Y-105794866D01*
X145703029Y-105816003D01*
X145703900Y-105816492D01*
X145748544Y-105844077D01*
X145750075Y-105845204D01*
X145796669Y-105885756D01*
X145800660Y-105893773D01*
X145797814Y-105902263D01*
X145797316Y-105902800D01*
X145700761Y-106000651D01*
X145700651Y-106000761D01*
X145602800Y-106097316D01*
X145594504Y-106100688D01*
X145586254Y-106097206D01*
X145585756Y-106096669D01*
X145545204Y-106050075D01*
X145544077Y-106048544D01*
X145516492Y-106003900D01*
X145516001Y-106003025D01*
X145514858Y-106000761D01*
X145494866Y-105961178D01*
X145466510Y-105915285D01*
X145424323Y-105866812D01*
X145421478Y-105858323D01*
X145424876Y-105850860D01*
X145550860Y-105724876D01*
X145559132Y-105721450D01*
X145566812Y-105724323D01*
G37*
%TD.AperFunction*%
%TD*%
%TA.AperFunction,Conductor*%
%TO.N,Net-(D45-A)*%
G36*
X151602262Y-93202185D02*
G01*
X151602799Y-93202682D01*
X151700651Y-93299238D01*
X151700761Y-93299348D01*
X151797316Y-93397199D01*
X151800688Y-93405495D01*
X151797206Y-93413745D01*
X151796669Y-93414243D01*
X151750075Y-93454793D01*
X151748544Y-93455920D01*
X151703900Y-93483505D01*
X151703025Y-93483995D01*
X151661198Y-93505121D01*
X151661164Y-93505140D01*
X151615287Y-93533486D01*
X151566813Y-93575675D01*
X151558323Y-93578521D01*
X151550859Y-93575122D01*
X151424877Y-93449140D01*
X151421450Y-93440867D01*
X151424323Y-93433187D01*
X151466510Y-93384713D01*
X151494866Y-93338821D01*
X151516008Y-93296959D01*
X151516484Y-93296111D01*
X151544086Y-93251439D01*
X151545199Y-93249928D01*
X151585757Y-93203328D01*
X151593772Y-93199338D01*
X151602262Y-93202185D01*
G37*
%TD.AperFunction*%
%TD*%
%TA.AperFunction,Conductor*%
%TO.N,Net-(D45-A)*%
G36*
X148249140Y-96624877D02*
G01*
X148375122Y-96750859D01*
X148378549Y-96759132D01*
X148375675Y-96766813D01*
X148333486Y-96815287D01*
X148305140Y-96861164D01*
X148305121Y-96861198D01*
X148283995Y-96903025D01*
X148283505Y-96903900D01*
X148255920Y-96948544D01*
X148254793Y-96950075D01*
X148214243Y-96996669D01*
X148206227Y-97000660D01*
X148197736Y-96997814D01*
X148197199Y-96997316D01*
X148099348Y-96900761D01*
X148099238Y-96900651D01*
X148002682Y-96802799D01*
X147999310Y-96794503D01*
X148002792Y-96786253D01*
X148003309Y-96785774D01*
X148049928Y-96745199D01*
X148051439Y-96744086D01*
X148096111Y-96716484D01*
X148096959Y-96716008D01*
X148138821Y-96694866D01*
X148184713Y-96666510D01*
X148233187Y-96624323D01*
X148241676Y-96621478D01*
X148249140Y-96624877D01*
G37*
%TD.AperFunction*%
%TD*%
%TA.AperFunction,Conductor*%
%TO.N,Buzzer*%
G36*
X153668135Y-108266076D02*
G01*
X153682505Y-108272315D01*
X153715080Y-108286457D01*
X153756717Y-108304523D01*
X153756723Y-108304525D01*
X153756730Y-108304528D01*
X153793799Y-108316439D01*
X153793800Y-108316439D01*
X153793803Y-108316440D01*
X153810504Y-108318931D01*
X153837739Y-108322994D01*
X153888677Y-108324635D01*
X153896835Y-108328327D01*
X153900000Y-108336329D01*
X153900000Y-108463670D01*
X153896573Y-108471943D01*
X153888677Y-108475364D01*
X153837742Y-108477004D01*
X153837733Y-108477005D01*
X153793801Y-108483559D01*
X153793799Y-108483559D01*
X153756735Y-108495468D01*
X153756718Y-108495474D01*
X153715080Y-108513542D01*
X153668251Y-108533872D01*
X153659298Y-108534023D01*
X153652860Y-108527799D01*
X153652810Y-108527684D01*
X153646850Y-108513542D01*
X153600913Y-108404541D01*
X153600859Y-108395589D01*
X153600862Y-108395581D01*
X153652811Y-108272313D01*
X153659181Y-108266022D01*
X153668135Y-108266076D01*
G37*
%TD.AperFunction*%
%TD*%
%TA.AperFunction,Conductor*%
%TO.N,Buzzer*%
G36*
X152168135Y-116666076D02*
G01*
X152182505Y-116672315D01*
X152215080Y-116686457D01*
X152256717Y-116704523D01*
X152256723Y-116704525D01*
X152256730Y-116704528D01*
X152293799Y-116716439D01*
X152293800Y-116716439D01*
X152293803Y-116716440D01*
X152310504Y-116718931D01*
X152337739Y-116722994D01*
X152388677Y-116724635D01*
X152396835Y-116728327D01*
X152400000Y-116736329D01*
X152400000Y-116863670D01*
X152396573Y-116871943D01*
X152388677Y-116875364D01*
X152337742Y-116877004D01*
X152337733Y-116877005D01*
X152293801Y-116883559D01*
X152293799Y-116883559D01*
X152256735Y-116895468D01*
X152256718Y-116895474D01*
X152215080Y-116913542D01*
X152168251Y-116933872D01*
X152159298Y-116934023D01*
X152152860Y-116927799D01*
X152152810Y-116927684D01*
X152146850Y-116913542D01*
X152100913Y-116804541D01*
X152100859Y-116795589D01*
X152100862Y-116795581D01*
X152152811Y-116672313D01*
X152159181Y-116666022D01*
X152168135Y-116666076D01*
G37*
%TD.AperFunction*%
%TD*%
M02*
