%TF.GenerationSoftware,KiCad,Pcbnew,7.0.10-7.0.10~ubuntu22.04.1*%
%TF.CreationDate,2024-04-13T21:42:08+02:00*%
%TF.ProjectId,STM32_watch_NFC,53544d33-325f-4776-9174-63685f4e4643,rev?*%
%TF.SameCoordinates,PX6c3df60PY1312d00*%
%TF.FileFunction,Soldermask,Bot*%
%TF.FilePolarity,Negative*%
%FSLAX46Y46*%
G04 Gerber Fmt 4.6, Leading zero omitted, Abs format (unit mm)*
G04 Created by KiCad (PCBNEW 7.0.10-7.0.10~ubuntu22.04.1) date 2024-04-13 21:42:08*
%MOMM*%
%LPD*%
G01*
G04 APERTURE LIST*
G04 Aperture macros list*
%AMRoundRect*
0 Rectangle with rounded corners*
0 $1 Rounding radius*
0 $2 $3 $4 $5 $6 $7 $8 $9 X,Y pos of 4 corners*
0 Add a 4 corners polygon primitive as box body*
4,1,4,$2,$3,$4,$5,$6,$7,$8,$9,$2,$3,0*
0 Add four circle primitives for the rounded corners*
1,1,$1+$1,$2,$3*
1,1,$1+$1,$4,$5*
1,1,$1+$1,$6,$7*
1,1,$1+$1,$8,$9*
0 Add four rect primitives between the rounded corners*
20,1,$1+$1,$2,$3,$4,$5,0*
20,1,$1+$1,$4,$5,$6,$7,0*
20,1,$1+$1,$6,$7,$8,$9,0*
20,1,$1+$1,$8,$9,$2,$3,0*%
%AMRotRect*
0 Rectangle, with rotation*
0 The origin of the aperture is its center*
0 $1 length*
0 $2 width*
0 $3 Rotation angle, in degrees counterclockwise*
0 Add horizontal line*
21,1,$1,$2,0,0,$3*%
%AMFreePoly0*
4,1,6,1.000000,0.000000,0.500000,-0.750000,-0.500000,-0.750000,-0.500000,0.750000,0.500000,0.750000,1.000000,0.000000,1.000000,0.000000,$1*%
%AMFreePoly1*
4,1,6,0.500000,-0.750000,-0.650000,-0.750000,-0.150000,0.000000,-0.650000,0.750000,0.500000,0.750000,0.500000,-0.750000,0.500000,-0.750000,$1*%
%AMFreePoly2*
4,1,14,0.364320,0.111820,0.377500,0.080000,0.377501,0.053640,0.364318,0.021819,0.230680,-0.111820,0.198860,-0.125000,-0.332500,-0.125000,-0.364320,-0.111820,-0.377500,-0.080000,-0.377500,0.080000,-0.364320,0.111820,-0.332500,0.125000,0.332500,0.125000,0.364320,0.111820,0.364320,0.111820,$1*%
%AMFreePoly3*
4,1,14,0.230680,0.111820,0.364320,-0.021821,0.377500,-0.053642,0.377500,-0.080000,0.364320,-0.111820,0.332500,-0.125000,-0.332500,-0.125000,-0.364320,-0.111820,-0.377500,-0.080000,-0.377500,0.080000,-0.364320,0.111820,-0.332500,0.125000,0.198860,0.125000,0.230680,0.111820,0.230680,0.111820,$1*%
%AMFreePoly4*
4,1,14,0.111820,0.364320,0.125000,0.332500,0.125000,-0.332500,0.111820,-0.364320,0.080000,-0.377500,0.053640,-0.377501,0.021819,-0.364318,-0.111820,-0.230680,-0.125000,-0.198860,-0.125000,0.332500,-0.111820,0.364320,-0.080000,0.377500,0.080000,0.377500,0.111820,0.364320,0.111820,0.364320,$1*%
%AMFreePoly5*
4,1,14,0.111820,0.364320,0.125000,0.332500,0.125001,-0.198860,0.111818,-0.230680,-0.021820,-0.364320,-0.053640,-0.377500,-0.080000,-0.377500,-0.111820,-0.364320,-0.125000,-0.332500,-0.125000,0.332500,-0.111820,0.364320,-0.080000,0.377500,0.080000,0.377500,0.111820,0.364320,0.111820,0.364320,$1*%
%AMFreePoly6*
4,1,15,-0.198858,0.125000,0.332500,0.125000,0.364320,0.111820,0.377500,0.080000,0.377500,-0.080000,0.364320,-0.111820,0.332500,-0.125000,-0.332500,-0.125000,-0.364320,-0.111820,-0.377500,-0.080000,-0.377500,-0.053640,-0.364320,-0.021820,-0.230680,0.111820,-0.198860,0.125001,-0.198858,0.125000,-0.198858,0.125000,$1*%
%AMFreePoly7*
4,1,14,0.364320,0.111820,0.377500,0.080000,0.377500,-0.080000,0.364320,-0.111820,0.332500,-0.125000,-0.198860,-0.125001,-0.230680,-0.111818,-0.364320,0.021820,-0.377500,0.053640,-0.377500,0.080000,-0.364320,0.111820,-0.332500,0.125000,0.332500,0.125000,0.364320,0.111820,0.364320,0.111820,$1*%
%AMFreePoly8*
4,1,14,-0.021820,0.364320,0.111820,0.230679,0.125001,0.198860,0.125000,-0.332500,0.111820,-0.364320,0.080000,-0.377500,-0.080000,-0.377500,-0.111820,-0.364320,-0.125000,-0.332500,-0.125000,0.332500,-0.111820,0.364320,-0.080000,0.377500,-0.053640,0.377500,-0.021820,0.364320,-0.021820,0.364320,$1*%
%AMFreePoly9*
4,1,15,0.053642,0.377500,0.080000,0.377500,0.111820,0.364320,0.125000,0.332500,0.125000,-0.332500,0.111820,-0.364320,0.080000,-0.377500,-0.080000,-0.377500,-0.111820,-0.364320,-0.125000,-0.332500,-0.125000,0.198860,-0.111820,0.230680,0.021820,0.364320,0.053640,0.377501,0.053642,0.377500,0.053642,0.377500,$1*%
G04 Aperture macros list end*
%ADD10C,0.500000*%
%ADD11C,2.000000*%
%ADD12RoundRect,0.218750X-0.437978X0.037132X-0.253082X-0.359378X0.437978X-0.037132X0.253082X0.359378X0*%
%ADD13RoundRect,0.225000X0.296936X0.157969X-0.125926X0.311878X-0.296936X-0.157969X0.125926X-0.311878X0*%
%ADD14RoundRect,0.140000X0.111865X-0.189700X0.207631X0.073414X-0.111865X0.189700X-0.207631X-0.073414X0*%
%ADD15C,1.500000*%
%ADD16RoundRect,0.013920X0.031155X-0.552027X0.378702X0.402851X-0.031155X0.552027X-0.378702X-0.402851X0*%
%ADD17RoundRect,0.046400X0.383439X-0.337072X0.510397X0.011742X-0.383439X0.337072X-0.510397X-0.011742X0*%
%ADD18RoundRect,0.102000X1.045927X-2.242997X2.242997X1.045927X-1.045927X2.242997X-2.242997X-1.045927X0*%
%ADD19RoundRect,0.135000X0.127670X-0.190132X0.220016X0.063585X-0.127670X0.190132X-0.220016X-0.063585X0*%
%ADD20RoundRect,0.140000X0.189700X0.111865X-0.073414X0.207631X-0.189700X-0.111865X0.073414X-0.207631X0*%
%ADD21RoundRect,0.100000X0.049507X-0.156362X0.138432X0.087958X-0.049507X0.156362X-0.138432X-0.087958X0*%
%ADD22RoundRect,0.140000X0.213239X-0.055038X0.094906X0.198728X-0.213239X0.055038X-0.094906X-0.198728X0*%
%ADD23RoundRect,0.125000X-0.309632X0.245719X-0.395137X0.010796X0.309632X-0.245719X0.395137X-0.010796X0*%
%ADD24RoundRect,0.250000X-0.444109X0.534105X-0.683523X-0.123680X0.444109X-0.534105X0.683523X0.123680X0*%
%ADD25RoundRect,0.162500X0.000354X0.476091X-0.305754X-0.364934X-0.000354X-0.476091X0.305754X0.364934X0*%
%ADD26RoundRect,0.250000X-0.518776X0.047728X-0.296901X-0.428084X0.518776X-0.047728X0.296901X0.428084X0*%
%ADD27RoundRect,0.225000X-0.157969X0.296936X-0.311878X-0.125926X0.157969X-0.296936X0.311878X0.125926X0*%
%ADD28RoundRect,0.100000X-0.075558X-0.145571X0.160082X-0.035690X0.075558X0.145571X-0.160082X0.035690X0*%
%ADD29RoundRect,0.100000X-0.049507X0.156362X-0.138432X-0.087958X0.049507X-0.156362X0.138432X0.087958X0*%
%ADD30RoundRect,0.140000X0.055038X0.213239X-0.198728X0.094906X-0.055038X-0.213239X0.198728X-0.094906X0*%
%ADD31FreePoly0,205.000000*%
%ADD32FreePoly1,205.000000*%
%ADD33RoundRect,0.140000X-0.055038X-0.213239X0.198728X-0.094906X0.055038X0.213239X-0.198728X0.094906X0*%
%ADD34RoundRect,0.135000X0.190132X0.127670X-0.063585X0.220016X-0.190132X-0.127670X0.063585X-0.220016X0*%
%ADD35RoundRect,0.175000X0.459139X0.021009X0.311223X0.338217X-0.459139X-0.021009X-0.311223X-0.338217X0*%
%ADD36RoundRect,0.190000X-0.451884X-0.001075X-0.291289X-0.345472X0.451884X0.001075X0.291289X0.345472X0*%
%ADD37RoundRect,0.200000X-0.447047X0.012214X-0.277999X-0.350309X0.447047X-0.012214X0.277999X0.350309X0*%
%ADD38RoundRect,0.175000X-0.459139X-0.021009X-0.311223X-0.338217X0.459139X0.021009X0.311223X0.338217X0*%
%ADD39RoundRect,0.190000X0.451884X0.001075X0.291289X0.345472X-0.451884X-0.001075X-0.291289X-0.345472X0*%
%ADD40RoundRect,0.200000X0.447047X-0.012214X0.277999X0.350309X-0.447047X0.012214X-0.277999X-0.350309X0*%
%ADD41RoundRect,0.250000X0.727856X-0.377791X0.178452X0.800409X-0.727856X0.377791X-0.178452X-0.800409X0*%
%ADD42RoundRect,0.250000X0.659883X-0.409487X0.110479X0.768713X-0.659883X0.409487X-0.110479X-0.768713X0*%
%ADD43RoundRect,0.218750X-0.089959X-0.324689X0.306551X-0.139794X0.089959X0.324689X-0.306551X0.139794X0*%
%ADD44RoundRect,0.135000X-0.127670X0.190132X-0.220016X-0.063585X0.127670X-0.190132X0.220016X0.063585X0*%
%ADD45RoundRect,0.187500X0.187204X1.062552X-0.539589X-0.934295X-0.187204X-1.062552X0.539589X0.934295X0*%
%ADD46RoundRect,0.150000X0.352538X-0.401090X-0.080646X0.527875X-0.352538X0.401090X0.080646X-0.527875X0*%
%ADD47RoundRect,0.100000X0.156362X0.049507X-0.087958X0.138432X-0.156362X-0.049507X0.087958X-0.138432X0*%
%ADD48RoundRect,0.135000X-0.224720X0.044167X-0.110613X-0.200536X0.224720X-0.044167X0.110613X0.200536X0*%
%ADD49RoundRect,0.250000X0.400578X0.333081X-0.092760X0.512642X-0.400578X-0.333081X0.092760X-0.512642X0*%
%ADD50RoundRect,0.135000X0.044167X0.224720X-0.200536X0.110613X-0.044167X-0.224720X0.200536X-0.110613X0*%
%ADD51RotRect,1.550000X1.000000X295.000000*%
%ADD52RoundRect,0.150000X0.209358X0.136636X-0.072550X0.239242X-0.209358X-0.136636X0.072550X-0.239242X0*%
%ADD53RoundRect,0.100000X-0.145571X0.075558X-0.035690X-0.160082X0.145571X-0.075558X0.035690X0.160082X0*%
%ADD54RoundRect,0.140000X-0.189700X-0.111865X0.073414X-0.207631X0.189700X0.111865X-0.073414X0.207631X0*%
%ADD55RoundRect,0.225000X-0.098265X-0.321666X0.309574X-0.131488X0.098265X0.321666X-0.309574X0.131488X0*%
%ADD56RoundRect,0.140000X-0.213239X0.055038X-0.094906X-0.198728X0.213239X-0.055038X0.094906X0.198728X0*%
%ADD57RoundRect,0.250000X-0.333081X0.400578X-0.512642X-0.092760X0.333081X-0.400578X0.512642X0.092760X0*%
%ADD58C,1.000000*%
%ADD59RoundRect,0.140000X-0.111865X0.189700X-0.207631X-0.073414X0.111865X-0.189700X0.207631X0.073414X0*%
%ADD60FreePoly2,70.000000*%
%ADD61RoundRect,0.062500X-0.069527X-0.373761X0.186988X0.331008X0.069527X0.373761X-0.186988X-0.331008X0*%
%ADD62FreePoly3,70.000000*%
%ADD63FreePoly4,70.000000*%
%ADD64RoundRect,0.062500X0.331008X-0.186988X0.373761X-0.069527X-0.331008X0.186988X-0.373761X0.069527X0*%
%ADD65FreePoly5,70.000000*%
%ADD66FreePoly6,70.000000*%
%ADD67FreePoly7,70.000000*%
%ADD68FreePoly8,70.000000*%
%ADD69FreePoly9,70.000000*%
%ADD70RoundRect,0.225000X0.098265X0.321666X-0.309574X0.131488X-0.098265X-0.321666X0.309574X-0.131488X0*%
%ADD71RotRect,1.550000X1.000000X164.000000*%
%ADD72RoundRect,0.150000X0.034331X0.532895X-0.316239X-0.430289X-0.034331X-0.532895X0.316239X0.430289X0*%
%ADD73RoundRect,0.225000X-0.296936X-0.157969X0.125926X-0.311878X0.296936X0.157969X-0.125926X0.311878X0*%
%ADD74RoundRect,0.135000X-0.044167X-0.224720X0.200536X-0.110613X0.044167X0.224720X-0.200536X0.110613X0*%
%ADD75RotRect,1.400000X1.200000X205.000000*%
%ADD76RoundRect,0.100000X-0.152528X-0.060293X0.097400X-0.131959X0.152528X0.060293X-0.097400X0.131959X0*%
%ADD77RoundRect,0.250000X-0.376368X-0.360213X0.128294X-0.504923X0.376368X0.360213X-0.128294X0.504923X0*%
%ADD78RoundRect,0.218750X0.437978X-0.037132X0.253082X0.359378X-0.437978X0.037132X-0.253082X-0.359378X0*%
%ADD79RoundRect,0.100000X-0.156362X-0.049507X0.087958X-0.138432X0.156362X0.049507X-0.087958X0.138432X0*%
%ADD80RotRect,1.550000X1.000000X69.000000*%
%ADD81RotRect,1.200000X0.600000X160.000000*%
%ADD82RoundRect,0.218750X0.165979X-0.293200X0.315613X0.117915X-0.165979X0.293200X-0.315613X-0.117915X0*%
%ADD83RoundRect,0.100000X-0.161657X-0.185720X0.246181X0.004458X0.161657X0.185720X-0.246181X-0.004458X0*%
G04 APERTURE END LIST*
D10*
%TO.C,KiKit_MB_2_2*%
X55184497Y-28494636D03*
%TD*%
%TO.C,KiKit_MB_1_1*%
X14853943Y-30510059D03*
%TD*%
%TO.C,KiKit_MB_4_3*%
X34492163Y-49188870D03*
%TD*%
%TO.C,KiKit_MB_6_1*%
X55133931Y-69485171D03*
%TD*%
%TO.C,KiKit_MB_5_3*%
X14803312Y-70496222D03*
%TD*%
D11*
%TO.C,KiKit_TO_2*%
X70000000Y0D03*
%TD*%
D10*
%TO.C,KiKit_MB_7_4*%
X36512360Y-50861278D03*
%TD*%
%TO.C,KiKit_MB_3_2*%
X34492163Y-8811130D03*
%TD*%
%TO.C,KiKit_MB_6_2*%
X55184497Y-70494635D03*
%TD*%
%TO.C,KiKit_MB_3_4*%
X36512360Y-8861279D03*
%TD*%
%TO.C,KiKit_MB_5_1*%
X14853943Y-72510059D03*
%TD*%
%TO.C,KiKit_MB_7_3*%
X35502883Y-50810832D03*
%TD*%
%TO.C,KiKit_MB_6_3*%
X55184377Y-71505361D03*
%TD*%
%TO.C,KiKit_MB_8_1*%
X36512360Y-91138721D03*
%TD*%
%TO.C,KiKit_MB_6_4*%
X55133931Y-72514828D03*
%TD*%
D11*
%TO.C,KiKit_TO_3*%
X0Y-100000000D03*
%TD*%
D10*
%TO.C,KiKit_MB_4_4*%
X33482706Y-49138374D03*
%TD*%
%TO.C,KiKit_MB_2_3*%
X55184377Y-29505361D03*
%TD*%
%TO.C,KiKit_MB_1_2*%
X14803514Y-29503766D03*
%TD*%
%TO.C,KiKit_MB_2_4*%
X55133931Y-30514828D03*
%TD*%
%TO.C,KiKit_MB_5_2*%
X14803514Y-71503766D03*
%TD*%
%TO.C,KiKit_MB_8_2*%
X35502883Y-91189167D03*
%TD*%
%TO.C,KiKit_MB_8_3*%
X34492163Y-91188870D03*
%TD*%
%TO.C,KiKit_MB_7_1*%
X33482706Y-50861625D03*
%TD*%
%TO.C,KiKit_MB_8_4*%
X33482706Y-91138374D03*
%TD*%
%TO.C,KiKit_MB_3_3*%
X35502883Y-8810833D03*
%TD*%
%TO.C,KiKit_MB_4_1*%
X36512360Y-49138721D03*
%TD*%
%TO.C,KiKit_MB_7_2*%
X34492163Y-50811129D03*
%TD*%
%TO.C,KiKit_MB_1_4*%
X14853943Y-27489941D03*
%TD*%
%TO.C,KiKit_MB_1_3*%
X14803312Y-28496223D03*
%TD*%
%TO.C,KiKit_MB_3_1*%
X33482706Y-8861626D03*
%TD*%
%TO.C,KiKit_MB_2_1*%
X55133931Y-27485172D03*
%TD*%
D11*
%TO.C,KiKit_TO_1*%
X0Y0D03*
%TD*%
D10*
%TO.C,KiKit_MB_4_2*%
X35502883Y-49189167D03*
%TD*%
%TO.C,KiKit_MB_5_4*%
X14853943Y-69489940D03*
%TD*%
D12*
%TO.C,L3*%
X28676660Y-59575698D03*
X29574724Y-61501602D03*
%TD*%
D13*
%TO.C,TC27*%
X45585029Y-37632044D03*
X44128505Y-37101912D03*
%TD*%
D14*
%TO.C,C41*%
X34223506Y-65268712D03*
X34551846Y-64366608D03*
%TD*%
D15*
%TO.C,3V3*%
X21891995Y-23966819D03*
%TD*%
%TO.C,5V*%
X24277954Y-67060984D03*
%TD*%
D16*
%TO.C,U3*%
X40849216Y-66239987D03*
X40379370Y-66068977D03*
X39909523Y-65897967D03*
X39439677Y-65726957D03*
X38969831Y-65555946D03*
X38499984Y-65384936D03*
X38030138Y-65213926D03*
X37560292Y-65042916D03*
D17*
X37150886Y-64164943D03*
X37321896Y-63695097D03*
X37492906Y-63225250D03*
X37663916Y-62755404D03*
X37834927Y-62285558D03*
X38005937Y-61815711D03*
X38176947Y-61345865D03*
X38347957Y-60876019D03*
D16*
X39225930Y-60466613D03*
X39695776Y-60637623D03*
X40165623Y-60808633D03*
X40635469Y-60979643D03*
X41105315Y-61150654D03*
X41575162Y-61321664D03*
X42045008Y-61492674D03*
X42514854Y-61663684D03*
D17*
X42924260Y-62541657D03*
X42753250Y-63011503D03*
X42582240Y-63481350D03*
X42411230Y-63951196D03*
X42240219Y-64421042D03*
X42069209Y-64890889D03*
X41898199Y-65360735D03*
X41727189Y-65830581D03*
D18*
X40037573Y-63353300D03*
%TD*%
D19*
%TO.C,TR17*%
X42781900Y-39449605D03*
X43130760Y-38491119D03*
%TD*%
D20*
%TO.C,TC8*%
X31078417Y-35173897D03*
X30176313Y-34845557D03*
%TD*%
D21*
%TO.C,TC38*%
X35125672Y-20583290D03*
X35344564Y-19981886D03*
%TD*%
D22*
%TO.C,TC51*%
X27730692Y-16256922D03*
X27324978Y-15386866D03*
%TD*%
D23*
%TO.C,TLi-po1*%
X35719028Y-43397777D03*
X35445411Y-44149531D03*
D24*
X37996054Y-42843116D03*
X36833186Y-46038071D03*
%TD*%
D25*
%TO.C,Q1*%
X43625255Y-82867332D03*
X45410671Y-83517170D03*
X43621871Y-85654245D03*
%TD*%
D20*
%TO.C,TC9*%
X32058010Y-32068998D03*
X31155906Y-31740658D03*
%TD*%
D26*
%TO.C,TR14*%
X49739070Y-26304676D03*
X50510348Y-27958688D03*
%TD*%
D22*
%TO.C,C50*%
X30449615Y-56989068D03*
X30043901Y-56119012D03*
%TD*%
D12*
%TO.C,TL3*%
X28676660Y-17575698D03*
X29574724Y-19501602D03*
%TD*%
D27*
%TO.C,C4*%
X32127548Y-67099173D03*
X31597416Y-68555697D03*
%TD*%
D28*
%TO.C,C31*%
X41818385Y-67929446D03*
X42398421Y-67658970D03*
%TD*%
D29*
%TO.C,C28*%
X23054808Y-58223643D03*
X22835916Y-58825047D03*
%TD*%
D30*
%TO.C,TC55*%
X28257524Y-20226159D03*
X27387468Y-20631873D03*
%TD*%
D31*
%TO.C,JP1*%
X48325953Y-16826339D03*
D32*
X47011807Y-17439135D03*
%TD*%
D33*
%TO.C,C53*%
X26904462Y-61643387D03*
X27774518Y-61237673D03*
%TD*%
D20*
%TO.C,C46*%
X44001387Y-60732579D03*
X43099283Y-60404239D03*
%TD*%
D11*
%TO.C,KiKit_FID_B_3*%
X3900000Y-96100000D03*
%TD*%
D15*
%TO.C,GND*%
X40903815Y-13391226D03*
%TD*%
D34*
%TO.C,R9*%
X42445717Y-78075560D03*
X41487231Y-77726700D03*
%TD*%
D22*
%TO.C,C60*%
X31446554Y-56524187D03*
X31040840Y-55654131D03*
%TD*%
D35*
%TO.C,J2*%
X22415714Y-77418411D03*
D36*
X21562026Y-75587669D03*
D37*
X21042205Y-74472911D03*
D38*
X21993096Y-76512103D03*
D39*
X22846785Y-78342845D03*
D40*
X23366606Y-79457604D03*
D41*
X21075895Y-83146302D03*
D42*
X24320477Y-81633329D03*
D41*
X16744058Y-73856647D03*
D42*
X19988640Y-72343674D03*
%TD*%
D43*
%TO.C,TD14*%
X45416761Y-20555180D03*
X46844195Y-19889556D03*
%TD*%
D44*
%TO.C,R18*%
X45228821Y-64286162D03*
X44879961Y-65244648D03*
%TD*%
D13*
%TO.C,C27*%
X45585029Y-79632044D03*
X44128505Y-79101912D03*
%TD*%
D45*
%TO.C,TL1*%
X35530039Y-39559545D03*
X33415731Y-38789999D03*
%TD*%
D46*
%TO.C,TME4055A1*%
X30765969Y-38737956D03*
X29904976Y-39139443D03*
X29043984Y-39540930D03*
X28082527Y-37479080D03*
X28943520Y-37077593D03*
X29804512Y-36676106D03*
%TD*%
D15*
%TO.C,A2*%
X30573859Y-11587896D03*
%TD*%
D22*
%TO.C,TC50*%
X30449615Y-14989068D03*
X30043901Y-14119012D03*
%TD*%
D47*
%TO.C,TC42*%
X33602526Y-20741855D03*
X33001122Y-20522963D03*
%TD*%
D48*
%TO.C,TR3*%
X38985111Y-31873777D03*
X39416181Y-32798211D03*
%TD*%
D19*
%TO.C,R6*%
X40956094Y-86052477D03*
X41304954Y-85093991D03*
%TD*%
D15*
%TO.C,3V3*%
X21891995Y-65966819D03*
%TD*%
D11*
%TO.C,KiKit_FID_B_1*%
X3900000Y-3900000D03*
%TD*%
D49*
%TO.C,R8*%
X44558144Y-76963201D03*
X42843204Y-76339015D03*
%TD*%
D50*
%TO.C,R15*%
X52266649Y-68022541D03*
X51342215Y-68453611D03*
%TD*%
D29*
%TO.C,TC7*%
X37672143Y-34674822D03*
X37453251Y-35276226D03*
%TD*%
%TO.C,TC28*%
X23054808Y-16223643D03*
X22835916Y-16825047D03*
%TD*%
D15*
%TO.C,+BAT*%
X39522622Y-88750442D03*
%TD*%
D50*
%TO.C,TR15*%
X52266649Y-26022541D03*
X51342215Y-26453611D03*
%TD*%
D51*
%TO.C,TSW2*%
X53079735Y-23469832D03*
X50860989Y-18711717D03*
X51539011Y-24188283D03*
X49320265Y-19430168D03*
%TD*%
D20*
%TO.C,TC46*%
X44001387Y-18732579D03*
X43099283Y-18404239D03*
%TD*%
D30*
%TO.C,C55*%
X28257524Y-62226159D03*
X27387468Y-62631873D03*
%TD*%
D52*
%TO.C,TD13*%
X31544506Y-40987194D03*
X32860076Y-41466022D03*
%TD*%
D53*
%TO.C,TC30*%
X48951943Y-24616678D03*
X49222419Y-25196714D03*
%TD*%
D33*
%TO.C,C57*%
X26228273Y-60193295D03*
X27098329Y-59787581D03*
%TD*%
D19*
%TO.C,R13*%
X25487665Y-85652216D03*
X25836525Y-84693730D03*
%TD*%
D47*
%TO.C,C44*%
X35637201Y-66868609D03*
X35035797Y-66649717D03*
%TD*%
D54*
%TO.C,TC45*%
X35224029Y-23664745D03*
X36126133Y-23993085D03*
%TD*%
D28*
%TO.C,TC31*%
X41818385Y-25929446D03*
X42398421Y-25658970D03*
%TD*%
D55*
%TO.C,TC24*%
X24807879Y-35957993D03*
X26212657Y-35302935D03*
%TD*%
D56*
%TO.C,C11*%
X27324835Y-70164049D03*
X27730549Y-71034105D03*
%TD*%
D54*
%TO.C,C3*%
X33167617Y-73795622D03*
X34069721Y-74123962D03*
%TD*%
D22*
%TO.C,TC60*%
X31446554Y-14524187D03*
X31040840Y-13654131D03*
%TD*%
D33*
%TO.C,TC57*%
X26228273Y-18193295D03*
X27098329Y-17787581D03*
%TD*%
D19*
%TO.C,TR6*%
X40956094Y-44052477D03*
X41304954Y-43093991D03*
%TD*%
D33*
%TO.C,TC53*%
X26904462Y-19643387D03*
X27774518Y-19237673D03*
%TD*%
D49*
%TO.C,TR8*%
X44558144Y-34963201D03*
X42843204Y-34339015D03*
%TD*%
D57*
%TO.C,R10*%
X23537531Y-60515394D03*
X22913345Y-62230334D03*
%TD*%
D58*
%TO.C,D_BAT*%
X41254619Y-32481588D03*
%TD*%
D59*
%TO.C,TC5*%
X29022841Y-29866541D03*
X28694501Y-30768645D03*
%TD*%
D56*
%TO.C,C48*%
X44750278Y-69673807D03*
X45155992Y-70543863D03*
%TD*%
D46*
%TO.C,ME4055A1*%
X30765969Y-80737956D03*
X29904976Y-81139443D03*
X29043984Y-81540930D03*
X28082527Y-79479080D03*
X28943520Y-79077593D03*
X29804512Y-78676106D03*
%TD*%
D60*
%TO.C,TU1*%
X35723294Y-31390066D03*
D61*
X35273969Y-31162675D03*
X34804122Y-30991665D03*
X34334276Y-30820654D03*
X33864430Y-30649644D03*
X33394583Y-30478634D03*
D62*
X32904216Y-30364006D03*
D63*
X32606874Y-29726354D03*
D64*
X32834265Y-29277029D03*
X33005275Y-28807182D03*
X33176286Y-28337336D03*
X33347296Y-27867490D03*
X33518306Y-27397643D03*
D65*
X33632934Y-26907276D03*
D66*
X34270586Y-26609934D03*
D61*
X34719911Y-26837325D03*
X35189758Y-27008335D03*
X35659604Y-27179346D03*
X36129450Y-27350356D03*
X36599297Y-27521366D03*
D67*
X37089664Y-27635994D03*
D68*
X37387006Y-28273646D03*
D64*
X37159615Y-28722971D03*
X36988605Y-29192818D03*
X36817594Y-29662664D03*
X36646584Y-30132510D03*
X36475574Y-30602357D03*
D69*
X36360946Y-31092724D03*
%TD*%
D58*
%TO.C,DINS*%
X48755724Y-39576194D03*
%TD*%
D70*
%TO.C,TC25*%
X27722907Y-40612103D03*
X26318129Y-41267161D03*
%TD*%
D11*
%TO.C,KiKit_FID_B_2*%
X66100000Y-3900000D03*
%TD*%
D56*
%TO.C,TC48*%
X44750278Y-27673807D03*
X45155992Y-28543863D03*
%TD*%
D20*
%TO.C,TC37*%
X37986630Y-24670250D03*
X37084526Y-24341910D03*
%TD*%
D14*
%TO.C,TC41*%
X34223506Y-23268712D03*
X34551846Y-22366608D03*
%TD*%
D33*
%TO.C,C52*%
X33151586Y-59944021D03*
X34021642Y-59538307D03*
%TD*%
D30*
%TO.C,TC61*%
X32898699Y-15082824D03*
X32028643Y-15488538D03*
%TD*%
D56*
%TO.C,TC11*%
X27324835Y-28164049D03*
X27730549Y-29034105D03*
%TD*%
D58*
%TO.C,NRST*%
X48227081Y-71450951D03*
%TD*%
D30*
%TO.C,TC54*%
X33556762Y-16541369D03*
X32686706Y-16947083D03*
%TD*%
D71*
%TO.C,TSW1*%
X26857680Y-45946944D03*
X31904304Y-47394041D03*
X27326264Y-44312799D03*
X32372888Y-45759896D03*
%TD*%
D56*
%TO.C,TC6*%
X38000851Y-32365846D03*
X38406565Y-33235902D03*
%TD*%
D72*
%TO.C,TU4*%
X38767832Y-36536366D03*
X39660540Y-36861285D03*
X40553248Y-37186204D03*
X39775152Y-39324004D03*
X38882444Y-38999085D03*
X37989736Y-38674166D03*
%TD*%
D15*
%TO.C,A1*%
X24525781Y-14352992D03*
%TD*%
D29*
%TO.C,TC40*%
X33537567Y-22258894D03*
X33318675Y-22860298D03*
%TD*%
%TO.C,C40*%
X33537567Y-64258894D03*
X33318675Y-64860298D03*
%TD*%
D44*
%TO.C,TR18*%
X45228821Y-22286162D03*
X44879961Y-23244648D03*
%TD*%
D52*
%TO.C,D13*%
X31544506Y-82987194D03*
X32860076Y-83466022D03*
%TD*%
D54*
%TO.C,TC3*%
X33167617Y-31795622D03*
X34069721Y-32123962D03*
%TD*%
D58*
%TO.C,DIO*%
X46432299Y-73280912D03*
%TD*%
D71*
%TO.C,SW1*%
X26857680Y-87946944D03*
X31904304Y-89394041D03*
X27326264Y-86312799D03*
X32372888Y-87759896D03*
%TD*%
D58*
%TO.C,DIO*%
X46432299Y-31280912D03*
%TD*%
D20*
%TO.C,C9*%
X32058010Y-74068998D03*
X31155906Y-73740658D03*
%TD*%
%TO.C,C37*%
X37986630Y-66670250D03*
X37084526Y-66341910D03*
%TD*%
D73*
%TO.C,TC26*%
X38143576Y-40830601D03*
X39600100Y-41360733D03*
%TD*%
D74*
%TO.C,TR4*%
X23960969Y-34697846D03*
X24885403Y-34266776D03*
%TD*%
D75*
%TO.C,TY1*%
X43587566Y-28966286D03*
X41593689Y-29896046D03*
X40875238Y-28355322D03*
X42869115Y-27425562D03*
%TD*%
D30*
%TO.C,C54*%
X33556762Y-58541369D03*
X32686706Y-58947083D03*
%TD*%
D76*
%TO.C,C29*%
X27304531Y-84285789D03*
X27919739Y-84462197D03*
%TD*%
D21*
%TO.C,C38*%
X35125672Y-62583290D03*
X35344564Y-61981886D03*
%TD*%
D20*
%TO.C,C8*%
X31078417Y-77173897D03*
X30176313Y-76845557D03*
%TD*%
D56*
%TO.C,C6*%
X38000851Y-74365846D03*
X38406565Y-75235902D03*
%TD*%
D22*
%TO.C,C58*%
X25736815Y-59186683D03*
X25331101Y-58316627D03*
%TD*%
D77*
%TO.C,TR12*%
X29276787Y-42261265D03*
X31031089Y-42764303D03*
%TD*%
D73*
%TO.C,C26*%
X38143576Y-82830601D03*
X39600100Y-83360733D03*
%TD*%
D78*
%TO.C,TL2*%
X31669797Y-18552237D03*
X30771733Y-16626333D03*
%TD*%
D11*
%TO.C,KiKit_FID_B_4*%
X66100000Y-96100000D03*
%TD*%
D19*
%TO.C,TR16*%
X41150546Y-40210318D03*
X41499406Y-39251832D03*
%TD*%
D15*
%TO.C,+BAT*%
X39522622Y-46750442D03*
%TD*%
D79*
%TO.C,C47*%
X43765030Y-59578021D03*
X44366434Y-59796913D03*
%TD*%
%TO.C,TC34*%
X39161575Y-25925631D03*
X39762979Y-26144523D03*
%TD*%
%TO.C,TC36*%
X36854031Y-25236251D03*
X37455435Y-25455143D03*
%TD*%
D34*
%TO.C,TR9*%
X42445717Y-36075560D03*
X41487231Y-35726700D03*
%TD*%
D58*
%TO.C,CLK*%
X45930288Y-33280408D03*
%TD*%
D22*
%TO.C,TC58*%
X25736815Y-17186683D03*
X25331101Y-16316627D03*
%TD*%
%TO.C,C56*%
X26733753Y-58721802D03*
X26328039Y-57851746D03*
%TD*%
D59*
%TO.C,TC39*%
X36316581Y-19998970D03*
X35988241Y-20901074D03*
%TD*%
D48*
%TO.C,R7*%
X31649637Y-78728756D03*
X32080707Y-79653190D03*
%TD*%
D80*
%TO.C,SW3*%
X18774382Y-61534157D03*
X16892950Y-66435454D03*
X20361468Y-62143382D03*
X18480036Y-67044679D03*
%TD*%
D15*
%TO.C,A1*%
X24525781Y-56352992D03*
%TD*%
D43*
%TO.C,D14*%
X45416761Y-62555180D03*
X46844195Y-61889556D03*
%TD*%
D19*
%TO.C,R17*%
X42781900Y-81449605D03*
X43130760Y-80491119D03*
%TD*%
D47*
%TO.C,C1*%
X35479880Y-67714333D03*
X34878476Y-67495441D03*
%TD*%
D27*
%TO.C,TC4*%
X32127548Y-25099173D03*
X31597416Y-26555697D03*
%TD*%
D16*
%TO.C,TU3*%
X40849216Y-24239987D03*
X40379370Y-24068977D03*
X39909523Y-23897967D03*
X39439677Y-23726957D03*
X38969831Y-23555946D03*
X38499984Y-23384936D03*
X38030138Y-23213926D03*
X37560292Y-23042916D03*
D17*
X37150886Y-22164943D03*
X37321896Y-21695097D03*
X37492906Y-21225250D03*
X37663916Y-20755404D03*
X37834927Y-20285558D03*
X38005937Y-19815711D03*
X38176947Y-19345865D03*
X38347957Y-18876019D03*
D16*
X39225930Y-18466613D03*
X39695776Y-18637623D03*
X40165623Y-18808633D03*
X40635469Y-18979643D03*
X41105315Y-19150654D03*
X41575162Y-19321664D03*
X42045008Y-19492674D03*
X42514854Y-19663684D03*
D17*
X42924260Y-20541657D03*
X42753250Y-21011503D03*
X42582240Y-21481350D03*
X42411230Y-21951196D03*
X42240219Y-22421042D03*
X42069209Y-22890889D03*
X41898199Y-23360735D03*
X41727189Y-23830581D03*
D18*
X40037573Y-21353300D03*
%TD*%
D51*
%TO.C,SW2*%
X53026581Y-65481142D03*
X50807835Y-60723027D03*
X51485857Y-66199593D03*
X49267111Y-61441478D03*
%TD*%
D56*
%TO.C,C10*%
X23324867Y-72470616D03*
X23730581Y-73340672D03*
%TD*%
D47*
%TO.C,C42*%
X33602526Y-62741855D03*
X33001122Y-62522963D03*
%TD*%
D48*
%TO.C,R3*%
X38985111Y-73873777D03*
X39416181Y-74798211D03*
%TD*%
D74*
%TO.C,R4*%
X23960969Y-76697846D03*
X24885403Y-76266776D03*
%TD*%
D44*
%TO.C,R2*%
X47135371Y-82926912D03*
X46786511Y-83885398D03*
%TD*%
D19*
%TO.C,R16*%
X41150546Y-82210318D03*
X41499406Y-81251832D03*
%TD*%
D33*
%TO.C,C49*%
X39667283Y-69373872D03*
X40537339Y-68968158D03*
%TD*%
D70*
%TO.C,C25*%
X27722907Y-82612103D03*
X26318129Y-83267161D03*
%TD*%
D22*
%TO.C,C51*%
X27730692Y-58256922D03*
X27324978Y-57386866D03*
%TD*%
D79*
%TO.C,TC47*%
X43765030Y-17578021D03*
X44366434Y-17796913D03*
%TD*%
D35*
%TO.C,TJ2*%
X22415714Y-35418411D03*
D36*
X21562026Y-33587669D03*
D37*
X21042205Y-32472911D03*
D38*
X21993096Y-34512103D03*
D39*
X22846785Y-36342845D03*
D40*
X23366606Y-37457604D03*
D41*
X21075895Y-41146302D03*
D42*
X24320477Y-39633329D03*
D41*
X16744058Y-31856647D03*
D42*
X19988640Y-30343674D03*
%TD*%
D19*
%TO.C,R11*%
X21519934Y-60579978D03*
X21868794Y-59621492D03*
%TD*%
D58*
%TO.C,D_BAT*%
X41254619Y-74481588D03*
%TD*%
D56*
%TO.C,TC10*%
X23324867Y-30470616D03*
X23730581Y-31340672D03*
%TD*%
D58*
%TO.C,DINS*%
X48755724Y-81576194D03*
%TD*%
D81*
%TO.C,TY2*%
X35605692Y-35597236D03*
X29685628Y-33442509D03*
X29993446Y-32596786D03*
X35913510Y-34751513D03*
%TD*%
D56*
%TO.C,TC59*%
X32046231Y-13207378D03*
X32451945Y-14077434D03*
%TD*%
D48*
%TO.C,TR7*%
X31649637Y-36728756D03*
X32080707Y-37653190D03*
%TD*%
D22*
%TO.C,TC56*%
X26733753Y-16721802D03*
X26328039Y-15851746D03*
%TD*%
D30*
%TO.C,C61*%
X32898699Y-57082824D03*
X32028643Y-57488538D03*
%TD*%
D80*
%TO.C,TSW3*%
X18774382Y-19534157D03*
X16892950Y-24435454D03*
X20361468Y-20143382D03*
X18480036Y-25044679D03*
%TD*%
D72*
%TO.C,U4*%
X38767832Y-78536366D03*
X39660540Y-78861285D03*
X40553248Y-79186204D03*
X39775152Y-81324004D03*
X38882444Y-80999085D03*
X37989736Y-80674166D03*
%TD*%
D59*
%TO.C,C5*%
X29022841Y-71866541D03*
X28694501Y-72768645D03*
%TD*%
D20*
%TO.C,C35*%
X40612333Y-67475430D03*
X39710229Y-67147090D03*
%TD*%
D31*
%TO.C,JP1*%
X48325953Y-58826339D03*
D32*
X47011807Y-59439135D03*
%TD*%
D56*
%TO.C,C59*%
X32046231Y-55207378D03*
X32451945Y-56077434D03*
%TD*%
D58*
%TO.C,NRST*%
X48227081Y-29450951D03*
%TD*%
D15*
%TO.C,5V*%
X24277954Y-25060984D03*
%TD*%
D82*
%TO.C,FB1*%
X30081489Y-73134160D03*
X30620171Y-71654144D03*
%TD*%
D29*
%TO.C,C7*%
X37672143Y-76674822D03*
X37453251Y-77276226D03*
%TD*%
D78*
%TO.C,L2*%
X31669797Y-60552237D03*
X30771733Y-58626333D03*
%TD*%
D58*
%TO.C,CLK*%
X45930288Y-75280408D03*
%TD*%
D54*
%TO.C,TC43*%
X34614531Y-21411189D03*
X35516635Y-21739529D03*
%TD*%
D47*
%TO.C,TC1*%
X35479880Y-25714333D03*
X34878476Y-25495441D03*
%TD*%
D79*
%TO.C,C34*%
X39161575Y-67925631D03*
X39762979Y-68144523D03*
%TD*%
D50*
%TO.C,TR5*%
X24462785Y-33360468D03*
X23538351Y-33791538D03*
%TD*%
D20*
%TO.C,TC35*%
X40612333Y-25475430D03*
X39710229Y-25147090D03*
%TD*%
D54*
%TO.C,C43*%
X34614531Y-63411189D03*
X35516635Y-63739529D03*
%TD*%
D47*
%TO.C,TC44*%
X35637201Y-24868609D03*
X35035797Y-24649717D03*
%TD*%
D15*
%TO.C,A2*%
X30573859Y-53587896D03*
%TD*%
D34*
%TO.C,TR1*%
X45090623Y-39972927D03*
X44132137Y-39624067D03*
%TD*%
%TO.C,R1*%
X45090623Y-81972927D03*
X44132137Y-81624067D03*
%TD*%
D53*
%TO.C,C30*%
X48951943Y-66616678D03*
X49222419Y-67196714D03*
%TD*%
D33*
%TO.C,TC52*%
X33151586Y-17944021D03*
X34021642Y-17538307D03*
%TD*%
D83*
%TO.C,U2*%
X24911272Y-72536329D03*
X24636571Y-71947229D03*
X24361869Y-71358129D03*
X26083854Y-70555155D03*
X26633257Y-71733355D03*
%TD*%
D45*
%TO.C,L1*%
X35530039Y-81559545D03*
X33415731Y-80789999D03*
%TD*%
D75*
%TO.C,Y1*%
X43587566Y-70966286D03*
X41593689Y-71896046D03*
X40875238Y-70355322D03*
X42869115Y-69425562D03*
%TD*%
D77*
%TO.C,R12*%
X29276787Y-84261265D03*
X31031089Y-84764303D03*
%TD*%
D33*
%TO.C,TC49*%
X39667283Y-27373872D03*
X40537339Y-26968158D03*
%TD*%
D83*
%TO.C,TU2*%
X24911272Y-30536329D03*
X24636571Y-29947229D03*
X24361869Y-29358129D03*
X26083854Y-28555155D03*
X26633257Y-29733355D03*
%TD*%
D54*
%TO.C,C45*%
X35224029Y-65664745D03*
X36126133Y-65993085D03*
%TD*%
D23*
%TO.C,Li-po1*%
X35719028Y-85397777D03*
X35445411Y-86149531D03*
D24*
X37996054Y-84843116D03*
X36833186Y-88038071D03*
%TD*%
D25*
%TO.C,TQ1*%
X43625255Y-40867332D03*
X45410671Y-41517170D03*
X43621871Y-43654245D03*
%TD*%
D44*
%TO.C,TR2*%
X47135371Y-40926912D03*
X46786511Y-41885398D03*
%TD*%
D50*
%TO.C,R5*%
X24462785Y-75360468D03*
X23538351Y-75791538D03*
%TD*%
D19*
%TO.C,TR13*%
X25487665Y-43652216D03*
X25836525Y-42693730D03*
%TD*%
D79*
%TO.C,C36*%
X36854031Y-67236251D03*
X37455435Y-67455143D03*
%TD*%
D23*
%TO.C,J1*%
X49535728Y-73899960D03*
X49262112Y-74651714D03*
X48988496Y-75403468D03*
X48714879Y-76155222D03*
X48441263Y-76906976D03*
X48167647Y-77658730D03*
D24*
X51812755Y-73345298D03*
X49555422Y-79547270D03*
%TD*%
D28*
%TO.C,TC2*%
X36503050Y-32987046D03*
X37083086Y-32716570D03*
%TD*%
D19*
%TO.C,TR11*%
X21519934Y-18579978D03*
X21868794Y-17621492D03*
%TD*%
D26*
%TO.C,R14*%
X49739070Y-68304676D03*
X50510348Y-69958688D03*
%TD*%
D81*
%TO.C,Y2*%
X35605692Y-77597236D03*
X29685628Y-75442509D03*
X29993446Y-74596786D03*
X35913510Y-76751513D03*
%TD*%
D82*
%TO.C,TFB1*%
X30081489Y-31134160D03*
X30620171Y-29654144D03*
%TD*%
D28*
%TO.C,C2*%
X36503050Y-74987046D03*
X37083086Y-74716570D03*
%TD*%
D55*
%TO.C,C24*%
X24807879Y-77957993D03*
X26212657Y-77302935D03*
%TD*%
D15*
%TO.C,GND*%
X40903815Y-55391226D03*
%TD*%
D23*
%TO.C,TJ1*%
X49535728Y-31899960D03*
X49262112Y-32651714D03*
X48988496Y-33403468D03*
X48714879Y-34155222D03*
X48441263Y-34906976D03*
X48167647Y-35658730D03*
D24*
X51812755Y-31345298D03*
X49555422Y-37547270D03*
%TD*%
D60*
%TO.C,U1*%
X35723294Y-73390066D03*
D61*
X35273969Y-73162675D03*
X34804122Y-72991665D03*
X34334276Y-72820654D03*
X33864430Y-72649644D03*
X33394583Y-72478634D03*
D62*
X32904216Y-72364006D03*
D63*
X32606874Y-71726354D03*
D64*
X32834265Y-71277029D03*
X33005275Y-70807182D03*
X33176286Y-70337336D03*
X33347296Y-69867490D03*
X33518306Y-69397643D03*
D65*
X33632934Y-68907276D03*
D66*
X34270586Y-68609934D03*
D61*
X34719911Y-68837325D03*
X35189758Y-69008335D03*
X35659604Y-69179346D03*
X36129450Y-69350356D03*
X36599297Y-69521366D03*
D67*
X37089664Y-69635994D03*
D68*
X37387006Y-70273646D03*
D64*
X37159615Y-70722971D03*
X36988605Y-71192818D03*
X36817594Y-71662664D03*
X36646584Y-72132510D03*
X36475574Y-72602357D03*
D69*
X36360946Y-73092724D03*
%TD*%
D76*
%TO.C,TC29*%
X27304531Y-42285789D03*
X27919739Y-42462197D03*
%TD*%
D59*
%TO.C,C39*%
X36316581Y-61998970D03*
X35988241Y-62901074D03*
%TD*%
D57*
%TO.C,TR10*%
X23537531Y-18515394D03*
X22913345Y-20230334D03*
%TD*%
M02*
