M48
; DRILL file {KiCad 7.0.10-7.0.10~ubuntu22.04.1} date So 13. dubna 2024, 21:42:12
; FORMAT={-:-/ absolute / metric / decimal}
; #@! TF.CreationDate,2024-04-13T21:42:12+02:00
; #@! TF.GenerationSoftware,Kicad,Pcbnew,7.0.10-7.0.10~ubuntu22.04.1
; #@! TF.FileFunction,Plated,1,4,PTH
FMAT,2
METRIC
; #@! TA.AperFunction,Plated,PTH,ViaDrill
T1C0.300
%
G90
G05
T1
X19.79Y-23.126
X19.79Y-65.126
X20.015Y-28.814
X20.015Y-70.814
X20.547Y-25.697
X20.547Y-67.697
X21.251Y-35.961
X21.251Y-77.961
X22.13Y-26.725
X22.13Y-68.725
X22.3Y-32.769
X22.3Y-74.769
X22.439Y-21.946
X22.439Y-63.946
X22.552Y-27.631
X22.552Y-69.631
X22.763Y-31.395
X22.763Y-73.395
X23.371Y-17.319
X23.371Y-59.319
X23.823Y-32.721
X23.823Y-74.721
X23.942Y-36.527
X23.942Y-78.527
X24.476Y-19.452
X24.476Y-61.452
X24.918Y-20.326
X24.918Y-62.326
X25.043Y-21.066
X25.043Y-63.066
X25.521Y-41.639
X25.521Y-83.639
X26.366Y-20.667
X26.366Y-62.667
X26.464Y-38.386
X26.464Y-80.386
X26.972Y-11.613
X26.972Y-53.613
X27.154Y-32.767
X27.154Y-74.767
X27.527Y-38.773
X27.527Y-80.773
X27.572Y-17.099
X27.615Y-59.193
X27.894Y-43.346
X27.894Y-85.346
X27.995Y-39.438
X27.995Y-81.438
X28.262Y-24.969
X28.262Y-66.969
X28.551Y-40.305
X28.551Y-82.305
X28.555Y-14.239
X28.555Y-56.239
X28.64Y-35.716
X28.64Y-77.716
X28.975Y-13.602
X28.975Y-55.602
X29.277Y-14.841
X29.277Y-56.841
X29.955Y-20.317
X29.955Y-62.317
X30.228Y-15.887
X30.228Y-57.887
X30.698Y-40.604
X30.698Y-82.604
X31.636Y-29.46
X31.636Y-71.46
X31.742Y-23.677
X31.742Y-65.677
X31.893Y-28.755
X31.893Y-70.755
X32.04Y-19.345
X32.04Y-61.345
X32.113Y-28.038
X32.113Y-70.038
X32.127Y-30.89
X32.127Y-72.89
X32.251Y-39.438
X32.251Y-81.438
X32.355Y-27.328
X32.355Y-69.328
X32.709Y-43.969
X32.709Y-85.969
X32.741Y-26.686
X32.741Y-68.686
X32.867Y-21.828
X32.867Y-63.828
X33.171Y-32.775
X33.171Y-74.775
X33.819Y-29.549
X33.819Y-71.549
X33.886Y-25.435
X33.886Y-67.435
X34.024Y-40.046
X34.024Y-82.046
X34.029Y-44.788
X34.029Y-86.788
X34.702Y-28.586
X34.702Y-70.586
X34.789Y-15.74
X34.789Y-57.74
X34.846Y-29.622
X34.846Y-71.622
X34.908Y-42.889
X34.908Y-84.889
X35.023Y-41.004
X35.023Y-83.004
X35.091Y-17.371
X35.091Y-59.371
X35.398Y-22.524
X35.398Y-64.524
X35.451Y-41.604
X35.451Y-83.604
X35.669Y-28.754
X35.669Y-70.754
X35.702Y-13.003
X35.702Y-55.003
X35.846Y-19.226
X35.846Y-61.226
X36.292Y-26.002
X36.292Y-68.002
X36.363Y-23.3
X36.363Y-65.3
X36.661Y-18.845
X36.661Y-60.845
X36.894Y-22.796
X36.894Y-64.796
X36.943Y-26.548
X36.943Y-68.548
X37.327Y-14.121
X37.327Y-56.121
X37.607Y-26.79
X37.607Y-68.79
X37.708Y-14.937
X37.708Y-56.937
X38.027Y-17.988
X38.027Y-59.988
X38.053Y-29.587
X38.053Y-71.587
X38.227Y-28.857
X38.227Y-70.857
X38.493Y-35.314
X38.493Y-77.314
X38.7Y-31.025
X38.7Y-73.025
X39.641Y-34.227
X39.641Y-76.227
X39.856Y-42.733
X39.856Y-84.733
X40.076Y-35.514
X40.076Y-77.514
X40.673Y-39.042
X40.673Y-81.042
X41.543Y-38.305
X41.543Y-80.305
X41.834Y-40.669
X41.834Y-82.669
X41.853Y-42.519
X41.853Y-84.519
X42.125Y-41.565
X42.125Y-83.565
X42.259Y-37.475
X42.259Y-79.475
X42.48Y-15.47
X42.48Y-57.47
X42.693Y-24.584
X42.693Y-66.584
X42.999Y-23.954
X42.999Y-65.954
X43.258Y-23.304
X43.258Y-65.304
X43.397Y-19.566
X43.397Y-61.566
X43.483Y-22.616
X43.483Y-64.616
X43.668Y-21.922
X43.668Y-63.922
X44.1Y-42.133
X44.1Y-84.133
X44.105Y-16.588
X44.105Y-58.588
X44.255Y-38.916
X44.255Y-80.916
X44.715Y-17.186
X44.715Y-59.186
X45.231Y-39.234
X45.231Y-81.234
X45.304Y-25.076
X45.304Y-67.076
X45.93Y-34.936
X45.93Y-76.936
X46.295Y-26.49
X46.295Y-68.49
X46.338Y-24.098
X46.338Y-66.098
X46.76Y-40.121
X46.76Y-82.121
X47.147Y-35.416
X47.147Y-77.416
X47.16Y-21.011
X47.16Y-63.011
X47.27Y-38.283
X47.27Y-80.283
X47.552Y-34.51
X47.552Y-76.51
X47.566Y-39.745
X47.566Y-81.745
X47.809Y-33.287
X47.809Y-75.287
X47.864Y-31.275
X47.864Y-73.275
X47.935Y-36.869
X47.935Y-78.869
X48.078Y-32.444
X48.078Y-74.444
X48.204Y-27.034
X48.204Y-69.034
X48.445Y-28.025
X48.445Y-70.025
X48.785Y-22.129
X48.785Y-64.129
X49.165Y-22.945
X49.165Y-64.945
X50.112Y-29.234
X50.112Y-71.234
X50.562Y-29.962
X50.562Y-71.962
M30
