%TF.GenerationSoftware,KiCad,Pcbnew,7.0.10-7.0.10~ubuntu22.04.1*%
%TF.CreationDate,2024-04-10T21:56:47+02:00*%
%TF.ProjectId,STM32_watch_NFC,53544d33-325f-4776-9174-63685f4e4643,rev?*%
%TF.SameCoordinates,Original*%
%TF.FileFunction,Paste,Bot*%
%TF.FilePolarity,Positive*%
%FSLAX46Y46*%
G04 Gerber Fmt 4.6, Leading zero omitted, Abs format (unit mm)*
G04 Created by KiCad (PCBNEW 7.0.10-7.0.10~ubuntu22.04.1) date 2024-04-10 21:56:47*
%MOMM*%
%LPD*%
G01*
G04 APERTURE LIST*
G04 Aperture macros list*
%AMRoundRect*
0 Rectangle with rounded corners*
0 $1 Rounding radius*
0 $2 $3 $4 $5 $6 $7 $8 $9 X,Y pos of 4 corners*
0 Add a 4 corners polygon primitive as box body*
4,1,4,$2,$3,$4,$5,$6,$7,$8,$9,$2,$3,0*
0 Add four circle primitives for the rounded corners*
1,1,$1+$1,$2,$3*
1,1,$1+$1,$4,$5*
1,1,$1+$1,$6,$7*
1,1,$1+$1,$8,$9*
0 Add four rect primitives between the rounded corners*
20,1,$1+$1,$2,$3,$4,$5,0*
20,1,$1+$1,$4,$5,$6,$7,0*
20,1,$1+$1,$6,$7,$8,$9,0*
20,1,$1+$1,$8,$9,$2,$3,0*%
%AMRotRect*
0 Rectangle, with rotation*
0 The origin of the aperture is its center*
0 $1 length*
0 $2 width*
0 $3 Rotation angle, in degrees counterclockwise*
0 Add horizontal line*
21,1,$1,$2,0,0,$3*%
%AMFreePoly0*
4,1,14,0.364320,0.111820,0.377500,0.080000,0.377501,0.053640,0.364318,0.021819,0.230680,-0.111820,0.198860,-0.125000,-0.332500,-0.125000,-0.364320,-0.111820,-0.377500,-0.080000,-0.377500,0.080000,-0.364320,0.111820,-0.332500,0.125000,0.332500,0.125000,0.364320,0.111820,0.364320,0.111820,$1*%
%AMFreePoly1*
4,1,14,0.230680,0.111820,0.364320,-0.021821,0.377500,-0.053642,0.377500,-0.080000,0.364320,-0.111820,0.332500,-0.125000,-0.332500,-0.125000,-0.364320,-0.111820,-0.377500,-0.080000,-0.377500,0.080000,-0.364320,0.111820,-0.332500,0.125000,0.198860,0.125000,0.230680,0.111820,0.230680,0.111820,$1*%
%AMFreePoly2*
4,1,14,0.111820,0.364320,0.125000,0.332500,0.125000,-0.332500,0.111820,-0.364320,0.080000,-0.377500,0.053640,-0.377501,0.021819,-0.364318,-0.111820,-0.230680,-0.125000,-0.198860,-0.125000,0.332500,-0.111820,0.364320,-0.080000,0.377500,0.080000,0.377500,0.111820,0.364320,0.111820,0.364320,$1*%
%AMFreePoly3*
4,1,14,0.111820,0.364320,0.125000,0.332500,0.125001,-0.198860,0.111818,-0.230680,-0.021820,-0.364320,-0.053640,-0.377500,-0.080000,-0.377500,-0.111820,-0.364320,-0.125000,-0.332500,-0.125000,0.332500,-0.111820,0.364320,-0.080000,0.377500,0.080000,0.377500,0.111820,0.364320,0.111820,0.364320,$1*%
%AMFreePoly4*
4,1,15,-0.198858,0.125000,0.332500,0.125000,0.364320,0.111820,0.377500,0.080000,0.377500,-0.080000,0.364320,-0.111820,0.332500,-0.125000,-0.332500,-0.125000,-0.364320,-0.111820,-0.377500,-0.080000,-0.377500,-0.053640,-0.364320,-0.021820,-0.230680,0.111820,-0.198860,0.125001,-0.198858,0.125000,-0.198858,0.125000,$1*%
%AMFreePoly5*
4,1,14,0.364320,0.111820,0.377500,0.080000,0.377500,-0.080000,0.364320,-0.111820,0.332500,-0.125000,-0.198860,-0.125001,-0.230680,-0.111818,-0.364320,0.021820,-0.377500,0.053640,-0.377500,0.080000,-0.364320,0.111820,-0.332500,0.125000,0.332500,0.125000,0.364320,0.111820,0.364320,0.111820,$1*%
%AMFreePoly6*
4,1,14,-0.021820,0.364320,0.111820,0.230679,0.125001,0.198860,0.125000,-0.332500,0.111820,-0.364320,0.080000,-0.377500,-0.080000,-0.377500,-0.111820,-0.364320,-0.125000,-0.332500,-0.125000,0.332500,-0.111820,0.364320,-0.080000,0.377500,-0.053640,0.377500,-0.021820,0.364320,-0.021820,0.364320,$1*%
%AMFreePoly7*
4,1,15,0.053642,0.377500,0.080000,0.377500,0.111820,0.364320,0.125000,0.332500,0.125000,-0.332500,0.111820,-0.364320,0.080000,-0.377500,-0.080000,-0.377500,-0.111820,-0.364320,-0.125000,-0.332500,-0.125000,0.198860,-0.111820,0.230680,0.021820,0.364320,0.053640,0.377501,0.053642,0.377500,0.053642,0.377500,$1*%
G04 Aperture macros list end*
%ADD10C,0.010000*%
%ADD11FreePoly0,45.000000*%
%ADD12RoundRect,0.062500X-0.220971X-0.309359X0.309359X0.220971X0.220971X0.309359X-0.309359X-0.220971X0*%
%ADD13FreePoly1,45.000000*%
%ADD14FreePoly2,45.000000*%
%ADD15RoundRect,0.062500X0.220971X-0.309359X0.309359X-0.220971X-0.220971X0.309359X-0.309359X0.220971X0*%
%ADD16FreePoly3,45.000000*%
%ADD17FreePoly4,45.000000*%
%ADD18FreePoly5,45.000000*%
%ADD19FreePoly6,45.000000*%
%ADD20FreePoly7,45.000000*%
%ADD21RoundRect,0.187500X0.618718X0.883883X-0.883883X-0.618718X-0.618718X-0.883883X0.883883X0.618718X0*%
%ADD22RoundRect,0.007800X-0.205061X-0.377878X0.377878X0.205061X0.205061X0.377878X-0.377878X-0.205061X0*%
%ADD23RoundRect,0.026000X0.205061X-0.352139X0.352139X-0.205061X-0.205061X0.352139X-0.352139X0.205061X0*%
%ADD24RoundRect,0.079500X-0.079500X-0.100500X0.079500X-0.100500X0.079500X0.100500X-0.079500X0.100500X0*%
%ADD25RoundRect,0.218750X0.381250X-0.218750X0.381250X0.218750X-0.381250X0.218750X-0.381250X-0.218750X0*%
%ADD26RoundRect,0.135000X0.226274X0.035355X0.035355X0.226274X-0.226274X-0.035355X-0.035355X-0.226274X0*%
%ADD27RoundRect,0.125000X-0.176777X0.353553X-0.353553X0.176777X0.176777X-0.353553X0.353553X-0.176777X0*%
%ADD28RoundRect,0.250000X-0.176777X0.671751X-0.671751X0.176777X0.176777X-0.671751X0.671751X-0.176777X0*%
%ADD29RoundRect,0.140000X0.140000X0.170000X-0.140000X0.170000X-0.140000X-0.170000X0.140000X-0.170000X0*%
%ADD30RoundRect,0.150000X0.150000X-0.512500X0.150000X0.512500X-0.150000X0.512500X-0.150000X-0.512500X0*%
%ADD31RoundRect,0.140000X-0.140000X-0.170000X0.140000X-0.170000X0.140000X0.170000X-0.140000X0.170000X0*%
%ADD32RoundRect,0.140000X-0.170000X0.140000X-0.170000X-0.140000X0.170000X-0.140000X0.170000X0.140000X0*%
%ADD33RoundRect,0.079500X0.127279X0.014849X0.014849X0.127279X-0.127279X-0.014849X-0.014849X-0.127279X0*%
%ADD34RotRect,1.550000X1.000000X44.000000*%
%ADD35RoundRect,0.140000X0.219203X0.021213X0.021213X0.219203X-0.219203X-0.021213X-0.021213X-0.219203X0*%
%ADD36RoundRect,0.135000X-0.226274X-0.035355X-0.035355X-0.226274X0.226274X0.035355X0.035355X0.226274X0*%
%ADD37RoundRect,0.225000X-0.225000X-0.250000X0.225000X-0.250000X0.225000X0.250000X-0.225000X0.250000X0*%
%ADD38RoundRect,0.250000X0.503814X0.132583X0.132583X0.503814X-0.503814X-0.132583X-0.132583X-0.503814X0*%
%ADD39RoundRect,0.225000X-0.335876X-0.017678X-0.017678X-0.335876X0.335876X0.017678X0.017678X0.335876X0*%
%ADD40RoundRect,0.135000X-0.185000X0.135000X-0.185000X-0.135000X0.185000X-0.135000X0.185000X0.135000X0*%
%ADD41RoundRect,0.140000X0.170000X-0.140000X0.170000X0.140000X-0.170000X0.140000X-0.170000X-0.140000X0*%
%ADD42RoundRect,0.225000X-0.017678X0.335876X-0.335876X0.017678X0.017678X-0.335876X0.335876X-0.017678X0*%
%ADD43RoundRect,0.140000X-0.219203X-0.021213X-0.021213X-0.219203X0.219203X0.021213X0.021213X0.219203X0*%
%ADD44RoundRect,0.218750X-0.381250X0.218750X-0.381250X-0.218750X0.381250X-0.218750X0.381250X0.218750X0*%
%ADD45RoundRect,0.175000X0.425000X-0.175000X0.425000X0.175000X-0.425000X0.175000X-0.425000X-0.175000X0*%
%ADD46RoundRect,0.190000X-0.410000X0.190000X-0.410000X-0.190000X0.410000X-0.190000X0.410000X0.190000X0*%
%ADD47RoundRect,0.200000X-0.400000X0.200000X-0.400000X-0.200000X0.400000X-0.200000X0.400000X0.200000X0*%
%ADD48RoundRect,0.175000X-0.425000X0.175000X-0.425000X-0.175000X0.425000X-0.175000X0.425000X0.175000X0*%
%ADD49RoundRect,0.190000X0.410000X-0.190000X0.410000X0.190000X-0.410000X0.190000X-0.410000X-0.190000X0*%
%ADD50RoundRect,0.200000X0.400000X-0.200000X0.400000X0.200000X-0.400000X0.200000X-0.400000X-0.200000X0*%
%ADD51RoundRect,0.250000X0.500000X-0.650000X0.500000X0.650000X-0.500000X0.650000X-0.500000X-0.650000X0*%
%ADD52RoundRect,0.250000X0.425000X-0.650000X0.425000X0.650000X-0.425000X0.650000X-0.425000X-0.650000X0*%
%ADD53RoundRect,0.140000X-0.021213X0.219203X-0.219203X0.021213X0.021213X-0.219203X0.219203X-0.021213X0*%
%ADD54RoundRect,0.079500X-0.014849X0.127279X-0.127279X0.014849X0.014849X-0.127279X0.127279X-0.014849X0*%
%ADD55RoundRect,0.135000X-0.035355X0.226274X-0.226274X0.035355X0.035355X-0.226274X0.226274X-0.035355X0*%
%ADD56RoundRect,0.135000X0.135000X0.185000X-0.135000X0.185000X-0.135000X-0.185000X0.135000X-0.185000X0*%
%ADD57RoundRect,0.135000X0.035355X-0.226274X0.226274X-0.035355X-0.035355X0.226274X-0.226274X0.035355X0*%
%ADD58RoundRect,0.079500X0.014849X-0.127279X0.127279X-0.014849X-0.014849X0.127279X-0.127279X0.014849X0*%
%ADD59RoundRect,0.250000X-0.450000X0.262500X-0.450000X-0.262500X0.450000X-0.262500X0.450000X0.262500X0*%
%ADD60RotRect,1.550000X1.000000X139.000000*%
%ADD61RoundRect,0.150000X0.256326X0.468458X-0.468458X-0.256326X-0.256326X-0.468458X0.468458X0.256326X0*%
%ADD62RoundRect,0.162500X0.201525X0.431335X-0.431335X-0.201525X-0.201525X-0.431335X0.431335X0.201525X0*%
%ADD63RoundRect,0.225000X0.225000X0.250000X-0.225000X0.250000X-0.225000X-0.250000X0.225000X-0.250000X0*%
%ADD64R,1.400000X1.200000*%
%ADD65RoundRect,0.225000X0.335876X0.017678X0.017678X0.335876X-0.335876X-0.017678X-0.017678X-0.335876X0*%
%ADD66RoundRect,0.079500X-0.125933X-0.023692X-0.005935X-0.128005X0.125933X0.023692X0.005935X0.128005X0*%
%ADD67RoundRect,0.079500X-0.127279X-0.014849X-0.014849X-0.127279X0.127279X0.014849X0.014849X0.127279X0*%
%ADD68RoundRect,0.250000X-0.493338X-0.167404X-0.097115X-0.511835X0.493338X0.167404X0.097115X0.511835X0*%
%ADD69RoundRect,0.135000X-0.135000X-0.185000X0.135000X-0.185000X0.135000X0.185000X-0.135000X0.185000X0*%
%ADD70R,1.000000X1.550000*%
%ADD71RoundRect,0.140000X0.021213X-0.219203X0.219203X-0.021213X-0.021213X0.219203X-0.219203X0.021213X0*%
%ADD72RoundRect,0.100000X-0.225000X-0.100000X0.225000X-0.100000X0.225000X0.100000X-0.225000X0.100000X0*%
%ADD73RotRect,1.200000X0.600000X135.000000*%
%ADD74RoundRect,0.150000X0.247487X0.035355X0.035355X0.247487X-0.247487X-0.035355X-0.035355X-0.247487X0*%
%ADD75RoundRect,0.218750X0.026517X-0.335876X0.335876X-0.026517X-0.026517X0.335876X-0.335876X0.026517X0*%
%ADD76RoundRect,0.079500X-0.100500X0.079500X-0.100500X-0.079500X0.100500X-0.079500X0.100500X0.079500X0*%
G04 APERTURE END LIST*
%TO.C,U3*%
D10*
X157869777Y-100200000D02*
X156300000Y-101769777D01*
X154730223Y-100200000D01*
X156300000Y-98630223D01*
X157869777Y-100200000D01*
G36*
X157869777Y-100200000D02*
G01*
X156300000Y-101769777D01*
X154730223Y-100200000D01*
X156300000Y-98630223D01*
X157869777Y-100200000D01*
G37*
%TD*%
D11*
%TO.C,U1*%
X148148214Y-107473106D03*
D12*
X147837087Y-107077126D03*
X147483534Y-106723573D03*
X147129981Y-106370019D03*
X146776427Y-106016466D03*
X146422874Y-105662913D03*
D13*
X146026894Y-105351786D03*
D14*
X146026894Y-104648214D03*
D15*
X146422874Y-104337087D03*
X146776427Y-103983534D03*
X147129981Y-103629981D03*
X147483534Y-103276427D03*
X147837087Y-102922874D03*
D16*
X148148214Y-102526894D03*
D17*
X148851786Y-102526894D03*
D12*
X149162913Y-102922874D03*
X149516466Y-103276427D03*
X149870019Y-103629981D03*
X150223573Y-103983534D03*
X150577126Y-104337087D03*
D18*
X150973106Y-104648214D03*
D19*
X150973106Y-105351786D03*
D15*
X150577126Y-105662913D03*
X150223573Y-106016466D03*
X149870019Y-106370019D03*
X149516466Y-106723573D03*
X149162913Y-107077126D03*
D20*
X148851786Y-107473106D03*
%TD*%
D21*
%TO.C,L1*%
X144520495Y-114795495D03*
X142929505Y-113204505D03*
%TD*%
D22*
%TO.C,U3*%
X155815632Y-103159242D03*
X155462078Y-102805688D03*
X155108525Y-102452135D03*
X154754972Y-102098582D03*
X154401418Y-101745028D03*
X154047865Y-101391475D03*
X153694312Y-101037922D03*
X153340758Y-100684368D03*
D23*
X153340758Y-99715632D03*
X153694312Y-99362078D03*
X154047865Y-99008525D03*
X154401418Y-98654972D03*
X154754972Y-98301418D03*
X155108525Y-97947865D03*
X155462078Y-97594312D03*
X155815632Y-97240758D03*
D22*
X156784368Y-97240758D03*
X157137922Y-97594312D03*
X157491475Y-97947865D03*
X157845028Y-98301418D03*
X158198582Y-98654972D03*
X158552135Y-99008525D03*
X158905688Y-99362078D03*
X159259242Y-99715632D03*
D23*
X159259242Y-100684368D03*
X158905688Y-101037922D03*
X158552135Y-101391475D03*
X158198582Y-101745028D03*
X157845028Y-102098582D03*
X157491475Y-102452135D03*
X157137922Y-102805688D03*
X156784368Y-103159242D03*
%TD*%
D24*
%TO.C,C31*%
X155955000Y-105100000D03*
X156645000Y-105100000D03*
%TD*%
D25*
%TO.C,L2*%
X149900000Y-94125000D03*
X149900000Y-92000000D03*
%TD*%
D26*
%TO.C,R9*%
X152260624Y-114560624D03*
X151539376Y-113839376D03*
%TD*%
D27*
%TO.C,Li-po1*%
X143169670Y-118603984D03*
X142603984Y-119169670D03*
D28*
X145467767Y-119063604D03*
X143063604Y-121467767D03*
%TD*%
D29*
%TO.C,C54*%
X152460000Y-93100000D03*
X151500000Y-93100000D03*
%TD*%
D30*
%TO.C,ME4055A1*%
X140550000Y-112037500D03*
X139600000Y-112037500D03*
X138650000Y-112037500D03*
X138650000Y-109762500D03*
X139600000Y-109762500D03*
X140550000Y-109762500D03*
%TD*%
D31*
%TO.C,C49*%
X153420000Y-105500000D03*
X154380000Y-105500000D03*
%TD*%
D32*
%TO.C,C10*%
X137300000Y-101400000D03*
X137300000Y-102360000D03*
%TD*%
D33*
%TO.C,C1*%
X150343952Y-102243952D03*
X149856048Y-101756048D03*
%TD*%
D34*
%TO.C,SW3*%
X137797807Y-89565083D03*
X134021273Y-93212039D03*
X138978727Y-90787961D03*
X135202193Y-94434917D03*
%TD*%
D35*
%TO.C,C37*%
X153039411Y-102339411D03*
X152360589Y-101660589D03*
%TD*%
D24*
%TO.C,C2*%
X148155000Y-109250000D03*
X148845000Y-109250000D03*
%TD*%
D35*
%TO.C,C35*%
X155078822Y-104178822D03*
X154400000Y-103500000D03*
%TD*%
D36*
%TO.C,R11*%
X139739376Y-88239376D03*
X140460624Y-88960624D03*
%TD*%
D37*
%TO.C,C24*%
X136325000Y-107000000D03*
X137875000Y-107000000D03*
%TD*%
D35*
%TO.C,C8*%
X142339411Y-108939411D03*
X141660589Y-108260589D03*
%TD*%
D38*
%TO.C,R8*%
X154645235Y-114445235D03*
X153354765Y-113154765D03*
%TD*%
D39*
%TO.C,C26*%
X146351992Y-117051992D03*
X147448008Y-118148008D03*
%TD*%
D40*
%TO.C,R3*%
X150900000Y-109290000D03*
X150900000Y-110310000D03*
%TD*%
D41*
%TO.C,C51*%
X147300000Y-90380000D03*
X147300000Y-89420000D03*
%TD*%
D42*
%TO.C,C4*%
X147548008Y-100251992D03*
X146451992Y-101348008D03*
%TD*%
D43*
%TO.C,C45*%
X150960589Y-100260589D03*
X151639411Y-100939411D03*
%TD*%
D44*
%TO.C,L3*%
X147600000Y-91975000D03*
X147600000Y-94100000D03*
%TD*%
D45*
%TO.C,J2*%
X134385000Y-105500000D03*
D46*
X134385000Y-103480000D03*
D47*
X134385000Y-102250000D03*
D48*
X134385000Y-104500000D03*
D49*
X134385000Y-106520000D03*
D50*
X134385000Y-107750000D03*
D51*
X130750000Y-110125000D03*
D52*
X134330000Y-110125000D03*
D51*
X130750000Y-99875000D03*
D52*
X134330000Y-99875000D03*
%TD*%
D31*
%TO.C,C57*%
X145120000Y-91500000D03*
X146080000Y-91500000D03*
%TD*%
%TO.C,C52*%
X151500000Y-94200000D03*
X152460000Y-94200000D03*
%TD*%
D53*
%TO.C,C39*%
X153500000Y-97400000D03*
X152821178Y-98078822D03*
%TD*%
D54*
%TO.C,C28*%
X142943952Y-88156048D03*
X142456048Y-88643952D03*
%TD*%
D26*
%TO.C,R1*%
X152960624Y-119360624D03*
X152239376Y-118639376D03*
%TD*%
D54*
%TO.C,C7*%
X148543952Y-111256048D03*
X148056048Y-111743952D03*
%TD*%
D41*
%TO.C,C58*%
X145100000Y-90380000D03*
X145100000Y-89420000D03*
%TD*%
D33*
%TO.C,C42*%
X150743952Y-96943952D03*
X150256048Y-96456048D03*
%TD*%
D32*
%TO.C,C48*%
X157900000Y-107920000D03*
X157900000Y-108880000D03*
%TD*%
D55*
%TO.C,R10*%
X141760624Y-89339376D03*
X141039376Y-90060624D03*
%TD*%
D56*
%TO.C,R15*%
X166210000Y-109700000D03*
X165190000Y-109700000D03*
%TD*%
D33*
%TO.C,C44*%
X150843952Y-101543952D03*
X150356048Y-101056048D03*
%TD*%
D57*
%TO.C,R13*%
X132539376Y-115060624D03*
X133260624Y-114339376D03*
%TD*%
D35*
%TO.C,C46*%
X161000000Y-99500000D03*
X160321178Y-98821178D03*
%TD*%
D43*
%TO.C,C43*%
X151360589Y-97960589D03*
X152039411Y-98639411D03*
%TD*%
D35*
%TO.C,C9*%
X144539411Y-106539411D03*
X143860589Y-105860589D03*
%TD*%
D41*
%TO.C,C60*%
X151400000Y-90380000D03*
X151400000Y-89420000D03*
%TD*%
D27*
%TO.C,J1*%
X161401041Y-114872614D03*
X160835355Y-115438299D03*
X160269670Y-116003984D03*
X159703984Y-116569670D03*
X159138299Y-117135355D03*
X158572614Y-117701041D03*
D28*
X163699138Y-115332233D03*
X159032233Y-119999138D03*
%TD*%
D58*
%TO.C,C38*%
X152156048Y-97443952D03*
X152643952Y-96956048D03*
%TD*%
D59*
%TO.C,R14*%
X163000000Y-108787500D03*
X163000000Y-110612500D03*
%TD*%
D32*
%TO.C,C6*%
X149800000Y-109320000D03*
X149800000Y-110280000D03*
%TD*%
D60*
%TO.C,SW1*%
X133961237Y-116919348D03*
X137923462Y-120363658D03*
X135076538Y-115636342D03*
X139038763Y-119080652D03*
%TD*%
D61*
%TO.C,U4*%
X148732583Y-113423915D03*
X149404334Y-114095666D03*
X150076085Y-114767417D03*
X148467417Y-116376085D03*
X147795666Y-115704334D03*
X147123915Y-115032583D03*
%TD*%
D57*
%TO.C,R17*%
X151139376Y-117760624D03*
X151860624Y-117039376D03*
%TD*%
D62*
%TO.C,Q1*%
X151154558Y-119601939D03*
X152498061Y-120945442D03*
X149973690Y-122126310D03*
%TD*%
D32*
%TO.C,C11*%
X141900000Y-101000000D03*
X141900000Y-101960000D03*
%TD*%
D29*
%TO.C,C55*%
X146100000Y-94200000D03*
X145140000Y-94200000D03*
%TD*%
D63*
%TO.C,C25*%
X137000000Y-112450000D03*
X135450000Y-112450000D03*
%TD*%
D64*
%TO.C,Y1*%
X156300000Y-108600000D03*
X154100000Y-108600000D03*
X154100000Y-106900000D03*
X156300000Y-106900000D03*
%TD*%
D54*
%TO.C,C40*%
X150043952Y-98256048D03*
X149556048Y-98743952D03*
%TD*%
D65*
%TO.C,C27*%
X154648008Y-117548008D03*
X153551992Y-116451992D03*
%TD*%
D66*
%TO.C,C29*%
X135894625Y-113773660D03*
X136415375Y-114226340D03*
%TD*%
D67*
%TO.C,C47*%
X161256048Y-98336048D03*
X161743952Y-98823952D03*
%TD*%
D32*
%TO.C,C59*%
X152500000Y-89440000D03*
X152500000Y-90400000D03*
%TD*%
D53*
%TO.C,C5*%
X142719411Y-103260589D03*
X142040589Y-103939411D03*
%TD*%
D67*
%TO.C,C34*%
X153556048Y-103956048D03*
X154043952Y-104443952D03*
%TD*%
%TO.C,C36*%
X151756048Y-102356048D03*
X152243952Y-102843952D03*
%TD*%
D41*
%TO.C,C56*%
X146200000Y-90380000D03*
X146200000Y-89420000D03*
%TD*%
D57*
%TO.C,R6*%
X147539376Y-121160624D03*
X148260624Y-120439376D03*
%TD*%
D68*
%TO.C,R12*%
X137711328Y-114601346D03*
X139088672Y-115798654D03*
%TD*%
D56*
%TO.C,R5*%
X137110000Y-104500000D03*
X136090000Y-104500000D03*
%TD*%
D43*
%TO.C,C3*%
X145660589Y-106760589D03*
X146339411Y-107439411D03*
%TD*%
D69*
%TO.C,R4*%
X136090000Y-105500000D03*
X137110000Y-105500000D03*
%TD*%
D55*
%TO.C,R2*%
X154460624Y-120939376D03*
X153739376Y-121660624D03*
%TD*%
D70*
%TO.C,SW2*%
X167350000Y-107625000D03*
X167350000Y-102375000D03*
X165650000Y-107625000D03*
X165650000Y-102375000D03*
%TD*%
D29*
%TO.C,C61*%
X152480000Y-91500000D03*
X151520000Y-91500000D03*
%TD*%
D41*
%TO.C,C50*%
X150300000Y-90380000D03*
X150300000Y-89420000D03*
%TD*%
D71*
%TO.C,C41*%
X150221178Y-99478822D03*
X150900000Y-98800000D03*
%TD*%
D72*
%TO.C,U2*%
X138710000Y-102130000D03*
X138710000Y-101480000D03*
X138710000Y-100830000D03*
X140610000Y-100830000D03*
X140610000Y-102130000D03*
%TD*%
D40*
%TO.C,R7*%
X142200000Y-110590000D03*
X142200000Y-111610000D03*
%TD*%
D73*
%TO.C,Y2*%
X146263604Y-111236396D03*
X141808832Y-106781624D03*
X142445228Y-106145228D03*
X146900000Y-110600000D03*
%TD*%
D74*
%TO.C,D13*%
X140305025Y-114405025D03*
X141294975Y-115394975D03*
%TD*%
D75*
%TO.C,FB1*%
X143143153Y-104856847D03*
X144256847Y-103743153D03*
%TD*%
D31*
%TO.C,C53*%
X145120000Y-93100000D03*
X146080000Y-93100000D03*
%TD*%
D76*
%TO.C,C30*%
X163000000Y-106900000D03*
X163000000Y-107590000D03*
%TD*%
D57*
%TO.C,R16*%
X149339376Y-117760624D03*
X150060624Y-117039376D03*
%TD*%
M02*
