%TF.GenerationSoftware,KiCad,Pcbnew,8.0.9-8.0.9-0~ubuntu24.04.1*%
%TF.CreationDate,2025-06-26T14:03:13+02:00*%
%TF.ProjectId,STM32_watch_NFC,53544d33-325f-4776-9174-63685f4e4643,rev?*%
%TF.SameCoordinates,Original*%
%TF.FileFunction,Legend,Top*%
%TF.FilePolarity,Positive*%
%FSLAX46Y46*%
G04 Gerber Fmt 4.6, Leading zero omitted, Abs format (unit mm)*
G04 Created by KiCad (PCBNEW 8.0.9-8.0.9-0~ubuntu24.04.1) date 2025-06-26 14:03:13*
%MOMM*%
%LPD*%
G01*
G04 APERTURE LIST*
G04 Aperture macros list*
%AMRoundRect*
0 Rectangle with rounded corners*
0 $1 Rounding radius*
0 $2 $3 $4 $5 $6 $7 $8 $9 X,Y pos of 4 corners*
0 Add a 4 corners polygon primitive as box body*
4,1,4,$2,$3,$4,$5,$6,$7,$8,$9,$2,$3,0*
0 Add four circle primitives for the rounded corners*
1,1,$1+$1,$2,$3*
1,1,$1+$1,$4,$5*
1,1,$1+$1,$6,$7*
1,1,$1+$1,$8,$9*
0 Add four rect primitives between the rounded corners*
20,1,$1+$1,$2,$3,$4,$5,0*
20,1,$1+$1,$4,$5,$6,$7,0*
20,1,$1+$1,$6,$7,$8,$9,0*
20,1,$1+$1,$8,$9,$2,$3,0*%
G04 Aperture macros list end*
%ADD10C,0.150000*%
%ADD11C,0.120000*%
%ADD12C,0.100000*%
%ADD13C,0.127000*%
%ADD14C,0.000000*%
%ADD15RoundRect,0.125000X0.125000X0.125000X-0.125000X0.125000X-0.125000X-0.125000X0.125000X-0.125000X0*%
%ADD16RoundRect,0.147500X-0.147500X-0.172500X0.147500X-0.172500X0.147500X0.172500X-0.147500X0.172500X0*%
%ADD17RoundRect,0.100000X0.130000X0.100000X-0.130000X0.100000X-0.130000X-0.100000X0.130000X-0.100000X0*%
%ADD18RoundRect,0.147500X0.172500X-0.147500X0.172500X0.147500X-0.172500X0.147500X-0.172500X-0.147500X0*%
%ADD19RoundRect,0.125000X-0.125000X-0.125000X0.125000X-0.125000X0.125000X0.125000X-0.125000X0.125000X0*%
%ADD20RoundRect,0.140000X-0.170000X0.140000X-0.170000X-0.140000X0.170000X-0.140000X0.170000X0.140000X0*%
%ADD21RoundRect,0.102000X-0.275000X-0.125000X0.275000X-0.125000X0.275000X0.125000X-0.275000X0.125000X0*%
%ADD22RoundRect,0.135000X0.185000X-0.135000X0.185000X0.135000X-0.185000X0.135000X-0.185000X-0.135000X0*%
G04 APERTURE END LIST*
D10*
X148500000Y-105000000D02*
X148500000Y-105500000D01*
X149000000Y-105000000D02*
X148500000Y-105000000D01*
X148500000Y-105000000D02*
X148000000Y-105000000D01*
X148500000Y-105000000D02*
X149000000Y-105000000D01*
X148500000Y-105000000D02*
X148500000Y-104500000D01*
X148500000Y-104500000D02*
X148500000Y-105000000D01*
D11*
%TO.C,D11*%
X136340000Y-96820000D02*
X136990000Y-96820000D01*
X136340000Y-96820000D02*
X136340000Y-97470000D01*
D12*
%TO.C,D26*%
X143945000Y-105000000D02*
G75*
G02*
X143845000Y-105000000I-50000J0D01*
G01*
X143845000Y-105000000D02*
G75*
G02*
X143945000Y-105000000I50000J0D01*
G01*
%TO.C,D29*%
X153550000Y-107575000D02*
G75*
G02*
X153450000Y-107575000I-50000J0D01*
G01*
X153450000Y-107575000D02*
G75*
G02*
X153550000Y-107575000I50000J0D01*
G01*
%TO.C,D33*%
X150660000Y-105000000D02*
G75*
G02*
X150560000Y-105000000I-50000J0D01*
G01*
X150560000Y-105000000D02*
G75*
G02*
X150660000Y-105000000I50000J0D01*
G01*
%TO.C,D40*%
X155695000Y-105000000D02*
G75*
G02*
X155595000Y-105000000I-50000J0D01*
G01*
X155595000Y-105000000D02*
G75*
G02*
X155695000Y-105000000I50000J0D01*
G01*
%TO.C,D19*%
X138910000Y-105000000D02*
G75*
G02*
X138810000Y-105000000I-50000J0D01*
G01*
X138810000Y-105000000D02*
G75*
G02*
X138910000Y-105000000I50000J0D01*
G01*
%TO.C,D15*%
X141800000Y-107575000D02*
G75*
G02*
X141700000Y-107575000I-50000J0D01*
G01*
X141700000Y-107575000D02*
G75*
G02*
X141800000Y-107575000I50000J0D01*
G01*
%TO.C,D36*%
X158550000Y-107575000D02*
G75*
G02*
X158450000Y-107575000I-50000J0D01*
G01*
X158450000Y-107575000D02*
G75*
G02*
X158550000Y-107575000I50000J0D01*
G01*
D11*
%TO.C,D4*%
X163445786Y-105975000D02*
X162795786Y-105975000D01*
X163445786Y-105975000D02*
X163445786Y-105325000D01*
D12*
%TO.C,D18*%
X138300000Y-104575000D02*
G75*
G02*
X138200000Y-104575000I-50000J0D01*
G01*
X138200000Y-104575000D02*
G75*
G02*
X138300000Y-104575000I50000J0D01*
G01*
D11*
%TO.C,D9*%
X138260000Y-113175000D02*
X137610000Y-113175000D01*
X138260000Y-113175000D02*
X138260000Y-112525000D01*
%TO.C,D10*%
X133554214Y-104025000D02*
X133554214Y-104675000D01*
X133554214Y-104025000D02*
X134204214Y-104025000D01*
%TO.C,C2*%
X150840000Y-110272164D02*
X150840000Y-110487836D01*
X151560000Y-110272164D02*
X151560000Y-110487836D01*
D12*
%TO.C,D30*%
X150660000Y-108250000D02*
G75*
G02*
X150560000Y-108250000I-50000J0D01*
G01*
X150560000Y-108250000D02*
G75*
G02*
X150660000Y-108250000I50000J0D01*
G01*
%TO.C,D37*%
X155695000Y-108250000D02*
G75*
G02*
X155595000Y-108250000I-50000J0D01*
G01*
X155595000Y-108250000D02*
G75*
G02*
X155695000Y-108250000I50000J0D01*
G01*
%TO.C,D27*%
X150660000Y-101750000D02*
G75*
G02*
X150560000Y-101750000I-50000J0D01*
G01*
X150560000Y-101750000D02*
G75*
G02*
X150660000Y-101750000I50000J0D01*
G01*
D11*
%TO.C,D2*%
X153426160Y-93125000D02*
X153426160Y-93775000D01*
X153426160Y-93125000D02*
X154076160Y-93125000D01*
D12*
%TO.C,D25*%
X143300000Y-104570000D02*
G75*
G02*
X143200000Y-104570000I-50000J0D01*
G01*
X143200000Y-104570000D02*
G75*
G02*
X143300000Y-104570000I50000J0D01*
G01*
%TO.C,D24*%
X143300000Y-107575000D02*
G75*
G02*
X143200000Y-107575000I-50000J0D01*
G01*
X143200000Y-107575000D02*
G75*
G02*
X143300000Y-107575000I50000J0D01*
G01*
%TO.C,D17*%
X138300000Y-107575000D02*
G75*
G02*
X138200000Y-107575000I-50000J0D01*
G01*
X138200000Y-107575000D02*
G75*
G02*
X138300000Y-107575000I50000J0D01*
G01*
D13*
%TO.C,U1*%
X147720000Y-111100000D02*
X149280000Y-111100000D01*
X149280000Y-109500000D02*
X147720000Y-109500000D01*
D12*
X146450000Y-109775000D02*
G75*
G02*
X146350000Y-109775000I-50000J0D01*
G01*
X146350000Y-109775000D02*
G75*
G02*
X146450000Y-109775000I50000J0D01*
G01*
%TO.C,D31*%
X150050000Y-107575000D02*
G75*
G02*
X149950000Y-107575000I-50000J0D01*
G01*
X149950000Y-107575000D02*
G75*
G02*
X150050000Y-107575000I50000J0D01*
G01*
%TO.C,D20*%
X143945000Y-101750000D02*
G75*
G02*
X143845000Y-101750000I-50000J0D01*
G01*
X143845000Y-101750000D02*
G75*
G02*
X143945000Y-101750000I50000J0D01*
G01*
%TO.C,D34*%
X155695000Y-101750000D02*
G75*
G02*
X155595000Y-101750000I-50000J0D01*
G01*
X155595000Y-101750000D02*
G75*
G02*
X155695000Y-101750000I50000J0D01*
G01*
%TO.C,D14*%
X141800000Y-104575000D02*
G75*
G02*
X141700000Y-104575000I-50000J0D01*
G01*
X141700000Y-104575000D02*
G75*
G02*
X141800000Y-104575000I50000J0D01*
G01*
D11*
%TO.C,D12*%
X141652440Y-93125000D02*
X141652440Y-93775000D01*
X141652440Y-93125000D02*
X142302440Y-93125000D01*
%TO.C,D8*%
X143572440Y-116875000D02*
X142922440Y-116875000D01*
X143572440Y-116875000D02*
X143572440Y-116225000D01*
D14*
%TO.C,G\u002A\u002A\u002A*%
G36*
X149410539Y-99580558D02*
G01*
X149416218Y-99581386D01*
X149441203Y-99588461D01*
X149463576Y-99600143D01*
X149482737Y-99615905D01*
X149498081Y-99635219D01*
X149509008Y-99657558D01*
X149511303Y-99664664D01*
X149511976Y-99667428D01*
X149512578Y-99670983D01*
X149513111Y-99675630D01*
X149513580Y-99681670D01*
X149513986Y-99689404D01*
X149514334Y-99699133D01*
X149514626Y-99711159D01*
X149514864Y-99725782D01*
X149515053Y-99743303D01*
X149515195Y-99764024D01*
X149515294Y-99788246D01*
X149515351Y-99816270D01*
X149515371Y-99848397D01*
X149515356Y-99884928D01*
X149515310Y-99926164D01*
X149515235Y-99972407D01*
X149515134Y-100023957D01*
X149515099Y-100040960D01*
X149514332Y-100401376D01*
X149506528Y-100418043D01*
X149493076Y-100440481D01*
X149475901Y-100459014D01*
X149455668Y-100473318D01*
X149433038Y-100483068D01*
X149408676Y-100487941D01*
X149383243Y-100487611D01*
X149369281Y-100485152D01*
X149353741Y-100479697D01*
X149337273Y-100470974D01*
X149322224Y-100460383D01*
X149312756Y-100451472D01*
X149305234Y-100441703D01*
X149297492Y-100429585D01*
X149292290Y-100419906D01*
X149283423Y-100401376D01*
X149283423Y-100033632D01*
X149283423Y-99665888D01*
X149292594Y-99647148D01*
X149305608Y-99626508D01*
X149322452Y-99609060D01*
X149342247Y-99595274D01*
X149364113Y-99585616D01*
X149387170Y-99580555D01*
X149410539Y-99580558D01*
G37*
G36*
X148946192Y-99851641D02*
G01*
X148960906Y-99851939D01*
X148972531Y-99852587D01*
X148982372Y-99853710D01*
X148991735Y-99855433D01*
X149001924Y-99857880D01*
X149006902Y-99859191D01*
X149046746Y-99872750D01*
X149084482Y-99891388D01*
X149119566Y-99914699D01*
X149151455Y-99942280D01*
X149179606Y-99973726D01*
X149199956Y-100002817D01*
X149219167Y-100039109D01*
X149233305Y-100077401D01*
X149242369Y-100117085D01*
X149246352Y-100157551D01*
X149245251Y-100198189D01*
X149239062Y-100238390D01*
X149227780Y-100277545D01*
X149211401Y-100315045D01*
X149202224Y-100331456D01*
X149177551Y-100367182D01*
X149149056Y-100398778D01*
X149117010Y-100426041D01*
X149081681Y-100448768D01*
X149043340Y-100466757D01*
X149006268Y-100478783D01*
X148985424Y-100482983D01*
X148961103Y-100485888D01*
X148935179Y-100487427D01*
X148909524Y-100487527D01*
X148886012Y-100486119D01*
X148870510Y-100483954D01*
X148829524Y-100473490D01*
X148791321Y-100458345D01*
X148756113Y-100438920D01*
X148724116Y-100415618D01*
X148695543Y-100388839D01*
X148670608Y-100358987D01*
X148649526Y-100326463D01*
X148632510Y-100291670D01*
X148619775Y-100255008D01*
X148611534Y-100216882D01*
X148608001Y-100177691D01*
X148608530Y-100162525D01*
X148845039Y-100162525D01*
X148845076Y-100177896D01*
X148846745Y-100191929D01*
X148849376Y-100200940D01*
X148856970Y-100213633D01*
X148868106Y-100226492D01*
X148880981Y-100237692D01*
X148892873Y-100244990D01*
X148910705Y-100250508D01*
X148930345Y-100251884D01*
X148949684Y-100249122D01*
X148961522Y-100244912D01*
X148979247Y-100233670D01*
X148994176Y-100218202D01*
X149003254Y-100203613D01*
X149007138Y-100193893D01*
X149009158Y-100183317D01*
X149009753Y-100169541D01*
X149009753Y-100169042D01*
X149007927Y-100148921D01*
X149002042Y-100131814D01*
X148991488Y-100116197D01*
X148986381Y-100110597D01*
X148970518Y-100098134D01*
X148951956Y-100089923D01*
X148931959Y-100086200D01*
X148911791Y-100087203D01*
X148892873Y-100093093D01*
X148879377Y-100101566D01*
X148866224Y-100113517D01*
X148855284Y-100127048D01*
X148849796Y-100136778D01*
X148846617Y-100148069D01*
X148845039Y-100162525D01*
X148608530Y-100162525D01*
X148609391Y-100137839D01*
X148615917Y-100097727D01*
X148627794Y-100057758D01*
X148634572Y-100040778D01*
X148653206Y-100004634D01*
X148676570Y-99971193D01*
X148704168Y-99940878D01*
X148735503Y-99914111D01*
X148770080Y-99891314D01*
X148807403Y-99872910D01*
X148846976Y-99859322D01*
X148847896Y-99859073D01*
X148858636Y-99856315D01*
X148868075Y-99854325D01*
X148877509Y-99852979D01*
X148888233Y-99852154D01*
X148901543Y-99851729D01*
X148918735Y-99851580D01*
X148927082Y-99851570D01*
X148946192Y-99851641D01*
G37*
G36*
X151025174Y-99851419D02*
G01*
X151065681Y-99859740D01*
X151104995Y-99873402D01*
X151142731Y-99892344D01*
X151178502Y-99916506D01*
X151189109Y-99925026D01*
X151208931Y-99943493D01*
X151223621Y-99961823D01*
X151233647Y-99980939D01*
X151239481Y-100001761D01*
X151241591Y-100025211D01*
X151241616Y-100027930D01*
X151241421Y-100041181D01*
X151240470Y-100050935D01*
X151238325Y-100059385D01*
X151234549Y-100068727D01*
X151232648Y-100072854D01*
X151219033Y-100095887D01*
X151202164Y-100114609D01*
X151182655Y-100128895D01*
X151161124Y-100138617D01*
X151138186Y-100143652D01*
X151114458Y-100143873D01*
X151090556Y-100139154D01*
X151067097Y-100129371D01*
X151044696Y-100114397D01*
X151041584Y-100111798D01*
X151021705Y-100097773D01*
X151001357Y-100089365D01*
X150980651Y-100086599D01*
X150959701Y-100089499D01*
X150951779Y-100092063D01*
X150935943Y-100100545D01*
X150921304Y-100113027D01*
X150909655Y-100127840D01*
X150905860Y-100134833D01*
X150901404Y-100149488D01*
X150899685Y-100166795D01*
X150900704Y-100184407D01*
X150904463Y-100199974D01*
X150905821Y-100203250D01*
X150917048Y-100221100D01*
X150932138Y-100235276D01*
X150950200Y-100245253D01*
X150970344Y-100250505D01*
X150986734Y-100250997D01*
X151001294Y-100248959D01*
X151014408Y-100244546D01*
X151027645Y-100237036D01*
X151042575Y-100225706D01*
X151043749Y-100224730D01*
X151066502Y-100208987D01*
X151090391Y-100198735D01*
X151115211Y-100194036D01*
X151140758Y-100194950D01*
X151142099Y-100195152D01*
X151166074Y-100201596D01*
X151187669Y-100212676D01*
X151206386Y-100227711D01*
X151221727Y-100246021D01*
X151233196Y-100266927D01*
X151240294Y-100289748D01*
X151242523Y-100313805D01*
X151241038Y-100330315D01*
X151235498Y-100352350D01*
X151226245Y-100371913D01*
X151212535Y-100390369D01*
X151202811Y-100400557D01*
X151171772Y-100426930D01*
X151137208Y-100449087D01*
X151099710Y-100466755D01*
X151059873Y-100479664D01*
X151018286Y-100487540D01*
X151011924Y-100488272D01*
X150998794Y-100489606D01*
X150988852Y-100490374D01*
X150980229Y-100490572D01*
X150971055Y-100490198D01*
X150959459Y-100489250D01*
X150948249Y-100488179D01*
X150907735Y-100481439D01*
X150868729Y-100469466D01*
X150831696Y-100452631D01*
X150797103Y-100431305D01*
X150765412Y-100405860D01*
X150737090Y-100376668D01*
X150712602Y-100344099D01*
X150692412Y-100308527D01*
X150677489Y-100271846D01*
X150668869Y-100241374D01*
X150663668Y-100211164D01*
X150661519Y-100178873D01*
X150661414Y-100169042D01*
X150662766Y-100135738D01*
X150667068Y-100105176D01*
X150674684Y-100075016D01*
X150677489Y-100066237D01*
X150692988Y-100028462D01*
X150713348Y-99992962D01*
X150738065Y-99960277D01*
X150766632Y-99930945D01*
X150798545Y-99905506D01*
X150833297Y-99884498D01*
X150858920Y-99872767D01*
X150900346Y-99859114D01*
X150942121Y-99851045D01*
X150983859Y-99848500D01*
X151025174Y-99851419D01*
G37*
G36*
X149916478Y-99578946D02*
G01*
X149951073Y-99578968D01*
X149980798Y-99579018D01*
X150006071Y-99579105D01*
X150027308Y-99579241D01*
X150044924Y-99579434D01*
X150059336Y-99579696D01*
X150070961Y-99580036D01*
X150080214Y-99580464D01*
X150087512Y-99580992D01*
X150093271Y-99581628D01*
X150097907Y-99582384D01*
X150101837Y-99583269D01*
X150105477Y-99584294D01*
X150106392Y-99584574D01*
X150130558Y-99594844D01*
X150151180Y-99609429D01*
X150167899Y-99627915D01*
X150180357Y-99649889D01*
X150188194Y-99674939D01*
X150189123Y-99679963D01*
X150190405Y-99704356D01*
X150186467Y-99728133D01*
X150177792Y-99750536D01*
X150164860Y-99770807D01*
X150148152Y-99788185D01*
X150128149Y-99801913D01*
X150106054Y-99811023D01*
X150097888Y-99812878D01*
X150087445Y-99814194D01*
X150073813Y-99815036D01*
X150056077Y-99815464D01*
X150039774Y-99815551D01*
X149988979Y-99815551D01*
X149988922Y-100091359D01*
X149988883Y-100137221D01*
X149988787Y-100180172D01*
X149988637Y-100219921D01*
X149988436Y-100256174D01*
X149988187Y-100288641D01*
X149987892Y-100317028D01*
X149987554Y-100341043D01*
X149987176Y-100360394D01*
X149986762Y-100374790D01*
X149986313Y-100383937D01*
X149986052Y-100386627D01*
X149979681Y-100412162D01*
X149968501Y-100434752D01*
X149952740Y-100454078D01*
X149932629Y-100469823D01*
X149921508Y-100476009D01*
X149909858Y-100481444D01*
X149900433Y-100484725D01*
X149890752Y-100486461D01*
X149878335Y-100487265D01*
X149875407Y-100487364D01*
X149861023Y-100487276D01*
X149847767Y-100486241D01*
X149837906Y-100484436D01*
X149837874Y-100484427D01*
X149814591Y-100474824D01*
X149794037Y-100460557D01*
X149776865Y-100442272D01*
X149763726Y-100420616D01*
X149757641Y-100404982D01*
X149756778Y-100401978D01*
X149756015Y-100398610D01*
X149755344Y-100394531D01*
X149754761Y-100389393D01*
X149754260Y-100382849D01*
X149753833Y-100374549D01*
X149753475Y-100364146D01*
X149753181Y-100351293D01*
X149752943Y-100335640D01*
X149752757Y-100316842D01*
X149752615Y-100294548D01*
X149752512Y-100268412D01*
X149752442Y-100238086D01*
X149752399Y-100203221D01*
X149752377Y-100163470D01*
X149752369Y-100118485D01*
X149752368Y-100101795D01*
X149752368Y-99815551D01*
X149702734Y-99815551D01*
X149679361Y-99815266D01*
X149660560Y-99814275D01*
X149645221Y-99812369D01*
X149632237Y-99809343D01*
X149620499Y-99804991D01*
X149608900Y-99799104D01*
X149606206Y-99797553D01*
X149587926Y-99783675D01*
X149572732Y-99765804D01*
X149561116Y-99745027D01*
X149553570Y-99722429D01*
X149550585Y-99699096D01*
X149552201Y-99678396D01*
X149559590Y-99653342D01*
X149571638Y-99631127D01*
X149587839Y-99612259D01*
X149607685Y-99597247D01*
X149630670Y-99586599D01*
X149648127Y-99582057D01*
X149655059Y-99581350D01*
X149667684Y-99580734D01*
X149685998Y-99580209D01*
X149709994Y-99579774D01*
X149739666Y-99579430D01*
X149775006Y-99579177D01*
X149816010Y-99579015D01*
X149862671Y-99578944D01*
X149876598Y-99578941D01*
X149916478Y-99578946D01*
G37*
G36*
X150168276Y-99853626D02*
G01*
X150190915Y-99861901D01*
X150211897Y-99874916D01*
X150230375Y-99892521D01*
X150234316Y-99897416D01*
X150241118Y-99906184D01*
X150250247Y-99918119D01*
X150261164Y-99932517D01*
X150273333Y-99948671D01*
X150286218Y-99965877D01*
X150286787Y-99966640D01*
X150299371Y-99983468D01*
X150310964Y-99998911D01*
X150321094Y-100012346D01*
X150329290Y-100023149D01*
X150335079Y-100030697D01*
X150337990Y-100034364D01*
X150338117Y-100034507D01*
X150339753Y-100034801D01*
X150342600Y-100032955D01*
X150346993Y-100028572D01*
X150353269Y-100021253D01*
X150361765Y-100010602D01*
X150372816Y-99996221D01*
X150386758Y-99977714D01*
X150391187Y-99971791D01*
X150409830Y-99946949D01*
X150425615Y-99926289D01*
X150438996Y-99909356D01*
X150450430Y-99895694D01*
X150460373Y-99884846D01*
X150469282Y-99876358D01*
X150477612Y-99869773D01*
X150485819Y-99864635D01*
X150494361Y-99860489D01*
X150503692Y-99856879D01*
X150507497Y-99855567D01*
X150531333Y-99850297D01*
X150554786Y-99850222D01*
X150577283Y-99854860D01*
X150598255Y-99863727D01*
X150617128Y-99876337D01*
X150633331Y-99892208D01*
X150646292Y-99910856D01*
X150655439Y-99931796D01*
X150660201Y-99954544D01*
X150660006Y-99978618D01*
X150659247Y-99984011D01*
X150656056Y-99997621D01*
X150651223Y-100012102D01*
X150647107Y-100021576D01*
X150644076Y-100026488D01*
X150637882Y-100035585D01*
X150628793Y-100048502D01*
X150617078Y-100064868D01*
X150603005Y-100084318D01*
X150586840Y-100106482D01*
X150568853Y-100130993D01*
X150549311Y-100157484D01*
X150528483Y-100185586D01*
X150506635Y-100214932D01*
X150490972Y-100235893D01*
X150465398Y-100270076D01*
X150438298Y-100306315D01*
X150410230Y-100343864D01*
X150381752Y-100381977D01*
X150353421Y-100419907D01*
X150325794Y-100456909D01*
X150299428Y-100492236D01*
X150274881Y-100525142D01*
X150252709Y-100554881D01*
X150235782Y-100577603D01*
X150212560Y-100608757D01*
X150192423Y-100635662D01*
X150175070Y-100658659D01*
X150160199Y-100678088D01*
X150147509Y-100694287D01*
X150136699Y-100707597D01*
X150127468Y-100718356D01*
X150119515Y-100726904D01*
X150112539Y-100733581D01*
X150106238Y-100738727D01*
X150100312Y-100742680D01*
X150094459Y-100745780D01*
X150088378Y-100748368D01*
X150082361Y-100750573D01*
X150058662Y-100756321D01*
X150034203Y-100757572D01*
X150012342Y-100754545D01*
X149990714Y-100746443D01*
X149970557Y-100733573D01*
X149952896Y-100716853D01*
X149938755Y-100697199D01*
X149931493Y-100682173D01*
X149926988Y-100665169D01*
X149925102Y-100645407D01*
X149925833Y-100625153D01*
X149929181Y-100606674D01*
X149931556Y-100599502D01*
X149932869Y-100596156D01*
X149934119Y-100593098D01*
X149935535Y-100590005D01*
X149937345Y-100586558D01*
X149939780Y-100582434D01*
X149943067Y-100577312D01*
X149947436Y-100570871D01*
X149953116Y-100562790D01*
X149960335Y-100552746D01*
X149969324Y-100540420D01*
X149980311Y-100525489D01*
X149993524Y-100507632D01*
X150009194Y-100486528D01*
X150027548Y-100461856D01*
X150048817Y-100433294D01*
X150073229Y-100400520D01*
X150076705Y-100395854D01*
X150194363Y-100237888D01*
X150114822Y-100131059D01*
X150098460Y-100108954D01*
X150083028Y-100087859D01*
X150068890Y-100068290D01*
X150056413Y-100050763D01*
X150045960Y-100035796D01*
X150037898Y-100023904D01*
X150032592Y-100015605D01*
X150030514Y-100011746D01*
X150023929Y-99987005D01*
X150022609Y-99961940D01*
X150026379Y-99937411D01*
X150035065Y-99914279D01*
X150048490Y-99893404D01*
X150056441Y-99884563D01*
X150076131Y-99868620D01*
X150097908Y-99857589D01*
X150121024Y-99851436D01*
X150144729Y-99850126D01*
X150168276Y-99853626D01*
G37*
G36*
X148475607Y-99580869D02*
G01*
X148499028Y-99587236D01*
X148520425Y-99598183D01*
X148539165Y-99613336D01*
X148554609Y-99632323D01*
X148566122Y-99654770D01*
X148570593Y-99668625D01*
X148571268Y-99671735D01*
X148571872Y-99675802D01*
X148572408Y-99681135D01*
X148572880Y-99688043D01*
X148573292Y-99696835D01*
X148573648Y-99707821D01*
X148573951Y-99721308D01*
X148574206Y-99737608D01*
X148574415Y-99757028D01*
X148574583Y-99779878D01*
X148574713Y-99806467D01*
X148574810Y-99837104D01*
X148574876Y-99872099D01*
X148574916Y-99911760D01*
X148574934Y-99956396D01*
X148574933Y-100006318D01*
X148574929Y-100024966D01*
X148574894Y-100072161D01*
X148574816Y-100117311D01*
X148574698Y-100160089D01*
X148574541Y-100200168D01*
X148574349Y-100237222D01*
X148574124Y-100270922D01*
X148573869Y-100300941D01*
X148573585Y-100326954D01*
X148573276Y-100348632D01*
X148572944Y-100365648D01*
X148572592Y-100377675D01*
X148572222Y-100384386D01*
X148572154Y-100385000D01*
X148566168Y-100410725D01*
X148555376Y-100433450D01*
X148539953Y-100452929D01*
X148520076Y-100468916D01*
X148507243Y-100476162D01*
X148496611Y-100481234D01*
X148488338Y-100484393D01*
X148480372Y-100486091D01*
X148470664Y-100486775D01*
X148458292Y-100486898D01*
X148439559Y-100486321D01*
X148424610Y-100484254D01*
X148411611Y-100480196D01*
X148398731Y-100473641D01*
X148390125Y-100468186D01*
X148371121Y-100452172D01*
X148355553Y-100432127D01*
X148345939Y-100413404D01*
X148344455Y-100409568D01*
X148343223Y-100405575D01*
X148342211Y-100400859D01*
X148341388Y-100394854D01*
X148340724Y-100386995D01*
X148340187Y-100376715D01*
X148339747Y-100363448D01*
X148339372Y-100346628D01*
X148339031Y-100325690D01*
X148338693Y-100300067D01*
X148338406Y-100275944D01*
X148336981Y-100153363D01*
X148253597Y-100152607D01*
X148170213Y-100151851D01*
X148170213Y-100264109D01*
X148170140Y-100290643D01*
X148169929Y-100315516D01*
X148169597Y-100338055D01*
X148169158Y-100357589D01*
X148168628Y-100373447D01*
X148168021Y-100384958D01*
X148167353Y-100391450D01*
X148167341Y-100391514D01*
X148160085Y-100415650D01*
X148148390Y-100437029D01*
X148132922Y-100455245D01*
X148114348Y-100469894D01*
X148093337Y-100480574D01*
X148070556Y-100486878D01*
X148046671Y-100488405D01*
X148022350Y-100484749D01*
X148016274Y-100482976D01*
X148003420Y-100478483D01*
X147993599Y-100473858D01*
X147984747Y-100467859D01*
X147974801Y-100459245D01*
X147971132Y-100455811D01*
X147954881Y-100436678D01*
X147942919Y-100414489D01*
X147936811Y-100394822D01*
X147936277Y-100390249D01*
X147935797Y-100381705D01*
X147935368Y-100369036D01*
X147934989Y-100352087D01*
X147934659Y-100330703D01*
X147934377Y-100304729D01*
X147934141Y-100274011D01*
X147933949Y-100238394D01*
X147933801Y-100197723D01*
X147933695Y-100151844D01*
X147933630Y-100100602D01*
X147933603Y-100043842D01*
X147933603Y-100032665D01*
X147933601Y-99979560D01*
X147933603Y-99931845D01*
X147933623Y-99889210D01*
X147933672Y-99851343D01*
X147933765Y-99817934D01*
X147933914Y-99788672D01*
X147934132Y-99763247D01*
X147934431Y-99741346D01*
X147934825Y-99722659D01*
X147935326Y-99706875D01*
X147935947Y-99693684D01*
X147936702Y-99682774D01*
X147937603Y-99673834D01*
X147938663Y-99666554D01*
X147939894Y-99660622D01*
X147941311Y-99655728D01*
X147942924Y-99651561D01*
X147944749Y-99647810D01*
X147946797Y-99644164D01*
X147949080Y-99640311D01*
X147949912Y-99638900D01*
X147964644Y-99619020D01*
X147982984Y-99602781D01*
X148004046Y-99590608D01*
X148026945Y-99582922D01*
X148050796Y-99580148D01*
X148069638Y-99581691D01*
X148094900Y-99588785D01*
X148117273Y-99600505D01*
X148136272Y-99616378D01*
X148151415Y-99635929D01*
X148162217Y-99658686D01*
X148167093Y-99677102D01*
X148167938Y-99684746D01*
X148168667Y-99697627D01*
X148169268Y-99715284D01*
X148169732Y-99737253D01*
X148170046Y-99763071D01*
X148170200Y-99792275D01*
X148170213Y-99804672D01*
X148170213Y-99915327D01*
X148252884Y-99915327D01*
X148335556Y-99915327D01*
X148335612Y-99809137D01*
X148335703Y-99784131D01*
X148335935Y-99760120D01*
X148336291Y-99737898D01*
X148336752Y-99718255D01*
X148337299Y-99701985D01*
X148337915Y-99689877D01*
X148338541Y-99682992D01*
X148344852Y-99657519D01*
X148355809Y-99634716D01*
X148370943Y-99615122D01*
X148389787Y-99599274D01*
X148411873Y-99587708D01*
X148425240Y-99583365D01*
X148450799Y-99579454D01*
X148475607Y-99580869D01*
G37*
G36*
X147649776Y-96047158D02*
G01*
X147692637Y-96056854D01*
X147734358Y-96071485D01*
X147774495Y-96091020D01*
X147812608Y-96115431D01*
X147848254Y-96144686D01*
X147858140Y-96154144D01*
X147888477Y-96188068D01*
X147914457Y-96225477D01*
X147936153Y-96266506D01*
X147953641Y-96311289D01*
X147963008Y-96343332D01*
X147969237Y-96367594D01*
X147970662Y-96877874D01*
X147972088Y-97388155D01*
X148259230Y-97388881D01*
X148546373Y-97389608D01*
X148547254Y-96882877D01*
X148548136Y-96376146D01*
X148554326Y-96349935D01*
X148567021Y-96305142D01*
X148583133Y-96264454D01*
X148603059Y-96227138D01*
X148627199Y-96192461D01*
X148655953Y-96159692D01*
X148660449Y-96155135D01*
X148693652Y-96125098D01*
X148728294Y-96100165D01*
X148765296Y-96079760D01*
X148805581Y-96063311D01*
X148810660Y-96061582D01*
X148836088Y-96053841D01*
X148859742Y-96048414D01*
X148883589Y-96044999D01*
X148909594Y-96043291D01*
X148931358Y-96042948D01*
X148979101Y-96045541D01*
X149024535Y-96053342D01*
X149067732Y-96066379D01*
X149108767Y-96084684D01*
X149147714Y-96108288D01*
X149184647Y-96137220D01*
X149203748Y-96155038D01*
X149233822Y-96188394D01*
X149259324Y-96224622D01*
X149280460Y-96264091D01*
X149297437Y-96307171D01*
X149307138Y-96340386D01*
X149314781Y-96370445D01*
X149314781Y-97771578D01*
X149314781Y-97878376D01*
X149314778Y-97979623D01*
X149314774Y-98075470D01*
X149314767Y-98166067D01*
X149314757Y-98251565D01*
X149314744Y-98332115D01*
X149314726Y-98407867D01*
X149314703Y-98478973D01*
X149314675Y-98545581D01*
X149314641Y-98607845D01*
X149314600Y-98665913D01*
X149314552Y-98719936D01*
X149314497Y-98770066D01*
X149314434Y-98816452D01*
X149314363Y-98859246D01*
X149314282Y-98898598D01*
X149314191Y-98934658D01*
X149314090Y-98967578D01*
X149313979Y-98997508D01*
X149313856Y-99024598D01*
X149313721Y-99049000D01*
X149313574Y-99070863D01*
X149313413Y-99090339D01*
X149313240Y-99107578D01*
X149313052Y-99122730D01*
X149312849Y-99135947D01*
X149312632Y-99147380D01*
X149312399Y-99157177D01*
X149312149Y-99165491D01*
X149311883Y-99172472D01*
X149311599Y-99178270D01*
X149311298Y-99183037D01*
X149310978Y-99186922D01*
X149310639Y-99190077D01*
X149310281Y-99192652D01*
X149309903Y-99194797D01*
X149309637Y-99196073D01*
X149297103Y-99241892D01*
X149280375Y-99284073D01*
X149259185Y-99323114D01*
X149233265Y-99359512D01*
X149203698Y-99392415D01*
X149168521Y-99423820D01*
X149130485Y-99450296D01*
X149089568Y-99471854D01*
X149045749Y-99488507D01*
X149011179Y-99497737D01*
X148993623Y-99500670D01*
X148972101Y-99502764D01*
X148948293Y-99503980D01*
X148923878Y-99504280D01*
X148900535Y-99503626D01*
X148879943Y-99501980D01*
X148872126Y-99500921D01*
X148826586Y-99490924D01*
X148783383Y-99475883D01*
X148742806Y-99456075D01*
X148705146Y-99431778D01*
X148670693Y-99403269D01*
X148639736Y-99370827D01*
X148612568Y-99334728D01*
X148589476Y-99295249D01*
X148570753Y-99252670D01*
X148556687Y-99207266D01*
X148554250Y-99196943D01*
X148553498Y-99193513D01*
X148552810Y-99190099D01*
X148552183Y-99186439D01*
X148551615Y-99182274D01*
X148551100Y-99177341D01*
X148550637Y-99171381D01*
X148550222Y-99164134D01*
X148549851Y-99155338D01*
X148549521Y-99144732D01*
X148549228Y-99132058D01*
X148548970Y-99117053D01*
X148548742Y-99099457D01*
X148548541Y-99079009D01*
X148548364Y-99055450D01*
X148548208Y-99028518D01*
X148548068Y-98997952D01*
X148547942Y-98963493D01*
X148547827Y-98924880D01*
X148547718Y-98881851D01*
X148547613Y-98834147D01*
X148547508Y-98781506D01*
X148547399Y-98723669D01*
X148547291Y-98664569D01*
X148546373Y-98159277D01*
X148258578Y-98159277D01*
X147970783Y-98159277D01*
X147969963Y-98670271D01*
X147969144Y-99181264D01*
X147961509Y-99210010D01*
X147947736Y-99253809D01*
X147930592Y-99293560D01*
X147909609Y-99330125D01*
X147884315Y-99364367D01*
X147865987Y-99385101D01*
X147832297Y-99416777D01*
X147795169Y-99444007D01*
X147754951Y-99466604D01*
X147711995Y-99484381D01*
X147666649Y-99497154D01*
X147648907Y-99500649D01*
X147632114Y-99502726D01*
X147611437Y-99503986D01*
X147588636Y-99504432D01*
X147565469Y-99504069D01*
X147543694Y-99502902D01*
X147525071Y-99500933D01*
X147521264Y-99500342D01*
X147494036Y-99494384D01*
X147464919Y-99485612D01*
X147436410Y-99474850D01*
X147416239Y-99465625D01*
X147375130Y-99441932D01*
X147337861Y-99414146D01*
X147304641Y-99382573D01*
X147275680Y-99347516D01*
X147251187Y-99309282D01*
X147231374Y-99268173D01*
X147216449Y-99224495D01*
X147206623Y-99178553D01*
X147203943Y-99157443D01*
X147203509Y-99150144D01*
X147203109Y-99137205D01*
X147202741Y-99118688D01*
X147202407Y-99094654D01*
X147202107Y-99065166D01*
X147201841Y-99030284D01*
X147201609Y-98990070D01*
X147201412Y-98944587D01*
X147201251Y-98893895D01*
X147201125Y-98838056D01*
X147201036Y-98777131D01*
X147200982Y-98711183D01*
X147200965Y-98643599D01*
X147200965Y-98159277D01*
X146711278Y-98159277D01*
X146643365Y-98159260D01*
X146579808Y-98159208D01*
X146520715Y-98159123D01*
X146466195Y-98159004D01*
X146416356Y-98158853D01*
X146371307Y-98158671D01*
X146331156Y-98158457D01*
X146296013Y-98158212D01*
X146265986Y-98157937D01*
X146241183Y-98157633D01*
X146221714Y-98157300D01*
X146207686Y-98156939D01*
X146199209Y-98156550D01*
X146197434Y-98156391D01*
X146161658Y-98150749D01*
X146128619Y-98142442D01*
X146096123Y-98130822D01*
X146067653Y-98118031D01*
X146027491Y-98095437D01*
X145990861Y-98068490D01*
X145957983Y-98037474D01*
X145929076Y-98002677D01*
X145904359Y-97964384D01*
X145884052Y-97922883D01*
X145868375Y-97878458D01*
X145860788Y-97848226D01*
X145856736Y-97822431D01*
X145854562Y-97793268D01*
X145854266Y-97762754D01*
X145855848Y-97732906D01*
X145859308Y-97705739D01*
X145860763Y-97698171D01*
X145873298Y-97652102D01*
X145890825Y-97608662D01*
X145913191Y-97568089D01*
X145940238Y-97530624D01*
X145971812Y-97496506D01*
X146007758Y-97465972D01*
X146014951Y-97460681D01*
X146047108Y-97439883D01*
X146081142Y-97422597D01*
X146118311Y-97408246D01*
X146150269Y-97398724D01*
X146178979Y-97391099D01*
X146689889Y-97390279D01*
X147200799Y-97389460D01*
X147201771Y-96885654D01*
X147201889Y-96821675D01*
X147201992Y-96763132D01*
X147202090Y-96709758D01*
X147202192Y-96661289D01*
X147202307Y-96617459D01*
X147202445Y-96578001D01*
X147202615Y-96542651D01*
X147202827Y-96511142D01*
X147203089Y-96483208D01*
X147203412Y-96458584D01*
X147203804Y-96437004D01*
X147204276Y-96418203D01*
X147204836Y-96401915D01*
X147205494Y-96387873D01*
X147206259Y-96375813D01*
X147207140Y-96365468D01*
X147208148Y-96356573D01*
X147209291Y-96348862D01*
X147210579Y-96342070D01*
X147212021Y-96335930D01*
X147213626Y-96330177D01*
X147215405Y-96324545D01*
X147217365Y-96318769D01*
X147219518Y-96312582D01*
X147221871Y-96305719D01*
X147222307Y-96304421D01*
X147239715Y-96260770D01*
X147261606Y-96220619D01*
X147288079Y-96183829D01*
X147319235Y-96150262D01*
X147354905Y-96119984D01*
X147393384Y-96094296D01*
X147433814Y-96073752D01*
X147475754Y-96058324D01*
X147518762Y-96047980D01*
X147562396Y-96042692D01*
X147606215Y-96042428D01*
X147649776Y-96047158D01*
G37*
D11*
%TO.C,D1*%
X147540000Y-92025000D02*
X147540000Y-92675000D01*
X147540000Y-92025000D02*
X148190000Y-92025000D01*
D12*
%TO.C,D35*%
X158550000Y-104575000D02*
G75*
G02*
X158450000Y-104575000I-50000J0D01*
G01*
X158450000Y-104575000D02*
G75*
G02*
X158550000Y-104575000I50000J0D01*
G01*
D11*
%TO.C,D5*%
X160660000Y-113175000D02*
X160010000Y-113175000D01*
X160660000Y-113175000D02*
X160660000Y-112525000D01*
D12*
%TO.C,D22*%
X146800000Y-107575000D02*
G75*
G02*
X146700000Y-107575000I-50000J0D01*
G01*
X146700000Y-107575000D02*
G75*
G02*
X146800000Y-107575000I50000J0D01*
G01*
D11*
%TO.C,D3*%
X158740000Y-96825000D02*
X158740000Y-97475000D01*
X158740000Y-96825000D02*
X159390000Y-96825000D01*
D12*
%TO.C,D16*%
X138910000Y-108250000D02*
G75*
G02*
X138810000Y-108250000I-50000J0D01*
G01*
X138810000Y-108250000D02*
G75*
G02*
X138910000Y-108250000I50000J0D01*
G01*
%TO.C,D13*%
X138910000Y-101750000D02*
G75*
G02*
X138810000Y-101750000I-50000J0D01*
G01*
X138810000Y-101750000D02*
G75*
G02*
X138910000Y-101750000I50000J0D01*
G01*
%TO.C,D32*%
X150050000Y-104580000D02*
G75*
G02*
X149950000Y-104580000I-50000J0D01*
G01*
X149950000Y-104580000D02*
G75*
G02*
X150050000Y-104580000I50000J0D01*
G01*
%TO.C,D23*%
X143945000Y-108250000D02*
G75*
G02*
X143845000Y-108250000I-50000J0D01*
G01*
X143845000Y-108250000D02*
G75*
G02*
X143945000Y-108250000I50000J0D01*
G01*
D11*
%TO.C,R23*%
X145320000Y-110553641D02*
X145320000Y-110246359D01*
X146080000Y-110553641D02*
X146080000Y-110246359D01*
%TO.C,D6*%
X155346160Y-116875000D02*
X154696160Y-116875000D01*
X155346160Y-116875000D02*
X155346160Y-116225000D01*
%TO.C,D7*%
X149460000Y-117975000D02*
X148810000Y-117975000D01*
X149460000Y-117975000D02*
X149460000Y-117325000D01*
D12*
%TO.C,D38*%
X155050000Y-107575000D02*
G75*
G02*
X154950000Y-107575000I-50000J0D01*
G01*
X154950000Y-107575000D02*
G75*
G02*
X155050000Y-107575000I50000J0D01*
G01*
%TO.C,D28*%
X153550000Y-104575000D02*
G75*
G02*
X153450000Y-104575000I-50000J0D01*
G01*
X153450000Y-104575000D02*
G75*
G02*
X153550000Y-104575000I50000J0D01*
G01*
%TO.C,D39*%
X155050000Y-104572500D02*
G75*
G02*
X154950000Y-104572500I-50000J0D01*
G01*
X154950000Y-104572500D02*
G75*
G02*
X155050000Y-104572500I50000J0D01*
G01*
%TO.C,D21*%
X146800000Y-104575000D02*
G75*
G02*
X146700000Y-104575000I-50000J0D01*
G01*
X146700000Y-104575000D02*
G75*
G02*
X146800000Y-104575000I50000J0D01*
G01*
%TD*%
%LPC*%
D15*
%TO.C,D11*%
X137750000Y-98250000D03*
X137750000Y-97350000D03*
X136850000Y-97350000D03*
X136850000Y-98250000D03*
%TD*%
D16*
%TO.C,D26*%
X144500000Y-105000000D03*
X145470000Y-105000000D03*
%TD*%
D17*
%TO.C,C17*%
X162846811Y-103500000D03*
X162206811Y-103500000D03*
%TD*%
D18*
%TO.C,D29*%
X153500000Y-106970000D03*
X153500000Y-106000000D03*
%TD*%
D16*
%TO.C,D33*%
X151215000Y-105000000D03*
X152185000Y-105000000D03*
%TD*%
D17*
%TO.C,C20*%
X148815000Y-115500000D03*
X148175000Y-115500000D03*
%TD*%
D16*
%TO.C,D40*%
X156250000Y-105000000D03*
X157220000Y-105000000D03*
%TD*%
%TO.C,D19*%
X139465000Y-105000000D03*
X140435000Y-105000000D03*
%TD*%
D18*
%TO.C,D15*%
X141750000Y-106970000D03*
X141750000Y-106000000D03*
%TD*%
%TO.C,D36*%
X158500000Y-106970000D03*
X158500000Y-106000000D03*
%TD*%
D19*
%TO.C,D4*%
X162035786Y-104550000D03*
X162035786Y-105450000D03*
X162935786Y-105450000D03*
X162935786Y-104550000D03*
%TD*%
D18*
%TO.C,D18*%
X138250000Y-103970000D03*
X138250000Y-103000000D03*
%TD*%
D19*
%TO.C,D9*%
X136850000Y-111750000D03*
X136850000Y-112650000D03*
X137750000Y-112650000D03*
X137750000Y-111750000D03*
%TD*%
D15*
%TO.C,D10*%
X134964214Y-105450000D03*
X134964214Y-104550000D03*
X134064214Y-104550000D03*
X134064214Y-105450000D03*
%TD*%
D17*
%TO.C,C23*%
X134783189Y-103500000D03*
X134143189Y-103500000D03*
%TD*%
D20*
%TO.C,C2*%
X151200000Y-109900000D03*
X151200000Y-110860000D03*
%TD*%
D16*
%TO.C,D30*%
X151215000Y-108250000D03*
X152185000Y-108250000D03*
%TD*%
%TO.C,D37*%
X156250000Y-108250000D03*
X157220000Y-108250000D03*
%TD*%
D17*
%TO.C,C24*%
X137575142Y-96330962D03*
X136935142Y-96330962D03*
%TD*%
D16*
%TO.C,D27*%
X151215000Y-101750000D03*
X152185000Y-101750000D03*
%TD*%
D15*
%TO.C,D2*%
X154836160Y-94550000D03*
X154836160Y-93650000D03*
X153936160Y-93650000D03*
X153936160Y-94550000D03*
%TD*%
D18*
%TO.C,D25*%
X143250000Y-103965000D03*
X143250000Y-102995000D03*
%TD*%
D17*
%TO.C,C22*%
X137575142Y-110700000D03*
X136935142Y-110700000D03*
%TD*%
%TO.C,C15*%
X154724172Y-92614117D03*
X154084172Y-92614117D03*
%TD*%
D18*
%TO.C,D24*%
X143250000Y-106970000D03*
X143250000Y-106000000D03*
%TD*%
%TO.C,D17*%
X138250000Y-106970000D03*
X138250000Y-106000000D03*
%TD*%
D21*
%TO.C,U1*%
X147125000Y-109800000D03*
X147125000Y-110300000D03*
X147125000Y-110800000D03*
X149875000Y-110800000D03*
X149875000Y-110300000D03*
X149875000Y-109800000D03*
%TD*%
D17*
%TO.C,C16*%
X160054858Y-96330963D03*
X159414858Y-96330963D03*
%TD*%
D18*
%TO.C,D31*%
X150000000Y-106970000D03*
X150000000Y-106000000D03*
%TD*%
D17*
%TO.C,C14*%
X148815000Y-91507950D03*
X148175000Y-91507950D03*
%TD*%
D16*
%TO.C,D20*%
X144500000Y-101750000D03*
X145470000Y-101750000D03*
%TD*%
%TO.C,D34*%
X156250000Y-101750000D03*
X157220000Y-101750000D03*
%TD*%
D18*
%TO.C,D14*%
X141750000Y-103970000D03*
X141750000Y-103000000D03*
%TD*%
D15*
%TO.C,D12*%
X143062440Y-94550000D03*
X143062440Y-93650000D03*
X142162440Y-93650000D03*
X142162440Y-94550000D03*
%TD*%
D19*
%TO.C,D8*%
X142162440Y-115450000D03*
X142162440Y-116350000D03*
X143062440Y-116350000D03*
X143062440Y-115450000D03*
%TD*%
D15*
%TO.C,D1*%
X148950000Y-93450000D03*
X148950000Y-92550000D03*
X148050000Y-92550000D03*
X148050000Y-93450000D03*
%TD*%
D17*
%TO.C,C25*%
X142904427Y-92614117D03*
X142264427Y-92614117D03*
%TD*%
%TO.C,C21*%
X142904427Y-114375644D03*
X142264427Y-114375644D03*
%TD*%
D18*
%TO.C,D35*%
X158500000Y-103970000D03*
X158500000Y-103000000D03*
%TD*%
D19*
%TO.C,D5*%
X159250000Y-111750000D03*
X159250000Y-112650000D03*
X160150000Y-112650000D03*
X160150000Y-111750000D03*
%TD*%
D18*
%TO.C,D22*%
X146750000Y-106970000D03*
X146750000Y-106000000D03*
%TD*%
D15*
%TO.C,D3*%
X160150000Y-98250000D03*
X160150000Y-97350000D03*
X159250000Y-97350000D03*
X159250000Y-98250000D03*
%TD*%
D16*
%TO.C,D16*%
X139465000Y-108250000D03*
X140435000Y-108250000D03*
%TD*%
%TO.C,D13*%
X139465000Y-101750000D03*
X140435000Y-101750000D03*
%TD*%
D18*
%TO.C,D32*%
X150000000Y-103975000D03*
X150000000Y-103005000D03*
%TD*%
D16*
%TO.C,D23*%
X144500000Y-108250000D03*
X145470000Y-108250000D03*
%TD*%
D22*
%TO.C,R23*%
X145700000Y-110910000D03*
X145700000Y-109890000D03*
%TD*%
D19*
%TO.C,D6*%
X153936160Y-115450000D03*
X153936160Y-116350000D03*
X154836160Y-116350000D03*
X154836160Y-115450000D03*
%TD*%
D17*
%TO.C,C18*%
X160054858Y-110700000D03*
X159414858Y-110700000D03*
%TD*%
D19*
%TO.C,D7*%
X148050000Y-116550000D03*
X148050000Y-117450000D03*
X148950000Y-117450000D03*
X148950000Y-116550000D03*
%TD*%
D18*
%TO.C,D38*%
X155000000Y-106970000D03*
X155000000Y-106000000D03*
%TD*%
D17*
%TO.C,C19*%
X154724172Y-114375644D03*
X154084172Y-114375644D03*
%TD*%
D18*
%TO.C,D28*%
X153500000Y-103970000D03*
X153500000Y-103000000D03*
%TD*%
%TO.C,D39*%
X155000000Y-103967500D03*
X155000000Y-102997500D03*
%TD*%
%TO.C,D21*%
X146750000Y-103970000D03*
X146750000Y-103000000D03*
%TD*%
%LPD*%
M02*
