M48
; DRILL file {KiCad 8.0.9-8.0.9-0~ubuntu24.04.1} date 2025-06-26T14:03:08+0200
; FORMAT={-:-/ absolute / inch / decimal}
; #@! TF.CreationDate,2025-06-26T14:03:08+02:00
; #@! TF.GenerationSoftware,Kicad,Pcbnew,8.0.9-8.0.9-0~ubuntu24.04.1
; #@! TF.FileFunction,Plated,1,4,PTH
FMAT,2
INCH
; #@! TA.AperFunction,Plated,PTH,ViaDrill
T1C0.0069
%
G90
G05
T1
X5.2913Y-4.4567
X5.4685Y-3.8661
X5.4685Y-4.0315
X5.4803Y-3.9685
X5.4882Y-4.0669
X5.5Y-4.1732
X5.5Y-4.2244
X5.5157Y-3.8661
X5.5354Y-3.6969
X5.5354Y-4.2283
X5.5433Y-4.1732
X5.5472Y-4.0906
X5.5472Y-4.563
X5.5551Y-3.7126
X5.5827Y-3.7598
X5.6732Y-4.1811
X5.685Y-4.2008
X5.685Y-4.4488
X5.689Y-4.0394
X5.6929Y-4.2283
X5.7047Y-4.0591
X5.7047Y-4.5906
X5.7047Y-4.6102
X5.7205Y-4.0984
X5.7313Y-4.2106
X5.7362Y-4.1732
X5.7441Y-4.0945
X5.7579Y-3.6949
X5.7638Y-3.9567
X5.7835Y-4.4055
X5.8307Y-3.815
X5.8543Y-4.252
X5.8543Y-4.3189
X5.878Y-4.2953
X5.8937Y-4.6299
X5.9055Y-3.6378
X5.9134Y-4.7362
X5.9286Y-4.2918
X5.9409Y-3.6496
X5.9449Y-4.1693
X5.9449Y-4.2087
X5.9449Y-4.4173
X5.9488Y-4.5354
X5.9528Y-4.0394
X5.9528Y-4.563
X5.9567Y-4.0945
X5.9606Y-4.063
X5.9685Y-4.2992
X5.9685Y-4.3937
X5.9724Y-3.6732
X5.9774Y-4.5122
X5.9843Y-4.2283
X5.9882Y-4.2047
X5.9882Y-4.5984
X5.9921Y-4.5591
X5.9961Y-4.1772
X5.9961Y-4.5079
X5.9961Y-4.5787
X6.0089Y-4.0925
X6.0118Y-4.5472
X6.0197Y-3.7126
X6.0236Y-4.1353
X6.0276Y-4.5591
X6.0354Y-4.4252
X6.0394Y-4.6811
X6.0433Y-4.7795
X6.0472Y-4.2677
X6.0591Y-4.6772
X6.0728Y-4.1909
X6.126Y-4.1496
X6.1398Y-4.0965
X6.1516Y-4.0394
X6.1654Y-4.0787
X6.1732Y-4.2087
X6.1791Y-4.1732
X6.1811Y-4.2283
X6.1969Y-4.3268
X6.2087Y-4.0933
X6.2205Y-4.4567
X6.3622Y-4.0354
X6.3976Y-4.3583
X6.4508Y-3.9409
M30
