%TF.GenerationSoftware,KiCad,Pcbnew,7.0.10-7.0.10~ubuntu22.04.1*%
%TF.CreationDate,2024-04-10T21:56:47+02:00*%
%TF.ProjectId,STM32_watch_NFC,53544d33-325f-4776-9174-63685f4e4643,rev?*%
%TF.SameCoordinates,Original*%
%TF.FileFunction,Legend,Bot*%
%TF.FilePolarity,Positive*%
%FSLAX46Y46*%
G04 Gerber Fmt 4.6, Leading zero omitted, Abs format (unit mm)*
G04 Created by KiCad (PCBNEW 7.0.10-7.0.10~ubuntu22.04.1) date 2024-04-10 21:56:47*
%MOMM*%
%LPD*%
G01*
G04 APERTURE LIST*
G04 Aperture macros list*
%AMRoundRect*
0 Rectangle with rounded corners*
0 $1 Rounding radius*
0 $2 $3 $4 $5 $6 $7 $8 $9 X,Y pos of 4 corners*
0 Add a 4 corners polygon primitive as box body*
4,1,4,$2,$3,$4,$5,$6,$7,$8,$9,$2,$3,0*
0 Add four circle primitives for the rounded corners*
1,1,$1+$1,$2,$3*
1,1,$1+$1,$4,$5*
1,1,$1+$1,$6,$7*
1,1,$1+$1,$8,$9*
0 Add four rect primitives between the rounded corners*
20,1,$1+$1,$2,$3,$4,$5,0*
20,1,$1+$1,$4,$5,$6,$7,0*
20,1,$1+$1,$6,$7,$8,$9,0*
20,1,$1+$1,$8,$9,$2,$3,0*%
%AMRotRect*
0 Rectangle, with rotation*
0 The origin of the aperture is its center*
0 $1 length*
0 $2 width*
0 $3 Rotation angle, in degrees counterclockwise*
0 Add horizontal line*
21,1,$1,$2,0,0,$3*%
%AMFreePoly0*
4,1,14,0.364320,0.111820,0.377500,0.080000,0.377501,0.053640,0.364318,0.021819,0.230680,-0.111820,0.198860,-0.125000,-0.332500,-0.125000,-0.364320,-0.111820,-0.377500,-0.080000,-0.377500,0.080000,-0.364320,0.111820,-0.332500,0.125000,0.332500,0.125000,0.364320,0.111820,0.364320,0.111820,$1*%
%AMFreePoly1*
4,1,14,0.230680,0.111820,0.364320,-0.021821,0.377500,-0.053642,0.377500,-0.080000,0.364320,-0.111820,0.332500,-0.125000,-0.332500,-0.125000,-0.364320,-0.111820,-0.377500,-0.080000,-0.377500,0.080000,-0.364320,0.111820,-0.332500,0.125000,0.198860,0.125000,0.230680,0.111820,0.230680,0.111820,$1*%
%AMFreePoly2*
4,1,14,0.111820,0.364320,0.125000,0.332500,0.125000,-0.332500,0.111820,-0.364320,0.080000,-0.377500,0.053640,-0.377501,0.021819,-0.364318,-0.111820,-0.230680,-0.125000,-0.198860,-0.125000,0.332500,-0.111820,0.364320,-0.080000,0.377500,0.080000,0.377500,0.111820,0.364320,0.111820,0.364320,$1*%
%AMFreePoly3*
4,1,14,0.111820,0.364320,0.125000,0.332500,0.125001,-0.198860,0.111818,-0.230680,-0.021820,-0.364320,-0.053640,-0.377500,-0.080000,-0.377500,-0.111820,-0.364320,-0.125000,-0.332500,-0.125000,0.332500,-0.111820,0.364320,-0.080000,0.377500,0.080000,0.377500,0.111820,0.364320,0.111820,0.364320,$1*%
%AMFreePoly4*
4,1,15,-0.198858,0.125000,0.332500,0.125000,0.364320,0.111820,0.377500,0.080000,0.377500,-0.080000,0.364320,-0.111820,0.332500,-0.125000,-0.332500,-0.125000,-0.364320,-0.111820,-0.377500,-0.080000,-0.377500,-0.053640,-0.364320,-0.021820,-0.230680,0.111820,-0.198860,0.125001,-0.198858,0.125000,-0.198858,0.125000,$1*%
%AMFreePoly5*
4,1,14,0.364320,0.111820,0.377500,0.080000,0.377500,-0.080000,0.364320,-0.111820,0.332500,-0.125000,-0.198860,-0.125001,-0.230680,-0.111818,-0.364320,0.021820,-0.377500,0.053640,-0.377500,0.080000,-0.364320,0.111820,-0.332500,0.125000,0.332500,0.125000,0.364320,0.111820,0.364320,0.111820,$1*%
%AMFreePoly6*
4,1,14,-0.021820,0.364320,0.111820,0.230679,0.125001,0.198860,0.125000,-0.332500,0.111820,-0.364320,0.080000,-0.377500,-0.080000,-0.377500,-0.111820,-0.364320,-0.125000,-0.332500,-0.125000,0.332500,-0.111820,0.364320,-0.080000,0.377500,-0.053640,0.377500,-0.021820,0.364320,-0.021820,0.364320,$1*%
%AMFreePoly7*
4,1,15,0.053642,0.377500,0.080000,0.377500,0.111820,0.364320,0.125000,0.332500,0.125000,-0.332500,0.111820,-0.364320,0.080000,-0.377500,-0.080000,-0.377500,-0.111820,-0.364320,-0.125000,-0.332500,-0.125000,0.198860,-0.111820,0.230680,0.021820,0.364320,0.053640,0.377501,0.053642,0.377500,0.053642,0.377500,$1*%
G04 Aperture macros list end*
%ADD10C,0.120000*%
%ADD11C,0.100000*%
%ADD12C,0.127000*%
%ADD13C,0.200000*%
%ADD14FreePoly0,45.000000*%
%ADD15RoundRect,0.062500X-0.220971X-0.309359X0.309359X0.220971X0.220971X0.309359X-0.309359X-0.220971X0*%
%ADD16FreePoly1,45.000000*%
%ADD17FreePoly2,45.000000*%
%ADD18RoundRect,0.062500X0.220971X-0.309359X0.309359X-0.220971X-0.220971X0.309359X-0.309359X0.220971X0*%
%ADD19FreePoly3,45.000000*%
%ADD20FreePoly4,45.000000*%
%ADD21FreePoly5,45.000000*%
%ADD22FreePoly6,45.000000*%
%ADD23FreePoly7,45.000000*%
%ADD24RoundRect,0.187500X0.618718X0.883883X-0.883883X-0.618718X-0.618718X-0.883883X0.883883X0.618718X0*%
%ADD25RoundRect,0.013920X-0.205061X-0.513473X0.513473X0.205061X0.205061X0.513473X-0.513473X-0.205061X0*%
%ADD26RoundRect,0.046400X0.205061X-0.467539X0.467539X-0.205061X-0.205061X0.467539X-0.467539X0.205061X0*%
%ADD27RoundRect,0.102000X0.000000X-2.474874X2.474874X0.000000X0.000000X2.474874X-2.474874X0.000000X0*%
%ADD28RoundRect,0.100000X-0.130000X-0.100000X0.130000X-0.100000X0.130000X0.100000X-0.130000X0.100000X0*%
%ADD29RoundRect,0.218750X0.381250X-0.218750X0.381250X0.218750X-0.381250X0.218750X-0.381250X-0.218750X0*%
%ADD30RoundRect,0.135000X0.226274X0.035355X0.035355X0.226274X-0.226274X-0.035355X-0.035355X-0.226274X0*%
%ADD31RoundRect,0.125000X-0.176777X0.353553X-0.353553X0.176777X0.176777X-0.353553X0.353553X-0.176777X0*%
%ADD32RoundRect,0.250000X-0.176777X0.671751X-0.671751X0.176777X0.176777X-0.671751X0.671751X-0.176777X0*%
%ADD33RoundRect,0.140000X0.140000X0.170000X-0.140000X0.170000X-0.140000X-0.170000X0.140000X-0.170000X0*%
%ADD34RoundRect,0.150000X0.150000X-0.512500X0.150000X0.512500X-0.150000X0.512500X-0.150000X-0.512500X0*%
%ADD35RoundRect,0.140000X-0.140000X-0.170000X0.140000X-0.170000X0.140000X0.170000X-0.140000X0.170000X0*%
%ADD36RoundRect,0.140000X-0.170000X0.140000X-0.170000X-0.140000X0.170000X-0.140000X0.170000X0.140000X0*%
%ADD37RoundRect,0.100000X0.162635X-0.021213X-0.021213X0.162635X-0.162635X0.021213X0.021213X-0.162635X0*%
%ADD38RotRect,1.550000X1.000000X44.000000*%
%ADD39RoundRect,0.140000X0.219203X0.021213X0.021213X0.219203X-0.219203X-0.021213X-0.021213X-0.219203X0*%
%ADD40RoundRect,0.135000X-0.226274X-0.035355X-0.035355X-0.226274X0.226274X0.035355X0.035355X0.226274X0*%
%ADD41RoundRect,0.225000X-0.225000X-0.250000X0.225000X-0.250000X0.225000X0.250000X-0.225000X0.250000X0*%
%ADD42RoundRect,0.250000X0.503814X0.132583X0.132583X0.503814X-0.503814X-0.132583X-0.132583X-0.503814X0*%
%ADD43RoundRect,0.225000X-0.335876X-0.017678X-0.017678X-0.335876X0.335876X0.017678X0.017678X0.335876X0*%
%ADD44RoundRect,0.135000X-0.185000X0.135000X-0.185000X-0.135000X0.185000X-0.135000X0.185000X0.135000X0*%
%ADD45RoundRect,0.140000X0.170000X-0.140000X0.170000X0.140000X-0.170000X0.140000X-0.170000X-0.140000X0*%
%ADD46RoundRect,0.225000X-0.017678X0.335876X-0.335876X0.017678X0.017678X-0.335876X0.335876X-0.017678X0*%
%ADD47RoundRect,0.140000X-0.219203X-0.021213X-0.021213X-0.219203X0.219203X0.021213X0.021213X0.219203X0*%
%ADD48RoundRect,0.218750X-0.381250X0.218750X-0.381250X-0.218750X0.381250X-0.218750X0.381250X0.218750X0*%
%ADD49RoundRect,0.175000X0.425000X-0.175000X0.425000X0.175000X-0.425000X0.175000X-0.425000X-0.175000X0*%
%ADD50RoundRect,0.190000X-0.410000X0.190000X-0.410000X-0.190000X0.410000X-0.190000X0.410000X0.190000X0*%
%ADD51RoundRect,0.200000X-0.400000X0.200000X-0.400000X-0.200000X0.400000X-0.200000X0.400000X0.200000X0*%
%ADD52RoundRect,0.175000X-0.425000X0.175000X-0.425000X-0.175000X0.425000X-0.175000X0.425000X0.175000X0*%
%ADD53RoundRect,0.190000X0.410000X-0.190000X0.410000X0.190000X-0.410000X0.190000X-0.410000X-0.190000X0*%
%ADD54RoundRect,0.200000X0.400000X-0.200000X0.400000X0.200000X-0.400000X0.200000X-0.400000X-0.200000X0*%
%ADD55RoundRect,0.250000X0.500000X-0.650000X0.500000X0.650000X-0.500000X0.650000X-0.500000X-0.650000X0*%
%ADD56RoundRect,0.250000X0.425000X-0.650000X0.425000X0.650000X-0.425000X0.650000X-0.425000X-0.650000X0*%
%ADD57RoundRect,0.140000X-0.021213X0.219203X-0.219203X0.021213X0.021213X-0.219203X0.219203X-0.021213X0*%
%ADD58RoundRect,0.100000X0.021213X0.162635X-0.162635X-0.021213X-0.021213X-0.162635X0.162635X0.021213X0*%
%ADD59RoundRect,0.135000X-0.035355X0.226274X-0.226274X0.035355X0.035355X-0.226274X0.226274X-0.035355X0*%
%ADD60RoundRect,0.135000X0.135000X0.185000X-0.135000X0.185000X-0.135000X-0.185000X0.135000X-0.185000X0*%
%ADD61RoundRect,0.135000X0.035355X-0.226274X0.226274X-0.035355X-0.035355X0.226274X-0.226274X0.035355X0*%
%ADD62RoundRect,0.100000X-0.021213X-0.162635X0.162635X0.021213X0.021213X0.162635X-0.162635X-0.021213X0*%
%ADD63RoundRect,0.250000X-0.450000X0.262500X-0.450000X-0.262500X0.450000X-0.262500X0.450000X0.262500X0*%
%ADD64RotRect,1.550000X1.000000X139.000000*%
%ADD65RoundRect,0.150000X0.256326X0.468458X-0.468458X-0.256326X-0.256326X-0.468458X0.468458X0.256326X0*%
%ADD66RoundRect,0.162500X0.201525X0.431335X-0.431335X-0.201525X-0.201525X-0.431335X0.431335X0.201525X0*%
%ADD67RoundRect,0.225000X0.225000X0.250000X-0.225000X0.250000X-0.225000X-0.250000X0.225000X-0.250000X0*%
%ADD68R,1.400000X1.200000*%
%ADD69RoundRect,0.225000X0.335876X0.017678X0.017678X0.335876X-0.335876X-0.017678X-0.017678X-0.335876X0*%
%ADD70RoundRect,0.100000X-0.163718X0.009817X0.032506X-0.160759X0.163718X-0.009817X-0.032506X0.160759X0*%
%ADD71RoundRect,0.100000X-0.162635X0.021213X0.021213X-0.162635X0.162635X-0.021213X-0.021213X0.162635X0*%
%ADD72RoundRect,0.250000X-0.493338X-0.167404X-0.097115X-0.511835X0.493338X0.167404X0.097115X0.511835X0*%
%ADD73RoundRect,0.135000X-0.135000X-0.185000X0.135000X-0.185000X0.135000X0.185000X-0.135000X0.185000X0*%
%ADD74R,1.000000X1.550000*%
%ADD75RoundRect,0.140000X0.021213X-0.219203X0.219203X-0.021213X-0.021213X0.219203X-0.219203X0.021213X0*%
%ADD76RoundRect,0.100000X-0.225000X-0.100000X0.225000X-0.100000X0.225000X0.100000X-0.225000X0.100000X0*%
%ADD77RotRect,1.200000X0.600000X135.000000*%
%ADD78RoundRect,0.150000X0.247487X0.035355X0.035355X0.247487X-0.247487X-0.035355X-0.035355X-0.247487X0*%
%ADD79RoundRect,0.218750X0.026517X-0.335876X0.335876X-0.026517X-0.026517X0.335876X-0.335876X0.026517X0*%
%ADD80RoundRect,0.100000X-0.100000X0.130000X-0.100000X-0.130000X0.100000X-0.130000X0.100000X0.130000X0*%
G04 APERTURE END LIST*
D10*
%TO.C,U1*%
X151324892Y-105159099D02*
X151483991Y-105000000D01*
X151483991Y-105000000D02*
X151324892Y-104840901D01*
X145675108Y-104840901D02*
X145516009Y-105000000D01*
X145516009Y-105000000D02*
X145675108Y-105159099D01*
X148340901Y-102175108D02*
X148500000Y-102016009D01*
X148500000Y-102016009D02*
X148659099Y-102175108D01*
X148888909Y-108061772D02*
X148549497Y-108401184D01*
X148485858Y-107998133D01*
X148888909Y-108061772D01*
G36*
X148888909Y-108061772D02*
G01*
X148549497Y-108401184D01*
X148485858Y-107998133D01*
X148888909Y-108061772D01*
G37*
D11*
%TO.C,L1*%
X141532969Y-113929289D02*
X143795711Y-116192031D01*
X143795711Y-116192031D02*
X145917031Y-114070711D01*
X145917031Y-114070711D02*
X143654289Y-111807969D01*
X143654289Y-111807969D02*
X141532969Y-113929289D01*
D12*
%TO.C,U3*%
X156300000Y-103735534D02*
X156087868Y-103523402D01*
X156300000Y-103735534D02*
X156512132Y-103523402D01*
X152764466Y-100200000D02*
X152976598Y-100412132D01*
X152764466Y-100200000D02*
X152976598Y-99987868D01*
X159835534Y-100200000D02*
X159623402Y-100412132D01*
X159835534Y-100200000D02*
X159623402Y-99987868D01*
X156300000Y-96664466D02*
X156087868Y-96876598D01*
X156300000Y-96664466D02*
X156512132Y-96876598D01*
D13*
X155781282Y-104495674D02*
G75*
G03*
X155581282Y-104495674I-100000J0D01*
G01*
X155581282Y-104495674D02*
G75*
G03*
X155781282Y-104495674I100000J0D01*
G01*
D10*
%TO.C,L2*%
X149340000Y-93462122D02*
X149340000Y-92662878D01*
X150460000Y-93462122D02*
X150460000Y-92662878D01*
%TO.C,R9*%
X151739940Y-114577341D02*
X151522659Y-114360060D01*
X152277341Y-114039940D02*
X152060060Y-113822659D01*
%TO.C,Li-po1*%
X144902082Y-118059512D02*
X144265685Y-117423116D01*
X144265685Y-117423116D02*
X143664645Y-118024157D01*
X143664645Y-118024157D02*
X143452513Y-117812025D01*
X143452513Y-117812025D02*
X143275736Y-117988802D01*
X143275736Y-117988802D02*
X143176741Y-117889807D01*
X145290990Y-120103051D02*
X144103051Y-121290990D01*
X142389340Y-117470101D02*
X142462563Y-117896878D01*
X142462563Y-117896878D02*
X142035787Y-117823655D01*
X142035787Y-117823655D02*
X142389340Y-117470101D01*
X142024157Y-119664645D02*
X141812025Y-119452513D01*
X141812025Y-119452513D02*
X141988802Y-119275736D01*
X142059512Y-120902082D02*
X141423116Y-120265685D01*
X141423116Y-120265685D02*
X142024157Y-119664645D01*
%TO.C,C54*%
X152087836Y-93460000D02*
X151872164Y-93460000D01*
X152087836Y-92740000D02*
X151872164Y-92740000D01*
%TO.C,ME4055A1*%
X138040000Y-110900000D02*
X138040000Y-111700000D01*
X138040000Y-110900000D02*
X138040000Y-110100000D01*
X141160000Y-110900000D02*
X141160000Y-111700000D01*
X141160000Y-110900000D02*
X141160000Y-110100000D01*
X141440000Y-112440000D02*
X141110000Y-112200000D01*
X141440000Y-111960000D01*
X141440000Y-112440000D01*
G36*
X141440000Y-112440000D02*
G01*
X141110000Y-112200000D01*
X141440000Y-111960000D01*
X141440000Y-112440000D01*
G37*
%TO.C,C49*%
X153792164Y-105140000D02*
X154007836Y-105140000D01*
X153792164Y-105860000D02*
X154007836Y-105860000D01*
%TO.C,C10*%
X137660000Y-101772164D02*
X137660000Y-101987836D01*
X136940000Y-101772164D02*
X136940000Y-101987836D01*
%TO.C,SW3*%
X138453414Y-90495905D02*
X138071351Y-90100269D01*
X136239941Y-89679333D02*
X136905331Y-89036774D01*
X136094669Y-94963226D02*
X139475567Y-91698331D01*
X133524433Y-92301669D02*
X134189823Y-91659110D01*
X134928649Y-93899731D02*
X134546586Y-93504095D01*
%TO.C,C37*%
X152521693Y-102330810D02*
X152369190Y-102178307D01*
X153030810Y-101821693D02*
X152878307Y-101669190D01*
%TO.C,C35*%
X154561104Y-104170221D02*
X154408601Y-104017718D01*
X155070221Y-103661104D02*
X154917718Y-103508601D01*
%TO.C,R11*%
X140260060Y-88222659D02*
X140477341Y-88439940D01*
X139722659Y-88760060D02*
X139939940Y-88977341D01*
%TO.C,C24*%
X136959420Y-106490000D02*
X137240580Y-106490000D01*
X136959420Y-107510000D02*
X137240580Y-107510000D01*
%TO.C,C8*%
X141821693Y-108930810D02*
X141669190Y-108778307D01*
X142330810Y-108421693D02*
X142178307Y-108269190D01*
%TO.C,R8*%
X153640835Y-114480282D02*
X153319718Y-114159165D01*
X154680282Y-113440835D02*
X154359165Y-113119718D01*
%TO.C,C26*%
X147161219Y-117139970D02*
X147360030Y-117338781D01*
X146439970Y-117861219D02*
X146638781Y-118060030D01*
%TO.C,R3*%
X151280000Y-109646359D02*
X151280000Y-109953641D01*
X150520000Y-109646359D02*
X150520000Y-109953641D01*
%TO.C,C51*%
X146940000Y-90007836D02*
X146940000Y-89792164D01*
X147660000Y-90007836D02*
X147660000Y-89792164D01*
%TO.C,C4*%
X147460030Y-101061219D02*
X147261219Y-101260030D01*
X146738781Y-100339970D02*
X146539970Y-100538781D01*
%TO.C,C45*%
X151478307Y-100269190D02*
X151630810Y-100421693D01*
X150969190Y-100778307D02*
X151121693Y-100930810D01*
%TO.C,L3*%
X148160000Y-92637878D02*
X148160000Y-93437122D01*
X147040000Y-92637878D02*
X147040000Y-93437122D01*
%TO.C,J2*%
X133392500Y-109600000D02*
X131762500Y-109600000D01*
X133392500Y-100400000D02*
X131762500Y-100400000D01*
%TO.C,C57*%
X145492164Y-91140000D02*
X145707836Y-91140000D01*
X145492164Y-91860000D02*
X145707836Y-91860000D01*
%TO.C,C52*%
X151872164Y-93840000D02*
X152087836Y-93840000D01*
X151872164Y-94560000D02*
X152087836Y-94560000D01*
%TO.C,C39*%
X153491399Y-97917718D02*
X153338896Y-98070221D01*
X152982282Y-97408601D02*
X152829779Y-97561104D01*
%TO.C,R1*%
X152439940Y-119377341D02*
X152222659Y-119160060D01*
X152977341Y-118839940D02*
X152760060Y-118622659D01*
%TO.C,C58*%
X144740000Y-90007836D02*
X144740000Y-89792164D01*
X145460000Y-90007836D02*
X145460000Y-89792164D01*
%TO.C,C48*%
X158260000Y-108292164D02*
X158260000Y-108507836D01*
X157540000Y-108292164D02*
X157540000Y-108507836D01*
%TO.C,R10*%
X141777341Y-89860060D02*
X141560060Y-90077341D01*
X141239940Y-89322659D02*
X141022659Y-89539940D01*
%TO.C,R15*%
X165853641Y-110080000D02*
X165546359Y-110080000D01*
X165853641Y-109320000D02*
X165546359Y-109320000D01*
%TO.C,R13*%
X132522659Y-114539940D02*
X132739940Y-114322659D01*
X133060060Y-115077341D02*
X133277341Y-114860060D01*
%TO.C,C46*%
X160482282Y-99491399D02*
X160329779Y-99338896D01*
X160991399Y-98982282D02*
X160838896Y-98829779D01*
%TO.C,C43*%
X151878307Y-97969190D02*
X152030810Y-98121693D01*
X151369190Y-98478307D02*
X151521693Y-98630810D01*
%TO.C,C9*%
X144021693Y-106530810D02*
X143869190Y-106378307D01*
X144530810Y-106021693D02*
X144378307Y-105869190D01*
%TO.C,C60*%
X151040000Y-90007836D02*
X151040000Y-89792164D01*
X151760000Y-90007836D02*
X151760000Y-89792164D01*
%TO.C,J1*%
X163133452Y-114328141D02*
X162497056Y-113691745D01*
X162497056Y-113691745D02*
X161896016Y-114292786D01*
X161896016Y-114292786D02*
X161683883Y-114080654D01*
X161683883Y-114080654D02*
X161507107Y-114257431D01*
X161507107Y-114257431D02*
X161408112Y-114158436D01*
X163522361Y-116371680D02*
X160071680Y-119822361D01*
X160620711Y-113738730D02*
X160693934Y-114165507D01*
X160693934Y-114165507D02*
X160267158Y-114092284D01*
X160267158Y-114092284D02*
X160620711Y-113738730D01*
X157992786Y-118196016D02*
X157780654Y-117983883D01*
X157780654Y-117983883D02*
X157957431Y-117807107D01*
X158028141Y-119433452D02*
X157391745Y-118797056D01*
X157391745Y-118797056D02*
X157992786Y-118196016D01*
%TO.C,R14*%
X163735000Y-109472936D02*
X163735000Y-109927064D01*
X162265000Y-109472936D02*
X162265000Y-109927064D01*
%TO.C,C6*%
X150160000Y-109692164D02*
X150160000Y-109907836D01*
X149440000Y-109692164D02*
X149440000Y-109907836D01*
%TO.C,SW1*%
X134831378Y-116185110D02*
X134470545Y-116600201D01*
X134210830Y-118461329D02*
X133512723Y-117854474D01*
X139487277Y-118145526D02*
X135940142Y-115062049D01*
X137059858Y-120937951D02*
X136361752Y-120331097D01*
X138529455Y-119399799D02*
X138168622Y-119814890D01*
%TO.C,U4*%
X149703087Y-116003087D02*
X150268772Y-115437401D01*
X149703087Y-116003087D02*
X149137401Y-116568772D01*
X147496913Y-113796913D02*
X148062599Y-113231228D01*
X147496913Y-113796913D02*
X146931228Y-114362599D01*
X148451508Y-112913030D02*
X148048457Y-112849390D01*
X148387868Y-112509979D01*
X148451508Y-112913030D01*
G36*
X148451508Y-112913030D02*
G01*
X148048457Y-112849390D01*
X148387868Y-112509979D01*
X148451508Y-112913030D01*
G37*
%TO.C,R17*%
X151122659Y-117239940D02*
X151339940Y-117022659D01*
X151660060Y-117777341D02*
X151877341Y-117560060D01*
%TO.C,Q1*%
X151349013Y-122985445D02*
X152657160Y-121677297D01*
X150719688Y-122356120D02*
X151349013Y-122985445D01*
X149132233Y-120789878D02*
X150440381Y-119481731D01*
X149132233Y-120789878D02*
X149761558Y-121419203D01*
X150709081Y-119198888D02*
X150306030Y-119135248D01*
X150645442Y-118795837D01*
X150709081Y-119198888D01*
G36*
X150709081Y-119198888D02*
G01*
X150306030Y-119135248D01*
X150645442Y-118795837D01*
X150709081Y-119198888D01*
G37*
%TO.C,C11*%
X142260000Y-101372164D02*
X142260000Y-101587836D01*
X141540000Y-101372164D02*
X141540000Y-101587836D01*
%TO.C,C55*%
X145727836Y-94560000D02*
X145512164Y-94560000D01*
X145727836Y-93840000D02*
X145512164Y-93840000D01*
%TO.C,C25*%
X136365580Y-112960000D02*
X136084420Y-112960000D01*
X136365580Y-111940000D02*
X136084420Y-111940000D01*
%TO.C,Y1*%
X157200000Y-109400000D02*
X153200000Y-109400000D01*
X157200000Y-106100000D02*
X157200000Y-109400000D01*
%TO.C,C27*%
X153838781Y-117460030D02*
X153639970Y-117261219D01*
X154560030Y-116738781D02*
X154361219Y-116539970D01*
%TO.C,C59*%
X152860000Y-89812164D02*
X152860000Y-90027836D01*
X152140000Y-89812164D02*
X152140000Y-90027836D01*
%TO.C,C5*%
X142710810Y-103778307D02*
X142558307Y-103930810D01*
X142201693Y-103269190D02*
X142049190Y-103421693D01*
%TO.C,C56*%
X145840000Y-90007836D02*
X145840000Y-89792164D01*
X146560000Y-90007836D02*
X146560000Y-89792164D01*
%TO.C,R6*%
X147522659Y-120639940D02*
X147739940Y-120422659D01*
X148060060Y-121177341D02*
X148277341Y-120960060D01*
%TO.C,R12*%
X138710836Y-114496321D02*
X139053571Y-114794256D01*
X137746429Y-115605744D02*
X138089164Y-115903679D01*
%TO.C,R5*%
X136753641Y-104880000D02*
X136446359Y-104880000D01*
X136753641Y-104120000D02*
X136446359Y-104120000D01*
%TO.C,C3*%
X146178307Y-106769190D02*
X146330810Y-106921693D01*
X145669190Y-107278307D02*
X145821693Y-107430810D01*
%TO.C,R4*%
X136446359Y-105120000D02*
X136753641Y-105120000D01*
X136446359Y-105880000D02*
X136753641Y-105880000D01*
%TO.C,R2*%
X154477341Y-121460060D02*
X154260060Y-121677341D01*
X153939940Y-120922659D02*
X153722659Y-121139940D01*
%TO.C,SW2*%
X166225000Y-107450000D02*
X166775000Y-107450000D01*
X168350000Y-106425000D02*
X168350000Y-107350000D01*
X164650000Y-102650000D02*
X164650000Y-107350000D01*
X168350000Y-102650000D02*
X168350000Y-103575000D01*
X166225000Y-102550000D02*
X166775000Y-102550000D01*
%TO.C,C61*%
X152107836Y-91860000D02*
X151892164Y-91860000D01*
X152107836Y-91140000D02*
X151892164Y-91140000D01*
%TO.C,C50*%
X149940000Y-90007836D02*
X149940000Y-89792164D01*
X150660000Y-90007836D02*
X150660000Y-89792164D01*
%TO.C,C41*%
X150229779Y-98961104D02*
X150382282Y-98808601D01*
X150738896Y-99470221D02*
X150891399Y-99317718D01*
%TO.C,U2*%
X138950000Y-102640000D02*
X140360000Y-102640000D01*
X138960000Y-100320000D02*
X140360000Y-100320000D01*
X138820000Y-102920000D02*
X138340000Y-102920000D01*
X138580000Y-102590000D01*
X138820000Y-102920000D01*
G36*
X138820000Y-102920000D02*
G01*
X138340000Y-102920000D01*
X138580000Y-102590000D01*
X138820000Y-102920000D01*
G37*
%TO.C,R7*%
X142580000Y-110946359D02*
X142580000Y-111253641D01*
X141820000Y-110946359D02*
X141820000Y-111253641D01*
%TO.C,Y2*%
X146475736Y-112155635D02*
X140889593Y-106569492D01*
X147819239Y-110812132D02*
X146475736Y-112155635D01*
%TO.C,D13*%
X139484781Y-114433310D02*
X140333310Y-113584781D01*
X141719239Y-114970711D02*
X140333310Y-113584781D01*
X140870711Y-115819239D02*
X139484781Y-114433310D01*
%TO.C,FB1*%
X143224273Y-104054478D02*
X143454478Y-103824273D01*
X143945522Y-104775727D02*
X144175727Y-104545522D01*
%TO.C,C53*%
X145492164Y-92740000D02*
X145707836Y-92740000D01*
X145492164Y-93460000D02*
X145707836Y-93460000D01*
%TO.C,R16*%
X149322659Y-117239940D02*
X149539940Y-117022659D01*
X149860060Y-117777341D02*
X150077341Y-117560060D01*
%TD*%
%LPC*%
D14*
%TO.C,U1*%
X148148214Y-107473106D03*
D15*
X147837087Y-107077126D03*
X147483534Y-106723573D03*
X147129981Y-106370019D03*
X146776427Y-106016466D03*
X146422874Y-105662913D03*
D16*
X146026894Y-105351786D03*
D17*
X146026894Y-104648214D03*
D18*
X146422874Y-104337087D03*
X146776427Y-103983534D03*
X147129981Y-103629981D03*
X147483534Y-103276427D03*
X147837087Y-102922874D03*
D19*
X148148214Y-102526894D03*
D20*
X148851786Y-102526894D03*
D15*
X149162913Y-102922874D03*
X149516466Y-103276427D03*
X149870019Y-103629981D03*
X150223573Y-103983534D03*
X150577126Y-104337087D03*
D21*
X150973106Y-104648214D03*
D22*
X150973106Y-105351786D03*
D18*
X150577126Y-105662913D03*
X150223573Y-106016466D03*
X149870019Y-106370019D03*
X149516466Y-106723573D03*
X149162913Y-107077126D03*
D23*
X148851786Y-107473106D03*
%TD*%
D24*
%TO.C,L1*%
X144520495Y-114795495D03*
X142929505Y-113204505D03*
%TD*%
D25*
%TO.C,U3*%
X155815632Y-103159242D03*
X155462078Y-102805688D03*
X155108525Y-102452135D03*
X154754972Y-102098582D03*
X154401418Y-101745028D03*
X154047865Y-101391475D03*
X153694312Y-101037922D03*
X153340758Y-100684368D03*
D26*
X153340758Y-99715632D03*
X153694312Y-99362078D03*
X154047865Y-99008525D03*
X154401418Y-98654972D03*
X154754972Y-98301418D03*
X155108525Y-97947865D03*
X155462078Y-97594312D03*
X155815632Y-97240758D03*
D25*
X156784368Y-97240758D03*
X157137922Y-97594312D03*
X157491475Y-97947865D03*
X157845028Y-98301418D03*
X158198582Y-98654972D03*
X158552135Y-99008525D03*
X158905688Y-99362078D03*
X159259242Y-99715632D03*
D26*
X159259242Y-100684368D03*
X158905688Y-101037922D03*
X158552135Y-101391475D03*
X158198582Y-101745028D03*
X157845028Y-102098582D03*
X157491475Y-102452135D03*
X157137922Y-102805688D03*
X156784368Y-103159242D03*
D27*
X156300000Y-100200000D03*
%TD*%
D28*
%TO.C,C31*%
X155980000Y-105100000D03*
X156620000Y-105100000D03*
%TD*%
D29*
%TO.C,L2*%
X149900000Y-94125000D03*
X149900000Y-92000000D03*
%TD*%
D30*
%TO.C,R9*%
X152260624Y-114560624D03*
X151539376Y-113839376D03*
%TD*%
D31*
%TO.C,Li-po1*%
X143169670Y-118603984D03*
X142603984Y-119169670D03*
D32*
X145467767Y-119063604D03*
X143063604Y-121467767D03*
%TD*%
D33*
%TO.C,C54*%
X152460000Y-93100000D03*
X151500000Y-93100000D03*
%TD*%
D34*
%TO.C,ME4055A1*%
X140550000Y-112037500D03*
X139600000Y-112037500D03*
X138650000Y-112037500D03*
X138650000Y-109762500D03*
X139600000Y-109762500D03*
X140550000Y-109762500D03*
%TD*%
D35*
%TO.C,C49*%
X153420000Y-105500000D03*
X154380000Y-105500000D03*
%TD*%
D36*
%TO.C,C10*%
X137300000Y-101400000D03*
X137300000Y-102360000D03*
%TD*%
D37*
%TO.C,C1*%
X150326274Y-102226274D03*
X149873726Y-101773726D03*
%TD*%
D38*
%TO.C,SW3*%
X137797807Y-89565083D03*
X134021273Y-93212039D03*
X138978727Y-90787961D03*
X135202193Y-94434917D03*
%TD*%
D39*
%TO.C,C37*%
X153039411Y-102339411D03*
X152360589Y-101660589D03*
%TD*%
D28*
%TO.C,C2*%
X148180000Y-109250000D03*
X148820000Y-109250000D03*
%TD*%
D39*
%TO.C,C35*%
X155078822Y-104178822D03*
X154400000Y-103500000D03*
%TD*%
D40*
%TO.C,R11*%
X139739376Y-88239376D03*
X140460624Y-88960624D03*
%TD*%
D41*
%TO.C,C24*%
X136325000Y-107000000D03*
X137875000Y-107000000D03*
%TD*%
D39*
%TO.C,C8*%
X142339411Y-108939411D03*
X141660589Y-108260589D03*
%TD*%
D42*
%TO.C,R8*%
X154645235Y-114445235D03*
X153354765Y-113154765D03*
%TD*%
D43*
%TO.C,C26*%
X146351992Y-117051992D03*
X147448008Y-118148008D03*
%TD*%
D44*
%TO.C,R3*%
X150900000Y-109290000D03*
X150900000Y-110310000D03*
%TD*%
D45*
%TO.C,C51*%
X147300000Y-90380000D03*
X147300000Y-89420000D03*
%TD*%
D46*
%TO.C,C4*%
X147548008Y-100251992D03*
X146451992Y-101348008D03*
%TD*%
D47*
%TO.C,C45*%
X150960589Y-100260589D03*
X151639411Y-100939411D03*
%TD*%
D48*
%TO.C,L3*%
X147600000Y-91975000D03*
X147600000Y-94100000D03*
%TD*%
D49*
%TO.C,J2*%
X134385000Y-105500000D03*
D50*
X134385000Y-103480000D03*
D51*
X134385000Y-102250000D03*
D52*
X134385000Y-104500000D03*
D53*
X134385000Y-106520000D03*
D54*
X134385000Y-107750000D03*
D55*
X130750000Y-110125000D03*
D56*
X134330000Y-110125000D03*
D55*
X130750000Y-99875000D03*
D56*
X134330000Y-99875000D03*
%TD*%
D35*
%TO.C,C57*%
X145120000Y-91500000D03*
X146080000Y-91500000D03*
%TD*%
%TO.C,C52*%
X151500000Y-94200000D03*
X152460000Y-94200000D03*
%TD*%
D57*
%TO.C,C39*%
X153500000Y-97400000D03*
X152821178Y-98078822D03*
%TD*%
D58*
%TO.C,C28*%
X142926274Y-88173726D03*
X142473726Y-88626274D03*
%TD*%
D30*
%TO.C,R1*%
X152960624Y-119360624D03*
X152239376Y-118639376D03*
%TD*%
D58*
%TO.C,C7*%
X148526274Y-111273726D03*
X148073726Y-111726274D03*
%TD*%
D45*
%TO.C,C58*%
X145100000Y-90380000D03*
X145100000Y-89420000D03*
%TD*%
D37*
%TO.C,C42*%
X150726274Y-96926274D03*
X150273726Y-96473726D03*
%TD*%
D36*
%TO.C,C48*%
X157900000Y-107920000D03*
X157900000Y-108880000D03*
%TD*%
D59*
%TO.C,R10*%
X141760624Y-89339376D03*
X141039376Y-90060624D03*
%TD*%
D60*
%TO.C,R15*%
X166210000Y-109700000D03*
X165190000Y-109700000D03*
%TD*%
D37*
%TO.C,C44*%
X150826274Y-101526274D03*
X150373726Y-101073726D03*
%TD*%
D61*
%TO.C,R13*%
X132539376Y-115060624D03*
X133260624Y-114339376D03*
%TD*%
D39*
%TO.C,C46*%
X161000000Y-99500000D03*
X160321178Y-98821178D03*
%TD*%
D47*
%TO.C,C43*%
X151360589Y-97960589D03*
X152039411Y-98639411D03*
%TD*%
D39*
%TO.C,C9*%
X144539411Y-106539411D03*
X143860589Y-105860589D03*
%TD*%
D45*
%TO.C,C60*%
X151400000Y-90380000D03*
X151400000Y-89420000D03*
%TD*%
D31*
%TO.C,J1*%
X161401041Y-114872614D03*
X160835355Y-115438299D03*
X160269670Y-116003984D03*
X159703984Y-116569670D03*
X159138299Y-117135355D03*
X158572614Y-117701041D03*
D32*
X163699138Y-115332233D03*
X159032233Y-119999138D03*
%TD*%
D62*
%TO.C,C38*%
X152173726Y-97426274D03*
X152626274Y-96973726D03*
%TD*%
D63*
%TO.C,R14*%
X163000000Y-108787500D03*
X163000000Y-110612500D03*
%TD*%
D36*
%TO.C,C6*%
X149800000Y-109320000D03*
X149800000Y-110280000D03*
%TD*%
D64*
%TO.C,SW1*%
X133961237Y-116919348D03*
X137923462Y-120363658D03*
X135076538Y-115636342D03*
X139038763Y-119080652D03*
%TD*%
D65*
%TO.C,U4*%
X148732583Y-113423915D03*
X149404334Y-114095666D03*
X150076085Y-114767417D03*
X148467417Y-116376085D03*
X147795666Y-115704334D03*
X147123915Y-115032583D03*
%TD*%
D61*
%TO.C,R17*%
X151139376Y-117760624D03*
X151860624Y-117039376D03*
%TD*%
D66*
%TO.C,Q1*%
X151154558Y-119601939D03*
X152498061Y-120945442D03*
X149973690Y-122126310D03*
%TD*%
D36*
%TO.C,C11*%
X141900000Y-101000000D03*
X141900000Y-101960000D03*
%TD*%
D33*
%TO.C,C55*%
X146100000Y-94200000D03*
X145140000Y-94200000D03*
%TD*%
D67*
%TO.C,C25*%
X137000000Y-112450000D03*
X135450000Y-112450000D03*
%TD*%
D68*
%TO.C,Y1*%
X156300000Y-108600000D03*
X154100000Y-108600000D03*
X154100000Y-106900000D03*
X156300000Y-106900000D03*
%TD*%
D58*
%TO.C,C40*%
X150026274Y-98273726D03*
X149573726Y-98726274D03*
%TD*%
D69*
%TO.C,C27*%
X154648008Y-117548008D03*
X153551992Y-116451992D03*
%TD*%
D70*
%TO.C,C29*%
X135913493Y-113790061D03*
X136396507Y-114209939D03*
%TD*%
D71*
%TO.C,C47*%
X161273726Y-98353726D03*
X161726274Y-98806274D03*
%TD*%
D36*
%TO.C,C59*%
X152500000Y-89440000D03*
X152500000Y-90400000D03*
%TD*%
D57*
%TO.C,C5*%
X142719411Y-103260589D03*
X142040589Y-103939411D03*
%TD*%
D71*
%TO.C,C34*%
X153573726Y-103973726D03*
X154026274Y-104426274D03*
%TD*%
%TO.C,C36*%
X151773726Y-102373726D03*
X152226274Y-102826274D03*
%TD*%
D45*
%TO.C,C56*%
X146200000Y-90380000D03*
X146200000Y-89420000D03*
%TD*%
D61*
%TO.C,R6*%
X147539376Y-121160624D03*
X148260624Y-120439376D03*
%TD*%
D72*
%TO.C,R12*%
X137711328Y-114601346D03*
X139088672Y-115798654D03*
%TD*%
D60*
%TO.C,R5*%
X137110000Y-104500000D03*
X136090000Y-104500000D03*
%TD*%
D47*
%TO.C,C3*%
X145660589Y-106760589D03*
X146339411Y-107439411D03*
%TD*%
D73*
%TO.C,R4*%
X136090000Y-105500000D03*
X137110000Y-105500000D03*
%TD*%
D59*
%TO.C,R2*%
X154460624Y-120939376D03*
X153739376Y-121660624D03*
%TD*%
D74*
%TO.C,SW2*%
X167350000Y-107625000D03*
X167350000Y-102375000D03*
X165650000Y-107625000D03*
X165650000Y-102375000D03*
%TD*%
D33*
%TO.C,C61*%
X152480000Y-91500000D03*
X151520000Y-91500000D03*
%TD*%
D45*
%TO.C,C50*%
X150300000Y-90380000D03*
X150300000Y-89420000D03*
%TD*%
D75*
%TO.C,C41*%
X150221178Y-99478822D03*
X150900000Y-98800000D03*
%TD*%
D76*
%TO.C,U2*%
X138710000Y-102130000D03*
X138710000Y-101480000D03*
X138710000Y-100830000D03*
X140610000Y-100830000D03*
X140610000Y-102130000D03*
%TD*%
D44*
%TO.C,R7*%
X142200000Y-110590000D03*
X142200000Y-111610000D03*
%TD*%
D77*
%TO.C,Y2*%
X146263604Y-111236396D03*
X141808832Y-106781624D03*
X142445228Y-106145228D03*
X146900000Y-110600000D03*
%TD*%
D78*
%TO.C,D13*%
X140305025Y-114405025D03*
X141294975Y-115394975D03*
%TD*%
D79*
%TO.C,FB1*%
X143143153Y-104856847D03*
X144256847Y-103743153D03*
%TD*%
D35*
%TO.C,C53*%
X145120000Y-93100000D03*
X146080000Y-93100000D03*
%TD*%
D80*
%TO.C,C30*%
X163000000Y-106925000D03*
X163000000Y-107565000D03*
%TD*%
D61*
%TO.C,R16*%
X149339376Y-117760624D03*
X150060624Y-117039376D03*
%TD*%
%LPD*%
M02*
