%TF.GenerationSoftware,KiCad,Pcbnew,7.0.10-7.0.10~ubuntu22.04.1*%
%TF.CreationDate,2024-04-13T21:42:07+02:00*%
%TF.ProjectId,STM32_watch_NFC,53544d33-325f-4776-9174-63685f4e4643,rev?*%
%TF.SameCoordinates,PX6c3df60PY1312d00*%
%TF.FileFunction,Copper,L2,Inr*%
%TF.FilePolarity,Positive*%
%FSLAX46Y46*%
G04 Gerber Fmt 4.6, Leading zero omitted, Abs format (unit mm)*
G04 Created by KiCad (PCBNEW 7.0.10-7.0.10~ubuntu22.04.1) date 2024-04-13 21:42:07*
%MOMM*%
%LPD*%
G01*
G04 APERTURE LIST*
%TA.AperFunction,ViaPad*%
%ADD10C,0.500000*%
%TD*%
%TA.AperFunction,Conductor*%
%ADD11C,0.300000*%
%TD*%
%TA.AperFunction,Conductor*%
%ADD12C,0.200000*%
%TD*%
G04 APERTURE END LIST*
D10*
%TO.N,Board_0-+3.3V*%
X19789897Y-23126470D03*
X36291635Y-26001659D03*
X45304420Y-25076245D03*
X31742291Y-23676725D03*
X39641098Y-34227026D03*
X47809106Y-33287003D03*
X34028710Y-44788446D03*
X45230772Y-39233826D03*
%TO.N,Board_0-+5V*%
X35397571Y-22523931D03*
X46759505Y-40120864D03*
X36362587Y-23299587D03*
X32866503Y-21828442D03*
X22762761Y-31394758D03*
X30698210Y-40603918D03*
%TO.N,Board_0-+BATT*%
X35022559Y-41004258D03*
X27527096Y-38772508D03*
%TO.N,Board_0-/NFC_RFID/A1*%
X26971773Y-11612510D03*
%TO.N,Board_0-/NFC_RFID/A2*%
X28975362Y-13602172D03*
%TO.N,Board_0-/NRST*%
X38492945Y-35314107D03*
X48078174Y-32444339D03*
X34845726Y-29622201D03*
%TO.N,Board_0-/SWCLK*%
X47269964Y-38282934D03*
X38226831Y-28857384D03*
%TO.N,Board_0-/SWDIO*%
X37607399Y-26789683D03*
X47552003Y-34510271D03*
%TO.N,Board_0-BATT_STM*%
X41542880Y-38305411D03*
X40075686Y-35513934D03*
X33886406Y-25435352D03*
%TO.N,Board_0-Button_LB*%
X32126803Y-30890056D03*
X27894275Y-43345806D03*
%TO.N,Board_0-Button_LT*%
X23371033Y-17318892D03*
X33818740Y-29549404D03*
%TO.N,Board_0-Button_R*%
X48203629Y-27034456D03*
X36942936Y-26547838D03*
%TO.N,Board_0-CHRG_STM*%
X34702395Y-28585660D03*
X32251148Y-39438421D03*
%TO.N,Board_0-DIN_STM*%
X47565553Y-39744997D03*
X44255208Y-38916374D03*
X38053168Y-29587003D03*
X44100209Y-42133278D03*
%TO.N,Board_0-DONE_STM*%
X35669116Y-28753647D03*
X28639595Y-35715964D03*
%TO.N,Board_0-GND*%
X20547313Y-25697233D03*
X37707554Y-14936836D03*
X38699612Y-31024901D03*
X48444986Y-28025287D03*
X34024068Y-40046083D03*
X30228240Y-15886724D03*
X22300202Y-32768999D03*
X25042711Y-21065910D03*
X46294764Y-26490183D03*
X35090987Y-17370677D03*
X26366492Y-20666611D03*
X24475948Y-19451768D03*
X42479961Y-15469871D03*
X47160274Y-21011051D03*
X33171378Y-32775225D03*
X47934916Y-36869485D03*
X22552428Y-27631015D03*
X28555309Y-14239397D03*
X44714706Y-17186236D03*
X50561863Y-29962123D03*
X26463968Y-38385542D03*
X35702438Y-13003054D03*
X28262167Y-24968520D03*
X49165389Y-22944833D03*
X42124897Y-41564821D03*
X23942300Y-36527108D03*
X45929800Y-34935703D03*
X34908268Y-42888741D03*
X40672727Y-39042183D03*
X27154324Y-32767410D03*
X28550597Y-40304833D03*
X42259010Y-37474954D03*
%TO.N,Board_0-Net-(D1-DIN)*%
X22439321Y-21946192D03*
X29277058Y-14840712D03*
%TO.N,Board_0-Net-(D1-DOUT)*%
X37327197Y-14121159D03*
X27571652Y-17098960D03*
%TO.N,Board_0-Net-(D10-DIN)*%
X23822604Y-32721118D03*
X25520579Y-41639065D03*
%TO.N,Board_0-Net-(D10-DOUT)*%
X21251109Y-35961475D03*
X22129810Y-26724707D03*
%TO.N,Board_0-Net-(D11-DOUT)*%
X20014766Y-28814346D03*
X24918170Y-20326319D03*
%TO.N,Board_0-Net-(D2-DOUT)*%
X34789423Y-15739693D03*
X44104720Y-16587976D03*
%TO.N,Board_0-Net-(D3-DOUT)*%
X43397019Y-19566089D03*
X48785033Y-22129156D03*
%TO.N,Board_0-Net-(D4-DOUT)*%
X46337758Y-24097872D03*
X50112006Y-29234023D03*
%TO.N,Board_0-Net-(D5-DOUT)*%
X47864070Y-31275293D03*
X47146979Y-35416344D03*
%TO.N,Board_0-Net-(D7-DIN)*%
X41834479Y-40669006D03*
X41852753Y-42519257D03*
%TO.N,Board_0-Net-(D7-DOUT)*%
X35451207Y-41603774D03*
X39856074Y-42733128D03*
%TO.N,Board_0-Net-(D8-DOUT)*%
X32708945Y-43969472D03*
X27994721Y-39437616D03*
%TO.N,Board_0-Net-(U3-RFO1)*%
X35845593Y-19225554D03*
X32039588Y-19345257D03*
%TO.N,Board_0-Net-(U3-RFO2)*%
X29955080Y-20317279D03*
X38026839Y-17987747D03*
%TO.N,Board_0-Net-(U3-VDD_DR)*%
X36661270Y-18845198D03*
X36894150Y-22795503D03*
%TO.N,Board_0-SPI_CS_STM*%
X31892812Y-28755164D03*
X43482852Y-22615523D03*
%TO.N,Board_0-SPI_IRQ_STM*%
X31635760Y-29459740D03*
X43668179Y-21922245D03*
%TO.N,Board_0-SPI_MISO_STM*%
X32354707Y-27328219D03*
X42692516Y-24583862D03*
%TO.N,Board_0-SPI_MOSI_STM*%
X32741475Y-26685637D03*
X42998901Y-23953823D03*
%TO.N,Board_0-SPI_SCL_STM*%
X32113161Y-28038260D03*
X43258117Y-23303584D03*
%TO.N,Board_1-+3.3V*%
X34028710Y-86788446D03*
X47809106Y-75287003D03*
X45304420Y-67076245D03*
X45230772Y-81233826D03*
X36291635Y-68001659D03*
X19789897Y-65126470D03*
X39641098Y-76227026D03*
X31742291Y-65676725D03*
%TO.N,Board_1-+5V*%
X32866503Y-63828442D03*
X36362587Y-65299587D03*
X35397571Y-64523931D03*
X30698210Y-82603918D03*
X46759505Y-82120864D03*
X22762761Y-73394758D03*
%TO.N,Board_1-+BATT*%
X27527096Y-80772508D03*
X35022559Y-83004258D03*
%TO.N,Board_1-/NFC_RFID/A1*%
X26971773Y-53612510D03*
%TO.N,Board_1-/NFC_RFID/A2*%
X28975362Y-55602172D03*
%TO.N,Board_1-/NRST*%
X48078174Y-74444339D03*
X38492945Y-77314107D03*
X34845726Y-71622201D03*
%TO.N,Board_1-/SWCLK*%
X47269964Y-80282934D03*
X38226831Y-70857384D03*
%TO.N,Board_1-/SWDIO*%
X47552003Y-76510271D03*
X37607399Y-68789683D03*
%TO.N,Board_1-BATT_STM*%
X40075686Y-77513934D03*
X33886406Y-67435352D03*
X41542880Y-80305411D03*
%TO.N,Board_1-Button_LB*%
X32126803Y-72890056D03*
X27894275Y-85345806D03*
%TO.N,Board_1-Button_LT*%
X23371033Y-59318892D03*
X33818740Y-71549404D03*
%TO.N,Board_1-Button_R*%
X36942936Y-68547838D03*
X48203629Y-69034456D03*
%TO.N,Board_1-CHRG_STM*%
X32251148Y-81438421D03*
X34702395Y-70585660D03*
%TO.N,Board_1-DIN_STM*%
X47565553Y-81744997D03*
X38053168Y-71587003D03*
X44255208Y-80916374D03*
X44100209Y-84133278D03*
%TO.N,Board_1-DONE_STM*%
X28639595Y-77715964D03*
X35669116Y-70753647D03*
%TO.N,Board_1-GND*%
X46294764Y-68490183D03*
X34908268Y-84888741D03*
X27154324Y-74767410D03*
X40672727Y-81042183D03*
X42259010Y-79474954D03*
X44714706Y-59186236D03*
X42479961Y-57469871D03*
X28555309Y-56239397D03*
X42124897Y-83564821D03*
X48444986Y-70025287D03*
X45929800Y-76935703D03*
X35090987Y-59370677D03*
X35702438Y-55003054D03*
X28550597Y-82304833D03*
X50561863Y-71962123D03*
X22552428Y-69631015D03*
X33171378Y-74775225D03*
X25042711Y-63065910D03*
X34024068Y-82046083D03*
X49165389Y-64944833D03*
X28262167Y-66968520D03*
X26463968Y-80385542D03*
X30228240Y-57886724D03*
X37707554Y-56936836D03*
X26366492Y-62666611D03*
X38699612Y-73024901D03*
X23942300Y-78527108D03*
X20547313Y-67697233D03*
X47160274Y-63011051D03*
X22300202Y-74768999D03*
X24475948Y-61451768D03*
X47934916Y-78869485D03*
%TO.N,Board_1-Net-(D1-DIN)*%
X22439321Y-63946192D03*
X29277058Y-56840712D03*
%TO.N,Board_1-Net-(D1-DOUT)*%
X27615415Y-59192812D03*
X37327197Y-56121159D03*
%TO.N,Board_1-Net-(D10-DIN)*%
X23822604Y-74721118D03*
X25520579Y-83639065D03*
%TO.N,Board_1-Net-(D10-DOUT)*%
X21251109Y-77961475D03*
X22129810Y-68724707D03*
%TO.N,Board_1-Net-(D11-DOUT)*%
X20014766Y-70814346D03*
X24918170Y-62326319D03*
%TO.N,Board_1-Net-(D2-DOUT)*%
X34789423Y-57739693D03*
X44104720Y-58587976D03*
%TO.N,Board_1-Net-(D3-DOUT)*%
X48785033Y-64129156D03*
X43397019Y-61566089D03*
%TO.N,Board_1-Net-(D4-DOUT)*%
X50112006Y-71234023D03*
X46337758Y-66097872D03*
%TO.N,Board_1-Net-(D5-DOUT)*%
X47146979Y-77416344D03*
X47864070Y-73275293D03*
%TO.N,Board_1-Net-(D7-DIN)*%
X41834479Y-82669006D03*
X41852753Y-84519257D03*
%TO.N,Board_1-Net-(D7-DOUT)*%
X39856074Y-84733128D03*
X35451207Y-83603774D03*
%TO.N,Board_1-Net-(D8-DOUT)*%
X27994721Y-81437616D03*
X32708945Y-85969472D03*
%TO.N,Board_1-Net-(U3-RFO1)*%
X35845593Y-61225554D03*
X32039588Y-61345257D03*
%TO.N,Board_1-Net-(U3-RFO2)*%
X38026839Y-59987747D03*
X29955080Y-62317279D03*
%TO.N,Board_1-Net-(U3-VDD_DR)*%
X36661270Y-60845198D03*
X36894150Y-64795503D03*
%TO.N,Board_1-SPI_CS_STM*%
X31892812Y-70755164D03*
X43482852Y-64615523D03*
%TO.N,Board_1-SPI_IRQ_STM*%
X43668179Y-63922245D03*
X31635760Y-71459740D03*
%TO.N,Board_1-SPI_MISO_STM*%
X32354707Y-69328219D03*
X42692516Y-66583862D03*
%TO.N,Board_1-SPI_MOSI_STM*%
X42998901Y-65953823D03*
X32741475Y-68685637D03*
%TO.N,Board_1-SPI_SCL_STM*%
X32113161Y-70038260D03*
X43258117Y-65303584D03*
%TD*%
D11*
%TO.N,Board_0-+3.3V*%
X36005994Y-26786451D02*
X39441759Y-34154472D01*
X36291635Y-26001659D02*
X35915845Y-25195774D01*
X36291635Y-26001659D02*
X36005994Y-26786451D01*
X39441759Y-34154472D02*
X39641098Y-34227026D01*
X35915845Y-25195774D02*
X31742291Y-23676725D01*
%TO.N,Board_0-+5V*%
X36362587Y-23299587D02*
X36124221Y-22788410D01*
X36251006Y-23060300D02*
X36362587Y-23299587D01*
X35125680Y-22650715D02*
X34992785Y-22602346D01*
X36124221Y-22788410D02*
X35397571Y-22523931D01*
X35397571Y-22523931D02*
X35125680Y-22650715D01*
X32866503Y-21828442D02*
X34992785Y-22602346D01*
X34992785Y-22602346D02*
X36251006Y-23060300D01*
D12*
%TO.N,Board_0-/NRST*%
X37296912Y-34878786D02*
X38492945Y-35314107D01*
X34845726Y-29622201D02*
X37296912Y-34878786D01*
%TO.N,Board_0-/SWCLK*%
X44189006Y-38064542D02*
X46182395Y-38790076D01*
X46182395Y-38790076D02*
X47269964Y-38282934D01*
X40236768Y-29588941D02*
X44189006Y-38064542D01*
X38226831Y-28857384D02*
X40236768Y-29588941D01*
%TO.N,Board_0-/SWDIO*%
X48972526Y-31641111D02*
X48005146Y-34298967D01*
X48005146Y-34298967D02*
X47552003Y-34510271D01*
X48571040Y-30780122D02*
X48972526Y-31641111D01*
X37607399Y-26789683D02*
X48571040Y-30780122D01*
%TO.N,Board_0-BATT_STM*%
X33886406Y-25435352D02*
X34731643Y-27247968D01*
X34731643Y-27247968D02*
X35927676Y-27683288D01*
X39211884Y-35199536D02*
X40275025Y-35586487D01*
X35927676Y-27683288D02*
X38590171Y-33393027D01*
X38590171Y-33393027D02*
X38493433Y-33658812D01*
X40275025Y-35586487D02*
X41542880Y-38305411D01*
X38493433Y-33658812D02*
X39211884Y-35199536D01*
%TO.N,Board_0-Button_LB*%
X27894275Y-43345806D02*
X25527613Y-38270483D01*
X26446623Y-35745523D02*
X31159424Y-33547908D01*
X25527613Y-38270483D02*
X26446623Y-35745523D01*
X31159424Y-33547908D02*
X32126803Y-30890056D01*
%TO.N,Board_0-Button_R*%
X36942936Y-26547838D02*
X37088043Y-26149160D01*
X37359935Y-26022375D02*
X41612499Y-27570181D01*
X37088043Y-26149160D02*
X37178674Y-26106898D01*
X44669029Y-28682667D02*
X48203629Y-27034456D01*
X37178674Y-26106898D02*
X37359935Y-26022375D01*
X41612499Y-27570181D02*
X44669029Y-28682667D01*
%TO.N,Board_0-CHRG_STM*%
X35496511Y-35276976D02*
X34335656Y-38466399D01*
X34702395Y-28585660D02*
X34303717Y-28440553D01*
X33390014Y-28866619D02*
X33003063Y-29929760D01*
X34335656Y-38466399D02*
X32251148Y-39438421D01*
X33003063Y-29929760D02*
X35496511Y-35276976D01*
X34303717Y-28440553D02*
X33390014Y-28866619D01*
%TO.N,Board_0-DIN_STM*%
X43989423Y-38819636D02*
X43820376Y-38457113D01*
D11*
X46985126Y-41339708D02*
X47565553Y-39744997D01*
X45595616Y-41435958D02*
X46260080Y-41677803D01*
X44100209Y-42133278D02*
X45595616Y-41435958D01*
X46260080Y-41677803D02*
X46985126Y-41339708D01*
D12*
X38053168Y-29587003D02*
X40017580Y-30301990D01*
X44255208Y-38916374D02*
X43989423Y-38819636D01*
X40017580Y-30301990D02*
X43820376Y-38457113D01*
%TO.N,Board_0-DONE_STM*%
X35669116Y-28753647D02*
X35353213Y-28076191D01*
X34538167Y-27779538D02*
X32906813Y-28540251D01*
X33622955Y-33392185D02*
X28639595Y-35715964D01*
X35353213Y-28076191D02*
X34538167Y-27779538D01*
X32906813Y-28540251D02*
X32471492Y-29736284D01*
X33865511Y-32725767D02*
X33622955Y-33392185D01*
X32471492Y-29736284D02*
X33865511Y-32725767D01*
D11*
%TO.N,Board_0-GND*%
X42257790Y-41613190D02*
X42124897Y-41564821D01*
X30373345Y-15488051D02*
X30228240Y-15886724D01*
X29035833Y-44137543D02*
X35148892Y-46362515D01*
X22300202Y-32768999D02*
X22130911Y-33234123D01*
X42933115Y-15258562D02*
X44461380Y-15814805D01*
X37925458Y-13511172D02*
X36064961Y-12834007D01*
X35702438Y-13003054D02*
X30373345Y-15488051D01*
X44883997Y-16721111D02*
X44714706Y-17186236D01*
X49886043Y-37504388D02*
X49547948Y-36779342D01*
X39499170Y-44333947D02*
X42399355Y-42981568D01*
X40672727Y-39042183D02*
X42400331Y-39670979D01*
X42479961Y-15469871D02*
X42933115Y-15258562D01*
X22482809Y-38366244D02*
X24722686Y-43169676D01*
X21272359Y-25359138D02*
X20547313Y-25697233D01*
X49543793Y-30381688D02*
X48444986Y-28025287D01*
X36064961Y-12834007D02*
X35702438Y-13003054D01*
X35180160Y-42761956D02*
X34908268Y-42888741D01*
X22468392Y-25794459D02*
X21272359Y-25359138D01*
X28310786Y-44475637D02*
X29035833Y-44137543D01*
X42396789Y-41438036D02*
X42124897Y-41564821D01*
X28550597Y-40304833D02*
X29606586Y-42569410D01*
X42759556Y-40441341D02*
X42396789Y-41438036D01*
X22348571Y-32636106D02*
X22300202Y-32768999D01*
X27115357Y-39782449D02*
X26463968Y-38385542D01*
X29234189Y-27053028D02*
X27154324Y-32767410D01*
X28262167Y-24968520D02*
X29234189Y-27053028D01*
X23610068Y-36406186D02*
X23942300Y-36527108D01*
X43892197Y-40740716D02*
X49692567Y-38035959D01*
X47934916Y-36869485D02*
X47826848Y-36919877D01*
X24830699Y-21164772D02*
X25042711Y-21065910D01*
X22130911Y-33234123D02*
X23610068Y-36406186D01*
X48750593Y-36489128D02*
X47934916Y-36869485D01*
X43843828Y-40873608D02*
X43892197Y-40740716D01*
X39364075Y-31266746D02*
X38699612Y-31024901D01*
X43843828Y-40873608D02*
X39364075Y-31266746D01*
X29606586Y-42569410D02*
X29035833Y-44137543D01*
X49610240Y-30405872D02*
X49543793Y-30381688D01*
X28550597Y-40304833D02*
X27115357Y-39782449D01*
X24722686Y-43169676D02*
X28310786Y-44475637D01*
X37707554Y-14936836D02*
X38094505Y-13873695D01*
X49692567Y-38035959D02*
X49886043Y-37504388D01*
X47836463Y-22461143D02*
X47160274Y-21011051D01*
X49547948Y-36779342D02*
X48750593Y-36489128D01*
X24297133Y-31727477D02*
X22348571Y-32636106D01*
X38094505Y-13873695D02*
X37925458Y-13511172D01*
X23719390Y-24218069D02*
X24830699Y-21164772D01*
X22990691Y-36970851D02*
X23942300Y-36527108D01*
X42568646Y-42516444D02*
X42124897Y-41564821D01*
X20547313Y-25697233D02*
X19369113Y-26246637D01*
X42400331Y-39670979D02*
X42759556Y-40441341D01*
X44461380Y-15814805D02*
X44883997Y-16721111D01*
X22891011Y-26700767D02*
X22468392Y-25794459D01*
X49165389Y-22944833D02*
X47836463Y-22461143D01*
X42399355Y-42981568D02*
X42568646Y-42516444D01*
X22552428Y-27631015D02*
X22891011Y-26700767D01*
X50561863Y-29962123D02*
X49610240Y-30405872D01*
X43843828Y-40873608D02*
X42257790Y-41613190D01*
X46656382Y-36493862D02*
X45929800Y-34935703D01*
X21272359Y-25359138D02*
X23719390Y-24218069D01*
X22482809Y-38366244D02*
X22990691Y-36970851D01*
X47826848Y-36919877D02*
X46656382Y-36493862D01*
X33830591Y-40577657D02*
X34908268Y-42888741D01*
X19369113Y-26246637D02*
X17724568Y-30764985D01*
X27154324Y-32767410D02*
X24297133Y-31727477D01*
X35148892Y-46362515D02*
X39499170Y-44333947D01*
X39499170Y-44333947D02*
X35180160Y-42761956D01*
X17724568Y-30764985D02*
X21020991Y-37834186D01*
X34024068Y-40046083D02*
X33830591Y-40577657D01*
X21020991Y-37834186D02*
X22482809Y-38366244D01*
%TO.N,Board_0-Net-(D1-DIN)*%
X22439321Y-21946192D02*
X24156419Y-17228505D01*
X24156419Y-17228505D02*
X29277058Y-14840712D01*
%TO.N,Board_0-Net-(D1-DOUT)*%
X27622692Y-17150000D02*
X32530587Y-17150000D01*
X35559428Y-14121159D02*
X37327197Y-14121159D01*
X32530587Y-17150000D02*
X35559428Y-14121159D01*
X27571652Y-17098960D02*
X27622692Y-17150000D01*
%TO.N,Board_0-Net-(D10-DIN)*%
X25520579Y-41639065D02*
X24032962Y-38448862D01*
X24032962Y-38448862D02*
X25111590Y-35485357D01*
X25111590Y-35485357D02*
X23822604Y-32721118D01*
%TO.N,Board_0-Net-(D10-DOUT)*%
X22129810Y-26724707D02*
X21199561Y-26386124D01*
X19840100Y-27020052D02*
X18630876Y-30342367D01*
X21199561Y-26386124D02*
X19840100Y-27020052D01*
X18630876Y-30342367D02*
X21251109Y-35961475D01*
%TO.N,Board_0-Net-(D11-DOUT)*%
X20014766Y-28814346D02*
X20141552Y-29086238D01*
X27259609Y-24001629D02*
X25674079Y-20601447D01*
X22002048Y-29763404D02*
X25808541Y-27988407D01*
X20141552Y-29086238D02*
X22002048Y-29763404D01*
X25808541Y-27988407D02*
X27259609Y-24001629D01*
X25674079Y-20601447D02*
X24918170Y-20326319D01*
%TO.N,Board_0-Net-(D2-DOUT)*%
X44104720Y-16587976D02*
X40751381Y-18151663D01*
X40751381Y-18151663D02*
X37201393Y-18151663D01*
X37201393Y-18151663D02*
X34789423Y-15739693D01*
%TO.N,Board_0-Net-(D3-DOUT)*%
X47813011Y-20044648D02*
X44756481Y-18932162D01*
X44756481Y-18932162D02*
X43397019Y-19566089D01*
X48785033Y-22129156D02*
X47813011Y-20044648D01*
%TO.N,Board_0-Net-(D4-DOUT)*%
X47998915Y-24702484D02*
X46337758Y-24097872D01*
X50112006Y-29234023D02*
X47998915Y-24702484D01*
%TO.N,Board_0-Net-(D5-DOUT)*%
X47864070Y-31275293D02*
X46703221Y-34464701D01*
X46703221Y-34464701D02*
X47146979Y-35416344D01*
%TO.N,Board_0-Net-(D7-DIN)*%
X41625340Y-40766529D02*
X41834479Y-40669006D01*
X41366746Y-41477011D02*
X41625340Y-40766529D01*
X41852753Y-42519257D02*
X41366746Y-41477011D01*
%TO.N,Board_0-Net-(D7-DOUT)*%
X35451207Y-41603772D02*
X36021960Y-41337625D01*
X36021960Y-41337625D02*
X39856074Y-42733128D01*
%TO.N,Board_0-Net-(D8-DOUT)*%
X32708945Y-43969472D02*
X31345824Y-43473336D01*
X31345824Y-43473336D02*
X29764268Y-40081679D01*
X29764268Y-40081679D02*
X27994721Y-39437616D01*
%TO.N,Board_0-Net-(U3-RFO1)*%
X35845593Y-19225554D02*
X34032977Y-20070791D01*
X34032977Y-20070791D02*
X32039588Y-19345257D01*
%TO.N,Board_0-Net-(U3-RFO2)*%
X33689264Y-17913974D02*
X30245294Y-19519923D01*
X30245294Y-19519923D02*
X29955080Y-20317279D01*
X35018190Y-18397663D02*
X33689264Y-17913974D01*
X36830805Y-17552427D02*
X35018190Y-18397663D01*
X38026839Y-17987747D02*
X36830805Y-17552427D01*
%TO.N,Board_0-Net-(U3-VDD_DR)*%
X36661270Y-18845198D02*
X35955852Y-20783317D01*
X35955852Y-20783317D02*
X36894150Y-22795503D01*
%TO.N,Board_1-+3.3V*%
X36291635Y-68001659D02*
X35915845Y-67195774D01*
X39441759Y-76154472D02*
X39641098Y-76227026D01*
X35915845Y-67195774D02*
X31742291Y-65676725D01*
X36005994Y-68786451D02*
X39441759Y-76154472D01*
X36291635Y-68001659D02*
X36005994Y-68786451D01*
%TO.N,Board_1-+5V*%
X32866503Y-63828442D02*
X34992785Y-64602346D01*
X34992785Y-64602346D02*
X36251006Y-65060300D01*
X35397571Y-64523931D02*
X35125680Y-64650715D01*
X36362587Y-65299587D02*
X36124221Y-64788410D01*
X35125680Y-64650715D02*
X34992785Y-64602346D01*
X36124221Y-64788410D02*
X35397571Y-64523931D01*
X36251006Y-65060300D02*
X36362587Y-65299587D01*
D12*
%TO.N,Board_1-/NRST*%
X37296912Y-76878786D02*
X38492945Y-77314107D01*
X34845726Y-71622201D02*
X37296912Y-76878786D01*
%TO.N,Board_1-/SWCLK*%
X40236768Y-71588941D02*
X44189006Y-80064542D01*
X38226831Y-70857384D02*
X40236768Y-71588941D01*
X46182395Y-80790076D02*
X47269964Y-80282934D01*
X44189006Y-80064542D02*
X46182395Y-80790076D01*
%TO.N,Board_1-/SWDIO*%
X48972526Y-73641111D02*
X48005146Y-76298967D01*
X37607399Y-68789683D02*
X48571040Y-72780122D01*
X48571040Y-72780122D02*
X48972526Y-73641111D01*
X48005146Y-76298967D02*
X47552003Y-76510271D01*
%TO.N,Board_1-BATT_STM*%
X34731643Y-69247968D02*
X35927676Y-69683288D01*
X40275025Y-77586487D02*
X41542880Y-80305411D01*
X38493433Y-75658812D02*
X39211884Y-77199536D01*
X38590171Y-75393027D02*
X38493433Y-75658812D01*
X35927676Y-69683288D02*
X38590171Y-75393027D01*
X39211884Y-77199536D02*
X40275025Y-77586487D01*
X33886406Y-67435352D02*
X34731643Y-69247968D01*
%TO.N,Board_1-Button_LB*%
X27894275Y-85345806D02*
X25527613Y-80270483D01*
X26446623Y-77745523D02*
X31159424Y-75547908D01*
X31159424Y-75547908D02*
X32126803Y-72890056D01*
X25527613Y-80270483D02*
X26446623Y-77745523D01*
%TO.N,Board_1-Button_R*%
X37178674Y-68106898D02*
X37359935Y-68022375D01*
X44669029Y-70682667D02*
X48203629Y-69034456D01*
X41612499Y-69570181D02*
X44669029Y-70682667D01*
X36942936Y-68547838D02*
X37088043Y-68149160D01*
X37088043Y-68149160D02*
X37178674Y-68106898D01*
X37359935Y-68022375D02*
X41612499Y-69570181D01*
%TO.N,Board_1-CHRG_STM*%
X34303717Y-70440553D02*
X33390014Y-70866619D01*
X35496511Y-77276976D02*
X34335656Y-80466399D01*
X34335656Y-80466399D02*
X32251148Y-81438421D01*
X33390014Y-70866619D02*
X33003063Y-71929760D01*
X34702395Y-70585660D02*
X34303717Y-70440553D01*
X33003063Y-71929760D02*
X35496511Y-77276976D01*
D11*
%TO.N,Board_1-DIN_STM*%
X45595616Y-83435958D02*
X46260080Y-83677803D01*
D12*
X38053168Y-71587003D02*
X40017580Y-72301990D01*
D11*
X46985126Y-83339708D02*
X47565553Y-81744997D01*
X46260080Y-83677803D02*
X46985126Y-83339708D01*
D12*
X43989423Y-80819636D02*
X43820376Y-80457113D01*
D11*
X44100209Y-84133278D02*
X45595616Y-83435958D01*
D12*
X40017580Y-72301990D02*
X43820376Y-80457113D01*
X44255208Y-80916374D02*
X43989423Y-80819636D01*
%TO.N,Board_1-DONE_STM*%
X32906813Y-70540251D02*
X32471492Y-71736284D01*
X33622955Y-75392185D02*
X28639595Y-77715964D01*
X34538167Y-69779538D02*
X32906813Y-70540251D01*
X33865511Y-74725767D02*
X33622955Y-75392185D01*
X35353213Y-70076191D02*
X34538167Y-69779538D01*
X35669116Y-70753647D02*
X35353213Y-70076191D01*
X32471492Y-71736284D02*
X33865511Y-74725767D01*
D11*
%TO.N,Board_1-GND*%
X44883997Y-58721111D02*
X44714706Y-59186236D01*
X22552428Y-69631015D02*
X22891011Y-68700767D01*
X33830591Y-82577657D02*
X34908268Y-84888741D01*
X43843828Y-82873608D02*
X42257790Y-83613190D01*
X38094505Y-55873695D02*
X37925458Y-55511172D01*
X37707554Y-56936836D02*
X38094505Y-55873695D01*
X42759556Y-82441341D02*
X42396789Y-83438036D01*
X42257790Y-83613190D02*
X42124897Y-83564821D01*
X39499170Y-86333947D02*
X42399355Y-84981568D01*
X22130911Y-75234123D02*
X23610068Y-78406186D01*
X22468392Y-67794459D02*
X21272359Y-67359138D01*
X21020991Y-79834186D02*
X22482809Y-80366244D01*
X46656382Y-78493862D02*
X45929800Y-76935703D01*
X28550597Y-82304833D02*
X27115357Y-81782449D01*
X47826848Y-78919877D02*
X46656382Y-78493862D01*
X30373345Y-57488051D02*
X30228240Y-57886724D01*
X42479961Y-57469871D02*
X42933115Y-57258562D01*
X28262167Y-66968520D02*
X29234189Y-69053028D01*
X23719390Y-66218069D02*
X24830699Y-63164772D01*
X49886043Y-79504388D02*
X49547948Y-78779342D01*
X34024068Y-82046083D02*
X33830591Y-82577657D01*
X39364075Y-73266746D02*
X38699612Y-73024901D01*
X19369113Y-68246637D02*
X17724568Y-72764985D01*
X29234189Y-69053028D02*
X27154324Y-74767410D01*
X48750593Y-78489128D02*
X47934916Y-78869485D01*
X22482809Y-80366244D02*
X22990691Y-78970851D01*
X40672727Y-81042183D02*
X42400331Y-81670979D01*
X35702438Y-55003054D02*
X30373345Y-57488051D01*
X44461380Y-57814805D02*
X44883997Y-58721111D01*
X22300202Y-74768999D02*
X22130911Y-75234123D01*
X29035833Y-86137543D02*
X35148892Y-88362515D01*
X36064961Y-54834007D02*
X35702438Y-55003054D01*
X49610240Y-72405872D02*
X49543793Y-72381688D01*
X27115357Y-81782449D02*
X26463968Y-80385542D01*
X28310786Y-86475637D02*
X29035833Y-86137543D01*
X42568646Y-84516444D02*
X42124897Y-83564821D01*
X20547313Y-67697233D02*
X19369113Y-68246637D01*
X24830699Y-63164772D02*
X25042711Y-63065910D01*
X35148892Y-88362515D02*
X39499170Y-86333947D01*
X22482809Y-80366244D02*
X24722686Y-85169676D01*
X42399355Y-84981568D02*
X42568646Y-84516444D01*
X49543793Y-72381688D02*
X48444986Y-70025287D01*
X49547948Y-78779342D02*
X48750593Y-78489128D01*
X35180160Y-84761956D02*
X34908268Y-84888741D01*
X43892197Y-82740716D02*
X49692567Y-80035959D01*
X24297133Y-73727477D02*
X22348571Y-74636106D01*
X28550597Y-82304833D02*
X29606586Y-84569410D01*
X50561863Y-71962123D02*
X49610240Y-72405872D01*
X29606586Y-84569410D02*
X29035833Y-86137543D01*
X21272359Y-67359138D02*
X23719390Y-66218069D01*
X49692567Y-80035959D02*
X49886043Y-79504388D01*
X37925458Y-55511172D02*
X36064961Y-54834007D01*
X47934916Y-78869485D02*
X47826848Y-78919877D01*
X43843828Y-82873608D02*
X39364075Y-73266746D01*
X23610068Y-78406186D02*
X23942300Y-78527108D01*
X22990691Y-78970851D02*
X23942300Y-78527108D01*
X49165389Y-64944833D02*
X47836463Y-64461143D01*
X21272359Y-67359138D02*
X20547313Y-67697233D01*
X39499170Y-86333947D02*
X35180160Y-84761956D01*
X42396789Y-83438036D02*
X42124897Y-83564821D01*
X43843828Y-82873608D02*
X43892197Y-82740716D01*
X22348571Y-74636106D02*
X22300202Y-74768999D01*
X27154324Y-74767410D02*
X24297133Y-73727477D01*
X47836463Y-64461143D02*
X47160274Y-63011051D01*
X22891011Y-68700767D02*
X22468392Y-67794459D01*
X17724568Y-72764985D02*
X21020991Y-79834186D01*
X24722686Y-85169676D02*
X28310786Y-86475637D01*
X42400331Y-81670979D02*
X42759556Y-82441341D01*
X42933115Y-57258562D02*
X44461380Y-57814805D01*
%TO.N,Board_1-Net-(D1-DIN)*%
X22439321Y-63946192D02*
X24156419Y-59228505D01*
X24156419Y-59228505D02*
X29277058Y-56840712D01*
%TO.N,Board_1-Net-(D1-DOUT)*%
X27622603Y-59200000D02*
X32480587Y-59200000D01*
X27615415Y-59192812D02*
X27622603Y-59200000D01*
X32480587Y-59200000D02*
X34540894Y-57139693D01*
X34540894Y-57139693D02*
X35037952Y-57139693D01*
X35602596Y-57845760D02*
X37327197Y-56121159D01*
X35389423Y-57632587D02*
X35602596Y-57845760D01*
X35389423Y-57491164D02*
X35389423Y-57632587D01*
X35037952Y-57139693D02*
X35389423Y-57491164D01*
%TO.N,Board_1-Net-(D10-DIN)*%
X24032962Y-80448862D02*
X25111590Y-77485357D01*
X25520579Y-83639065D02*
X24032962Y-80448862D01*
X25111590Y-77485357D02*
X23822604Y-74721118D01*
%TO.N,Board_1-Net-(D10-DOUT)*%
X18630876Y-72342367D02*
X21251109Y-77961475D01*
X21199561Y-68386124D02*
X19840100Y-69020052D01*
X19840100Y-69020052D02*
X18630876Y-72342367D01*
X22129810Y-68724707D02*
X21199561Y-68386124D01*
%TO.N,Board_1-Net-(D11-DOUT)*%
X25674079Y-62601447D02*
X24918170Y-62326319D01*
X22002048Y-71763404D02*
X25808541Y-69988407D01*
X20141552Y-71086238D02*
X22002048Y-71763404D01*
X20014766Y-70814346D02*
X20141552Y-71086238D01*
X27259609Y-66001629D02*
X25674079Y-62601447D01*
X25808541Y-69988407D02*
X27259609Y-66001629D01*
%TO.N,Board_1-Net-(D2-DOUT)*%
X40751381Y-60151663D02*
X37201393Y-60151663D01*
X37201393Y-60151663D02*
X34789423Y-57739693D01*
X44104720Y-58587976D02*
X40751381Y-60151663D01*
%TO.N,Board_1-Net-(D3-DOUT)*%
X47813011Y-62044648D02*
X44756481Y-60932162D01*
X44756481Y-60932162D02*
X43397019Y-61566089D01*
X48785033Y-64129156D02*
X47813011Y-62044648D01*
%TO.N,Board_1-Net-(D4-DOUT)*%
X47998915Y-66702484D02*
X46337758Y-66097872D01*
X50112006Y-71234023D02*
X47998915Y-66702484D01*
%TO.N,Board_1-Net-(D5-DOUT)*%
X47864070Y-73275293D02*
X46703221Y-76464701D01*
X46703221Y-76464701D02*
X47146979Y-77416344D01*
%TO.N,Board_1-Net-(D7-DIN)*%
X41625340Y-82766529D02*
X41834479Y-82669006D01*
X41852753Y-84519257D02*
X41366746Y-83477011D01*
X41366746Y-83477011D02*
X41625340Y-82766529D01*
%TO.N,Board_1-Net-(D7-DOUT)*%
X35451207Y-83603772D02*
X36021960Y-83337625D01*
X36021960Y-83337625D02*
X39856074Y-84733128D01*
%TO.N,Board_1-Net-(D8-DOUT)*%
X31345824Y-85473336D02*
X29764268Y-82081679D01*
X29764268Y-82081679D02*
X27994721Y-81437616D01*
X32708945Y-85969472D02*
X31345824Y-85473336D01*
%TO.N,Board_1-Net-(U3-RFO1)*%
X34032977Y-62070791D02*
X32039588Y-61345257D01*
X35845593Y-61225554D02*
X34032977Y-62070791D01*
%TO.N,Board_1-Net-(U3-RFO2)*%
X38026839Y-59987747D02*
X36830805Y-59552427D01*
X33689264Y-59913974D02*
X30245294Y-61519923D01*
X35018190Y-60397663D02*
X33689264Y-59913974D01*
X36830805Y-59552427D02*
X35018190Y-60397663D01*
X30245294Y-61519923D02*
X29955080Y-62317279D01*
%TO.N,Board_1-Net-(U3-VDD_DR)*%
X35955852Y-62783317D02*
X36894150Y-64795503D01*
X36661270Y-60845198D02*
X35955852Y-62783317D01*
%TD*%
M02*
