%TF.GenerationSoftware,KiCad,Pcbnew,8.0.9-8.0.9-0~ubuntu24.04.1*%
%TF.CreationDate,2025-06-26T14:03:09+02:00*%
%TF.ProjectId,STM32_watch_NFC,53544d33-325f-4776-9174-63685f4e4643,rev?*%
%TF.SameCoordinates,Original*%
%TF.FileFunction,Drillmap*%
%TF.FilePolarity,Positive*%
%FSLAX45Y45*%
G04 Gerber Fmt 4.5, Leading zero omitted, Abs format (unit mm)*
G04 Created by KiCad (PCBNEW 8.0.9-8.0.9-0~ubuntu24.04.1) date 2025-06-26 14:03:09*
%MOMM*%
%LPD*%
G01*
G04 APERTURE LIST*
%ADD10C,0.100000*%
%ADD11C,0.200000*%
G04 APERTURE END LIST*
D10*
X16700000Y-10500000D02*
G75*
G02*
X13000000Y-10500000I-1850000J0D01*
G01*
X13000000Y-10500000D02*
G75*
G02*
X16700000Y-10500000I1850000J0D01*
G01*
D11*
X13255777Y-12666484D02*
X13255777Y-12466484D01*
X13255777Y-12466484D02*
X13303396Y-12466484D01*
X13303396Y-12466484D02*
X13331967Y-12476008D01*
X13331967Y-12476008D02*
X13351015Y-12495055D01*
X13351015Y-12495055D02*
X13360539Y-12514103D01*
X13360539Y-12514103D02*
X13370062Y-12552198D01*
X13370062Y-12552198D02*
X13370062Y-12580769D01*
X13370062Y-12580769D02*
X13360539Y-12618865D01*
X13360539Y-12618865D02*
X13351015Y-12637912D01*
X13351015Y-12637912D02*
X13331967Y-12656960D01*
X13331967Y-12656960D02*
X13303396Y-12666484D01*
X13303396Y-12666484D02*
X13255777Y-12666484D01*
X13455777Y-12666484D02*
X13455777Y-12533150D01*
X13455777Y-12571246D02*
X13465301Y-12552198D01*
X13465301Y-12552198D02*
X13474824Y-12542674D01*
X13474824Y-12542674D02*
X13493872Y-12533150D01*
X13493872Y-12533150D02*
X13512920Y-12533150D01*
X13579586Y-12666484D02*
X13579586Y-12533150D01*
X13579586Y-12466484D02*
X13570062Y-12476008D01*
X13570062Y-12476008D02*
X13579586Y-12485531D01*
X13579586Y-12485531D02*
X13589110Y-12476008D01*
X13589110Y-12476008D02*
X13579586Y-12466484D01*
X13579586Y-12466484D02*
X13579586Y-12485531D01*
X13703396Y-12666484D02*
X13684348Y-12656960D01*
X13684348Y-12656960D02*
X13674824Y-12637912D01*
X13674824Y-12637912D02*
X13674824Y-12466484D01*
X13808158Y-12666484D02*
X13789110Y-12656960D01*
X13789110Y-12656960D02*
X13779586Y-12637912D01*
X13779586Y-12637912D02*
X13779586Y-12466484D01*
X14036729Y-12666484D02*
X14036729Y-12466484D01*
X14036729Y-12466484D02*
X14103396Y-12609341D01*
X14103396Y-12609341D02*
X14170062Y-12466484D01*
X14170062Y-12466484D02*
X14170062Y-12666484D01*
X14351015Y-12666484D02*
X14351015Y-12561722D01*
X14351015Y-12561722D02*
X14341491Y-12542674D01*
X14341491Y-12542674D02*
X14322443Y-12533150D01*
X14322443Y-12533150D02*
X14284348Y-12533150D01*
X14284348Y-12533150D02*
X14265301Y-12542674D01*
X14351015Y-12656960D02*
X14331967Y-12666484D01*
X14331967Y-12666484D02*
X14284348Y-12666484D01*
X14284348Y-12666484D02*
X14265301Y-12656960D01*
X14265301Y-12656960D02*
X14255777Y-12637912D01*
X14255777Y-12637912D02*
X14255777Y-12618865D01*
X14255777Y-12618865D02*
X14265301Y-12599817D01*
X14265301Y-12599817D02*
X14284348Y-12590293D01*
X14284348Y-12590293D02*
X14331967Y-12590293D01*
X14331967Y-12590293D02*
X14351015Y-12580769D01*
X14446253Y-12533150D02*
X14446253Y-12733150D01*
X14446253Y-12542674D02*
X14465301Y-12533150D01*
X14465301Y-12533150D02*
X14503396Y-12533150D01*
X14503396Y-12533150D02*
X14522443Y-12542674D01*
X14522443Y-12542674D02*
X14531967Y-12552198D01*
X14531967Y-12552198D02*
X14541491Y-12571246D01*
X14541491Y-12571246D02*
X14541491Y-12628388D01*
X14541491Y-12628388D02*
X14531967Y-12647436D01*
X14531967Y-12647436D02*
X14522443Y-12656960D01*
X14522443Y-12656960D02*
X14503396Y-12666484D01*
X14503396Y-12666484D02*
X14465301Y-12666484D01*
X14465301Y-12666484D02*
X14446253Y-12656960D01*
X14627205Y-12647436D02*
X14636729Y-12656960D01*
X14636729Y-12656960D02*
X14627205Y-12666484D01*
X14627205Y-12666484D02*
X14617682Y-12656960D01*
X14617682Y-12656960D02*
X14627205Y-12647436D01*
X14627205Y-12647436D02*
X14627205Y-12666484D01*
X14627205Y-12542674D02*
X14636729Y-12552198D01*
X14636729Y-12552198D02*
X14627205Y-12561722D01*
X14627205Y-12561722D02*
X14617682Y-12552198D01*
X14617682Y-12552198D02*
X14627205Y-12542674D01*
X14627205Y-12542674D02*
X14627205Y-12561722D01*
M02*
