%TF.GenerationSoftware,KiCad,Pcbnew,7.0.10-7.0.10~ubuntu22.04.1*%
%TF.CreationDate,2024-04-10T21:14:16+02:00*%
%TF.ProjectId,STM32_watch_NFC,53544d33-325f-4776-9174-63685f4e4643,rev?*%
%TF.SameCoordinates,Original*%
%TF.FileFunction,Drillmap*%
%TF.FilePolarity,Positive*%
%FSLAX45Y45*%
G04 Gerber Fmt 4.5, Leading zero omitted, Abs format (unit mm)*
G04 Created by KiCad (PCBNEW 7.0.10-7.0.10~ubuntu22.04.1) date 2024-04-10 21:14:16*
%MOMM*%
%LPD*%
G01*
G04 APERTURE LIST*
%ADD10C,0.100000*%
%ADD11C,0.200000*%
G04 APERTURE END LIST*
D10*
X16850000Y-10500000D02*
G75*
G03*
X12850000Y-10500000I-2000000J0D01*
G01*
X12850000Y-10500000D02*
G75*
G03*
X16850000Y-10500000I2000000J0D01*
G01*
D11*
X13105777Y-12816484D02*
X13105777Y-12616484D01*
X13105777Y-12616484D02*
X13153396Y-12616484D01*
X13153396Y-12616484D02*
X13181967Y-12626008D01*
X13181967Y-12626008D02*
X13201015Y-12645055D01*
X13201015Y-12645055D02*
X13210539Y-12664103D01*
X13210539Y-12664103D02*
X13220062Y-12702198D01*
X13220062Y-12702198D02*
X13220062Y-12730769D01*
X13220062Y-12730769D02*
X13210539Y-12768865D01*
X13210539Y-12768865D02*
X13201015Y-12787912D01*
X13201015Y-12787912D02*
X13181967Y-12806960D01*
X13181967Y-12806960D02*
X13153396Y-12816484D01*
X13153396Y-12816484D02*
X13105777Y-12816484D01*
X13305777Y-12816484D02*
X13305777Y-12683150D01*
X13305777Y-12721246D02*
X13315301Y-12702198D01*
X13315301Y-12702198D02*
X13324824Y-12692674D01*
X13324824Y-12692674D02*
X13343872Y-12683150D01*
X13343872Y-12683150D02*
X13362920Y-12683150D01*
X13429586Y-12816484D02*
X13429586Y-12683150D01*
X13429586Y-12616484D02*
X13420062Y-12626008D01*
X13420062Y-12626008D02*
X13429586Y-12635531D01*
X13429586Y-12635531D02*
X13439110Y-12626008D01*
X13439110Y-12626008D02*
X13429586Y-12616484D01*
X13429586Y-12616484D02*
X13429586Y-12635531D01*
X13553396Y-12816484D02*
X13534348Y-12806960D01*
X13534348Y-12806960D02*
X13524824Y-12787912D01*
X13524824Y-12787912D02*
X13524824Y-12616484D01*
X13658158Y-12816484D02*
X13639110Y-12806960D01*
X13639110Y-12806960D02*
X13629586Y-12787912D01*
X13629586Y-12787912D02*
X13629586Y-12616484D01*
X13886729Y-12816484D02*
X13886729Y-12616484D01*
X13886729Y-12616484D02*
X13953396Y-12759341D01*
X13953396Y-12759341D02*
X14020062Y-12616484D01*
X14020062Y-12616484D02*
X14020062Y-12816484D01*
X14201015Y-12816484D02*
X14201015Y-12711722D01*
X14201015Y-12711722D02*
X14191491Y-12692674D01*
X14191491Y-12692674D02*
X14172443Y-12683150D01*
X14172443Y-12683150D02*
X14134348Y-12683150D01*
X14134348Y-12683150D02*
X14115301Y-12692674D01*
X14201015Y-12806960D02*
X14181967Y-12816484D01*
X14181967Y-12816484D02*
X14134348Y-12816484D01*
X14134348Y-12816484D02*
X14115301Y-12806960D01*
X14115301Y-12806960D02*
X14105777Y-12787912D01*
X14105777Y-12787912D02*
X14105777Y-12768865D01*
X14105777Y-12768865D02*
X14115301Y-12749817D01*
X14115301Y-12749817D02*
X14134348Y-12740293D01*
X14134348Y-12740293D02*
X14181967Y-12740293D01*
X14181967Y-12740293D02*
X14201015Y-12730769D01*
X14296253Y-12683150D02*
X14296253Y-12883150D01*
X14296253Y-12692674D02*
X14315301Y-12683150D01*
X14315301Y-12683150D02*
X14353396Y-12683150D01*
X14353396Y-12683150D02*
X14372443Y-12692674D01*
X14372443Y-12692674D02*
X14381967Y-12702198D01*
X14381967Y-12702198D02*
X14391491Y-12721246D01*
X14391491Y-12721246D02*
X14391491Y-12778388D01*
X14391491Y-12778388D02*
X14381967Y-12797436D01*
X14381967Y-12797436D02*
X14372443Y-12806960D01*
X14372443Y-12806960D02*
X14353396Y-12816484D01*
X14353396Y-12816484D02*
X14315301Y-12816484D01*
X14315301Y-12816484D02*
X14296253Y-12806960D01*
X14477205Y-12797436D02*
X14486729Y-12806960D01*
X14486729Y-12806960D02*
X14477205Y-12816484D01*
X14477205Y-12816484D02*
X14467682Y-12806960D01*
X14467682Y-12806960D02*
X14477205Y-12797436D01*
X14477205Y-12797436D02*
X14477205Y-12816484D01*
X14477205Y-12692674D02*
X14486729Y-12702198D01*
X14486729Y-12702198D02*
X14477205Y-12711722D01*
X14477205Y-12711722D02*
X14467682Y-12702198D01*
X14467682Y-12702198D02*
X14477205Y-12692674D01*
X14477205Y-12692674D02*
X14477205Y-12711722D01*
M02*
